<?xml version="1.0" encoding="UTF-8" standalone="no"?>
<!-- Created with Inkscape (http://www.inkscape.org/) -->

<svg
   xmlns:osb="http://www.openswatchbook.org/uri/2009/osb"
   xmlns:dc="http://purl.org/dc/elements/1.1/"
   xmlns:cc="http://creativecommons.org/ns#"
   xmlns:rdf="http://www.w3.org/1999/02/22-rdf-syntax-ns#"
   xmlns:svg="http://www.w3.org/2000/svg"
   xmlns="http://www.w3.org/2000/svg"
   xmlns:xlink="http://www.w3.org/1999/xlink"
   xmlns:sodipodi="http://sodipodi.sourceforge.net/DTD/sodipodi-0.dtd"
   xmlns:inkscape="http://www.inkscape.org/namespaces/inkscape"
   width="128"
   height="128"
   viewBox="0 0 33.866666 33.866668"
   version="1.1"
   id="svg8"
   inkscape:version="0.92.2 5c3e80d, 2017-08-06"
   sodipodi:docname="bluetooth.svg">
  <defs
     id="defs2">
    <linearGradient
       inkscape:collect="always"
       id="linearGradient2831">
      <stop
         style="stop-color:#f6f6f6;stop-opacity:1"
         offset="0"
         id="stop2827" />
      <stop
         style="stop-color:#d2d2d2;stop-opacity:1"
         offset="1"
         id="stop2829" />
    </linearGradient>
    <linearGradient
       id="linearGradient943"
       inkscape:collect="always">
      <stop
         id="stop939"
         offset="0"
         style="stop-color:#0db7fa;stop-opacity:1" />
      <stop
         id="stop941"
         offset="1"
         style="stop-color:#0070fc;stop-opacity:1" />
    </linearGradient>
    <linearGradient
       osb:paint="solid"
       id="linearGradient6987">
      <stop
         id="stop6985"
         offset="0"
         style="stop-color:#77d2fb;stop-opacity:1;" />
    </linearGradient>
    <linearGradient
       inkscape:collect="always"
       xlink:href="#linearGradient943"
       id="linearGradient908"
       gradientUnits="userSpaceOnUse"
       x1="-275.78763"
       y1="97.916237"
       x2="-278.22531"
       y2="250.32806"
       gradientTransform="matrix(0.2132286,0,0,0.2132286,75.01834,242.80816)" />
    <linearGradient
       inkscape:collect="always"
       xlink:href="#linearGradient2831"
       id="linearGradient2833"
       x1="-33.717705"
       y1="139.26482"
       x2="-23.581802"
       y2="190.62598"
       gradientUnits="userSpaceOnUse"
       gradientTransform="matrix(0.25378866,0,0,0.25378866,24.60741,242.02587)" />
  </defs>
  <sodipodi:namedview
     id="base"
     pagecolor="#ffffff"
     bordercolor="#666666"
     borderopacity="1.0"
     inkscape:pageopacity="0.0"
     inkscape:pageshadow="2"
     inkscape:zoom="1.6898438"
     inkscape:cx="121.03759"
     inkscape:cy="57.776702"
     inkscape:document-units="mm"
     inkscape:current-layer="layer1"
     showgrid="false"
     inkscape:window-width="1600"
     inkscape:window-height="811"
     inkscape:window-x="0"
     inkscape:window-y="0"
     inkscape:window-maximized="1"
     units="px" />
  <metadata
     id="metadata5">
    <rdf:RDF>
      <cc:Work
         rdf:about="">
        <dc:format>image/svg+xml</dc:format>
        <dc:type
           rdf:resource="http://purl.org/dc/dcmitype/StillImage" />
        <dc:title />
      </cc:Work>
    </rdf:RDF>
  </metadata>
  <g
     inkscape:label="Layer 1"
     inkscape:groupmode="layer"
     id="layer1"
     transform="translate(0,-263.13332)">
    <g
       id="g835"
       transform="matrix(0.94910796,0,0,0.94937759,0.86233317,14.227635)"
       style="stroke-width:1.05347133">
      <path
         inkscape:connector-curvature="0"
         style="opacity:0.25;fill:#000000;fill-opacity:1;stroke-width:0.15612312"
         d="m 16.933887,263.93509 c -0.706794,0 -1.413542,0.0219 -1.842904,0.0656 -2.846611,0.28978 -4.870527,1.12985 -6.3962664,2.65485 -0.7930591,0.79267 -1.490785,1.84113 -2.0502495,3.08095 -0.945114,2.09446 -1.4586249,4.40263 -1.7166087,7.71562 -0.065998,0.84753 -0.065998,4.86939 0,5.71692 0.3202382,4.11247 1.1112035,7.02048 2.5188474,9.26121 1.6965239,2.70057 4.1920402,3.99961 8.2459872,4.29224 0.503075,0.0363 2.7488,-0.009 3.25341,-0.0664 2.86932,-0.32335 4.840232,-1.18683 6.379085,-2.79478 1.65239,-1.7266 2.859305,-4.69753 3.3582,-8.26645 0.254332,-1.81941 0.30492,-2.69572 0.30492,-5.28438 0,-2.2261 -0.0181,-2.70094 -0.153705,-4.0432 -0.258672,-2.56049 -0.788186,-4.70672 -1.611297,-6.53082 -0.578983,-1.28308 -1.373215,-2.45506 -2.183237,-3.2218 -1.50887,-1.42828 -3.517097,-2.23446 -6.263146,-2.514 -0.429362,-0.0437 -1.136245,-0.0656 -1.843036,-0.0656 z"
         id="path2837" />
      <path
         inkscape:connector-curvature="0"
         id="path915"
         d="m 16.933887,263.3979 c -0.706794,0 -1.413542,0.0219 -1.842904,0.0656 -2.846611,0.28978 -4.870527,1.12986 -6.3962664,2.65485 -0.7930591,0.79268 -1.490785,1.84113 -2.0502495,3.08095 -0.945114,2.09446 -1.4586249,4.40263 -1.7166087,7.71562 -0.065998,0.84753 -0.065998,4.86939 0,5.71692 0.3202382,4.11247 1.1112035,7.02048 2.5188474,9.26121 1.6965239,2.70057 4.1920402,3.99961 8.2459872,4.29224 0.503075,0.0363 2.7488,-0.009 3.25341,-0.0664 2.86932,-0.32335 4.840232,-1.18683 6.379085,-2.79478 1.65239,-1.72659 2.859305,-4.69753 3.3582,-8.26645 0.254332,-1.81941 0.30492,-2.69572 0.30492,-5.28438 0,-2.2261 -0.0181,-2.70093 -0.153705,-4.0432 -0.258672,-2.56049 -0.788186,-4.70672 -1.611297,-6.53082 -0.578983,-1.28308 -1.373215,-2.45505 -2.183237,-3.2218 -1.50887,-1.42828 -3.517097,-2.23445 -6.263146,-2.514 -0.429362,-0.0437 -1.136245,-0.0656 -1.843036,-0.0656 z"
         style="fill:url(#linearGradient908);fill-opacity:1;stroke:#002e66;stroke-width:0.21069427;stroke-miterlimit:4;stroke-dasharray:none;stroke-opacity:1" />
      <path
         inkscape:connector-curvature="0"
         style="opacity:0.25;fill:#000000;fill-opacity:1;stroke-width:0.27873096"
         d="m 10.502842,275.25252 4.821794,4.87595 v 0 l -4.821794,4.87599 1.533502,1.54578 4.008732,-3.96481 v 9.30732 l 7.31875,-6.90082 -4.437018,-4.86346 4.425303,-4.8567 -7.2673,-6.76263 -0.03457,9.26345 -4.008739,-4.06068 z m 7.749888,-2.18383 2.223026,2.11638 -2.223026,2.7413 z m 0,9.72896 2.228178,2.27423 -2.223026,2.11638 z"
         id="path2835" />
      <path
         id="path2800"
         d="m 10.502842,274.84962 4.821794,4.87596 v 0 l -4.821794,4.87599 1.533502,1.54578 4.008732,-3.96481 v 9.30732 l 7.31875,-6.90082 -4.437018,-4.86346 4.425303,-4.8567 -7.2673,-6.76263 -0.03457,9.26345 -4.008739,-4.06068 z m 7.749888,-2.18382 2.223026,2.11638 -2.223026,2.7413 z m 0,9.72896 2.228178,2.27422 -2.223026,2.11639 z"
         style="fill:url(#linearGradient2833);fill-opacity:1;stroke:#002e66;stroke-width:0.10534713;stroke-miterlimit:4;stroke-dasharray:none;stroke-opacity:1"
         inkscape:connector-curvature="0" />
    </g>
  </g>
</svg>
