<?xml version="1.0" encoding="UTF-8" standalone="no"?>
<!-- Created with Inkscape (http://www.inkscape.org/) -->

<svg
   xmlns:osb="http://www.openswatchbook.org/uri/2009/osb"
   xmlns:dc="http://purl.org/dc/elements/1.1/"
   xmlns:cc="http://creativecommons.org/ns#"
   xmlns:rdf="http://www.w3.org/1999/02/22-rdf-syntax-ns#"
   xmlns:svg="http://www.w3.org/2000/svg"
   xmlns="http://www.w3.org/2000/svg"
   xmlns:xlink="http://www.w3.org/1999/xlink"
   xmlns:sodipodi="http://sodipodi.sourceforge.net/DTD/sodipodi-0.dtd"
   xmlns:inkscape="http://www.inkscape.org/namespaces/inkscape"
   width="128"
   height="128"
   viewBox="0 0 33.866665 33.866665"
   version="1.1"
   id="svg4942"
   inkscape:version="0.92.2 5c3e80d, 2017-08-06"
   sodipodi:docname="drive-harddisk-usb.svg">
  <defs
     id="defs4936">
    <linearGradient
       inkscape:collect="always"
       id="linearGradient5420">
      <stop
         style="stop-color:#d5e3e8;stop-opacity:1"
         offset="0"
         id="stop5416" />
      <stop
         style="stop-color:#a0a0a1;stop-opacity:1"
         offset="1"
         id="stop5418" />
    </linearGradient>
    <linearGradient
       inkscape:collect="always"
       id="linearGradient5408">
      <stop
         style="stop-color:#dfe5e8;stop-opacity:1"
         offset="0"
         id="stop5404" />
      <stop
         style="stop-color:#c3cacc;stop-opacity:1"
         offset="1"
         id="stop5406" />
    </linearGradient>
    <linearGradient
       inkscape:collect="always"
       id="linearGradient5400">
      <stop
         style="stop-color:#ffc220;stop-opacity:1"
         offset="0"
         id="stop5396" />
      <stop
         style="stop-color:#ec9c01;stop-opacity:1"
         offset="1"
         id="stop5398" />
    </linearGradient>
    <linearGradient
       id="linearGradient6987"
       osb:paint="solid">
      <stop
         style="stop-color:#77d2fb;stop-opacity:1;"
         offset="0"
         id="stop6985" />
    </linearGradient>
    <radialGradient
       inkscape:collect="always"
       xlink:href="#linearGradient5408"
       id="radialGradient5414"
       cx="502.62054"
       cy="372.05499"
       fx="502.62054"
       fy="372.05499"
       r="74.884071"
       gradientTransform="matrix(0.19229232,0,0,0.0479306,-79.716742,275.86175)"
       gradientUnits="userSpaceOnUse" />
    <linearGradient
       inkscape:collect="always"
       xlink:href="#linearGradient5420"
       id="linearGradient5422"
       x1="496.5524"
       y1="216.14406"
       x2="504.37988"
       y2="349.10312"
       gradientUnits="userSpaceOnUse"
       gradientTransform="matrix(0.20403243,0,0,0.20403243,-85.617565,219.89306)" />
    <linearGradient
       inkscape:collect="always"
       xlink:href="#linearGradient5400"
       id="linearGradient5448"
       gradientUnits="userSpaceOnUse"
       gradientTransform="matrix(0.20043045,0,0,0.20043045,-84.053886,220.67166)"
       x1="501.82697"
       y1="216.4304"
       x2="502.79834"
       y2="324.15189" />
  </defs>
  <sodipodi:namedview
     id="base"
     pagecolor="#ffffff"
     bordercolor="#666666"
     borderopacity="1.0"
     inkscape:pageopacity="0.0"
     inkscape:pageshadow="2"
     inkscape:zoom="2.9755811"
     inkscape:cx="42.572152"
     inkscape:cy="79.047755"
     inkscape:document-units="mm"
     inkscape:current-layer="layer1"
     showgrid="false"
     units="px"
     width="128px"
     inkscape:window-width="1600"
     inkscape:window-height="811"
     inkscape:window-x="0"
     inkscape:window-y="0"
     inkscape:window-maximized="1" />
  <metadata
     id="metadata4939">
    <rdf:RDF>
      <cc:Work
         rdf:about="">
        <dc:format>image/svg+xml</dc:format>
        <dc:type
           rdf:resource="http://purl.org/dc/dcmitype/StillImage" />
        <dc:title />
      </cc:Work>
    </rdf:RDF>
  </metadata>
  <g
     inkscape:label="Layer 1"
     inkscape:groupmode="layer"
     id="layer1"
     transform="translate(0,-263.13332)">
    <g
       id="g848"
       transform="matrix(0.93985229,0,0,0.94006522,1.0185055,16.587017)"
       style="stroke-width:1.06387651">
      <path
         style="opacity:0.25;fill:#000000;fill-opacity:1;stroke:none;stroke-width:0.2127753;stroke-miterlimit:4;stroke-dasharray:none;stroke-opacity:1"
         d="m 2.1453041,289.98669 c -0.5338959,0.0924 -0.521509,0.95908 -0.4636332,1.82483 0.020888,1.12323 0.08074,2.42663 0.1806278,3.59586 0.054738,0.97169 0.6513002,1.75779 1.4603133,1.75779 h 0.08659 2.0556328 22.8504062 0.08659 2.055637 0.08659 c 0.809011,0 1.40558,-0.7861 1.460317,-1.75779 0.09989,-1.16923 0.159733,-2.47263 0.180625,-3.59586 0.05788,-0.86575 0.07027,-1.73234 -0.463629,-1.82483 H 29.579238 18.004399 15.862268 4.2874283 Z"
         id="path839"
         inkscape:connector-curvature="0" />
      <path
         inkscape:connector-curvature="0"
         id="rect5373"
         d="m 2.1453041,289.45752 c -0.5338959,0.0924 -0.521509,0.95908 -0.4636332,1.82483 0.020888,1.12323 0.08074,2.42663 0.1806278,3.59586 0.054738,0.97169 0.6513002,1.75779 1.4603133,1.75779 h 0.08659 2.0556328 22.8504062 0.08659 2.055637 0.08659 c 0.809011,0 1.40558,-0.7861 1.460317,-1.75779 0.09989,-1.16923 0.159733,-2.47263 0.180625,-3.59586 0.05788,-0.86575 0.07027,-1.73234 -0.463629,-1.82483 H 29.579238 18.004399 15.862268 4.2874283 Z"
         style="opacity:1;fill:url(#radialGradient5414);fill-opacity:1;stroke:#808080;stroke-width:0.2127753;stroke-miterlimit:4;stroke-dasharray:none;stroke-opacity:1" />
      <path
         style="opacity:1;fill:#f3fdff;fill-opacity:1;stroke:none;stroke-width:1.02062058;stroke-miterlimit:4;stroke-dasharray:none;stroke-opacity:1"
         d="m 5.4546529,263.82121 c -0.3077237,-5.4e-4 -0.573884,0.0504 -0.790142,0.15784 -0.3518437,0.13046 -0.5008772,0.37499 -0.6023609,0.77327 l -2.4277861,25.7236 c -0.011916,0.12631 -0.00413,0.24887 0.020564,0.36587 0.00987,0.0468 0.022424,0.0927 0.037534,0.13759 0.00755,0.0225 0.015772,0.0446 0.024568,0.0665 0.026394,0.0657 0.058314,0.12902 0.095104,0.18946 0.061313,0.10073 0.1361793,0.19353 0.2219422,0.27646 0.017159,0.0166 0.034722,0.0327 0.05272,0.0485 0.090003,0.0789 0.190342,0.14754 0.298173,0.20402 0.021563,0.0113 0.043332,0.0222 0.065478,0.0325 0.1992969,0.0927 0.4212006,0.14466 0.6495944,0.14466 H 30.766625 c 0.532839,0 1.030383,-0.28305 1.287909,-0.70611 0.03679,-0.0604 0.06871,-0.12374 0.0951,-0.18947 0.0087,-0.0219 0.01701,-0.0441 0.02456,-0.0665 0.01511,-0.0448 0.02767,-0.0908 0.03753,-0.13759 0.02469,-0.117 0.03249,-0.23956 0.02057,-0.36587 l -2.427786,-25.7236 c -0.101484,-0.39828 -0.250517,-0.64281 -0.602359,-0.77327 -0.216259,-0.1074 -0.482527,-0.15838 -0.790245,-0.15784 l -11.478577,0.0189 z"
         id="path5490"
         inkscape:connector-curvature="0" />
      <path
         inkscape:connector-curvature="0"
         id="rect5346"
         d="m 5.4546529,263.49731 c -0.3077237,-5.4e-4 -0.573884,0.0504 -0.790142,0.15783 -0.3518437,0.13046 -0.5008772,0.37499 -0.6023609,0.77328 l -2.4277861,25.7236 c -0.011916,0.1263 -0.00413,0.24886 0.020564,0.36586 0.00987,0.0468 0.022424,0.0928 0.037534,0.1376 0.00755,0.0225 0.015772,0.0446 0.024568,0.0665 0.026394,0.0657 0.058314,0.12903 0.095104,0.18947 0.061313,0.10073 0.1361793,0.19353 0.2219422,0.27645 0.017159,0.0166 0.034722,0.0327 0.05272,0.0485 0.090003,0.0789 0.190342,0.14755 0.298173,0.20403 0.021563,0.0112 0.043332,0.0222 0.065478,0.0325 0.1992969,0.0928 0.4212006,0.14467 0.6495944,0.14467 H 30.766625 c 0.532839,0 1.030383,-0.28306 1.287909,-0.70611 0.03679,-0.0604 0.06871,-0.12374 0.0951,-0.18947 0.0087,-0.0219 0.01701,-0.0441 0.02456,-0.0665 0.01511,-0.0448 0.02767,-0.0908 0.03753,-0.1376 0.02469,-0.117 0.03249,-0.23956 0.02057,-0.36586 L 29.80451,264.42841 c -0.101484,-0.39829 -0.250518,-0.64282 -0.602359,-0.77328 -0.216259,-0.10739 -0.482527,-0.15838 -0.790245,-0.15783 l -11.478577,0.0189 z"
         style="opacity:1;fill:url(#linearGradient5422);fill-opacity:1;stroke:#808080;stroke-width:0.2127753;stroke-miterlimit:4;stroke-dasharray:none;stroke-opacity:1" />
      <path
         inkscape:connector-curvature="0"
         id="path5365"
         d="m 6.2048212,263.99655 c -0.5916983,0.005 -1.2864676,0.0904 -1.4358581,0.71125 l -1.8077008,19.74072 c -0.010876,0.0969 -0.00382,0.19093 0.018751,0.28069 0.00902,0.0359 0.020478,0.0711 0.034283,0.10555 0.00688,0.0172 0.014425,0.0343 0.022473,0.0511 0.024106,0.0504 0.053194,0.0989 0.086793,0.14532 0.014385,0.0199 0.029693,0.0394 0.045677,0.0585 0.00484,0.006 0.010161,0.0112 0.01514,0.0169 0.011386,0.013 0.022797,0.0259 0.034904,0.0386 0.00647,0.007 0.013405,0.0132 0.020097,0.0198 0.011568,0.0114 0.023073,0.0229 0.035218,0.0339 0.00632,0.006 0.012997,0.0112 0.019484,0.0169 0.010692,0.009 0.021126,0.0188 0.032211,0.0277 0.00283,0.002 0.00584,0.004 0.00869,0.007 0.00378,0.003 0.00767,0.006 0.011508,0.009 0.00928,0.007 0.018423,0.0145 0.027966,0.0216 0.00485,0.004 0.010079,0.007 0.015017,0.0103 0.010017,0.007 0.020159,0.0142 0.030451,0.0212 0.011465,0.008 0.023025,0.0154 0.034804,0.0228 0.010935,0.007 0.022034,0.0136 0.033245,0.0203 0.011813,0.007 0.02374,0.0139 0.035838,0.0206 0.011508,0.006 0.023142,0.0126 0.034906,0.0188 0.012221,0.006 0.024599,0.0125 0.037076,0.0186 0.011955,0.006 0.023879,0.0116 0.036044,0.0171 0.00504,0.002 0.00986,0.005 0.014916,0.007 0.013895,0.006 0.028026,0.0117 0.042159,0.0175 0.00283,9.9e-4 0.00564,0.002 0.00851,0.004 0.00308,0.001 0.00604,0.003 0.00912,0.004 0.022749,0.009 0.045818,0.0173 0.069188,0.0251 0,0 9.99e-5,0 9.99e-5,0 0.025377,0.009 0.051239,0.0164 0.077272,0.0239 0.00845,0.002 0.016974,0.005 0.025475,0.007 0.018322,0.005 0.036708,0.01 0.055311,0.0138 0.00944,0.002 0.018954,0.004 0.028483,0.006 0.017875,0.004 0.035853,0.007 0.053964,0.0103 0.00924,0.002 0.018464,0.003 0.027755,0.005 0.019506,0.003 0.039127,0.006 0.058833,0.008 0.00853,10e-4 0.017018,0.002 0.025583,0.003 0.021233,0.002 0.04258,0.004 0.064013,0.005 0.00702,5.3e-4 0.013996,9.9e-4 0.021022,9.9e-4 0.028644,0.002 0.057376,0.002 0.086281,0.002 H 29.566812 c 0.02891,0 0.05763,-0.001 0.08628,-0.002 0.0071,-5.3e-4 0.01401,-9.9e-4 0.02102,-9.9e-4 0.02142,-10e-4 0.04277,-0.003 0.06401,-0.005 0.0085,-8.1e-4 0.01706,-0.002 0.02558,-0.003 0.01971,-0.002 0.03933,-0.005 0.05883,-0.008 0.0093,-9.9e-4 0.01853,-0.003 0.02776,-0.005 0.0181,-0.003 0.03607,-0.007 0.05397,-0.0103 0.0095,-0.002 0.01905,-0.004 0.02848,-0.006 0.01899,-0.004 0.03783,-0.009 0.05656,-0.0141 0.0079,-0.002 0.01589,-0.004 0.02373,-0.006 0.02624,-0.007 0.05221,-0.0154 0.07778,-0.0241 0,0 1.02e-4,0 1.02e-4,0 0.02338,-0.008 0.04644,-0.0163 0.06918,-0.0251 0.0029,-10e-4 0.0056,-0.002 0.0084,-0.004 0.004,-0.002 0.0079,-0.003 0.01181,-0.005 0.01323,-0.005 0.02654,-0.0107 0.03956,-0.0165 0.005,-0.002 0.0098,-0.005 0.01481,-0.007 0.01238,-0.006 0.02453,-0.0115 0.03667,-0.0174 0.01203,-0.006 0.02403,-0.0118 0.03583,-0.0179 0.01205,-0.006 0.02395,-0.0127 0.03574,-0.0193 0.01238,-0.007 0.02458,-0.0138 0.03667,-0.0211 0.01074,-0.006 0.02137,-0.0129 0.0319,-0.0196 0.01192,-0.008 0.02362,-0.0152 0.03522,-0.023 0.01029,-0.007 0.02044,-0.0139 0.03045,-0.0212 0.005,-0.004 0.01015,-0.007 0.01503,-0.0103 0.0095,-0.007 0.0187,-0.0143 0.02796,-0.0216 0.0038,-0.003 0.0078,-0.006 0.01152,-0.009 0.0029,-0.002 0.0059,-0.004 0.0086,-0.007 0.01108,-0.009 0.02153,-0.0185 0.03221,-0.0277 0.0065,-0.006 0.01315,-0.0111 0.01947,-0.0169 0.01213,-0.011 0.02365,-0.0225 0.03522,-0.0339 0.0067,-0.007 0.01361,-0.013 0.02009,-0.0198 0.0154,-0.016 0.0302,-0.0324 0.04443,-0.0491 0.0013,-0.002 0.0032,-0.003 0.0047,-0.005 8e-5,-10e-5 1.25e-4,-2e-4 2.01e-4,-5.4e-4 0.01625,-0.0193 0.03179,-0.0391 0.0464,-0.0592 0.0336,-0.0463 0.06279,-0.0949 0.0869,-0.14532 0.0081,-0.0168 0.01546,-0.0339 0.02237,-0.0511 0.01382,-0.0344 0.02528,-0.0696 0.03428,-0.10553 0.0169,-0.0673 0.02515,-0.13707 0.02362,-0.2086 -5.35e-4,-0.0239 -0.0022,-0.0479 -0.0048,-0.0721 l -1.807802,-19.74072 c -0.170738,-0.70956 -1.053748,-0.72025 -1.681231,-0.7095 l -10.483066,0.0144 -10.4830638,-0.0144 c -0.078438,-9.9e-4 -0.1608429,-0.002 -0.2453735,-0.002 z"
         style="opacity:1;fill:url(#linearGradient5448);fill-opacity:1;stroke:#b27904;stroke-width:0.2127753;stroke-miterlimit:4;stroke-dasharray:none;stroke-opacity:1" />
      <ellipse
         ry="0.60832644"
         rx="0.73897028"
         cy="294.31842"
         cx="27.050055"
         id="path5424"
         style="opacity:1;fill:#00ff00;fill-opacity:1;stroke:#a3a4a5;stroke-width:0.27970478;stroke-linecap:round;stroke-miterlimit:4;stroke-dasharray:none;stroke-opacity:1" />
      <path
         inkscape:connector-curvature="0"
         id="rect975"
         d="m 17.051612,264.60489 -2.455821,2.58087 1.743729,0.0121 1.09e-4,11.84585 c -0.202552,-0.17202 -1.295659,-1.09586 -1.851181,-1.46134 -0.611014,-0.40198 -1.849114,-1.70444 -2.138544,-2.50841 -0.340324,-0.59187 -0.219137,-2.33536 -0.197406,-2.61284 a 2.0983566,1.3426268 0 0 0 1.612412,-1.30443 2.0983566,1.3426268 0 0 0 -2.098371,-1.34264 2.0983566,1.3426268 0 0 0 -2.0983713,1.34264 2.0983566,1.3426268 0 0 0 1.4364953,1.2729 c -0.03953,0.344 -0.165391,1.66578 0.107127,2.64437 0.353744,1.27026 2.59081,3.11179 3.682164,4.00376 0.799566,0.65349 1.3293,1.41758 1.545675,1.76134 v 0.15637 a 2.7856072,1.9442403 0 0 0 -2.107659,1.8839 2.7856072,1.9442403 0 0 0 2.785517,1.94415 2.7856072,1.9442403 0 0 0 2.785625,-1.94415 2.7856072,1.9442403 0 0 0 -2.134439,-1.88812 l 0.0055,-1.1e-4 c 0,0 -0.03967,-1.76872 0.0568,-3.37666 0.09648,-1.60793 3.751078,-3.84566 4.590045,-4.77557 0.587072,-0.55468 0.826568,-1.15366 0.746433,-2.26738 l 1.230986,-0.005 -0.144706,-2.3245 H 20.62286 v 2.34059 l 1.243731,-0.005 c 0.04171,0.33601 0.123278,0.82653 -0.05551,1.18217 -0.354991,0.70617 -1.080455,1.1576 -1.60442,1.6082 -0.823323,0.70805 -1.729115,1.30091 -2.532495,2.10875 v -8.26876 l 1.8447,0.0127 z"
         style="opacity:1;fill:#ffffff;fill-opacity:1;stroke:none;stroke-width:0.41350448;stroke-linecap:round;stroke-linejoin:round;stroke-miterlimit:4;stroke-dasharray:none;stroke-opacity:1" />
    </g>
  </g>
</svg>
