<?xml version="1.0" encoding="UTF-8" standalone="no"?>
<!-- Created with Inkscape (http://www.inkscape.org/) -->

<svg
   xmlns:osb="http://www.openswatchbook.org/uri/2009/osb"
   xmlns:dc="http://purl.org/dc/elements/1.1/"
   xmlns:cc="http://creativecommons.org/ns#"
   xmlns:rdf="http://www.w3.org/1999/02/22-rdf-syntax-ns#"
   xmlns:svg="http://www.w3.org/2000/svg"
   xmlns="http://www.w3.org/2000/svg"
   xmlns:xlink="http://www.w3.org/1999/xlink"
   xmlns:sodipodi="http://sodipodi.sourceforge.net/DTD/sodipodi-0.dtd"
   xmlns:inkscape="http://www.inkscape.org/namespaces/inkscape"
   width="128"
   height="128"
   viewBox="0 0 33.866665 33.866665"
   version="1.1"
   id="svg4942"
   inkscape:version="0.92.2 5c3e80d, 2017-08-06"
   sodipodi:docname="drive-harddisk-ieee1394.svg">
  <defs
     id="defs4936">
    <linearGradient
       inkscape:collect="always"
       id="linearGradient5420">
      <stop
         style="stop-color:#d5e3e8;stop-opacity:1"
         offset="0"
         id="stop5416" />
      <stop
         style="stop-color:#a0a0a1;stop-opacity:1"
         offset="1"
         id="stop5418" />
    </linearGradient>
    <linearGradient
       inkscape:collect="always"
       id="linearGradient5408">
      <stop
         style="stop-color:#dfe5e8;stop-opacity:1"
         offset="0"
         id="stop5404" />
      <stop
         style="stop-color:#c3cacc;stop-opacity:1"
         offset="1"
         id="stop5406" />
    </linearGradient>
    <linearGradient
       inkscape:collect="always"
       id="linearGradient5400">
      <stop
         style="stop-color:#ffc220;stop-opacity:1"
         offset="0"
         id="stop5396" />
      <stop
         style="stop-color:#ec9c01;stop-opacity:1"
         offset="1"
         id="stop5398" />
    </linearGradient>
    <linearGradient
       id="linearGradient6987"
       osb:paint="solid">
      <stop
         style="stop-color:#77d2fb;stop-opacity:1;"
         offset="0"
         id="stop6985" />
    </linearGradient>
    <radialGradient
       inkscape:collect="always"
       xlink:href="#linearGradient5408"
       id="radialGradient5414"
       cx="502.62054"
       cy="372.05499"
       fx="502.62054"
       fy="372.05499"
       r="74.884071"
       gradientTransform="matrix(0.1934459,0,0,0.04821814,-71.244038,267.81571)"
       gradientUnits="userSpaceOnUse" />
    <linearGradient
       inkscape:collect="always"
       xlink:href="#linearGradient5420"
       id="linearGradient5422"
       x1="496.5524"
       y1="216.14406"
       x2="504.37988"
       y2="349.10312"
       gradientUnits="userSpaceOnUse"
       gradientTransform="matrix(0.20525644,0,0,0.20525644,-77.180259,211.51126)" />
    <linearGradient
       inkscape:collect="always"
       xlink:href="#linearGradient5400"
       id="linearGradient5448"
       gradientUnits="userSpaceOnUse"
       gradientTransform="matrix(0.20163285,0,0,0.20163285,-75.6072,212.29453)"
       x1="501.82697"
       y1="216.4304"
       x2="502.79834"
       y2="324.15189" />
  </defs>
  <sodipodi:namedview
     id="base"
     pagecolor="#ffffff"
     bordercolor="#666666"
     borderopacity="1.0"
     inkscape:pageopacity="0.0"
     inkscape:pageshadow="2"
     inkscape:zoom="2.055132"
     inkscape:cx="109.67574"
     inkscape:cy="71.788711"
     inkscape:document-units="mm"
     inkscape:current-layer="layer1"
     showgrid="false"
     units="px"
     width="128px"
     inkscape:window-width="1600"
     inkscape:window-height="805"
     inkscape:window-x="5"
     inkscape:window-y="2"
     inkscape:window-maximized="0" />
  <metadata
     id="metadata4939">
    <rdf:RDF>
      <cc:Work
         rdf:about="">
        <dc:format>image/svg+xml</dc:format>
        <dc:type
           rdf:resource="http://purl.org/dc/dcmitype/StillImage" />
        <dc:title />
      </cc:Work>
    </rdf:RDF>
  </metadata>
  <g
     inkscape:label="Layer 1"
     inkscape:groupmode="layer"
     id="layer1"
     transform="translate(0,-263.13332)">
    <g
       id="g897"
       transform="matrix(0.93431609,0,0,0.93454721,-7.3456725,25.629709)"
       style="stroke-width:1.07016933">
      <path
         style="opacity:0.25;fill:#000000;fill-opacity:1;stroke:none;stroke-width:0.21403386;stroke-miterlimit:4;stroke-dasharray:none;stroke-opacity:1"
         d="m 11.109106,282.02222 c -0.537099,0.093 -0.524637,0.96483 -0.466414,1.83577 0.02101,1.12997 0.08122,2.44119 0.181711,3.61744 0.05507,0.97751 0.655207,1.76833 1.469074,1.76833 h 0.08711 2.067964 22.987489 0.08711 2.06797 0.08711 c 0.813864,0 1.414011,-0.79082 1.469077,-1.76833 0.100487,-1.17625 0.160691,-2.48747 0.181709,-3.61744 0.05823,-0.87094 0.07069,-1.74273 -0.46641,-1.83577 H 38.707619 27.06334 24.908359 13.264081 Z"
         id="path882"
         inkscape:connector-curvature="0" />
      <path
         inkscape:connector-curvature="0"
         id="rect5373"
         d="m 11.109106,281.49305 c -0.537099,0.093 -0.524637,0.96483 -0.466414,1.83577 0.02101,1.12997 0.08122,2.44119 0.181711,3.61744 0.05507,0.97751 0.655207,1.76833 1.469074,1.76833 h 0.08711 2.067964 22.987489 0.08711 2.06797 0.08711 c 0.813864,0 1.414011,-0.79082 1.469077,-1.76833 0.100487,-1.17625 0.160691,-2.48747 0.181709,-3.61744 0.05823,-0.87094 0.07069,-1.74273 -0.46641,-1.83577 H 38.707619 27.06334 24.908359 13.264081 Z"
         style="opacity:1;fill:url(#radialGradient5414);fill-opacity:1;stroke:#808080;stroke-width:0.21403386;stroke-miterlimit:4;stroke-dasharray:none;stroke-opacity:1" />
      <path
         style="opacity:1;fill:#f3fdff;fill-opacity:1;stroke:none;stroke-width:3.83333898;stroke-miterlimit:4;stroke-dasharray:none;stroke-opacity:1"
         d="m 14.438308,255.70294 c -0.30957,-5.4e-4 -0.577327,0.0507 -0.794882,0.15879 -0.353955,0.13124 -0.503882,0.37724 -0.605975,0.77791 l -2.44235,25.87792 c -0.01199,0.12706 -0.0041,0.25036 0.02069,0.36806 0.0099,0.0471 0.02256,0.0933 0.03776,0.13842 0.0076,0.0226 0.01587,0.0449 0.02471,0.0669 0.02655,0.0661 0.05867,0.1298 0.09568,0.1906 0.06168,0.10134 0.136996,0.19469 0.223273,0.27812 0.01726,0.0167 0.03493,0.0329 0.05304,0.0488 0.09054,0.0794 0.191484,0.14843 0.299962,0.20524 0.02169,0.0113 0.04359,0.0223 0.06587,0.0327 0.200493,0.0933 0.423728,0.14553 0.653492,0.14553 h 27.832559 c 0.536036,0 1.036564,-0.28475 1.295635,-0.71035 0.03701,-0.0608 0.06912,-0.12448 0.09567,-0.1906 0.0088,-0.022 0.01711,-0.0444 0.02471,-0.0669 0.0152,-0.0452 0.02783,-0.0913 0.03776,-0.13842 0.02484,-0.1177 0.03269,-0.241 0.02069,-0.36806 l -2.44235,-25.87792 c -0.102093,-0.40067 -0.25202,-0.64667 -0.605973,-0.77791 -0.217556,-0.10805 -0.485421,-0.15933 -0.794985,-0.15879 l -11.547438,0.019 z"
         id="path5490"
         inkscape:connector-curvature="0" />
      <path
         inkscape:connector-curvature="0"
         id="rect5346"
         d="m 14.438308,255.3771 c -0.30957,-5.4e-4 -0.577327,0.0507 -0.794882,0.15878 -0.353955,0.13124 -0.503882,0.37724 -0.605975,0.77791 l -2.44235,25.87792 c -0.01199,0.12706 -0.0041,0.25036 0.02069,0.36806 0.0099,0.0471 0.02256,0.0933 0.03776,0.13842 0.0076,0.0226 0.01587,0.0449 0.02471,0.0669 0.02655,0.0661 0.05867,0.12981 0.09568,0.19061 0.06168,0.10133 0.136996,0.19469 0.223273,0.27811 0.01726,0.0167 0.03493,0.0329 0.05304,0.0488 0.09054,0.0794 0.191484,0.14843 0.299962,0.20525 0.02169,0.0113 0.04359,0.0223 0.06587,0.0327 0.200493,0.0933 0.423728,0.14553 0.653492,0.14553 h 27.832559 c 0.536036,0 1.036564,-0.28475 1.295635,-0.71034 0.03701,-0.0608 0.06912,-0.12448 0.09567,-0.19061 0.0088,-0.022 0.01711,-0.0444 0.02471,-0.0669 0.0152,-0.0452 0.02783,-0.0913 0.03776,-0.13842 0.02484,-0.1177 0.03269,-0.241 0.02069,-0.36806 l -2.44235,-25.87792 c -0.102093,-0.40067 -0.25202,-0.64667 -0.605973,-0.77791 -0.217556,-0.10804 -0.485421,-0.15933 -0.794985,-0.15878 l -11.547438,0.019 z"
         style="opacity:1;fill:url(#linearGradient5422);fill-opacity:1;stroke:#808080;stroke-width:0.21403386;stroke-miterlimit:4;stroke-dasharray:none;stroke-opacity:1" />
      <path
         inkscape:connector-curvature="0"
         id="path5365"
         d="m 15.192977,255.87933 c -0.595248,0.005 -1.294186,0.0909 -1.444472,0.71552 L 11.929959,276.454 c -0.01094,0.0975 -0.0038,0.19207 0.01886,0.28237 0.0091,0.0361 0.0206,0.0715 0.03449,0.10618 0.0069,0.0173 0.01451,0.0345 0.02261,0.0514 0.02425,0.0507 0.05351,0.0995 0.08731,0.14619 0.01447,0.02 0.02987,0.0396 0.04595,0.0588 0.0049,0.006 0.01022,0.0113 0.01523,0.017 0.01145,0.0131 0.02293,0.0261 0.03511,0.0388 0.0065,0.007 0.01349,0.0133 0.02022,0.0199 0.01164,0.0115 0.02321,0.023 0.03543,0.0341 0.0064,0.006 0.01307,0.0113 0.0196,0.017 0.01075,0.009 0.02125,0.0189 0.0324,0.0279 0.0029,0.002 0.0059,0.004 0.0087,0.007 0.0038,0.003 0.0077,0.006 0.01158,0.009 0.0093,0.007 0.01853,0.0146 0.02813,0.0217 0.0049,0.004 0.01014,0.007 0.01511,0.0104 0.01008,0.007 0.02028,0.0143 0.03064,0.0213 0.01153,0.008 0.02316,0.0155 0.03501,0.0229 0.011,0.007 0.02217,0.0137 0.03345,0.0204 0.01188,0.007 0.02388,0.014 0.03605,0.0207 0.01158,0.006 0.02328,0.0127 0.03512,0.0189 0.01229,0.006 0.02475,0.0126 0.0373,0.0187 0.01203,0.006 0.02402,0.0117 0.03626,0.0172 0.0051,0.002 0.0099,0.005 0.01501,0.007 0.01398,0.006 0.02819,0.0118 0.04241,0.0176 0.0029,0.001 0.0057,0.002 0.0086,0.004 0.0031,10e-4 0.0061,0.003 0.0092,0.004 0.02289,0.009 0.04609,0.0174 0.0696,0.0253 0,0 1.01e-4,0 1.01e-4,0 0.02553,0.009 0.05155,0.0165 0.07773,0.024 0.0085,0.002 0.01708,0.005 0.02563,0.007 0.01843,0.005 0.03693,0.01 0.05564,0.0138 0.0095,0.002 0.01907,0.004 0.02865,0.006 0.01798,0.004 0.03607,0.007 0.05429,0.0104 0.0093,0.002 0.01857,0.003 0.02792,0.005 0.01962,0.003 0.03936,0.006 0.05918,0.008 0.0086,0.001 0.01712,0.002 0.02574,0.003 0.02136,0.002 0.04284,0.004 0.0644,0.005 0.0071,5.4e-4 0.01408,0.001 0.02115,0.001 0.02882,0.002 0.05772,0.002 0.0868,0.002 h 25.418567 c 0.02908,0 0.05798,-0.001 0.0868,-0.002 0.0071,-5.3e-4 0.01409,-0.001 0.02115,-0.001 0.02155,-10e-4 0.04303,-0.003 0.06439,-0.005 0.0086,-8.1e-4 0.01716,-0.002 0.02573,-0.003 0.01983,-0.002 0.03957,-0.005 0.05918,-0.008 0.0093,-0.001 0.01864,-0.003 0.02793,-0.005 0.01821,-0.003 0.03629,-0.007 0.05429,-0.0104 0.0096,-0.002 0.01916,-0.004 0.02865,-0.006 0.0191,-0.004 0.03806,-0.009 0.0569,-0.0142 0.0079,-0.002 0.01598,-0.004 0.02387,-0.006 0.0264,-0.007 0.05252,-0.0155 0.07825,-0.0242 0,0 1.02e-4,0 1.02e-4,0 0.02352,-0.008 0.04672,-0.0164 0.0696,-0.0253 0.0029,-10e-4 0.0056,-0.002 0.0085,-0.004 0.004,-0.002 0.0079,-0.003 0.01188,-0.005 0.01331,-0.005 0.0267,-0.0108 0.0398,-0.0166 0.005,-0.002 0.0099,-0.005 0.0149,-0.007 0.01245,-0.006 0.02468,-0.0116 0.03689,-0.0175 0.0121,-0.006 0.02417,-0.0118 0.03605,-0.018 0.01212,-0.006 0.02409,-0.0128 0.03595,-0.0194 0.01245,-0.007 0.02473,-0.0139 0.03689,-0.0212 0.0108,-0.006 0.0215,-0.013 0.03209,-0.0197 0.01199,-0.008 0.02376,-0.0153 0.03543,-0.0231 0.01035,-0.007 0.02056,-0.014 0.03063,-0.0213 0.005,-0.004 0.01021,-0.007 0.01512,-0.0104 0.0096,-0.007 0.01881,-0.0144 0.02813,-0.0217 0.0038,-0.003 0.0078,-0.006 0.01158,-0.009 0.0029,-0.002 0.0059,-0.004 0.0087,-0.007 0.01115,-0.009 0.02166,-0.0186 0.0324,-0.0279 0.0065,-0.006 0.01323,-0.0112 0.01959,-0.017 0.01221,-0.0111 0.02379,-0.0226 0.03543,-0.0341 0.0067,-0.007 0.01369,-0.0131 0.02021,-0.0199 0.01549,-0.0161 0.03038,-0.0326 0.0447,-0.0494 0.0013,-0.002 0.0032,-0.003 0.0047,-0.005 8.1e-5,-10e-5 1.27e-4,-2e-4 2.02e-4,-5.4e-4 0.01635,-0.0194 0.03198,-0.0393 0.04668,-0.0596 0.0338,-0.0466 0.06317,-0.0955 0.08742,-0.14619 0.0081,-0.0169 0.01555,-0.034 0.0225,-0.0514 0.0139,-0.0346 0.02543,-0.0701 0.03449,-0.10617 0.017,-0.0677 0.0253,-0.13789 0.02376,-0.20985 -5.39e-4,-0.024 -0.0022,-0.0482 -0.0048,-0.0725 l -1.818647,-19.85915 c -0.171762,-0.71381 -1.06007,-0.72457 -1.691318,-0.71375 l -10.545954,0.0145 -10.545953,-0.0145 c -0.07891,-0.001 -0.161808,-0.002 -0.246845,-0.002 z"
         style="opacity:1;fill:url(#linearGradient5448);fill-opacity:1;stroke:#b27b06;stroke-width:0.21403386;stroke-miterlimit:4;stroke-dasharray:none;stroke-opacity:1" />
      <ellipse
         ry="0.61197579"
         rx="0.74340338"
         cy="286.38312"
         cx="36.163261"
         id="path5424"
         style="opacity:1;fill:#00ff00;fill-opacity:1;stroke:#a3a4a5;stroke-width:0.21403386;stroke-linecap:round;stroke-miterlimit:4;stroke-dasharray:none;stroke-opacity:1" />
      <g
         transform="matrix(0.20722925,0,0,0.20722925,11.131402,225.36943)"
         id="g951"
         style="stroke-width:3.97197485">
        <path
           style="fill:#f9f9f9;stroke:none;stroke-width:1.05091834px;stroke-linecap:butt;stroke-linejoin:miter;stroke-opacity:1"
           d="m 84.949098,171.52954 21.110132,-15.23411 17.62805,11.96966 -20.67487,15.66937 z"
           id="path927"
           inkscape:connector-curvature="0" />
        <path
           style="fill:#f9f9f9;stroke:none;stroke-width:1.05613852px;stroke-linecap:butt;stroke-linejoin:miter;stroke-opacity:1"
           d="m 56.345628,218.0085 h 31.21128 v 8.70521 h -31.21096 z"
           id="path929"
           inkscape:connector-curvature="0"
           sodipodi:nodetypes="ccccc" />
        <path
           sodipodi:nodetypes="ccccc"
           inkscape:connector-curvature="0"
           id="path931"
           d="m 56.037848,234.41275 h 31.82683 v 8.70521 h -31.82649 z"
           style="fill:#f9f9f9;stroke:none;stroke-width:1.06650233px;stroke-linecap:butt;stroke-linejoin:miter;stroke-opacity:1" />
        <path
           style="opacity:1;fill:#f9f9f9;fill-opacity:1;stroke:none;stroke-width:14.1205492;stroke-linecap:round;stroke-linejoin:round;stroke-miterlimit:4;stroke-dasharray:none;stroke-opacity:1"
           d="m 72.326778,178.49389 a 21.980651,16.104636 0 0 0 -21.98108,16.10422 21.980651,16.104636 0 0 0 21.98108,16.10474 21.980651,16.104636 0 0 0 21.98057,-16.10474 21.980651,16.104636 0 0 0 -21.98057,-16.10422 z m 0,6.57321 a 12.404921,9.0930937 0 0 1 1.23817,0.0453 12.404921,9.0930937 0 0 1 1.22628,0.13579 12.404921,9.0930937 0 0 1 1.20148,0.22476 12.404921,9.0930937 0 0 1 1.16479,0.31165 12.404921,9.0930937 0 0 1 1.11621,0.39541 12.404921,9.0930937 0 0 1 1.0573,0.47554 12.404921,9.0930937 0 0 1 0.98702,0.54993 12.404921,9.0930937 0 0 1 0.90743,0.61966 12.404921,9.0930937 0 0 1 0.81804,0.6826 12.404921,9.0930937 0 0 1 0.72141,0.73932 12.404921,9.0930937 0 0 1 0.61701,0.78874 12.404921,9.0930937 0 0 1 0.50643,0.82933 12.404921,9.0930937 0 0 1 0.39119,0.86262 12.404921,9.0930937 0 0 1 0.2713,0.88708 12.404921,9.0930937 0 0 1 0.14935,0.90217 12.404921,9.0930937 0 0 1 0.0315,0.64306 12.404921,9.0930937 0 0 1 -0.062,0.90789 12.404921,9.0930937 0 0 1 -0.18552,0.89852 12.404921,9.0930937 0 0 1 -0.30696,0.88084 12.404921,9.0930937 0 0 1 -0.42478,0.85378 12.404921,9.0930937 0 0 1 -0.5395,0.8184 12.404921,9.0930937 0 0 1 -0.64802,0.77521 12.404921,9.0930937 0 0 1 -0.75034,0.72319 12.404921,9.0930937 0 0 1 -0.84543,0.66544 12.404921,9.0930937 0 0 1 -0.93173,0.59988 12.404921,9.0930937 0 0 1 -1.0082,0.52861 12.404921,9.0930937 0 0 1 -1.07591,0.45212 12.404921,9.0930937 0 0 1 -1.13171,0.37148 12.404921,9.0930937 0 0 1 -1.17667,0.28667 12.404921,9.0930937 0 0 1 -1.20975,0.19875 12.404921,9.0930937 0 0 1 -1.23093,0.10978 12.404921,9.0930937 0 0 1 -0.87747,0.0224 12.404921,9.0930937 0 0 1 -1.23868,-0.0453 12.404921,9.0930937 0 0 1 -1.22576,-0.1358 12.404921,9.0930937 0 0 1 -1.20148,-0.22476 12.404921,9.0930937 0 0 1 -1.16479,-0.31165 12.404921,9.0930937 0 0 1 -1.11673,-0.39541 12.404921,9.0930937 0 0 1 -1.0573,-0.47501 12.404921,9.0930937 0 0 1 -0.98702,-0.54994 12.404921,9.0930937 0 0 1 -0.90744,-0.61965 12.404921,9.0930937 0 0 1 -0.81803,-0.68313 12.404921,9.0930937 0 0 1 -0.72141,-0.73931 12.404921,9.0930937 0 0 1 -0.61701,-0.78823 12.404921,9.0930937 0 0 1 -0.50643,-0.82985 12.404921,9.0930937 0 0 1 -0.39119,-0.86262 12.404921,9.0930937 0 0 1 -0.2713,-0.88656 12.404921,9.0930937 0 0 1 -0.14935,-0.90268 12.404921,9.0930937 0 0 1 -0.031,-0.64307 12.404921,9.0930937 0 0 1 0.062,-0.90789 12.404921,9.0930937 0 0 1 0.185,-0.89852 12.404921,9.0930937 0 0 1 0.30696,-0.88083 12.404921,9.0930937 0 0 1 0.4253,-0.85378 12.404921,9.0930937 0 0 1 0.53898,-0.8184 12.404921,9.0930937 0 0 1 0.64802,-0.7747 12.404921,9.0930937 0 0 1 0.75086,-0.72371 12.404921,9.0930937 0 0 1 0.84491,-0.66492 12.404921,9.0930937 0 0 1 0.93173,-0.59988 12.404921,9.0930937 0 0 1 1.00872,-0.5286 12.404921,9.0930937 0 0 1 1.07539,-0.45265 12.404921,9.0930937 0 0 1 1.13171,-0.37095 12.404921,9.0930937 0 0 1 1.17667,-0.28668 12.404921,9.0930937 0 0 1 1.21027,-0.19927 12.404921,9.0930937 0 0 1 1.23093,-0.10925 12.404921,9.0930937 0 0 1 0.87746,-0.0229 z"
           id="ellipse935"
           inkscape:connector-curvature="0" />
        <path
           style="fill:#f9f9f9;stroke:none;stroke-width:1.05091834px;stroke-linecap:butt;stroke-linejoin:miter;stroke-opacity:1"
           d="m 32.173768,180.67001 21.65421,-14.79885 7.29062,5.33194 -21.32777,14.79886 z"
           id="path941"
           inkscape:connector-curvature="0"
           sodipodi:nodetypes="ccccc" />
        <path
           sodipodi:nodetypes="ccccc"
           inkscape:connector-curvature="0"
           id="path943"
           d="m 19.674938,170.87665 21.65421,-14.79885 7.29062,5.33194 -21.32777,14.79886 z"
           style="fill:#f9f9f9;stroke:none;stroke-width:1.05091834px;stroke-linecap:butt;stroke-linejoin:miter;stroke-opacity:1" />
      </g>
    </g>
  </g>
</svg>
