<?xml version="1.0" encoding="UTF-8" standalone="no"?>
<!-- Created with Inkscape (http://www.inkscape.org/) -->

<svg
   xmlns:osb="http://www.openswatchbook.org/uri/2009/osb"
   xmlns:dc="http://purl.org/dc/elements/1.1/"
   xmlns:cc="http://creativecommons.org/ns#"
   xmlns:rdf="http://www.w3.org/1999/02/22-rdf-syntax-ns#"
   xmlns:svg="http://www.w3.org/2000/svg"
   xmlns="http://www.w3.org/2000/svg"
   xmlns:xlink="http://www.w3.org/1999/xlink"
   xmlns:sodipodi="http://sodipodi.sourceforge.net/DTD/sodipodi-0.dtd"
   xmlns:inkscape="http://www.inkscape.org/namespaces/inkscape"
   width="128"
   height="128"
   viewBox="0 0 33.866666 33.866668"
   version="1.1"
   id="svg8"
   inkscape:version="0.92.2 5c3e80d, 2017-08-06"
   sodipodi:docname="text-x-po.svg">
  <defs
     id="defs2">
    <linearGradient
       id="linearGradient1830">
      <stop
         id="stop1826"
         style="stop-color:#d9d9d9;stop-opacity:1"
         offset="0" />
      <stop
         id="stop1828"
         style="stop-color:#ffffff;stop-opacity:1;"
         offset="1" />
    </linearGradient>
    <linearGradient
       osb:paint="solid"
       id="linearGradient6987">
      <stop
         id="stop6985"
         offset="0"
         style="stop-color:#77d2fb;stop-opacity:1;" />
    </linearGradient>
    <linearGradient
       inkscape:collect="always"
       xlink:href="#linearGradient1830"
       id="linearGradient1503-8-3"
       x1="29.203474"
       y1="263.52237"
       x2="4.5843229"
       y2="296.16849"
       gradientUnits="userSpaceOnUse"
       gradientTransform="matrix(0.95481176,0,0,0.95480184,0.765188,12.661897)" />
    <linearGradient
       inkscape:collect="always"
       id="linearGradient4656">
      <stop
         style="stop-color:#e4e4e4;stop-opacity:1"
         offset="0"
         id="stop4652" />
      <stop
         style="stop-color:#fbfbfb;stop-opacity:1"
         offset="1"
         id="stop4654" />
    </linearGradient>
    <linearGradient
       inkscape:collect="always"
       id="linearGradient4602">
      <stop
         style="stop-color:#228ee9;stop-opacity:1"
         offset="0"
         id="stop4598" />
      <stop
         style="stop-color:#2eb5fd;stop-opacity:1"
         offset="1"
         id="stop4600" />
    </linearGradient>
    <linearGradient
       gradientTransform="matrix(5.1968504,0,0,5.1968504,1.9999999,-1230.8145)"
       y2="289.1106"
       x2="2.6939394"
       y1="293.9212"
       x1="2.6939394"
       gradientUnits="userSpaceOnUse"
       id="linearGradient1047"
       xlink:href="#linearGradient4602"
       inkscape:collect="always" />
    <linearGradient
       gradientTransform="matrix(5.1968504,0,0,5.1968504,1.9999999,-1230.8145)"
       y2="291.61209"
       x2="5.3878789"
       y1="296.61514"
       x1="5.3878789"
       gradientUnits="userSpaceOnUse"
       id="linearGradient1191"
       xlink:href="#linearGradient4656"
       inkscape:collect="always" />
  </defs>
  <sodipodi:namedview
     id="base"
     pagecolor="#ffffff"
     bordercolor="#666666"
     borderopacity="1.0"
     inkscape:pageopacity="0.0"
     inkscape:pageshadow="2"
     inkscape:zoom="1.9746305"
     inkscape:cx="81.845453"
     inkscape:cy="89.27063"
     inkscape:document-units="mm"
     inkscape:current-layer="layer1"
     showgrid="false"
     units="px"
     inkscape:window-width="1600"
     inkscape:window-height="798"
     inkscape:window-x="0"
     inkscape:window-y="0"
     inkscape:window-maximized="1"
     showguides="false"
     inkscape:snap-nodes="false" />
  <metadata
     id="metadata5">
    <rdf:RDF>
      <cc:Work
         rdf:about="">
        <dc:format>image/svg+xml</dc:format>
        <dc:type
           rdf:resource="http://purl.org/dc/dcmitype/StillImage" />
        <dc:title />
      </cc:Work>
    </rdf:RDF>
  </metadata>
  <g
     inkscape:label="Layer 1"
     inkscape:groupmode="layer"
     id="layer1"
     transform="translate(0,-263.13332)">
    <g
       style="stroke-width:4.08449793"
       inkscape:transform-center-y="-9.4924686"
       inkscape:transform-center-x="5.4653607"
       inkscape:label="Capa 1"
       id="layer1-4-3"
       transform="matrix(0.53602412,0,0,0.5372689,-234.93365,-13.785303)">
      <g
         style="stroke-width:4.08449793"
         id="layer1-3-65-9"
         inkscape:label="Capa 1"
         transform="translate(0.41988239,0.03484499)" />
    </g>
    <g
       style="stroke-width:4.08449793"
       inkscape:transform-center-y="-9.4924686"
       inkscape:transform-center-x="5.4653607"
       inkscape:label="Capa 1"
       id="layer1-4"
       transform="matrix(0.53602412,0,0,0.5372689,-234.93365,-13.7603)">
      <g
         style="stroke-width:4.08449793"
         id="layer1-3-65"
         inkscape:label="Capa 1"
         transform="translate(0.41988239,0.03484499)" />
    </g>
    <path
       style="opacity:0.25;fill:#000000;fill-opacity:1;stroke:none;stroke-width:1.7883966;stroke-miterlimit:4;stroke-dasharray:none;stroke-opacity:1"
       d="m 5.142353,264.8392 v 31.10591 h 23.581961 v -17.45475 c -0.04498,-0.7929 -0.09696,-1.50255 -0.298063,-2.22205 -0.204573,-0.73192 -0.526951,-1.42494 -0.912236,-2.08813 -0.492998,-0.84861 -1.326132,-1.39576 -2.066596,-2.09122 -0.449226,-0.40738 -1.419471,-1.3751 -2.593872,-2.5305 -1.164791,-1.14594 -2.530897,-2.47697 -3.671384,-3.51104 -0.336848,-0.30398 -0.826157,-0.61944 -1.28075,-0.80163 -0.352994,-0.14146 -0.768267,-0.22951 -1.169211,-0.28869 -0.413429,-0.061 -0.811623,-0.0914 -1.110603,-0.1179 z"
       id="path5023-4-5"
       inkscape:connector-curvature="0"
       sodipodi:nodetypes="ccccascscsscc" />
    <path
       sodipodi:nodetypes="ccccascscsscc"
       inkscape:connector-curvature="0"
       id="path4623-8-3"
       d="m 5.142353,264.33819 v 31.10591 h 23.581961 v -17.45475 c -0.04498,-0.7929 -0.09696,-1.50256 -0.298063,-2.22206 -0.204573,-0.73192 -0.526951,-1.42494 -0.912236,-2.08813 -0.492998,-0.8486 -1.326132,-1.39575 -2.066596,-2.09121 -0.449226,-0.40739 -1.419471,-1.37511 -2.593872,-2.53051 -1.164791,-1.14592 -2.530897,-2.47697 -3.671384,-3.51104 -0.336848,-0.30398 -0.826157,-0.61945 -1.28075,-0.80162 -0.352994,-0.14146 -0.768267,-0.22952 -1.169211,-0.28869 -0.413429,-0.0611 -0.811623,-0.0914 -1.110603,-0.1179 z"
       style="opacity:1;fill:url(#linearGradient1503-8-3);fill-opacity:1;stroke:#808080;stroke-width:0.30000001;stroke-miterlimit:4;stroke-dasharray:none;stroke-opacity:1" />
    <path
       sodipodi:nodetypes="ccccsccsc"
       inkscape:connector-curvature="0"
       id="path1355-8-5"
       d="m 19.620994,266.16126 c 0.01558,0.0251 0.535221,0.86284 0.694175,1.33425 0.430727,0.96558 0.246637,3.78888 0.238805,5.39748 0.02644,-0.18505 4.473865,-1.33136 6.782594,0.76747 -0.01476,-0.026 -0.04662,-0.0767 -0.119341,-0.17767 -0.06901,-0.0958 -0.174308,-0.23765 -0.354479,-0.42182 -0.503715,-0.5766 -0.22026,-0.0806 -0.768208,-0.6505 -0.473747,-0.42966 -1.496999,-1.45025 -2.735519,-2.66881 -1.183854,-1.16476 -2.562819,-2.50808 -3.738027,-3.5804 z"
       style="opacity:0.24800002;fill:#000000;fill-opacity:1;stroke:none;stroke-width:0.28614345;stroke-miterlimit:4;stroke-dasharray:none;stroke-opacity:1" />
    <path
       style="opacity:1;fill:#ffffff;fill-opacity:1;stroke:#808080;stroke-width:0.30000001;stroke-miterlimit:4;stroke-dasharray:none;stroke-opacity:1"
       d="m 19.308998,265.6626 c 0.01477,0.0238 0.507514,0.81811 0.658239,1.26509 0.40843,0.91553 0.278738,3.06938 0.271311,4.5946 0.409178,-0.0213 4.921198,-0.70296 6.989915,1.73982 -0.02793,-0.0483 -0.09803,-0.0884 -0.13713,-0.16512 -0.477638,-0.54671 -1.086946,-0.98598 -1.643914,-1.50908 -0.449221,-0.4074 -1.419501,-1.37509 -2.593906,-2.53048 -1.122567,-1.10439 -2.430145,-2.3781 -3.544515,-3.39483 z"
       id="path4753-0-6"
       inkscape:connector-curvature="0"
       sodipodi:nodetypes="ccccccsc" />
    <g
       style="stroke-width:4.08449793"
       inkscape:transform-center-y="-9.4924686"
       inkscape:transform-center-x="5.4653607"
       inkscape:label="Capa 1"
       id="layer1-4-3-2"
       transform="matrix(0.51126596,0,0,0.51245325,-269.32006,5.6156869)">
      <g
         style="stroke-width:4.08449793"
         id="layer1-3-65-9-9"
         inkscape:label="Capa 1"
         transform="translate(0.41988239,0.03484499)" />
    </g>
    <g
       style="stroke-width:4.08449793"
       inkscape:transform-center-y="-9.4924686"
       inkscape:transform-center-x="5.4653607"
       inkscape:label="Capa 1"
       id="layer1-4-1"
       transform="matrix(0.51126596,0,0,0.51245325,-269.32006,5.6395364)">
      <g
         style="stroke-width:4.08449793"
         id="layer1-3-65-2"
         inkscape:label="Capa 1"
         transform="translate(0.41988239,0.03484499)" />
    </g>
    <g
       transform="matrix(0.38035593,0,0,0.38035593,7.8047914,169.34068)"
       id="layer1-0"
       inkscape:label="Capa 1"
       style="stroke-width:0.69562036">
      <g
         id="g1221"
         style="stroke-width:0.69562036">
        <path
           style="opacity:1;fill:#666666;fill-opacity:1;stroke:none;stroke-width:2.78403044;stroke-linecap:round;stroke-linejoin:round;stroke-miterlimit:4;stroke-dasharray:none;stroke-opacity:1"
           d="m 17.999997,282.65 h 26.000002 c 1.108,0 2,0.89204 2,2.00001 v 26 c 0,1.10802 -0.892,2.00001 -2,2.00001 H 17.999997 c -1.107999,0 -1.999999,-0.89199 -1.999999,-2.00001 v -26 c 0,-1.10797 0.892,-2.00001 1.999999,-2.00001 z"
           id="rect927-1"
           inkscape:connector-curvature="0" />
        <path
           style="opacity:1;fill:url(#linearGradient1191);fill-opacity:1;stroke:none;stroke-width:2.59842849;stroke-linecap:round;stroke-linejoin:round;stroke-miterlimit:4;stroke-dasharray:none;stroke-opacity:1"
           d="m 17.999998,283.64998 h 26 c 0.554001,0 1.000001,0.44589 1.000001,0.99998 v 26 c 0,0.55403 -0.445999,1.00003 -1.000001,1.00003 h -26 c -0.554,0 -1,-0.44589 -1,-1.00003 v -26 c 0,-0.55399 0.445999,-0.99998 1,-0.99998 z"
           id="rect927-6-8"
           inkscape:connector-curvature="0" />
        <g
           transform="matrix(5.1968504,0,0,5.1968504,2.0000004,-1229.8145)"
           id="layer1-3-3"
           inkscape:label="Capa 1"
           style="fill:#cccccc;fill-opacity:1;stroke-width:0.69562036">
          <path
             style="opacity:1;fill:#cccccc;fill-opacity:1;stroke:none;stroke-width:2.78248143;stroke-linecap:round;stroke-linejoin:round;stroke-miterlimit:4;stroke-dasharray:none;stroke-opacity:1"
             d="m 28,19 v 2 h -4 v 14 h 12 v 3 h -2 v -2 h -2 v 2 h -2 v -2 h -2 v 2 h -2 v -2 h -2 v 2 2 1 h 2 v -1 h 10 v 1 h -2 v 2 h 4 V 41 34 33 H 26 V 31 H 38 V 21 h -7 v -2 z m -2,4 h 10 v 2 H 26 Z m 0,4 h 10 v 2 H 26 Z"
             transform="matrix(0.19242424,0,0,0.19242424,-0.38484847,288.14847)"
             id="rect1107"
             inkscape:connector-curvature="0" />
        </g>
        <g
           transform="matrix(5.1968504,0,0,5.1968504,2.0000003,-1230.8145)"
           id="layer1-3-3-1"
           inkscape:label="Capa 1"
           style="fill:#666666;fill-opacity:1;stroke-width:0.69562036">
          <path
             style="opacity:1;fill:#666666;fill-opacity:1;stroke:none;stroke-width:2.78248143;stroke-linecap:round;stroke-linejoin:round;stroke-miterlimit:4;stroke-dasharray:none;stroke-opacity:1"
             d="m 28,19 v 2 h -4 v 14 h 12 v 3 h -2 v -2 h -2 v 2 h -2 v -2 h -2 v 2 h -2 v -2 h -2 v 2 2 1 h 2 v -1 h 10 v 1 h -2 v 2 h 4 V 41 34 33 H 26 V 31 H 38 V 21 h -7 v -2 z m -2,4 h 10 v 2 H 26 Z m 0,4 h 10 v 2 H 26 Z"
             transform="matrix(0.19242424,0,0,0.19242424,-0.38484847,288.14847)"
             id="rect1107-2"
             inkscape:connector-curvature="0" />
        </g>
        <path
           style="opacity:1;fill:#1a6cb2;fill-opacity:1;stroke:none;stroke-width:2.78403044;stroke-linecap:round;stroke-linejoin:round;stroke-miterlimit:4;stroke-dasharray:none;stroke-opacity:1"
           d="M 3.9999999,268.65005 H 30.000001 c 1.108,0 2,0.89199 2,1.99996 v 26 c 0,1.10802 -0.892,2 -2,2 H 3.9999999 C 2.892,298.65001 2,297.75803 2,296.65001 v -26 c 0,-1.10797 0.892,-1.99996 1.9999999,-1.99996 z"
           id="rect927"
           inkscape:connector-curvature="0" />
        <path
           style="opacity:1;fill:url(#linearGradient1047);fill-opacity:1;stroke:none;stroke-width:2.59842849;stroke-linecap:round;stroke-linejoin:round;stroke-miterlimit:4;stroke-dasharray:none;stroke-opacity:1"
           d="m 4,269.64998 h 26.000001 c 0.554,0 1,0.44589 1,0.99998 v 25.99999 c 0,0.55404 -0.445999,1.00003 -1,1.00003 H 4 c -0.554,0 -1,-0.44589 -1,-1.00003 v -25.99999 c 0,-0.55399 0.446,-0.99998 1,-0.99998 z"
           id="rect927-6"
           inkscape:connector-curvature="0" />
        <g
           transform="matrix(1.4666667,0,0,1.4666667,-5.733334,-154.37001)"
           id="layer1-6-5-2"
           inkscape:label="Capa 1"
           style="fill:#1a6cb2;fill-opacity:1;stroke-width:0.69562036">
          <path
             style="fill:#1a6cb2;fill-opacity:1;stroke:none;stroke-width:0.69562036px;stroke-linecap:butt;stroke-linejoin:miter;stroke-opacity:1"
             d="m 21,15 -8,16.999996 5,2 L 20,29 h 8 l 2,5 5,-2 -8,-17 z m 3,4 3,6 h -6 z"
             transform="matrix(0.68181817,0,0,0.68181817,-0.86363596,282.28636)"
             id="path1022-9"
             inkscape:connector-curvature="0"
             sodipodi:nodetypes="ccccccccccccc" />
        </g>
        <g
           transform="matrix(1.4666667,0,0,1.4666667,-5.733334,-155.37001)"
           id="layer1-6-5"
           inkscape:label="Capa 1"
           style="stroke-width:0.69562036">
          <path
             style="fill:#ffffff;fill-opacity:1;stroke:none;stroke-width:0.69562036px;stroke-linecap:butt;stroke-linejoin:miter;stroke-opacity:1"
             d="m 21,15 -8,16.999996 5,2 L 20,29 h 8 l 2,5 5,-2 -8,-17 z m 3,4 3,6 h -6 z"
             transform="matrix(0.68181817,0,0,0.68181817,-0.86363596,282.28636)"
             id="path1022"
             inkscape:connector-curvature="0"
             sodipodi:nodetypes="ccccccccccccc" />
        </g>
      </g>
    </g>
  </g>
</svg>
