<?xml version="1.0" encoding="UTF-8" standalone="no"?>
<!-- Created with Inkscape (http://www.inkscape.org/) -->

<svg
   xmlns:osb="http://www.openswatchbook.org/uri/2009/osb"
   xmlns:dc="http://purl.org/dc/elements/1.1/"
   xmlns:cc="http://creativecommons.org/ns#"
   xmlns:rdf="http://www.w3.org/1999/02/22-rdf-syntax-ns#"
   xmlns:svg="http://www.w3.org/2000/svg"
   xmlns="http://www.w3.org/2000/svg"
   xmlns:sodipodi="http://sodipodi.sourceforge.net/DTD/sodipodi-0.dtd"
   xmlns:inkscape="http://www.inkscape.org/namespaces/inkscape"
   width="128"
   height="128"
   viewBox="0 0 33.866666 33.866668"
   version="1.1"
   id="svg8"
   inkscape:version="0.92.2 5c3e80d, 2017-08-06"
   sodipodi:docname="application-image-gif.svg">
  <defs
     id="defs2">
    <linearGradient
       osb:paint="solid"
       id="linearGradient6987">
      <stop
         id="stop6985"
         offset="0"
         style="stop-color:#77d2fb;stop-opacity:1;" />
    </linearGradient>
  </defs>
  <sodipodi:namedview
     id="base"
     pagecolor="#ffffff"
     bordercolor="#666666"
     borderopacity="1.0"
     inkscape:pageopacity="0.0"
     inkscape:pageshadow="2"
     inkscape:zoom="1.6187486"
     inkscape:cx="371.19545"
     inkscape:cy="57.152549"
     inkscape:document-units="mm"
     inkscape:current-layer="layer1"
     showgrid="false"
     inkscape:window-width="1600"
     inkscape:window-height="811"
     inkscape:window-x="0"
     inkscape:window-y="0"
     inkscape:window-maximized="1"
     units="px"
     showguides="false" />
  <metadata
     id="metadata5">
    <rdf:RDF>
      <cc:Work
         rdf:about="">
        <dc:format>image/svg+xml</dc:format>
        <dc:type
           rdf:resource="http://purl.org/dc/dcmitype/StillImage" />
        <dc:title />
      </cc:Work>
    </rdf:RDF>
  </metadata>
  <g
     inkscape:label="Layer 1"
     inkscape:groupmode="layer"
     id="layer1"
     transform="translate(0,-263.13332)">
    <g
       transform="matrix(0.81433903,0,0,0.81448475,-7.299552,-555.5684)"
       style="fill:#ffffff;fill-opacity:0.85204103;stroke-width:0.41878536"
       id="g2041" />
    <g
       transform="matrix(0.53590583,0,0,0.53715127,-162.08141,-13.720941)"
       id="g2045"
       inkscape:label="Capa 1"
       inkscape:transform-center-x="5.4653607"
       inkscape:transform-center-y="-9.4924686"
       style="stroke-width:4.08539581">
      <g
         transform="translate(0.41988239,0.03484499)"
         inkscape:label="Capa 1"
         id="g2043"
         style="stroke-width:4.08539581" />
    </g>
    <g
       transform="matrix(0.53590583,0,0,0.53715127,-162.08141,-13.695944)"
       id="g2049"
       inkscape:label="Capa 1"
       inkscape:transform-center-x="5.4653607"
       inkscape:transform-center-y="-9.4924686"
       style="stroke-width:4.08539581">
      <g
         transform="translate(0.41988239,0.03484499)"
         inkscape:label="Capa 1"
         id="g2047"
         style="stroke-width:4.08539581" />
    </g>
    <g
       transform="matrix(0.53590583,0,0,0.53715127,-125.67853,-13.720938)"
       id="g2053"
       inkscape:label="Capa 1"
       inkscape:transform-center-x="5.4653607"
       inkscape:transform-center-y="-9.4924686"
       style="stroke-width:4.08539581">
      <g
         transform="translate(0.41988239,0.03484499)"
         inkscape:label="Capa 1"
         id="g2051"
         style="stroke-width:4.08539581" />
    </g>
    <g
       transform="matrix(0.53590583,0,0,0.53715127,-125.67853,-13.695941)"
       id="g2057"
       inkscape:label="Capa 1"
       inkscape:transform-center-x="5.4653607"
       inkscape:transform-center-y="-9.4924686"
       style="stroke-width:4.08539581">
      <g
         transform="translate(0.41988239,0.03484499)"
         inkscape:label="Capa 1"
         id="g2055"
         style="stroke-width:4.08539581" />
    </g>
    <g
       transform="matrix(0.51115313,0,0,0.51234105,-160.05735,5.6758049)"
       id="g2061"
       inkscape:label="Capa 1"
       inkscape:transform-center-x="5.4653607"
       inkscape:transform-center-y="-9.4924686"
       style="stroke-width:4.08539581">
      <g
         transform="translate(0.41988239,0.03484499)"
         inkscape:label="Capa 1"
         id="g2059"
         style="stroke-width:4.08539581" />
    </g>
    <g
       transform="matrix(0.51115313,0,0,0.51234105,-160.05735,5.6996492)"
       id="g2065"
       inkscape:label="Capa 1"
       inkscape:transform-center-x="5.4653607"
       inkscape:transform-center-y="-9.4924686"
       style="stroke-width:4.08539581">
      <g
         transform="translate(0.41988239,0.03484499)"
         inkscape:label="Capa 1"
         id="g2063"
         style="stroke-width:4.08539581" />
    </g>
    <g
       transform="matrix(0.53590583,0,0,0.53715127,-198.43756,-13.720938)"
       id="g2069"
       inkscape:label="Capa 1"
       inkscape:transform-center-x="5.4653607"
       inkscape:transform-center-y="-9.4924686"
       style="stroke-width:4.08539581">
      <g
         transform="translate(0.41988239,0.03484499)"
         inkscape:label="Capa 1"
         id="g2067"
         style="stroke-width:4.08539581" />
    </g>
    <g
       transform="matrix(0.53590583,0,0,0.53715127,-198.43756,-13.695941)"
       id="g2073"
       inkscape:label="Capa 1"
       inkscape:transform-center-x="5.4653607"
       inkscape:transform-center-y="-9.4924686"
       style="stroke-width:4.08539581">
      <g
         transform="translate(0.41988239,0.03484499)"
         inkscape:label="Capa 1"
         id="g2071"
         style="stroke-width:4.08539581" />
    </g>
    <g
       transform="matrix(0.51115313,0,0,0.51234105,-232.81638,5.6758049)"
       id="g2077"
       inkscape:label="Capa 1"
       inkscape:transform-center-x="5.4653607"
       inkscape:transform-center-y="-9.4924686"
       style="stroke-width:4.08539581">
      <g
         transform="translate(0.41988239,0.03484499)"
         inkscape:label="Capa 1"
         id="g2075"
         style="stroke-width:4.08539581" />
    </g>
    <g
       transform="matrix(0.51115313,0,0,0.51234105,-232.81638,5.6996492)"
       id="g2081"
       inkscape:label="Capa 1"
       inkscape:transform-center-x="5.4653607"
       inkscape:transform-center-y="-9.4924686"
       style="stroke-width:4.08539581">
      <g
         transform="translate(0.41988239,0.03484499)"
         inkscape:label="Capa 1"
         id="g2079"
         style="stroke-width:4.08539581" />
    </g>
    <g
       transform="matrix(0.53590583,0,0,0.53715127,-121.86981,-13.720941)"
       id="g2101"
       inkscape:label="Capa 1"
       inkscape:transform-center-x="5.4653607"
       inkscape:transform-center-y="-9.4924686"
       style="stroke-width:4.08539581">
      <g
         transform="translate(0.41988239,0.03484499)"
         inkscape:label="Capa 1"
         id="g2099"
         style="stroke-width:4.08539581" />
    </g>
    <g
       transform="matrix(0.53590583,0,0,0.53715127,-121.86981,-13.695944)"
       id="g2105"
       inkscape:label="Capa 1"
       inkscape:transform-center-x="5.4653607"
       inkscape:transform-center-y="-9.4924686"
       style="stroke-width:4.08539581">
      <g
         transform="translate(0.41988239,0.03484499)"
         inkscape:label="Capa 1"
         id="g2103"
         style="stroke-width:4.08539581" />
    </g>
    <g
       transform="matrix(0.51115313,0,0,0.51234105,-156.24862,5.6758016)"
       id="g2109"
       inkscape:label="Capa 1"
       inkscape:transform-center-x="5.4653607"
       inkscape:transform-center-y="-9.4924686"
       style="stroke-width:4.08539581">
      <g
         transform="translate(0.41988239,0.03484499)"
         inkscape:label="Capa 1"
         id="g2107"
         style="stroke-width:4.08539581" />
    </g>
    <g
       transform="matrix(0.51115313,0,0,0.51234105,-156.24862,5.6996459)"
       id="g2113"
       inkscape:label="Capa 1"
       inkscape:transform-center-x="5.4653607"
       inkscape:transform-center-y="-9.4924686"
       style="stroke-width:4.08539581">
      <g
         transform="translate(0.41988239,0.03484499)"
         inkscape:label="Capa 1"
         id="g2111"
         style="stroke-width:4.08539581" />
    </g>
    <g
       style="stroke-width:4.08449793"
       inkscape:transform-center-y="-9.4924686"
       inkscape:transform-center-x="5.4653607"
       inkscape:label="Capa 1"
       id="layer1-4-3-79"
       transform="matrix(0.53602412,0,0,0.5372689,-120.74445,-13.7853)">
      <g
         style="stroke-width:4.08449793"
         id="layer1-3-65-9-0"
         inkscape:label="Capa 1"
         transform="translate(0.41988239,0.03484499)" />
    </g>
    <g
       style="stroke-width:4.08449793"
       inkscape:transform-center-y="-9.4924686"
       inkscape:transform-center-x="5.4653607"
       inkscape:label="Capa 1"
       id="layer1-4-23"
       transform="matrix(0.53602412,0,0,0.5372689,-120.74445,-13.760297)">
      <g
         style="stroke-width:4.08449793"
         id="layer1-3-65-99"
         inkscape:label="Capa 1"
         transform="translate(0.41988239,0.03484499)" />
    </g>
    <g
       style="stroke-width:4.08449793"
       inkscape:transform-center-y="-9.4924686"
       inkscape:transform-center-x="5.4653607"
       inkscape:label="Capa 1"
       id="layer1-4-3-2-8"
       transform="matrix(0.51126596,0,0,0.51245325,-155.13086,5.6156902)">
      <g
         style="stroke-width:4.08449793"
         id="layer1-3-65-9-9-65"
         inkscape:label="Capa 1"
         transform="translate(0.41988239,0.03484499)" />
    </g>
    <g
       style="stroke-width:4.08449793"
       inkscape:transform-center-y="-9.4924686"
       inkscape:transform-center-x="5.4653607"
       inkscape:label="Capa 1"
       id="layer1-4-1-7"
       transform="matrix(0.51126596,0,0,0.51245325,-155.13086,5.6395397)">
      <g
         style="stroke-width:4.08449793"
         id="layer1-3-65-2-6"
         inkscape:label="Capa 1"
         transform="translate(0.41988239,0.03484499)" />
    </g>
    <g
       id="g2828"
       transform="translate(-76.494277,3.3363136e-6)">
      <path
         sodipodi:nodetypes="ccccascscsscc"
         inkscape:connector-curvature="0"
         id="path2083"
         d="m 81.63923,264.84255 v 31.0991 h 23.57676 v -17.45093 c -0.045,-0.79272 -0.0969,-1.50222 -0.298,-2.22156 -0.20453,-0.73176 -0.52684,-1.42463 -0.91203,-2.08767 -0.49289,-0.84843 -1.32584,-1.39546 -2.06614,-2.09076 -0.44913,-0.40729 -1.41916,-1.3748 -2.593304,-2.52995 -1.164534,-1.14569 -2.530339,-2.47643 -3.670574,-3.51027 -0.336774,-0.30391 -0.825975,-0.61931 -1.280468,-0.80146 -0.352916,-0.14142 -0.768097,-0.22946 -1.168952,-0.28862 -0.413338,-0.061 -0.811444,-0.0914 -1.110358,-0.11788 z"
         style="font-style:normal;font-weight:normal;font-size:medium;line-height:1.25;font-family:sans-serif;letter-spacing:0px;word-spacing:0px;opacity:0.25;fill:#000000;fill-opacity:1;stroke:none;stroke-width:1.7883966;stroke-miterlimit:4;stroke-dasharray:none;stroke-opacity:1" />
      <path
         style="font-style:normal;font-weight:normal;font-size:medium;line-height:1.25;font-family:sans-serif;letter-spacing:0px;word-spacing:0px;opacity:1;fill:#43cee1;fill-opacity:1;stroke:#808080;stroke-width:0.30000001;stroke-miterlimit:4;stroke-dasharray:none;stroke-opacity:1"
         d="m 81.63923,264.34165 v 31.0991 h 23.57676 v -17.45093 c -0.045,-0.79272 -0.0969,-1.50223 -0.298,-2.22157 -0.20453,-0.73176 -0.52684,-1.42463 -0.91203,-2.08767 -0.49289,-0.84842 -1.32584,-1.39545 -2.06614,-2.09075 -0.44913,-0.4073 -1.41916,-1.37481 -2.593304,-2.52996 -1.164534,-1.14567 -2.530339,-2.47643 -3.670574,-3.51027 -0.336774,-0.30391 -0.825975,-0.61932 -1.280468,-0.80145 -0.352916,-0.14142 -0.768097,-0.22947 -1.168952,-0.28862 -0.413338,-0.0611 -0.811444,-0.0914 -1.110358,-0.11788 z"
         id="path2085"
         inkscape:connector-curvature="0"
         sodipodi:nodetypes="ccccascscsscc" />
      <path
         style="font-style:normal;font-weight:normal;font-size:medium;line-height:1.25;font-family:sans-serif;letter-spacing:0px;word-spacing:0px;opacity:0.24800002;fill:#000000;fill-opacity:1;stroke:none;stroke-width:0.28614345;stroke-miterlimit:4;stroke-dasharray:none;stroke-opacity:1"
         d="m 96.114676,266.16432 c 0.01558,0.0251 0.535103,0.86266 0.694022,1.33396 0.430632,0.96537 0.246582,3.78805 0.238752,5.3963 0.02643,-0.18501 4.47288,-1.33107 6.7811,0.7673 -0.0148,-0.026 -0.0466,-0.0767 -0.11932,-0.17763 -0.069,-0.0958 -0.17427,-0.2376 -0.3544,-0.42173 -0.5036,-0.57647 -0.22021,-0.0806 -0.76804,-0.65035 -0.47364,-0.42957 -1.49666,-1.44994 -2.734912,-2.66823 -1.183593,-1.1645 -2.562253,-2.50753 -3.737202,-3.57962 z"
         id="path2087"
         inkscape:connector-curvature="0"
         sodipodi:nodetypes="ccccsccsc" />
      <path
         sodipodi:nodetypes="ccccccsc"
         inkscape:connector-curvature="0"
         id="path2089"
         d="m 95.802749,265.66577 c 0.01477,0.0238 0.507402,0.81793 0.658094,1.26482 0.408339,0.91533 0.278676,3.0687 0.271251,4.59359 0.409087,-0.0213 4.920116,-0.70281 6.988376,1.73944 -0.0279,-0.0483 -0.098,-0.0884 -0.1371,-0.16508 -0.47754,-0.54659 -1.08671,-0.98577 -1.64355,-1.50875 -0.44913,-0.40731 -1.41919,-1.37479 -2.593338,-2.52993 -1.12232,-1.10415 -2.429609,-2.37758 -3.543733,-3.39409 z"
         style="font-style:normal;font-weight:normal;font-size:medium;line-height:1.25;font-family:sans-serif;letter-spacing:0px;word-spacing:0px;opacity:1;fill:#ffffff;fill-opacity:1;stroke:#808080;stroke-width:0.30000001;stroke-miterlimit:4;stroke-dasharray:none;stroke-opacity:1" />
      <path
         id="path2091"
         d="m 87.690247,268.4 c 1.694979,0 3.069083,1.37435 3.069083,3.06962 0,1.69529 -1.374104,3.06964 -3.069083,3.06964 -1.694976,0 -3.069082,-1.37435 -3.069082,-3.06964 0,-1.69527 1.374106,-3.06962 3.069082,-3.06962 z"
         style="fill:#d7f4ee;fill-opacity:1;fill-rule:evenodd;stroke-width:0.26458335"
         inkscape:connector-curvature="0" />
      <path
         inkscape:connector-curvature="0"
         style="opacity:1;fill:#3298a9;fill-opacity:1;stroke:none;stroke-width:0.85569024;stroke-miterlimit:4;stroke-dasharray:none;stroke-opacity:1"
         d="m 84.770317,284.95551 -2.992138,3.16105 -0.0047,7.16992 12.40932,0.008 z"
         id="path2093" />
      <path
         inkscape:connector-curvature="0"
         style="opacity:1;fill:#143b42;fill-opacity:1;stroke:none;stroke-width:0.85569018;stroke-miterlimit:4;stroke-dasharray:none;stroke-opacity:1"
         d="m 93.39006,278.9785 -11.615413,13.99641 -0.0011,2.30944 23.221063,0.0175 0.001,-1.78334 z"
         id="path2095" />
      <path
         inkscape:connector-curvature="0"
         style="opacity:1;fill:#000000;fill-opacity:1;stroke:none;stroke-width:0.85569024;stroke-miterlimit:4;stroke-dasharray:none;stroke-opacity:1"
         d="m 102.65076,282.26627 -14.165749,13.02621 16.588499,0.009 0.009,-10.71179 z"
         id="path2097" />
      <g
         transform="translate(1.0697015)"
         id="text1198-2"
         style="font-style:normal;font-weight:normal;font-size:4.60694408px;line-height:1.25;font-family:sans-serif;letter-spacing:0px;word-spacing:0px;fill:#ffffff;fill-opacity:1;stroke:none;stroke-width:0.26458329"
         aria-label="GIF">
        <path
           inkscape:connector-curvature="0"
           id="path2805"
           style="font-style:normal;font-variant:normal;font-weight:600;font-stretch:normal;font-size:4.76249981px;font-family:'Lucida Grande';-inkscape-font-specification:'Lucida Grande Semi-Bold';fill:#ffffff;fill-opacity:1;stroke-width:0.26458329"
           d="m 91.563771,293.62766 q -0.646472,0.16743 -1.116211,0.16743 -0.890643,0 -1.369684,-0.46742 -0.476715,-0.46974 -0.476715,-1.3441 0,-0.86739 0.476715,-1.3348 0.479041,-0.46742 1.362708,-0.46742 0.565081,0 1.120861,0.13255 v 0.56043 q -0.644146,-0.22091 -1.058074,-0.22091 -0.546479,0 -0.844135,0.34881 -0.297656,0.34882 -0.297656,0.98832 0,0.61856 0.318585,0.97203 0.318585,0.35114 0.879016,0.35114 0.123248,0 0.288355,-0.0349 v -1.13249 h 0.716235 z" />
        <path
           inkscape:connector-curvature="0"
           id="path2807"
           style="font-style:normal;font-variant:normal;font-weight:600;font-stretch:normal;font-size:4.76249981px;font-family:'Lucida Grande';-inkscape-font-specification:'Lucida Grande Semi-Bold';fill:#ffffff;fill-opacity:1;stroke-width:0.26458329"
           d="m 92.368373,293.70905 v -3.44165 h 0.716235 v 3.44165 z" />
        <path
           inkscape:connector-curvature="0"
           id="path2809"
           style="font-style:normal;font-variant:normal;font-weight:600;font-stretch:normal;font-size:4.76249981px;font-family:'Lucida Grande';-inkscape-font-specification:'Lucida Grande Semi-Bold';fill:#ffffff;fill-opacity:1;stroke-width:0.26458329"
           d="m 93.949672,293.70905 v -3.44165 h 2.164984 v 0.47206 h -1.448749 v 1.04645 h 1.190625 v 0.47439 h -1.190625 v 1.44875 z" />
      </g>
    </g>
  </g>
</svg>
