<?xml version="1.0" encoding="UTF-8" standalone="no"?>
<!-- Created with Inkscape (http://www.inkscape.org/) -->

<svg
   xmlns:osb="http://www.openswatchbook.org/uri/2009/osb"
   xmlns:dc="http://purl.org/dc/elements/1.1/"
   xmlns:cc="http://creativecommons.org/ns#"
   xmlns:rdf="http://www.w3.org/1999/02/22-rdf-syntax-ns#"
   xmlns:svg="http://www.w3.org/2000/svg"
   xmlns="http://www.w3.org/2000/svg"
   xmlns:xlink="http://www.w3.org/1999/xlink"
   xmlns:sodipodi="http://sodipodi.sourceforge.net/DTD/sodipodi-0.dtd"
   xmlns:inkscape="http://www.inkscape.org/namespaces/inkscape"
   width="128"
   height="128"
   viewBox="0 0 33.866666 33.866668"
   version="1.1"
   id="svg8"
   inkscape:version="0.92.2 5c3e80d, 2017-08-06"
   sodipodi:docname="org 2.svg">
  <defs
     id="defs2">
    <linearGradient
       id="linearGradient1830">
      <stop
         id="stop1826"
         style="stop-color:#d9d9d9;stop-opacity:1"
         offset="0" />
      <stop
         id="stop1828"
         style="stop-color:#ffffff;stop-opacity:1;"
         offset="1" />
    </linearGradient>
    <linearGradient
       osb:paint="solid"
       id="linearGradient6987">
      <stop
         id="stop6985"
         offset="0"
         style="stop-color:#77d2fb;stop-opacity:1;" />
    </linearGradient>
    <linearGradient
       inkscape:collect="always"
       xlink:href="#linearGradient1830"
       id="linearGradient1503-8-3"
       x1="29.203474"
       y1="263.52237"
       x2="4.5843229"
       y2="296.16849"
       gradientUnits="userSpaceOnUse"
       gradientTransform="matrix(0.95481176,0,0,0.95480184,0.765188,12.661897)" />
  </defs>
  <sodipodi:namedview
     id="base"
     pagecolor="#ffffff"
     bordercolor="#666666"
     borderopacity="1.0"
     inkscape:pageopacity="0.0"
     inkscape:pageshadow="2"
     inkscape:zoom="0.85350003"
     inkscape:cx="-101.86927"
     inkscape:cy="17.849283"
     inkscape:document-units="mm"
     inkscape:current-layer="layer1"
     showgrid="false"
     units="px"
     inkscape:window-width="1600"
     inkscape:window-height="811"
     inkscape:window-x="0"
     inkscape:window-y="0"
     inkscape:window-maximized="1"
     showguides="false"
     inkscape:snap-nodes="false" />
  <metadata
     id="metadata5">
    <rdf:RDF>
      <cc:Work
         rdf:about="">
        <dc:format>image/svg+xml</dc:format>
        <dc:type
           rdf:resource="http://purl.org/dc/dcmitype/StillImage" />
        <dc:title />
      </cc:Work>
    </rdf:RDF>
  </metadata>
  <g
     inkscape:label="Layer 1"
     inkscape:groupmode="layer"
     id="layer1"
     transform="translate(0,-263.13332)">
    <g
       style="stroke-width:4.08449793"
       inkscape:transform-center-y="-9.4924686"
       inkscape:transform-center-x="5.4653607"
       inkscape:label="Capa 1"
       id="layer1-4-3"
       transform="matrix(0.53602412,0,0,0.5372689,-234.93365,-13.785303)">
      <g
         style="stroke-width:4.08449793"
         id="layer1-3-65-9"
         inkscape:label="Capa 1"
         transform="translate(0.41988239,0.03484499)" />
    </g>
    <g
       style="stroke-width:4.08449793"
       inkscape:transform-center-y="-9.4924686"
       inkscape:transform-center-x="5.4653607"
       inkscape:label="Capa 1"
       id="layer1-4"
       transform="matrix(0.53602412,0,0,0.5372689,-234.93365,-13.7603)">
      <g
         style="stroke-width:4.08449793"
         id="layer1-3-65"
         inkscape:label="Capa 1"
         transform="translate(0.41988239,0.03484499)" />
    </g>
    <path
       style="opacity:0.25;fill:#000000;fill-opacity:1;stroke:none;stroke-width:1.7883966;stroke-miterlimit:4;stroke-dasharray:none;stroke-opacity:1"
       d="m 5.142353,264.8392 v 31.10591 h 23.581961 v -17.45475 c -0.04498,-0.7929 -0.09696,-1.50255 -0.298063,-2.22205 -0.204573,-0.73192 -0.526951,-1.42494 -0.912236,-2.08813 -0.492998,-0.84861 -1.326132,-1.39576 -2.066596,-2.09122 -0.449226,-0.40738 -1.419471,-1.3751 -2.593872,-2.5305 -1.164791,-1.14594 -2.530897,-2.47697 -3.671384,-3.51104 -0.336848,-0.30398 -0.826157,-0.61944 -1.28075,-0.80163 -0.352994,-0.14146 -0.768267,-0.22951 -1.169211,-0.28869 -0.413429,-0.061 -0.811623,-0.0914 -1.110603,-0.1179 z"
       id="path5023-4-5"
       inkscape:connector-curvature="0"
       sodipodi:nodetypes="ccccascscsscc" />
    <path
       sodipodi:nodetypes="ccccascscsscc"
       inkscape:connector-curvature="0"
       id="path4623-8-3"
       d="m 5.142353,264.33819 v 31.10591 h 23.581961 v -17.45475 c -0.04498,-0.7929 -0.09696,-1.50256 -0.298063,-2.22206 -0.204573,-0.73192 -0.526951,-1.42494 -0.912236,-2.08813 -0.492998,-0.8486 -1.326132,-1.39575 -2.066596,-2.09121 -0.449226,-0.40739 -1.419471,-1.37511 -2.593872,-2.53051 -1.164791,-1.14592 -2.530897,-2.47697 -3.671384,-3.51104 -0.336848,-0.30398 -0.826157,-0.61945 -1.28075,-0.80162 -0.352994,-0.14146 -0.768267,-0.22952 -1.169211,-0.28869 -0.413429,-0.0611 -0.811623,-0.0914 -1.110603,-0.1179 z"
       style="opacity:1;fill:url(#linearGradient1503-8-3);fill-opacity:1;stroke:#808080;stroke-width:0.30000001;stroke-miterlimit:4;stroke-dasharray:none;stroke-opacity:1" />
    <g
       id="g2256"
       transform="translate(1.4699611,0.48969774)">
      <g
         transform="matrix(0.12389311,0,0,0.12389311,-0.33299934,265.61151)"
         style="isolation:isolate;fill:#808080;stroke-width:2.13557744"
         id="g2009">
        <path
           inkscape:connector-curvature="0"
           d="m 152.267,166.463 -0.053,18.981 13.227,0.071 0.018,-4.159 -9.077,-0.044 0.042,-14.914 h 0.012 l -0.006,-2.044 0.006,-2.044 h -0.012 l -0.042,-14.914 9.077,-0.054 -0.018,-4.15 -13.227,0.062 0.053,18.987 -7.71,-0.128 -0.006,0.32 -0.066,0.002 0.033,1.916 -0.033,1.921 0.066,0.002 0.005,0.31 7.711,-0.12 z m -7.749,-77.626 -0.033,1.919 h 0.066 l 0.005,0.321 7.711,-0.127 -0.053,18.986 13.227,0.063 0.018,-4.16 -9.077,-0.044 0.042,-14.914 h 0.012 l -0.006,-2.044 0.006,-2.044 h -0.012 l -0.042,-14.914 9.077,-0.045 -0.018,-4.159 -13.227,0.062 0.053,18.987 -7.71,-0.127 -0.006,0.32 h -0.066 z m -43.112,35.603 -0.048,-33.63 9.077,-0.045 -0.018,-4.16 -13.227,0.072 0.053,37.694 -7.711,-0.128 -0.006,0.32 -0.066,0.002 0.033,1.917 -0.033,1.92 0.067,0.002 0.005,0.31 7.711,-0.12 -0.053,37.696 13.227,0.063 0.018,-4.16 -9.077,-0.044 0.048,-33.621 h 0.005 l -0.002,-2.045 0.002,-2.043 z"
           id="path2007"
           style="fill:#808080;stroke-width:2.13557744" />
      </g>
      <path
         style="opacity:0.4;isolation:isolate;fill:#7b522e;stroke-width:0.26458332"
         inkscape:connector-curvature="0"
         d="m 20.283062,287.18489 h 4.033836 v 2.56707 h -4.034084 v -2.56707 z"
         id="path2011" />
      <path
         style="isolation:isolate;fill:#7b522e;fill-rule:evenodd;stroke-width:0.26458332"
         inkscape:connector-curvature="0"
         d="m 20.154089,287.05629 h 4.291534 v 2.82427 h -4.291534 v -2.82439 z m 0.257698,0.2577 h 3.776262 v 2.30887 h -3.776262 z"
         id="path2013" />
      <path
         style="opacity:0.4;isolation:isolate;fill:#7b522e;stroke-width:0.26458332"
         inkscape:connector-curvature="0"
         d="m 20.283062,282.31949 h 4.033836 v 2.56694 h -4.034084 v -2.56707 z"
         id="path2015" />
      <path
         style="isolation:isolate;fill:#7b522e;fill-rule:evenodd;stroke-width:0.26458332"
         inkscape:connector-curvature="0"
         d="m 20.154089,282.19089 h 4.291534 v 2.82414 h -4.291534 z m 0.257698,0.25769 h 3.776262 v 2.30888 h -3.776262 z"
         id="path2017" />
      <path
         style="opacity:0.4;isolation:isolate;fill:#7b522e;stroke-width:0.26458332"
         inkscape:connector-curvature="0"
         d="m 20.211204,277.68068 h 4.033836 v 2.56707 h -4.03396 v -2.56707 z"
         id="path2019" />
      <path
         style="isolation:isolate;fill:#7b522e;fill-rule:evenodd;stroke-width:0.26458332"
         inkscape:connector-curvature="0"
         d="m 20.082107,277.5522 h 4.291658 v 2.82415 h -4.291658 z m 0.257698,0.2577 h 3.776262 v 2.30875 h -3.776262 v -2.30887 z"
         id="path2021" />
      <path
         style="opacity:0.4;isolation:isolate;fill:#7b522e;stroke-width:0.26458332"
         inkscape:connector-curvature="0"
         d="m 20.211204,272.92591 h 4.033836 v 2.56694 h -4.03396 v -2.56706 z"
         id="path2023" />
      <path
         style="isolation:isolate;fill:#7b522e;fill-rule:evenodd;stroke-width:0.26458332"
         inkscape:connector-curvature="0"
         d="m 20.082107,272.79731 h 4.291658 v 2.82414 h -4.291658 z m 0.257698,0.2577 h 3.776262 v 2.30887 h -3.776262 z"
         id="path2025" />
      <g
         transform="matrix(0.12389311,0,0,0.12389311,-0.33299934,265.61151)"
         id="g2031"
         style="isolation:isolate;stroke-width:2.13557744">
        <path
           style="opacity:0.4;fill:#7b522e;stroke-width:2.13557744"
           inkscape:connector-curvature="0"
           d="m 111.378,154.092 h 32.558 v 20.719 h -32.558 v -20.72 z"
           id="path2027" />
        <path
           style="fill:#7b522e;fill-rule:evenodd;stroke-width:2.13557744"
           inkscape:connector-curvature="0"
           d="m 110.337,153.054 h 34.639 v 22.795 h -34.64 v -22.795 z m 2.08,2.08 h 30.48 v 18.636 h -30.48 z"
           id="path2029" />
      </g>
      <g
         transform="matrix(0.12389311,0,0,0.12389311,-0.33299934,265.61151)"
         id="g2037"
         style="isolation:isolate;stroke-width:2.13557744">
        <path
           style="opacity:0.4;fill:#7b522e;stroke-width:2.13557744"
           inkscape:connector-curvature="0"
           d="m 111.378,78.673 h 32.558 v 20.72 h -32.558 z"
           id="path2033" />
        <path
           style="fill:#7b522e;fill-rule:evenodd;stroke-width:2.13557744"
           inkscape:connector-curvature="0"
           d="m 110.337,77.636 h 34.639 v 22.795 h -34.64 V 77.636 Z m 2.08,2.08 h 30.48 V 98.35 h -30.48 V 79.715 Z"
           id="path2035" />
      </g>
      <g
         transform="matrix(0.12389311,0,0,0.12389311,-0.33299934,265.61151)"
         id="g2043"
         style="isolation:isolate;stroke-width:2.13557744">
        <path
           style="opacity:0.4;fill:#7b522e;stroke-width:2.13557744"
           inkscape:connector-curvature="0"
           d="M 56.04,116.16 H 88.6 v 20.718 H 56.04 Z"
           id="path2039" />
        <path
           style="fill:#7b522e;fill-rule:evenodd;stroke-width:2.13557744"
           inkscape:connector-curvature="0"
           d="m 55,115.122 h 34.639 v 22.795 H 55 Z m 2.08,2.08 h 30.48 v 18.635 H 57.08 v -18.636 z"
           id="path2041" />
      </g>
    </g>
    <path
       sodipodi:nodetypes="ccccsccsc"
       inkscape:connector-curvature="0"
       id="path1355-8-5"
       d="m 19.620994,266.16126 c 0.01558,0.0251 0.535221,0.86284 0.694175,1.33425 0.430727,0.96558 0.246637,3.78888 0.238805,5.39748 0.02644,-0.18505 4.473865,-1.33136 6.782594,0.76747 -0.01476,-0.026 -0.04662,-0.0767 -0.119341,-0.17767 -0.06901,-0.0958 -0.174308,-0.23765 -0.354479,-0.42182 -0.503715,-0.5766 -0.22026,-0.0806 -0.768208,-0.6505 -0.473747,-0.42966 -1.496999,-1.45025 -2.735519,-2.66881 -1.183854,-1.16476 -2.562819,-2.50808 -3.738027,-3.5804 z"
       style="opacity:0.24800002;fill:#000000;fill-opacity:1;stroke:none;stroke-width:0.28614345;stroke-miterlimit:4;stroke-dasharray:none;stroke-opacity:1" />
    <path
       style="opacity:1;fill:#ffffff;fill-opacity:1;stroke:#808080;stroke-width:0.30000001;stroke-miterlimit:4;stroke-dasharray:none;stroke-opacity:1"
       d="m 19.308998,265.6626 c 0.01477,0.0238 0.507514,0.81811 0.658239,1.26509 0.40843,0.91553 0.278738,3.06938 0.271311,4.5946 0.409178,-0.0213 4.921198,-0.70296 6.989915,1.73982 -0.02793,-0.0483 -0.09803,-0.0884 -0.13713,-0.16512 -0.477638,-0.54671 -1.086946,-0.98598 -1.643914,-1.50908 -0.449221,-0.4074 -1.419501,-1.37509 -2.593906,-2.53048 -1.122567,-1.10439 -2.430145,-2.3781 -3.544515,-3.39483 z"
       id="path4753-0-6"
       inkscape:connector-curvature="0"
       sodipodi:nodetypes="ccccccsc" />
    <g
       style="stroke-width:4.08449793"
       inkscape:transform-center-y="-9.4924686"
       inkscape:transform-center-x="5.4653607"
       inkscape:label="Capa 1"
       id="layer1-4-3-2"
       transform="matrix(0.51126596,0,0,0.51245325,-269.32006,5.6156869)">
      <g
         style="stroke-width:4.08449793"
         id="layer1-3-65-9-9"
         inkscape:label="Capa 1"
         transform="translate(0.41988239,0.03484499)" />
    </g>
    <g
       style="stroke-width:4.08449793"
       inkscape:transform-center-y="-9.4924686"
       inkscape:transform-center-x="5.4653607"
       inkscape:label="Capa 1"
       id="layer1-4-1"
       transform="matrix(0.51126596,0,0,0.51245325,-269.32006,5.6395364)">
      <g
         style="stroke-width:4.08449793"
         id="layer1-3-65-2"
         inkscape:label="Capa 1"
         transform="translate(0.41988239,0.03484499)" />
    </g>
  </g>
</svg>
