<?xml version="1.0" encoding="UTF-8" standalone="no"?>
<!-- Created with Inkscape (http://www.inkscape.org/) -->

<svg
   xmlns:osb="http://www.openswatchbook.org/uri/2009/osb"
   xmlns:dc="http://purl.org/dc/elements/1.1/"
   xmlns:cc="http://creativecommons.org/ns#"
   xmlns:rdf="http://www.w3.org/1999/02/22-rdf-syntax-ns#"
   xmlns:svg="http://www.w3.org/2000/svg"
   xmlns="http://www.w3.org/2000/svg"
   xmlns:xlink="http://www.w3.org/1999/xlink"
   xmlns:sodipodi="http://sodipodi.sourceforge.net/DTD/sodipodi-0.dtd"
   xmlns:inkscape="http://www.inkscape.org/namespaces/inkscape"
   width="128"
   height="128"
   viewBox="0 0 33.866666 33.866668"
   version="1.1"
   id="svg8"
   inkscape:version="0.92.2 5c3e80d, 2017-08-06"
   sodipodi:docname="application-image-bmp.svg">
  <defs
     id="defs2">
    <linearGradient
       inkscape:collect="always"
       id="linearGradient918">
      <stop
         style="stop-color:#e55b5b;stop-opacity:1"
         offset="0"
         id="stop914" />
      <stop
         style="stop-color:#d93737;stop-opacity:1"
         offset="1"
         id="stop916" />
    </linearGradient>
    <linearGradient
       id="linearGradient6987"
       osb:paint="solid">
      <stop
         style="stop-color:#77d2fb;stop-opacity:1;"
         offset="0"
         id="stop6985" />
    </linearGradient>
    <linearGradient
       inkscape:collect="always"
       xlink:href="#linearGradient918"
       id="linearGradient920"
       x1="14.492885"
       y1="270.84583"
       x2="12.783461"
       y2="284.28055"
       gradientUnits="userSpaceOnUse" />
  </defs>
  <sodipodi:namedview
     id="base"
     pagecolor="#ffffff"
     bordercolor="#666666"
     borderopacity="1.0"
     inkscape:pageopacity="0.0"
     inkscape:pageshadow="2"
     inkscape:zoom="3.3352733"
     inkscape:cx="53.3219"
     inkscape:cy="52.715305"
     inkscape:document-units="mm"
     inkscape:current-layer="layer1"
     showgrid="false"
     inkscape:window-width="1600"
     inkscape:window-height="811"
     inkscape:window-x="0"
     inkscape:window-y="0"
     inkscape:window-maximized="1"
     units="px"
     showguides="false" />
  <metadata
     id="metadata5">
    <rdf:RDF>
      <cc:Work
         rdf:about="">
        <dc:format>image/svg+xml</dc:format>
        <dc:type
           rdf:resource="http://purl.org/dc/dcmitype/StillImage" />
        <dc:title />
      </cc:Work>
    </rdf:RDF>
  </metadata>
  <g
     inkscape:label="Layer 1"
     inkscape:groupmode="layer"
     id="layer1"
     transform="translate(0,-263.13332)">
    <g
       id="g39"
       style="fill:#ffffff;fill-opacity:0.85204103;stroke-width:0.41878536"
       transform="matrix(0.81433903,0,0,0.81448475,-83.793827,-555.5684)" />
    <g
       style="stroke-width:4.08539581"
       inkscape:transform-center-y="-9.4924686"
       inkscape:transform-center-x="5.4653607"
       inkscape:label="Capa 1"
       id="layer1-4-3"
       transform="matrix(0.53590583,0,0,0.53715127,-238.57568,-13.720944)">
      <g
         style="stroke-width:4.08539581"
         id="layer1-3-65-9"
         inkscape:label="Capa 1"
         transform="translate(0.41988239,0.03484499)" />
    </g>
    <g
       style="stroke-width:4.08539581"
       inkscape:transform-center-y="-9.4924686"
       inkscape:transform-center-x="5.4653607"
       inkscape:label="Capa 1"
       id="layer1-4"
       transform="matrix(0.53590583,0,0,0.53715127,-238.57568,-13.695947)">
      <g
         style="stroke-width:4.08539581"
         id="layer1-3-65"
         inkscape:label="Capa 1"
         transform="translate(0.41988239,0.03484499)" />
    </g>
    <g
       style="stroke-width:4.08539581"
       inkscape:transform-center-y="-9.4924686"
       inkscape:transform-center-x="5.4653607"
       inkscape:label="Capa 1"
       id="layer1-4-3-9"
       transform="matrix(0.53590583,0,0,0.53715127,-202.17281,-13.720941)">
      <g
         style="stroke-width:4.08539581"
         id="layer1-3-65-9-99"
         inkscape:label="Capa 1"
         transform="translate(0.41988239,0.03484499)" />
    </g>
    <g
       style="stroke-width:4.08539581"
       inkscape:transform-center-y="-9.4924686"
       inkscape:transform-center-x="5.4653607"
       inkscape:label="Capa 1"
       id="layer1-4-17"
       transform="matrix(0.53590583,0,0,0.53715127,-202.17281,-13.695944)">
      <g
         style="stroke-width:4.08539581"
         id="layer1-3-65-23"
         inkscape:label="Capa 1"
         transform="translate(0.41988239,0.03484499)" />
    </g>
    <g
       style="stroke-width:4.08539581"
       inkscape:transform-center-y="-9.4924686"
       inkscape:transform-center-x="5.4653607"
       inkscape:label="Capa 1"
       id="layer1-4-3-2"
       transform="matrix(0.51115313,0,0,0.51234105,-236.55163,5.6758016)">
      <g
         style="stroke-width:4.08539581"
         id="layer1-3-65-9-9-6"
         inkscape:label="Capa 1"
         transform="translate(0.41988239,0.03484499)" />
    </g>
    <g
       style="stroke-width:4.08539581"
       inkscape:transform-center-y="-9.4924686"
       inkscape:transform-center-x="5.4653607"
       inkscape:label="Capa 1"
       id="layer1-4-1"
       transform="matrix(0.51115313,0,0,0.51234105,-236.55163,5.6996459)">
      <g
         style="stroke-width:4.08539581"
         id="layer1-3-65-2"
         inkscape:label="Capa 1"
         transform="translate(0.41988239,0.03484499)" />
    </g>
    <g
       style="stroke-width:4.08539581"
       inkscape:transform-center-y="-9.4924686"
       inkscape:transform-center-x="5.4653607"
       inkscape:label="Capa 1"
       id="layer1-4-3-90"
       transform="matrix(0.53590583,0,0,0.53715127,-274.93184,-13.720941)">
      <g
         style="stroke-width:4.08539581"
         id="layer1-3-65-9-5"
         inkscape:label="Capa 1"
         transform="translate(0.41988239,0.03484499)" />
    </g>
    <g
       style="stroke-width:4.08539581"
       inkscape:transform-center-y="-9.4924686"
       inkscape:transform-center-x="5.4653607"
       inkscape:label="Capa 1"
       id="layer1-4-2"
       transform="matrix(0.53590583,0,0,0.53715127,-274.93184,-13.695944)">
      <g
         style="stroke-width:4.08539581"
         id="layer1-3-65-27"
         inkscape:label="Capa 1"
         transform="translate(0.41988239,0.03484499)" />
    </g>
    <g
       style="stroke-width:4.08539581"
       inkscape:transform-center-y="-9.4924686"
       inkscape:transform-center-x="5.4653607"
       inkscape:label="Capa 1"
       id="layer1-4-3-2-2"
       transform="matrix(0.51115313,0,0,0.51234105,-309.31066,5.6758016)">
      <g
         style="stroke-width:4.08539581"
         id="layer1-3-65-9-9"
         inkscape:label="Capa 1"
         transform="translate(0.41988239,0.03484499)" />
    </g>
    <g
       style="stroke-width:4.08539581"
       inkscape:transform-center-y="-9.4924686"
       inkscape:transform-center-x="5.4653607"
       inkscape:label="Capa 1"
       id="layer1-4-1-3"
       transform="matrix(0.51115313,0,0,0.51234105,-309.31066,5.6996459)">
      <g
         style="stroke-width:4.08539581"
         id="layer1-3-65-2-9"
         inkscape:label="Capa 1"
         transform="translate(0.41988239,0.03484499)" />
    </g>
    <path
       sodipodi:nodetypes="ccccascscsscc"
       inkscape:connector-curvature="0"
       id="path5023-4-5"
       d="m 5.1449552,264.84255 v 31.0991 H 28.721712 v -17.45093 c -0.04497,-0.79272 -0.09694,-1.50222 -0.297997,-2.22156 -0.204528,-0.73176 -0.526835,-1.42463 -0.912035,-2.08767 -0.492889,-0.84843 -1.325839,-1.39546 -2.06614,-2.09076 -0.449127,-0.40729 -1.419158,-1.3748 -2.593299,-2.52995 -1.164534,-1.14569 -2.530339,-2.47643 -3.670574,-3.51027 -0.336774,-0.30391 -0.825975,-0.61931 -1.280468,-0.80146 -0.352916,-0.14142 -0.768097,-0.22946 -1.168952,-0.28862 -0.413338,-0.061 -0.811444,-0.0914 -1.110358,-0.11788 z"
       style="font-style:normal;font-weight:normal;font-size:medium;line-height:1.25;font-family:sans-serif;letter-spacing:0px;word-spacing:0px;opacity:0.25;fill:#000000;fill-opacity:1;stroke:none;stroke-width:1.7883966;stroke-miterlimit:4;stroke-dasharray:none;stroke-opacity:1" />
    <path
       style="font-style:normal;font-weight:normal;font-size:medium;line-height:1.25;font-family:sans-serif;letter-spacing:0px;word-spacing:0px;opacity:1;fill:url(#linearGradient920);fill-opacity:1;stroke:#808080;stroke-width:0.30000001;stroke-miterlimit:4;stroke-dasharray:none;stroke-opacity:1"
       d="m 5.1449552,264.34165 v 31.0991 H 28.721712 v -17.45093 c -0.04497,-0.79272 -0.09694,-1.50223 -0.297997,-2.22157 -0.204528,-0.73176 -0.526835,-1.42463 -0.912035,-2.08767 -0.492889,-0.84842 -1.325839,-1.39545 -2.06614,-2.09075 -0.449127,-0.4073 -1.419158,-1.37481 -2.593299,-2.52996 -1.164534,-1.14567 -2.530339,-2.47643 -3.670574,-3.51027 -0.336774,-0.30391 -0.825975,-0.61932 -1.280468,-0.80145 -0.352916,-0.14142 -0.768097,-0.22947 -1.168952,-0.28862 -0.413338,-0.0611 -0.811444,-0.0914 -1.110358,-0.11788 z"
       id="path4623-8-3"
       inkscape:connector-curvature="0"
       sodipodi:nodetypes="ccccascscsscc" />
    <path
       style="font-style:normal;font-weight:normal;font-size:medium;line-height:1.25;font-family:sans-serif;letter-spacing:0px;word-spacing:0px;opacity:0.24800002;fill:#000000;fill-opacity:1;stroke:none;stroke-width:0.28614345;stroke-miterlimit:4;stroke-dasharray:none;stroke-opacity:1"
       d="m 19.620401,266.16432 c 0.01558,0.0251 0.535103,0.86266 0.694022,1.33396 0.430632,0.96537 0.246582,3.78805 0.238752,5.3963 0.02643,-0.18501 4.472878,-1.33107 6.781097,0.7673 -0.01476,-0.026 -0.04661,-0.0767 -0.119314,-0.17763 -0.069,-0.0958 -0.17427,-0.2376 -0.354401,-0.42173 -0.503604,-0.57647 -0.220211,-0.0806 -0.768039,-0.65035 -0.473642,-0.42957 -1.496668,-1.44994 -2.734915,-2.66823 -1.183593,-1.1645 -2.562253,-2.50753 -3.737202,-3.57962 z"
       id="path1355-8-5"
       inkscape:connector-curvature="0"
       sodipodi:nodetypes="ccccsccsc" />
    <path
       sodipodi:nodetypes="ccccccsc"
       inkscape:connector-curvature="0"
       id="path4753-0-6"
       d="m 19.308474,265.66577 c 0.01477,0.0238 0.507402,0.81793 0.658094,1.26482 0.408339,0.91533 0.278676,3.0687 0.271251,4.59359 0.409087,-0.0213 4.920112,-0.70281 6.988372,1.73944 -0.02792,-0.0483 -0.09801,-0.0884 -0.1371,-0.16508 -0.477532,-0.54659 -1.086706,-0.98577 -1.643551,-1.50875 -0.449122,-0.40731 -1.419188,-1.37479 -2.593333,-2.52993 -1.12232,-1.10415 -2.429609,-2.37758 -3.543733,-3.39409 z"
       style="font-style:normal;font-weight:normal;font-size:medium;line-height:1.25;font-family:sans-serif;letter-spacing:0px;word-spacing:0px;opacity:1;fill:#ffffff;fill-opacity:1;stroke:#808080;stroke-width:0.30000001;stroke-miterlimit:4;stroke-dasharray:none;stroke-opacity:1" />
    <path
       id="path970"
       d="m 11.716065,269.61355 c 1.694979,0 3.069083,1.37435 3.069083,3.06962 0,1.69529 -1.374104,3.06964 -3.069083,3.06964 -1.694976,0 -3.0690818,-1.37435 -3.0690818,-3.06964 0,-1.69527 1.3741058,-3.06962 3.0690818,-3.06962 z"
       style="fill:#eecc66;fill-opacity:1;fill-rule:evenodd;stroke-width:0.26458335"
       inkscape:connector-curvature="0" />
    <path
       inkscape:connector-curvature="0"
       style="opacity:1;fill:#202026;fill-opacity:1;stroke:none;stroke-width:0.85569024;stroke-miterlimit:4;stroke-dasharray:none;stroke-opacity:1"
       d="m 8.2760418,284.95551 -2.9921376,3.16105 -0.0047,7.16992 12.4093198,0.008 z"
       id="rect922" />
    <path
       inkscape:connector-curvature="0"
       style="opacity:1;fill:#31313b;fill-opacity:1;stroke:none;stroke-width:0.85569024;stroke-miterlimit:4;stroke-dasharray:none;stroke-opacity:1"
       d="m 16.936668,280.93991 -11.6562904,12.31463 -0.00119,2.03194 23.3027884,0.0154 0.0012,-1.56905 z"
       id="rect915" />
    <path
       inkscape:connector-curvature="0"
       style="opacity:1;fill:#3f3f4d;fill-opacity:1;stroke:none;stroke-width:0.85569024;stroke-miterlimit:4;stroke-dasharray:none;stroke-opacity:1"
       d="m 26.922737,285.04492 -9.701625,10.24947 11.360878,0.007 0.0055,-8.4284 z"
       id="rect908" />
    <g
       style="stroke-width:4.08539581"
       inkscape:transform-center-y="-9.4924686"
       inkscape:transform-center-x="5.4653607"
       inkscape:label="Capa 1"
       id="layer1-4-3-7"
       transform="matrix(0.53590583,0,0,0.53715127,-198.36408,-13.720944)">
      <g
         style="stroke-width:4.08539581"
         id="layer1-3-65-9-3"
         inkscape:label="Capa 1"
         transform="translate(0.41988239,0.03484499)" />
    </g>
    <g
       style="stroke-width:4.08539581"
       inkscape:transform-center-y="-9.4924686"
       inkscape:transform-center-x="5.4653607"
       inkscape:label="Capa 1"
       id="layer1-4-7"
       transform="matrix(0.53590583,0,0,0.53715127,-198.36408,-13.695947)">
      <g
         style="stroke-width:4.08539581"
         id="layer1-3-65-90"
         inkscape:label="Capa 1"
         transform="translate(0.41988239,0.03484499)" />
    </g>
    <g
       style="stroke-width:4.08539581"
       inkscape:transform-center-y="-9.4924686"
       inkscape:transform-center-x="5.4653607"
       inkscape:label="Capa 1"
       id="layer1-4-3-2-7"
       transform="matrix(0.51115313,0,0,0.51234105,-232.7429,5.6757983)">
      <g
         style="stroke-width:4.08539581"
         id="layer1-3-65-9-9-0"
         inkscape:label="Capa 1"
         transform="translate(0.41988239,0.03484499)" />
    </g>
    <g
       style="stroke-width:4.08539581"
       inkscape:transform-center-y="-9.4924686"
       inkscape:transform-center-x="5.4653607"
       inkscape:label="Capa 1"
       id="layer1-4-1-39"
       transform="matrix(0.51115313,0,0,0.51234105,-232.7429,5.6996426)">
      <g
         style="stroke-width:4.08539581"
         id="layer1-3-65-2-8"
         inkscape:label="Capa 1"
         transform="translate(0.41988239,0.03484499)" />
    </g>
    <g
       aria-label="BMP"
       style="font-style:normal;font-weight:normal;font-size:4.60694408px;line-height:1.25;font-family:sans-serif;letter-spacing:0px;word-spacing:0px;fill:#ffffff;fill-opacity:1;stroke:none;stroke-width:0.26464146"
       id="text1198"
       transform="matrix(0.99977932,0,0,0.99978106,-94.329938,0.06133761)">
      <path
         d="m 106.44045,293.70905 v -3.44165 h 1.1697 q 0.51857,0 0.78832,0.19533 0.27208,0.19534 0.27208,0.56973 0,0.6209 -0.82553,0.87902 0.96506,0.23487 0.96506,0.94645 0,0.41161 -0.28371,0.63252 -0.28138,0.2186 -0.80925,0.2186 z m 0.67438,-2.00918 h 0.16976 q 0.3023,0 0.47904,-0.14883 0.17906,-0.14883 0.17906,-0.40463 0,-0.23719 -0.14418,-0.32091 -0.14185,-0.086 -0.5395,-0.086 h -0.14418 z m 0,1.52083 h 0.15348 q 0.45113,0 0.62089,-0.0953 0.17208,-0.0977 0.17208,-0.35347 0,-0.26277 -0.23021,-0.43718 -0.2279,-0.17441 -0.57671,-0.17441 h -0.13953 z"
         style="font-style:normal;font-variant:normal;font-weight:600;font-stretch:normal;font-size:4.76249981px;font-family:'Lucida Grande';-inkscape-font-specification:'Lucida Grande Semi-Bold';fill:#ffffff;fill-opacity:1;stroke-width:0.26464146"
         id="path2346"
         inkscape:connector-curvature="0" />
      <path
         d="m 109.44492,293.70905 v -3.44165 h 0.94878 l 0.82786,2.42078 0.85343,-2.42078 h 0.83251 v 3.44165 h -0.66043 v -2.59752 l -0.83948,2.3673 h -0.57671 l -0.8232,-2.40218 v 2.6324 z"
         style="font-style:normal;font-variant:normal;font-weight:600;font-stretch:normal;font-size:4.76249981px;font-family:'Lucida Grande';-inkscape-font-specification:'Lucida Grande Semi-Bold';fill:#ffffff;fill-opacity:1;stroke-width:0.26464146"
         id="path2348"
         inkscape:connector-curvature="0" />
      <path
         d="m 113.77024,293.70905 v -3.44165 h 1.19992 q 0.62787,0 0.8953,0.21161 0.26975,0.20929 0.26975,0.70228 0,0.55811 -0.36044,0.86972 -0.35812,0.30928 -1.00459,0.30928 h -0.29766 v 1.34876 z m 0.70228,-1.82082 h 0.13953 q 0.36742,0 0.57903,-0.16976 0.21394,-0.17208 0.21394,-0.46509 0,-0.51392 -0.65345,-0.51392 h -0.27905 z"
         style="font-style:normal;font-variant:normal;font-weight:600;font-stretch:normal;font-size:4.76249981px;font-family:'Lucida Grande';-inkscape-font-specification:'Lucida Grande Semi-Bold';fill:#ffffff;fill-opacity:1;stroke-width:0.26464146"
         id="path2350"
         inkscape:connector-curvature="0" />
    </g>
  </g>
</svg>
