<?xml version="1.0" encoding="UTF-8" standalone="no"?>
<!-- Created with Inkscape (http://www.inkscape.org/) -->

<svg
   xmlns:osb="http://www.openswatchbook.org/uri/2009/osb"
   xmlns:dc="http://purl.org/dc/elements/1.1/"
   xmlns:cc="http://creativecommons.org/ns#"
   xmlns:rdf="http://www.w3.org/1999/02/22-rdf-syntax-ns#"
   xmlns:svg="http://www.w3.org/2000/svg"
   xmlns="http://www.w3.org/2000/svg"
   xmlns:xlink="http://www.w3.org/1999/xlink"
   xmlns:sodipodi="http://sodipodi.sourceforge.net/DTD/sodipodi-0.dtd"
   xmlns:inkscape="http://www.inkscape.org/namespaces/inkscape"
   width="128"
   height="128"
   viewBox="0 0 33.866666 33.866668"
   version="1.1"
   id="svg8"
   inkscape:version="0.92.2 5c3e80d, 2017-08-06"
   sodipodi:docname="application-info.svg">
  <defs
     id="defs2">
    <linearGradient
       inkscape:collect="always"
       id="linearGradient1383">
      <stop
         id="stop1381"
         offset="0"
         style="stop-color:#ccc9c5;stop-opacity:1" />
      <stop
         id="stop1379"
         offset="1"
         style="stop-color:#fcfcfc;stop-opacity:1" />
    </linearGradient>
    <linearGradient
       id="linearGradient1830">
      <stop
         id="stop1826"
         style="stop-color:#d9d9d9;stop-opacity:1"
         offset="0" />
      <stop
         id="stop1828"
         style="stop-color:#ffffff;stop-opacity:1;"
         offset="1" />
    </linearGradient>
    <linearGradient
       osb:paint="solid"
       id="linearGradient6987">
      <stop
         id="stop6985"
         offset="0"
         style="stop-color:#77d2fb;stop-opacity:1;" />
    </linearGradient>
    <linearGradient
       inkscape:collect="always"
       xlink:href="#linearGradient1830"
       id="linearGradient1503-8-3"
       x1="29.203474"
       y1="263.52237"
       x2="4.5843229"
       y2="296.16849"
       gradientUnits="userSpaceOnUse"
       gradientTransform="matrix(0.95481176,0,0,0.95480184,0.765188,12.661897)" />
    <linearGradient
       id="linearGradient1077"
       inkscape:collect="always">
      <stop
         id="stop1073"
         offset="0"
         style="stop-color:#fefefe;stop-opacity:1" />
      <stop
         id="stop1075"
         offset="1"
         style="stop-color:#cacaca;stop-opacity:1" />
    </linearGradient>
    <linearGradient
       inkscape:collect="always"
       id="linearGradient1231">
      <stop
         style="stop-color:#d08bee;stop-opacity:1"
         offset="0"
         id="stop1227" />
      <stop
         style="stop-color:#a851f1;stop-opacity:1"
         offset="1"
         id="stop1229" />
    </linearGradient>
    <linearGradient
       inkscape:collect="always"
       xlink:href="#linearGradient1077"
       id="linearGradient1233"
       x1="97.097816"
       y1="293.0831"
       x2="96.539238"
       y2="392.4646"
       gradientUnits="userSpaceOnUse"
       gradientTransform="matrix(0.15867243,0,0,0.15867243,1.6835347,224.83222)" />
    <linearGradient
       inkscape:collect="always"
       xlink:href="#linearGradient1231"
       id="linearGradient1071"
       gradientUnits="userSpaceOnUse"
       gradientTransform="matrix(0.14449457,0,0,0.14449457,3.0446584,229.66244)"
       x1="97.048286"
       y1="290.09341"
       x2="95.35537"
       y2="380.75809" />
    <linearGradient
       inkscape:collect="always"
       xlink:href="#linearGradient1383"
       id="linearGradient1377"
       x1="28.473803"
       y1="283.12387"
       x2="28.19628"
       y2="273.29956"
       gradientUnits="userSpaceOnUse"
       gradientTransform="translate(-11.736831,-0.0373207)" />
  </defs>
  <sodipodi:namedview
     id="base"
     pagecolor="#ffffff"
     bordercolor="#666666"
     borderopacity="1.0"
     inkscape:pageopacity="0.0"
     inkscape:pageshadow="2"
     inkscape:zoom="1.6853472"
     inkscape:cx="133.33144"
     inkscape:cy="29.222874"
     inkscape:document-units="mm"
     inkscape:current-layer="layer1"
     showgrid="false"
     units="px"
     inkscape:window-width="1600"
     inkscape:window-height="811"
     inkscape:window-x="0"
     inkscape:window-y="0"
     inkscape:window-maximized="1"
     showguides="false"
     inkscape:snap-nodes="false" />
  <metadata
     id="metadata5">
    <rdf:RDF>
      <cc:Work
         rdf:about="">
        <dc:format>image/svg+xml</dc:format>
        <dc:type
           rdf:resource="http://purl.org/dc/dcmitype/StillImage" />
        <dc:title />
      </cc:Work>
    </rdf:RDF>
  </metadata>
  <g
     inkscape:label="Layer 1"
     inkscape:groupmode="layer"
     id="layer1"
     transform="translate(0,-263.13332)">
    <g
       style="stroke-width:4.08449793"
       inkscape:transform-center-y="-9.4924686"
       inkscape:transform-center-x="5.4653607"
       inkscape:label="Capa 1"
       id="layer1-4-3"
       transform="matrix(0.53602412,0,0,0.5372689,-234.93365,-13.785303)">
      <g
         style="stroke-width:4.08449793"
         id="layer1-3-65-9"
         inkscape:label="Capa 1"
         transform="translate(0.41988239,0.03484499)" />
    </g>
    <g
       style="stroke-width:4.08449793"
       inkscape:transform-center-y="-9.4924686"
       inkscape:transform-center-x="5.4653607"
       inkscape:label="Capa 1"
       id="layer1-4"
       transform="matrix(0.53602412,0,0,0.5372689,-234.93365,-13.7603)">
      <g
         style="stroke-width:4.08449793"
         id="layer1-3-65"
         inkscape:label="Capa 1"
         transform="translate(0.41988239,0.03484499)" />
    </g>
    <path
       style="opacity:0.25;fill:#000000;fill-opacity:1;stroke:none;stroke-width:1.7883966;stroke-miterlimit:4;stroke-dasharray:none;stroke-opacity:1"
       d="m 5.142353,264.8392 v 31.10591 h 23.581961 v -17.45475 c -0.04498,-0.7929 -0.09696,-1.50255 -0.298063,-2.22205 -0.204573,-0.73192 -0.526951,-1.42494 -0.912236,-2.08813 -0.492998,-0.84861 -1.326132,-1.39576 -2.066596,-2.09122 -0.449226,-0.40738 -1.419471,-1.3751 -2.593872,-2.5305 -1.164791,-1.14594 -2.530897,-2.47697 -3.671384,-3.51104 -0.336848,-0.30398 -0.826157,-0.61944 -1.28075,-0.80163 -0.352994,-0.14146 -0.768267,-0.22951 -1.169211,-0.28869 -0.413429,-0.061 -0.811623,-0.0914 -1.110603,-0.1179 z"
       id="path5023-4-5"
       inkscape:connector-curvature="0"
       sodipodi:nodetypes="ccccascscsscc" />
    <path
       sodipodi:nodetypes="ccccascscsscc"
       inkscape:connector-curvature="0"
       id="path4623-8-3"
       d="m 5.142353,264.33819 v 31.10591 h 23.581961 v -17.45475 c -0.04498,-0.7929 -0.09696,-1.50256 -0.298063,-2.22206 -0.204573,-0.73192 -0.526951,-1.42494 -0.912236,-2.08813 -0.492998,-0.8486 -1.326132,-1.39575 -2.066596,-2.09121 -0.449226,-0.40739 -1.419471,-1.37511 -2.593872,-2.53051 -1.164791,-1.14592 -2.530897,-2.47697 -3.671384,-3.51104 -0.336848,-0.30398 -0.826157,-0.61945 -1.28075,-0.80162 -0.352994,-0.14146 -0.768267,-0.22952 -1.169211,-0.28869 -0.413429,-0.0611 -0.811623,-0.0914 -1.110603,-0.1179 z"
       style="opacity:1;fill:url(#linearGradient1503-8-3);fill-opacity:1;stroke:#808080;stroke-width:0.30000001;stroke-miterlimit:4;stroke-dasharray:none;stroke-opacity:1" />
    <circle
       r="8.6428976"
       cy="278.88989"
       cx="16.916719"
       id="circle1069"
       style="opacity:1;fill:url(#linearGradient1233);fill-opacity:1;fill-rule:nonzero;stroke:#808080;stroke-width:0.1;stroke-linecap:round;stroke-linejoin:round;stroke-miterlimit:4;stroke-dasharray:none;stroke-dashoffset:0;stroke-opacity:1" />
    <circle
       style="opacity:1;fill:url(#linearGradient1071);fill-opacity:1;fill-rule:nonzero;stroke:#7437a6;stroke-width:0.1;stroke-linecap:round;stroke-linejoin:round;stroke-miterlimit:4;stroke-dasharray:none;stroke-dashoffset:0;stroke-opacity:1"
       id="path1201"
       cx="16.916719"
       cy="278.88989"
       r="7.8706303" />
    <ellipse
       style="opacity:0;fill:#ffffff;fill-opacity:1;fill-rule:nonzero;stroke:none;stroke-width:0.22699997;stroke-miterlimit:4;stroke-dasharray:none;stroke-opacity:1"
       id="path822"
       cx="17.017214"
       cy="278.87518"
       rx="3.7221348"
       ry="4.2445402" />
    <path
       sodipodi:nodetypes="ccccsccsc"
       inkscape:connector-curvature="0"
       id="path1355-8-5"
       d="m 19.620994,266.16126 c 0.01558,0.0251 0.535221,0.86284 0.694175,1.33425 0.430727,0.96558 0.246637,3.78888 0.238805,5.39748 0.02644,-0.18505 4.473865,-1.33136 6.782594,0.76747 -0.01476,-0.026 -0.04662,-0.0767 -0.119341,-0.17767 -0.06901,-0.0958 -0.174308,-0.23765 -0.354479,-0.42182 -0.503715,-0.5766 -0.22026,-0.0806 -0.768208,-0.6505 -0.473747,-0.42966 -1.496999,-1.45025 -2.735519,-2.66881 -1.183854,-1.16476 -2.562819,-2.50808 -3.738027,-3.5804 z"
       style="opacity:0.24800002;fill:#000000;fill-opacity:1;stroke:none;stroke-width:0.28614345;stroke-miterlimit:4;stroke-dasharray:none;stroke-opacity:1" />
    <path
       style="opacity:1;fill:#ffffff;fill-opacity:1;stroke:#808080;stroke-width:0.30000001;stroke-miterlimit:4;stroke-dasharray:none;stroke-opacity:1"
       d="m 19.308998,265.6626 c 0.01477,0.0238 0.507514,0.81811 0.658239,1.26509 0.40843,0.91553 0.278738,3.06938 0.271311,4.5946 0.409178,-0.0213 4.921198,-0.70296 6.989915,1.73982 -0.02793,-0.0483 -0.09803,-0.0884 -0.13713,-0.16512 -0.477638,-0.54671 -1.086946,-0.98598 -1.643914,-1.50908 -0.449221,-0.4074 -1.419501,-1.37509 -2.593906,-2.53048 -1.122567,-1.10439 -2.430145,-2.3781 -3.544515,-3.39483 z"
       id="path4753-0-6"
       inkscape:connector-curvature="0"
       sodipodi:nodetypes="ccccccsc" />
    <g
       style="stroke-width:4.08449793"
       inkscape:transform-center-y="-9.4924686"
       inkscape:transform-center-x="5.4653607"
       inkscape:label="Capa 1"
       id="layer1-4-3-2"
       transform="matrix(0.51126596,0,0,0.51245325,-269.32006,5.6156869)">
      <g
         style="stroke-width:4.08449793"
         id="layer1-3-65-9-9"
         inkscape:label="Capa 1"
         transform="translate(0.41988239,0.03484499)" />
    </g>
    <g
       style="stroke-width:4.08449793"
       inkscape:transform-center-y="-9.4924686"
       inkscape:transform-center-x="5.4653607"
       inkscape:label="Capa 1"
       id="layer1-4-1"
       transform="matrix(0.51126596,0,0,0.51245325,-269.32006,5.6395364)">
      <g
         style="stroke-width:4.08449793"
         id="layer1-3-65-2"
         inkscape:label="Capa 1"
         transform="translate(0.41988239,0.03484499)" />
    </g>
    <g
       style="stroke-width:4.08449793"
       inkscape:transform-center-y="-9.4924686"
       inkscape:transform-center-x="5.4653607"
       inkscape:label="Capa 1"
       id="layer1-4-3-0"
       transform="matrix(0.53602412,0,0,0.5372689,-272.58521,-13.7853)">
      <g
         style="stroke-width:4.08449793"
         id="layer1-3-65-9-3"
         inkscape:label="Capa 1"
         transform="translate(0.41988239,0.03484499)" />
    </g>
    <g
       style="stroke-width:4.08449793"
       inkscape:transform-center-y="-9.4924686"
       inkscape:transform-center-x="5.4653607"
       inkscape:label="Capa 1"
       id="layer1-4-9"
       transform="matrix(0.53602412,0,0,0.5372689,-272.58521,-13.760297)">
      <g
         style="stroke-width:4.08449793"
         id="layer1-3-65-8"
         inkscape:label="Capa 1"
         transform="translate(0.41988239,0.03484499)" />
    </g>
    <g
       style="stroke-width:4.08449793"
       inkscape:transform-center-y="-9.4924686"
       inkscape:transform-center-x="5.4653607"
       inkscape:label="Capa 1"
       id="layer1-4-3-2-2"
       transform="matrix(0.51126596,0,0,0.51245325,-306.97162,5.6156902)">
      <g
         style="stroke-width:4.08449793"
         id="layer1-3-65-9-9-7"
         inkscape:label="Capa 1"
         transform="translate(0.41988239,0.03484499)" />
    </g>
    <g
       style="stroke-width:4.08449793"
       inkscape:transform-center-y="-9.4924686"
       inkscape:transform-center-x="5.4653607"
       inkscape:label="Capa 1"
       id="layer1-4-1-0"
       transform="matrix(0.51126596,0,0,0.51245325,-306.97162,5.6395397)">
      <g
         style="stroke-width:4.08449793"
         id="layer1-3-65-2-3"
         inkscape:label="Capa 1"
         transform="translate(0.41988239,0.03484499)" />
    </g>
    <path
       inkscape:connector-curvature="0"
       d="m 16.916797,273.18796 c -0.337111,0 -0.674312,0.0134 -0.851109,0.0403 -1.120484,0.17015 -2.118384,0.60016 -2.964677,1.27744 -0.242192,0.19381 -0.659072,0.61079 -0.853694,0.8537 -0.64525,0.80529 -1.052447,1.74958 -1.181841,2.74298 -0.0446,0.34233 -0.0446,1.00178 0,1.34411 0.193683,1.48696 0.956828,2.7839 2.186429,3.71811 0.150109,0.11405 0.288168,0.23149 0.307475,0.26097 0.02707,0.0413 0.03392,0.0987 0.02791,0.25012 -0.007,0.17417 -0.0172,0.21487 -0.09095,0.36173 -0.08522,0.16972 -0.404378,0.61004 -0.626835,0.86506 -0.198284,0.22733 -0.17903,0.23873 0.229444,0.13643 0.514845,-0.12895 0.973728,-0.34441 1.64641,-0.7736 0.139684,-0.0891 0.273788,-0.16175 0.297656,-0.16175 0.02386,0 0.134713,0.0249 0.246496,0.0553 0.578128,0.15747 1.385745,0.23556 2.002981,0.19379 0.888905,-0.0601 1.601404,-0.24676 2.360578,-0.61805 1.177398,-0.57585 2.162506,-1.58359 2.681491,-2.74299 0.316664,-0.70737 0.467154,-1.42065 0.467154,-2.21743 0,-0.86145 -0.16855,-1.59141 -0.544153,-2.35852 -0.274899,-0.56143 -0.622564,-1.04523 -1.079521,-1.50223 -0.910466,-0.91046 -2.065097,-1.48084 -3.410643,-1.68517 -0.176797,-0.0269 -0.513485,-0.0403 -0.850596,-0.0403 z m 0.01085,2.20452 c 0.182144,0 0.229161,0.007 0.337447,0.0589 0.249264,0.11686 0.417751,0.35664 0.435634,0.6196 0.01204,0.177 -0.210519,3.73819 -0.240813,3.85351 -0.03034,0.1155 -0.14967,0.26418 -0.262517,0.3266 -0.118319,0.0654 -0.332754,0.084 -0.452687,0.0393 -0.04578,-0.0171 -0.109093,-0.0479 -0.140041,-0.0682 -0.07768,-0.0509 -0.184597,-0.20356 -0.209807,-0.29972 -0.02945,-0.11231 -0.230036,-3.28111 -0.232544,-3.67317 -0.0021,-0.31184 -5.3e-4,-0.32664 0.05943,-0.44028 0.08265,-0.15686 0.215863,-0.28581 0.368969,-0.3576 0.108289,-0.0507 0.154792,-0.0589 0.336931,-0.0589 z m 0,5.63997 v 5.2e-4 c 0.33964,0 0.645438,0.29837 0.645438,0.63046 0,0.23532 -0.155321,0.49024 -0.364318,0.59738 -0.09928,0.0509 -0.360405,0.0754 -0.459404,0.0429 -0.269327,-0.0883 -0.467154,-0.35951 -0.467154,-0.64027 0,-0.33211 0.3058,-0.63097 0.645438,-0.63097 z"
       style="fill:#000000;fill-opacity:1;stroke:none;stroke-width:0.08;stroke-miterlimit:4;stroke-dasharray:none;stroke-opacity:1;opacity:0.25"
       id="path1402" />
    <path
       id="path1247"
       style="fill:url(#linearGradient1377);fill-opacity:1;stroke:#7437a6;stroke-width:0.08;stroke-miterlimit:4;stroke-dasharray:none;stroke-opacity:1"
       d="m 16.916797,272.93352 c -0.337111,0 -0.674312,0.0134 -0.851109,0.0403 -1.120484,0.17015 -2.118384,0.60016 -2.964677,1.27744 -0.242192,0.19381 -0.659072,0.61079 -0.853694,0.8537 -0.64525,0.80529 -1.052447,1.74958 -1.181841,2.74298 -0.0446,0.34233 -0.0446,1.00178 0,1.34411 0.193683,1.48696 0.956828,2.7839 2.186429,3.71811 0.150109,0.11405 0.288168,0.23149 0.307475,0.26097 0.02707,0.0413 0.03392,0.0987 0.02791,0.25012 -0.007,0.17417 -0.0172,0.21487 -0.09095,0.36173 -0.08522,0.16972 -0.404378,0.61004 -0.626835,0.86506 -0.198284,0.22733 -0.17903,0.23873 0.229444,0.13643 0.514845,-0.12895 0.973728,-0.34441 1.64641,-0.7736 0.139684,-0.0891 0.273788,-0.16175 0.297656,-0.16175 0.02386,0 0.134713,0.0249 0.246496,0.0553 0.578128,0.15747 1.385745,0.23556 2.002981,0.19379 0.888905,-0.0601 1.601404,-0.24676 2.360578,-0.61805 1.177398,-0.57585 2.162506,-1.58359 2.681491,-2.74299 0.316664,-0.70737 0.467154,-1.42065 0.467154,-2.21743 0,-0.86145 -0.16855,-1.59141 -0.544153,-2.35852 -0.274899,-0.56143 -0.622564,-1.04523 -1.079521,-1.50223 -0.910466,-0.91046 -2.065097,-1.48084 -3.410643,-1.68517 -0.176797,-0.0269 -0.513485,-0.0403 -0.850596,-0.0403 z m 0.01085,2.20452 c 0.182144,0 0.229161,0.007 0.337447,0.0589 0.249264,0.11686 0.417751,0.35664 0.435634,0.6196 0.01204,0.177 -0.210519,3.73819 -0.240813,3.85351 -0.03034,0.1155 -0.14967,0.26418 -0.262517,0.3266 -0.118319,0.0654 -0.332754,0.084 -0.452687,0.0393 -0.04578,-0.0171 -0.109093,-0.0479 -0.140041,-0.0682 -0.07768,-0.0509 -0.184597,-0.20356 -0.209807,-0.29972 -0.02945,-0.11231 -0.230036,-3.28111 -0.232544,-3.67317 -0.0021,-0.31184 -5.3e-4,-0.32664 0.05943,-0.44028 0.08265,-0.15686 0.215863,-0.28581 0.368969,-0.3576 0.108289,-0.0507 0.154792,-0.0589 0.336931,-0.0589 z m 0,5.63997 v 5.2e-4 c 0.33964,0 0.645438,0.29837 0.645438,0.63046 0,0.23532 -0.155321,0.49024 -0.364318,0.59738 -0.09928,0.0509 -0.360405,0.0754 -0.459404,0.0429 -0.269327,-0.0883 -0.467154,-0.35951 -0.467154,-0.64027 0,-0.33211 0.3058,-0.63097 0.645438,-0.63097 z"
       inkscape:connector-curvature="0" />
    <g
       style="stroke-width:4.08449793"
       inkscape:transform-center-y="-9.4924686"
       inkscape:transform-center-x="5.4653607"
       inkscape:label="Capa 1"
       id="layer1-4-3-3"
       transform="matrix(0.53602412,0,0,0.5372689,-187.08878,-13.7853)">
      <g
         style="stroke-width:4.08449793"
         id="layer1-3-65-9-90"
         inkscape:label="Capa 1"
         transform="translate(0.41988239,0.03484499)" />
    </g>
    <g
       style="stroke-width:4.08449793"
       inkscape:transform-center-y="-9.4924686"
       inkscape:transform-center-x="5.4653607"
       inkscape:label="Capa 1"
       id="layer1-4-5"
       transform="matrix(0.53602412,0,0,0.5372689,-187.08878,-13.760297)">
      <g
         style="stroke-width:4.08449793"
         id="layer1-3-65-22"
         inkscape:label="Capa 1"
         transform="translate(0.41988239,0.03484499)" />
    </g>
    <g
       style="stroke-width:4.08449793"
       inkscape:transform-center-y="-9.4924686"
       inkscape:transform-center-x="5.4653607"
       inkscape:label="Capa 1"
       id="layer1-4-3-2-0"
       transform="matrix(0.51126596,0,0,0.51245325,-221.47519,5.6156902)">
      <g
         style="stroke-width:4.08449793"
         id="layer1-3-65-9-9-2"
         inkscape:label="Capa 1"
         transform="translate(0.41988239,0.03484499)" />
    </g>
    <g
       style="stroke-width:4.08449793"
       inkscape:transform-center-y="-9.4924686"
       inkscape:transform-center-x="5.4653607"
       inkscape:label="Capa 1"
       id="layer1-4-1-3"
       transform="matrix(0.51126596,0,0,0.51245325,-221.47519,5.6395397)">
      <g
         style="stroke-width:4.08449793"
         id="layer1-3-65-2-9"
         inkscape:label="Capa 1"
         transform="translate(0.41988239,0.03484499)" />
    </g>
    <g
       aria-label="INFO"
       style="font-style:normal;font-weight:normal;font-size:4.60694408px;line-height:1.25;font-family:sans-serif;letter-spacing:0px;word-spacing:0px;fill:#575757;fill-opacity:1;stroke:none;stroke-width:0.26458329"
       id="text1198">
      <path
         d="m 11.304607,293.70905 v -3.44165 h 0.716236 v 3.44165 z"
         style="font-style:normal;font-variant:normal;font-weight:600;font-stretch:normal;font-size:4.76249981px;font-family:'Lucida Grande';-inkscape-font-specification:'Lucida Grande Semi-Bold';fill:#575757;fill-opacity:1;stroke-width:0.26458329"
         id="path1992"
         inkscape:connector-curvature="0" />
      <path
         d="M 12.885906,293.70905 V 290.2674 H 13.5161 l 1.595252,2.35101 v -2.35101 h 0.574383 v 3.44165 h -0.641821 l -1.583624,-2.35102 v 2.35102 z"
         style="font-style:normal;font-variant:normal;font-weight:600;font-stretch:normal;font-size:4.76249981px;font-family:'Lucida Grande';-inkscape-font-specification:'Lucida Grande Semi-Bold';fill:#575757;fill-opacity:1;stroke-width:0.26458329"
         id="path1994"
         inkscape:connector-curvature="0" />
      <path
         d="m 16.550798,293.70905 v -3.44165 h 2.164984 v 0.47206 h -1.448748 v 1.04645 h 1.190625 v 0.47439 h -1.190625 v 1.44875 z"
         style="font-style:normal;font-variant:normal;font-weight:600;font-stretch:normal;font-size:4.76249981px;font-family:'Lucida Grande';-inkscape-font-specification:'Lucida Grande Semi-Bold';fill:#575757;fill-opacity:1;stroke-width:0.26458329"
         id="path1996"
         inkscape:connector-curvature="0" />
      <path
         d="m 20.794725,293.79509 q -0.783673,0 -1.253411,-0.493 -0.469739,-0.49299 -0.469739,-1.31387 0,-0.83018 0.472064,-1.31852 0.472064,-0.48835 1.274341,-0.48835 0.797626,0 1.26969,0.48835 0.474389,0.48834 0.474389,1.31154 0,0.84181 -0.474389,1.32783 -0.472064,0.48602 -1.292945,0.48602 z m 0.0093,-0.47439 q 0.460437,0 0.727863,-0.36045 0.269751,-0.36276 0.269751,-0.98133 0,-0.59996 -0.269751,-0.96273 -0.269751,-0.36277 -0.71391,-0.36277 -0.44881,0 -0.718561,0.36277 -0.267425,0.36277 -0.267425,0.9697 0,0.60229 0.267425,0.96971 0.267426,0.3651 0.704608,0.3651 z"
         style="font-style:normal;font-variant:normal;font-weight:600;font-stretch:normal;font-size:4.76249981px;font-family:'Lucida Grande';-inkscape-font-specification:'Lucida Grande Semi-Bold';fill:#575757;fill-opacity:1;stroke-width:0.26458329"
         id="path1998"
         inkscape:connector-curvature="0" />
    </g>
  </g>
</svg>
