<?xml version="1.0" encoding="UTF-8" standalone="no"?>
<!-- Created with Inkscape (http://www.inkscape.org/) -->

<svg
   xmlns:osb="http://www.openswatchbook.org/uri/2009/osb"
   xmlns:dc="http://purl.org/dc/elements/1.1/"
   xmlns:cc="http://creativecommons.org/ns#"
   xmlns:rdf="http://www.w3.org/1999/02/22-rdf-syntax-ns#"
   xmlns:svg="http://www.w3.org/2000/svg"
   xmlns="http://www.w3.org/2000/svg"
   xmlns:xlink="http://www.w3.org/1999/xlink"
   xmlns:sodipodi="http://sodipodi.sourceforge.net/DTD/sodipodi-0.dtd"
   xmlns:inkscape="http://www.inkscape.org/namespaces/inkscape"
   width="128"
   height="128"
   viewBox="0 0 33.866666 33.866668"
   version="1.1"
   id="svg8"
   inkscape:version="0.92.2 5c3e80d, 2017-08-06"
   sodipodi:docname="application-text copy.svg">
  <defs
     id="defs2">
    <linearGradient
       id="linearGradient1830">
      <stop
         id="stop1826"
         style="stop-color:#d9d9d9;stop-opacity:1"
         offset="0" />
      <stop
         id="stop1828"
         style="stop-color:#ffffff;stop-opacity:1;"
         offset="1" />
    </linearGradient>
    <linearGradient
       osb:paint="solid"
       id="linearGradient6987">
      <stop
         id="stop6985"
         offset="0"
         style="stop-color:#77d2fb;stop-opacity:1;" />
    </linearGradient>
    <linearGradient
       inkscape:collect="always"
       xlink:href="#linearGradient1830"
       id="linearGradient1503-8"
       x1="29.203474"
       y1="263.52237"
       x2="4.5843229"
       y2="296.16849"
       gradientUnits="userSpaceOnUse"
       gradientTransform="matrix(0.95460369,0,0,0.95459377,0.76871118,12.720171)" />
  </defs>
  <sodipodi:namedview
     id="base"
     pagecolor="#ffffff"
     bordercolor="#666666"
     borderopacity="1.0"
     inkscape:pageopacity="0.0"
     inkscape:pageshadow="2"
     inkscape:zoom="3.0900001"
     inkscape:cx="-24.106675"
     inkscape:cy="20.356527"
     inkscape:document-units="mm"
     inkscape:current-layer="layer1"
     showgrid="false"
     units="px"
     inkscape:window-width="1600"
     inkscape:window-height="811"
     inkscape:window-x="0"
     inkscape:window-y="0"
     inkscape:window-maximized="1"
     showguides="false" />
  <metadata
     id="metadata5">
    <rdf:RDF>
      <cc:Work
         rdf:about="">
        <dc:format>image/svg+xml</dc:format>
        <dc:type
           rdf:resource="http://purl.org/dc/dcmitype/StillImage" />
        <dc:title />
      </cc:Work>
    </rdf:RDF>
  </metadata>
  <g
     inkscape:label="Layer 1"
     inkscape:groupmode="layer"
     id="layer1"
     transform="translate(0,-263.13332)">
    <path
       style="opacity:0.25;fill:#000000;fill-opacity:1;stroke:none;stroke-width:1.78800678;stroke-miterlimit:4;stroke-dasharray:none;stroke-opacity:1"
       d="m 5.1449222,264.84252 v 31.09913 H 28.721744 v -17.45094 c -0.04497,-0.79273 -0.09694,-1.50223 -0.297998,-2.22157 -0.204528,-0.73176 -0.526836,-1.42463 -0.912037,-2.08767 -0.49289,-0.84843 -1.325843,-1.39546 -2.066145,-2.09077 -0.449129,-0.40729 -1.419162,-1.3748 -2.593307,-2.52995 -1.164537,-1.14569 -2.530346,-2.47643 -3.670584,-3.51027 -0.336775,-0.30392 -0.825977,-0.61931 -1.280471,-0.80146 -0.352917,-0.14143 -0.7681,-0.22946 -1.168956,-0.28862 -0.413339,-0.061 -0.811446,-0.0914 -1.110361,-0.11788 z"
       id="path5023-4"
       inkscape:connector-curvature="0"
       sodipodi:nodetypes="ccccascscsscc" />
    <path
       sodipodi:nodetypes="ccccascscsscc"
       inkscape:connector-curvature="0"
       id="path4623-8"
       d="m 5.1449222,264.34162 v 31.09913 H 28.721744 v -17.45094 c -0.04497,-0.79273 -0.09694,-1.50224 -0.297998,-2.22158 -0.204528,-0.73176 -0.526836,-1.42463 -0.912037,-2.08767 -0.49289,-0.84842 -1.325843,-1.39545 -2.066145,-2.09076 -0.449129,-0.4073 -1.419162,-1.37481 -2.593307,-2.52996 -1.164537,-1.14567 -2.530346,-2.47643 -3.670584,-3.51027 -0.336775,-0.30392 -0.825977,-0.61932 -1.280471,-0.80145 -0.352917,-0.14143 -0.7681,-0.22947 -1.168956,-0.28862 -0.413339,-0.0611 -0.811446,-0.0914 -1.110361,-0.11788 z"
       style="opacity:1;fill:url(#linearGradient1503-8);fill-opacity:1;stroke:#808080;stroke-width:0.29993463;stroke-miterlimit:4;stroke-dasharray:none;stroke-opacity:1" />
    <path
       sodipodi:nodetypes="ccccsccsc"
       inkscape:connector-curvature="0"
       id="path1355-8"
       d="m 19.620408,266.16429 c 0.01558,0.0251 0.535105,0.86266 0.694024,1.33396 0.430633,0.96537 0.246583,3.78806 0.238753,5.39631 0.02643,-0.18501 4.47289,-1.33107 6.781116,0.7673 -0.01476,-0.026 -0.04661,-0.0767 -0.119315,-0.17763 -0.069,-0.0958 -0.17427,-0.2376 -0.354402,-0.42173 -0.503605,-0.57647 -0.220212,-0.0806 -0.76804,-0.65036 -0.473644,-0.42956 -1.496673,-1.44993 -2.734923,-2.66823 -1.183596,-1.1645 -2.562261,-2.50753 -3.737213,-3.57962 z"
       style="opacity:0.24800002;fill:#000000;fill-opacity:1;stroke:none;stroke-width:0.28608111;stroke-miterlimit:4;stroke-dasharray:none;stroke-opacity:1" />
    <path
       style="opacity:1;fill:#ffffff;fill-opacity:1;stroke:#808080;stroke-width:0.29993463;stroke-miterlimit:4;stroke-dasharray:none;stroke-opacity:1"
       d="m 19.30848,265.66574 c 0.01477,0.0238 0.507404,0.81793 0.658096,1.26482 0.408341,0.91533 0.278677,3.06871 0.271252,4.5936 0.409088,-0.0213 4.920125,-0.70281 6.988391,1.73944 -0.02792,-0.0483 -0.09801,-0.0884 -0.1371,-0.16509 -0.477534,-0.54659 -1.086709,-0.98576 -1.643555,-1.50875 -0.449124,-0.40731 -1.419192,-1.37479 -2.593341,-2.52993 -1.122323,-1.10415 -2.429616,-2.37758 -3.543743,-3.39409 z"
       id="path4753-0"
       inkscape:connector-curvature="0"
       sodipodi:nodetypes="ccccccsc" />
    <g
       style="stroke-width:4.08449793"
       inkscape:transform-center-y="-9.4924686"
       inkscape:transform-center-x="5.4653607"
       inkscape:label="Capa 1"
       id="layer1-4-3"
       transform="matrix(0.51115455,0,0,0.51234158,-223.24794,-0.14817713)">
      <g
         style="stroke-width:4.08449793"
         id="layer1-3-65-9"
         inkscape:label="Capa 1"
         transform="translate(0.41988239,0.03484499)" />
    </g>
    <g
       style="stroke-width:4.08449793"
       inkscape:transform-center-y="-9.4924686"
       inkscape:transform-center-x="5.4653607"
       inkscape:label="Capa 1"
       id="layer1-4"
       transform="matrix(0.51115455,0,0,0.51234158,-223.24794,-0.12433418)">
      <g
         style="stroke-width:4.08449793"
         id="layer1-3-65"
         inkscape:label="Capa 1"
         transform="translate(0.41988239,0.03484499)" />
    </g>
    <g
       aria-label="Coffee Script"
       style="font-style:normal;font-weight:normal;font-size:4.89286137px;line-height:1.25;font-family:sans-serif;letter-spacing:0px;word-spacing:0px;fill:#2a314d;fill-opacity:1;stroke:none;stroke-width:0.26458332"
       id="text2838"
       transform="translate(5.5e-7,-0.52916667)">
      <path
         d="m 8.8426709,289.55834 v 0.1553 q -0.4013675,0.44676 -0.7382295,0.73584 -0.334473,0.29147 -0.6546114,0.44676 -0.3201384,0.15768 -0.6187749,0.15768 -0.258022,0 -0.4443712,-0.10273 -0.1839601,-0.10274 -0.2795238,-0.30103 -0.093175,-0.19591 -0.093175,-0.46587 0,-0.21263 0.066894,-0.44915 0.069284,-0.23891 0.1982947,-0.48021 0.129011,-0.24369 0.3153602,-0.50171 0.1887383,-0.25802 0.4419821,-0.54232 0.2628002,-0.29386 0.5184331,-0.50649 0.2556329,-0.21502 0.4634839,-0.33686 0.2078511,-0.12185 0.3846439,-0.18157 0.179182,-0.0597 0.2962475,-0.0597 0.1194546,0 0.2030728,0.0573 0.083618,0.0573 0.129011,0.16723 0.045393,0.1099 0.045393,0.25325 0,0.26996 -0.1839601,0.60205 -0.1839601,0.32969 -0.4587058,0.63789 -0.2747456,0.30819 -0.5256003,0.50409 -0.2484656,0.19352 -0.3583639,0.19352 -0.074062,0 -0.1385674,-0.0573 -0.062116,-0.0597 -0.062116,-0.13379 0,-0.13617 0.1433456,-0.32969 0.1457346,-0.19352 0.3153602,-0.35359 0.1720147,-0.16246 0.2054619,-0.16246 0.016724,0 0.016724,0.0143 0,0.0215 -0.02628,0.0741 -0.023891,0.0526 -0.023891,0.0645 0,0.0191 0.014334,0.0191 0.040615,0 0.2341311,-0.21741 0.1935165,-0.21741 0.3535857,-0.47782 0.1624582,-0.2628 0.1624582,-0.43003 0,-0.0693 -0.031058,-0.10512 -0.028669,-0.0382 -0.088396,-0.0382 -0.1672365,0 -0.5088767,0.27236 -0.3392511,0.26997 -0.697615,0.69045 -0.3559748,0.41809 -0.594884,0.86485 -0.2389092,0.44676 -0.2389092,0.78601 0,0.1959 0.057338,0.3273 0.059727,0.1314 0.1720146,0.20308 0.1146765,0.0717 0.2747457,0.0717 0.3464184,0 0.7860114,-0.26997 0.439593,-0.26997 0.9675824,-0.79557 z"
         style="font-style:normal;font-variant:normal;font-weight:normal;font-stretch:normal;font-family:'Brush Script MT';-inkscape-font-specification:'Brush Script MT';fill:#2a314d;fill-opacity:1;stroke-width:0.26458332"
         id="path3272"
         inkscape:connector-curvature="0" />
      <path
         d="m 10.354966,289.56312 v 0.16007 q -0.15768,0.14335 -0.253243,0.19113 -0.09556,0.0478 -0.274746,0.0382 -0.310582,0.36793 -0.5471021,0.36793 -0.1337892,0 -0.2436875,-0.0884 -0.1098982,-0.0884 -0.1767928,-0.2413 -0.064505,-0.1529 -0.064505,-0.34164 0,-0.1529 0.1003419,-0.33925 0.1027309,-0.18635 0.2628001,-0.34642 0.1624583,-0.16246 0.3464184,-0.26041 0.1839602,-0.10034 0.3416403,-0.10034 0.1122873,0 0.1767927,0.0358 0.06451,0.0335 0.06451,0.0956 0,0.0478 -0.05495,0.1099 0.09079,0.0191 0.124234,0.0645 0.03345,0.043 0.03345,0.16007 0,0.11468 -0.05495,0.28908 -0.05256,0.1744 -0.1457352,0.32731 l 0.043004,0.043 h 0.03584 q 0.04062,0 0.07884,-0.0191 0.04062,-0.0215 0.07167,-0.043 0.03106,-0.0239 0.136178,-0.10273 z m -0.4921526,-0.62833 q -0.1982947,0.11946 -0.3392511,0.21741 -0.1409565,0.0956 -0.2389093,0.1959 -0.097953,0.098 -0.1314,0.1983 -0.059727,0.26758 -0.059727,0.28908 0,0.15768 0.2197966,0.15768 0.1027309,0 0.3440293,-0.17679 -0.040615,-0.11229 -0.040615,-0.21502 0,-0.15051 0.062116,-0.30581 0.062116,-0.15768 0.1839605,-0.36075 z"
         style="font-style:normal;font-variant:normal;font-weight:normal;font-stretch:normal;font-family:'Brush Script MT';-inkscape-font-specification:'Brush Script MT';fill:#2a314d;fill-opacity:1;stroke-width:0.26458332"
         id="path3274"
         inkscape:connector-curvature="0" />
      <path
         d="m 11.678524,289.5679 v 0.16485 q -0.143346,0.14334 -0.217408,0.20785 -0.07406,0.0645 -0.203073,0.1314 0,0.21741 -0.0215,0.37031 -0.0215,0.1529 -0.09556,0.32014 -0.07406,0.16962 -0.229353,0.37031 -0.152902,0.19829 -0.301026,0.30341 -0.148123,0.10751 -0.231742,0.10751 -0.09317,0 -0.172014,-0.1529 -0.07884,-0.1529 -0.07884,-0.37987 0,-0.2174 0.07406,-0.4587 0.07406,-0.2413 0.229353,-0.62356 -0.117065,-0.1529 -0.117065,-0.30341 0,-0.12184 0.06212,-0.18635 0.06212,-0.0645 0.176793,-0.11707 0.08362,-0.1314 0.15768,-0.22218 0.07645,-0.0932 0.205462,-0.24608 0.248466,-0.61161 0.582939,-1.19454 0.09317,-0.16246 0.133789,-0.21741 0.04061,-0.0573 0.08601,-0.0573 0.04062,0 0.07167,0.0597 0.03106,0.0597 0.03106,0.15529 0,0.11706 -0.02628,0.21502 -0.02389,0.098 -0.07167,0.19829 -0.04539,0.0979 -0.129011,0.23652 -0.08123,0.13857 -0.100341,0.17202 -0.119455,0.21024 -0.269968,0.46587 -0.150513,0.25563 -0.238909,0.40376 -0.08601,0.14812 -0.124233,0.22218 0.129011,0.11229 0.203073,0.19352 0.07645,0.0812 0.1314,0.19351 0.08123,-0.0311 0.148124,-0.0741 0.06689,-0.043 0.15768,-0.11706 0.09079,-0.0765 0.176793,-0.14096 z m -0.714339,0.64028 -0.0048,-0.0502 q -0.0669,0.007 -0.107509,0.005 -0.04062,-0.005 -0.09556,-0.0215 -0.05256,-0.0167 -0.08362,-0.0311 -0.02867,-0.0143 -0.06451,-0.0287 -0.181571,0.44437 -0.181571,0.73823 0,0.14573 0.043,0.24846 0.04539,0.10273 0.10512,0.10273 0.06212,0 0.155291,-0.1099 0.09556,-0.10989 0.164847,-0.32491 0.06928,-0.21502 0.06928,-0.52799 z"
         style="font-style:normal;font-variant:normal;font-weight:normal;font-stretch:normal;font-family:'Brush Script MT';-inkscape-font-specification:'Brush Script MT';fill:#2a314d;fill-opacity:1;stroke-width:0.26458332"
         id="path3276"
         inkscape:connector-curvature="0" />
      <path
         d="m 13.006859,289.5679 v 0.16485 q -0.143346,0.14334 -0.217407,0.20785 -0.07406,0.0645 -0.203073,0.1314 0,0.21741 -0.0215,0.37031 -0.0215,0.1529 -0.09556,0.32014 -0.07406,0.16962 -0.229353,0.37031 -0.152902,0.19829 -0.301025,0.30341 -0.148124,0.10751 -0.231742,0.10751 -0.09318,0 -0.172015,-0.1529 -0.07884,-0.1529 -0.07884,-0.37987 0,-0.2174 0.07406,-0.4587 0.07406,-0.2413 0.229353,-0.62356 -0.117066,-0.1529 -0.117066,-0.30341 0,-0.12184 0.06212,-0.18635 0.06212,-0.0645 0.176792,-0.11707 0.08362,-0.1314 0.15768,-0.22218 0.07645,-0.0932 0.205462,-0.24608 0.248466,-0.61161 0.582939,-1.19454 0.09318,-0.16246 0.133789,-0.21741 0.04062,-0.0573 0.08601,-0.0573 0.04062,0 0.07167,0.0597 0.03106,0.0597 0.03106,0.15529 0,0.11706 -0.02628,0.21502 -0.02389,0.098 -0.07167,0.19829 -0.04539,0.0979 -0.129011,0.23652 -0.08123,0.13857 -0.100342,0.17202 -0.119455,0.21024 -0.269968,0.46587 -0.150512,0.25563 -0.238909,0.40376 -0.08601,0.14812 -0.124233,0.22218 0.129011,0.11229 0.203073,0.19352 0.07645,0.0812 0.1314,0.19351 0.08123,-0.0311 0.148124,-0.0741 0.0669,-0.043 0.15768,-0.11706 0.09079,-0.0765 0.176793,-0.14096 z m -0.714339,0.64028 -0.0048,-0.0502 q -0.0669,0.007 -0.107509,0.005 -0.04061,-0.005 -0.09556,-0.0215 -0.05256,-0.0167 -0.08362,-0.0311 -0.02867,-0.0143 -0.06451,-0.0287 -0.181571,0.44437 -0.181571,0.73823 0,0.14573 0.043,0.24846 0.04539,0.10273 0.10512,0.10273 0.06212,0 0.155291,-0.1099 0.09556,-0.10989 0.164848,-0.32491 0.06928,-0.21502 0.06928,-0.52799 z"
         style="font-style:normal;font-variant:normal;font-weight:normal;font-stretch:normal;font-family:'Brush Script MT';-inkscape-font-specification:'Brush Script MT';fill:#2a314d;fill-opacity:1;stroke-width:0.26458332"
         id="path3278"
         inkscape:connector-curvature="0" />
      <path
         d="m 13.31983,289.65391 v 0.0597 q 0,0.14095 0.06928,0.21979 0.06928,0.0788 0.181571,0.0788 0.117065,0 0.241298,-0.055 0.126622,-0.0549 0.250855,-0.14573 0.124233,-0.0908 0.303414,-0.24369 v 0.14574 q -0.269967,0.32491 -0.506487,0.49932 -0.23652,0.17201 -0.480208,0.17201 -0.212629,0 -0.336862,-0.16485 -0.124233,-0.16484 -0.124233,-0.45154 0,-0.25085 0.117066,-0.45392 0.117065,-0.20546 0.382255,-0.43243 0.181571,-0.15529 0.360753,-0.23413 0.179182,-0.0788 0.320138,-0.0788 0.112287,0 0.176793,0.0526 0.06689,0.0502 0.06689,0.1529 0,0.15052 -0.112288,0.30103 -0.112287,0.14812 -0.344029,0.29625 -0.229353,0.14573 -0.566215,0.28191 z m 0.02389,-0.15529 q 0.215018,-0.0836 0.36792,-0.20785 0.152902,-0.12424 0.224575,-0.23652 0.07406,-0.11468 0.07406,-0.16724 0,-0.0549 -0.05017,-0.0549 -0.043,0 -0.140957,0.0549 -0.09556,0.055 -0.195905,0.14335 -0.09795,0.0884 -0.176793,0.20785 -0.07884,0.11945 -0.102731,0.26041 z"
         style="font-style:normal;font-variant:normal;font-weight:normal;font-stretch:normal;font-family:'Brush Script MT';-inkscape-font-specification:'Brush Script MT';fill:#2a314d;fill-opacity:1;stroke-width:0.26458332"
         id="path3280"
         inkscape:connector-curvature="0" />
      <path
         d="m 14.753285,289.65391 v 0.0597 q 0,0.14095 0.06928,0.21979 0.06928,0.0788 0.181571,0.0788 0.117066,0 0.241298,-0.055 0.126622,-0.0549 0.250855,-0.14573 0.124233,-0.0908 0.303415,-0.24369 v 0.14574 q -0.269968,0.32491 -0.506488,0.49932 -0.23652,0.17201 -0.480207,0.17201 -0.212629,0 -0.336862,-0.16485 -0.124233,-0.16484 -0.124233,-0.45154 0,-0.25085 0.117065,-0.45392 0.117066,-0.20546 0.382255,-0.43243 0.181571,-0.15529 0.360753,-0.23413 0.179182,-0.0788 0.320139,-0.0788 0.112287,0 0.176792,0.0526 0.0669,0.0502 0.0669,0.1529 0,0.15052 -0.112287,0.30103 -0.112288,0.14812 -0.34403,0.29625 -0.229353,0.14573 -0.566215,0.28191 z m 0.02389,-0.15529 q 0.215019,-0.0836 0.367921,-0.20785 0.152902,-0.12424 0.224574,-0.23652 0.07406,-0.11468 0.07406,-0.16724 0,-0.0549 -0.05017,-0.0549 -0.043,0 -0.140956,0.0549 -0.09556,0.055 -0.195906,0.14335 -0.09795,0.0884 -0.176793,0.20785 -0.07884,0.11945 -0.10273,0.26041 z"
         style="font-style:normal;font-variant:normal;font-weight:normal;font-stretch:normal;font-family:'Brush Script MT';-inkscape-font-specification:'Brush Script MT';fill:#2a314d;fill-opacity:1;stroke-width:0.26458332"
         id="path3282"
         inkscape:connector-curvature="0" />
      <path
         d="m 19.653315,289.63002 q -0.05973,-0.1099 -0.179182,-0.1983 -0.119455,-0.0884 -0.269968,-0.14095 -0.148124,-0.055 -0.310582,-0.0812 -0.482597,-0.0717 -0.900688,-0.31297 -0.03584,-0.0191 -0.07645,-0.0812 -0.04061,-0.0621 -0.04061,-0.11946 0,-0.21024 0.06928,-0.42048 0.07167,-0.21263 0.181571,-0.33208 0.176793,-0.1983 0.635499,-0.34642 0.461095,-0.14812 1.036866,-0.14812 0.344029,0 0.530379,0.0526 0.188738,0.0526 0.188738,0.16245 0,0.17919 -0.05017,0.27714 -0.04778,0.098 -0.10512,0.1314 -0.05495,0.0311 -0.195906,0.086 -0.150512,0.0526 -0.2628,0.10989 -0.109898,0.0573 -0.188738,0.1099 -0.07884,0.0526 -0.09795,0.0526 -0.02389,0 -0.02389,-0.0191 0,-0.0406 0.08362,-0.12184 0.08601,-0.0836 0.210241,-0.14574 0.1314,-0.0693 0.1314,-0.0884 0,-0.0311 -0.145735,-0.0311 -0.441982,0 -0.81707,0.0788 -0.375087,0.0788 -0.592495,0.20785 -0.215018,0.12901 -0.215018,0.2628 0,0.0836 0.0884,0.11945 0.09079,0.0335 0.396589,0.11468 0.305804,0.0812 0.547102,0.18635 0.346418,0.14812 0.513655,0.30819 0.167236,0.16007 0.167236,0.35837 0,0.13617 -0.06689,0.27474 -0.06451,0.13618 -0.191128,0.25086 -0.126621,0.11467 -0.291469,0.18873 -0.140956,0.0597 -0.355975,0.11229 -0.212629,0.0526 -0.463484,0.0812 -0.248465,0.0311 -0.475429,0.0311 -0.418091,0 -0.673724,-0.0788 -0.253244,-0.0788 -0.253244,-0.23891 0,-0.0717 0.08601,-0.22219 0.08601,-0.1529 0.203072,-0.20546 0.102731,-0.0406 0.198295,-0.0454 0.09556,-0.007 0.09556,0.0215 0,0.007 -0.0072,0.0143 -0.0072,0.007 -0.01672,0.0119 -0.0096,0.005 -0.01911,0.01 -0.04778,0.0191 -0.07884,0.0311 -0.02867,0.01 -0.04778,0.0215 -0.01672,0.01 -0.01672,0.0287 0,0.0502 0.494542,0.0502 0.430036,0 0.704782,-0.0311 0.274746,-0.0311 0.484986,-0.11229 0.21024,-0.0812 0.382255,-0.22457 z"
         style="font-style:normal;font-variant:normal;font-weight:normal;font-stretch:normal;font-family:'Brush Script MT';-inkscape-font-specification:'Brush Script MT';fill:#2a314d;fill-opacity:1;stroke-width:0.26458332"
         id="path3284"
         inkscape:connector-curvature="0" />
      <path
         d="m 21.781996,289.57268 v 0.16007 q -0.255633,0.25085 -0.418091,0.38942 -0.160069,0.13857 -0.301026,0.21502 -0.138567,0.0764 -0.272356,0.0764 -0.131401,0 -0.241299,-0.10273 -0.109898,-0.10512 -0.172014,-0.27236 -0.06212,-0.16962 -0.06212,-0.35836 0,-0.16246 0.07167,-0.28908 0.07167,-0.12662 0.277135,-0.32731 0.243687,-0.23891 0.451538,-0.36792 0.21024,-0.1314 0.329695,-0.1314 0.08601,0 0.145734,0.0597 0.05973,0.0597 0.05973,0.15051 0,0.0765 -0.07884,0.21741 -0.07884,0.14096 -0.176793,0.24608 -0.09795,0.10273 -0.155291,0.10273 -0.06212,0 -0.06212,-0.0669 0.0024,-0.0191 0.0024,-0.0358 0.0024,-0.0167 0.0024,-0.0334 0,-0.0287 -0.0215,-0.0311 -0.01911,-0.005 -0.04778,0.0167 -0.238909,0.16724 -0.327306,0.23652 -0.0884,0.0669 -0.140956,0.13618 -0.05017,0.0693 -0.05017,0.14574 0,0.14095 0.09079,0.22935 0.09079,0.0884 0.236521,0.0884 0.150512,0 0.360753,-0.11468 0.212629,-0.11707 0.49932,-0.33925 z"
         style="font-style:normal;font-variant:normal;font-weight:normal;font-stretch:normal;font-family:'Brush Script MT';-inkscape-font-specification:'Brush Script MT';fill:#2a314d;fill-opacity:1;stroke-width:0.26458332"
         id="path3286"
         inkscape:connector-curvature="0" />
      <path
         d="m 21.753327,289.75186 v -0.15529 q 0.129011,-0.1529 0.195905,-0.26041 -0.07645,-0.0263 -0.112287,-0.0645 -0.03345,-0.0382 -0.03345,-0.11467 0,-0.086 0.07167,-0.21741 0.07167,-0.1314 0.176793,-0.24608 0.10512,-0.11467 0.191128,-0.14812 0.03345,-0.0167 0.06451,-0.0167 0.04778,0 0.04778,0.0454 0,0.0406 -0.07406,0.16485 0.492153,-0.0765 0.621164,-0.0765 0.05017,0 0.06928,0.01 0.04061,0.0215 0.06689,0.10034 0.02628,0.0788 0.02628,0.15768 0,0.0502 -0.04539,0.1099 -0.043,0.0573 -0.150513,0.16963 -0.126622,0.13618 -0.212629,0.29624 -0.08601,0.16007 -0.08601,0.2413 0,0.11229 0.138568,0.11229 0.145734,0 0.506487,-0.29625 v 0.16007 q -0.198294,0.20785 -0.327305,0.32731 -0.129011,0.11945 -0.23891,0.19113 -0.109898,0.0693 -0.195905,0.0693 -0.100342,0 -0.167237,-0.0908 -0.06689,-0.0932 -0.06689,-0.26758 0,-0.10273 0.05256,-0.23413 0.05256,-0.1314 0.152902,-0.2843 0.102731,-0.15529 0.229353,-0.30819 -0.0669,0.0143 -0.150513,0.0311 -0.08362,0.0143 -0.176793,0.0311 -0.09318,0.0167 -0.143346,0.0263 -0.148123,0.29624 -0.430036,0.53754 z"
         style="font-style:normal;font-variant:normal;font-weight:normal;font-stretch:normal;font-family:'Brush Script MT';-inkscape-font-specification:'Brush Script MT';fill:#2a314d;fill-opacity:1;stroke-width:0.26458332"
         id="path3288"
         inkscape:connector-curvature="0" />
      <path
         d="m 24.1902,288.49998 q -0.05973,0 -0.114676,-0.0454 -0.05256,-0.0454 -0.05256,-0.11467 0,-0.10512 0.100342,-0.23413 0.100341,-0.12901 0.207851,-0.12901 0.07167,0 0.119454,0.0454 0.04778,0.043 0.04778,0.12662 0,0.10273 -0.09795,0.22696 -0.09795,0.12424 -0.21024,0.12424 z m 0.162458,1.06792 v 0.1744 q -0.231742,0.29864 -0.432425,0.45154 -0.200684,0.15052 -0.341641,0.15052 -0.195905,0 -0.291469,-0.20547 -0.09556,-0.20546 -0.09556,-0.44915 0,-0.0932 0.01911,-0.17679 0.01911,-0.086 0.04539,-0.14095 0.02628,-0.055 0.09795,-0.17202 0.339251,-0.52799 0.621164,-0.52799 0.145734,0 0.145734,0.11229 0,0.0764 -0.09556,0.23891 -0.09317,0.16246 -0.167237,0.23174 -0.207851,0.20068 -0.272356,0.27952 -0.06212,0.0788 -0.06212,0.17919 0,0.086 0.06451,0.14334 0.0645,0.0573 0.167236,0.0573 0.112288,0 0.246077,-0.0812 0.136178,-0.0836 0.351196,-0.26519 z"
         style="font-style:normal;font-variant:normal;font-weight:normal;font-stretch:normal;font-family:'Brush Script MT';-inkscape-font-specification:'Brush Script MT';fill:#2a314d;fill-opacity:1;stroke-width:0.26458332"
         id="path3290"
         inkscape:connector-curvature="0" />
      <path
         d="m 24.300098,289.76858 v -0.16723 q 0.334473,-0.36314 0.575772,-0.68328 0.243687,-0.32014 0.384644,-0.50888 0.140956,-0.18874 0.248465,-0.26519 0.107509,-0.0788 0.269968,-0.0788 0.08123,0 0.08123,0.0621 0,0.0502 -0.06689,0.14812 -0.06451,0.098 -0.167236,0.20069 -0.136178,0.13378 -0.267579,0.33686 -0.129011,0.20068 -0.293858,0.51365 0.129011,-0.10034 0.296248,-0.23652 0.169625,-0.13856 0.274745,-0.21502 0.107509,-0.0788 0.21024,-0.12423 0.10512,-0.0454 0.21024,-0.0454 0.0669,0 0.08601,0.0239 0.0215,0.0239 0.0215,0.0932 0,0.18158 -0.0884,0.35598 -0.0884,0.17201 -0.253244,0.35836 -0.164847,0.18635 -0.406145,0.40615 0.08362,0.0311 0.172014,0.0311 0.277135,0 0.743008,-0.42287 v 0.17201 q -0.181571,0.16246 -0.355975,0.30581 -0.172014,0.14334 -0.324916,0.22935 -0.152902,0.086 -0.281913,0.086 -0.04778,0 -0.102731,-0.012 -0.05256,-0.01 -0.09795,-0.0239 -0.04539,-0.0167 -0.117065,-0.0454 -0.07167,-0.0287 -0.109899,-0.0406 -0.07645,0.0191 -0.08601,0.0191 -0.08362,0 -0.195906,-0.0669 -0.07884,0.1529 -0.174403,0.3942 -0.09317,0.24369 -0.15768,0.38703 -0.06451,0.14335 -0.172015,0.27475 -0.05973,0.0597 -0.08362,0.0597 -0.102731,0 -0.102731,-0.18157 0,-0.15768 0.06451,-0.3297 0.06212,-0.16962 0.155291,-0.32253 0.09079,-0.1529 0.200684,-0.30819 0.109898,-0.15768 0.155291,-0.23413 0.377477,-0.64983 0.587717,-1.10615 -0.549492,0.66895 -0.831405,0.96041 z m 0.969972,0.11707 q 0.23652,-0.24847 0.351197,-0.42287 0.117065,-0.1744 0.117065,-0.26758 0,-0.0884 -0.0884,-0.0884 -0.119455,0 -0.336862,0.19829 -0.215019,0.19591 -0.444371,0.53038 0.176792,-0.0191 0.23652,-0.012 0.05973,0.005 0.164847,0.0621 z"
         style="font-style:normal;font-variant:normal;font-weight:normal;font-stretch:normal;font-family:'Brush Script MT';-inkscape-font-specification:'Brush Script MT';fill:#2a314d;fill-opacity:1;stroke-width:0.26458332"
         id="path3292"
         inkscape:connector-curvature="0" />
      <path
         d="m 27.155065,288.32796 h 0.102731 q 0.126622,-0.22696 0.229353,-0.32014 0.102731,-0.0956 0.234131,-0.0956 0.1314,0 0.1314,0.0597 0,0.0287 -0.102731,0.15529 -0.102731,0.12662 -0.155291,0.21263 0.08123,0.01 0.143346,0.0167 0.06451,0.007 0.100342,0.012 -0.136179,0.25324 -0.341641,0.51843 -0.06689,-0.005 -0.112287,-0.007 -0.04539,-0.005 -0.09317,-0.007 -0.04539,-0.005 -0.112288,-0.01 -0.129011,0.20785 -0.217407,0.3727 -0.08601,0.16246 -0.133789,0.29863 -0.04539,0.13618 -0.04539,0.25803 0,0.16484 0.1314,0.16484 0.09079,0 0.23652,-0.0956 0.148124,-0.098 0.3942,-0.29864 v 0.16007 q -0.645055,0.70001 -0.953248,0.70001 -0.107509,0 -0.174403,-0.0836 -0.06451,-0.0836 -0.06451,-0.21502 0,-0.0884 0.03584,-0.21024 0.03823,-0.12184 0.133789,-0.36792 -0.03345,0.0287 -0.06451,0.0573 -0.02867,0.0263 -0.05495,0.0502 -0.02389,0.0215 -0.05256,0.0478 -0.02867,0.0239 -0.05734,0.0502 v -0.16485 q 0.250855,-0.21024 0.606829,-0.73823 -0.03584,-0.002 -0.06689,-0.002 -0.03106,-0.002 -0.07406,-0.002 -0.140957,0 -0.21024,0.0191 -0.02867,0.007 -0.05495,0.0167 -0.02389,0.007 -0.03345,0.007 -0.0096,0 -0.0096,-0.0143 0,-0.0788 0.09795,-0.23653 0.07884,-0.13378 0.148124,-0.19829 0.07167,-0.0645 0.172014,-0.086 0.102731,-0.0239 0.286691,-0.0239 z"
         style="font-style:normal;font-variant:normal;font-weight:normal;font-stretch:normal;font-family:'Brush Script MT';-inkscape-font-specification:'Brush Script MT';fill:#2a314d;fill-opacity:1;stroke-width:0.26458332"
         id="path3294"
         inkscape:connector-curvature="0" />
    </g>
    <path
       style="isolation:isolate;fill:#2a314d;fill-opacity:1;stroke-width:0.26458332"
       inkscape:connector-curvature="0"
       d="m 15.523242,274.87194 c 0.01247,0.0748 -0.02493,0.13694 -0.149266,0.19911 -0.161851,-0.0871 -0.510221,-0.13681 -0.796418,-0.11201 -0.311113,0.0249 -0.572514,0.12459 -0.535137,0.33603 0.04972,0.21156 0.348494,0.33603 0.883507,0.28619 1.306634,-0.11201 1.294174,-0.99551 3.210579,-1.1697 1.493277,-0.13681 2.326947,0.32357 2.439081,0.88351 0.08709,0.43559 -0.273736,0.85871 -1.356471,0.9458 -0.95814,0.0871 -1.518194,-0.17418 -1.567911,-0.43558 -0.02493,-0.13681 0.04972,-0.33592 0.510221,-0.38575 0.04984,0.21156 0.311113,0.43559 0.93322,0.37329 0.448048,-0.0373 0.821334,-0.19911 0.771622,-0.44793 -0.04972,-0.26139 -0.522682,-0.41066 -1.269378,-0.34849 -1.518199,0.13681 -1.891364,0.97073 -3.185663,1.08274 -0.920763,0.0871 -1.66746,-0.24907 -1.767014,-0.7467 -0.0374,-0.18665 -0.0374,-0.62223 0.933224,-0.70933 0.497881,-0.0374 0.896087,0.0497 0.945804,0.24882 z m -4.853122,5.20174 c -0.423128,0.53501 -0.609771,1.15725 -0.572519,1.76702 0.0374,0.60977 0.335914,1.10753 0.808874,1.49327 0.497761,0.38575 1.032898,0.49776 1.642669,0.38575 0.236359,-0.0373 0.49776,-0.16172 0.73412,-0.23636 -0.497761,0 -0.920763,-0.16185 -1.343891,-0.49776 -0.460504,-0.33603 -0.771617,-0.80887 -0.84625,-1.38138 -0.11201,-0.53502 0,-1.03278 0.298652,-1.46824 0.336034,-0.42325 0.771622,-0.65961 1.344011,-0.73437 0.572394,-0.0373 1.070155,0.11201 1.567916,0.46051 -0.112015,-0.16185 -0.273617,-0.27386 -0.423008,-0.42313 -0.497881,-0.33591 -1.032893,-0.49776 -1.692501,-0.33591 -0.59731,0.12435 -1.09507,0.43546 -1.518073,0.9706 z m 6.669973,-2.87467 c -1.605292,0 -3.036391,-0.16172 -4.069289,-0.38574 -1.107407,-0.27374 -1.692381,-0.5724 -1.692381,-0.95814 0,-0.16185 0.07475,-0.29878 0.298777,-0.46051 -0.696984,0.27374 -1.070274,0.49776 -1.070274,0.84625 0.0374,0.38575 0.659607,0.7715 1.92874,1.07016 1.194745,0.29865 2.725399,0.4605 4.567171,0.4605 1.879028,0 3.372305,-0.16185 4.566925,-0.4605 1.269258,-0.29866 1.879029,-0.69687 1.879029,-1.07016 0,-0.27373 -0.273737,-0.53501 -0.771497,-0.73411 0.112009,0.0745 0.199103,0.1991 0.199103,0.33591 0,0.38575 -0.572394,0.69686 -1.729637,0.95814 -1.070275,0.23648 -2.439082,0.3982 -4.106667,0.3982 z m 4.579386,1.07028 c -1.194624,0.27373 -2.725158,0.4605 -4.566925,0.4605 -1.879029,0 -3.409682,-0.19922 -4.604307,-0.4605 -1.070275,-0.27386 -1.642544,-0.57252 -1.841772,-0.88363 0.199108,1.34401 0.659608,2.61326 1.269378,3.73326 0.460504,0.69686 0.920764,1.30663 1.381268,1.96624 a 4.8273492,4.8273492 0 0 1 0.423007,1.15724 c 0.298777,0.42312 0.734361,0.69686 1.269378,0.84625 a 5.1853696,5.1853696 0 0 0 2.04087,0.29866 h 0.07451 c 0.696984,0.0373 1.431225,-0.0748 2.103168,-0.29866 0.497761,-0.16185 0.920888,-0.42313 1.232001,-0.84625 h 0.03726 a 4.6844345,4.6844345 0 0 1 0.385746,-1.15724 c 0.460504,-0.65961 0.921009,-1.26938 1.381393,-1.96624 0.609645,-1.10754 1.032893,-2.37679 1.269253,-3.73326 -0.248816,0.34849 -0.821334,0.64715 -1.854228,0.88363 z"
       id="path3153" />
  </g>
</svg>
