<?xml version="1.0" encoding="UTF-8" standalone="no"?>
<!-- Created with Inkscape (http://www.inkscape.org/) -->

<svg
   xmlns:osb="http://www.openswatchbook.org/uri/2009/osb"
   xmlns:dc="http://purl.org/dc/elements/1.1/"
   xmlns:cc="http://creativecommons.org/ns#"
   xmlns:rdf="http://www.w3.org/1999/02/22-rdf-syntax-ns#"
   xmlns:svg="http://www.w3.org/2000/svg"
   xmlns="http://www.w3.org/2000/svg"
   xmlns:xlink="http://www.w3.org/1999/xlink"
   xmlns:sodipodi="http://sodipodi.sourceforge.net/DTD/sodipodi-0.dtd"
   xmlns:inkscape="http://www.inkscape.org/namespaces/inkscape"
   width="128"
   height="128"
   viewBox="0 0 33.866666 33.866668"
   version="1.1"
   id="svg8"
   inkscape:version="0.92.2 5c3e80d, 2017-08-06"
   sodipodi:docname="org 2.svg">
  <defs
     id="defs2">
    <linearGradient
       id="linearGradient1830">
      <stop
         id="stop1826"
         style="stop-color:#d9d9d9;stop-opacity:1"
         offset="0" />
      <stop
         id="stop1828"
         style="stop-color:#ffffff;stop-opacity:1;"
         offset="1" />
    </linearGradient>
    <linearGradient
       osb:paint="solid"
       id="linearGradient6987">
      <stop
         id="stop6985"
         offset="0"
         style="stop-color:#77d2fb;stop-opacity:1;" />
    </linearGradient>
    <linearGradient
       inkscape:collect="always"
       xlink:href="#linearGradient1830"
       id="linearGradient1503-8-3"
       x1="29.203474"
       y1="263.52237"
       x2="4.5843229"
       y2="296.16849"
       gradientUnits="userSpaceOnUse"
       gradientTransform="matrix(0.95481176,0,0,0.95480184,0.765188,12.661897)" />
  </defs>
  <sodipodi:namedview
     id="base"
     pagecolor="#ffffff"
     bordercolor="#666666"
     borderopacity="1.0"
     inkscape:pageopacity="0.0"
     inkscape:pageshadow="2"
     inkscape:zoom="1.4142136"
     inkscape:cx="-76.527665"
     inkscape:cy="27.061049"
     inkscape:document-units="mm"
     inkscape:current-layer="layer1"
     showgrid="false"
     units="px"
     inkscape:window-width="1600"
     inkscape:window-height="792"
     inkscape:window-x="0"
     inkscape:window-y="0"
     inkscape:window-maximized="1"
     showguides="false"
     inkscape:snap-nodes="false" />
  <metadata
     id="metadata5">
    <rdf:RDF>
      <cc:Work
         rdf:about="">
        <dc:format>image/svg+xml</dc:format>
        <dc:type
           rdf:resource="http://purl.org/dc/dcmitype/StillImage" />
        <dc:title />
      </cc:Work>
    </rdf:RDF>
  </metadata>
  <g
     inkscape:label="Layer 1"
     inkscape:groupmode="layer"
     id="layer1"
     transform="translate(0,-263.13332)">
    <g
       style="stroke-width:4.08449793"
       inkscape:transform-center-y="-9.4924686"
       inkscape:transform-center-x="5.4653607"
       inkscape:label="Capa 1"
       id="layer1-4-3"
       transform="matrix(0.53602412,0,0,0.5372689,-234.93365,-13.785303)">
      <g
         style="stroke-width:4.08449793"
         id="layer1-3-65-9"
         inkscape:label="Capa 1"
         transform="translate(0.41988239,0.03484499)" />
    </g>
    <g
       style="stroke-width:4.08449793"
       inkscape:transform-center-y="-9.4924686"
       inkscape:transform-center-x="5.4653607"
       inkscape:label="Capa 1"
       id="layer1-4"
       transform="matrix(0.53602412,0,0,0.5372689,-234.93365,-13.7603)">
      <g
         style="stroke-width:4.08449793"
         id="layer1-3-65"
         inkscape:label="Capa 1"
         transform="translate(0.41988239,0.03484499)" />
    </g>
    <path
       style="opacity:0.25;fill:#000000;fill-opacity:1;stroke:none;stroke-width:1.7883966;stroke-miterlimit:4;stroke-dasharray:none;stroke-opacity:1"
       d="m 5.142353,264.8392 v 31.10591 h 23.581961 v -17.45475 c -0.04498,-0.7929 -0.09696,-1.50255 -0.298063,-2.22205 -0.204573,-0.73192 -0.526951,-1.42494 -0.912236,-2.08813 -0.492998,-0.84861 -1.326132,-1.39576 -2.066596,-2.09122 -0.449226,-0.40738 -1.419471,-1.3751 -2.593872,-2.5305 -1.164791,-1.14594 -2.530897,-2.47697 -3.671384,-3.51104 -0.336848,-0.30398 -0.826157,-0.61944 -1.28075,-0.80163 -0.352994,-0.14146 -0.768267,-0.22951 -1.169211,-0.28869 -0.413429,-0.061 -0.811623,-0.0914 -1.110603,-0.1179 z"
       id="path5023-4-5"
       inkscape:connector-curvature="0"
       sodipodi:nodetypes="ccccascscsscc" />
    <path
       sodipodi:nodetypes="ccccascscsscc"
       inkscape:connector-curvature="0"
       id="path4623-8-3"
       d="m 5.142353,264.33819 v 31.10591 h 23.581961 v -17.45475 c -0.04498,-0.7929 -0.09696,-1.50256 -0.298063,-2.22206 -0.204573,-0.73192 -0.526951,-1.42494 -0.912236,-2.08813 -0.492998,-0.8486 -1.326132,-1.39575 -2.066596,-2.09121 -0.449226,-0.40739 -1.419471,-1.37511 -2.593872,-2.53051 -1.164791,-1.14592 -2.530897,-2.47697 -3.671384,-3.51104 -0.336848,-0.30398 -0.826157,-0.61945 -1.28075,-0.80162 -0.352994,-0.14146 -0.768267,-0.22952 -1.169211,-0.28869 -0.413429,-0.0611 -0.811623,-0.0914 -1.110603,-0.1179 z"
       style="opacity:1;fill:url(#linearGradient1503-8-3);fill-opacity:1;stroke:#808080;stroke-width:0.30000001;stroke-miterlimit:4;stroke-dasharray:none;stroke-opacity:1" />
    <path
       sodipodi:nodetypes="ccccsccsc"
       inkscape:connector-curvature="0"
       id="path1355-8-5"
       d="m 19.620994,266.16126 c 0.01558,0.0251 0.535221,0.86284 0.694175,1.33425 0.430727,0.96558 0.246637,3.78888 0.238805,5.39748 0.02644,-0.18505 4.473865,-1.33136 6.782594,0.76747 -0.01476,-0.026 -0.04662,-0.0767 -0.119341,-0.17767 -0.06901,-0.0958 -0.174308,-0.23765 -0.354479,-0.42182 -0.503715,-0.5766 -0.22026,-0.0806 -0.768208,-0.6505 -0.473747,-0.42966 -1.496999,-1.45025 -2.735519,-2.66881 -1.183854,-1.16476 -2.562819,-2.50808 -3.738027,-3.5804 z"
       style="opacity:0.24800002;fill:#000000;fill-opacity:1;stroke:none;stroke-width:0.28614345;stroke-miterlimit:4;stroke-dasharray:none;stroke-opacity:1" />
    <path
       style="opacity:1;fill:#ffffff;fill-opacity:1;stroke:#808080;stroke-width:0.30000001;stroke-miterlimit:4;stroke-dasharray:none;stroke-opacity:1"
       d="m 19.308998,265.6626 c 0.01477,0.0238 0.507514,0.81811 0.658239,1.26509 0.40843,0.91553 0.278738,3.06938 0.271311,4.5946 0.409178,-0.0213 4.921198,-0.70296 6.989915,1.73982 -0.02793,-0.0483 -0.09803,-0.0884 -0.13713,-0.16512 -0.477638,-0.54671 -1.086946,-0.98598 -1.643914,-1.50908 -0.449221,-0.4074 -1.419501,-1.37509 -2.593906,-2.53048 -1.122567,-1.10439 -2.430145,-2.3781 -3.544515,-3.39483 z"
       id="path4753-0-6"
       inkscape:connector-curvature="0"
       sodipodi:nodetypes="ccccccsc" />
    <g
       style="stroke-width:4.08449793"
       inkscape:transform-center-y="-9.4924686"
       inkscape:transform-center-x="5.4653607"
       inkscape:label="Capa 1"
       id="layer1-4-3-2"
       transform="matrix(0.51126596,0,0,0.51245325,-269.32006,5.6156869)">
      <g
         style="stroke-width:4.08449793"
         id="layer1-3-65-9-9"
         inkscape:label="Capa 1"
         transform="translate(0.41988239,0.03484499)" />
    </g>
    <g
       style="stroke-width:4.08449793"
       inkscape:transform-center-y="-9.4924686"
       inkscape:transform-center-x="5.4653607"
       inkscape:label="Capa 1"
       id="layer1-4-1"
       transform="matrix(0.51126596,0,0,0.51245325,-269.32006,5.6395364)">
      <g
         style="stroke-width:4.08449793"
         id="layer1-3-65-2"
         inkscape:label="Capa 1"
         transform="translate(0.41988239,0.03484499)" />
    </g>
    <g
       style="stroke-width:4.08449793"
       inkscape:transform-center-y="-9.4924686"
       inkscape:transform-center-x="5.4653607"
       inkscape:label="Capa 1"
       id="layer1-4-9"
       transform="matrix(0.53602412,0,0,0.5372689,-281.36802,-13.7853)">
      <g
         style="stroke-width:4.08449793"
         id="layer1-3-65-0"
         inkscape:label="Capa 1"
         transform="translate(0.41988239,0.03484499)" />
    </g>
    <g
       style="stroke-width:4.08449793"
       inkscape:transform-center-y="-9.4924686"
       inkscape:transform-center-x="5.4653607"
       inkscape:label="Capa 1"
       id="layer1-4-2"
       transform="matrix(0.53602412,0,0,0.5372689,-281.36802,-13.7603)">
      <g
         style="stroke-width:4.08449793"
         id="layer1-3-65-4"
         inkscape:label="Capa 1"
         transform="translate(0.41988239,0.03484499)" />
    </g>
    <g
       id="g1533"
       transform="translate(0.18901965,3.3363136e-6)"
       style="stroke:#4d4d4d;stroke-width:0.15000001;stroke-miterlimit:4;stroke-dasharray:none;stroke-opacity:1">
      <path
         sodipodi:nodetypes="cssscssssccscscscssssscssccccsscccssscsssssssccccc"
         inkscape:connector-curvature="0"
         id="path1527"
         d="m 12.581338,286.91048 c -0.02104,-0.0154 -0.02071,-0.0498 0.0023,-0.23224 0.0334,-0.2654 0.07354,-0.71044 0.09906,-1.09837 0.05235,-0.79582 0.05676,-0.82128 0.178304,-1.02933 0.08884,-0.15207 0.320908,-0.37624 0.543469,-0.52497 0.235522,-0.15739 0.72978,-0.40318 1.13092,-0.5624 0.164417,-0.0652 0.639939,-0.24183 1.05672,-0.39239 1.215257,-0.439 1.550264,-0.57434 1.749267,-0.70668 0.212414,-0.14126 0.349932,-0.30603 0.540966,-0.64814 0.131266,-0.23508 0.1759,-0.27599 0.395838,-0.36279 0.159906,-0.0631 0.181902,-0.0896 0.190773,-0.22971 0.011,-0.1734 -0.01602,-0.23315 -0.129794,-0.28729 -0.238441,-0.11346 -0.350387,-0.36056 -0.444759,-0.98168 -0.06915,-0.45511 -0.06063,-0.42795 -0.136288,-0.43436 -0.146392,-0.0124 -0.243113,-0.2 -0.37692,-0.73112 -0.130265,-0.51706 -0.200087,-0.98742 -0.170428,-1.14811 0.01941,-0.10518 0.07868,-0.17865 0.144121,-0.17865 0.0193,0 0.03989,-0.0126 0.04575,-0.028 0.0059,-0.0154 -0.02248,-0.25052 -0.06301,-0.52254 -0.08974,-0.6024 -0.137015,-1.02073 -0.152805,-1.35207 -0.02118,-0.44458 0.04044,-0.88188 0.162972,-1.15652 0.06634,-0.14869 0.231264,-0.36969 0.341005,-0.45695 0.144763,-0.1151 0.352295,-0.19901 0.493487,-0.19955 0.04878,-1.2e-4 0.06556,-0.014 0.12432,-0.10249 0.308764,-0.46488 1.367133,-0.74612 2.172489,-0.57729 0.724302,0.15183 1.380354,0.5191 1.77187,0.99195 0.422855,0.51068 0.593876,1.07064 0.597509,1.9564 0.0013,0.33255 -0.0065,0.45155 -0.05874,0.88693 -0.03317,0.27656 -0.05569,0.51497 -0.05004,0.52978 0.0056,0.0148 0.03379,0.0321 0.06253,0.0385 0.131415,0.029 0.183625,0.19063 0.149477,0.46264 -0.02181,0.17367 -0.172373,0.8853 -0.236533,1.11794 -0.04668,0.16927 -0.125214,0.32596 -0.188577,0.37625 -0.03875,0.0307 -0.06573,0.0375 -0.124271,0.0309 -0.0545,-0.006 -0.08176,-7.4e-4 -0.100526,0.0206 -0.0391,0.044 -0.07593,0.19304 -0.135211,0.54706 -0.111587,0.66639 -0.157923,0.77372 -0.433262,1.00352 -0.04268,0.0356 -0.04655,0.05 -0.04655,0.17333 0,0.17372 0.01944,0.21402 0.124398,0.25789 0.110143,0.046 0.203921,0.13291 0.379678,0.3517 0.263593,0.32813 0.534631,0.5629 0.852843,0.73872 0.193054,0.10668 0.811914,0.37979 1.145515,0.50555 0.131522,0.0496 0.487417,0.17673 0.790872,0.28256 0.751444,0.26207 0.950796,0.3396 1.2677,0.49299 0.467807,0.22645 0.757351,0.44411 0.923826,0.69447 0.146315,0.22004 0.158609,0.27655 0.208104,0.95684 0.05211,0.71619 0.09103,1.1733 0.116171,1.36455 0.01153,0.0875 0.01222,0.14718 0.002,0.15757 -0.02386,0.024 -14.883784,0.029 -14.916391,0.005 z"
         style="opacity:1;fill:#808080;fill-opacity:1;stroke:#4d4d4d;stroke-width:0.15000001;stroke-miterlimit:4;stroke-dasharray:none;stroke-opacity:1" />
      <path
         style="opacity:1;fill:#5e5e5e;fill-opacity:1;stroke:#4d4d4d;stroke-width:0.15000001;stroke-miterlimit:4;stroke-dasharray:none;stroke-opacity:1"
         d="m 5.9989513,286.91048 c -0.02105,-0.0154 -0.02071,-0.0498 0.0023,-0.23224 0.0334,-0.2654 0.07354,-0.71044 0.09906,-1.09837 0.05236,-0.79582 0.05676,-0.82128 0.178305,-1.02933 0.08884,-0.15207 0.320908,-0.37624 0.543469,-0.52497 0.235522,-0.15739 0.72978,-0.40318 1.13092,-0.5624 0.164417,-0.0652 0.639939,-0.24183 1.05672,-0.39239 1.2152567,-0.439 1.5502637,-0.57434 1.7492667,-0.70668 0.212413,-0.14126 0.349932,-0.30603 0.540966,-0.64814 0.131265,-0.23508 0.1759,-0.27599 0.395838,-0.36279 0.159906,-0.0631 0.181902,-0.0896 0.190773,-0.22971 0.011,-0.1734 -0.01602,-0.23315 -0.129794,-0.28729 -0.238442,-0.11346 -0.350387,-0.36056 -0.44476,-0.98168 -0.06915,-0.45511 -0.06063,-0.42795 -0.136287,-0.43436 -0.146392,-0.0124 -0.243113,-0.2 -0.37692,-0.73112 -0.130265,-0.51706 -0.200087,-0.98742 -0.170429,-1.14811 0.01941,-0.10518 0.07868,-0.17865 0.144122,-0.17865 0.0193,0 0.03989,-0.0126 0.04575,-0.028 0.0059,-0.0154 -0.02248,-0.25052 -0.06301,-0.52254 -0.08974,-0.6024 -0.137015,-1.02073 -0.152805,-1.35207 -0.02118,-0.44458 0.04044,-0.88188 0.162972,-1.15652 0.06634,-0.14869 0.231263,-0.36969 0.341005,-0.45695 0.144763,-0.1151 0.352296,-0.19901 0.493487,-0.19955 0.04878,-1.2e-4 0.06556,-0.014 0.12432,-0.10249 0.308764,-0.46488 1.367133,-0.74612 2.172489,-0.57729 0.724302,0.15183 1.380354,0.5191 1.77187,0.99195 0.422855,0.51068 0.593876,1.07064 0.59751,1.9564 0.0013,0.33255 -0.0065,0.45155 -0.05874,0.88693 -0.03317,0.27656 -0.05569,0.51497 -0.05004,0.52978 0.0056,0.0148 0.03379,0.0321 0.06252,0.0385 0.131416,0.029 0.183625,0.19063 0.149477,0.46264 -0.02181,0.17367 -0.172372,0.8853 -0.236533,1.11794 -0.04668,0.16927 -0.125213,0.32596 -0.188577,0.37625 -0.03875,0.0307 -0.06573,0.0375 -0.124271,0.0309 -0.05449,-0.006 -0.08176,-7.4e-4 -0.100526,0.0206 -0.0391,0.044 -0.07593,0.19304 -0.135211,0.54706 -0.111587,0.66639 -0.157922,0.77372 -0.433262,1.00352 -0.04268,0.0356 -0.04655,0.05 -0.04655,0.17333 0,0.17372 0.01944,0.21402 0.124398,0.25789 0.110142,0.046 0.20392,0.13291 0.379678,0.3517 0.263593,0.32813 0.534631,0.5629 0.852843,0.73872 0.193054,0.10668 0.811912,0.37979 1.145512,0.50555 0.131523,0.0496 0.487418,0.17673 0.790873,0.28256 0.751445,0.26207 0.950797,0.3396 1.267701,0.49299 0.467808,0.22645 0.75735,0.44411 0.923827,0.69447 0.146315,0.22004 0.158606,0.27655 0.208103,0.95684 0.05211,0.71619 0.09103,1.1733 0.116171,1.36455 0.01152,0.0875 0.01222,0.14718 0.002,0.15757 -0.02385,0.024 -14.8837827,0.029 -14.9163907,0.005 z"
         id="path1529"
         inkscape:connector-curvature="0"
         sodipodi:nodetypes="cssscssssccscscscssssscssccccsscccssscsssssssccccc" />
    </g>
  </g>
</svg>
