<?xml version="1.0" encoding="UTF-8" standalone="no"?>
<!-- Created with Inkscape (http://www.inkscape.org/) -->

<svg
   xmlns:osb="http://www.openswatchbook.org/uri/2009/osb"
   xmlns:dc="http://purl.org/dc/elements/1.1/"
   xmlns:cc="http://creativecommons.org/ns#"
   xmlns:rdf="http://www.w3.org/1999/02/22-rdf-syntax-ns#"
   xmlns:svg="http://www.w3.org/2000/svg"
   xmlns="http://www.w3.org/2000/svg"
   xmlns:xlink="http://www.w3.org/1999/xlink"
   xmlns:sodipodi="http://sodipodi.sourceforge.net/DTD/sodipodi-0.dtd"
   xmlns:inkscape="http://www.inkscape.org/namespaces/inkscape"
   width="128"
   height="128"
   viewBox="0 0 33.866666 33.866668"
   version="1.1"
   id="svg8"
   inkscape:version="0.92.2 5c3e80d, 2017-08-06"
   sodipodi:docname="org 2.svg">
  <defs
     id="defs2">
    <linearGradient
       id="linearGradient1830">
      <stop
         id="stop1826"
         style="stop-color:#d9d9d9;stop-opacity:1"
         offset="0" />
      <stop
         id="stop1828"
         style="stop-color:#ffffff;stop-opacity:1;"
         offset="1" />
    </linearGradient>
    <linearGradient
       osb:paint="solid"
       id="linearGradient6987">
      <stop
         id="stop6985"
         offset="0"
         style="stop-color:#77d2fb;stop-opacity:1;" />
    </linearGradient>
    <linearGradient
       inkscape:collect="always"
       xlink:href="#linearGradient1830"
       id="linearGradient1503-8-3"
       x1="29.203474"
       y1="263.52237"
       x2="4.5843229"
       y2="296.16849"
       gradientUnits="userSpaceOnUse"
       gradientTransform="matrix(0.95481176,0,0,0.95480184,0.765188,12.661897)" />
    <linearGradient
       id="linearGradient1225"
       inkscape:collect="always">
      <stop
         id="stop1221"
         offset="0"
         style="stop-color:#ffffff;stop-opacity:1" />
      <stop
         id="stop1223"
         offset="1"
         style="stop-color:#cac2ce;stop-opacity:1" />
    </linearGradient>
    <radialGradient
       gradientUnits="userSpaceOnUse"
       gradientTransform="matrix(0.95325104,0,0,1.4112707,-5.6906757,-118.53906)"
       r="3.6712506"
       fy="287.40679"
       fx="22.433976"
       cy="287.40679"
       cx="22.433976"
       id="radialGradient1227"
       xlink:href="#linearGradient1225"
       inkscape:collect="always" />
  </defs>
  <sodipodi:namedview
     id="base"
     pagecolor="#ffffff"
     bordercolor="#666666"
     borderopacity="1.0"
     inkscape:pageopacity="0.0"
     inkscape:pageshadow="2"
     inkscape:zoom="5.6568545"
     inkscape:cx="69.607959"
     inkscape:cy="47.876023"
     inkscape:document-units="mm"
     inkscape:current-layer="layer1"
     showgrid="false"
     units="px"
     inkscape:window-width="1600"
     inkscape:window-height="792"
     inkscape:window-x="0"
     inkscape:window-y="0"
     inkscape:window-maximized="1"
     showguides="false"
     inkscape:snap-nodes="false" />
  <metadata
     id="metadata5">
    <rdf:RDF>
      <cc:Work
         rdf:about="">
        <dc:format>image/svg+xml</dc:format>
        <dc:type
           rdf:resource="http://purl.org/dc/dcmitype/StillImage" />
        <dc:title />
      </cc:Work>
    </rdf:RDF>
  </metadata>
  <g
     inkscape:label="Layer 1"
     inkscape:groupmode="layer"
     id="layer1"
     transform="translate(0,-263.13332)">
    <g
       style="stroke-width:4.08449793"
       inkscape:transform-center-y="-9.4924686"
       inkscape:transform-center-x="5.4653607"
       inkscape:label="Capa 1"
       id="layer1-4-3"
       transform="matrix(0.53602412,0,0,0.5372689,-234.93365,-13.785303)">
      <g
         style="stroke-width:4.08449793"
         id="layer1-3-65-9"
         inkscape:label="Capa 1"
         transform="translate(0.41988239,0.03484499)" />
    </g>
    <g
       style="stroke-width:4.08449793"
       inkscape:transform-center-y="-9.4924686"
       inkscape:transform-center-x="5.4653607"
       inkscape:label="Capa 1"
       id="layer1-4"
       transform="matrix(0.53602412,0,0,0.5372689,-234.93365,-13.7603)">
      <g
         style="stroke-width:4.08449793"
         id="layer1-3-65"
         inkscape:label="Capa 1"
         transform="translate(0.41988239,0.03484499)" />
    </g>
    <path
       style="opacity:0.25;fill:#000000;fill-opacity:1;stroke:none;stroke-width:1.7883966;stroke-miterlimit:4;stroke-dasharray:none;stroke-opacity:1"
       d="m 5.142353,264.8392 v 31.10591 h 23.581961 v -17.45475 c -0.04498,-0.7929 -0.09696,-1.50255 -0.298063,-2.22205 -0.204573,-0.73192 -0.526951,-1.42494 -0.912236,-2.08813 -0.492998,-0.84861 -1.326132,-1.39576 -2.066596,-2.09122 -0.449226,-0.40738 -1.419471,-1.3751 -2.593872,-2.5305 -1.164791,-1.14594 -2.530897,-2.47697 -3.671384,-3.51104 -0.336848,-0.30398 -0.826157,-0.61944 -1.28075,-0.80163 -0.352994,-0.14146 -0.768267,-0.22951 -1.169211,-0.28869 -0.413429,-0.061 -0.811623,-0.0914 -1.110603,-0.1179 z"
       id="path5023-4-5"
       inkscape:connector-curvature="0"
       sodipodi:nodetypes="ccccascscsscc" />
    <path
       sodipodi:nodetypes="ccccascscsscc"
       inkscape:connector-curvature="0"
       id="path4623-8-3"
       d="m 5.142353,264.33819 v 31.10591 h 23.581961 v -17.45475 c -0.04498,-0.7929 -0.09696,-1.50256 -0.298063,-2.22206 -0.204573,-0.73192 -0.526951,-1.42494 -0.912236,-2.08813 -0.492998,-0.8486 -1.326132,-1.39575 -2.066596,-2.09121 -0.449226,-0.40739 -1.419471,-1.37511 -2.593872,-2.53051 -1.164791,-1.14592 -2.530897,-2.47697 -3.671384,-3.51104 -0.336848,-0.30398 -0.826157,-0.61945 -1.28075,-0.80162 -0.352994,-0.14146 -0.768267,-0.22952 -1.169211,-0.28869 -0.413429,-0.0611 -0.811623,-0.0914 -1.110603,-0.1179 z"
       style="opacity:1;fill:url(#linearGradient1503-8-3);fill-opacity:1;stroke:#808080;stroke-width:0.30000001;stroke-miterlimit:4;stroke-dasharray:none;stroke-opacity:1" />
    <g
       id="g1127"
       transform="translate(6.5974518)">
      <g
         transform="matrix(0.95325104,0,0,0.95360241,-5.6906757,12.997915)"
         id="g1098"
         style="stroke-width:1.04884827">
        <path
           style="fill:none;stroke:#4f4f4f;stroke-width:0.52442414;stroke-linecap:butt;stroke-linejoin:miter;stroke-miterlimit:4;stroke-dasharray:none;stroke-opacity:1"
           id="path1967"
           d="m 10.195566,268.72278 h 2.870961 z m 3.125643,0 h 1.296562 z m 1.528091,0 h 2.037456 z m 2.268985,0 h 2.199526 z m 2.45421,0 h 0.879809 z m 1.111337,0 h 0.486212 z m 0.740894,0 h 1.366023 z"
           inkscape:connector-curvature="0"
           sodipodi:nodetypes="ccccccccccccccccccccc" />
        <path
           sodipodi:nodetypes="cccccccccccccccccccccccccccccccccccccccccccccccccccccccccccccccccccccccccccccccccccccccccccccccccccccccccccccccccccccccccccccccccccccccccccccccccccccccccccccccccccccccccccccccccccccccccccccccccccccccccccccccccccccccccccccccccccccccccccccccccccccccccccccccccc"
           inkscape:connector-curvature="0"
           d="m 7.519824,292.39701 h 1.736469 z m 1.99115,0 h 1.620703 z m 1.875384,0 h 1.43548 z m 1.66701,0 h 0.625128 z m 0.879812,0 h 1.389173 z m 1.667009,0 h 1.059572 z m -8.080365,-1.48233 h 2.70889 z m 3.009877,0 h 1.296563 z m 1.528092,0 h 0.648281 z m 0.902963,0 h 1.180799 z m 1.435481,0 h 1.203952 z m 1.435481,0 h 1.92169 z m -8.311894,-1.47074 h 2.292137 z m 2.523668,0 h 3.750771 z m 3.982298,0 h 1.829082 z m 2.06061,0 h 1.713314 z M 7.519824,287.9501 h 3.171947 z m 3.42663,0 h 3.426631 z m 3.658158,0 h 1.366023 z m 1.597552,0 h 1.729973 z m -8.68234,-1.48234 h 4.543239 z m 4.929407,0 h 4.3411 z m -4.929407,-2.95303 h 2.292137 z m 2.523668,0 h 3.750771 z m 3.982298,0 h 1.829082 z m 2.06061,0 h 1.713314 z M 7.519824,282.0208 h 1.736469 z m 1.99115,0 h 1.59755 z m 1.875384,0 h 1.43548 z m 1.66701,0 h 0.625128 z m 0.879812,0 h 1.389173 z m 1.667009,0 h 2.312089 z m -8.080365,-1.48233 h 2.917266 z m 3.148794,0 h 3.125645 z m 3.357172,0 h 1.203952 z m 1.435481,0 h 2.94042 z m 3.171949,0 h 3.704465 z m 3.959147,0 h 1.366022 z M 7.519824,279.05615 h 3.171947 z m 3.42663,0 h 3.426631 z m 3.658158,0 h 1.366023 z m 1.597552,0 h 3.218254 z m 3.426631,0 h 2.199527 z m 2.454209,0 h 0.879811 z m 1.11134,0 h 0.48621 z m 0.740893,0 h 1.366022 z m -16.415413,-1.4823 h 2.70889 z m 3.009877,0 h 1.296563 z m 1.528092,0 h 0.648281 z m 0.902963,0 h 1.180799 z m 1.435481,0 h 1.203952 z m 1.435481,0 h 1.92169 z m 2.176372,0 h 2.500516 z m 2.732045,0 h 1.667009 z m 1.898538,0 h 0.416753 z M 7.519824,274.6208 h 2.292137 z m 2.523668,0 h 3.750771 z m 3.982298,0 h 1.829082 z m 2.06061,0 h 1.713314 z m 1.944844,0 h 1.458633 z m 1.690163,0 2.292138,-0.0233 z m 2.500515,-0.0233 h 3.727619 z M 7.519824,273.12676 h 2.70889 z m 3.009877,0 h 1.296563 z m 1.528092,0 h 0.648281 z m 0.902963,0 h 1.180799 z m 1.435481,0 h 1.203952 z m 1.435481,0 h 1.92169 z m 2.176372,0 h 2.500516 z m 2.732045,0 h 1.667009 z m 1.898538,0 h 0.416753 z M 7.519824,271.64443 h 2.87096 z m 3.125643,0 h 0.902962 z m 1.134492,0 h 2.060608 z m 2.292138,0 h 3.033031 z m 3.287713,0 h 2.060608 z m 2.268985,0 h 0.439904 z m 0.671435,0 h 2.616278 z m 2.894114,0 h 1.366022 z m -15.67452,-1.48231 h 2.870961 z m 3.125643,0 h 1.296562 z m 1.528091,0 h 2.037456 z m 2.268985,0 h 2.199526 z m 2.45421,0 h 0.879809 z m 1.111337,0 h 0.486212 z m 0.740894,0 h 1.366023 z"
           id="path997"
           style="fill:none;stroke:#4f4f4f;stroke-width:0.52442414;stroke-linecap:butt;stroke-linejoin:miter;stroke-miterlimit:4;stroke-dasharray:none;stroke-opacity:1" />
        <g
           aria-label="H"
           style="font-style:normal;font-weight:normal;font-size:10.58333302px;line-height:1.25;font-family:sans-serif;letter-spacing:0px;word-spacing:0px;fill:#b56200;fill-opacity:1;stroke:none;stroke-width:0.68117273"
           id="text841"
           transform="matrix(0.40739704,0,0,0.40739704,2.2813771,160.51599)">
          <path
             d="m 12.897699,258.5269 h 1.043864 v 3.16259 h 3.79305 v -3.16259 h 1.043864 v 7.71529 h -1.043864 v -3.6742 h -3.79305 v 3.6742 h -1.043864 z"
             style="fill:#b56200;fill-opacity:1;stroke-width:0.68117273"
             id="path843"
             inkscape:connector-curvature="0" />
        </g>
      </g>
      <path
         style="fill:#b56200;fill-opacity:1;stroke-width:0.99999994"
         d="m 12.159112,292.14775 c -0.0077,-0.0199 -0.0097,-0.17886 -0.0042,-0.35326 0.0091,-0.28788 0.01584,-0.31611 0.07387,-0.30636 0.03516,0.006 0.09695,-0.0183 0.137334,-0.0538 0.104351,-0.0917 0.392264,-0.21924 0.447867,-0.19833 0.03103,0.0116 0.04625,0.0725 0.04503,0.17996 -9.53e-4,0.0893 0.01014,0.19832 0.02477,0.24227 0.0184,0.0552 0.01487,0.0728 -0.01141,0.0569 -0.0209,-0.0127 -0.03802,-0.006 -0.03802,0.0149 0,0.0218 0.02911,0.0298 0.06866,0.0188 0.03777,-0.0105 0.100894,-0.0281 0.140283,-0.0391 0.06152,-0.0172 0.06659,-0.0113 0.03599,0.0421 -0.0196,0.0341 -0.09045,0.11339 -0.157449,0.17614 -0.13081,0.12248 -0.156913,0.20554 -0.06459,0.20554 0.03148,0 0.04866,0.009 0.0382,0.0187 -0.03753,0.0368 -0.721883,0.0327 -0.736369,-0.005 z m 3.104406,0.0279 c -0.229384,-0.009 -0.300423,-0.0224 -0.300423,-0.0584 0,-0.0259 0.01476,-0.0561 0.03276,-0.067 0.01803,-0.0109 0.07455,-0.0951 0.125625,-0.18703 0.05108,-0.0919 0.103562,-0.16718 0.116645,-0.16718 0.01308,0 0.07007,-0.0417 0.126658,-0.0925 0.05659,-0.0509 0.157075,-0.14091 0.223322,-0.20004 0.119647,-0.10679 0.226616,-0.29719 0.188147,-0.33489 -0.01106,-0.0109 -0.09169,-0.0276 -0.179208,-0.0373 -0.184197,-0.0203 -0.222434,-0.075 -0.121602,-0.1738 0.0831,-0.0814 0.09673,-0.23811 0.0207,-0.23811 -0.05434,0 -0.131652,0.12745 -0.168386,0.27756 -0.01246,0.0509 -0.03809,0.0925 -0.05698,0.0925 -0.02044,0 -0.02454,-0.0375 -0.01012,-0.0925 0.01332,-0.0509 0.02442,-0.14172 0.02469,-0.20186 1.94e-4,-0.0602 0.01269,-0.10934 0.02761,-0.10934 0.01493,0 0.07171,-0.0964 0.1262,-0.21413 0.09703,-0.20969 0.17628,-0.30635 0.17628,-0.21499 0,0.0488 0.126941,0.18665 0.38875,0.42219 0.162325,0.14605 0.210812,0.27608 0.102946,0.27608 -0.03171,0 -0.108956,0.0182 -0.171671,0.0404 -0.08412,0.0299 -0.114021,0.0607 -0.114021,0.11775 0,0.0542 0.02,0.0773 0.06664,0.0773 0.03665,0 0.07675,0.016 0.0891,0.0356 0.01289,0.0204 0.06498,0.0264 0.122196,0.0141 0.07476,-0.0161 0.09973,-0.01 0.09973,0.0279 0,0.0272 0.02809,0.0834 0.06243,0.12496 l 0.06242,0.0755 0.142319,-0.0802 c 0.126338,-0.0712 0.147992,-0.0746 0.192821,-0.0298 0.02778,0.0278 0.06033,0.0898 0.07235,0.13792 0.01874,0.075 0.0066,0.0936 -0.08542,0.131 -0.07359,0.0298 -0.113291,0.073 -0.126445,0.13749 -0.0189,0.0926 -0.0928,0.149 -0.149921,0.1144 -0.0161,-0.01 -0.03963,-0.0855 -0.05229,-0.16833 -0.02501,-0.16348 -0.08392,-0.20626 -0.08392,-0.0609 0,0.0904 -0.252214,0.57893 -0.322573,0.62478 -0.02087,0.0136 -0.107459,0.0218 -0.192434,0.0183 -0.08497,-0.004 -0.289692,-0.0115 -0.454924,-0.0177 z m 2.009869,-0.0395 c -0.03378,-0.0355 -0.103912,-0.075 -0.155841,-0.0877 -0.171444,-0.0421 -0.09409,-0.1301 0.145919,-0.16595 0.238569,-0.0357 0.274671,-0.0514 0.274671,-0.12021 0,-0.0946 -0.193872,-0.29373 -0.310444,-0.31882 -0.108767,-0.0235 -0.123763,-0.0486 -0.06388,-0.10727 0.02736,-0.0268 0.0639,-0.0222 0.133309,0.0169 0.09225,0.0519 0.09988,0.0503 0.216023,-0.0455 0.184816,-0.1524 0.196817,-0.31098 0.02025,-0.26755 -0.0572,0.0141 -0.112749,-0.002 -0.173826,-0.0485 -0.04937,-0.038 -0.112504,-0.0692 -0.140298,-0.0692 -0.06305,0 -0.299141,-0.27785 -0.299141,-0.35206 0,-0.0618 -0.148488,-0.2199 -0.206546,-0.2199 -0.02558,0 -0.03043,0.0495 -0.01483,0.1514 0.01274,0.0833 0.01522,0.1514 0.0055,0.1514 -0.0097,0 -0.05141,-0.0561 -0.09266,-0.12453 -0.06918,-0.11489 -0.07055,-0.1277 -0.01779,-0.16551 0.05266,-0.0378 0.05152,-0.0465 -0.01425,-0.11098 -0.03929,-0.0385 -0.101428,-0.07 -0.138081,-0.07 -0.03665,0 -0.07714,-0.0167 -0.08997,-0.037 -0.02874,-0.0456 -0.425566,-0.23211 -0.493851,-0.23214 -0.02729,-2e-5 -0.09296,0.0406 -0.14592,0.0904 -0.09222,0.0866 -0.0963,0.0873 -0.0963,0.0188 0,-0.0394 0.01545,-0.081 0.03434,-0.0924 0.07358,-0.0445 0.0279,-0.152 -0.111584,-0.26246 -0.356291,-0.28216 -0.405518,-0.2707 -0.518906,0.12083 -0.04979,0.17191 -0.09052,0.3299 -0.09052,0.35108 0,0.0212 -0.01598,0.0796 -0.0355,0.13 l -0.0355,0.0915 -0.09513,-0.0894 c -0.05232,-0.0491 -0.11943,-0.0893 -0.149131,-0.0893 -0.127214,0 -0.135473,-0.0851 -0.03051,-0.3143 0.05591,-0.1221 0.117145,-0.277 0.136089,-0.34422 0.03183,-0.11296 0.02929,-0.12092 -0.03344,-0.10484 -0.06011,0.0155 -0.06549,0.005 -0.04701,-0.0916 0.01844,-0.0963 0.0055,-0.12183 -0.110582,-0.21849 -0.0723,-0.0602 -0.225903,-0.19907 -0.341331,-0.30861 -0.252131,-0.23928 -0.34397,-0.2572 -0.374308,-0.073 -0.04458,0.27067 -0.07121,0.35706 -0.11437,0.37116 -0.03564,0.0116 -0.03655,0.002 -0.0044,-0.0488 0.03269,-0.0513 0.02766,-0.086 -0.02605,-0.1803 -0.06806,-0.11943 -0.211233,-0.1924 -0.169774,-0.0865 0.0116,0.0297 0.0079,0.0539 -0.0082,0.0539 -0.0161,0 -0.03749,-0.0309 -0.04757,-0.0687 -0.01462,-0.0547 -0.03622,-0.0643 -0.107006,-0.0468 -0.07362,0.0181 -0.08869,0.0102 -0.08869,-0.0467 0,-0.0706 0.08323,-0.17427 0.139787,-0.17427 0.01754,0 0.03189,-0.0294 0.03189,-0.0654 0,-0.0824 -0.116201,-0.16354 -0.273487,-0.19095 -0.06675,-0.0116 -0.152252,-0.0468 -0.19002,-0.0783 -0.200657,-0.16694 -0.447118,-0.30791 -0.608244,-0.34791 -0.199672,-0.0496 -0.238824,-0.1219 -0.08746,-0.16156 0.07492,-0.0196 0.144637,0.004 0.343767,0.11533 0.137385,0.077 0.295947,0.17174 0.352362,0.21058 0.05641,0.0388 0.215165,0.12807 0.352777,0.19829 0.217322,0.11088 0.261527,0.1226 0.336371,0.0892 0.12448,-0.0556 0.157312,-0.0479 0.145179,0.0341 -0.0059,0.0399 0.0067,0.0784 0.02795,0.0855 0.05715,0.0192 0.08909,-0.0917 0.04232,-0.14697 -0.02528,-0.0299 -0.02825,-0.0595 -0.0079,-0.0793 0.0203,-0.0199 0.04943,0.0248 0.07802,0.11967 0.03864,0.12822 0.101571,0.19975 0.410775,0.46686 0.20083,0.1735 0.402604,0.35495 0.448384,0.40324 0.05103,0.0538 0.119994,0.0878 0.178227,0.0878 0.05225,0 0.104539,0.0152 0.116209,0.0337 0.01168,0.0185 0.06574,0.0337 0.120169,0.0337 0.05442,0 0.108619,0.0153 0.120436,0.034 0.04201,0.0667 0.654788,0.44946 0.817332,0.51066 0.182837,0.0688 0.243438,0.0557 0.210635,-0.0456 -0.02546,-0.0786 -0.07456,-0.54103 -0.09633,-0.90728 -0.01366,-0.22988 -0.05799,-0.38467 -0.123988,-0.43298 -0.05885,-0.0431 -0.187322,-0.36782 -0.243889,-0.61648 l -0.06258,-0.2751 0.08989,-0.0919 c 0.08816,-0.0902 0.08865,-0.0933 0.02587,-0.16127 -0.06272,-0.0679 -0.0625,-0.0697 0.01131,-0.0886 0.09016,-0.0231 0.09042,-0.0249 0.01929,-0.13128 -0.06511,-0.0974 -0.04692,-0.32319 0.03918,-0.48634 0.05884,-0.11151 0.140636,-0.13192 0.166235,-0.0415 0.02539,0.0896 0.05802,0.40796 0.062,0.60473 0.003,0.14566 0.01555,0.17948 0.07361,0.19754 0.03853,0.012 0.163357,0.1135 0.277397,0.2256 0.177446,0.17442 0.205985,0.21932 0.197896,0.31132 -0.0052,0.0591 0.01543,0.16588 0.04586,0.23722 0.0516,0.12102 0.0513,0.13259 -0.0043,0.17244 -0.03279,0.0235 -0.07379,0.0427 -0.09111,0.0427 -0.01732,0 -0.02207,0.0368 -0.01053,0.0818 0.01586,0.0619 0.005,0.0868 -0.0446,0.10222 -0.08401,0.0261 -0.118624,0.11406 -0.0683,0.17349 0.04617,0.0546 0.188705,0.0615 0.220679,0.0108 0.01228,-0.0195 0.03877,-0.03 0.05884,-0.0235 0.04335,0.0141 0.127609,0.275 0.128351,0.39733 1.95e-4,0.0474 0.0232,0.11549 0.05093,0.15141 0.02772,0.036 0.0509,0.0921 0.0515,0.12491 5.85e-4,0.0328 0.04096,0.0774 0.08968,0.0992 0.04872,0.0217 0.119722,0.0993 0.157774,0.17245 l 0.06919,0.13288 0.07702,-0.0947 c 0.06442,-0.0791 0.102919,-0.0947 0.235237,-0.0947 0.08701,0 0.178346,0.0156 0.202957,0.0346 0.114171,0.0883 0.228113,0.0802 0.350363,-0.025 0.102686,-0.0883 0.137235,-0.0999 0.241848,-0.0807 0.09587,0.0176 0.122045,0.0383 0.122045,0.0964 0,0.0406 -0.02359,0.10333 -0.05243,0.13925 -0.05154,0.0642 -0.05335,0.064 -0.10719,-0.0104 -0.03012,-0.0417 -0.07219,-0.0748 -0.0935,-0.0738 -0.0785,0.004 -0.18428,0.18982 -0.243349,0.42798 -0.06356,0.25625 -0.121542,0.32218 -0.241721,0.27483 -0.113848,-0.0448 -0.248773,-0.0353 -0.270076,0.0191 -0.03003,0.0767 0.04922,0.21829 0.122162,0.21829 0.03533,0 0.07283,0.0219 0.08333,0.0488 0.01051,0.0268 0.104907,0.118 0.209779,0.20261 0.147561,0.11904 0.215108,0.15221 0.298712,0.14669 0.140279,-0.01 0.177988,0.0163 0.202716,0.13748 0.03271,0.16022 0.381156,0.35069 0.447922,0.24483 0.0094,-0.0149 0.0034,-0.0868 -0.01336,-0.15982 -0.0386,-0.16835 -0.18234,-0.29691 -0.305714,-0.27341 -0.178968,0.034 -0.478238,-0.18654 -0.371162,-0.27362 0.0337,-0.0274 0.07087,-0.0243 0.14216,0.012 0.124554,0.0633 0.173734,0.0619 0.244256,-0.008 0.07168,-0.0702 0.04985,-0.23541 -0.05727,-0.43327 -0.09036,-0.1669 -0.06902,-0.27087 0.04803,-0.23404 0.04226,0.0133 0.14636,0.034 0.231337,0.0459 0.13552,0.019 0.155814,0.0328 0.165167,0.11218 0.0068,0.0572 -0.01536,0.11597 -0.06008,0.15981 -0.09103,0.0892 -0.08937,0.15202 0.0065,0.24592 0.0689,0.0675 0.07712,0.10841 0.07601,0.37851 -7.79e-4,0.16655 -0.0039,0.34825 -0.0072,0.40376 -0.0033,0.0555 0.0015,0.23719 0.01057,0.40374 0.0091,0.16654 0.0029,0.32303 -0.0138,0.34777 -0.02043,0.0302 -0.143024,0.051 -0.37428,0.0635 -0.381287,0.0206 -0.523873,-1.9e-4 -0.523873,-0.0766 0,-0.0908 -0.09845,-0.0913 -0.326506,-0.002 -0.275815,0.10819 -0.534871,0.11779 -0.624922,0.0232 z m 1.118317,-0.15824 c 0.141515,-0.0278 0.279449,-0.15698 0.279449,-0.26185 0,-0.16409 -0.0766,-0.25981 -0.288394,-0.36035 l -0.205273,-0.0974 -0.09302,0.0874 c -0.08954,0.084 -0.09628,0.0853 -0.180353,0.0313 -0.181378,-0.11645 -0.304297,-0.0149 -0.248003,0.20488 l 0.02068,0.0807 0.135995,-0.0841 c 0.170631,-0.10554 0.183771,-0.10501 0.161981,0.007 -0.02371,0.12151 0.02838,0.24629 0.140631,0.33693 0.101947,0.0823 0.12159,0.0863 0.276309,0.056 z m -0.825769,-1.05101 c 0.03425,-0.0213 0.02607,-0.0401 -0.03434,-0.0788 -0.04361,-0.0279 -0.115588,-0.0621 -0.159941,-0.0758 -0.07268,-0.0225 -0.07816,-0.0172 -0.05546,0.054 0.03891,0.12209 0.145796,0.16511 0.249733,0.10052 z m -0.508472,-0.7216 c 0,-0.0242 -0.02269,-0.0734 -0.05041,-0.10934 -0.02772,-0.036 -0.0509,-0.0913 -0.0515,-0.12302 -5.84e-4,-0.0317 -0.04744,-0.10943 -0.104094,-0.17266 -0.05665,-0.0632 -0.103,-0.13135 -0.103,-0.15139 0,-0.0472 0.113093,-0.10609 0.203744,-0.10609 0.03901,0 0.07084,-0.0189 0.07073,-0.0421 -5.84e-4,-0.11921 -0.08134,-0.29942 -0.162199,-0.36174 -0.139705,-0.10769 -0.242554,-0.0761 -0.377186,0.1158 -0.101683,0.14495 -0.113757,0.18369 -0.09439,0.3028 0.0122,0.0752 0.04324,0.15287 0.06894,0.17277 0.0257,0.0199 0.03854,0.0668 0.02852,0.10441 -0.02434,0.0912 0.09787,0.22088 0.309868,0.32886 0.187463,0.0955 0.260975,0.10723 0.260975,0.0417 z m -3.467721,1.87977 c 0,-0.0451 0.03948,-0.12458 0.08774,-0.17663 0.04825,-0.0521 0.13278,-0.14763 0.18783,-0.21239 0.08766,-0.10314 0.100218,-0.10889 0.1011,-0.0462 5.84e-4,0.0393 -0.02217,0.13584 -0.05049,0.21451 -0.02832,0.0787 -0.05149,0.17898 -0.05149,0.22291 0,0.0708 -0.01567,0.0799 -0.137337,0.0799 -0.122656,0 -0.137334,-0.009 -0.137334,-0.082 z m 0.817575,0.059 c 0.02478,-0.01 0.0544,-0.009 0.0658,0.003 0.01141,0.0111 -0.0089,0.0192 -0.04506,0.0176 -0.04,-0.002 -0.04813,-0.01 -0.02074,-0.0203 z m 2.054102,-0.012 c 0.05214,-0.0511 0.225507,-0.0562 0.24323,-0.007 0.01063,0.0294 -0.029,0.0421 -0.131868,0.0421 -0.101795,0 -0.136072,-0.0108 -0.111362,-0.035 z m -2.128178,-0.39663 c -0.09037,-0.0978 -0.06868,-0.14031 0.07193,-0.1408 0.07082,-1.9e-4 0.163517,-0.01 0.206005,-0.0208 0.12985,-0.0341 0.09139,0.0683 -0.05617,0.14959 -0.160826,0.0886 -0.151465,0.0881 -0.221757,0.0119 z M 12.24808,291.2276 c -0.101621,-0.0996 -0.126222,-0.2242 -0.07862,-0.39828 0.02417,-0.0884 0.162975,-0.13453 0.233153,-0.0774 0.105763,0.086 0.07898,-0.0374 -0.07198,-0.3315 -0.09296,-0.18114 -0.145922,-0.32141 -0.127876,-0.33872 0.01694,-0.0162 0.115775,-0.019 0.219635,-0.006 l 0.188836,0.0236 -0.01022,0.15837 c -0.0056,0.0871 0.0065,0.189 0.02696,0.22644 0.05146,0.0942 0.200902,0.0873 0.343767,-0.016 0.06399,-0.0463 0.130268,-0.0841 0.147288,-0.0841 0.01702,0 0.07704,-0.0321 0.133383,-0.0715 0.08893,-0.0621 0.114526,-0.066 0.194137,-0.0297 0.08574,0.039 0.08756,0.0442 0.02789,0.0799 -0.159336,0.0954 -0.228034,0.16648 -0.228034,0.23607 0,0.093 -0.03752,0.14021 -0.268183,0.33751 l -0.18235,0.15598 -0.08837,-0.0681 c -0.04861,-0.0375 -0.108585,-0.0681 -0.133293,-0.0681 -0.07068,0 -0.151819,0.13885 -0.151819,0.25982 0,0.13613 -0.04446,0.13917 -0.174309,0.0119 z m 2.487726,-0.64821 c -0.01646,-0.0263 0.165846,-0.20139 0.192698,-0.18507 0.0096,0.006 0.08293,0.04 0.162995,0.0758 0.08006,0.0359 0.145726,0.0753 0.145919,0.0876 3.89e-4,0.0302 -0.483161,0.0511 -0.501612,0.0216 z m -0.922893,-0.0609 c 0.01168,-0.0185 0.03576,-0.0337 0.05353,-0.0337 0.01777,0 0.03231,0.0152 0.03231,0.0337 0,0.0185 -0.02409,0.0337 -0.05353,0.0337 -0.02944,0 -0.04397,-0.0152 -0.03231,-0.0337 z m 2.507837,-0.23318 c -0.01086,-0.0173 -0.004,-0.0408 0.01515,-0.0525 0.04097,-0.0248 0.103563,0.007 0.103563,0.0521 0,0.0409 -0.09293,0.0412 -0.118703,3.8e-4 z m -2.902679,-0.40047 c 0,-0.0154 0.05994,-0.0916 0.133192,-0.16943 0.114431,-0.12146 0.136521,-0.13291 0.156816,-0.0812 0.0173,0.044 -0.01145,0.0892 -0.107443,0.16892 -0.132837,0.11032 -0.182565,0.1326 -0.182565,0.0818 z m 0.727449,-0.008 c 0.0083,-0.0243 0.0353,-0.0508 0.06008,-0.0588 0.02575,-0.009 0.03862,0.004 0.03004,0.0295 -0.0083,0.0243 -0.0353,0.0507 -0.06008,0.0588 -0.02575,0.009 -0.03863,-0.004 -0.03005,-0.0295 z m -1.942214,-0.26058 c -0.03615,-0.0573 -0.06289,-0.37831 -0.04104,-0.49248 0.02009,-0.10498 0.03529,-0.11959 0.124341,-0.11959 0.09683,0 0.101447,0.007 0.101447,0.14638 0,0.0805 0.01784,0.19656 0.03966,0.25788 0.0357,0.10036 0.03189,0.11768 -0.03814,0.17324 -0.08249,0.0654 -0.157965,0.0794 -0.18628,0.0345 z m 1.661107,-0.34291 c 0,-0.0185 0.01545,-0.0337 0.03434,-0.0337 0.01888,0 0.03434,0.0152 0.03434,0.0337 0,0.0185 -0.01545,0.0337 -0.03434,0.0337 -0.01888,0 -0.03434,-0.0152 -0.03434,-0.0337 z m 5.18227,-0.17215 c -0.03099,-0.0567 -0.02774,-0.0822 0.01596,-0.12497 0.05025,-0.0492 0.05485,-0.0433 0.05485,0.0712 0,0.14282 -0.01567,0.15471 -0.07081,0.0538 z m -0.265904,-0.24219 c -0.05685,-0.13147 -0.05135,-0.20277 0.02286,-0.29607 0.0351,-0.0442 0.08957,-0.12944 0.12105,-0.18959 0.105305,-0.20117 0.225483,-0.12236 0.226675,0.14865 7.78e-4,0.16942 -0.02818,0.21709 -0.103666,0.17089 -0.08163,-0.05 -0.195204,0.0415 -0.213478,0.17181 l -0.01248,0.0891 z m -1.395322,-0.10915 c -0.08276,-0.12377 -0.05714,-0.19987 0.06731,-0.19987 0.07947,0 0.104948,0.0166 0.113272,0.074 0.01164,0.0802 -0.0467,0.21201 -0.09384,0.21201 -0.01604,0 -0.05509,-0.0387 -0.08676,-0.0861 z m -4.963066,-0.18305 c 0,-0.0185 0.02409,-0.0337 0.05353,-0.0337 0.02944,0 0.04397,0.0152 0.03231,0.0337 -0.01168,0.0185 -0.03576,0.0337 -0.05352,0.0337 -0.01777,0 -0.03231,-0.0152 -0.03231,-0.0337 z m 2.712061,-0.15177 c -0.02334,-0.0276 -0.06147,-0.0501 -0.08474,-0.0501 -0.100839,0 -0.216187,-0.20406 -0.240354,-0.42521 -0.01317,-0.12063 -0.0159,-0.22721 -0.0061,-0.23686 0.04,-0.0392 0.08955,0.0338 0.14135,0.2085 0.03009,0.10143 0.0693,0.18442 0.08713,0.18442 0.01783,0 0.05791,-0.0871 0.08908,-0.19346 0.03116,-0.10639 0.06176,-0.19903 0.068,-0.20587 0.0062,-0.007 0.03782,0.0135 0.07018,0.0453 0.04987,0.0488 0.05274,0.0742 0.01881,0.16621 -0.02203,0.0597 -0.04006,0.20119 -0.04006,0.31444 0,0.21612 -0.03235,0.27647 -0.103313,0.19267 z m 3.129624,-0.15505 c -0.107968,-0.14386 -0.171398,-0.42498 -0.126895,-0.56238 0.01349,-0.0417 -0.0055,-0.12262 -0.04801,-0.20416 -0.08014,-0.15393 -0.08992,-0.23893 -0.02744,-0.23842 0.0236,1.9e-4 0.08716,0.0948 0.141219,0.21028 0.05407,0.11546 0.121746,0.25965 0.150396,0.32044 0.02865,0.0607 0.08031,0.1253 0.114806,0.14339 0.103094,0.0541 0.120129,0.24632 0.03251,0.36691 -0.04098,0.0564 -0.08758,0.10254 -0.103543,0.10254 -0.01596,0 -0.07583,-0.0624 -0.133039,-0.1386 z m -0.860561,-0.33006 c -0.04153,-0.0258 -0.04013,-0.0432 0.0093,-0.11725 0.07459,-0.11155 0.112742,-0.11004 0.135253,0.006 0.02721,0.1395 -0.02944,0.18333 -0.144628,0.11189 z m -1.82241,-0.0677 c 0,-0.0846 0.05542,-0.11798 0.08224,-0.0495 0.03289,0.084 0.02464,0.11482 -0.03073,0.11482 -0.02832,0 -0.0515,-0.0294 -0.0515,-0.0653 z m -2.228166,-0.0236 c -0.106705,-0.0732 -0.04167,-0.11183 0.189593,-0.11251 0.169459,-5.7e-4 0.176754,-0.005 0.197421,-0.10566 0.01179,-0.0578 0.02146,-0.19408 0.02146,-0.30279 0,-0.18223 -0.006,-0.19775 -0.07725,-0.19878 l -0.07725,-9.5e-4 0.07725,-0.0631 c 0.0617,-0.0505 0.07771,-0.0993 0.07955,-0.2428 l 0.0023,-0.17965 0.04669,0.14666 c 0.02568,0.0807 0.03816,0.16844 0.02773,0.19507 -0.01043,0.0266 0.0071,0.067 0.03887,0.0898 0.04534,0.0325 0.0507,0.0598 0.02486,0.12641 -0.03517,0.0907 -0.007,0.31044 0.05349,0.41621 0.02848,0.0499 0.02125,0.0871 -0.03256,0.16737 -0.06352,0.0948 -0.08647,0.10392 -0.281059,0.11127 -0.150157,0.006 -0.234964,-0.008 -0.291085,-0.0464 z m 5.701502,-1.20391 c -0.0431,-0.11679 -0.03236,-0.1876 0.02844,-0.1876 0.04831,0 0.06998,0.11008 0.04184,0.21263 l -0.02602,0.0949 z m -1.550639,0.0504 c 0,-0.0394 0.176383,-0.17727 0.198728,-0.15537 0.02945,0.0289 -0.09567,0.18657 -0.148018,0.18657 -0.02789,0 -0.05071,-0.014 -0.05071,-0.0312 z m -0.992566,-0.10642 c -0.08643,-0.0339 -0.171825,-0.12378 -0.173693,-0.1829 -5.85e-4,-0.0199 0.05552,-0.0293 0.133166,-0.022 0.117031,0.011 0.152274,-0.004 0.274615,-0.11686 0.07719,-0.0711 0.14038,-0.14833 0.140412,-0.17147 3.1e-5,-0.0231 0.01551,-0.042 0.03439,-0.042 0.01888,0 0.03434,0.0294 0.03434,0.0653 0,0.036 0.01711,0.0756 0.03804,0.0883 0.02388,0.0145 0.02986,0.0731 0.01608,0.1576 -0.03702,0.22691 -0.07033,0.26099 -0.252734,0.25859 -0.08903,-9.6e-4 -0.199102,-0.0167 -0.244597,-0.0345 z m 0.717895,-0.0306 c 0,-0.0185 0.01545,-0.0337 0.03434,-0.0337 0.01888,0 0.03434,0.0152 0.03434,0.0337 0,0.0185 -0.01545,0.0337 -0.03434,0.0337 -0.01888,0 -0.03434,-0.0152 -0.03434,-0.0337 z m 0.539549,-0.1688 c 0.0098,-0.0367 0.03918,-0.0668 0.0653,-0.0668 0.06887,0 0.05823,0.0593 -0.01781,0.0992 -0.05555,0.0292 -0.06264,0.0243 -0.0475,-0.0324 z m 0.184324,-0.11275 c 0.100939,-0.0874 0.412759,-0.32405 0.427034,-0.32405 0.01037,0 0.0033,0.0284 -0.01561,0.0631 -0.03377,0.0619 -0.341169,0.27334 -0.397271,0.27334 -0.01565,0 -0.02203,-0.006 -0.01416,-0.0124 z m 0.6052,-0.59321 c 0.01987,-0.0745 0.06194,-0.0872 0.09815,-0.0298 0.01298,0.0206 0.0023,0.0506 -0.02373,0.0667 -0.07392,0.0459 -0.09389,0.036 -0.07443,-0.0369 z m -1.550973,-0.0317 c -0.01098,-0.0174 0.02674,-0.0837 0.08381,-0.14743 0.125549,-0.14012 0.128305,-0.17784 0.02017,-0.27605 -0.05685,-0.0516 -0.07754,-0.0986 -0.06467,-0.14685 0.02329,-0.0872 0.08487,-0.0909 0.160103,-0.01 0.07583,0.0821 0.07803,0.43213 0.0033,0.53658 -0.05453,0.0763 -0.166816,0.10018 -0.202787,0.0432 z m 1.440941,-0.21446 c -0.09793,-0.1562 -0.09813,-0.15764 -0.02177,-0.15764 0.05296,0 0.07553,0.029 0.09282,0.11932 0.03022,0.15784 0.01055,0.16845 -0.07105,0.0383 z m 0.497651,0.0854 c 0,-0.0437 0.104688,-0.17571 0.139283,-0.17571 0.05498,0 0.03568,0.15978 -0.02192,0.18144 -0.07388,0.0278 -0.117362,0.0256 -0.117362,-0.006 z m -5.115744,-0.27267 c 0,-0.0185 0.01545,-0.043 0.03434,-0.0545 0.01888,-0.0114 0.03434,-0.006 0.03434,0.0129 0,0.0185 -0.01545,0.043 -0.03434,0.0545 -0.01888,0.0114 -0.03434,0.006 -0.03434,-0.0129 z m 5.174158,-0.0153 c -0.01909,-0.0487 0.03423,-0.12328 0.08818,-0.12328 0.04312,0 0.01522,0.14377 -0.03077,0.1586 -0.02128,0.007 -0.04711,-0.009 -0.0574,-0.0353 z m -6.799163,-0.10552 c -0.04253,-0.0417 -0.05064,-0.23266 -0.0511,-1.20279 -3.9e-4,-0.63428 0.007,-1.17974 0.01608,-1.21212 0.02062,-0.0729 0.09208,-0.076 0.15099,-0.007 0.02441,0.0288 0.09374,0.0726 0.154056,0.0973 0.07314,0.0299 0.117756,0.0765 0.133955,0.13972 0.02581,0.1008 0.01481,0.11409 -0.184087,0.22206 -0.08676,0.0471 -0.105572,0.0784 -0.105572,0.1756 0,0.11194 0.109763,0.36884 0.174293,0.40792 0.01641,0.01 0.04643,0.0785 0.06672,0.15225 0.05118,0.18626 0.102332,0.13361 0.102332,-0.10536 0,-0.10993 0.01339,-0.19987 0.02977,-0.19987 0.01637,0 0.07066,0.0605 0.120655,0.13457 0.09952,0.14737 0.133431,0.15785 0.282056,0.0872 0.06574,-0.0313 0.160705,-0.0413 0.27887,-0.0295 0.153542,0.0154 0.174504,0.0258 0.146499,0.0727 -0.08401,0.14061 -0.1851,0.22318 -0.278046,0.22713 -0.20856,0.009 -0.22964,0.0139 -0.247612,0.0598 -0.03188,0.0814 0.01571,0.18829 0.08382,0.18829 0.0365,0 0.06466,0.0236 0.06466,0.0541 0,0.0333 -0.01905,0.0469 -0.04945,0.0355 -0.04038,-0.0152 -0.04824,0.0227 -0.04291,0.20668 0.0057,0.1983 -0.005,0.24127 -0.08985,0.35897 -0.05301,0.0735 -0.103131,0.14031 -0.111374,0.14839 -0.02624,0.0257 -0.152638,-0.1053 -0.155458,-0.16114 -0.0017,-0.0348 -0.0088,-0.0388 -0.02003,-0.0116 -0.0095,0.0232 -0.05567,0.0421 -0.102549,0.0421 -0.112583,0 -0.218052,0.0575 -0.218052,0.11894 0,0.0635 -0.08369,0.0634 -0.148649,-1.9e-4 z m 0.457654,-0.86085 c 0,-0.0174 -0.01545,-0.0317 -0.03434,-0.0317 -0.01888,0 -0.03434,0.0236 -0.03434,0.0524 0,0.0288 0.01545,0.0431 0.03434,0.0317 0.01888,-0.0114 0.03434,-0.035 0.03434,-0.0525 z m 5.845488,0.21258 c -0.04466,-0.093 -0.08664,-0.13034 -0.160523,-0.14299 -0.137366,-0.0236 -0.143179,-0.0739 -0.01892,-0.16391 0.09314,-0.0675 0.118729,-0.0717 0.224953,-0.0374 0.06592,0.0214 0.223598,0.0337 0.350395,0.0274 l 0.230536,-0.0114 v 0.16821 0.16823 l -0.137335,-0.013 c -0.259079,-0.0245 -0.273995,-0.0218 -0.308493,0.055 -0.04947,0.11029 -0.111845,0.093 -0.180616,-0.0502 z m -2.973381,-0.034 c -0.02596,-0.0412 -0.295,-0.12788 -0.49439,-0.15938 -0.173759,-0.0275 -0.272331,-0.10139 -0.302697,-0.22711 -0.01674,-0.0693 -0.0077,-0.0977 0.03634,-0.11424 0.03224,-0.0121 0.06863,-0.007 0.08089,0.0115 0.01227,0.0185 0.102816,0.0439 0.201244,0.0564 l 0.178957,0.0228 0.158602,-0.19445 c 0.08723,-0.10694 0.187087,-0.25741 0.221904,-0.33437 0.06923,-0.15301 0.152129,-0.19659 0.309534,-0.16271 0.08708,0.0188 0.102286,0.0378 0.102607,0.12867 7.79e-4,0.21278 0.04303,0.36764 0.104686,0.38344 0.03314,0.009 0.06797,0.0443 0.07738,0.0796 0.0094,0.0353 0.04237,0.0642 0.07323,0.0642 0.03086,0 0.101453,0.0329 0.156878,0.073 l 0.100773,0.073 -0.07641,0.0423 c -0.287328,0.15931 -0.545278,0.25792 -0.715459,0.27351 -0.112521,0.0103 -0.201598,0.004 -0.214067,-0.0162 z m 1.556959,-0.14287 c 0,-0.0185 0.01637,-0.0337 0.03636,-0.0337 0.02,0 0.02681,0.0152 0.01515,0.0337 -0.01168,0.0185 -0.02804,0.0337 -0.03636,0.0337 -0.0083,0 -0.01515,-0.0152 -0.01515,-0.0337 z m -3.204492,-0.12337 c -0.03358,-0.0329 -0.02694,-1.16406 0.0071,-1.21675 0.03783,-0.0584 0.09547,0.77378 0.07825,1.12984 -0.0051,0.10432 -0.03574,0.13557 -0.0854,0.0869 z m 4.09118,-0.19289 c -0.163426,-0.0572 -0.394612,-0.23744 -0.457565,-0.35673 -0.06815,-0.12913 -0.09419,-0.3332 -0.05796,-0.4541 0.03043,-0.10154 0.04367,-0.1054 0.221093,-0.0645 0.0711,0.0164 0.09442,0.01 0.09442,-0.0289 0,-0.0279 0.03924,-0.0604 0.0872,-0.0722 0.0785,-0.0193 0.08497,-0.0331 0.06485,-0.13822 -0.01787,-0.0934 -0.01145,-0.11678 0.03209,-0.11678 0.02994,0 0.07699,0.0427 0.104559,0.095 0.02757,0.0523 0.07215,0.11289 0.09908,0.13479 0.0295,0.0239 0.04217,0.0747 0.03188,0.1274 -0.01588,0.0814 -0.01012,0.0861 0.08206,0.0663 0.09757,-0.021 0.09909,-0.0191 0.09579,0.12248 -0.0047,0.20159 -0.04511,0.38644 -0.125223,0.57275 -0.07471,0.17372 -0.08533,0.17812 -0.272261,0.11271 z m 0.914547,-0.44415 c 0.01421,-0.0536 0.03309,-0.18108 0.04196,-0.28321 0.01558,-0.17923 0.01173,-0.18961 -0.110072,-0.29823 -0.151427,-0.13502 -0.238201,-0.31592 -0.192066,-0.4004 0.01756,-0.0321 0.06611,-0.0886 0.107875,-0.12539 l 0.07594,-0.0669 0.05565,0.0841 c 0.03061,0.0463 0.100587,0.12916 0.155507,0.18421 0.144861,0.14522 0.159114,0.33358 0.04286,0.56643 -0.04945,0.0991 -0.09978,0.22839 -0.11182,0.2874 -0.01205,0.059 -0.03759,0.11678 -0.05678,0.12839 -0.02267,0.0137 -0.02583,-0.0131 -0.0091,-0.0764 z m -6.024299,-0.70418 c 0,-0.0597 0.08244,-0.0995 0.13736,-0.0662 0.027,0.0163 0.02627,0.0362 -0.0026,0.0703 -0.05337,0.063 -0.134797,0.0606 -0.134797,-0.004 z m 1.036709,-0.0326 c 7.78e-4,-0.0555 0.0084,-0.0741 0.01711,-0.0414 0.0087,0.0327 0.0081,0.0782 -0.0011,0.10094 -0.0094,0.0228 -0.01653,-0.004 -0.01582,-0.0595 z m -0.479505,0.0106 c 0.01711,-0.0503 0.09514,-0.078 0.09514,-0.0338 0,0.018 -0.02447,0.0421 -0.05437,0.0533 -0.03344,0.0126 -0.04914,0.005 -0.04077,-0.0195 z m 5.233775,-0.85726 c -0.04735,-0.0464 -0.01989,-0.0785 0.06715,-0.0785 0.07615,0 0.08344,0.008 0.0473,0.0504 -0.04651,0.0549 -0.07892,0.0629 -0.114445,0.028 z"
         id="path1185"
         inkscape:connector-curvature="0" />
      <rect
         style="opacity:1;fill:url(#radialGradient1227);fill-opacity:1;fill-rule:nonzero;stroke:none;stroke-width:0.2;stroke-linecap:round;stroke-miterlimit:4;stroke-dasharray:none;stroke-dashoffset:0;stroke-opacity:1"
         id="rect1977"
         width="6.9992471"
         height="10.362257"
         x="12.194912"
         y="281.88858"
         ry="0" />
      <path
         inkscape:connector-curvature="0"
         d="m 18.772901,281.8557 c -0.07965,-1e-4 -0.151004,0.007 -0.186187,0.0197 -0.09232,0.0347 -0.05891,0.12651 0.08379,0.22996 0.156587,0.11352 0.160862,0.13077 0.0683,0.27953 -0.0898,0.14433 -0.174418,0.13929 -0.353062,-0.0208 -0.106082,-0.0951 -0.187046,-0.13603 -0.300555,-0.15228 -0.155087,-0.0222 -0.155457,-0.022 -0.287881,0.14814 -0.185187,0.23797 -0.294924,0.28613 -0.294924,0.12943 0,-0.0335 0.03936,-0.0862 0.08751,-0.11711 0.05546,-0.0356 0.08377,-0.0811 0.07725,-0.12429 -0.0156,-0.10306 -0.06865,-0.10097 -0.200068,0.008 l -0.119197,0.099 0.06006,0.10595 c 0.07443,0.13125 0.07583,0.18944 0.0055,0.22799 -0.04732,0.0259 -0.04882,0.0484 -0.01167,0.16993 0.03396,0.11138 0.03407,0.17796 4.09e-4,0.32537 -0.04659,0.20403 -0.01613,0.35734 0.104813,0.52636 0.07287,0.10183 0.332384,0.26317 0.51028,0.31728 h 1.03e-4 c 0.08416,0.0256 0.140712,0.026 0.188803,9.6e-4 0.03777,-0.0194 0.08924,-0.0312 0.114368,-0.0261 0.02513,0.005 0.08252,-0.0145 0.127544,-0.0434 0.101351,-0.065 0.197136,-0.0668 0.318159,-0.006 0.05123,0.0259 0.154747,0.0524 0.230043,0.0588 l 0.1369,0.0115 0.0066,-0.68721 c 0.006,-0.63221 0.0012,-0.69452 -0.06005,-0.77888 -0.07956,-0.1095 -0.08632,-0.24219 -0.01518,-0.30004 0.03256,-0.0265 0.0515,-0.10068 0.0515,-0.20177 0,-0.15217 -0.0052,-0.16085 -0.107227,-0.18087 -0.06826,-0.0134 -0.156221,-0.0202 -0.235877,-0.0203 z m -6.576912,0.0329 c -0.06126,0 -0.02355,0.49336 0.04567,0.59781 0.04504,0.068 0.06881,0.0739 0.217872,0.0546 0.182312,-0.0237 0.182728,-0.0234 0.133881,0.10251 -0.03741,0.0964 -0.08922,0.10868 -0.169891,0.0403 -0.09016,-0.0765 -0.232786,-0.096 -0.256599,-0.0352 -0.01141,0.0292 -0.02072,0.61169 -0.02072,1.29449 v 1.24146 l 0.09234,0.0227 c 0.07218,0.0177 0.103119,0.007 0.141528,-0.0498 0.06468,-0.0954 0.163154,-0.0917 0.301158,0.0114 0.0618,0.0462 0.135481,0.0753 0.163757,0.0647 0.03184,-0.012 0.07389,0.0142 0.110445,0.0688 0.07149,0.10691 0.164917,0.0986 0.180957,-0.016 0.0065,-0.0461 0.0329,-0.10694 0.05874,-0.13533 0.04026,-0.0442 0.0372,-0.0577 -0.02112,-0.0933 -0.04842,-0.0297 -0.08709,-0.0317 -0.133883,-0.007 -0.06905,0.0362 -0.134781,-0.0106 -0.07001,-0.0498 0.01947,-0.0118 0.06793,-0.0848 0.107728,-0.16214 0.0398,-0.0773 0.154888,-0.22028 0.255794,-0.31759 0.178502,-0.17213 0.205138,-0.25099 0.106523,-0.3158 -0.07307,-0.048 0.0084,-0.18507 0.132071,-0.22228 0.140342,-0.0421 0.176996,-0.005 0.139213,0.14313 -0.01861,0.0727 -0.01,0.084 0.06327,0.084 0.04663,0 0.100627,0.0265 0.120103,0.0588 0.03089,0.0514 0.03988,0.0525 0.06991,0.009 0.01894,-0.0278 0.03471,-0.0851 0.03491,-0.12725 3.9e-4,-0.0422 0.02361,-0.13093 0.0518,-0.19703 0.0282,-0.0661 0.04243,-0.15481 0.03158,-0.19714 -0.02945,-0.11495 0.07585,-0.28419 0.211334,-0.33966 0.06484,-0.0265 0.117889,-0.0713 0.117889,-0.0994 0,-0.042 -0.03255,-0.0474 -0.180255,-0.0304 -0.09914,0.0113 -0.1996,0.0266 -0.223201,0.0338 -0.04616,0.014 -0.05666,-0.0893 -0.04386,-0.43064 0.0055,-0.14798 -0.0042,-0.1935 -0.04144,-0.1935 -0.08498,0 -0.13208,0.37358 -0.09697,0.76972 0.01702,0.19192 0.01898,0.38069 0.0043,0.4195 -0.02587,0.0686 -0.02966,0.0677 -0.130058,-0.0307 -0.09549,-0.0935 -0.123131,-0.10175 -0.363121,-0.10626 -0.188508,-0.004 -0.271029,0.009 -0.300657,0.0434 -0.02246,0.0265 -0.06243,0.0482 -0.08872,0.0482 -0.07009,0 -0.185092,-0.20315 -0.163254,-0.28842 0.03145,-0.1228 -0.109961,-0.13095 -0.200068,-0.0115 -0.04069,0.054 -0.08318,0.0981 -0.09445,0.0981 -0.01127,0 -0.04895,-0.0471 -0.08369,-0.10478 l -0.06317,-0.10477 0.132977,-0.11267 c 0.07315,-0.062 0.179428,-0.1581 0.236079,-0.21359 0.05665,-0.0555 0.193282,-0.14113 0.303673,-0.19024 l 0.200773,-0.0893 0.09466,0.0687 c 0.131511,0.0953 0.17421,0.0986 0.302165,0.0236 0.196321,-0.11494 0.119314,-0.33887 -0.08127,-0.23637 -0.12172,0.0622 -0.272132,0.0627 -0.560876,0.002 -0.276955,-0.0582 -0.32295,-0.11042 -0.257302,-0.29274 0.04252,-0.11811 0.04175,-0.14354 -0.0066,-0.21577 -0.066,-0.0987 -0.06565,-0.0986 -0.173815,-0.0153 -0.06198,0.0478 -0.103027,0.0578 -0.145551,0.0355 -0.09431,-0.0495 -0.148064,-0.12925 -0.148064,-0.2199 0,-0.0464 -0.01993,-0.084 -0.04456,-0.084 z m 1.98972,0.25154 c -0.01141,-0.004 -0.03154,0.025 -0.07393,0.0953 -0.04249,0.0705 -0.07725,0.14242 -0.07725,0.15988 0,0.0597 0.06079,0.0317 0.118391,-0.0544 0.03167,-0.0474 0.05275,-0.11934 0.04687,-0.15987 -0.0035,-0.0242 -0.0072,-0.0384 -0.01409,-0.0408 z m 0.829848,0.0323 c -0.0082,-0.002 -0.02049,5.7e-4 -0.03681,0.007 -0.02832,0.0107 -0.05098,0.0518 -0.05039,0.0915 0.0011,0.0707 0.0021,0.0707 0.0515,0.007 0.04845,-0.0628 0.06037,-0.10043 0.03571,-0.10497 z m 3.587955,0.68692 c 0.0296,0.005 0.08618,0.038 0.1542,0.0927 0.179953,0.14449 0.193794,0.2335 0.06236,0.40235 -0.111628,0.14341 -0.19711,0.14785 -0.253983,0.0134 -0.04208,-0.0996 -0.03077,-0.42661 0.0174,-0.503 0.0032,-0.005 0.01015,-0.007 0.02002,-0.006 z m -2.687195,0.4604 c -0.314114,9.5e-4 -0.340929,0.007 -0.480607,0.1033 -0.08137,0.0562 -0.195628,0.12074 -0.253882,0.14352 -0.05825,0.0228 -0.194044,0.12701 -0.301663,0.23163 -0.17538,0.17046 -0.193366,0.20089 -0.173613,0.29265 0.01213,0.0564 0.05129,0.1336 0.087,0.1718 0.03573,0.0382 0.06498,0.0931 0.06498,0.12193 0,0.077 0.294484,0.32985 0.38545,0.33118 0.121154,0.002 0.180562,0.0709 0.186792,0.21764 0.0031,0.074 0.007,0.14583 0.0086,0.15978 0.0059,0.0507 0.07152,0.0234 0.07152,-0.0298 0,-0.0302 0.04042,-0.0916 0.08972,-0.13642 0.06799,-0.0617 0.112727,-0.0764 0.185482,-0.0607 0.05378,0.0115 0.105798,0.005 0.118392,-0.015 0.01236,-0.0196 0.05055,-0.0357 0.0849,-0.0357 0.03435,0 0.08093,-0.0217 0.103504,-0.0483 0.02257,-0.0266 0.06413,-0.0398 0.09234,-0.0292 0.02822,0.0106 0.0882,-5e-5 0.133179,-0.0237 0.06519,-0.0341 0.102459,-0.0344 0.183571,-0.002 0.09361,0.038 0.11777,0.0312 0.302065,-0.0842 0.110205,-0.0689 0.285413,-0.19466 0.389274,-0.27934 0.10386,-0.0847 0.196562,-0.15998 0.206003,-0.16736 0.0094,-0.008 -0.01283,-0.0306 -0.04949,-0.0516 -0.03666,-0.021 -0.102931,-0.072 -0.14726,-0.11355 -0.06335,-0.0593 -0.07326,-0.089 -0.04617,-0.13859 0.0428,-0.0784 0.01705,-0.10556 -0.09978,-0.10556 -0.05498,0 -0.127653,-0.0377 -0.184176,-0.0955 -0.05136,-0.0525 -0.212667,-0.15473 -0.358392,-0.2271 -0.254852,-0.12657 -0.277658,-0.13146 -0.597692,-0.13031 z m 2.526657,0.77395 c -0.0349,0.002 -0.06544,0.0238 -0.119598,0.0739 -0.110115,0.10184 -0.12978,0.17693 -0.04637,0.17693 0.02957,0 0.0841,0.0159 0.121208,0.0354 0.067,0.0351 0.06704,0.0362 -0.0015,0.1305 l -0.0691,0.095 0.128048,0.0862 c 0.07045,0.0474 0.139628,0.0871 0.153798,0.0882 0.04351,0.004 0.166735,-0.13323 0.147562,-0.16362 -0.03619,-0.0574 0.08489,-0.10926 0.228837,-0.0981 l 0.14726,0.0114 v -0.20186 -0.20187 l -0.26183,0.01 c -0.143964,0.005 -0.303516,-0.007 -0.354671,-0.0255 -0.03017,-0.0112 -0.0527,-0.0172 -0.07363,-0.016 z m -0.440875,0.33859 c -0.02094,-2e-4 -0.04311,0.0171 -0.07212,0.0485 -0.03417,0.037 -0.144101,0.0905 -0.244226,0.11907 -0.245855,0.0701 -0.415625,0.28319 -0.269374,0.33819 0.06383,0.024 0.06794,0.19245 0.0059,0.24287 -0.03501,0.0285 -0.06298,0.0139 -0.120805,-0.0627 -0.06238,-0.0827 -0.341761,-0.25469 -0.368251,-0.2267 -0.0043,0.005 -0.06241,0.1474 -0.129255,0.31748 -0.06684,0.17008 -0.147835,0.34851 -0.17995,0.39654 -0.0561,0.0839 -0.05532,0.0905 0.01902,0.16805 l 0.07735,0.0807 -0.149172,0.17338 c -0.08205,0.0954 -0.174773,0.18676 -0.206002,0.20315 -0.03123,0.0164 -0.06703,0.0698 -0.07957,0.11878 -0.02681,0.10463 0.04623,0.20127 0.20369,0.26938 0.05665,0.0245 0.149352,0.0449 0.206003,0.0453 0.199359,0.002 0.251951,-0.0313 0.310312,-0.19516 0.03062,-0.0859 0.07803,-0.20184 0.105416,-0.25756 0.07396,-0.15051 0.219482,-0.68972 0.219482,-0.81328 0,-0.11866 0.05358,-0.17351 0.112858,-0.11542 0.08545,0.0837 0.192716,0.0414 0.267664,-0.10557 0.08968,-0.17589 0.190539,-0.25897 0.315543,-0.25992 0.145079,-9.5e-4 0.185376,-0.1367 0.09596,-0.32311 -0.05407,-0.11271 -0.08559,-0.16159 -0.120503,-0.16194 z m -3.384968,0.0886 c -0.0407,9.5e-4 -0.07884,0.0478 -0.05231,0.0899 0.01269,0.0201 0.03675,0.0365 0.05341,0.0365 0.05302,0 0.07784,-0.0718 0.03823,-0.11059 -0.01184,-0.0116 -0.02577,-0.0162 -0.03933,-0.0158 z m 4.463266,0.2679 c -0.02162,5.7e-4 -0.0331,0.0311 -0.0331,0.0889 0,0.11024 -0.07424,0.2048 -0.165466,0.21073 -0.364606,0.0236 -0.483907,0.0524 -0.565403,0.13553 -0.03378,0.0344 -0.0861,0.0626 -0.116178,0.0626 -0.116054,0 -0.629241,0.3763 -0.629276,0.4614 -9e-6,0.0224 -0.02895,0.0678 -0.06437,0.10092 -0.03542,0.0331 -0.07616,0.0979 -0.09053,0.14421 -0.01437,0.0462 -0.0622,0.12649 -0.106321,0.17821 -0.09336,0.10944 -0.169322,0.3316 -0.139415,0.40798 0.02422,0.0619 0.255785,0.16935 0.452141,0.20985 0.192823,0.0398 0.208089,0.15098 0.0345,0.25134 -0.08813,0.0509 -0.11402,0.0827 -0.08821,0.10794 0.02009,0.0196 0.03651,0.10799 0.03651,0.19634 0,0.14751 -0.01651,0.17951 -0.202281,0.39102 -0.111263,0.12668 -0.207884,0.25895 -0.214755,0.29393 -0.008,0.0407 -0.05329,0.0717 -0.126136,0.0863 -0.09001,0.018 -0.127467,0.009 -0.180052,-0.0471 -0.08951,-0.0941 -0.08268,-0.19226 0.02002,-0.28772 0.04688,-0.0436 0.08562,-0.0966 0.0862,-0.11779 5.26e-4,-0.0212 0.04688,-0.098 0.103002,-0.17072 0.104234,-0.13499 0.124646,-0.18747 0.07292,-0.18747 -0.01601,0 -0.05749,0.0616 -0.09214,0.13691 -0.06044,0.13135 -0.193872,0.23321 -0.305585,0.23321 -0.02893,0 -0.09541,-0.0368 -0.147663,-0.0817 -0.05226,-0.0449 -0.144869,-0.12445 -0.2058,-0.17664 -0.0924,-0.0791 -0.116567,-0.13125 -0.145652,-0.31364 -0.01917,-0.12028 -0.03496,-0.29144 -0.03511,-0.38037 -1.95e-4,-0.13909 -0.01579,-0.17553 -0.110948,-0.26072 -0.06086,-0.0545 -0.126566,-0.0985 -0.145953,-0.098 -0.175647,0.006 -0.287043,0.48335 -0.151887,0.65173 0.05253,0.0654 0.06473,0.11387 0.04768,0.18994 -0.01398,0.0624 -0.0068,0.12113 0.01861,0.1511 0.0526,0.0621 -0.0013,0.13437 -0.122717,0.16422 -0.04643,0.0114 -0.08439,0.0432 -0.08439,0.0706 0,0.0274 -0.02317,0.0499 -0.0515,0.0499 -0.03727,0 -0.0515,-0.0376 -0.0515,-0.13573 0,-0.16256 -0.148764,-0.46988 -0.227427,-0.46988 -0.07569,0 -0.30894,0.18671 -0.379517,0.30379 -0.03214,0.0533 -0.09023,0.1014 -0.129155,0.10685 -0.05517,0.008 -0.08096,0.0519 -0.116982,0.20049 -0.04025,0.16606 -0.03916,0.21375 0.0087,0.37012 0.05846,0.19117 0.181745,0.3443 0.354268,0.4402 0.05825,0.0324 0.1145,0.0588 0.125031,0.0588 0.01053,0 0.03593,-0.0612 0.05653,-0.13622 0.02073,-0.0754 0.0635,-0.1443 0.09576,-0.15417 0.03206,-0.01 0.121763,-0.0469 0.199365,-0.0824 0.0776,-0.0355 0.158267,-0.0646 0.179144,-0.0646 0.06048,0 0.275016,0.19895 0.300959,0.27904 0.013,0.0402 0.0542,0.11345 0.09153,0.16293 0.03734,0.0495 0.05826,0.10529 0.04647,0.124 -0.01179,0.0187 -0.0055,0.0753 0.01409,0.12577 0.02509,0.0647 0.02427,0.12559 -0.0029,0.20601 -0.03114,0.0925 -0.02844,0.12914 0.01418,0.1929 0.03861,0.0577 0.04974,0.14634 0.04154,0.33197 -0.0061,0.13925 -0.02161,0.26971 -0.0344,0.28999 -0.07736,0.12264 -0.431219,-0.0686 -0.431219,-0.23301 0,-0.0602 -0.0093,-0.0672 -0.04798,-0.0358 -0.0372,0.0302 -0.0788,0.0234 -0.18478,-0.0307 -0.07519,-0.0384 -0.163902,-0.0993 -0.197151,-0.13533 -0.04016,-0.0435 -0.08637,-0.059 -0.137705,-0.0464 -0.0425,0.0105 -0.08757,0.003 -0.100186,-0.0174 -0.01261,-0.02 -0.06938,-0.0363 -0.126136,-0.0363 -0.08261,0 -0.15582,-0.0511 -0.367042,-0.25647 -0.145127,-0.14108 -0.344157,-0.3151 -0.442283,-0.38668 -0.15001,-0.10943 -0.18807,-0.16008 -0.238896,-0.31808 -0.04615,-0.14348 -0.06893,-0.17707 -0.09626,-0.14214 -0.01969,0.0252 -0.101154,0.0666 -0.180956,0.0918 -0.14034,0.0445 -0.152122,0.0424 -0.360304,-0.0664 -0.257413,-0.13444 -0.319248,-0.18729 -0.368955,-0.31541 -0.03337,-0.086 -0.04239,-0.0909 -0.07946,-0.042 -0.0383,0.0504 -0.0563,0.0484 -0.213446,-0.0238 -0.185987,-0.0856 -0.301027,-0.18994 -0.288686,-0.2619 0.01043,-0.0607 -0.05985,-0.22344 -0.123522,-0.28584 -0.0456,-0.0447 -0.0513,-0.0412 -0.0513,0.0311 0,0.0447 0.02456,0.1297 0.05462,0.18876 0.06092,0.11967 0.04465,0.20571 -0.03893,0.20571 -0.03299,0 -0.0506,0.0226 -0.04396,0.0562 0.0067,0.034 0.09038,0.0838 0.211635,0.12617 0.201732,0.0705 0.400239,0.22587 0.400239,0.31335 0,0.0259 -0.0167,0.0776 -0.03712,0.11502 -0.0556,0.10182 -0.02172,0.10584 0.116683,0.0138 0.06891,-0.0458 0.133489,-0.0686 0.144645,-0.0508 0.0111,0.0176 0.06494,0.0319 0.119598,0.0319 0.141001,0 0.274202,0.0675 0.274202,0.13898 0,0.036 -0.05653,0.0922 -0.138409,0.1376 -0.102376,0.0567 -0.177271,0.14246 -0.287279,0.32901 -0.08184,0.13879 -0.159212,0.28512 -0.171903,0.32509 -0.04551,0.14329 -0.10818,0.15657 -0.205298,0.0435 -0.09676,-0.11268 -0.105794,-0.15351 -0.06035,-0.27383 0.01618,-0.0428 0.03998,-0.18211 0.05291,-0.3095 l 0.02354,-0.23163 -0.147362,0.0229 c -0.267984,0.0415 -0.284663,0.0812 -0.284663,0.67529 0,0.56706 0.01845,0.63024 0.165266,0.56469 0.109506,-0.0489 0.172125,-0.004 0.168484,0.12203 -0.0045,0.1548 -0.03261,0.17929 -0.178442,0.15514 -0.119508,-0.0198 -0.131301,-0.0145 -0.15259,0.0686 -0.01641,0.0641 0.0022,0.13751 0.06437,0.25401 0.108275,0.20301 0.108353,0.22444 0.0015,0.27215 -0.0812,0.0362 -0.0858,0.0529 -0.0858,0.3087 0,0.23624 0.01127,0.28625 0.08912,0.39634 0.09435,0.13342 0.08702,0.19723 -0.02254,0.19723 -0.06193,0 -0.06659,0.0262 -0.06659,0.37013 v 0.37002 h 0.401243 c 0.360168,0 0.409078,-0.008 0.477892,-0.0706 0.05964,-0.0549 0.100639,-0.0654 0.184778,-0.0473 0.05947,0.0128 0.116461,0.0445 0.12664,0.0706 0.01373,0.035 0.08781,0.0473 0.285669,0.0473 h 0.26726 l 0.02203,-0.12617 c 0.03239,-0.18527 0.13265,-0.51304 0.156917,-0.51304 0.01154,0 0.107865,0.0826 0.214151,0.18344 l 0.193329,0.18333 0.182666,-0.0987 c 0.100484,-0.0543 0.192212,-0.0989 0.20389,-0.0992 0.04003,-9.6e-4 0.05987,0.2816 0.02435,0.34666 -0.02633,0.0482 -0.02349,0.0725 0.01096,0.0938 0.02556,0.0158 0.689137,0.0278 1.474611,0.0267 1.347318,-0.002 1.433744,-0.006 1.527823,-0.0666 0.128142,-0.0828 0.224074,-0.0821 0.29784,0.002 0.0532,0.0609 0.101263,0.0673 0.505453,0.0673 h 0.446709 v -0.78539 c 0,-0.7427 -0.0038,-0.78882 -0.0687,-0.8464 -0.03777,-0.0335 -0.0687,-0.0789 -0.0687,-0.10094 0,-0.022 0.03093,-0.075 0.0687,-0.11768 0.06536,-0.0738 0.0687,-0.12589 0.0687,-1.07902 0,-0.55079 -0.0088,-1.0237 -0.01942,-1.05093 -0.04019,-0.10263 -0.255291,0.005 -0.255291,0.12765 0,0.0415 -0.0346,0.11866 -0.07695,0.17141 -0.09788,0.12194 -0.09714,0.35726 0.0015,0.46356 0.115978,0.12499 0.147209,0.21102 0.110646,0.30526 -0.0395,0.10181 -0.172828,0.11358 -0.395711,0.0349 -0.07554,-0.0267 -0.18416,-0.0488 -0.24141,-0.049 -0.09389,-3.8e-4 -0.10862,0.0144 -0.149875,0.1513 -0.02516,0.0834 -0.05558,0.15722 -0.0676,0.16391 -0.01201,0.007 -0.09007,0.003 -0.173513,-0.009 -0.163193,-0.0226 -0.227506,-0.0978 -0.109439,-0.12804 0.09929,-0.0255 0.09143,-0.0564 -0.04788,-0.18905 -0.106817,-0.10165 -0.163348,-0.2575 -0.09435,-0.25992 0.01417,-5.8e-4 0.07772,-0.0432 0.141326,-0.0949 0.114921,-0.0935 0.115365,-0.0946 0.06015,-0.1992 -0.03056,-0.0579 -0.05562,-0.11433 -0.05562,-0.12538 0,-0.0464 0.30621,-0.31975 0.358292,-0.31975 0.03127,0 0.09652,0.0389 0.144947,0.0863 0.104258,0.10216 0.145799,0.0921 0.267462,-0.0642 0.06173,-0.0793 0.09348,-0.16445 0.09807,-0.26318 0.0064,-0.13637 5.25e-4,-0.14661 -0.08841,-0.15662 -0.111545,-0.0126 -0.212791,-0.1439 -0.186589,-0.24208 0.01189,-0.0445 -0.004,-0.0792 -0.04667,-0.10163 -0.161706,-0.0848 -0.152204,-0.33817 0.01459,-0.38914 0.09076,-0.0277 0.123749,-0.0744 0.124528,-0.17555 4.67e-4,-0.0709 -0.01253,-0.077 -0.144343,-0.0672 -0.114696,0.009 -0.147357,-9.5e-4 -0.156816,-0.047 -0.0084,-0.0405 0.01687,-0.0635 0.08479,-0.077 0.05318,-0.0107 0.193139,-0.068 0.311016,-0.12736 0.240594,-0.12122 0.326134,-0.10686 0.346123,0.0582 0.0118,0.0975 -0.07409,0.2208 -0.153799,0.2208 -0.06976,0 -0.06123,0.28221 0.01026,0.34035 0.03101,0.0253 0.13155,0.0474 0.223505,0.0493 l 0.167278,0.004 -0.0091,-1.26196 c -0.007,-0.97332 -0.01881,-1.26515 -0.0519,-1.27596 -0.0035,-9.6e-4 -0.0068,-0.002 -0.0099,-0.002 z m -4.451097,0.0617 c -0.0079,-1.1e-4 -0.01829,0.0162 -0.03017,0.0528 -0.01137,0.035 -0.04349,0.1053 -0.07142,0.15623 -0.02786,0.0509 -0.04121,0.1077 -0.02957,0.12617 0.05403,0.0856 0.114769,0.0252 0.137504,-0.13682 0.01662,-0.11848 0.01109,-0.19819 -0.0064,-0.19841 z m -0.729962,0.28072 c -0.05676,-0.006 -0.139516,0.0951 -0.139516,0.19427 h 1.03e-4 c 0,0.11823 0.05686,0.12428 0.109239,0.0116 0.02151,-0.0462 0.05205,-0.0842 0.0679,-0.0842 0.03733,0 0.03586,-0.038 -0.0039,-0.0996 -0.0091,-0.0139 -0.02069,-0.0209 -0.03379,-0.0222 z m 0.334755,0.0536 c -0.07178,2e-5 -0.174133,0.0169 -0.209726,0.0429 -0.0438,0.0319 -0.05263,0.0721 -0.03662,0.16717 0.01775,0.10528 0.03039,0.12018 0.08007,0.0941 0.05774,-0.0303 0.241409,-0.24653 0.241409,-0.28427 0,-0.0138 -0.03207,-0.0199 -0.07513,-0.0199 z m 3.216686,1.07241 c 0.01794,0 0.03809,0.0163 0.04486,0.0361 0.0068,0.0199 -0.01339,0.0361 -0.04486,0.0361 -0.03147,0 -0.05173,-0.0163 -0.04496,-0.0361 0.0068,-0.0199 0.02701,-0.0361 0.04496,-0.0361 z m -4.319929,0.0726 c -0.14656,-3.8e-4 -0.408003,0.16075 -0.383541,0.23628 0.0108,0.0334 0.0026,0.071 -0.01842,0.0836 -0.02094,0.0127 -0.02896,0.0462 -0.01791,0.0744 0.0111,0.0283 -0.0058,0.0698 -0.03762,0.0927 -0.07501,0.0538 -0.0371,0.15199 0.05864,0.15199 0.04409,0 0.08009,0.0267 0.09093,0.0673 0.0099,0.037 0.03174,0.0673 0.04859,0.0673 0.01683,0 0.0208,0.0814 0.0089,0.18107 l -0.02172,0.18117 0.193129,0.22305 c 0.106203,0.12269 0.193028,0.2506 0.193028,0.28427 0,0.0337 0.01033,0.0713 0.02294,0.0837 0.03681,0.036 0.07461,0.026 0.105415,-0.0279 0.02998,-0.0524 0.398351,-0.13562 0.453349,-0.10231 0.01738,0.0105 0.04136,0.004 0.05321,-0.0151 0.01186,-0.0188 0.04872,-0.0342 0.08187,-0.0342 0.0333,0 0.08605,-0.0489 0.117889,-0.10931 0.03171,-0.0602 0.07165,-0.13203 0.08881,-0.15978 0.01717,-0.0277 0.05148,-0.11713 0.07615,-0.19852 0.02702,-0.0892 0.06926,-0.15421 0.106321,-0.16371 0.07664,-0.0197 0.07928,-0.0613 0.0056,-0.089 -0.03261,-0.0123 -0.07303,0.002 -0.09707,0.0342 -0.0535,0.0717 -0.166201,0.0378 -0.2397,-0.0722 -0.03045,-0.0456 -0.07915,-0.0828 -0.10823,-0.0828 -0.03036,0 -0.04965,-0.0251 -0.04526,-0.0588 0.01943,-0.1502 -0.08554,-0.41203 -0.165566,-0.41279 -0.03345,-3.8e-4 -0.0969,-0.0378 -0.140924,-0.0833 -0.08417,-0.087 -0.265822,-0.15101 -0.428803,-0.15139 z m 2.352339,0.0379 c -0.0098,-0.003 -0.0059,0.0255 0.01479,0.0784 0.01177,0.03 0.02858,0.0476 0.03741,0.0389 0.0089,-0.009 -1.94e-4,-0.0433 -0.02032,-0.077 -0.01519,-0.0256 -0.02599,-0.0385 -0.03189,-0.0402 z m -2.249943,0.13178 c 0.01754,9.5e-4 0.03321,0.0113 0.03873,0.0276 0.0073,0.0216 0.07313,0.11727 0.146155,0.21251 0.07303,0.0953 0.124804,0.18573 0.115071,0.20118 v 1.1e-4 c -0.02644,0.0419 -0.165724,0.0338 -0.212842,-0.0123 -0.05608,-0.0549 -0.05172,-0.0942 0.01035,-0.0942 0.07074,0 0.06652,-0.0138 -0.05352,-0.17624 -0.07163,-0.0969 -0.09133,-0.14659 -0.06187,-0.15623 0.0059,-0.002 0.01207,-0.003 0.01791,-0.002 z m -0.08027,0.13986 c 0.0071,9.6e-4 0.01715,0.008 0.02947,0.0195 0.02231,0.0219 0.03269,0.0477 0.02294,0.0572 -0.02292,0.0225 -0.06357,-0.0174 -0.06357,-0.0623 0,-0.0106 0.0041,-0.0152 0.01117,-0.0144 z m 1.881289,0.094 c -0.01855,0 -0.04338,0.0297 -0.05513,0.0659 -0.01173,0.0362 -0.108067,0.10821 -0.21415,0.15988 -0.106082,0.0517 -0.198614,0.11097 -0.205601,0.13178 -0.01489,0.0444 0.154033,0.0522 0.181661,0.009 0.01022,-0.0162 0.0472,-0.0295 0.08218,-0.0295 0.110864,0 0.447313,-0.14206 0.447313,-0.18886 0,-0.0433 -0.166978,-0.14755 -0.23628,-0.14755 z m -2.715158,0.0465 c -0.01707,-3.9e-4 -0.03801,0.003 -0.06357,0.01 -0.07216,0.0185 -0.07267,0.0218 -0.01579,0.11622 0.07613,0.12623 0.146758,0.12538 0.146758,-0.002 0,-0.0866 -0.01618,-0.1223 -0.0674,-0.1237 z m 0.891406,0.25627 c 0.03777,0 0.0687,0.0146 0.0687,0.0324 0,0.0178 -0.03093,0.0487 -0.0687,0.0685 -0.05822,0.0305 -0.0687,0.0256 -0.0687,-0.0324 0,-0.046 0.02252,-0.0685 0.0687,-0.0685 z m 4.579646,0.48653 c 0.09855,-0.007 0.228274,0.0615 0.248653,0.14105 0.03129,0.12216 -0.01158,0.32507 -0.07886,0.37328 -0.09168,0.0657 -0.146353,0.0511 -0.272291,-0.0723 -0.176079,-0.17255 -0.148943,-0.36079 0.06256,-0.43419 0.01239,-0.005 0.02585,-0.007 0.03993,-0.008 z m -2.363905,0.32094 c 0.06061,0 0.06656,0.10513 0.0092,0.16145 -0.05106,0.0501 -0.130562,0.0528 -0.130562,0.005 0,-0.0685 0.07138,-0.16599 0.12141,-0.16599 z m 2.106201,0.24286 c 0.09461,0.003 0.210127,0.085 0.210127,0.15979 0,0.0356 -0.03477,0.10205 -0.07725,0.14784 -0.106978,0.11531 -0.19684,0.13241 -0.317656,0.0603 -0.226845,-0.13553 -0.248589,-0.27008 -0.0512,-0.3169 0.06598,-0.0156 0.154699,-0.0369 0.197152,-0.0473 0.01227,-0.003 0.02531,-0.004 0.03883,-0.004 z m -3.690956,0.20759 c 0.01252,3.8e-4 0.02132,0.0137 0.02132,0.0354 0,0.0591 -0.02056,0.0678 -0.04999,0.0212 -0.01086,-0.0173 -0.004,-0.0408 0.01519,-0.0524 0.0048,-0.003 0.0093,-0.004 0.01347,-0.004 z m 3.052728,0.0572 c 0.02887,-0.002 0.05695,0.008 0.09173,0.0293 0.03888,0.0241 0.04264,0.0525 0.0165,0.12557 -0.04702,0.13157 -0.172369,0.14576 -0.228133,0.0258 -0.03632,-0.0781 -0.03315,-0.0963 0.02344,-0.13681 0.03797,-0.0272 0.06758,-0.0417 0.09646,-0.0439 z m -0.160839,0.2411 c 0.04124,9.5e-4 0.08218,0.0218 0.08218,0.0541 0,0.0471 -0.08578,0.0695 -0.140119,0.0365 -0.03683,-0.0223 -0.03872,-0.0383 -0.0078,-0.0686 0.01618,-0.0158 0.04104,-0.0226 0.06578,-0.022 z m -2.812325,0.0298 c 0.05638,0.002 0.129911,0.0663 0.19031,0.1795 0.05306,0.0995 0.05255,0.10058 -0.07182,0.17555 -0.06885,0.0415 -0.135867,0.0759 -0.148869,0.0765 -0.03594,0.002 -0.07208,-0.28539 -0.04607,-0.36569 0.01495,-0.0461 0.04262,-0.0671 0.07644,-0.0659 z m 3.235496,0.0958 c 0.104452,-0.006 0.228824,0.0857 0.263238,0.2201 0.01647,0.0644 0.0018,0.10811 -0.05663,0.16905 -0.100803,0.10515 -0.1364,0.10341 -0.249356,-0.0121 -0.09874,-0.10099 -0.123598,-0.26517 -0.051,-0.33631 0.02633,-0.0258 0.05893,-0.0387 0.09374,-0.0407 z m -2.6884,0.37772 c 0.02874,-0.002 0.0472,0.0129 0.08077,0.0427 0.08832,0.0783 0.08858,0.21972 5.84e-4,0.3293 -0.08309,0.10352 -0.08543,0.12538 -0.01349,0.12538 0.03945,0 0.04786,0.0169 0.02947,0.0589 -0.173914,0.3982 -0.167569,0.51624 0.03239,0.59811 0.06136,0.0251 0.130976,0.0686 0.154703,0.0966 0.04454,0.0525 0.02467,0.12113 -0.03511,0.12113 -0.01866,0 -0.07197,0.0417 -0.118493,0.0926 -0.07594,0.0831 -0.08247,0.11227 -0.06367,0.28594 h -1.03e-4 c 0.01625,0.15012 0.01067,0.19328 -0.02524,0.1929 -0.07983,-9.5e-4 -0.116953,-0.0453 -0.160942,-0.1929 -0.04551,-0.15268 -0.103611,-0.18573 -0.132976,-0.0757 -0.0099,0.037 -0.03542,0.0675 -0.05683,0.0677 -0.0214,1.9e-4 -0.07614,0.0103 -0.12161,0.0222 -0.07195,0.0189 -0.08015,0.0123 -0.06327,-0.0509 0.02225,-0.0833 -0.03174,-0.0647 -0.106422,0.0369 -0.06941,0.0944 -0.196163,0.13006 -0.528688,0.14894 -0.334612,0.019 -0.362655,-0.002 -0.197453,-0.14587 0.06369,-0.0556 0.103115,-0.12317 0.103505,-0.17694 5.83e-4,-0.11071 0.02544,-0.14471 0.161543,-0.22227 0.121067,-0.069 0.173074,-0.15071 0.09596,-0.15071 -0.07722,0 -0.104712,-0.21985 -0.03963,-0.31719 0.07443,-0.11131 0.171074,-0.1341 0.349441,-0.0825 0.136132,0.0394 0.14883,0.0518 0.129657,0.12667 l -0.02123,0.083 0.116781,-0.069 c 0.06425,-0.038 0.134569,-0.0625 0.156315,-0.0546 0.02174,0.008 0.06427,-0.0342 0.09445,-0.0935 0.06269,-0.12313 0.07041,-0.17814 0.02072,-0.14805 -0.154534,0.0935 -0.222867,0.0124 -0.209826,-0.24948 0.01,-0.20046 0.04529,-0.25393 0.226122,-0.34242 0.07474,-0.0365 0.113789,-0.0549 0.142531,-0.0567 z m 2.263921,0.0579 c 0.08446,-6e-5 0.152189,0.0683 0.152189,0.18717 0,0.11717 -0.05263,0.18512 -0.143438,0.18512 -0.03355,0 -0.08635,0.0378 -0.117285,0.0841 -0.08376,0.12527 -0.173222,0.10911 -0.201074,-0.0363 -0.02406,-0.12568 0.0055,-0.193 0.150479,-0.34213 0.05171,-0.0532 0.108456,-0.0778 0.159129,-0.0778 z m -1.550857,0.33858 c 0.07546,0 0.431232,0.24551 0.452945,0.31255 0.028,0.0865 -0.04578,0.25569 -0.166875,0.38274 -0.0558,0.0586 -0.09143,0.12232 -0.07917,0.14174 0.01226,0.0195 -0.0092,0.0661 -0.04768,0.10379 v 1.1e-4 c -0.08774,0.0859 -0.159979,0.0862 -0.302367,9.5e-4 -0.08738,-0.0523 -0.108268,-0.0838 -0.09435,-0.14282 0.0098,-0.0417 0.04188,-0.18175 0.07122,-0.31129 0.09236,-0.40778 0.11962,-0.4879 0.166271,-0.4879 z m -1.661707,0.10093 c 0.01888,0 0.0343,0.0152 0.0343,0.0337 0,0.0185 -0.01541,0.0336 -0.0343,0.0336 -0.01888,0 -0.0343,-0.0151 -0.0343,-0.0336 0,-0.0185 0.01541,-0.0337 0.0343,-0.0337 z m -0.139212,0.12114 c 0.06278,0.005 0.04319,0.0962 -0.04959,0.18166 -0.0472,0.0435 -0.0859,0.0993 -0.0859,0.124 0,0.11701 -0.147018,0.33823 -0.281747,0.42384 -0.172312,0.10948 -0.203562,0.11205 -0.285465,0.0234 -0.06108,-0.0661 -0.06092,-0.0709 0.0064,-0.15988 0.0381,-0.0505 0.133595,-0.11386 0.21214,-0.14105 0.09506,-0.0329 0.142734,-0.0695 0.142734,-0.10931 0,-0.0758 0.219182,-0.31593 0.309507,-0.33907 0.01236,-0.003 0.02302,-0.004 0.03199,-0.004 z m 2.515091,0.26889 c 0.01823,9.5e-4 0.07059,0.0331 0.126035,0.0775 0.108019,0.0864 0.111533,0.0956 0.05734,0.14873 -0.09989,0.0979 -0.180007,0.0498 -0.137202,-0.0824 0.01431,-0.0442 0.0057,-0.0816 -0.02253,-0.0988 -0.02508,-0.0152 -0.03828,-0.0348 -0.02927,-0.0437 0.0011,-9.5e-4 0.003,-0.002 0.0056,-9.5e-4 z m 0.434838,0.38382 c 0.205491,0 0.365358,0.35578 0.227127,0.50546 -0.06992,0.0757 -0.184491,0.0864 -0.261831,0.0244 -0.06455,-0.0517 -0.200973,-0.28279 -0.200973,-0.34045 0,-0.0782 0.138425,-0.18945 0.235677,-0.18945 z m -2.501712,0.0999 c -0.07173,1.5e-4 -0.142981,0.0144 -0.187495,0.0464 -0.0897,0.0643 -0.0365,0.12283 0.112256,0.1234 0.0697,3.8e-4 0.149443,0.0146 0.177134,0.0318 0.06221,0.0385 0.138409,-0.0164 0.138409,-0.0997 0,-0.0627 -0.120751,-0.10194 -0.240304,-0.10172 z m 4.898209,0.11986 c 0.04443,0.003 0.04901,0.0575 -0.0075,0.11877 -0.06683,0.0724 -0.07044,0.0731 -0.174822,0.0317 -0.115425,-0.0457 -0.131397,-0.10113 -0.02907,-0.10113 0.04957,0 0.119123,-0.0153 0.154503,-0.0338 0.02288,-0.012 0.04212,-0.0166 0.05693,-0.0156 z m -3.80432,0.18392 c 0.116571,0 0.296411,0.252 0.256399,0.35928 -0.02211,0.0593 -0.02049,0.0592 0.04859,-1e-4 0.0572,-0.0492 0.102566,-0.0568 0.227828,-0.0384 0.212064,0.0312 0.254719,0.0865 0.181964,0.23597 -0.03109,0.0639 -0.06832,0.11621 -0.08278,0.11631 -0.01446,1e-4 -0.07304,0.0431 -0.13016,0.0956 -0.121904,0.11198 -0.278287,0.15353 -0.30649,0.0815 -0.01037,-0.0265 -0.0189,-0.0848 -0.0189,-0.12951 0,-0.095 -0.01917,-0.10097 -0.09274,-0.0289 -0.04855,0.0476 -0.06282,0.0438 -0.151987,-0.0399 -0.09091,-0.0854 -0.09753,-0.10805 -0.0862,-0.29817 0.01401,-0.23524 0.06576,-0.35366 0.154503,-0.35366 z m 3.339606,0.0673 c 0.05132,0 0.06619,0.0187 0.05803,0.073 -0.01371,0.0913 -0.0732,0.11315 -0.128953,0.0473 -0.0533,-0.0629 -0.01945,-0.12036 0.07091,-0.12036 z m 0.516918,0.18246 c 0.01799,9.5e-4 0.0377,0.007 0.05874,0.0174 0.107713,0.0564 0.143205,0.14447 0.09576,0.23695 -0.05228,0.10191 -0.0935,0.11362 -0.183069,0.0522 -0.141316,-0.097 -0.09737,-0.31315 0.02857,-0.30654 z m -1.439909,0.0918 c 0.04069,-2e-5 0.05802,0.0258 0.07323,0.10035 0.03088,0.15129 -0.02303,0.18771 -0.112557,0.0762 -0.08534,-0.10632 -0.07902,-0.16064 0.02032,-0.17506 0.0069,-9.6e-4 0.01319,-0.002 0.01901,-0.002 z m -2.991572,0.0285 c 0.05464,0 0.03319,0.19363 -0.02384,0.21508 -0.0792,0.0297 -0.117387,0.0251 -0.117387,-0.0144 0,-0.0506 0.10558,-0.20069 0.141226,-0.20069 z m 2.535307,0.11188 c 0.08488,-0.007 0.171169,0.0538 0.193631,0.14145 0.01521,0.0594 0.04471,0.0831 0.103303,0.0831 0.100863,0 0.356885,0.21956 0.356885,0.30606 0,0.038 -0.03047,0.0688 -0.07725,0.0784 -0.331587,0.0671 -0.428708,0.0359 -0.45868,-0.14786 -0.01667,-0.10217 -0.04472,-0.14664 -0.112255,-0.17821 -0.118865,-0.0555 -0.147248,-0.24316 -0.04174,-0.27598 0.01188,-0.004 0.02398,-0.006 0.03611,-0.007 z m 1.274242,0.32803 c 0.02081,0.003 0.04654,0.0306 0.06629,0.0815 0.03735,0.0963 0.07619,0.10586 0.137303,0.0337 0.05765,-0.0681 0.12779,-0.0637 0.168383,0.0107 0.04625,0.0847 0.02697,0.17511 -0.04888,0.22947 -0.09078,0.065 -0.224212,0.055 -0.33385,-0.0252 -0.07576,-0.0554 -0.08748,-0.081 -0.06005,-0.13129 0.01876,-0.0343 0.0341,-0.0937 0.0341,-0.13198 0,-0.0481 0.0159,-0.0699 0.03672,-0.0669 z m -3.715298,0.54123 c -0.0381,0.003 -0.07885,0.0211 -0.08973,0.0534 -0.0089,0.0263 0.01894,0.0419 0.07454,0.0419 0.0577,0 0.08872,-0.0184 0.08872,-0.0527 0,-0.0317 -0.03543,-0.0452 -0.07352,-0.0427 z"
         style="fill:#b56200;fill-opacity:1;stroke-width:0.99999994"
         id="path1189" />
      <path
         style="fill:#804500;fill-opacity:1;stroke-width:0.99999994"
         d="m 12.149811,291.84287 c 0,-0.3439 0.0047,-0.37008 0.06664,-0.37008 0.109552,0 0.116823,-0.0638 0.02247,-0.19724 -0.06616,-0.0935 -0.08911,-0.16826 -0.08911,-0.29002 0,-0.18691 0.06155,-0.38577 0.137329,-0.44366 0.04493,-0.0343 0.03928,-0.0629 -0.04422,-0.22457 -0.06812,-0.13182 -0.08915,-0.21086 -0.07294,-0.27411 0.02123,-0.0829 0.03231,-0.0874 0.164386,-0.0677 0.163211,0.0244 0.364793,0.11713 0.364793,0.16784 0,0.0191 -0.01538,0.0872 -0.03417,0.15138 -0.0288,0.0984 -0.02378,0.12694 0.03189,0.18149 0.05754,0.0564 0.07916,0.0594 0.16759,0.0236 0.05584,-0.0227 0.145787,-0.0832 0.199871,-0.13454 0.05409,-0.0513 0.132992,-0.11126 0.175354,-0.13315 0.0524,-0.0271 0.08408,-0.0831 0.09911,-0.17518 0.01215,-0.0745 0.05786,-0.18373 0.101584,-0.24285 0.13602,-0.18394 0.304364,-0.43947 0.358972,-0.54488 0.0705,-0.1361 0.190139,-0.1518 0.245722,-0.0322 0.03632,0.0781 0.0332,0.0963 -0.02339,0.13688 -0.03591,0.0258 -0.08384,0.0468 -0.106504,0.0468 -0.05558,0 -0.08745,0.13799 -0.06136,0.26578 0.02385,0.11684 -0.03325,0.21167 -0.110051,0.18279 -0.08429,-0.0317 -0.217329,0.0199 -0.275499,0.10694 -0.06632,0.0992 -0.03997,0.31924 0.03823,0.31924 0.07712,0 0.0251,0.0816 -0.09597,0.15065 -0.136097,0.0775 -0.160814,0.11158 -0.161485,0.22228 -3.88e-4,0.0538 -0.03984,0.12129 -0.103527,0.1769 -0.05665,0.0495 -0.103,0.10604 -0.103,0.12572 0,0.0196 -0.02209,0.0574 -0.04907,0.0838 -0.04254,0.0417 -0.03758,0.0683 0.03726,0.19947 0.04749,0.0832 0.06957,0.15137 0.04907,0.15137 -0.04431,0 -0.04789,0.0661 -0.0071,0.12927 0.0216,0.0334 0.04605,0.0361 0.0939,0.0102 0.165237,-0.0893 0.425193,-0.20203 0.425193,-0.18448 0,0.0108 -0.162229,0.17076 -0.360508,0.35561 -0.198277,0.18484 -0.360505,0.34852 -0.360505,0.36373 0,0.0152 0.03112,0.0374 0.06917,0.0492 0.159355,0.0496 0.0036,0.0839 -0.380197,0.0839 h -0.409981 z m 0.495386,-0.62481 c 0.06858,-0.0672 0.06851,-0.112 -1.94e-4,-0.13784 -0.07179,-0.027 -0.160248,0.0628 -0.13226,0.13426 0.02757,0.0704 0.06328,0.0713 0.132471,0.004 z m 0.843633,0.97154 c -0.0472,-0.008 -0.132185,-0.0341 -0.188836,-0.0586 -0.05665,-0.0244 -0.126177,-0.0514 -0.154503,-0.0599 -0.02832,-0.009 0.01029,-0.0268 0.08584,-0.0406 0.183512,-0.0337 0.502628,-0.22709 0.630125,-0.38192 0.07995,-0.0971 0.112489,-0.1163 0.144612,-0.0854 0.03235,0.0312 0.02986,0.0754 -0.01139,0.20187 -0.02907,0.0891 -0.06342,0.22631 -0.07636,0.30495 l -0.02352,0.143 -0.160067,-0.005 c -0.08803,-0.003 -0.198694,-0.011 -0.245904,-0.0188 z m 0.01242,-0.12804 c 0.01203,-0.0307 6.8e-5,-0.0504 -0.03066,-0.0504 -0.02773,0 -0.05042,0.0227 -0.05042,0.0504 0,0.0278 0.0138,0.0505 0.03066,0.0505 0.01685,0 0.03955,-0.0227 0.05043,-0.0505 z m 0.854342,0.10935 c 0.02174,-0.0648 0.163257,-0.074 0.163257,-0.0108 0,0.0343 -0.031,0.0528 -0.0887,0.0528 -0.0556,0 -0.08342,-0.0156 -0.07456,-0.0421 z m 0.545968,0.0122 c -0.03332,-0.0207 -0.03703,-0.0467 -0.01314,-0.092 0.01831,-0.0347 0.03431,-0.11141 0.03552,-0.17039 0.0011,-0.059 0.0187,-0.13747 0.03889,-0.17443 0.02018,-0.0369 0.03669,-0.10479 0.03669,-0.15075 0,-0.105 0.03236,-0.19001 0.07234,-0.19001 0.03913,0 0.03987,0.15498 0.0011,0.22932 -0.01625,0.0312 -0.03872,0.11722 -0.04991,0.19123 l -0.02036,0.13458 0.08511,-0.10093 c 0.0468,-0.0555 0.09818,-0.11607 0.114173,-0.13458 0.03615,-0.0419 0.307615,-0.26045 0.364563,-0.29359 0.0231,-0.0135 0.0617,-0.0711 0.08579,-0.12803 0.05459,-0.12916 0.02231,-0.1666 -0.188999,-0.21917 -0.136127,-0.0338 -0.160602,-0.0311 -0.211386,0.0239 -0.03159,0.0342 -0.06206,0.0577 -0.0677,0.0522 -0.0056,-0.006 0.01279,-0.10695 0.04099,-0.22537 0.02819,-0.11841 0.04403,-0.23375 0.03519,-0.25633 -0.0108,-0.0275 -0.0862,-0.0381 -0.230151,-0.0321 -0.170909,0.007 -0.226133,0.0234 -0.273834,0.0812 -0.08517,0.10307 -0.17526,0.0961 -0.152396,-0.0118 0.0098,-0.0463 0.02584,-0.12196 0.03564,-0.16823 0.0098,-0.0463 0.03979,-0.0841 0.06664,-0.0841 0.02685,0 0.05993,-0.0176 0.07352,-0.0392 0.02796,-0.0443 -0.134783,-0.19636 -0.210187,-0.19636 -0.0266,0 -0.0659,-0.032 -0.0873,-0.0712 -0.0401,-0.0734 -0.0278,-0.11476 0.144649,-0.48607 0.03494,-0.0752 0.06353,-0.14715 0.06353,-0.15982 0,-0.0427 -0.09426,-0.0235 -0.138024,0.0282 -0.07594,0.0896 -0.07895,0.0235 -0.0032,-0.0709 0.09195,-0.11456 0.09288,-0.25478 0.0022,-0.33521 -0.06856,-0.0608 -0.07347,-0.0608 -0.18904,1.9e-4 -0.133033,0.0702 -0.188201,0.0482 -0.125525,-0.0502 0.06572,-0.10311 0.05178,-0.14005 -0.116979,-0.31014 -0.236134,-0.238 -0.267081,-0.22043 -0.298078,0.16932 -0.01687,0.21224 -0.12029,0.34375 -0.270321,0.34375 -0.108314,0 -0.123146,-0.0494 -0.04687,-0.15612 0.04557,-0.0638 0.04268,-0.077 -0.03179,-0.14559 -0.04507,-0.0415 -0.09678,-0.0665 -0.114924,-0.0555 -0.01814,0.011 -0.05208,-0.003 -0.07541,-0.0301 -0.02334,-0.0276 -0.07144,-0.0501 -0.106892,-0.0501 -0.117953,0 -0.0783,-0.15138 0.07287,-0.27817 0.07554,-0.0633 0.137336,-0.13781 0.137336,-0.16545 0,-0.0589 -0.139417,-0.12833 -0.257927,-0.12833 -0.09014,0 -0.339121,-0.14238 -0.475924,-0.27214 -0.04704,-0.0446 -0.175405,-0.11265 -0.285263,-0.15118 -0.209344,-0.0734 -0.274407,-0.1597 -0.145366,-0.19277 0.05666,-0.0145 0.07016,-0.0368 0.05551,-0.0917 -0.02317,-0.0868 0.0052,-0.174 0.04821,-0.14797 0.01689,0.0102 0.03073,0.0529 0.03073,0.0949 0,0.0994 0.113803,0.20142 0.326599,0.29289 0.09418,0.0405 0.225317,0.11453 0.291411,0.16457 0.06609,0.0501 0.217103,0.14106 0.33558,0.20231 0.208081,0.10755 0.220347,0.10978 0.360505,0.0653 0.0798,-0.0254 0.16121,-0.0667 0.180906,-0.0918 0.02734,-0.0349 0.05012,-9.6e-4 0.09626,0.14214 0.05083,0.158 0.08885,0.20863 0.23886,0.31806 0.09813,0.0716 0.297151,0.24556 0.442276,0.38663 0.211224,0.20533 0.284456,0.2565 0.367063,0.2565 0.05676,0 0.113578,0.0165 0.126265,0.0366 0.01269,0.0201 0.0546,0.0285 0.09313,0.0186 0.04728,-0.0121 0.112492,0.0176 0.200533,0.0915 0.07176,0.0602 0.173676,0.13101 0.226484,0.15739 0.05281,0.0264 0.154835,0.0959 0.226729,0.15439 0.07189,0.0586 0.17232,0.11416 0.22317,0.12363 0.05085,0.01 0.129823,0.0286 0.175497,0.0426 0.07221,0.022 0.07964,0.017 0.05701,-0.0389 -0.01433,-0.0354 -0.03473,-0.18541 -0.04535,-0.33344 -0.01063,-0.14803 -0.04152,-0.30265 -0.06868,-0.34358 -0.03933,-0.0593 -0.04155,-0.0976 -0.01092,-0.1886 0.02708,-0.0804 0.02793,-0.14133 0.0029,-0.20597 -0.01959,-0.0505 -0.02596,-0.10709 -0.01416,-0.12581 0.01179,-0.0187 -0.0091,-0.0745 -0.04642,-0.12399 -0.03734,-0.0495 -0.07844,-0.12256 -0.09134,-0.1624 -0.01291,-0.0399 -0.08675,-0.12846 -0.164096,-0.19694 -0.131922,-0.11679 -0.151003,-0.1233 -0.307905,-0.1051 -0.159334,0.0185 -0.16552,0.0162 -0.13041,-0.0481 0.02027,-0.0371 0.03202,-0.0978 0.02612,-0.13482 -0.0096,-0.0603 -0.01769,-0.0624 -0.07663,-0.0198 -0.04719,0.034 -0.06901,0.0976 -0.07687,0.2239 -0.01166,0.18717 -0.07024,0.43866 -0.102185,0.43866 -0.04945,0 -0.240722,-0.12806 -0.326659,-0.21869 -0.121517,-0.12817 -0.20806,-0.39774 -0.16408,-0.51109 0.01752,-0.0451 0.03184,-0.1202 0.03184,-0.1668 0,-0.10701 0.06982,-0.0895 0.130624,0.0327 0.02463,0.0495 0.0594,0.09 0.07725,0.09 0.05286,0 0.169795,-0.13013 0.169795,-0.18897 0,-0.0382 0.02086,-0.049 0.07045,-0.0363 0.05679,0.0146 0.08474,-0.0108 0.144176,-0.13065 0.04055,-0.0818 0.08491,-0.14872 0.09856,-0.14872 0.04913,0 0.102257,0.23384 0.07979,0.35118 -0.02059,0.10755 -0.01528,0.11985 0.0518,0.11985 0.04111,0 0.106891,0.0169 0.14618,0.0375 0.06192,0.0325 0.069,0.0291 0.05313,-0.0253 -0.01007,-0.0345 -0.02943,-0.0892 -0.04303,-0.12157 -0.01687,-0.0401 -0.0089,-0.0588 0.02512,-0.0588 0.02742,0 0.07756,-0.03 0.111413,-0.0667 0.05012,-0.0543 0.05359,-0.0761 0.01865,-0.11731 -0.02533,-0.0299 -0.03377,-0.0863 -0.02061,-0.13772 0.01227,-0.0479 0.0057,-0.13513 -0.01452,-0.19389 -0.04994,-0.14494 0.02795,-0.6398 0.102932,-0.65395 0.0283,-0.006 0.101669,0.0352 0.163041,0.0902 0.09616,0.0861 0.111621,0.12222 0.111843,0.26158 5.84e-4,0.42258 0.103736,0.7138 0.271261,0.76653 0.03006,0.01 0.08555,0.0628 0.123319,0.11853 0.08252,0.12177 0.172046,0.1561 0.248575,0.0953 0.03105,-0.0247 0.04889,-0.0297 0.03965,-0.0112 -0.0092,0.0185 -0.03838,0.076 -0.06475,0.12775 -0.03959,0.0777 -0.04045,0.11878 -0.005,0.2355 0.08433,0.27715 0.08434,0.27709 -0.0098,0.31912 -0.141237,0.063 -0.115718,0.13795 0.106885,0.31368 0.04874,0.0384 0.07466,0.1125 0.0901,0.25732 0.02331,0.21852 0.12732,0.44384 0.268721,0.58216 0.04837,0.0473 0.09468,0.10582 0.102906,0.13001 0.01134,0.0334 0.04373,0.0268 0.133823,-0.027 0.128279,-0.0766 0.273752,-0.071 0.451912,0.0174 0.132863,0.0659 0.155349,0.0598 0.28249,-0.0762 0.112069,-0.11987 0.117319,-0.12159 0.281505,-0.0917 l 0.167306,0.0304 0.0028,0.18429 c 0.0015,0.10136 0.0054,0.20078 0.0086,0.22094 0.007,0.0447 0.156771,0.11475 0.245291,0.11475 0.162247,0 0.224137,0.20052 0.103839,0.33644 -0.0865,0.0977 -0.08637,0.1421 5.83e-4,0.21924 0.06622,0.0587 0.06888,0.0958 0.06008,0.83791 l -0.0093,0.77647 -0.437218,0.01 c -0.4034,0.009 -0.441833,0.004 -0.496888,-0.0588 -0.07521,-0.0861 -0.170327,-0.0864 -0.301914,-9.5e-4 -0.133254,0.0865 -0.624886,0.0991 -0.657092,0.0168 -0.02213,-0.0565 -0.239776,-0.0713 -0.258476,-0.0175 -0.0063,0.0181 -0.145663,0.0429 -0.309709,0.0553 l -0.298264,0.0224 0.0029,-0.0979 c 0.0029,-0.0983 -0.08128,-0.29394 -0.142313,-0.3309 -0.03694,-0.0224 -0.20818,0.24583 -0.20818,0.32607 0,0.0288 -0.02444,0.0615 -0.05431,0.0728 -0.0836,0.0315 -1.021117,0.0232 -1.073671,-0.01 z m 2.054993,-0.17199 c 0.03777,-0.037 0.06867,-0.0909 0.06867,-0.11974 0,-0.0312 0.01614,-0.0427 0.03973,-0.0284 0.0443,0.0268 0.322013,0.0228 0.415192,-0.006 0.03305,-0.0102 0.06008,-0.0461 0.06008,-0.0797 0,-0.0851 -0.256974,-0.30444 -0.356601,-0.30444 -0.117612,0 -0.136635,-0.11129 -0.03501,-0.20484 l 0.08139,-0.075 0.0737,0.0918 c 0.08952,0.11153 0.142955,0.0743 0.111888,-0.0779 -0.01911,-0.0936 -0.03475,-0.10796 -0.103797,-0.095 -0.06873,0.0129 -0.100203,-0.0152 -0.203694,-0.18222 -0.126281,-0.2037 -0.223872,-0.28312 -0.308726,-0.25121 -0.02685,0.0101 -0.04882,0.0577 -0.04882,0.10575 0,0.11447 -0.05802,0.21752 -0.122456,0.21752 -0.07104,0 -0.100164,-0.0913 -0.04858,-0.15214 0.06205,-0.0732 0.01982,-0.31002 -0.07248,-0.4063 -0.04775,-0.0498 -0.116228,-0.0808 -0.178489,-0.0808 -0.0888,0 -0.09819,-0.01 -0.07765,-0.0757 0.04735,-0.15338 0.03675,-0.17049 -0.152697,-0.24634 -0.184401,-0.0738 -0.189099,-0.0741 -0.19998,-0.0101 -0.0061,0.036 -0.04089,0.0837 -0.07725,0.10599 -0.03636,0.0222 -0.06611,0.0589 -0.06611,0.0814 0,0.0423 0.231188,0.29312 0.291837,0.31653 0.01888,0.008 0.07784,0.0928 0.13101,0.19008 0.100238,0.18335 0.0978,0.19184 -0.06234,0.21685 -0.0419,0.007 -0.07317,0.0419 -0.08023,0.0905 -0.01012,0.0699 -9.54e-4,0.0771 0.07395,0.0587 0.07251,-0.0178 0.09096,-0.006 0.121355,0.0797 0.03939,0.11071 0.09244,0.12282 0.267038,0.0609 0.162322,-0.0575 0.279313,9.5e-4 0.293663,0.14716 0.0081,0.0822 0.03529,0.12227 0.10531,0.15499 0.05915,0.0276 0.09442,0.0708 0.09442,0.11544 v 0.0713 l -0.07946,-0.0731 c -0.0895,-0.0824 -0.235987,-0.0962 -0.294035,-0.0277 -0.0241,0.0284 -0.03029,0.10473 -0.01651,0.2033 0.03319,0.23731 0.210165,0.33111 0.355672,0.18853 z m 1.581999,-0.13199 c 0.1605,-0.15728 0.114903,-0.35044 -0.10366,-0.43916 -0.133253,-0.0541 -0.207987,-0.0249 -0.207987,0.0812 0,0.0609 -0.01419,0.0788 -0.0515,0.0647 -0.03604,-0.0135 -0.05149,0.003 -0.05149,0.0538 0,0.0402 -0.01534,0.1012 -0.0341,0.13555 -0.02742,0.0503 -0.01567,0.0759 0.06008,0.13129 0.135766,0.0993 0.269025,0.0899 0.388666,-0.0274 z M 17.849234,291.456 c 0,-0.0278 -0.02317,-0.0505 -0.0515,-0.0505 -0.02832,0 -0.0515,0.0227 -0.0515,0.0505 0,0.0277 0.02317,0.0504 0.0515,0.0504 0.02832,0 0.0515,-0.0227 0.0515,-0.0504 z m 1.133016,-0.15361 c 0,-0.19396 -0.155068,-0.35026 -0.261572,-0.26364 -0.122461,0.0996 -0.125194,0.16324 -0.01149,0.26733 0.05976,0.0547 0.14564,0.0994 0.190853,0.0994 0.06883,0 0.0822,-0.0168 0.0822,-0.10314 z m -0.658539,-0.39574 c 0.0082,-0.0544 -0.0068,-0.0731 -0.05805,-0.0731 -0.09036,0 -0.124182,0.0574 -0.07088,0.12035 0.05576,0.0658 0.115232,0.044 0.128941,-0.0473 z m -2.864354,-0.0926 c 0.03753,-0.0958 0.01971,-0.13319 -0.03175,-0.0666 -0.02772,0.0359 -0.05041,0.0775 -0.05041,0.0925 0,0.0482 0.06064,0.029 0.08216,-0.026 z m 2.752361,-0.10243 c -0.01806,-0.0705 -0.01205,-0.0844 0.0297,-0.0687 0.02879,0.0108 0.06434,-9.6e-4 0.07902,-0.0271 0.01468,-0.0256 0.09461,-0.0516 0.177663,-0.0575 0.224439,-0.016 0.251518,-0.0843 0.124664,-0.31431 -0.05609,-0.10172 -0.136147,-0.22643 -0.177911,-0.27713 -0.06736,-0.0818 -0.08166,-0.0865 -0.1266,-0.0418 -0.02897,0.0289 -0.05751,0.13952 -0.06665,0.25839 -0.01339,0.17423 -0.03175,0.22225 -0.113284,0.29629 -0.07079,0.0643 -0.119663,0.0829 -0.179389,0.0682 -0.05841,-0.0144 -0.0776,-0.008 -0.06655,0.0234 0.0086,0.0239 0.05496,0.0394 0.103134,0.0343 0.06879,-0.008 0.09745,0.0127 0.133531,0.0925 0.05647,0.12501 0.113624,0.13424 0.08267,0.0134 z m 0.511072,-0.0105 c 0.0754,-0.0816 0.04214,-0.15114 -0.04937,-0.10315 -0.03538,0.0186 -0.104879,0.0337 -0.154444,0.0337 -0.102327,0 -0.08639,0.0555 0.02904,0.10116 0.104376,0.0413 0.107948,0.0406 0.174782,-0.0317 z m -1.870354,-0.20603 c -0.0196,-0.0358 -0.05826,-0.0652 -0.08593,-0.0652 -0.06528,0 -0.0636,0.0308 0.0058,0.10591 0.0703,0.0761 0.127941,0.0469 0.08013,-0.0406 z m -1.552484,-0.0256 c 0.05083,-0.0317 0.248734,-0.34757 0.312999,-0.49968 0.02483,-0.0587 0.03603,-0.13502 0.02489,-0.16943 -0.03208,-0.099 -0.500976,-0.38089 -0.500976,-0.30114 0,0.007 -0.04617,0.16142 -0.102611,0.34486 -0.134218,0.43624 -0.133303,0.50167 0.0082,0.58621 0.119398,0.0713 0.188849,0.0819 0.25751,0.0392 z m 1.656602,-0.31967 c 0,-0.0245 -0.03863,-0.0802 -0.08583,-0.12361 -0.04721,-0.0435 -0.08584,-0.10432 -0.08584,-0.13523 0,-0.0309 -0.03163,-0.0843 -0.07029,-0.11856 -0.04379,-0.0388 -0.06644,-0.0947 -0.06008,-0.14819 0.0089,-0.0749 0.03006,-0.088 0.164404,-0.1027 0.181118,-0.0197 0.203361,-0.0688 0.103471,-0.22822 -0.120836,-0.19284 -0.265674,-0.18667 -0.422996,0.018 -0.07965,0.10364 -0.09271,0.14651 -0.07422,0.24369 0.01234,0.0648 0.05182,0.14487 0.08774,0.1778 0.05386,0.0494 0.0581,0.0711 0.02425,0.12428 -0.04992,0.0783 0.02574,0.1748 0.21337,0.27206 0.143992,0.0747 0.206038,0.0809 0.206038,0.0207 z m -0.14521,-1.49671 c 0.01921,-0.0565 -0.09159,-0.0905 -0.140065,-0.043 -0.03088,0.0302 -0.02832,0.0469 0.01088,0.0712 0.06088,0.0377 0.110449,0.0269 0.129175,-0.0281 z m -2.944837,-0.32793 c 0,-0.0289 -0.01571,-0.0429 -0.03489,-0.0313 -0.01919,0.0116 -0.026,0.0352 -0.01515,0.0525 0.02943,0.0466 0.05004,0.0379 0.05004,-0.0212 z m 0.401807,3.42388 c -0.183485,-0.18413 -0.170282,-0.22264 0.06807,-0.19853 0.218318,0.022 0.388466,-0.0445 0.388466,-0.15216 0,-0.033 0.01454,-0.0601 0.03231,-0.0601 0.124725,0 0.03544,0.27497 -0.128158,0.39467 -0.07003,0.0512 -0.132469,0.10453 -0.138763,0.1184 -0.02473,0.0546 -0.100383,0.0196 -0.221926,-0.10235 z m -0.334291,-1.08502 c -0.02769,-0.0172 -0.107376,-0.0315 -0.177074,-0.0317 -0.148749,-5.7e-4 -0.201993,-0.0591 -0.112295,-0.12338 0.118705,-0.0851 0.427856,-0.045 0.427856,0.0554 0,0.0833 -0.07628,0.13828 -0.138487,0.0997 z m -1.082385,-0.52175 c 0.07381,-0.0541 0.136624,-0.0652 0.107582,-0.0193 -0.01026,0.0163 -0.05366,0.0382 -0.09644,0.0488 -0.07504,0.0185 -0.07544,0.0174 -0.01113,-0.0296 z m 1.083537,-0.0952 c 0,-0.0285 0.03055,-0.0798 0.06788,-0.11387 0.08338,-0.0761 0.35879,-0.23038 0.337729,-0.18917 -0.0084,0.0164 -0.0353,0.0797 -0.05983,0.1407 -0.02453,0.0609 -0.06214,0.10451 -0.0836,0.0967 -0.02146,-0.008 -0.08922,0.0154 -0.150599,0.0517 -0.09441,0.0557 -0.111585,0.0579 -0.111585,0.0139 z m -1.738568,-0.3628 c -0.01629,-0.0247 -0.0349,-0.25 -0.04134,-0.50057 l -0.01171,-0.45559 0.144505,-0.1416 c 0.165185,-0.16187 0.30845,-0.19257 0.30757,-0.0659 -7.78e-4,0.0971 -0.02761,0.13124 -0.153733,0.19461 -0.134812,0.0677 -0.147039,0.15198 -0.0366,0.25228 0.07004,0.0636 0.08465,0.10067 0.06694,0.16981 -0.01246,0.0486 -0.0026,0.17063 0.02205,0.27107 0.04571,0.1867 0.028,0.24782 -0.07803,0.26924 -0.02379,0.005 -0.07629,0.0184 -0.116642,0.0302 -0.04473,0.0131 -0.08494,0.004 -0.103002,-0.0236 z m 6.892943,-0.29214 c -0.0051,-0.13164 -0.09774,-0.30048 -0.178868,-0.32571 -0.182991,-0.0569 -0.245292,-0.36417 -0.108415,-0.53468 0.04234,-0.0527 0.07699,-0.12986 0.07699,-0.17136 0,-0.12273 0.215098,-0.23032 0.255285,-0.12769 0.02883,0.0736 0.01855,0.94575 -0.01319,1.12061 -0.0249,0.13711 -0.02789,0.14078 -0.03179,0.0388 z m -1.732059,-0.58016 c -0.09816,-0.14692 -0.116528,-0.24727 -0.05237,-0.28613 0.02176,-0.0132 0.114285,-0.0297 0.205606,-0.0368 0.1639,-0.0127 0.165626,-0.0117 0.134025,0.0697 -0.01762,0.0454 -0.02992,0.11026 -0.02738,0.14416 0.0049,0.0643 -0.10141,0.24668 -0.143666,0.24668 -0.01336,0 -0.06566,-0.0619 -0.116221,-0.1376 z m 0.881095,-0.48092 c -0.08738,-0.0844 -0.113269,-0.14299 -0.133045,-0.30092 -0.01351,-0.10785 -0.02373,-0.23654 -0.02271,-0.28597 9.53e-4,-0.0495 -0.03093,-0.16971 -0.071,-0.26725 -0.06876,-0.1674 -0.06955,-0.18058 -0.01407,-0.23494 0.07485,-0.0733 0.163328,-0.0258 0.199648,0.10727 0.01405,0.0515 0.0484,0.11843 0.07635,0.14883 0.02795,0.0304 0.06176,0.0983 0.07515,0.15083 0.01339,0.0525 0.08412,0.16326 0.157177,0.24597 0.07306,0.0827 0.132831,0.18388 0.132831,0.2248 0,0.0848 -0.190301,0.32754 -0.25142,0.32073 -0.02223,-0.003 -0.08923,-0.0517 -0.148907,-0.10935 z m -5.53943,0.0354 c 0,-0.0587 0.08595,-0.19069 0.117502,-0.18038 0.06194,0.0202 0.04146,0.0963 -0.04026,0.14946 -0.04249,0.0277 -0.07725,0.0416 -0.07725,0.0309 z m 4.677986,-0.39364 c -0.04249,-0.0168 -0.07725,-0.0506 -0.07725,-0.0753 0,-0.0431 0.126696,-0.17082 0.309004,-0.31152 l 0.08583,-0.0663 -0.06418,0.0744 c -0.06321,0.0732 -0.06405,0.15037 -0.0037,0.33777 0.02149,0.0667 0.01269,0.0754 -0.07404,0.0736 -0.05414,-9.6e-4 -0.133186,-0.0158 -0.175674,-0.0326 z m -4.069746,-0.10018 c -0.05128,-0.0395 -0.09324,-0.0856 -0.09324,-0.10251 0,-0.0169 0.07503,-0.0679 0.166728,-0.11343 0.121398,-0.0603 0.177009,-0.0728 0.204549,-0.0458 0.07785,0.0763 0.14373,-0.0368 0.14373,-0.24682 0,-0.17532 -0.0078,-0.19775 -0.06866,-0.19775 -0.03777,0 -0.06867,-0.0221 -0.06867,-0.0493 0,-0.0271 0.0309,-0.0655 0.06867,-0.0852 0.05812,-0.0305 0.06866,-0.0705 0.06866,-0.26025 0,-0.16027 0.01055,-0.21389 0.037,-0.18797 0.04374,0.0428 0.106445,0.26621 0.103638,0.36916 -0.0011,0.0398 0.02038,0.0808 0.04771,0.0911 0.03944,0.0149 0.04536,0.064 0.0287,0.23886 -0.02204,0.23121 -0.02584,0.22488 0.140417,0.23357 0.116929,0.006 0.09758,0.0833 -0.0609,0.24315 -0.150052,0.15129 -0.162995,0.15695 -0.390155,0.17079 -0.201358,0.0123 -0.248285,0.004 -0.328189,-0.0576 z m 5.749826,-0.62316 c 0.006,-0.0468 0.02632,-0.0852 0.04519,-0.0852 0.01888,0 0.03923,0.0383 0.0452,0.0852 0.0077,0.0607 -0.0052,0.0851 -0.0452,0.0851 -0.03995,0 -0.05294,-0.0245 -0.04519,-0.0851 z m -0.67214,-0.23722 c -0.03296,-0.0842 -0.02476,-0.11501 0.03066,-0.11501 0.03205,0 0.0515,0.0318 0.0515,0.0841 0,0.0939 -0.05008,0.1128 -0.08216,0.0309 z m -3.591561,-0.0141 c 0,-0.0185 0.02795,-0.0337 0.0621,-0.0337 0.03415,0 0.09209,-0.0222 0.128753,-0.0494 0.03665,-0.0272 0.112998,-0.0492 0.169648,-0.049 0.100164,3.8e-4 0.09933,0.002 -0.03005,0.0469 -0.07318,0.0256 -0.149658,0.0628 -0.169953,0.0827 -0.04651,0.0456 -0.160504,0.0474 -0.160504,0.003 z m -2.529362,-0.0988 c -0.03035,-0.0788 -0.02841,-0.10239 0.0096,-0.11669 0.02622,-0.01 0.04789,5.7e-4 0.04816,0.0231 1.94e-4,0.0225 0.0098,0.075 0.02117,0.1167 0.03043,0.11127 -0.03453,0.0923 -0.07897,-0.0231 z m 6.783683,-0.1263 c -0.06887,-0.17466 -0.07563,-0.29683 -0.01896,-0.34293 0.08746,-0.0711 0.12503,-0.0116 0.12503,0.19791 0,0.22106 -0.04944,0.28865 -0.10608,0.14502 z m -1.662116,-0.0694 c -0.05665,-0.0291 -0.126177,-0.0633 -0.154502,-0.0762 -0.05912,-0.0269 -0.08385,-0.11394 -0.054,-0.19017 0.01627,-0.0416 0.03069,-0.044 0.07017,-0.0119 0.03105,0.0253 0.0906,0.0316 0.15876,0.017 0.104269,-0.0224 0.108083,-0.0197 0.08658,0.0643 -0.01646,0.0644 -0.0092,0.0878 0.02718,0.0878 0.07134,0 0.191981,-0.16292 0.191981,-0.25928 0,-0.0661 0.01532,-0.08 0.07909,-0.0718 0.04519,0.006 0.154103,-0.037 0.254126,-0.0999 0.195312,-0.12282 0.490797,-0.41595 0.490797,-0.4869 0,-0.0613 -0.157979,-0.20462 -0.198472,-0.18009 -0.01754,0.0106 -0.06642,-0.0167 -0.108635,-0.0607 l -0.07676,-0.0801 0.130058,-0.0605 c 0.07153,-0.0333 0.177858,-0.0565 0.236284,-0.0515 0.07203,0.006 0.126823,-0.0134 0.170195,-0.0603 0.03518,-0.038 0.09633,-0.0693 0.135896,-0.0695 0.03956,-1.1e-4 0.116027,-0.0227 0.169923,-0.0503 0.0539,-0.0276 0.111796,-0.0417 0.128668,-0.0315 0.03166,0.0192 0.0361,0.29729 0.0073,0.4605 -0.01394,0.079 -0.0328,0.0925 -0.12999,0.0925 -0.148879,0 -0.412843,0.1784 -0.551529,0.37274 -0.05996,0.084 -0.216774,0.22195 -0.360377,0.31697 -0.139825,0.0925 -0.289225,0.22121 -0.332004,0.28597 -0.150218,0.22745 -0.182035,0.23971 -0.370802,0.14289 z m 1.452426,-1.18878 c 0.07925,-0.0571 0.144098,-0.11599 0.144098,-0.13085 0,-0.0149 -0.02803,-0.0609 -0.06229,-0.10239 l -0.0623,-0.0753 -0.143711,0.0889 c -0.155282,0.0961 -0.160585,0.10748 -0.110228,0.23727 0.04256,0.10969 0.05964,0.10842 0.234423,-0.0176 z m -2.345104,1.09963 c -0.157458,-0.0681 -0.230525,-0.16471 -0.203722,-0.26936 0.01254,-0.0489 0.04834,-0.10236 0.07956,-0.11873 0.03123,-0.0164 0.123785,-0.10765 0.205679,-0.20282 0.14188,-0.16488 0.14614,-0.17602 0.09042,-0.23637 -0.05552,-0.0601 -0.0533,-0.0698 0.0439,-0.19161 0.06685,-0.0838 0.123157,-0.21587 0.162248,-0.38062 0.03293,-0.13879 0.07131,-0.26473 0.0853,-0.27988 0.01399,-0.0152 0.08051,-0.005 0.147836,0.0226 0.140042,0.0573 0.23031,0.20105 0.229253,0.36497 -0.0011,0.17246 -0.134576,0.7139 -0.21742,0.88202 -0.02811,0.057 -0.07616,0.17406 -0.106783,0.26 -0.05836,0.16384 -0.110899,0.19689 -0.310257,0.19523 -0.05665,-3.8e-4 -0.149353,-0.0209 -0.206002,-0.0454 z m -2.502433,-1.23723 c -0.02695,-0.13202 -0.0049,-0.16228 0.118255,-0.16228 0.114041,0 0.124809,0.034 0.04741,0.14975 -0.0832,0.12444 -0.141922,0.12888 -0.165669,0.0125 z m -0.22711,-0.0562 c 0,-0.1221 0.125221,-0.24648 0.173241,-0.17209 0.03978,0.0616 0.04129,0.0996 0.0039,0.0996 -0.01584,0 -0.04642,0.0379 -0.06793,0.0841 -0.05238,0.11265 -0.109248,0.1066 -0.109248,-0.0116 z m -0.706563,0.006 c -0.0405,-0.12737 -0.07719,-0.16197 -0.173058,-0.16322 -0.05439,-7.7e-4 -0.142387,-0.0197 -0.195546,-0.0421 -0.14377,-0.0606 -0.249483,-0.0496 -0.304632,0.0318 -0.03841,0.0566 -0.06935,0.0676 -0.141522,0.0499 l -0.09237,-0.0227 v -1.24145 c 0,-0.6828 0.0093,-1.26529 0.02074,-1.29443 0.02381,-0.0608 0.166465,-0.0413 0.256628,0.0352 0.02981,0.0253 0.08466,0.046 0.121886,0.046 0.03722,0 0.08613,0.0181 0.108691,0.0401 0.03179,0.0312 0.05742,0.0229 0.114038,-0.0366 0.06255,-0.0658 0.09089,-0.0728 0.197609,-0.0486 0.06852,0.0156 0.236596,0.0269 0.373503,0.0253 0.271626,-0.003 0.296241,0.0187 0.193471,0.1724 -0.06765,0.10117 -0.092,0.10248 -0.217321,0.0117 l -0.09832,-0.0712 -0.200712,0.0893 c -0.110391,0.0491 -0.247062,0.13469 -0.303713,0.19019 -0.05665,0.0555 -0.162566,0.15137 -0.235367,0.21305 -0.137718,0.11668 -0.138473,0.12616 -0.02303,0.28918 0.03051,0.0431 0.04508,0.0386 0.09976,-0.0305 0.08329,-0.10529 0.153339,-0.0772 0.244478,0.0978 0.08359,0.16056 0.150909,0.19671 0.233033,0.12514 0.04241,-0.037 0.132552,-0.0506 0.323362,-0.0491 0.296664,0.003 0.346183,0.0397 0.214168,0.16124 -0.09697,0.0893 -0.324222,0.51332 -0.324222,0.60499 0,0.0347 -0.03477,0.11637 -0.07725,0.18145 -0.246458,0.37753 -0.263094,0.42613 -0.120231,0.3512 0.08943,-0.0469 0.202765,0.0464 0.135928,0.1119 -0.02279,0.0223 -0.04145,0.0746 -0.04145,0.116 0,0.0963 -0.06307,0.13642 -0.08856,0.0563 z m 1.445181,-0.14442 c -0.02536,-0.0402 0.04064,-0.16892 0.0866,-0.16892 0.01822,0 0.03313,0.0454 0.03313,0.10094 0,0.0994 -0.07357,0.14117 -0.119728,0.068 z m 0.943742,-0.23209 c 0,-0.0693 0.09161,-0.16107 0.126574,-0.12681 0.02977,0.0292 -0.04768,0.18998 -0.0915,0.18998 -0.01928,0 -0.03507,-0.0284 -0.03507,-0.0631 z m 0.301914,-0.22415 c -0.04089,-0.0401 -0.400173,-0.15986 -0.597324,-0.19917 -0.245543,-0.0489 -0.288265,-0.0703 -0.288265,-0.14416 0,-0.0301 -0.02924,-0.086 -0.06496,-0.12418 -0.03573,-0.0382 -0.07498,-0.11601 -0.08724,-0.17291 -0.0199,-0.0924 -0.0043,-0.11991 0.145918,-0.25762 0.09251,-0.0848 0.228333,-0.18565 0.301831,-0.22413 0.0735,-0.0384 0.196962,-0.11664 0.27437,-0.17368 0.120604,-0.0889 0.176159,-0.10555 0.388246,-0.11649 0.318702,-0.0164 0.496633,0.0549 0.463041,0.18566 -0.03891,0.15148 -0.03276,0.18522 0.03278,0.17982 0.04959,-0.004 0.05998,0.0127 0.04752,0.0765 -0.0239,0.12251 0.02598,0.1268 0.157579,0.0135 0.130134,-0.11196 0.194942,-0.12877 0.194942,-0.0505 0,0.0377 0.0225,0.0456 0.08583,0.03 0.06491,-0.0159 0.08583,-0.008 0.08583,0.033 0,0.0353 0.02986,0.0542 0.08583,0.0542 0.0515,0 0.08584,0.0193 0.08584,0.0481 0,0.0514 0.04974,0.10787 0.19133,0.217 l 0.0887,0.0684 -0.114265,0.1115 c -0.06285,0.0613 -0.172729,0.15503 -0.244185,0.20823 -0.111048,0.0827 -0.135984,0.0897 -0.171669,0.0482 -0.108447,-0.12617 -0.149584,-0.13502 -0.283946,-0.061 -0.07677,0.0422 -0.1599,0.0633 -0.205516,0.0522 -0.04623,-0.0113 -0.09344,9.5e-4 -0.11907,0.0313 -0.02336,0.0276 -0.06959,0.0502 -0.102726,0.0502 -0.03314,0 -0.07873,0.0218 -0.101309,0.0484 -0.02257,0.0267 -0.06153,0.0407 -0.08657,0.0314 -0.02503,-0.01 -0.05572,-9.5e-4 -0.06819,0.0188 -0.02459,0.039 -0.06495,0.0466 -0.09437,0.0178 z m 2.868742,-0.0411 c -0.06717,-0.0108 -0.0994,-0.0608 -0.162417,-0.25261 -0.01076,-0.0328 -0.06629,-0.0688 -0.123385,-0.0799 -0.130071,-0.0255 -0.130953,-0.0711 -0.0036,-0.1889 0.08843,-0.0818 0.111551,-0.0883 0.197419,-0.0561 0.05349,0.0201 0.216998,0.0355 0.363344,0.0341 l 0.266088,-0.003 v 0.18277 c 0,0.10053 -0.01244,0.19031 -0.02764,0.19952 -0.0152,0.01 -0.0866,0.004 -0.158668,-0.0122 -0.172075,-0.038 -0.236163,-0.0124 -0.211324,0.0846 0.02126,0.083 -0.02044,0.11014 -0.139761,0.0911 z m -4.029002,-0.14258 c 0,-0.0185 0.01545,-0.0337 0.03434,-0.0337 0.01888,0 0.03434,0.0152 0.03434,0.0337 0,0.0185 -0.01545,0.0337 -0.03434,0.0337 -0.01888,0 -0.03434,-0.0152 -0.03434,-0.0337 z m -0.714604,-0.32803 c -0.01994,-0.0509 -0.0374,-0.2742 -0.03878,-0.49626 -0.0013,-0.22205 -0.0057,-0.42644 -0.0096,-0.4542 -0.0039,-0.0277 0.0058,-0.1678 0.02148,-0.31121 0.0199,-0.18201 0.04245,-0.26074 0.07466,-0.26074 0.03546,0 0.04569,0.0725 0.04418,0.313 -0.0013,0.22178 0.01487,0.3517 0.05579,0.44579 0.07698,0.17701 0.08632,0.33634 0.03046,0.5197 -0.02537,0.0832 -0.05441,0.19303 -0.06453,0.24392 -0.01012,0.0509 -0.0317,0.0925 -0.04793,0.0925 -0.01623,0 -0.04583,-0.0417 -0.06577,-0.0925 z m 4.147987,-0.18987 c -0.178374,-0.0553 -0.422499,-0.20778 -0.502448,-0.3139 -0.13528,-0.17957 -0.160494,-0.32031 -0.09941,-0.5549 0.06492,-0.24929 0.152741,-0.42405 0.307802,-0.61247 0.06212,-0.0755 0.12309,-0.17889 0.135487,-0.22977 0.01728,-0.0709 0.04293,-0.0925 0.110033,-0.0925 0.07249,0 0.08368,0.0118 0.06522,0.0687 -0.02726,0.0842 0.04704,0.40053 0.110126,0.4689 0.03739,0.0405 0.05858,0.0421 0.113608,0.009 0.14232,-0.0871 0.164401,-0.033 0.08614,0.21094 -0.01188,0.037 0.01059,0.0105 0.04991,-0.0588 0.03933,-0.0694 0.08568,-0.12617 0.102992,-0.12617 0.06194,0 0.07187,0.0668 0.02358,0.15882 -0.02701,0.0514 -0.06542,0.19949 -0.08538,0.32902 -0.01996,0.12954 -0.06488,0.34011 -0.09982,0.46796 -0.07558,0.27652 -0.138711,0.3313 -0.317846,0.2758 z m 0.363822,-0.0825 c -0.01188,-0.0189 -0.0049,-0.0443 0.01558,-0.0567 0.05279,-0.0319 0.08684,0.0118 0.04278,0.055 -0.02466,0.0241 -0.04386,0.0248 -0.05836,0.002 z m 0.419404,-0.12373 c -0.01115,-0.011 -0.0076,-0.0682 0.0078,-0.12733 0.01543,-0.0591 0.04463,-0.16978 0.06487,-0.24594 0.07191,-0.27072 0.05252,-0.35303 -0.117952,-0.50076 -0.131355,-0.11384 -0.15858,-0.15922 -0.176614,-0.29439 -0.01803,-0.13518 -0.01248,-0.15982 0.036,-0.15982 0.03153,0 0.09001,-0.0543 0.129956,-0.12063 l 0.07263,-0.12062 0.07861,0.15985 c 0.04324,0.0879 0.118187,0.1958 0.16655,0.23974 0.0755,0.0686 0.08793,0.1084 0.08793,0.28159 0,0.13294 -0.01984,0.23135 -0.05821,0.28873 -0.03201,0.0479 -0.08235,0.20235 -0.111864,0.34327 -0.03658,0.17464 -0.0705,0.25939 -0.106558,0.26619 -0.02909,0.006 -0.06202,9.5e-4 -0.07316,-0.01 z m -6.564533,-1.34426 c -0.03557,-0.0532 -0.05545,-0.15572 -0.05545,-0.28597 0,-0.21132 0.02845,-0.25433 0.08628,-0.13044 0.01865,0.04 0.06622,0.0932 0.105745,0.11835 0.06269,0.0399 0.08289,0.0372 0.158488,-0.0211 0.04764,-0.0367 0.09643,-0.0572 0.108398,-0.0455 0.03273,0.0321 0.02617,0.17834 -0.008,0.17834 -0.01637,0 -0.07067,0.0606 -0.120655,0.13458 -0.104654,0.15497 -0.194431,0.17184 -0.274797,0.0517 z m 1.798579,-0.0833 c 0,-0.0174 0.03477,-0.0893 0.07725,-0.15981 0.06782,-0.11245 0.07856,-0.11909 0.08796,-0.0543 0.0059,0.0405 -0.0152,0.11246 -0.04686,0.15981 -0.0576,0.0861 -0.118343,0.11406 -0.118343,0.0544 z m 4.624793,-0.29623 c -0.193448,-0.14382 -0.159019,-0.244 0.08386,-0.244 h 0.102295 l -0.02367,0.15981 c -0.01302,0.0879 -0.02688,0.16364 -0.0308,0.16831 -0.0039,0.005 -0.06318,-0.0332 -0.131686,-0.0841 z"
         id="path1187"
         inkscape:connector-curvature="0" />
    </g>
    <path
       sodipodi:nodetypes="ccccsccsc"
       inkscape:connector-curvature="0"
       id="path1355-8-5"
       d="m 19.620994,266.16126 c 0.01558,0.0251 0.535221,0.86284 0.694175,1.33425 0.430727,0.96558 0.246637,3.78888 0.238805,5.39748 0.02644,-0.18505 4.473865,-1.33136 6.782594,0.76747 -0.01476,-0.026 -0.04662,-0.0767 -0.119341,-0.17767 -0.06901,-0.0958 -0.174308,-0.23765 -0.354479,-0.42182 -0.503715,-0.5766 -0.22026,-0.0806 -0.768208,-0.6505 -0.473747,-0.42966 -1.496999,-1.45025 -2.735519,-2.66881 -1.183854,-1.16476 -2.562819,-2.50808 -3.738027,-3.5804 z"
       style="opacity:0.24800002;fill:#000000;fill-opacity:1;stroke:none;stroke-width:0.28614345;stroke-miterlimit:4;stroke-dasharray:none;stroke-opacity:1" />
    <path
       style="opacity:1;fill:#ffffff;fill-opacity:1;stroke:#808080;stroke-width:0.30000001;stroke-miterlimit:4;stroke-dasharray:none;stroke-opacity:1"
       d="m 19.308998,265.6626 c 0.01477,0.0238 0.507514,0.81811 0.658239,1.26509 0.40843,0.91553 0.278738,3.06938 0.271311,4.5946 0.409178,-0.0213 4.921198,-0.70296 6.989915,1.73982 -0.02793,-0.0483 -0.09803,-0.0884 -0.13713,-0.16512 -0.477638,-0.54671 -1.086946,-0.98598 -1.643914,-1.50908 -0.449221,-0.4074 -1.419501,-1.37509 -2.593906,-2.53048 -1.122567,-1.10439 -2.430145,-2.3781 -3.544515,-3.39483 z"
       id="path4753-0-6"
       inkscape:connector-curvature="0"
       sodipodi:nodetypes="ccccccsc" />
    <g
       style="stroke-width:4.08449793"
       inkscape:transform-center-y="-9.4924686"
       inkscape:transform-center-x="5.4653607"
       inkscape:label="Capa 1"
       id="layer1-4-3-2"
       transform="matrix(0.51126596,0,0,0.51245325,-269.32006,5.6156869)">
      <g
         style="stroke-width:4.08449793"
         id="layer1-3-65-9-9"
         inkscape:label="Capa 1"
         transform="translate(0.41988239,0.03484499)" />
    </g>
    <g
       style="stroke-width:4.08449793"
       inkscape:transform-center-y="-9.4924686"
       inkscape:transform-center-x="5.4653607"
       inkscape:label="Capa 1"
       id="layer1-4-1"
       transform="matrix(0.51126596,0,0,0.51245325,-269.32006,5.6395364)">
      <g
         style="stroke-width:4.08449793"
         id="layer1-3-65-2"
         inkscape:label="Capa 1"
         transform="translate(0.41988239,0.03484499)" />
    </g>
    <g
       transform="matrix(0.51096555,0,0,0.51234092,-257.95184,-0.12394024)"
       id="layer1-4-39"
       inkscape:label="Capa 1"
       inkscape:transform-center-x="5.4653607"
       inkscape:transform-center-y="-9.4924686"
       style="stroke-width:4.28401899">
      <g
         transform="translate(0.41988239,0.03484499)"
         inkscape:label="Capa 1"
         id="layer1-3-65-0"
         style="stroke-width:4.28401899" />
    </g>
    <g
       style="stroke-width:4.28401899"
       inkscape:transform-center-y="-9.4924686"
       inkscape:transform-center-x="5.4653607"
       inkscape:label="Capa 1"
       id="layer1-4-5"
       transform="matrix(0.51096555,0,0,0.51234092,-287.40763,0.11490379)">
      <g
         style="stroke-width:4.28401899"
         id="layer1-3-65-2-5"
         inkscape:label="Capa 1"
         transform="translate(0.41988239,0.03484499)" />
    </g>
    <g
       style="stroke-width:4.28401899"
       inkscape:transform-center-y="-9.4924686"
       inkscape:transform-center-x="5.4653607"
       inkscape:label="Capa 1"
       id="layer1-4-4"
       transform="matrix(0.51096555,0,0,0.51234092,-293.39131,0.03648238)">
      <g
         style="stroke-width:4.28401899"
         id="layer1-3-65-8"
         inkscape:label="Capa 1"
         transform="translate(0.41988239,0.03484499)" />
    </g>
  </g>
</svg>
