<?xml version="1.0" encoding="UTF-8" standalone="no"?>
<!-- Created with Inkscape (http://www.inkscape.org/) -->

<svg
   xmlns:osb="http://www.openswatchbook.org/uri/2009/osb"
   xmlns:dc="http://purl.org/dc/elements/1.1/"
   xmlns:cc="http://creativecommons.org/ns#"
   xmlns:rdf="http://www.w3.org/1999/02/22-rdf-syntax-ns#"
   xmlns:svg="http://www.w3.org/2000/svg"
   xmlns="http://www.w3.org/2000/svg"
   xmlns:xlink="http://www.w3.org/1999/xlink"
   xmlns:sodipodi="http://sodipodi.sourceforge.net/DTD/sodipodi-0.dtd"
   xmlns:inkscape="http://www.inkscape.org/namespaces/inkscape"
   width="128"
   height="128"
   viewBox="0 0 33.866666 33.866668"
   version="1.1"
   id="svg8"
   inkscape:version="0.92.2 5c3e80d, 2017-08-06"
   sodipodi:docname="application-presentation.svg">
  <defs
     id="defs2">
    <linearGradient
       id="linearGradient1830">
      <stop
         id="stop1826"
         style="stop-color:#d9d9d9;stop-opacity:1"
         offset="0" />
      <stop
         id="stop1828"
         style="stop-color:#ffffff;stop-opacity:1;"
         offset="1" />
    </linearGradient>
    <linearGradient
       osb:paint="solid"
       id="linearGradient6987">
      <stop
         id="stop6985"
         offset="0"
         style="stop-color:#77d2fb;stop-opacity:1;" />
    </linearGradient>
    <linearGradient
       inkscape:collect="always"
       xlink:href="#linearGradient1830"
       id="linearGradient1503-8-3"
       x1="29.203474"
       y1="263.52237"
       x2="4.5843229"
       y2="296.16849"
       gradientUnits="userSpaceOnUse"
       gradientTransform="matrix(0.95460264,0,0,0.9545928,3.5572548,12.720462)" />
    <linearGradient
       id="linearGradient4730"
       inkscape:collect="always">
      <stop
         id="stop4732"
         offset="0"
         style="stop-color:#c8391d;stop-opacity:1" />
      <stop
         id="stop4734"
         offset="1"
         style="stop-color:#d85937;stop-opacity:1" />
    </linearGradient>
    <linearGradient
       inkscape:collect="always"
       xlink:href="#linearGradient4730"
       id="linearGradient1057"
       gradientUnits="userSpaceOnUse"
       gradientTransform="matrix(0.1907712,0,0,0.18550528,6.2529132,239.88079)"
       x1="-6.8459705"
       y1="232.64992"
       x2="46.972088"
       y2="233.70825" />
  </defs>
  <sodipodi:namedview
     id="base"
     pagecolor="#ffffff"
     bordercolor="#666666"
     borderopacity="1.0"
     inkscape:pageopacity="0.0"
     inkscape:pageshadow="2"
     inkscape:zoom="4.0000002"
     inkscape:cx="132.75574"
     inkscape:cy="58.573882"
     inkscape:document-units="mm"
     inkscape:current-layer="layer1"
     showgrid="false"
     units="px"
     inkscape:window-width="1600"
     inkscape:window-height="792"
     inkscape:window-x="0"
     inkscape:window-y="0"
     inkscape:window-maximized="1"
     showguides="false"
     inkscape:snap-nodes="false" />
  <metadata
     id="metadata5">
    <rdf:RDF>
      <cc:Work
         rdf:about="">
        <dc:format>image/svg+xml</dc:format>
        <dc:type
           rdf:resource="http://purl.org/dc/dcmitype/StillImage" />
        <dc:title />
      </cc:Work>
    </rdf:RDF>
  </metadata>
  <g
     inkscape:label="Layer 1"
     inkscape:groupmode="layer"
     id="layer1"
     transform="translate(0,-263.13332)">
    <g
       id="g1100"
       transform="translate(-1.2997038,3.3363136e-6)">
      <g
         transform="matrix(0.53602412,0,0,0.5372689,-234.93365,-13.785303)"
         id="layer1-4-3"
         inkscape:label="Capa 1"
         inkscape:transform-center-x="5.4653607"
         inkscape:transform-center-y="-9.4924686"
         style="stroke-width:4.08449793">
        <g
           transform="translate(0.41988239,0.03484499)"
           inkscape:label="Capa 1"
           id="layer1-3-65-9"
           style="stroke-width:4.08449793" />
      </g>
      <g
         transform="matrix(0.53602412,0,0,0.5372689,-234.93365,-13.7603)"
         id="layer1-4"
         inkscape:label="Capa 1"
         inkscape:transform-center-x="5.4653607"
         inkscape:transform-center-y="-9.4924686"
         style="stroke-width:4.08449793">
        <g
           transform="translate(0.41988239,0.03484499)"
           inkscape:label="Capa 1"
           id="layer1-3-65"
           style="stroke-width:4.08449793" />
      </g>
      <g
         transform="matrix(0.51126596,0,0,0.51245325,-269.32006,5.6156869)"
         id="layer1-4-3-2"
         inkscape:label="Capa 1"
         inkscape:transform-center-x="5.4653607"
         inkscape:transform-center-y="-9.4924686"
         style="stroke-width:4.08449793">
        <g
           transform="translate(0.41988239,0.03484499)"
           inkscape:label="Capa 1"
           id="layer1-3-65-9-9"
           style="stroke-width:4.08449793" />
      </g>
      <g
         transform="matrix(0.51126596,0,0,0.51245325,-269.32006,5.6395364)"
         id="layer1-4-1"
         inkscape:label="Capa 1"
         inkscape:transform-center-x="5.4653607"
         inkscape:transform-center-y="-9.4924686"
         style="stroke-width:4.08449793">
        <g
           transform="translate(0.41988239,0.03484499)"
           inkscape:label="Capa 1"
           id="layer1-3-65-2"
           style="stroke-width:4.08449793" />
      </g>
      <g
         transform="matrix(0.51113566,0,0,0.51234092,-259.74611,-0.14779896)"
         id="layer1-4-3-3"
         inkscape:label="Capa 1"
         inkscape:transform-center-x="5.4653607"
         inkscape:transform-center-y="-9.4924686"
         style="stroke-width:4.28330564">
        <g
           transform="translate(0.41988239,0.03484499)"
           inkscape:label="Capa 1"
           id="layer1-3-65-9-90"
           style="stroke-width:4.28330564" />
      </g>
      <g
         transform="matrix(0.51113566,0,0,0.51234092,-262.51766,-0.14779324)"
         id="layer1-4-5"
         inkscape:label="Capa 1"
         inkscape:transform-center-x="5.4653607"
         inkscape:transform-center-y="-9.4924686"
         style="stroke-width:4.28330564">
        <g
           transform="translate(0.41988239,0.03484499)"
           inkscape:label="Capa 1"
           id="layer1-3-65-22"
           style="stroke-width:4.28330564" />
      </g>
      <g
         transform="matrix(0.51114514,0,0,0.51234092,-184.60052,-0.14779996)"
         id="layer1-4-3-8"
         inkscape:label="Capa 1"
         inkscape:transform-center-x="5.4653607"
         inkscape:transform-center-y="-9.4924686"
         style="stroke-width:4.28326607">
        <g
           transform="translate(0.41988239,0.03484499)"
           inkscape:label="Capa 1"
           id="layer1-3-65-9-6"
           style="stroke-width:4.28326607" />
      </g>
      <g
         transform="matrix(0.51114514,0,0,0.51234092,-187.37212,-0.14779424)"
         id="layer1-4-57"
         inkscape:label="Capa 1"
         inkscape:transform-center-x="5.4653607"
         inkscape:transform-center-y="-9.4924686"
         style="stroke-width:4.28326607">
        <g
           transform="translate(0.41988239,0.03484499)"
           inkscape:label="Capa 1"
           id="layer1-3-65-6"
           style="stroke-width:4.28326607" />
      </g>
      <path
         sodipodi:nodetypes="ccccascscsscc"
         inkscape:connector-curvature="0"
         id="path5023-4-5"
         d="m 7.9334611,264.84255 v 31.0991 H 31.510257 v -17.45093 c -0.04497,-0.79272 -0.09694,-1.50222 -0.297998,-2.22156 -0.204528,-0.73176 -0.526835,-1.42463 -0.912036,-2.08767 -0.49289,-0.84843 -1.325841,-1.39546 -2.066143,-2.09076 -0.449128,-0.40729 -1.41916,-1.3748 -2.593304,-2.52995 -1.164536,-1.14569 -2.530343,-2.47643 -3.67058,-3.51027 -0.336774,-0.30391 -0.825976,-0.61931 -1.280469,-0.80146 -0.352917,-0.14142 -0.768099,-0.22946 -1.168955,-0.28862 -0.413339,-0.061 -0.811446,-0.0914 -1.11036,-0.11788 z"
         style="opacity:0.25;fill:#000000;fill-opacity:1;stroke:none;stroke-width:1.7883966;stroke-miterlimit:4;stroke-dasharray:none;stroke-opacity:1" />
      <path
         style="opacity:1;fill:url(#linearGradient1503-8-3);fill-opacity:1;stroke:#808080;stroke-width:0.30000001;stroke-miterlimit:4;stroke-dasharray:none;stroke-opacity:1"
         d="m 7.9334611,264.34165 v 31.0991 H 31.510257 v -17.45093 c -0.04497,-0.79272 -0.09694,-1.50223 -0.297998,-2.22157 -0.204528,-0.73176 -0.526835,-1.42463 -0.912036,-2.08767 -0.49289,-0.84842 -1.325841,-1.39545 -2.066143,-2.09075 -0.449128,-0.4073 -1.41916,-1.37481 -2.593304,-2.52996 -1.164536,-1.14567 -2.530343,-2.47643 -3.67058,-3.51027 -0.336774,-0.30391 -0.825976,-0.61932 -1.280469,-0.80145 -0.352917,-0.14142 -0.768099,-0.22947 -1.168955,-0.28862 -0.413339,-0.0611 -0.811446,-0.0914 -1.11036,-0.11788 z"
         id="path4623-8-3"
         inkscape:connector-curvature="0"
         sodipodi:nodetypes="ccccascscsscc" />
      <g
         style="stroke:#666666;stroke-width:0.4226653;stroke-miterlimit:4;stroke-dasharray:none;stroke-opacity:1"
         transform="matrix(0.23678687,0,0,0.23640094,0.76294799,225.87751)"
         id="g1045">
        <g
           style="stroke:#666666;stroke-width:0.4226653;stroke-miterlimit:4;stroke-dasharray:none;stroke-opacity:1"
           id="g1025">
          <path
             id="path1021"
             d="m 77.895643,177.90403 a 23.573172,23.573172 0 0 0 -23.573236,23.57324 23.573172,23.573172 0 0 0 23.573236,23.57323 23.573172,23.573172 0 0 0 23.573237,-23.57323 23.573172,23.573172 0 0 0 -0.002,-0.0444 H 77.929304 v -23.52725 a 23.573172,23.573172 0 0 0 -0.03411,-0.002 z"
             style="opacity:1;fill:#b2b2b2;fill-opacity:1;fill-rule:evenodd;stroke:#666666;stroke-width:0.4226653;stroke-linecap:round;stroke-linejoin:bevel;stroke-miterlimit:4;stroke-dasharray:none;stroke-opacity:1"
             inkscape:connector-curvature="0" />
          <path
             sodipodi:nodetypes="ccccccc"
             inkscape:connector-curvature="0"
             id="path1023"
             d="m 81.25903,174.78894 0.008,23.03267 23.17585,0.0269 c 0.0148,-0.22598 0.0262,-0.45218 0.0341,-0.67851 -3e-5,-12.37347 -10.03086,-22.40406 -22.40434,-22.4038 -0.2691,0.009 -0.54533,0.004 -0.81396,0.0228 z"
             style="opacity:1;fill:#f0c19c;fill-opacity:1;fill-rule:evenodd;stroke:#666666;stroke-width:0.4226653;stroke-linecap:round;stroke-linejoin:bevel;stroke-miterlimit:4;stroke-dasharray:none;stroke-opacity:1" />
        </g>
        <g
           id="g1043"
           style="fill:#f2c39e;fill-opacity:1;stroke:#666666;stroke-width:0.4226653;stroke-miterlimit:4;stroke-dasharray:none;stroke-opacity:1"
           transform="translate(-150.32969,-0.18124715)">
          <rect
             y="276.62665"
             x="202.37042"
             height="5.6126599"
             width="66.045387"
             id="rect1027"
             style="opacity:1;fill:#f2c39e;fill-opacity:1;fill-rule:evenodd;stroke:#666666;stroke-width:0.4226653;stroke-linecap:round;stroke-linejoin:bevel;stroke-miterlimit:4;stroke-dasharray:none;stroke-opacity:1" />
          <rect
             style="opacity:1;fill:#f2c39e;fill-opacity:1;fill-rule:evenodd;stroke:#666666;stroke-width:0.4226653;stroke-linecap:round;stroke-linejoin:bevel;stroke-miterlimit:4;stroke-dasharray:none;stroke-opacity:1"
             id="rect1029"
             width="5.6249995"
             height="5.6249995"
             x="192.37839"
             y="276.62048" />
          <rect
             style="opacity:1;fill:#f2c39e;fill-opacity:1;fill-rule:evenodd;stroke:#666666;stroke-width:0.4226653;stroke-linecap:round;stroke-linejoin:bevel;stroke-miterlimit:4;stroke-dasharray:none;stroke-opacity:1"
             id="rect1031"
             width="66.045387"
             height="5.6126599"
             x="202.37042"
             y="263.06741" />
          <rect
             y="263.06125"
             x="192.37839"
             height="5.6249995"
             width="5.6249995"
             id="rect1033"
             style="opacity:1;fill:#f2c39e;fill-opacity:1;fill-rule:evenodd;stroke:#666666;stroke-width:0.4226653;stroke-linecap:round;stroke-linejoin:bevel;stroke-miterlimit:4;stroke-dasharray:none;stroke-opacity:1" />
          <rect
             y="249.68326"
             x="202.37042"
             height="5.6126599"
             width="66.045387"
             id="rect1035"
             style="opacity:1;fill:#f2c39e;fill-opacity:1;fill-rule:evenodd;stroke:#666666;stroke-width:0.4226653;stroke-linecap:round;stroke-linejoin:bevel;stroke-miterlimit:4;stroke-dasharray:none;stroke-opacity:1" />
          <rect
             style="opacity:1;fill:#f2c39e;fill-opacity:1;fill-rule:evenodd;stroke:#666666;stroke-width:0.4226653;stroke-linecap:round;stroke-linejoin:bevel;stroke-miterlimit:4;stroke-dasharray:none;stroke-opacity:1"
             id="rect1037"
             width="5.6249995"
             height="5.6249995"
             x="192.37839"
             y="249.67709" />
          <rect
             style="opacity:1;fill:#f2c39e;fill-opacity:1;fill-rule:evenodd;stroke:#666666;stroke-width:0.4226653;stroke-linecap:round;stroke-linejoin:bevel;stroke-miterlimit:4;stroke-dasharray:none;stroke-opacity:1"
             id="rect1039"
             width="66.045387"
             height="5.6126599"
             x="202.37042"
             y="236.39996" />
          <rect
             y="236.3938"
             x="192.37839"
             height="5.6249995"
             width="5.6249995"
             id="rect1041"
             style="opacity:1;fill:#f2c39e;fill-opacity:1;fill-rule:evenodd;stroke:#666666;stroke-width:0.4226653;stroke-linecap:round;stroke-linejoin:bevel;stroke-miterlimit:4;stroke-dasharray:none;stroke-opacity:1" />
        </g>
      </g>
      <path
         style="opacity:0.24800002;fill:#000000;fill-opacity:1;stroke:none;stroke-width:0.28614345;stroke-miterlimit:4;stroke-dasharray:none;stroke-opacity:1"
         d="m 22.408931,266.16432 c 0.01558,0.0251 0.535104,0.86266 0.694023,1.33396 0.430633,0.96537 0.246583,3.78805 0.238753,5.3963 0.02643,-0.18501 4.472885,-1.33107 6.781108,0.7673 -0.01476,-0.026 -0.04661,-0.0767 -0.119315,-0.17763 -0.06899,-0.0958 -0.17427,-0.2376 -0.354401,-0.42173 -0.503605,-0.57647 -0.220212,-0.0806 -0.76804,-0.65035 -0.473643,-0.42957 -1.496671,-1.44994 -2.73492,-2.66823 -1.183594,-1.1645 -2.562257,-2.50753 -3.737208,-3.57962 z"
         id="path1355-8-5"
         inkscape:connector-curvature="0"
         sodipodi:nodetypes="ccccsccsc" />
      <path
         sodipodi:nodetypes="ccccccsc"
         inkscape:connector-curvature="0"
         id="path4753-0-6"
         d="m 22.097003,265.66577 c 0.01477,0.0238 0.507403,0.81793 0.658095,1.26482 0.408341,0.91533 0.278677,3.0687 0.271252,4.59359 0.409088,-0.0213 4.92012,-0.70281 6.988384,1.73944 -0.02792,-0.0483 -0.09801,-0.0884 -0.1371,-0.16508 -0.477534,-0.54659 -1.086708,-0.98577 -1.643554,-1.50875 -0.449123,-0.40731 -1.41919,-1.37479 -2.593338,-2.52993 -1.122321,-1.10415 -2.429613,-2.37758 -3.543739,-3.39409 z"
         style="opacity:1;fill:#ffffff;fill-opacity:1;stroke:#808080;stroke-width:0.30000001;stroke-miterlimit:4;stroke-dasharray:none;stroke-opacity:1" />
      <g
         transform="matrix(0.51113298,0,0,0.51234092,-183.99465,-0.14779896)"
         id="layer1-4-3-39"
         inkscape:label="Capa 1"
         inkscape:transform-center-x="5.4653607"
         inkscape:transform-center-y="-9.4924686"
         style="stroke-width:4.28331709">
        <g
           transform="translate(0.41988239,0.03484499)"
           inkscape:label="Capa 1"
           id="layer1-3-65-9-0"
           style="stroke-width:4.28331709" />
      </g>
      <g
         transform="matrix(0.51113298,0,0,0.51234092,-185.42553,-0.14779324)"
         id="layer1-4-52"
         inkscape:label="Capa 1"
         inkscape:transform-center-x="5.4653607"
         inkscape:transform-center-y="-9.4924686"
         style="stroke-width:4.28331709">
        <g
           transform="translate(0.41988239,0.03484499)"
           inkscape:label="Capa 1"
           id="layer1-3-65-27"
           style="stroke-width:4.28331709" />
      </g>
      <path
         style="opacity:1;fill:url(#linearGradient1057);fill-opacity:1;fill-rule:evenodd;stroke:#80341f;stroke-width:0.30000001;stroke-linecap:butt;stroke-linejoin:miter;stroke-miterlimit:4;stroke-dasharray:none;stroke-opacity:1"
         d="m 16.212734,274.5474 0.40545,0.084 -0.0037,16.81806 -0.405451,0.0803 -11.2531368,-1.68108 0.00849,-13.90536 c 3.7256322,-0.45921 7.5022898,-0.9392 11.2484028,-1.39591 z"
         id="path1047"
         inkscape:connector-curvature="0"
         sodipodi:nodetypes="ccccccc" />
      <path
         sodipodi:nodetypes="sscccccccccsssssscsscccccs"
         inkscape:connector-curvature="0"
         id="path1049"
         d="m 10.646076,279.84719 c -0.21675,2.3e-4 -0.496068,0.0118 -0.8859138,0.0323 -0.5459694,0.0288 -1.0410146,0.0598 -1.1001613,0.0688 l -0.1075582,0.0163 v 3.00401 3.00413 l 0.074521,0.0169 c 0.1097113,0.0249 0.427266,0.0394 0.8023359,0.0365 l 0.3308674,-0.003 0.00877,-1.03241 0.00868,-1.03229 h 0.447726 c 0.833513,0 1.321167,-0.17214 1.768883,-0.62425 0.409649,-0.41367 0.595048,-0.89188 0.595048,-1.53499 0,-0.97577 -0.409481,-1.63092 -1.15804,-1.85272 -0.236335,-0.07 -0.423964,-0.10036 -0.785202,-0.0998 z m -0.598971,1.13588 c 0.232532,-9.5e-4 0.5718,0.039 0.690371,0.0915 0.304546,0.13475 0.451448,0.44962 0.420441,0.90121 -0.0274,0.39919 -0.152765,0.61987 -0.43806,0.77097 -0.108728,0.0576 -0.204802,0.0724 -0.537786,0.083 l -0.4052624,0.0129 v -0.91121 -0.91123 l 0.085535,-0.0214 c 0.04169,-0.0104 0.1072568,-0.0154 0.1847654,-0.0156 z"
         style="fill:#ffffff;stroke-width:0.99999994" />
    </g>
  </g>
</svg>
