<?xml version="1.0" encoding="UTF-8" standalone="no"?>
<!-- Created with Inkscape (http://www.inkscape.org/) -->

<svg
   xmlns:osb="http://www.openswatchbook.org/uri/2009/osb"
   xmlns:dc="http://purl.org/dc/elements/1.1/"
   xmlns:cc="http://creativecommons.org/ns#"
   xmlns:rdf="http://www.w3.org/1999/02/22-rdf-syntax-ns#"
   xmlns:svg="http://www.w3.org/2000/svg"
   xmlns="http://www.w3.org/2000/svg"
   xmlns:xlink="http://www.w3.org/1999/xlink"
   xmlns:sodipodi="http://sodipodi.sourceforge.net/DTD/sodipodi-0.dtd"
   xmlns:inkscape="http://www.inkscape.org/namespaces/inkscape"
   width="128"
   height="128"
   viewBox="0 0 33.866666 33.866668"
   version="1.1"
   id="svg8"
   inkscape:version="0.92.2 5c3e80d, 2017-08-06"
   sodipodi:docname="application-table.svg">
  <defs
     id="defs2">
    <linearGradient
       id="linearGradient1830">
      <stop
         id="stop1826"
         style="stop-color:#d9d9d9;stop-opacity:1"
         offset="0" />
      <stop
         id="stop1828"
         style="stop-color:#ffffff;stop-opacity:1;"
         offset="1" />
    </linearGradient>
    <linearGradient
       osb:paint="solid"
       id="linearGradient6987">
      <stop
         id="stop6985"
         offset="0"
         style="stop-color:#77d2fb;stop-opacity:1;" />
    </linearGradient>
    <linearGradient
       inkscape:collect="always"
       id="linearGradient4730">
      <stop
         style="stop-color:#196138;stop-opacity:1"
         offset="0"
         id="stop4732" />
      <stop
         style="stop-color:#318358;stop-opacity:1"
         offset="1"
         id="stop4734" />
    </linearGradient>
    <linearGradient
       gradientTransform="matrix(0.95460264,0,0,0.9545928,2.257551,12.720465)"
       gradientUnits="userSpaceOnUse"
       y2="296.16849"
       x2="4.5843229"
       y1="263.52237"
       x1="29.203474"
       id="linearGradient1503-8-3"
       xlink:href="#linearGradient1830"
       inkscape:collect="always" />
    <linearGradient
       y2="233.70825"
       x2="46.972088"
       y1="232.64992"
       x1="-6.8459706"
       gradientTransform="matrix(0.1907712,0,0,0.18550528,4.9532094,239.88079)"
       gradientUnits="userSpaceOnUse"
       id="linearGradient1057"
       xlink:href="#linearGradient4730"
       inkscape:collect="always" />
  </defs>
  <sodipodi:namedview
     id="base"
     pagecolor="#ffffff"
     bordercolor="#666666"
     borderopacity="1.0"
     inkscape:pageopacity="0.0"
     inkscape:pageshadow="2"
     inkscape:zoom="1.979899"
     inkscape:cx="1.4091472"
     inkscape:cy="24.729836"
     inkscape:document-units="mm"
     inkscape:current-layer="layer1"
     showgrid="false"
     units="px"
     inkscape:window-width="1600"
     inkscape:window-height="792"
     inkscape:window-x="0"
     inkscape:window-y="0"
     inkscape:window-maximized="1"
     showguides="false" />
  <metadata
     id="metadata5">
    <rdf:RDF>
      <cc:Work
         rdf:about="">
        <dc:format>image/svg+xml</dc:format>
        <dc:type
           rdf:resource="http://purl.org/dc/dcmitype/StillImage" />
        <dc:title />
      </cc:Work>
    </rdf:RDF>
  </metadata>
  <g
     inkscape:label="Layer 1"
     inkscape:groupmode="layer"
     id="layer1"
     transform="translate(0,-263.13332)">
    <g
       style="stroke-width:4.08449793"
       inkscape:transform-center-y="-9.4924686"
       inkscape:transform-center-x="5.4653607"
       inkscape:label="Capa 1"
       id="layer1-4-3"
       transform="matrix(0.53602412,0,0,0.5372689,-233.35679,-13.760303)">
      <g
         style="stroke-width:4.08449793"
         id="layer1-3-65-9"
         inkscape:label="Capa 1"
         transform="translate(0.41988239,0.03484499)" />
    </g>
    <g
       style="stroke-width:4.08449793"
       inkscape:transform-center-y="-9.4924686"
       inkscape:transform-center-x="5.4653607"
       inkscape:label="Capa 1"
       id="layer1-4"
       transform="matrix(0.53602412,0,0,0.5372689,-236.26329,-13.760297)">
      <g
         style="stroke-width:4.08449793"
         id="layer1-3-65"
         inkscape:label="Capa 1"
         transform="translate(0.41988239,0.03484499)" />
    </g>
    <g
       style="stroke-width:4.08449793"
       inkscape:transform-center-y="-9.4924686"
       inkscape:transform-center-x="5.4653607"
       inkscape:label="Capa 1"
       id="layer1-4-3-5"
       transform="matrix(0.53602412,0,0,0.5372689,-236.23335,-13.7853)">
      <g
         style="stroke-width:4.08449793"
         id="layer1-3-65-9-2"
         inkscape:label="Capa 1"
         transform="translate(0.41988239,0.03484499)" />
    </g>
    <g
       style="stroke-width:4.08449793"
       inkscape:transform-center-y="-9.4924686"
       inkscape:transform-center-x="5.4653607"
       inkscape:label="Capa 1"
       id="layer1-4-2"
       transform="matrix(0.53602412,0,0,0.5372689,-236.23335,-13.760297)">
      <g
         style="stroke-width:4.08449793"
         id="layer1-3-65-7"
         inkscape:label="Capa 1"
         transform="translate(0.41988239,0.03484499)" />
    </g>
    <g
       style="stroke-width:4.08449793"
       inkscape:transform-center-y="-9.4924686"
       inkscape:transform-center-x="5.4653607"
       inkscape:label="Capa 1"
       id="layer1-4-3-2"
       transform="matrix(0.51126596,0,0,0.51245325,-270.61976,5.6156902)">
      <g
         style="stroke-width:4.08449793"
         id="layer1-3-65-9-9"
         inkscape:label="Capa 1"
         transform="translate(0.41988239,0.03484499)" />
    </g>
    <g
       style="stroke-width:4.08449793"
       inkscape:transform-center-y="-9.4924686"
       inkscape:transform-center-x="5.4653607"
       inkscape:label="Capa 1"
       id="layer1-4-1"
       transform="matrix(0.51126596,0,0,0.51245325,-270.61976,5.6395397)">
      <g
         style="stroke-width:4.08449793"
         id="layer1-3-65-2"
         inkscape:label="Capa 1"
         transform="translate(0.41988239,0.03484499)" />
    </g>
    <g
       style="stroke-width:4.28330564"
       inkscape:transform-center-y="-9.4924686"
       inkscape:transform-center-x="5.4653607"
       inkscape:label="Capa 1"
       id="layer1-4-3-3"
       transform="matrix(0.51113566,0,0,0.51234092,-261.04581,-0.14779562)">
      <g
         style="stroke-width:4.28330564"
         id="layer1-3-65-9-90"
         inkscape:label="Capa 1"
         transform="translate(0.41988239,0.03484499)" />
    </g>
    <g
       style="stroke-width:4.28330564"
       inkscape:transform-center-y="-9.4924686"
       inkscape:transform-center-x="5.4653607"
       inkscape:label="Capa 1"
       id="layer1-4-5"
       transform="matrix(0.51113566,0,0,0.51234092,-263.81736,-0.1477899)">
      <g
         style="stroke-width:4.28330564"
         id="layer1-3-65-22"
         inkscape:label="Capa 1"
         transform="translate(0.41988239,0.03484499)" />
    </g>
    <g
       style="stroke-width:4.28326607"
       inkscape:transform-center-y="-9.4924686"
       inkscape:transform-center-x="5.4653607"
       inkscape:label="Capa 1"
       id="layer1-4-3-8"
       transform="matrix(0.51114514,0,0,0.51234092,-185.90022,-0.14779662)">
      <g
         style="stroke-width:4.28326607"
         id="layer1-3-65-9-6"
         inkscape:label="Capa 1"
         transform="translate(0.41988239,0.03484499)" />
    </g>
    <g
       style="stroke-width:4.28326607"
       inkscape:transform-center-y="-9.4924686"
       inkscape:transform-center-x="5.4653607"
       inkscape:label="Capa 1"
       id="layer1-4-57"
       transform="matrix(0.51114514,0,0,0.51234092,-188.67182,-0.1477909)">
      <g
         style="stroke-width:4.28326607"
         id="layer1-3-65-6"
         inkscape:label="Capa 1"
         transform="translate(0.41988239,0.03484499)" />
    </g>
    <path
       style="opacity:0.25;fill:#000000;fill-opacity:1;stroke:none;stroke-width:1.7883966;stroke-miterlimit:4;stroke-dasharray:none;stroke-opacity:1"
       d="m 6.6337573,264.84255 v 31.0991 H 30.210553 v -17.45093 c -0.04497,-0.79272 -0.09694,-1.50222 -0.297998,-2.22156 -0.204528,-0.73176 -0.526835,-1.42463 -0.912036,-2.08767 -0.49289,-0.84843 -1.325841,-1.39546 -2.066143,-2.09076 -0.449128,-0.40729 -1.41916,-1.3748 -2.593304,-2.52995 -1.164536,-1.14569 -2.530343,-2.47643 -3.67058,-3.51027 -0.336774,-0.30391 -0.825976,-0.61931 -1.280469,-0.80146 -0.352917,-0.14142 -0.768099,-0.22946 -1.168955,-0.28862 -0.413339,-0.061 -0.811446,-0.0914 -1.11036,-0.11788 z"
       id="path5023-4-5"
       inkscape:connector-curvature="0"
       sodipodi:nodetypes="ccccascscsscc" />
    <path
       sodipodi:nodetypes="ccccascscsscc"
       inkscape:connector-curvature="0"
       id="path4623-8-3"
       d="m 6.6337573,264.34165 v 31.0991 H 30.210553 v -17.45093 c -0.04497,-0.79272 -0.09694,-1.50223 -0.297998,-2.22157 -0.204528,-0.73176 -0.526835,-1.42463 -0.912036,-2.08767 -0.49289,-0.84842 -1.325841,-1.39545 -2.066143,-2.09075 -0.449128,-0.4073 -1.41916,-1.37481 -2.593304,-2.52996 -1.164536,-1.14567 -2.530343,-2.47643 -3.67058,-3.51027 -0.336774,-0.30391 -0.825976,-0.61932 -1.280469,-0.80145 -0.352917,-0.14142 -0.768099,-0.22947 -1.168955,-0.28862 -0.413339,-0.0611 -0.811446,-0.0914 -1.11036,-0.11788 z"
       style="opacity:1;fill:url(#linearGradient1503-8-3);fill-opacity:1;stroke:#808080;stroke-width:0.30000001;stroke-miterlimit:4;stroke-dasharray:none;stroke-opacity:1" />
    <g
       transform="matrix(0.95356466,0,0,0.95360233,-38.719406,11.917603)"
       id="g1245"
       style="stroke-width:0.10486759;stroke:#808080;stroke-opacity:1;stroke-miterlimit:4;stroke-dasharray:none">
      <rect
         style="opacity:1;fill:#afafaf;fill-opacity:1;fill-rule:evenodd;stroke:#808080;stroke-width:0.10486759;stroke-linecap:round;stroke-linejoin:bevel;stroke-miterlimit:4;stroke-dasharray:none;stroke-opacity:1"
         id="rect1199"
         width="5.5517154"
         height="2.7712202"
         x="50.561131"
         y="267.58694" />
      <rect
         y="267.58694"
         x="57.173199"
         height="2.7712202"
         width="5.5517154"
         id="rect1201"
         style="opacity:1;fill:#afafaf;fill-opacity:1;fill-rule:evenodd;stroke:#808080;stroke-width:0.10486759;stroke-linecap:round;stroke-linejoin:bevel;stroke-miterlimit:4;stroke-dasharray:none;stroke-opacity:1" />
      <rect
         y="271.44952"
         x="50.561131"
         height="2.7712202"
         width="5.5517154"
         id="rect1203"
         style="opacity:1;fill:#afafaf;fill-opacity:1;fill-rule:evenodd;stroke:#808080;stroke-width:0.10486759;stroke-linecap:round;stroke-linejoin:bevel;stroke-miterlimit:4;stroke-dasharray:none;stroke-opacity:1" />
      <rect
         style="opacity:1;fill:#92c897;fill-opacity:1;fill-rule:evenodd;stroke:#808080;stroke-width:0.10486759;stroke-linecap:round;stroke-linejoin:bevel;stroke-miterlimit:4;stroke-dasharray:none;stroke-opacity:1"
         id="rect1205"
         width="5.5517154"
         height="2.7712202"
         x="57.173195"
         y="271.44952" />
      <path
         style="opacity:1;fill:#92c897;fill-opacity:1;fill-rule:evenodd;stroke:#808080;stroke-width:0.10486759;stroke-linecap:round;stroke-linejoin:bevel;stroke-miterlimit:4;stroke-dasharray:none;stroke-opacity:1"
         d="m 63.758702,271.44953 3.759332,0.35882 1.769156,0.70792 v 1.70449 h -5.528488 z"
         id="path1207"
         inkscape:connector-curvature="0"
         sodipodi:nodetypes="cccccc" />
      <rect
         style="opacity:1;fill:#afafaf;fill-opacity:1;fill-rule:evenodd;stroke:#808080;stroke-width:0.10486759;stroke-linecap:round;stroke-linejoin:bevel;stroke-miterlimit:4;stroke-dasharray:none;stroke-opacity:1"
         id="rect1209"
         width="5.5517154"
         height="2.7712202"
         x="50.561131"
         y="275.66376" />
      <rect
         y="275.66376"
         x="57.173199"
         height="2.7712202"
         width="5.5517154"
         id="rect1211"
         style="opacity:1;fill:#92c897;fill-opacity:1;fill-rule:evenodd;stroke:#808080;stroke-width:0.10486759;stroke-linecap:round;stroke-linejoin:bevel;stroke-miterlimit:4;stroke-dasharray:none;stroke-opacity:1" />
      <rect
         style="opacity:1;fill:#92c897;fill-opacity:1;fill-rule:evenodd;stroke:#808080;stroke-width:0.10486759;stroke-linecap:round;stroke-linejoin:bevel;stroke-miterlimit:4;stroke-dasharray:none;stroke-opacity:1"
         id="rect1213"
         width="5.5052576"
         height="2.7712202"
         x="63.758705"
         y="275.66376" />
      <g
         id="g1221"
         transform="matrix(0.24831791,0,0,0.24790304,8.5823212,227.97954)"
         style="fill:#92c897;fill-opacity:1;stroke-width:0.42266504;stroke:#808080;stroke-opacity:1;stroke-miterlimit:4;stroke-dasharray:none">
        <rect
           style="opacity:1;fill:#92c897;fill-opacity:1;fill-rule:evenodd;stroke:#808080;stroke-width:0.42266504;stroke-linecap:round;stroke-linejoin:bevel;stroke-miterlimit:4;stroke-dasharray:none;stroke-opacity:1"
           id="rect1215"
           width="22.35729"
           height="11.178645"
           x="169.05269"
           y="207.86853" />
        <rect
           y="207.86853"
           x="195.68011"
           height="11.178645"
           width="22.35729"
           id="rect1217"
           style="opacity:1;fill:#92c897;fill-opacity:1;fill-rule:evenodd;stroke:#808080;stroke-width:0.42266504;stroke-linecap:round;stroke-linejoin:bevel;stroke-miterlimit:4;stroke-dasharray:none;stroke-opacity:1" />
        <rect
           style="opacity:1;fill:#92c897;fill-opacity:1;fill-rule:evenodd;stroke:#808080;stroke-width:0.42266504;stroke-linecap:round;stroke-linejoin:bevel;stroke-miterlimit:4;stroke-dasharray:none;stroke-opacity:1"
           id="rect1219"
           width="22.1702"
           height="11.178645"
           x="222.20058"
           y="207.86855" />
      </g>
      <g
         transform="matrix(0.24831791,0,0,0.24790304,8.5823212,231.87544)"
         id="g1229"
         style="fill:#92c897;fill-opacity:1;stroke-width:0.42266504;stroke:#808080;stroke-opacity:1;stroke-miterlimit:4;stroke-dasharray:none">
        <rect
           y="207.86853"
           x="169.05269"
           height="11.178645"
           width="22.35729"
           id="rect1223"
           style="opacity:1;fill:#92c897;fill-opacity:1;fill-rule:evenodd;stroke:#808080;stroke-width:0.42266504;stroke-linecap:round;stroke-linejoin:bevel;stroke-miterlimit:4;stroke-dasharray:none;stroke-opacity:1" />
        <rect
           style="opacity:1;fill:#92c897;fill-opacity:1;fill-rule:evenodd;stroke:#808080;stroke-width:0.42266504;stroke-linecap:round;stroke-linejoin:bevel;stroke-miterlimit:4;stroke-dasharray:none;stroke-opacity:1"
           id="rect1225"
           width="22.35729"
           height="11.178645"
           x="195.68011"
           y="207.86853" />
        <rect
           y="207.86855"
           x="222.20058"
           height="11.178645"
           width="22.1702"
           id="rect1227"
           style="opacity:1;fill:#92c897;fill-opacity:1;fill-rule:evenodd;stroke:#808080;stroke-width:0.42266504;stroke-linecap:round;stroke-linejoin:bevel;stroke-miterlimit:4;stroke-dasharray:none;stroke-opacity:1" />
      </g>
      <g
         id="g1237"
         transform="matrix(0.24831791,0,0,0.24790304,8.5823212,235.77447)"
         style="fill:#92c897;fill-opacity:1;stroke-width:0.42266504;stroke:#808080;stroke-opacity:1;stroke-miterlimit:4;stroke-dasharray:none">
        <rect
           style="opacity:1;fill:#92c897;fill-opacity:1;fill-rule:evenodd;stroke:#808080;stroke-width:0.42266504;stroke-linecap:round;stroke-linejoin:bevel;stroke-miterlimit:4;stroke-dasharray:none;stroke-opacity:1"
           id="rect1231"
           width="22.35729"
           height="11.178645"
           x="169.05269"
           y="207.86853" />
        <rect
           y="207.86853"
           x="195.68011"
           height="11.178645"
           width="22.35729"
           id="rect1233"
           style="opacity:1;fill:#92c897;fill-opacity:1;fill-rule:evenodd;stroke:#808080;stroke-width:0.42266504;stroke-linecap:round;stroke-linejoin:bevel;stroke-miterlimit:4;stroke-dasharray:none;stroke-opacity:1" />
        <rect
           style="opacity:1;fill:#92c897;fill-opacity:1;fill-rule:evenodd;stroke:#808080;stroke-width:0.42266504;stroke-linecap:round;stroke-linejoin:bevel;stroke-miterlimit:4;stroke-dasharray:none;stroke-opacity:1"
           id="rect1235"
           width="22.1702"
           height="11.178645"
           x="222.20058"
           y="207.86855" />
      </g>
      <rect
         style="opacity:1;fill:#afafaf;fill-opacity:1;fill-rule:evenodd;stroke:#808080;stroke-width:0.10486759;stroke-linecap:round;stroke-linejoin:bevel;stroke-miterlimit:4;stroke-dasharray:none;stroke-opacity:1"
         id="rect1239"
         width="5.5517154"
         height="2.7712202"
         x="50.561131"
         y="291.16034" />
      <rect
         y="291.16034"
         x="57.173199"
         height="2.7712202"
         width="5.5517154"
         id="rect1241"
         style="opacity:1;fill:#92c897;fill-opacity:1;fill-rule:evenodd;stroke:#808080;stroke-width:0.10486759;stroke-linecap:round;stroke-linejoin:bevel;stroke-miterlimit:4;stroke-dasharray:none;stroke-opacity:1" />
      <rect
         style="opacity:1;fill:#92c897;fill-opacity:1;fill-rule:evenodd;stroke:#808080;stroke-width:0.10486759;stroke-linecap:round;stroke-linejoin:bevel;stroke-miterlimit:4;stroke-dasharray:none;stroke-opacity:1"
         id="rect1243"
         width="5.5052576"
         height="2.7712202"
         x="63.758705"
         y="291.16034" />
    </g>
    <path
       sodipodi:nodetypes="ccccsccsc"
       inkscape:connector-curvature="0"
       id="path1355-8-5"
       d="m 21.109227,266.16432 c 0.01558,0.0251 0.535104,0.86266 0.694023,1.33396 0.430633,0.96537 0.246583,3.78805 0.238753,5.3963 0.02643,-0.18501 4.472885,-1.33107 6.781108,0.7673 -0.01476,-0.026 -0.04661,-0.0767 -0.119315,-0.17763 -0.06899,-0.0958 -0.17427,-0.2376 -0.354401,-0.42173 -0.503605,-0.57647 -0.220212,-0.0806 -0.76804,-0.65035 -0.473643,-0.42957 -1.496671,-1.44994 -2.73492,-2.66823 -1.183594,-1.1645 -2.562257,-2.50753 -3.737208,-3.57962 z"
       style="opacity:0.24800002;fill:#000000;fill-opacity:1;stroke:none;stroke-width:0.28614345;stroke-miterlimit:4;stroke-dasharray:none;stroke-opacity:1" />
    <path
       style="opacity:1;fill:#ffffff;fill-opacity:1;stroke:#808080;stroke-width:0.30000001;stroke-miterlimit:4;stroke-dasharray:none;stroke-opacity:1"
       d="m 20.797299,265.66577 c 0.01477,0.0238 0.507403,0.81793 0.658095,1.26482 0.408341,0.91533 0.278677,3.0687 0.271252,4.59359 0.409088,-0.0213 4.92012,-0.70281 6.988384,1.73944 -0.02792,-0.0483 -0.09801,-0.0884 -0.1371,-0.16508 -0.477534,-0.54659 -1.086708,-0.98577 -1.643554,-1.50875 -0.449123,-0.40731 -1.41919,-1.37479 -2.593338,-2.52993 -1.122321,-1.10415 -2.429613,-2.37758 -3.543739,-3.39409 z"
       id="path4753-0-6"
       inkscape:connector-curvature="0"
       sodipodi:nodetypes="ccccccsc" />
    <g
       style="stroke-width:4.28331709"
       inkscape:transform-center-y="-9.4924686"
       inkscape:transform-center-x="5.4653607"
       inkscape:label="Capa 1"
       id="layer1-4-3-39"
       transform="matrix(0.51113298,0,0,0.51234092,-185.29435,-0.14779562)">
      <g
         style="stroke-width:4.28331709"
         id="layer1-3-65-9-0"
         inkscape:label="Capa 1"
         transform="translate(0.41988239,0.03484499)" />
    </g>
    <g
       style="stroke-width:4.28331709"
       inkscape:transform-center-y="-9.4924686"
       inkscape:transform-center-x="5.4653607"
       inkscape:label="Capa 1"
       id="layer1-4-52"
       transform="matrix(0.51113298,0,0,0.51234092,-186.72523,-0.1477899)">
      <g
         style="stroke-width:4.28331709"
         id="layer1-3-65-27"
         inkscape:label="Capa 1"
         transform="translate(0.41988239,0.03484499)" />
    </g>
    <path
       sodipodi:nodetypes="ccccccc"
       inkscape:connector-curvature="0"
       id="path1047"
       d="m 14.91303,274.5474 0.40545,0.084 -0.0037,16.81806 -0.405451,0.0803 -11.2531366,-1.68108 0.00849,-13.90536 c 3.7256322,-0.45921 7.5022896,-0.9392 11.2484026,-1.39591 z"
       style="opacity:1;fill:url(#linearGradient1057);fill-opacity:1;fill-rule:evenodd;stroke:#1c4d35;stroke-width:0.30000001;stroke-linecap:butt;stroke-linejoin:miter;stroke-miterlimit:4;stroke-dasharray:none;stroke-opacity:1" />
    <path
       style="fill:#ffffff;fill-opacity:1;stroke-width:1"
       d="m 11.902084,279.77292 c -0.451361,0.004 -0.934308,0.0287 -1.363004,0.0743 l -0.45984,0.96583 c -0.2529097,0.53121 -0.4923897,1.06159 -0.5321577,1.17864 -0.03977,0.11704 -0.08305,0.2128 -0.09618,0.2128 -0.01314,0 -0.05236,-0.0841 -0.08713,-0.1869 -0.03477,-0.10279 -0.246556,-0.61109 -0.47073,-1.12953 l -0.407592,-0.94261 -0.453355,0.008 c -0.641515,0.0112 -0.994323,0.0404 -0.994323,0.0827 0,0.0197 0.33941,0.69403 0.754245,1.4987 0.414834,0.80467 0.754248,1.48065 0.754248,1.50213 0,0.0215 -0.368925,0.69172 -0.819833,1.48953 -0.450909,0.79782 -0.819833,1.47323 -0.819833,1.50078 0,0.0421 0.0871,0.0532 0.549287,0.0706 0.302109,0.0113 0.60094,0.0272 0.664065,0.0352 0.06313,0.008 0.132648,0.004 0.154543,-0.0101 0.05211,-0.0323 0.914013,-1.79309 1.012313,-2.06798 0.04175,-0.11675 0.08959,-0.21681 0.106211,-0.22235 0.01662,-0.006 0.04626,0.0532 0.06595,0.13048 0.03297,0.12934 0.9976477,2.20678 1.0487747,2.25856 0.01239,0.0126 0.288141,0.0361 0.612796,0.0524 0.831115,0.0416 0.928523,0.0428 0.947336,0.0125 0.0089,-0.0153 -0.390165,-0.75877 -0.887133,-1.65263 l -0.903897,-1.62575 0.872693,-1.58581 c 0.480024,-0.8722 0.872816,-1.60304 0.872816,-1.62416 0,-0.0144 -0.0344,-0.0226 -0.120282,-0.0251 z"
       id="path4907"
       inkscape:connector-curvature="0"
       sodipodi:nodetypes="cccscsccssssssccscscscsccssc" />
  </g>
</svg>
