<?xml version="1.0" encoding="UTF-8" standalone="no"?>
<!-- Created with Inkscape (http://www.inkscape.org/) -->

<svg
   xmlns:osb="http://www.openswatchbook.org/uri/2009/osb"
   xmlns:dc="http://purl.org/dc/elements/1.1/"
   xmlns:cc="http://creativecommons.org/ns#"
   xmlns:rdf="http://www.w3.org/1999/02/22-rdf-syntax-ns#"
   xmlns:svg="http://www.w3.org/2000/svg"
   xmlns="http://www.w3.org/2000/svg"
   xmlns:xlink="http://www.w3.org/1999/xlink"
   xmlns:sodipodi="http://sodipodi.sourceforge.net/DTD/sodipodi-0.dtd"
   xmlns:inkscape="http://www.inkscape.org/namespaces/inkscape"
   width="128"
   height="128"
   viewBox="0 0 33.866666 33.866668"
   version="1.1"
   id="svg8"
   inkscape:version="0.92.2 5c3e80d, 2017-08-06"
   sodipodi:docname="application-photoshop.svg">
  <defs
     id="defs2">
    <linearGradient
       inkscape:collect="always"
       id="linearGradient1212">
      <stop
         style="stop-color:#57eaff;stop-opacity:1"
         offset="0"
         id="stop1208" />
      <stop
         style="stop-color:#00aaea;stop-opacity:1"
         offset="1"
         id="stop1210" />
    </linearGradient>
    <linearGradient
       inkscape:collect="always"
       id="linearGradient1556">
      <stop
         style="stop-color:#8becfe;stop-opacity:1"
         offset="0"
         id="stop1552" />
      <stop
         style="stop-color:#72c2d1;stop-opacity:1"
         offset="1"
         id="stop1554" />
    </linearGradient>
    <linearGradient
       id="linearGradient1550">
      <stop
         offset="0"
         style="stop-color:#0079c5;stop-opacity:1"
         id="stop1546" />
      <stop
         offset="1"
         style="stop-color:#003771;stop-opacity:1"
         id="stop1548" />
    </linearGradient>
    <linearGradient
       osb:paint="solid"
       id="linearGradient6987">
      <stop
         id="stop6985"
         offset="0"
         style="stop-color:#77d2fb;stop-opacity:1;" />
    </linearGradient>
    <linearGradient
       inkscape:collect="always"
       xlink:href="#linearGradient1550"
       id="linearGradient1503-8-3"
       x1="22.086622"
       y1="268.22873"
       x2="4.5843229"
       y2="296.16849"
       gradientUnits="userSpaceOnUse"
       gradientTransform="matrix(0.95481176,0,0,0.95480184,0.765188,12.661897)" />
    <linearGradient
       inkscape:collect="always"
       xlink:href="#linearGradient1556"
       id="linearGradient1558"
       x1="20.93516"
       y1="270.77063"
       x2="22.864681"
       y2="269.12662"
       gradientUnits="userSpaceOnUse" />
    <linearGradient
       inkscape:collect="always"
       xlink:href="#linearGradient1212"
       id="linearGradient1214"
       x1="9.6650476"
       y1="280.87628"
       x2="9.6650476"
       y2="289.80347"
       gradientUnits="userSpaceOnUse" />
  </defs>
  <sodipodi:namedview
     id="base"
     pagecolor="#ffffff"
     bordercolor="#666666"
     borderopacity="1.0"
     inkscape:pageopacity="0.0"
     inkscape:pageshadow="2"
     inkscape:zoom="2.1867348"
     inkscape:cx="135.89893"
     inkscape:cy="31.378608"
     inkscape:document-units="mm"
     inkscape:current-layer="layer1"
     showgrid="false"
     units="px"
     inkscape:window-width="1600"
     inkscape:window-height="811"
     inkscape:window-x="0"
     inkscape:window-y="0"
     inkscape:window-maximized="1"
     showguides="false"
     inkscape:snap-nodes="false" />
  <metadata
     id="metadata5">
    <rdf:RDF>
      <cc:Work
         rdf:about="">
        <dc:format>image/svg+xml</dc:format>
        <dc:type
           rdf:resource="http://purl.org/dc/dcmitype/StillImage" />
        <dc:title />
      </cc:Work>
    </rdf:RDF>
  </metadata>
  <g
     inkscape:label="Layer 1"
     inkscape:groupmode="layer"
     id="layer1"
     transform="translate(0,-263.13332)">
    <g
       style="stroke-width:4.08449793"
       inkscape:transform-center-y="-9.4924686"
       inkscape:transform-center-x="5.4653607"
       inkscape:label="Capa 1"
       id="layer1-4-3"
       transform="matrix(0.53602412,0,0,0.5372689,-234.93365,-13.785303)">
      <g
         style="stroke-width:4.08449793"
         id="layer1-3-65-9"
         inkscape:label="Capa 1"
         transform="translate(0.41988239,0.03484499)" />
    </g>
    <g
       style="stroke-width:4.08449793"
       inkscape:transform-center-y="-9.4924686"
       inkscape:transform-center-x="5.4653607"
       inkscape:label="Capa 1"
       id="layer1-4"
       transform="matrix(0.53602412,0,0,0.5372689,-234.93365,-13.7603)">
      <g
         style="stroke-width:4.08449793"
         id="layer1-3-65"
         inkscape:label="Capa 1"
         transform="translate(0.41988239,0.03484499)" />
    </g>
    <path
       style="opacity:0.25;fill:#000000;fill-opacity:1;stroke:none;stroke-width:1.7883966;stroke-miterlimit:4;stroke-dasharray:none;stroke-opacity:1"
       d="m 5.142353,264.8392 v 31.10591 h 23.581961 v -17.45475 c -0.04498,-0.7929 -0.09696,-1.50255 -0.298063,-2.22205 -0.204573,-0.73192 -0.526951,-1.42494 -0.912236,-2.08813 -0.492998,-0.84861 -1.326132,-1.39576 -2.066596,-2.09122 -0.449226,-0.40738 -1.419471,-1.3751 -2.593872,-2.5305 -1.164791,-1.14594 -2.530897,-2.47697 -3.671384,-3.51104 -0.336848,-0.30398 -0.826157,-0.61944 -1.28075,-0.80163 -0.352994,-0.14146 -0.768267,-0.22951 -1.169211,-0.28869 -0.413429,-0.061 -0.811623,-0.0914 -1.110603,-0.1179 z"
       id="path5023-4-5"
       inkscape:connector-curvature="0"
       sodipodi:nodetypes="ccccascscsscc" />
    <path
       sodipodi:nodetypes="ccccascscsscc"
       inkscape:connector-curvature="0"
       id="path4623-8-3"
       d="m 5.142353,264.33819 v 31.10591 h 23.581961 v -17.45475 c -0.04498,-0.7929 -0.09696,-1.50256 -0.298063,-2.22206 -0.204573,-0.73192 -0.526951,-1.42494 -0.912236,-2.08813 -0.492998,-0.8486 -1.326132,-1.39575 -2.066596,-2.09121 -0.449226,-0.40739 -1.419471,-1.37511 -2.593872,-2.53051 -1.164791,-1.14592 -2.530897,-2.47697 -3.671384,-3.51104 -0.336848,-0.30398 -0.826157,-0.61945 -1.28075,-0.80162 -0.352994,-0.14146 -0.768267,-0.22952 -1.169211,-0.28869 -0.413429,-0.0611 -0.811623,-0.0914 -1.110603,-0.1179 z"
       style="opacity:1;fill:url(#linearGradient1503-8-3);fill-opacity:1;stroke:#0056a3;stroke-width:0.1;stroke-miterlimit:4;stroke-dasharray:none;stroke-opacity:1" />
    <path
       sodipodi:nodetypes="ccccsccsc"
       inkscape:connector-curvature="0"
       id="path1355-8-5"
       d="m 19.620994,266.16126 c 0.01558,0.0251 0.535221,0.86284 0.694175,1.33425 0.430727,0.96558 0.246637,3.78888 0.238805,5.39748 0.02644,-0.18505 4.473865,-1.33136 6.782594,0.76747 -0.01476,-0.026 -0.04662,-0.0767 -0.119341,-0.17767 -0.06901,-0.0958 -0.174308,-0.23765 -0.354479,-0.42182 -0.503715,-0.5766 -0.22026,-0.0806 -0.768208,-0.6505 -0.473747,-0.42966 -1.496999,-1.45025 -2.735519,-2.66881 -1.183854,-1.16476 -2.562819,-2.50808 -3.738027,-3.5804 z"
       style="opacity:0.24800002;fill:#000000;fill-opacity:1;stroke:none;stroke-width:0.28614345;stroke-miterlimit:4;stroke-dasharray:none;stroke-opacity:1" />
    <path
       style="opacity:1;fill:url(#linearGradient1558);fill-opacity:1;stroke:#0056a3;stroke-width:0.1;stroke-miterlimit:4;stroke-dasharray:none;stroke-opacity:1"
       d="m 19.308998,265.6626 c 0.01477,0.0238 0.507514,0.81811 0.658239,1.26509 0.40843,0.91553 0.278738,3.06938 0.271311,4.5946 0.409178,-0.0213 4.921198,-0.70296 6.989915,1.73982 -0.02793,-0.0483 -0.09803,-0.0884 -0.13713,-0.16512 -0.477638,-0.54671 -1.086946,-0.98598 -1.643914,-1.50908 -0.449221,-0.4074 -1.419501,-1.37509 -2.593906,-2.53048 -1.122567,-1.10439 -2.430145,-2.3781 -3.544515,-3.39483 z"
       id="path4753-0-6"
       inkscape:connector-curvature="0"
       sodipodi:nodetypes="ccccccsc" />
    <g
       style="stroke-width:4.08449793"
       inkscape:transform-center-y="-9.4924686"
       inkscape:transform-center-x="5.4653607"
       inkscape:label="Capa 1"
       id="layer1-4-3-2"
       transform="matrix(0.51126596,0,0,0.51245325,-269.32006,5.6156869)">
      <g
         style="stroke-width:4.08449793"
         id="layer1-3-65-9-9"
         inkscape:label="Capa 1"
         transform="translate(0.41988239,0.03484499)" />
    </g>
    <g
       style="stroke-width:4.08449793"
       inkscape:transform-center-y="-9.4924686"
       inkscape:transform-center-x="5.4653607"
       inkscape:label="Capa 1"
       id="layer1-4-1"
       transform="matrix(0.51126596,0,0,0.51245325,-269.32006,5.6395364)">
      <g
         style="stroke-width:4.08449793"
         id="layer1-3-65-2"
         inkscape:label="Capa 1"
         transform="translate(0.41988239,0.03484499)" />
    </g>
    <g
       style="stroke-width:4.28401899"
       inkscape:transform-center-y="-9.4924686"
       inkscape:transform-center-x="5.4653607"
       inkscape:label="Capa 1"
       id="layer1-4-3-3"
       transform="matrix(0.51096555,0,0,0.51234092,-256.83509,-0.14778316)">
      <g
         style="stroke-width:4.28401899"
         id="layer1-3-65-9-98"
         inkscape:label="Capa 1"
         transform="translate(0.41988239,0.03484499)" />
    </g>
    <g
       style="stroke-width:4.28401899"
       inkscape:transform-center-y="-9.4924686"
       inkscape:transform-center-x="5.4653607"
       inkscape:label="Capa 1"
       id="layer1-4-6"
       transform="matrix(0.51096555,0,0,0.51234092,-256.83509,-0.12394024)">
      <g
         style="stroke-width:4.28401899"
         id="layer1-3-65-5"
         inkscape:label="Capa 1"
         transform="translate(0.41988239,0.03484499)" />
    </g>
    <g
       style="stroke-width:4.08449793"
       inkscape:transform-center-y="-9.4924686"
       inkscape:transform-center-x="5.4653607"
       inkscape:label="Capa 1"
       id="layer1-4-3-39"
       transform="matrix(0.53602412,0,0,0.5372689,-195.4089,-13.7853)">
      <g
         style="stroke-width:4.08449793"
         id="layer1-3-65-9-0"
         inkscape:label="Capa 1"
         transform="translate(0.41988239,0.03484499)" />
    </g>
    <g
       style="stroke-width:4.08449793"
       inkscape:transform-center-y="-9.4924686"
       inkscape:transform-center-x="5.4653607"
       inkscape:label="Capa 1"
       id="layer1-4-5"
       transform="matrix(0.53602412,0,0,0.5372689,-195.4089,-13.760297)">
      <g
         style="stroke-width:4.08449793"
         id="layer1-3-65-22"
         inkscape:label="Capa 1"
         transform="translate(0.41988239,0.03484499)" />
    </g>
    <g
       style="stroke-width:4.08449793"
       inkscape:transform-center-y="-9.4924686"
       inkscape:transform-center-x="5.4653607"
       inkscape:label="Capa 1"
       id="layer1-4-3-2-0"
       transform="matrix(0.51126596,0,0,0.51245325,-229.79531,5.6156902)">
      <g
         style="stroke-width:4.08449793"
         id="layer1-3-65-9-9-2"
         inkscape:label="Capa 1"
         transform="translate(0.41988239,0.03484499)" />
    </g>
    <g
       style="stroke-width:4.08449793"
       inkscape:transform-center-y="-9.4924686"
       inkscape:transform-center-x="5.4653607"
       inkscape:label="Capa 1"
       id="layer1-4-1-3"
       transform="matrix(0.51126596,0,0,0.51245325,-229.79531,5.6395397)">
      <g
         style="stroke-width:4.08449793"
         id="layer1-3-65-2-9"
         inkscape:label="Capa 1"
         transform="translate(0.41988239,0.03484499)" />
    </g>
    <path
       id="path2158"
       style="fill:#024376;stroke-width:0.1;fill-opacity:1;stroke:none;stroke-opacity:1;stroke-miterlimit:4;stroke-dasharray:none"
       d="m 6.7797845,265.23843 v 1.60808 c 0,0.99232 7.46e-4,1.60732 0.002,1.60611 0.0017,-0.001 1.313614,-3.21081 1.313614,-3.21324 0,-4.7e-4 -0.295992,-10e-4 -0.657768,-10e-4 z m 3.4386205,4.8e-4 c -0.122393,-2e-5 -0.2911215,3e-5 -0.4766325,1.9e-4 l -0.674584,4.8e-4 0.673095,1.60511 c 0.3702075,0.8828 0.6738405,1.60624 0.6747545,1.60766 h 1.9e-5 c 9.19e-4,10e-4 0.0019,-0.7208 0.0022,-1.60491 2.91e-4,-0.88412 1.82e-4,-1.60781 -1.83e-4,-1.60819 -1.82e-4,-2.3e-4 -0.07625,-2.5e-4 -0.198648,-2.5e-4 z m -1.6366245,1.21795 c -5.59e-4,2.3e-4 -0.0012,5.9e-4 -0.0017,10e-4 -0.0037,0.004 -0.586341,1.37648 -0.585081,1.37852 7.48e-4,10e-4 0.118861,10e-4 0.310563,10e-4 0.245039,0 0.309762,4.9e-4 0.311332,0.002 0.0011,10e-4 0.06293,0.13987 0.13743,0.30765 l 0.13547,0.30507 h 0.277381 c 0.221099,0 0.277152,-4.9e-4 0.276289,-0.002 -0.01244,-0.0296 -0.859685,-1.99375 -0.860333,-1.99439 -2.68e-4,-2.4e-4 -7.46e-4,-2.4e-4 -0.0012,-4e-5 z"
       inkscape:connector-curvature="0" />
    <path
       style="fill:url(#linearGradient1214);fill-opacity:1;stroke:#033b66;stroke-width:0.26458335;stroke-opacity:1"
       id="path3879"
       inkscape:connector-curvature="0"
       d="m 12.478547,277.98069 c -0.929137,0.008 -2.098977,0.0733 -3.3509705,0.2866 v 11.88272 h 2.8218705 v -4.29894 c 0,0 5.560182,0.5159 5.665787,-3.54939 0,0 0.733432,-4.36851 -5.136687,-4.32099 z m 0.286597,2.11641 c 1.712169,0.006 2.160289,0.61357 2.204586,1.74162 0,2.36528 -3.020283,1.78571 -3.020283,1.78571 v -3.48324 c 0.29888,-0.0229 0.571102,-0.045 0.815697,-0.0441 z m 8.641979,1.03615 c -0.685268,0.031 -1.360923,0.19027 -1.962082,0.5291 -1.1138,0.65672 -1.252896,2.25937 -0.63933,3.30688 0.766733,1.1318 2.241576,1.29445 3.284834,2.07231 0.529599,0.35163 0.256911,1.24379 -0.352734,1.30071 -1.123341,0.18381 -2.252928,-0.22238 -3.262788,-0.68342 v 1.60935 c -0.140057,0.47682 0.445629,0.48867 0.771605,0.61728 1.212958,0.29425 2.526724,0.33853 3.725751,-0.0441 1.059125,-0.3118 1.820797,-1.36744 1.76367,-2.46914 -3.69e-4,-0.29504 -0.05643,-0.58003 -0.154321,-0.85979 -0.41732,-1.15688 -1.712794,-1.53409 -2.711642,-2.02822 -0.634704,-0.16257 -1.569071,-0.95648 -0.727513,-1.49912 0.945793,-0.29679 1.923648,0.1455 2.777779,0.52911 l 0.617284,-1.47708 c 0.206486,-0.46429 -0.794565,-0.45733 -1.102293,-0.66137 -0.648771,-0.18284 -1.342951,-0.27353 -2.02822,-0.24251 z" />
  </g>
</svg>
