<?xml version="1.0" encoding="UTF-8" standalone="no"?>
<!-- Created with Inkscape (http://www.inkscape.org/) -->

<svg
   xmlns:osb="http://www.openswatchbook.org/uri/2009/osb"
   xmlns:dc="http://purl.org/dc/elements/1.1/"
   xmlns:cc="http://creativecommons.org/ns#"
   xmlns:rdf="http://www.w3.org/1999/02/22-rdf-syntax-ns#"
   xmlns:svg="http://www.w3.org/2000/svg"
   xmlns="http://www.w3.org/2000/svg"
   xmlns:xlink="http://www.w3.org/1999/xlink"
   xmlns:sodipodi="http://sodipodi.sourceforge.net/DTD/sodipodi-0.dtd"
   xmlns:inkscape="http://www.inkscape.org/namespaces/inkscape"
   width="128"
   height="128"
   viewBox="0 0 33.866666 33.866668"
   version="1.1"
   id="svg8"
   inkscape:version="0.92.2 5c3e80d, 2017-08-06"
   sodipodi:docname="org 2.svg">
  <defs
     id="defs2">
    <linearGradient
       id="linearGradient1830">
      <stop
         id="stop1826"
         style="stop-color:#d9d9d9;stop-opacity:1"
         offset="0" />
      <stop
         id="stop1828"
         style="stop-color:#ffffff;stop-opacity:1;"
         offset="1" />
    </linearGradient>
    <linearGradient
       osb:paint="solid"
       id="linearGradient6987">
      <stop
         id="stop6985"
         offset="0"
         style="stop-color:#77d2fb;stop-opacity:1;" />
    </linearGradient>
    <linearGradient
       gradientTransform="matrix(0.95414523,0,0,0.9544879,-42.747483,12.747947)"
       gradientUnits="userSpaceOnUse"
       y2="296.16849"
       x2="4.5843229"
       y1="263.52237"
       x1="29.203474"
       id="linearGradient1503-8"
       xlink:href="#linearGradient1830"
       inkscape:collect="always" />
  </defs>
  <sodipodi:namedview
     id="base"
     pagecolor="#ffffff"
     bordercolor="#666666"
     borderopacity="1.0"
     inkscape:pageopacity="0.0"
     inkscape:pageshadow="2"
     inkscape:zoom="2.8284273"
     inkscape:cx="-15.88088"
     inkscape:cy="67.261174"
     inkscape:document-units="mm"
     inkscape:current-layer="layer1"
     showgrid="false"
     units="px"
     inkscape:window-width="1600"
     inkscape:window-height="792"
     inkscape:window-x="0"
     inkscape:window-y="0"
     inkscape:window-maximized="1"
     showguides="false"
     inkscape:snap-nodes="false" />
  <metadata
     id="metadata5">
    <rdf:RDF>
      <cc:Work
         rdf:about="">
        <dc:format>image/svg+xml</dc:format>
        <dc:type
           rdf:resource="http://purl.org/dc/dcmitype/StillImage" />
        <dc:title />
      </cc:Work>
    </rdf:RDF>
  </metadata>
  <g
     inkscape:label="Layer 1"
     inkscape:groupmode="layer"
     id="layer1"
     transform="translate(0,-263.13332)">
    <g
       style="stroke-width:4.08449793"
       inkscape:transform-center-y="-9.4924686"
       inkscape:transform-center-x="5.4653607"
       inkscape:label="Capa 1"
       id="layer1-4-3"
       transform="matrix(0.53602412,0,0,0.5372689,-234.93365,-13.785303)">
      <g
         style="stroke-width:4.08449793"
         id="layer1-3-65-9"
         inkscape:label="Capa 1"
         transform="translate(0.41988239,0.03484499)" />
    </g>
    <g
       style="stroke-width:4.08449793"
       inkscape:transform-center-y="-9.4924686"
       inkscape:transform-center-x="5.4653607"
       inkscape:label="Capa 1"
       id="layer1-4"
       transform="matrix(0.53602412,0,0,0.5372689,-234.93365,-13.7603)">
      <g
         style="stroke-width:4.08449793"
         id="layer1-3-65"
         inkscape:label="Capa 1"
         transform="translate(0.41988239,0.03484499)" />
    </g>
    <g
       style="stroke-width:4.08449793"
       inkscape:transform-center-y="-9.4924686"
       inkscape:transform-center-x="5.4653607"
       inkscape:label="Capa 1"
       id="layer1-4-3-2"
       transform="matrix(0.51126596,0,0,0.51245325,-269.32006,5.6156869)">
      <g
         style="stroke-width:4.08449793"
         id="layer1-3-65-9-9"
         inkscape:label="Capa 1"
         transform="translate(0.41988239,0.03484499)" />
    </g>
    <g
       style="stroke-width:4.08449793"
       inkscape:transform-center-y="-9.4924686"
       inkscape:transform-center-x="5.4653607"
       inkscape:label="Capa 1"
       id="layer1-4-1"
       transform="matrix(0.51126596,0,0,0.51245325,-269.32006,5.6395364)">
      <g
         style="stroke-width:4.08449793"
         id="layer1-3-65-2"
         inkscape:label="Capa 1"
         transform="translate(0.41988239,0.03484499)" />
    </g>
    <g
       id="g1078"
       transform="translate(43.523956,-1.6663686e-5)">
      <path
         inkscape:connector-curvature="0"
         style="opacity:0.25;fill:#000000;fill-opacity:1;stroke:none;stroke-width:0.30000004;stroke-miterlimit:4;stroke-dasharray:none;stroke-opacity:1"
         d="m -38.373445,264.84622 v 18.63274 l 1.877115,-1.81179 2.716915,1.11506 1.601777,-2.16014 1.950505,1.11456 2.263768,-2.75242 3.308963,0.45332 1.846083,-1.60286 3.169078,0.7662 2.019954,-2.43854 2.745483,1.45257 c -0.04389,-0.45783 -0.108076,-0.90018 -0.23199,-1.34367 -0.204433,-0.73168 -0.526699,-1.42425 -0.911715,-2.08723 -0.492654,-0.84832 -1.324829,-1.39544 -2.064776,-2.09067 -0.448913,-0.40726 -1.418719,-1.37468 -2.5923,-2.5297 -1.163978,-1.14555 -2.529327,-2.476 -3.669017,-3.50973 -0.336613,-0.30388 -0.825374,-0.61907 -1.27965,-0.80119 -0.352748,-0.14141 -0.767668,-0.22958 -1.168333,-0.28874 -0.41314,-0.061 -0.810948,-0.0913 -1.109719,-0.11777 z m 21.224544,13.73742 -2.019953,2.09067 -2.629734,-0.97561 -2.315978,1.96847 -3.519282,-1.30722 -1.966266,3.22346 -2.263768,-1.01059 -1.393428,1.9862 -2.40316,-0.78394 -2.712975,1.50629 v 10.6603 h 23.565644 v -16.50166 z"
         id="path1728" />
      <path
         id="path4623-8"
         d="m -38.373445,264.34167 v 18.63272 l 1.877115,-1.81178 2.716915,1.11506 1.601778,-2.16015 1.950504,1.11456 2.263768,-2.75241 3.308962,0.45332 1.846084,-1.60286 3.169077,0.7662 2.019955,-2.43854 2.745483,1.45258 c -0.0439,-0.45783 -0.108077,-0.90019 -0.231991,-1.34369 -0.204432,-0.73167 -0.526699,-1.42424 -0.911715,-2.08722 -0.492653,-0.84832 -1.324828,-1.39544 -2.064776,-2.09067 -0.448912,-0.40725 -1.418718,-1.37467 -2.592299,-2.52969 -1.163978,-1.14555 -2.529327,-2.47601 -3.669018,-3.50974 -0.336613,-0.30388 -0.825373,-0.61907 -1.279649,-0.80119 -0.352748,-0.14141 -0.767668,-0.22959 -1.168333,-0.28874 -0.41314,-0.061 -0.810947,-0.0913 -1.109719,-0.11776 z m 21.224544,13.73741 -2.019954,2.09067 -2.629733,-0.97561 -2.315978,1.96847 -3.519282,-1.30722 -1.966266,3.22346 -2.263768,-1.0106 -1.393429,1.98621 -2.403159,-0.78394 -2.712975,1.50629 v 10.66029 h 23.565644 v -16.50165 z"
         style="opacity:1;fill:url(#linearGradient1503-8);fill-opacity:1;stroke:#808080;stroke-width:0.30000001;stroke-miterlimit:4;stroke-dasharray:none;stroke-opacity:1"
         inkscape:connector-curvature="0" />
      <path
         style="opacity:0.24800002;fill:#000000;fill-opacity:1;stroke:none;stroke-width:0.30000004;stroke-miterlimit:4;stroke-dasharray:none;stroke-opacity:1"
         d="m -23.904839,266.16397 c 0.01556,0.0251 0.534847,0.86255 0.693691,1.33381 0.430426,0.96526 0.246464,3.78763 0.238638,5.3957 0.02642,-0.18499 4.470742,-1.33092 6.777859,0.76722 -0.01475,-0.026 -0.04659,-0.0767 -0.119258,-0.17762 -0.06896,-0.0958 -0.174186,-0.23756 -0.35423,-0.42167 -0.503364,-0.57641 -0.220107,-0.0806 -0.767673,-0.65029 -0.473416,-0.42952 -1.495953,-1.44977 -2.733609,-2.66793 -1.183027,-1.16437 -2.56103,-2.50726 -3.735418,-3.57922 z"
         id="path1355-8"
         inkscape:connector-curvature="0"
         sodipodi:nodetypes="ccccsccsc" />
      <path
         sodipodi:nodetypes="ccccccsc"
         inkscape:connector-curvature="0"
         id="path4753-0"
         d="m -24.216617,265.66547 c 0.01476,0.0237 0.507159,0.81784 0.657779,1.26467 0.408145,0.91524 0.278544,3.06838 0.271123,4.5931 0.408892,-0.0213 4.917762,-0.70274 6.985035,1.73924 -0.02791,-0.0482 -0.09796,-0.0884 -0.137034,-0.16507 -0.477305,-0.54652 -1.086188,-0.98566 -1.642767,-1.50858 -0.448908,-0.40726 -1.41851,-1.37463 -2.592095,-2.52965 -1.121784,-1.10403 -2.428449,-2.37731 -3.542041,-3.39371 z"
         style="opacity:1;fill:#ffffff;fill-opacity:1;stroke:#808080;stroke-width:0.30000004;stroke-miterlimit:4;stroke-dasharray:none;stroke-opacity:1" />
    </g>
    <g
       style="stroke-width:4.28449011"
       inkscape:transform-center-y="-9.4924686"
       inkscape:transform-center-x="5.4653607"
       inkscape:label="Capa 1"
       id="layer1-4-3-3"
       transform="matrix(0.51090909,0,0,0.51228476,-266.65656,-0.11897132)">
      <g
         style="stroke-width:4.28449011"
         id="layer1-3-65-9-90"
         inkscape:label="Capa 1"
         transform="translate(0.41988239,0.03484499)" />
    </g>
    <g
       style="stroke-width:4.28449011"
       inkscape:transform-center-y="-9.4924686"
       inkscape:transform-center-x="5.4653607"
       inkscape:label="Capa 1"
       id="layer1-4-5"
       transform="matrix(0.51090909,0,0,0.51228476,-266.65656,-0.09513102)">
      <g
         style="stroke-width:4.28449011"
         id="layer1-3-65-22"
         inkscape:label="Capa 1"
         transform="translate(0.41988239,0.03484499)" />
    </g>
  </g>
</svg>
