<?xml version="1.0" encoding="UTF-8" standalone="no"?>
<!-- Created with Inkscape (http://www.inkscape.org/) -->

<svg
   xmlns:dc="http://purl.org/dc/elements/1.1/"
   xmlns:cc="http://creativecommons.org/ns#"
   xmlns:rdf="http://www.w3.org/1999/02/22-rdf-syntax-ns#"
   xmlns:svg="http://www.w3.org/2000/svg"
   xmlns="http://www.w3.org/2000/svg"
   xmlns:sodipodi="http://sodipodi.sourceforge.net/DTD/sodipodi-0.dtd"
   xmlns:inkscape="http://www.inkscape.org/namespaces/inkscape"
   width="128"
   height="128"
   viewBox="0 0 33.866666 33.866668"
   version="1.1"
   id="svg830"
   inkscape:version="0.92.1 r15371"
   sodipodi:docname="application-apk.svg">
  <defs
     id="defs824" />
  <sodipodi:namedview
     id="base"
     pagecolor="#ffffff"
     bordercolor="#666666"
     borderopacity="1.0"
     inkscape:pageopacity="0.0"
     inkscape:pageshadow="2"
     inkscape:zoom="2.8"
     inkscape:cx="52.013048"
     inkscape:cy="45.222748"
     inkscape:document-units="mm"
     inkscape:current-layer="layer1"
     showgrid="false"
     units="px"
     inkscape:window-width="1366"
     inkscape:window-height="704"
     inkscape:window-x="0"
     inkscape:window-y="27"
     inkscape:window-maximized="1" />
  <metadata
     id="metadata827">
    <rdf:RDF>
      <cc:Work
         rdf:about="">
        <dc:format>image/svg+xml</dc:format>
        <dc:type
           rdf:resource="http://purl.org/dc/dcmitype/StillImage" />
        <dc:title />
      </cc:Work>
    </rdf:RDF>
  </metadata>
  <g
     inkscape:label="Layer 1"
     inkscape:groupmode="layer"
     id="layer1"
     transform="translate(0,-263.13332)">
    <g
       id="g4531"
       transform="matrix(0.94831173,0,0,0.94831173,0.8752563,14.408327)">
      <path
         style="opacity:0.25;fill:#000000;fill-opacity:1;stroke:none;stroke-width:0.74026328;stroke-linecap:round;stroke-linejoin:round;stroke-miterlimit:4;stroke-dasharray:none;stroke-opacity:1"
         d="m 16.843696,266.63616 c -8.2311043,0 -14.8900469,6.49118 -15.1587639,14.65461 v 2.4653 5.67192 5.54173 c 0,1.05744 0.8513016,1.90874 1.9087393,1.90874 h 2.1792896 22.320771 2.179284 c 1.057438,0 1.90874,-0.8513 1.90874,-1.90874 v -5.79767 -5.41598 -2.20936 c -0.136295,-8.28329 -6.84822,-14.91055 -15.165173,-14.91055 z"
         id="path4518"
         inkscape:connector-curvature="0" />
      <g
         transform="matrix(0.18241969,0,0,0.18241969,97.176149,278.22758)"
         style="fill:#93c757;fill-opacity:1;stroke-width:3.99325132"
         id="g4569">
        <rect
           style="opacity:1;fill:#93c757;fill-opacity:1;stroke:none;stroke-width:3.32637835;stroke-linecap:round;stroke-linejoin:round;stroke-miterlimit:4;stroke-dasharray:none;stroke-opacity:1"
           id="rect4551"
           width="47.97488"
           height="8.9535294"
           x="-178.29784"
           y="-370.71439"
           ry="4.4767647"
           transform="rotate(-58.441526)" />
        <rect
           transform="matrix(-0.52336847,-0.85210648,-0.85210648,0.52336847,0,0)"
           ry="4.4767647"
           y="378.7103"
           x="282.00293"
           height="8.9535294"
           width="47.97488"
           id="rect4553"
           style="opacity:1;fill:#93c757;fill-opacity:1;stroke:none;stroke-width:3.32637835;stroke-linecap:round;stroke-linejoin:round;stroke-miterlimit:4;stroke-dasharray:none;stroke-opacity:1" />
      </g>
      <path
         inkscape:connector-curvature="0"
         id="rect4528"
         d="m 16.843696,266.10699 c -8.2311043,0 -14.8900469,6.49118 -15.1587639,14.65461 v 2.4653 5.67192 5.54173 c 0,1.05744 0.8513016,1.90874 1.9087393,1.90874 h 2.1792896 22.320771 2.179284 c 1.057438,0 1.90874,-0.8513 1.90874,-1.90874 v -5.79767 -5.41598 -2.20936 c -0.136295,-8.28329 -6.84822,-14.91055 -15.165173,-14.91055 z"
         style="opacity:1;fill:#93c757;fill-opacity:1;stroke:none;stroke-width:0.74026328;stroke-linecap:round;stroke-linejoin:round;stroke-miterlimit:4;stroke-dasharray:none;stroke-opacity:1" />
      <path
         id="path4618"
         d="m 32.118324,279.85059 -30.4333871,1.19607 14.5579941,15.30262 h 11.850808 2.17929 c 1.057438,0 1.908735,-0.8513 1.908735,-1.90874 v -5.79767 -5.41598 -2.20935 c -0.0065,-0.39292 -0.02792,-0.78202 -0.06344,-1.16695 z"
         style="opacity:1;fill:#87ba4c;fill-opacity:1;stroke:none;stroke-width:0.74026334;stroke-linecap:round;stroke-linejoin:round;stroke-miterlimit:4;stroke-dasharray:none;stroke-opacity:1"
         inkscape:connector-curvature="0" />
      <path
         style="opacity:0.15;fill:#000000;fill-opacity:1;stroke:none;stroke-width:0.74026328;stroke-linecap:round;stroke-linejoin:round;stroke-miterlimit:4;stroke-dasharray:none;stroke-opacity:1"
         d="m 16.843664,266.59607 c -8.2311052,0 -14.8900477,6.49118 -15.1587647,14.65462 v 0.28506 H 32.181725 v -0.0291 C 32.04543,273.22336 25.333505,266.5961 17.016552,266.5961 Z"
         id="path4625"
         inkscape:connector-curvature="0" />
      <path
         inkscape:connector-curvature="0"
         id="path4538"
         d="m 16.843664,266.10698 c -8.2311052,0 -14.8900477,6.49119 -15.1587647,14.65462 v 0.28506 H 32.181725 v -0.0291 C 32.04543,272.73427 25.333505,266.107 17.016552,266.107 Z"
         style="opacity:1;fill:#93c756;fill-opacity:1;stroke:none;stroke-width:0.74026328;stroke-linecap:round;stroke-linejoin:round;stroke-miterlimit:4;stroke-dasharray:none;stroke-opacity:1" />
      <g
         transform="matrix(0.18241969,0,0,0.18241969,97.176149,278.22758)"
         style="stroke-width:3.99325132"
         id="g4563">
        <circle
           style="opacity:1;fill:#fcfcfc;fill-opacity:1;stroke:none;stroke-width:4.52387428;stroke-linecap:round;stroke-linejoin:round;stroke-miterlimit:4;stroke-dasharray:none;stroke-opacity:1"
           id="path4543"
           cx="-475.02155"
           cy="-19.416674"
           r="11.244792" />
        <circle
           r="11.244792"
           cy="-19.416674"
           cx="-404.60727"
           id="circle4545"
           style="opacity:1;fill:#fcfcfc;fill-opacity:1;stroke:none;stroke-width:4.52387428;stroke-linecap:round;stroke-linejoin:round;stroke-miterlimit:4;stroke-dasharray:none;stroke-opacity:1" />
      </g>
    </g>
  </g>
</svg>
