<?xml version="1.0" encoding="UTF-8" standalone="no"?>
<!-- Created with Inkscape (http://www.inkscape.org/) -->

<svg
   xmlns:osb="http://www.openswatchbook.org/uri/2009/osb"
   xmlns:dc="http://purl.org/dc/elements/1.1/"
   xmlns:cc="http://creativecommons.org/ns#"
   xmlns:rdf="http://www.w3.org/1999/02/22-rdf-syntax-ns#"
   xmlns:svg="http://www.w3.org/2000/svg"
   xmlns="http://www.w3.org/2000/svg"
   xmlns:xlink="http://www.w3.org/1999/xlink"
   xmlns:sodipodi="http://sodipodi.sourceforge.net/DTD/sodipodi-0.dtd"
   xmlns:inkscape="http://www.inkscape.org/namespaces/inkscape"
   width="128"
   height="128"
   viewBox="0 0 33.866666 33.866668"
   version="1.1"
   id="svg8"
   inkscape:version="0.92.2 5c3e80d, 2017-08-06"
   sodipodi:docname="org 2.svg">
  <defs
     id="defs2">
    <linearGradient
       id="linearGradient1830">
      <stop
         id="stop1826"
         style="stop-color:#d9d9d9;stop-opacity:1"
         offset="0" />
      <stop
         id="stop1828"
         style="stop-color:#ffffff;stop-opacity:1;"
         offset="1" />
    </linearGradient>
    <linearGradient
       osb:paint="solid"
       id="linearGradient6987">
      <stop
         id="stop6985"
         offset="0"
         style="stop-color:#77d2fb;stop-opacity:1;" />
    </linearGradient>
    <linearGradient
       inkscape:collect="always"
       xlink:href="#linearGradient1830"
       id="linearGradient1503-8"
       x1="29.203474"
       y1="263.52237"
       x2="4.5843229"
       y2="296.16849"
       gradientUnits="userSpaceOnUse"
       gradientTransform="matrix(0.95481175,0,0,0.95480183,-39.282828,12.328542)" />
  </defs>
  <sodipodi:namedview
     id="base"
     pagecolor="#ffffff"
     bordercolor="#666666"
     borderopacity="1.0"
     inkscape:pageopacity="0.0"
     inkscape:pageshadow="2"
     inkscape:zoom="1.6710923"
     inkscape:cx="28.997536"
     inkscape:cy="25.790941"
     inkscape:document-units="mm"
     inkscape:current-layer="layer1"
     showgrid="false"
     units="px"
     inkscape:window-width="1600"
     inkscape:window-height="798"
     inkscape:window-x="0"
     inkscape:window-y="0"
     inkscape:window-maximized="1"
     showguides="false"
     inkscape:snap-nodes="false" />
  <metadata
     id="metadata5">
    <rdf:RDF>
      <cc:Work
         rdf:about="">
        <dc:format>image/svg+xml</dc:format>
        <dc:type
           rdf:resource="http://purl.org/dc/dcmitype/StillImage" />
        <dc:title />
      </cc:Work>
    </rdf:RDF>
  </metadata>
  <g
     inkscape:label="Layer 1"
     inkscape:groupmode="layer"
     id="layer1"
     transform="translate(0,-263.13332)">
    <g
       style="stroke-width:4.08449793"
       inkscape:transform-center-y="-9.4924686"
       inkscape:transform-center-x="5.4653607"
       inkscape:label="Capa 1"
       id="layer1-4-3"
       transform="matrix(0.53602412,0,0,0.5372689,-234.93365,-13.785303)">
      <g
         style="stroke-width:4.08449793"
         id="layer1-3-65-9"
         inkscape:label="Capa 1"
         transform="translate(0.41988239,0.03484499)" />
    </g>
    <g
       style="stroke-width:4.08449793"
       inkscape:transform-center-y="-9.4924686"
       inkscape:transform-center-x="5.4653607"
       inkscape:label="Capa 1"
       id="layer1-4"
       transform="matrix(0.53602412,0,0,0.5372689,-234.93365,-13.7603)">
      <g
         style="stroke-width:4.08449793"
         id="layer1-3-65"
         inkscape:label="Capa 1"
         transform="translate(0.41988239,0.03484499)" />
    </g>
    <g
       style="stroke-width:4.08449793"
       inkscape:transform-center-y="-9.4924686"
       inkscape:transform-center-x="5.4653607"
       inkscape:label="Capa 1"
       id="layer1-4-3-2"
       transform="matrix(0.51126596,0,0,0.51245325,-269.32006,5.6156869)">
      <g
         style="stroke-width:4.08449793"
         id="layer1-3-65-9-9"
         inkscape:label="Capa 1"
         transform="translate(0.41988239,0.03484499)" />
    </g>
    <g
       style="stroke-width:4.08449793"
       inkscape:transform-center-y="-9.4924686"
       inkscape:transform-center-x="5.4653607"
       inkscape:label="Capa 1"
       id="layer1-4-1"
       transform="matrix(0.51126596,0,0,0.51245325,-269.32006,5.6395364)">
      <g
         style="stroke-width:4.08449793"
         id="layer1-3-65-2"
         inkscape:label="Capa 1"
         transform="translate(0.41988239,0.03484499)" />
    </g>
    <g
       id="g2619"
       transform="translate(-33.138951)">
      <g
         transform="matrix(0.99978209,0,0,0.99978209,73.18193,0.39431002)"
         id="g4766">
        <g
           style="stroke-width:4.08449793"
           inkscape:transform-center-y="-9.4924686"
           inkscape:transform-center-x="5.4653607"
           inkscape:label="Capa 1"
           id="layer1-4-9"
           transform="matrix(0.53602412,0,0,0.5372689,-234.93365,-13.785303)">
          <g
             style="stroke-width:4.08449793"
             id="layer1-3-65-0"
             inkscape:label="Capa 1"
             transform="translate(0.41988239,0.03484499)" />
        </g>
        <g
           style="stroke-width:4.08449793"
           inkscape:transform-center-y="-9.4924686"
           inkscape:transform-center-x="5.4653607"
           inkscape:label="Capa 1"
           id="layer1-4-0"
           transform="matrix(0.53602412,0,0,0.5372689,-234.93365,-13.760303)">
          <g
             style="stroke-width:4.08449793"
             id="layer1-3-65-5"
             inkscape:label="Capa 1"
             transform="translate(0.41988239,0.03484499)" />
        </g>
        <path
           style="opacity:0.25;fill:#000000;fill-opacity:1;stroke:none;stroke-width:1.78839648;stroke-miterlimit:4;stroke-dasharray:none;stroke-opacity:1"
           d="m -34.905663,264.50585 v 31.10591 h 23.581961 v -17.45475 c -0.04498,-0.7929 -0.09696,-1.50255 -0.298063,-2.22205 -0.204573,-0.73192 -0.526951,-1.42494 -0.912236,-2.08813 -0.492998,-0.84861 -1.326132,-1.39576 -2.066596,-2.09122 -0.449226,-0.40738 -1.419471,-1.3751 -2.593872,-2.5305 -1.164791,-1.14594 -2.530897,-2.47697 -3.671384,-3.51104 -0.336848,-0.30398 -0.826157,-0.61944 -1.28075,-0.80163 -0.352994,-0.14146 -0.768267,-0.22951 -1.169211,-0.28869 -0.413429,-0.061 -0.811623,-0.0914 -1.110603,-0.1179 z"
           id="path5023-4"
           inkscape:connector-curvature="0"
           sodipodi:nodetypes="ccccascscsscc" />
        <path
           sodipodi:nodetypes="ccccascscsscc"
           inkscape:connector-curvature="0"
           id="path4623-8-5"
           d="m -34.905663,264.00484 v 31.10591 h 23.581961 V 277.656 c -0.04498,-0.7929 -0.09696,-1.50256 -0.298063,-2.22206 -0.204573,-0.73192 -0.526951,-1.42494 -0.912236,-2.08813 -0.492998,-0.8486 -1.326132,-1.39575 -2.066596,-2.09121 -0.449226,-0.40739 -1.419471,-1.37511 -2.593872,-2.53051 -1.164791,-1.14592 -2.530897,-2.47697 -3.671384,-3.51104 -0.336848,-0.30398 -0.826157,-0.61945 -1.28075,-0.80162 -0.352994,-0.14146 -0.768267,-0.22952 -1.169211,-0.28869 -0.413429,-0.0611 -0.811623,-0.0914 -1.110603,-0.1179 z"
           style="opacity:1;fill:url(#linearGradient1503-8);fill-opacity:1;stroke:#808080;stroke-width:0.30000001;stroke-miterlimit:4;stroke-dasharray:none;stroke-opacity:1" />
        <path
           sodipodi:nodetypes="ccccsccsc"
           inkscape:connector-curvature="0"
           id="path1355-8"
           d="m -20.427022,265.82791 c 0.01558,0.0251 0.535221,0.86284 0.694175,1.33425 0.430727,0.96558 0.246637,3.78888 0.238805,5.39748 0.02644,-0.18505 4.473865,-1.33136 6.782594,0.76747 -0.01476,-0.026 -0.04662,-0.0767 -0.119341,-0.17767 -0.06901,-0.0958 -0.174308,-0.23765 -0.354479,-0.42182 -0.503715,-0.5766 -0.22026,-0.0806 -0.768208,-0.6505 -0.473747,-0.42966 -1.496999,-1.45025 -2.735519,-2.66881 -1.183854,-1.16476 -2.562819,-2.50808 -3.738027,-3.5804 z"
           style="opacity:0.24800002;fill:#000000;fill-opacity:1;stroke:none;stroke-width:0.28614345;stroke-miterlimit:4;stroke-dasharray:none;stroke-opacity:1" />
        <path
           style="opacity:1;fill:#ffffff;fill-opacity:1;stroke:#808080;stroke-width:0.30000001;stroke-miterlimit:4;stroke-dasharray:none;stroke-opacity:1"
           d="m -20.739018,265.32925 c 0.01477,0.0238 0.507514,0.81811 0.658239,1.26509 0.40843,0.91553 0.278738,3.06938 0.271311,4.5946 0.409178,-0.0213 4.921198,-0.70296 6.989915,1.73982 -0.02793,-0.0483 -0.09803,-0.0884 -0.13713,-0.16512 -0.477638,-0.54671 -1.086946,-0.98598 -1.643914,-1.50908 -0.449221,-0.4074 -1.419501,-1.37509 -2.593906,-2.53048 -1.122567,-1.10439 -2.430145,-2.3781 -3.544515,-3.39483 z"
           id="path4753-0-6-2"
           inkscape:connector-curvature="0"
           sodipodi:nodetypes="ccccccsc" />
        <g
           style="stroke-width:4.08449793"
           inkscape:transform-center-y="-9.4924686"
           inkscape:transform-center-x="5.4653607"
           inkscape:label="Capa 1"
           id="layer1-4-3-27"
           transform="matrix(0.51126596,0,0,0.51245325,-263.34831,-0.54261021)">
          <g
             style="stroke-width:4.08449793"
             id="layer1-3-65-9-3"
             inkscape:label="Capa 1"
             transform="translate(0.41988239,0.03484499)" />
        </g>
        <g
           style="stroke-width:4.08449793"
           inkscape:transform-center-y="-9.4924686"
           inkscape:transform-center-x="5.4653607"
           inkscape:label="Capa 1"
           id="layer1-4-2"
           transform="matrix(0.51126596,0,0,0.51245325,-263.34831,-0.51876207)">
          <g
             style="stroke-width:4.08449793"
             id="layer1-3-65-91"
             inkscape:label="Capa 1"
             transform="translate(0.41988239,0.03484499)" />
        </g>
        <g
           transform="matrix(0.94391054,0,0,0.94391054,-39.481598,14.7026)"
           aria-label="1 1 0 1 1 1 0 0 1 0 1 1 0 0 1"
           style="font-style:normal;font-weight:normal;font-size:4.08497334px;line-height:1.25;font-family:sans-serif;letter-spacing:0px;word-spacing:0px;fill:#4d4d4d;fill-opacity:1;stroke:none;stroke-width:0.26458332"
           id="g4736">
          <path
             inkscape:connector-curvature="0"
             d="m 7.5488249,268.94897 h 0.6582232 v -2.27187 l -0.7160671,0.14362 v -0.36701 l 0.7120779,-0.14362 h 0.4029124 v 2.63888 h 0.6582233 v 0.33909 H 7.5488249 Z"
             style="fill:#4d4d4d;fill-opacity:1;stroke-width:0.26458332"
             id="path4706" />
          <path
             inkscape:connector-curvature="0"
             d="m 7.5488249,274.05519 h 0.6582232 v -2.27187 l -0.7160671,0.14361 v -0.36701 l 0.7120779,-0.14361 h 0.4029124 v 2.63888 h 0.6582233 v 0.33908 H 7.5488249 Z"
             style="fill:#4d4d4d;fill-opacity:1;stroke-width:0.26458332"
             id="path4708" />
          <path
             inkscape:connector-curvature="0"
             d="m 12.242156,271.68159 q -0.31116,0 -0.468735,0.30718 -0.15558,0.30517 -0.15558,0.91951 0,0.61235 0.15558,0.91952 0.157575,0.30518 0.468735,0.30518 0.313155,0 0.468735,-0.30518 0.157575,-0.30717 0.157575,-0.91952 0,-0.61434 -0.157575,-0.91951 -0.15558,-0.30718 -0.468735,-0.30718 z m 0,-0.31913 q 0.500649,0 0.763938,0.39692 0.265284,0.39494 0.265284,1.1489 0,0.75197 -0.265284,1.1489 -0.263289,0.39494 -0.763938,0.39494 -0.500648,0 -0.765932,-0.39494 -0.26329,-0.39693 -0.26329,-1.1489 0,-0.75396 0.26329,-1.1489 0.265284,-0.39692 0.765932,-0.39692 z"
             style="fill:#4d4d4d;fill-opacity:1;stroke-width:0.26458332"
             id="path4710" />
          <path
             inkscape:connector-curvature="0"
             d="m 7.5488249,279.1614 h 0.6582232 v -2.27186 l -0.7160671,0.14361 v -0.36701 l 0.7120779,-0.14361 h 0.4029124 v 2.63887 h 0.6582233 v 0.33909 H 7.5488249 Z"
             style="fill:#4d4d4d;fill-opacity:1;stroke-width:0.26458332"
             id="path4712" />
          <path
             inkscape:connector-curvature="0"
             d="m 11.450294,279.1614 h 0.658223 v -2.27186 l -0.716067,0.14361 v -0.36701 l 0.712078,-0.14361 h 0.402912 v 2.63887 h 0.658223 v 0.33909 h -1.715369 z"
             style="fill:#4d4d4d;fill-opacity:1;stroke-width:0.26458332"
             id="path4714" />
          <path
             inkscape:connector-curvature="0"
             d="m 7.5488249,284.26762 h 0.6582232 v -2.27187 l -0.7160671,0.14362 v -0.36701 l 0.7120779,-0.14362 h 0.4029124 v 2.63888 h 0.6582233 v 0.33909 H 7.5488249 Z"
             style="fill:#4d4d4d;fill-opacity:1;stroke-width:0.26458332"
             id="path4716" />
          <path
             inkscape:connector-curvature="0"
             d="m 12.242156,281.89403 q -0.31116,0 -0.468735,0.30717 -0.15558,0.30517 -0.15558,0.91952 0,0.61234 0.15558,0.91951 0.157575,0.30518 0.468735,0.30518 0.313155,0 0.468735,-0.30518 0.157575,-0.30717 0.157575,-0.91951 0,-0.61435 -0.157575,-0.91952 -0.15558,-0.30717 -0.468735,-0.30717 z m 0,-0.31914 q 0.500649,0 0.763938,0.39693 0.265284,0.39493 0.265284,1.1489 0,0.75197 -0.265284,1.1489 -0.263289,0.39493 -0.763938,0.39493 -0.500648,0 -0.765932,-0.39493 -0.26329,-0.39693 -0.26329,-1.1489 0,-0.75397 0.26329,-1.1489 0.265284,-0.39693 0.765932,-0.39693 z"
             style="fill:#4d4d4d;fill-opacity:1;stroke-width:0.26458332"
             id="path4718" />
          <path
             inkscape:connector-curvature="0"
             d="m 16.143625,281.89403 q -0.31116,0 -0.468735,0.30717 -0.15558,0.30517 -0.15558,0.91952 0,0.61234 0.15558,0.91951 0.157575,0.30518 0.468735,0.30518 0.313155,0 0.468735,-0.30518 0.157574,-0.30717 0.157574,-0.91951 0,-0.61435 -0.157574,-0.91952 -0.15558,-0.30717 -0.468735,-0.30717 z m 0,-0.31914 q 0.500648,0 0.763938,0.39693 0.265284,0.39493 0.265284,1.1489 0,0.75197 -0.265284,1.1489 -0.26329,0.39493 -0.763938,0.39493 -0.500649,0 -0.765933,-0.39493 -0.263289,-0.39693 -0.263289,-1.1489 0,-0.75397 0.263289,-1.1489 0.265284,-0.39693 0.765933,-0.39693 z"
             style="fill:#4d4d4d;fill-opacity:1;stroke-width:0.26458332"
             id="path4720" />
          <path
             inkscape:connector-curvature="0"
             d="m 7.5488249,289.37384 h 0.6582232 v -2.27187 l -0.7160671,0.14361 v -0.36701 l 0.7120779,-0.14361 h 0.4029124 v 2.63888 h 0.6582233 v 0.33908 H 7.5488249 Z"
             style="fill:#4d4d4d;fill-opacity:1;stroke-width:0.26458332"
             id="path4722" />
          <path
             inkscape:connector-curvature="0"
             d="m 12.242156,287.00024 q -0.31116,0 -0.468735,0.30718 -0.15558,0.30517 -0.15558,0.91951 0,0.61235 0.15558,0.91952 0.157575,0.30518 0.468735,0.30518 0.313155,0 0.468735,-0.30518 0.157575,-0.30717 0.157575,-0.91952 0,-0.61434 -0.157575,-0.91951 -0.15558,-0.30718 -0.468735,-0.30718 z m 0,-0.31913 q 0.500649,0 0.763938,0.39692 0.265284,0.39494 0.265284,1.1489 0,0.75197 -0.265284,1.1489 -0.263289,0.39494 -0.763938,0.39494 -0.500648,0 -0.765932,-0.39494 -0.26329,-0.39693 -0.26329,-1.1489 0,-0.75396 0.26329,-1.1489 0.265284,-0.39692 0.765932,-0.39692 z"
             style="fill:#4d4d4d;fill-opacity:1;stroke-width:0.26458332"
             id="path4724" />
          <path
             inkscape:connector-curvature="0"
             d="m 15.351762,289.37384 h 0.658224 v -2.27187 l -0.716067,0.14361 v -0.36701 l 0.712077,-0.14361 h 0.402913 v 2.63888 h 0.658223 v 0.33908 h -1.71537 z"
             style="fill:#4d4d4d;fill-opacity:1;stroke-width:0.26458332"
             id="path4726" />
          <path
             inkscape:connector-curvature="0"
             d="m 7.5488249,294.48005 h 0.6582232 v -2.27186 L 7.490981,292.3518 v -0.36701 l 0.7120779,-0.14361 h 0.4029124 v 2.63887 h 0.6582233 v 0.33909 H 7.5488249 Z"
             style="fill:#4d4d4d;fill-opacity:1;stroke-width:0.26458332"
             id="path4728" />
          <path
             inkscape:connector-curvature="0"
             d="m 12.242156,292.10646 q -0.31116,0 -0.468735,0.30717 -0.15558,0.30518 -0.15558,0.91952 0,0.61235 0.15558,0.91952 0.157575,0.30517 0.468735,0.30517 0.313155,0 0.468735,-0.30517 0.157575,-0.30717 0.157575,-0.91952 0,-0.61434 -0.157575,-0.91952 -0.15558,-0.30717 -0.468735,-0.30717 z m 0,-0.31914 q 0.500649,0 0.763938,0.39693 0.265284,0.39494 0.265284,1.1489 0,0.75197 -0.265284,1.1489 -0.263289,0.39493 -0.763938,0.39493 -0.500648,0 -0.765932,-0.39493 -0.26329,-0.39693 -0.26329,-1.1489 0,-0.75396 0.26329,-1.1489 0.265284,-0.39693 0.765932,-0.39693 z"
             style="fill:#4d4d4d;fill-opacity:1;stroke-width:0.26458332"
             id="path4730" />
          <path
             inkscape:connector-curvature="0"
             d="m 16.143625,292.10646 q -0.31116,0 -0.468735,0.30717 -0.15558,0.30518 -0.15558,0.91952 0,0.61235 0.15558,0.91952 0.157575,0.30517 0.468735,0.30517 0.313155,0 0.468735,-0.30517 0.157574,-0.30717 0.157574,-0.91952 0,-0.61434 -0.157574,-0.91952 -0.15558,-0.30717 -0.468735,-0.30717 z m 0,-0.31914 q 0.500648,0 0.763938,0.39693 0.265284,0.39494 0.265284,1.1489 0,0.75197 -0.265284,1.1489 -0.26329,0.39493 -0.763938,0.39493 -0.500649,0 -0.765933,-0.39493 -0.263289,-0.39693 -0.263289,-1.1489 0,-0.75396 0.263289,-1.1489 0.265284,-0.39693 0.765933,-0.39693 z"
             style="fill:#4d4d4d;fill-opacity:1;stroke-width:0.26458332"
             id="path4732" />
          <path
             inkscape:connector-curvature="0"
             d="m 19.253231,294.48005 h 0.658223 v -2.27186 l -0.716067,0.14361 v -0.36701 l 0.712078,-0.14361 h 0.402912 v 2.63887 H 20.9686 v 0.33909 h -1.715369 z"
             style="fill:#4d4d4d;fill-opacity:1;stroke-width:0.26458332"
             id="path4734" />
        </g>
      </g>
      <path
         inkscape:connector-curvature="0"
         d="m 47.295758,277.76682 c -0.311523,3e-4 -0.626006,0.026 -0.940938,0.0784 -1.594574,0.26471 -3.056272,1.22333 -3.927571,2.57584 -0.481824,0.74793 -0.763686,1.5239 -0.892448,2.45692 -0.03962,0.28706 -0.03894,1.05173 8.71e-4,1.35804 0.25633,1.96457 1.443489,3.64336 3.19375,4.51636 0.891503,0.44467 1.762717,0.63317 2.778534,0.60116 1.087766,-0.0342 2.087794,-0.35374 2.987082,-0.9543 0.178707,-0.11943 0.335377,-0.21702 0.348028,-0.21702 0.0207,0 0.965755,0.93062 3.648682,3.59305 0.771768,0.76587 0.908633,0.89117 0.973444,0.89117 0.06337,0 0.144008,-0.0686 0.504855,-0.42896 0.319715,-0.3193 0.42948,-0.44482 0.42948,-0.49112 0,-0.0734 0.09832,0.029 -2.530417,-2.63806 -1.074621,-1.09033 -1.953877,-1.99176 -1.953877,-2.00313 0,-0.0111 0.08435,-0.14555 0.187451,-0.29819 0.472321,-0.69934 0.766069,-1.42792 0.917745,-2.27622 0.07985,-0.44655 0.08709,-1.4039 0.01401,-1.84496 -0.102683,-0.61927 -0.262742,-1.12157 -0.530753,-1.6656 -0.993891,-2.0175 -3.027251,-3.25552 -5.207909,-3.25329 z m -3.332707,0.37288 c -0.0059,10e-4 -0.01194,0.003 -0.01779,0.003 -0.0062,0.008 -0.01242,0.0174 -0.0187,0.026 a 9.3482846,9.7051936 0 0 1 0.03648,-0.0298 z m 3.296074,0.92834 c 0.508618,-0.003 1.018619,0.0756 1.49992,0.23556 1.889905,0.62787 3.105798,2.41849 3.018836,4.44549 -0.02454,0.57141 -0.102715,0.96085 -0.295782,1.47319 -0.220196,0.58433 -0.526549,1.05142 -1.000847,1.52605 -0.755213,0.75574 -1.694926,1.18223 -2.819594,1.27967 -0.361514,0.0314 -0.494512,0.0293 -0.871203,-0.0127 -0.77067,-0.0863 -1.42143,-0.31958 -2.027068,-0.72638 -0.814092,-0.54681 -1.402587,-1.32896 -1.711773,-2.27527 -0.161798,-0.49519 -0.215882,-0.85696 -0.215978,-1.44376 0,-0.40387 0.01067,-0.55863 0.05607,-0.80717 0.118512,-0.6489 0.355594,-1.23991 0.714228,-1.78016 0.238961,-0.35996 0.719041,-0.85097 1.083276,-1.10797 0.27929,-0.19707 0.758094,-0.44327 1.078247,-0.55439 0.475784,-0.16516 0.983045,-0.24923 1.491663,-0.25203 z"
         style="opacity:1;fill:#4d4d4d;fill-opacity:1;stroke-width:0.03660452"
         id="path856" />
    </g>
  </g>
</svg>
