<?xml version="1.0" encoding="UTF-8" standalone="no"?>
<!-- Created with Inkscape (http://www.inkscape.org/) -->

<svg
   xmlns:osb="http://www.openswatchbook.org/uri/2009/osb"
   xmlns:dc="http://purl.org/dc/elements/1.1/"
   xmlns:cc="http://creativecommons.org/ns#"
   xmlns:rdf="http://www.w3.org/1999/02/22-rdf-syntax-ns#"
   xmlns:svg="http://www.w3.org/2000/svg"
   xmlns="http://www.w3.org/2000/svg"
   xmlns:xlink="http://www.w3.org/1999/xlink"
   xmlns:sodipodi="http://sodipodi.sourceforge.net/DTD/sodipodi-0.dtd"
   xmlns:inkscape="http://www.inkscape.org/namespaces/inkscape"
   width="128"
   height="128"
   viewBox="0 0 33.866666 33.866668"
   version="1.1"
   id="svg8"
   inkscape:version="0.92.2 5c3e80d, 2017-08-06"
   sodipodi:docname="image-x-psd.svg">
  <defs
     id="defs2">
    <linearGradient
       id="linearGradient1830">
      <stop
         id="stop1826"
         style="stop-color:#d9d9d9;stop-opacity:1"
         offset="0" />
      <stop
         id="stop1828"
         style="stop-color:#ffffff;stop-opacity:1;"
         offset="1" />
    </linearGradient>
    <linearGradient
       osb:paint="solid"
       id="linearGradient6987">
      <stop
         id="stop6985"
         offset="0"
         style="stop-color:#77d2fb;stop-opacity:1;" />
    </linearGradient>
    <linearGradient
       inkscape:collect="always"
       xlink:href="#linearGradient1830"
       id="linearGradient1503-8-3"
       x1="29.203474"
       y1="263.52237"
       x2="4.5843229"
       y2="296.16849"
       gradientUnits="userSpaceOnUse"
       gradientTransform="matrix(0.95481176,0,0,0.95480184,0.765188,12.661897)" />
    <radialGradient
       id="radialGradient7057-2"
       cx="416.8"
       cy="399.14"
       r="20.131"
       gradientTransform="matrix(-0.25698561,-0.044253,0.0195345,-0.11343731,86.227216,347.17749)"
       gradientUnits="userSpaceOnUse">
      <stop
         id="stop9170-4"
         style="stop-color:#8ae234"
         offset="0" />
      <stop
         id="stop9166-8"
         style="stop-color:#4db07d;stop-opacity:.88235"
         offset="1" />
    </radialGradient>
    <linearGradient
       id="linearGradient7067-3"
       x1="32.027"
       x2="27.56"
       y1="21.986"
       y2="15.299"
       gradientTransform="matrix(0.72382156,0,0,0.72382156,-35.454875,262.45843)"
       gradientUnits="userSpaceOnUse">
      <stop
         id="stop7607-9"
         style="stop-color:#bcae3e"
         offset="0" />
      <stop
         id="stop7609-0"
         style="stop-color:#3b9a6a"
         offset=".5" />
      <stop
         id="stop7611-5"
         style="stop-color:#3d8891"
         offset="1" />
    </linearGradient>
    <radialGradient
       id="radialGradient7065-2"
       cx="416.65"
       cy="392.08"
       r="27.077"
       gradientTransform="matrix(0.18961953,-0.20673068,0.21409918,0.19638003,-177.46822,291.22391)"
       gradientUnits="userSpaceOnUse">
      <stop
         id="stop7210-2"
         style="stop-color:#fce94f"
         offset="0" />
      <stop
         id="stop8189-7"
         style="stop-color:#66d09a"
         offset=".5" />
      <stop
         id="stop8187-3"
         style="stop-color:#66c6d0"
         offset="1" />
    </radialGradient>
    <linearGradient
       id="linearGradient7062-7"
       x1="13.113"
       x2="20.404"
       y1="7.2514"
       y2="21.767"
       gradientTransform="matrix(0.72382156,0,0,0.72382156,-35.454875,262.45843)"
       gradientUnits="userSpaceOnUse">
      <stop
         id="stop7615-9"
         style="stop-color:#304456"
         offset="0" />
      <stop
         id="stop7617-0"
         style="stop-color:#6394be"
         offset="1" />
    </linearGradient>
    <linearGradient
       id="linearGradient7060-2"
       x1="375.63"
       x2="393.43"
       y1="311.79"
       y2="374.92"
       gradientTransform="matrix(0.16630524,-0.02777738,0.02777738,0.16630524,-95.305059,226.39483)"
       gradientUnits="userSpaceOnUse">
      <stop
         id="stop7178-3"
         style="stop-color:#204a87"
         offset="0" />
      <stop
         id="stop7180-9"
         style="stop-color:#97bcd4"
         offset="1" />
    </linearGradient>
  </defs>
  <sodipodi:namedview
     id="base"
     pagecolor="#ffffff"
     bordercolor="#666666"
     borderopacity="1.0"
     inkscape:pageopacity="0.0"
     inkscape:pageshadow="2"
     inkscape:zoom="2.8284273"
     inkscape:cx="112.92417"
     inkscape:cy="46.203358"
     inkscape:document-units="mm"
     inkscape:current-layer="layer1"
     showgrid="false"
     units="px"
     inkscape:window-width="1600"
     inkscape:window-height="792"
     inkscape:window-x="0"
     inkscape:window-y="0"
     inkscape:window-maximized="1"
     showguides="false"
     inkscape:snap-nodes="false" />
  <metadata
     id="metadata5">
    <rdf:RDF>
      <cc:Work
         rdf:about="">
        <dc:format>image/svg+xml</dc:format>
        <dc:type
           rdf:resource="http://purl.org/dc/dcmitype/StillImage" />
        <dc:title />
      </cc:Work>
    </rdf:RDF>
  </metadata>
  <g
     inkscape:label="Layer 1"
     inkscape:groupmode="layer"
     id="layer1"
     transform="translate(0,-263.13332)">
    <g
       style="stroke-width:4.08449793"
       inkscape:transform-center-y="-9.4924686"
       inkscape:transform-center-x="5.4653607"
       inkscape:label="Capa 1"
       id="layer1-4-3"
       transform="matrix(0.53602412,0,0,0.5372689,-234.93365,-13.785303)">
      <g
         style="stroke-width:4.08449793"
         id="layer1-3-65-9"
         inkscape:label="Capa 1"
         transform="translate(0.41988239,0.03484499)" />
    </g>
    <g
       style="stroke-width:4.08449793"
       inkscape:transform-center-y="-9.4924686"
       inkscape:transform-center-x="5.4653607"
       inkscape:label="Capa 1"
       id="layer1-4"
       transform="matrix(0.53602412,0,0,0.5372689,-234.93365,-13.7603)">
      <g
         style="stroke-width:4.08449793"
         id="layer1-3-65"
         inkscape:label="Capa 1"
         transform="translate(0.41988239,0.03484499)" />
    </g>
    <path
       style="opacity:0.25;fill:#000000;fill-opacity:1;stroke:none;stroke-width:1.7883966;stroke-miterlimit:4;stroke-dasharray:none;stroke-opacity:1"
       d="m 5.142353,264.8392 v 31.10591 h 23.581961 v -17.45475 c -0.04498,-0.7929 -0.09696,-1.50255 -0.298063,-2.22205 -0.204573,-0.73192 -0.526951,-1.42494 -0.912236,-2.08813 -0.492998,-0.84861 -1.326132,-1.39576 -2.066596,-2.09122 -0.449226,-0.40738 -1.419471,-1.3751 -2.593872,-2.5305 -1.164791,-1.14594 -2.530897,-2.47697 -3.671384,-3.51104 -0.336848,-0.30398 -0.826157,-0.61944 -1.28075,-0.80163 -0.352994,-0.14146 -0.768267,-0.22951 -1.169211,-0.28869 -0.413429,-0.061 -0.811623,-0.0914 -1.110603,-0.1179 z"
       id="path5023-4-5"
       inkscape:connector-curvature="0"
       sodipodi:nodetypes="ccccascscsscc" />
    <path
       sodipodi:nodetypes="ccccascscsscc"
       inkscape:connector-curvature="0"
       id="path4623-8-3"
       d="m 5.142353,264.33819 v 31.10591 h 23.581961 v -17.45475 c -0.04498,-0.7929 -0.09696,-1.50256 -0.298063,-2.22206 -0.204573,-0.73192 -0.526951,-1.42494 -0.912236,-2.08813 -0.492998,-0.8486 -1.326132,-1.39575 -2.066596,-2.09121 -0.449226,-0.40739 -1.419471,-1.37511 -2.593872,-2.53051 -1.164791,-1.14592 -2.530897,-2.47697 -3.671384,-3.51104 -0.336848,-0.30398 -0.826157,-0.61945 -1.28075,-0.80162 -0.352994,-0.14146 -0.768267,-0.22952 -1.169211,-0.28869 -0.413429,-0.0611 -0.811623,-0.0914 -1.110603,-0.1179 z"
       style="opacity:1;fill:url(#linearGradient1503-8-3);fill-opacity:1;stroke:#808080;stroke-width:0.30000001;stroke-miterlimit:4;stroke-dasharray:none;stroke-opacity:1" />
    <path
       sodipodi:nodetypes="ccccsccsc"
       inkscape:connector-curvature="0"
       id="path1355-8-5"
       d="m 19.620994,266.16126 c 0.01558,0.0251 0.535221,0.86284 0.694175,1.33425 0.430727,0.96558 0.246637,3.78888 0.238805,5.39748 0.02644,-0.18505 4.473865,-1.33136 6.782594,0.76747 -0.01476,-0.026 -0.04662,-0.0767 -0.119341,-0.17767 -0.06901,-0.0958 -0.174308,-0.23765 -0.354479,-0.42182 -0.503715,-0.5766 -0.22026,-0.0806 -0.768208,-0.6505 -0.473747,-0.42966 -1.496999,-1.45025 -2.735519,-2.66881 -1.183854,-1.16476 -2.562819,-2.50808 -3.738027,-3.5804 z"
       style="opacity:0.24800002;fill:#000000;fill-opacity:1;stroke:none;stroke-width:0.28614345;stroke-miterlimit:4;stroke-dasharray:none;stroke-opacity:1" />
    <path
       style="opacity:1;fill:#ffffff;fill-opacity:1;stroke:#808080;stroke-width:0.30000001;stroke-miterlimit:4;stroke-dasharray:none;stroke-opacity:1"
       d="m 19.308998,265.6626 c 0.01477,0.0238 0.507514,0.81811 0.658239,1.26509 0.40843,0.91553 0.278738,3.06938 0.271311,4.5946 0.409178,-0.0213 4.921198,-0.70296 6.989915,1.73982 -0.02793,-0.0483 -0.09803,-0.0884 -0.13713,-0.16512 -0.477638,-0.54671 -1.086946,-0.98598 -1.643914,-1.50908 -0.449221,-0.4074 -1.419501,-1.37509 -2.593906,-2.53048 -1.122567,-1.10439 -2.430145,-2.3781 -3.544515,-3.39483 z"
       id="path4753-0-6"
       inkscape:connector-curvature="0"
       sodipodi:nodetypes="ccccccsc" />
    <g
       style="stroke-width:4.08449793"
       inkscape:transform-center-y="-9.4924686"
       inkscape:transform-center-x="5.4653607"
       inkscape:label="Capa 1"
       id="layer1-4-3-2"
       transform="matrix(0.51126596,0,0,0.51245325,-269.32006,5.6156869)">
      <g
         style="stroke-width:4.08449793"
         id="layer1-3-65-9-9"
         inkscape:label="Capa 1"
         transform="translate(0.41988239,0.03484499)" />
    </g>
    <g
       style="stroke-width:4.08449793"
       inkscape:transform-center-y="-9.4924686"
       inkscape:transform-center-x="5.4653607"
       inkscape:label="Capa 1"
       id="layer1-4-1"
       transform="matrix(0.51126596,0,0,0.51245325,-269.32006,5.6395364)">
      <g
         style="stroke-width:4.08449793"
         id="layer1-3-65-2"
         inkscape:label="Capa 1"
         transform="translate(0.41988239,0.03484499)" />
    </g>
    <g
       aria-label="PSD"
       style="font-style:normal;font-weight:normal;font-size:4.60694408px;line-height:1.25;font-family:sans-serif;letter-spacing:0px;word-spacing:0px;fill:#575757;fill-opacity:1;stroke:none;stroke-width:0.26458329"
       id="text1198">
      <path
         d="m 12.544066,293.70905 v -3.44165 h 1.199927 q 0.627869,0 0.895294,0.21161 0.269751,0.20929 0.269751,0.70228 0,0.55811 -0.360443,0.86972 -0.358118,0.30928 -1.00459,0.30928 h -0.297656 v 1.34876 z m 0.702283,-1.82082 h 0.139526 q 0.36742,0 0.579035,-0.16976 0.21394,-0.17208 0.21394,-0.46509 0,-0.51392 -0.653448,-0.51392 h -0.279053 z"
         style="font-style:normal;font-variant:normal;font-weight:600;font-stretch:normal;font-size:4.76249981px;font-family:'Lucida Grande';-inkscape-font-specification:'Lucida Grande Semi-Bold';fill:#575757;fill-opacity:1;stroke-width:0.26458329"
         id="path1149" />
      <path
         d="m 15.271807,293.67881 v -0.59066 q 0.55578,0.23255 0.951104,0.23255 0.276728,0 0.434858,-0.12325 0.160455,-0.12325 0.160455,-0.33486 0,-0.16744 -0.09999,-0.28138 -0.09999,-0.11627 -0.379047,-0.2744 l -0.230218,-0.1279 q -0.462763,-0.26045 -0.653449,-0.49765 -0.190686,-0.23952 -0.190686,-0.5581 0,-0.42556 0.311609,-0.68368 0.313935,-0.25813 0.827857,-0.25813 0.411602,0 0.92785,0.1186 v 0.55113 q -0.527875,-0.19766 -0.834833,-0.19766 -0.237195,0 -0.381372,0.10697 -0.141852,0.10464 -0.141852,0.27673 0,0.14185 0.09999,0.24882 0.09999,0.10697 0.376722,0.26277 l 0.246496,0.1372 q 0.497644,0.27906 0.686005,0.51393 0.18836,0.23486 0.18836,0.57205 0,0.47904 -0.355792,0.75112 -0.355792,0.27208 -0.981335,0.27208 -0.413929,0 -0.962732,-0.11628 z"
         style="font-style:normal;font-variant:normal;font-weight:600;font-stretch:normal;font-size:4.76249981px;font-family:'Lucida Grande';-inkscape-font-specification:'Lucida Grande Semi-Bold';fill:#575757;fill-opacity:1;stroke-width:0.26458329"
         id="path1151" />
      <path
         d="m 18.190233,293.70905 v -3.44165 h 1.481305 q 0.799951,0 1.225507,0.42555 0.425555,0.42323 0.425555,1.22318 0,0.85111 -0.451135,1.32318 -0.451135,0.46974 -1.262714,0.46974 z m 0.716236,-0.48835 h 0.534851 q 0.565081,0 0.841809,-0.31161 0.279052,-0.31393 0.279052,-0.9511 0,-0.49299 -0.223242,-0.82088 -0.153479,-0.22557 -0.369745,-0.31161 -0.216266,-0.086 -0.630194,-0.086 h -0.432531 z"
         style="font-style:normal;font-variant:normal;font-weight:600;font-stretch:normal;font-size:4.76249981px;font-family:'Lucida Grande';-inkscape-font-specification:'Lucida Grande Semi-Bold';fill:#575757;fill-opacity:1;stroke-width:0.26458329"
         id="path1153" />
    </g>
    <g
       style="stroke-width:1.04884827"
       id="g2060"
       transform="matrix(0.95325104,0,0,0.95360241,33.394119,14.434994)">
      <path
         style="fill:url(#radialGradient7057-2);fill-rule:evenodd;stroke:#4b8748;stroke-width:0.20813084"
         d="m -18.974457,281.64196 c 1.079073,1.38511 2.465771,1.59827 4.150683,1.57786 -0.11558,0.2668 -0.23116,0.5336 -0.34674,0.8004 0.32289,-0.38569 0.563589,-0.80474 1.097458,-0.75111 -0.330287,0.47527 -0.384523,0.78282 -0.509512,1.13336 0.638903,-0.57655 1.640541,-0.77449 2.448543,-1.0056 -0.214938,-0.32807 -0.541606,-0.56492 -0.756538,-0.89298 0.37389,-0.63757 0.533384,-1.50142 0.564147,-2.26658 -0.144642,0.39862 -0.356953,0.71785 -0.557517,0.99888 0.408967,-1.01567 0.09861,-1.68774 -0.24877,-2.53533 0.03791,0.40131 0.07583,0.80264 0.113741,1.20393 -0.322382,1.182 -0.692226,1.32235 -1.404286,2.04082 -1.175197,0.29207 -2.975992,0.55586 -4.551173,-0.30358 z"
         id="path8191"
         inkscape:connector-curvature="0" />
      <path
         style="fill:url(#radialGradient7065-2);fill-rule:evenodd;stroke:url(#linearGradient7067-3);stroke-width:0.20813084"
         d="m -23.614877,275.3867 c 0.07813,3.14073 2.762103,5.00081 5.249733,6.447 1.40653,0.52763 2.674521,0.38324 4.122092,0.20568 0.894281,-1.82924 0.520478,-3.34289 -0.264195,-5.15071 -0.488971,-0.70524 -0.611065,-1.43852 -0.718871,-2.26448 -0.564175,0.52622 -0.269023,1.39061 -0.282334,2.13361 -0.337373,-1.2622 -1.119969,-2.30812 -1.803329,-3.40333 -0.507898,-1.90778 -2.394112,-3.07502 -3.89568,-4.20353 2.463889,3.84994 3.049316,4.0466 1.998472,8.6504 -2.264476,0.82146 -3.709369,-0.32302 -4.405975,-2.41503 z"
         id="path27337"
         inkscape:connector-curvature="0" />
      <path
         style="fill:url(#linearGradient7060-2);fill-rule:evenodd;stroke:url(#linearGradient7062-7);stroke-width:0.20813084"
         d="m -25.907944,272.87431 c 0.562251,2.14085 2.092279,3.88439 4.151334,4.71432 0.921932,0.19535 1.840606,0.38343 2.582378,0.1648 -0.175707,-1.36143 0.119445,-2.6612 0.236871,-4.15024 0.06068,-1.28348 0.126488,-2.42191 -0.628125,-3.47435 -1.162023,-1.5678 -2.666921,-2.158 -4.417773,-2.04704 -0.426345,0.5951 -0.85353,1.09232 -1.177368,1.60399 -0.539182,0.85194 -0.955806,2.27722 -0.277795,3.19517 0.66711,0.62374 1.541233,1.2829 2.058042,1.35948 -0.783827,0.0534 -1.314316,-0.34554 -1.954246,-0.73808 -0.191104,-0.20938 -0.3822,-0.41875 -0.573303,-0.62811 z"
         id="path24402"
         inkscape:connector-curvature="0" />
      <path
         style="fill:#2a6a28;stroke-width:0.27750778"
         d="m -9.1963514,284.83184 c -1.1426966,-0.46919 -3.7831256,-1.77423 -4.5188906,-2.23349 -0.54993,-0.34325 -0.881108,-0.42541 -1.426652,-0.35397 -0.499227,0.0654 -0.577935,0.0498 -0.264709,-0.0526 0.245173,-0.0801 0.439143,-0.18533 0.431043,-0.23379 -0.0081,-0.0485 -0.494406,-0.48137 -1.080665,-0.96204 -3.797675,-3.11337 -6.660172,-7.26861 -7.461877,-10.83126 -0.152886,-0.6796 -0.206043,-1.0169 -0.118135,-0.74952 1.253152,3.81157 2.617484,6.14496 5.172791,8.84727 1.50772,1.59444 3.876643,3.42136 4.194039,3.23462 0.150801,-0.0887 0.206702,-0.0463 0.170866,0.12967 -0.06518,0.32004 1.698881,1.39169 3.839945,2.33273 0.8258807,0.363 1.5638168,0.76573 1.6398904,0.89486 0.1724722,0.29307 0.1922615,0.29384 -0.5777905,-0.0223 z"
         id="path24368"
         inkscape:connector-curvature="0" />
    </g>
    <g
       style="stroke-width:4.28401899"
       inkscape:transform-center-y="-9.4924686"
       inkscape:transform-center-x="5.4653607"
       inkscape:label="Capa 1"
       id="layer1-4-3-3"
       transform="matrix(0.51096555,0,0,0.51234092,-256.83509,-0.14778316)">
      <g
         style="stroke-width:4.28401899"
         id="layer1-3-65-9-98"
         inkscape:label="Capa 1"
         transform="translate(0.41988239,0.03484499)" />
    </g>
    <g
       style="stroke-width:4.28401899"
       inkscape:transform-center-y="-9.4924686"
       inkscape:transform-center-x="5.4653607"
       inkscape:label="Capa 1"
       id="layer1-4-6"
       transform="matrix(0.51096555,0,0,0.51234092,-256.83509,-0.12394024)">
      <g
         style="stroke-width:4.28401899"
         id="layer1-3-65-5"
         inkscape:label="Capa 1"
         transform="translate(0.41988239,0.03484499)" />
    </g>
  </g>
</svg>
