<?xml version="1.0" encoding="UTF-8" standalone="no"?>
<!-- Created with Inkscape (http://www.inkscape.org/) -->

<svg
   xmlns:osb="http://www.openswatchbook.org/uri/2009/osb"
   xmlns:dc="http://purl.org/dc/elements/1.1/"
   xmlns:cc="http://creativecommons.org/ns#"
   xmlns:rdf="http://www.w3.org/1999/02/22-rdf-syntax-ns#"
   xmlns:svg="http://www.w3.org/2000/svg"
   xmlns="http://www.w3.org/2000/svg"
   xmlns:xlink="http://www.w3.org/1999/xlink"
   xmlns:sodipodi="http://sodipodi.sourceforge.net/DTD/sodipodi-0.dtd"
   xmlns:inkscape="http://www.inkscape.org/namespaces/inkscape"
   width="128"
   height="128"
   viewBox="0 0 33.866666 33.866668"
   version="1.1"
   id="svg1038"
   inkscape:version="0.92.2 5c3e80d, 2017-08-06"
   sodipodi:docname="text-x-generic-template.svg">
  <defs
     id="defs1032">
    <linearGradient
       inkscape:collect="always"
       id="linearGradient2507">
      <stop
         style="stop-color:#f9f6fc;stop-opacity:1"
         offset="0"
         id="stop2503" />
      <stop
         style="stop-color:#828383;stop-opacity:1"
         offset="1"
         id="stop2505" />
    </linearGradient>
    <linearGradient
       inkscape:collect="always"
       id="linearGradient2486">
      <stop
         style="stop-color:#b6bfcc;stop-opacity:1"
         offset="0"
         id="stop2482" />
      <stop
         style="stop-color:#f3f4f7;stop-opacity:1"
         offset="1"
         id="stop2484" />
    </linearGradient>
    <linearGradient
       id="linearGradient8130">
      <stop
         id="stop8128"
         offset="0"
         style="stop-color:#97aade;stop-opacity:1" />
      <stop
         id="stop8126"
         offset="1"
         style="stop-color:#d3defc;stop-opacity:1" />
    </linearGradient>
    <linearGradient
       osb:paint="solid"
       id="linearGradient6987">
      <stop
         id="stop6985"
         offset="0"
         style="stop-color:#77d2fb;stop-opacity:1;" />
    </linearGradient>
    <linearGradient
       id="linearGradient1830">
      <stop
         offset="0"
         style="stop-color:#d9d9d9;stop-opacity:1"
         id="stop1826" />
      <stop
         offset="1"
         style="stop-color:#ffffff;stop-opacity:1;"
         id="stop1828" />
    </linearGradient>
    <linearGradient
       gradientTransform="matrix(0.95481176,0,0,0.95480184,32.336758,12.6619)"
       gradientUnits="userSpaceOnUse"
       y2="296.16849"
       x2="4.5843229"
       y1="263.52237"
       x1="29.203474"
       id="linearGradient1503-8-3"
       xlink:href="#linearGradient1830"
       inkscape:collect="always" />
    <linearGradient
       inkscape:collect="always"
       xlink:href="#linearGradient8130"
       id="linearGradient2448"
       x1="51.81012"
       y1="271.52228"
       x2="37.840626"
       y2="294.30902"
       gradientUnits="userSpaceOnUse" />
    <linearGradient
       inkscape:collect="always"
       xlink:href="#linearGradient2486"
       id="linearGradient2480"
       x1="-23.373405"
       y1="291.20117"
       x2="-16.373554"
       y2="282.80957"
       gradientUnits="userSpaceOnUse" />
    <radialGradient
       inkscape:collect="always"
       xlink:href="#linearGradient2507"
       id="radialGradient2509"
       cx="-94.557579"
       cy="60.601353"
       fx="-94.557579"
       fy="60.601353"
       r="26.667969"
       gradientTransform="matrix(1.8568177,-0.23167596,0.03973922,0.31849864,78.818348,17.599067)"
       gradientUnits="userSpaceOnUse" />
  </defs>
  <sodipodi:namedview
     id="base"
     pagecolor="#ffffff"
     bordercolor="#666666"
     borderopacity="1.0"
     inkscape:pageopacity="0.0"
     inkscape:pageshadow="2"
     inkscape:zoom="1.6710922"
     inkscape:cx="-25.157875"
     inkscape:cy="-8.0922192"
     inkscape:document-units="mm"
     inkscape:current-layer="layer1"
     showgrid="false"
     inkscape:window-width="1600"
     inkscape:window-height="798"
     inkscape:window-x="0"
     inkscape:window-y="0"
     inkscape:window-maximized="1"
     units="px" />
  <metadata
     id="metadata1035">
    <rdf:RDF>
      <cc:Work
         rdf:about="">
        <dc:format>image/svg+xml</dc:format>
        <dc:type
           rdf:resource="http://purl.org/dc/dcmitype/StillImage" />
        <dc:title />
      </cc:Work>
    </rdf:RDF>
  </metadata>
  <g
     inkscape:label="Layer 1"
     inkscape:groupmode="layer"
     id="layer1"
     transform="translate(0,-263.13332)">
    <g
       style="stroke-width:4.08449793"
       inkscape:transform-center-y="-9.4924686"
       inkscape:transform-center-x="5.4653607"
       inkscape:label="Capa 1"
       id="layer1-4"
       transform="matrix(0.53602412,0,0,0.5372689,-207.94615,-13.7603)">
      <g
         style="stroke-width:4.08449793"
         id="layer1-3-65"
         inkscape:label="Capa 1"
         transform="translate(0.41988239,0.03484499)" />
    </g>
    <g
       style="stroke-width:4.26647043"
       inkscape:transform-center-y="-9.4924686"
       inkscape:transform-center-x="5.4653607"
       inkscape:label="Capa 1"
       id="layer1-4-5"
       transform="matrix(0.51316181,0,0,0.5143535,-198.35467,-1.2617566)">
      <g
         style="stroke-width:4.26647043"
         id="layer1-3-65-5"
         inkscape:label="Capa 1"
         transform="translate(0.41988239,0.03484499)" />
    </g>
    <g
       style="stroke-width:4.08449793"
       inkscape:transform-center-y="-9.4924686"
       inkscape:transform-center-x="5.4653607"
       inkscape:label="Capa 1"
       id="layer1-4-3"
       transform="matrix(0.53602412,0,0,0.5372689,-203.36208,-13.7853)">
      <g
         style="stroke-width:4.08449793"
         id="layer1-3-65-9"
         inkscape:label="Capa 1"
         transform="translate(0.41988239,0.03484499)" />
    </g>
    <g
       style="stroke-width:4.08449793"
       inkscape:transform-center-y="-9.4924686"
       inkscape:transform-center-x="5.4653607"
       inkscape:label="Capa 1"
       id="layer1-4-8"
       transform="matrix(0.53602412,0,0,0.5372689,-203.36208,-13.760297)">
      <g
         style="stroke-width:4.08449793"
         id="layer1-3-65-29"
         inkscape:label="Capa 1"
         transform="translate(0.41988239,0.03484499)" />
    </g>
    <g
       style="stroke-width:4.08449793"
       inkscape:transform-center-y="-9.4924686"
       inkscape:transform-center-x="5.4653607"
       inkscape:label="Capa 1"
       id="layer1-4-3-2"
       transform="matrix(0.51126596,0,0,0.51245325,-237.74849,5.6156902)">
      <g
         style="stroke-width:4.08449793"
         id="layer1-3-65-9-9"
         inkscape:label="Capa 1"
         transform="translate(0.41988239,0.03484499)" />
    </g>
    <g
       style="stroke-width:4.08449793"
       inkscape:transform-center-y="-9.4924686"
       inkscape:transform-center-x="5.4653607"
       inkscape:label="Capa 1"
       id="layer1-4-1"
       transform="matrix(0.51126596,0,0,0.51245325,-237.74849,5.6395397)">
      <g
         style="stroke-width:4.08449793"
         id="layer1-3-65-2"
         inkscape:label="Capa 1"
         transform="translate(0.41988239,0.03484499)" />
    </g>
    <g
       id="g2539"
       transform="matrix(0.99977932,0,0,0.99978106,-31.560866,0.06133761)"
       style="stroke-width:1.00021982">
      <path
         sodipodi:nodetypes="ccccascscsscc"
         inkscape:connector-curvature="0"
         id="path5023-4-5"
         d="m 36.713923,264.8392 v 31.10591 h 23.581961 v -17.45475 c -0.04498,-0.7929 -0.09696,-1.50255 -0.298063,-2.22205 -0.204573,-0.73192 -0.526951,-1.42494 -0.912236,-2.08813 -0.492998,-0.84861 -1.326132,-1.39576 -2.066596,-2.09122 -0.449226,-0.40738 -1.419471,-1.3751 -2.593872,-2.5305 -1.164791,-1.14594 -2.530897,-2.47697 -3.671384,-3.51104 -0.336848,-0.30398 -0.826157,-0.61944 -1.28075,-0.80163 -0.352994,-0.14146 -0.768267,-0.22951 -1.169211,-0.28869 -0.413429,-0.061 -0.811623,-0.0914 -1.110603,-0.1179 z"
         style="opacity:0.25;fill:#000000;fill-opacity:1;stroke:none;stroke-width:1.78878975;stroke-miterlimit:4;stroke-dasharray:none;stroke-opacity:1" />
      <path
         style="opacity:1;fill:url(#linearGradient1503-8-3);fill-opacity:1;stroke:#808080;stroke-width:0.30006596;stroke-miterlimit:4;stroke-dasharray:none;stroke-opacity:1"
         d="m 36.713923,264.33819 v 31.10591 h 23.581961 v -17.45475 c -0.04498,-0.7929 -0.09696,-1.50256 -0.298063,-2.22206 -0.204573,-0.73192 -0.526951,-1.42494 -0.912236,-2.08813 -0.492998,-0.8486 -1.326132,-1.39575 -2.066596,-2.09121 -0.449226,-0.40739 -1.419471,-1.37511 -2.593872,-2.53051 -1.164791,-1.14592 -2.530897,-2.47697 -3.671384,-3.51104 -0.336848,-0.30398 -0.826157,-0.61945 -1.28075,-0.80162 -0.352994,-0.14146 -0.768267,-0.22952 -1.169211,-0.28869 -0.413429,-0.0611 -0.811623,-0.0914 -1.110603,-0.1179 z"
         id="path4623-8-3"
         inkscape:connector-curvature="0"
         sodipodi:nodetypes="ccccascscsscc" />
      <path
         style="opacity:1;fill:url(#linearGradient2448);fill-opacity:1;stroke:none;stroke-width:0.20004398;stroke-miterlimit:4;stroke-dasharray:none;stroke-opacity:1"
         d="m 37.840625,265.47424 v 28.83479 H 59.16785 l -0.210749,-15.93097 c -0.04593,-1.76568 -0.823797,-6.37471 -2.318811,-6.74211 -0.765773,-1.15787 -0.957798,-0.81925 -2.037574,-1.93644 -1.053425,-1.06227 -1.580044,-1.52072 -2.611489,-2.47929 -1.169617,-1.18968 -3.018938,-1.48606 -4.671305,-1.65321 z"
         id="path7427-6"
         inkscape:connector-curvature="0"
         sodipodi:nodetypes="ccccccccc" />
      <circle
         style="opacity:1;fill:none;fill-opacity:1;fill-rule:nonzero;stroke:#ffffff;stroke-width:0.20004398;stroke-linecap:round;stroke-linejoin:round;stroke-miterlimit:4;stroke-dasharray:none;stroke-dashoffset:0;stroke-opacity:1;paint-order:markers fill stroke"
         id="circle2452"
         cx="45.688442"
         cy="273.69037"
         r="6.1086602" />
      <rect
         y="271.0542"
         x="53.657932"
         height="8.928483"
         width="2.7429202"
         id="rect2454"
         style="opacity:1;fill:none;fill-opacity:1;fill-rule:nonzero;stroke:#ffffff;stroke-width:0.20004398;stroke-linecap:round;stroke-linejoin:round;stroke-miterlimit:4;stroke-dasharray:none;stroke-dashoffset:0;stroke-opacity:1;paint-order:markers fill stroke" />
      <path
         style="opacity:0.24800002;fill:#000000;fill-opacity:1;stroke:none;stroke-width:0.28620636;stroke-miterlimit:4;stroke-dasharray:none;stroke-opacity:1"
         d="m 51.192564,266.16126 c 0.01558,0.0251 0.535221,0.86284 0.694175,1.33425 0.430727,0.96558 0.246637,3.78888 0.238805,5.39748 0.02644,-0.18505 4.473865,-1.33136 6.782594,0.76747 -0.01476,-0.026 -0.04662,-0.0767 -0.119341,-0.17767 -0.06901,-0.0958 -0.174308,-0.23765 -0.354479,-0.42182 -0.503715,-0.5766 -0.22026,-0.0806 -0.768208,-0.6505 -0.473747,-0.42966 -1.496999,-1.45025 -2.735519,-2.66881 -1.183854,-1.16476 -2.562819,-2.50808 -3.738027,-3.5804 z"
         id="path1355-8-5"
         inkscape:connector-curvature="0"
         sodipodi:nodetypes="ccccsccsc" />
      <rect
         style="opacity:1;fill:none;fill-opacity:1;fill-rule:nonzero;stroke:#ffffff;stroke-width:0.20004398;stroke-linecap:round;stroke-linejoin:round;stroke-miterlimit:4;stroke-dasharray:none;stroke-dashoffset:0;stroke-opacity:1;paint-order:markers fill stroke"
         id="rect2456"
         width="2.7429202"
         height="2.0388162"
         x="53.657932"
         y="277.94385" />
      <path
         sodipodi:nodetypes="ccccccsc"
         inkscape:connector-curvature="0"
         id="path4753-0-6"
         d="m 50.880568,265.6626 c 0.01477,0.0238 0.507514,0.81811 0.658239,1.26509 0.40843,0.91553 0.278738,3.06938 0.271311,4.5946 0.409178,-0.0213 4.921198,-0.70296 6.989915,1.73982 -0.02793,-0.0483 -0.09803,-0.0884 -0.13713,-0.16512 -0.477638,-0.54671 -1.086946,-0.98598 -1.643914,-1.50908 -0.449221,-0.4074 -1.419501,-1.37509 -2.593906,-2.53048 -1.122567,-1.10439 -2.430145,-2.3781 -3.544515,-3.39483 z"
         style="opacity:1;fill:#ffffff;fill-opacity:1;stroke:#808080;stroke-width:0.30006596;stroke-miterlimit:4;stroke-dasharray:none;stroke-opacity:1" />
      <circle
         r="2.945905"
         cy="273.69037"
         cx="45.688442"
         id="path2450"
         style="opacity:1;fill:none;fill-opacity:1;fill-rule:nonzero;stroke:#ffffff;stroke-width:0.20004398;stroke-linecap:round;stroke-linejoin:round;stroke-miterlimit:4;stroke-dasharray:none;stroke-dashoffset:0;stroke-opacity:1;paint-order:markers fill stroke" />
      <g
         transform="translate(66.215239)"
         id="g2520"
         style="stroke-width:1.00021982">
        <path
           sodipodi:nodetypes="ccccccc"
           inkscape:connector-curvature="0"
           id="path2511"
           d="m -25.973774,278.3567 13.714601,-2.57498 2.7989804,12.72265 c 0.08253,0.40876 -0.1085186,0.64343 -0.4354062,0.79165 l -13.4778062,2.43432 c -0.306573,0.0227 -0.527872,-0.1129 -0.573944,-0.57395 z"
           style="opacity:0.25;fill:#000000;fill-opacity:1;stroke:none;stroke-width:0.10002199;stroke-linecap:butt;stroke-linejoin:miter;stroke-miterlimit:4;stroke-dasharray:none;stroke-opacity:1" />
        <path
           style="fill:url(#linearGradient2480);fill-opacity:1;stroke:#4d4d4d;stroke-width:0.10002199;stroke-linecap:butt;stroke-linejoin:miter;stroke-miterlimit:4;stroke-dasharray:none;stroke-opacity:1"
           d="m -25.973774,277.82753 13.714601,-2.57498 2.7989804,12.72265 c 0.08253,0.40876 -0.1085186,0.64343 -0.4354062,0.79165 l -13.4778062,2.43432 c -0.306573,0.0227 -0.527872,-0.1129 -0.573944,-0.57395 z"
           id="path2458"
           inkscape:connector-curvature="0"
           sodipodi:nodetypes="ccccccc" />
        <path
           style="fill:#000000;stroke:none;stroke-width:0.26464149px;stroke-linecap:butt;stroke-linejoin:miter;stroke-opacity:1"
           d="m -23.8746,281.04627 5.457851,-1.06358 1.511405,7.66898 -5.513829,1.09157 z"
           id="path2460"
           inkscape:connector-curvature="0" />
        <path
           style="fill:#000000;stroke:none;stroke-width:0.26464149px;stroke-linecap:butt;stroke-linejoin:miter;stroke-opacity:1"
           d="m -17.073278,279.75877 4.142369,-0.86765 0.335868,1.59537 -4.166962,0.90583 z"
           id="path2462"
           inkscape:connector-curvature="0"
           sodipodi:nodetypes="ccccc" />
        <path
           style="fill:#000000;stroke:none;stroke-width:0.26464149px;stroke-linecap:butt;stroke-linejoin:miter;stroke-opacity:1"
           d="m -16.373554,282.80957 4.14237,-0.86766 0.2519,1.51141 -4.058402,0.92364 z"
           id="path2464"
           inkscape:connector-curvature="0" />
        <path
           style="fill:#000000;stroke:none;stroke-width:0.26464149px;stroke-linecap:butt;stroke-linejoin:miter;stroke-opacity:1"
           d="m -15.813774,285.88836 4.142369,-0.83967 0.307879,1.48342 -4.100386,0.95162 z"
           id="path2466"
           inkscape:connector-curvature="0"
           sodipodi:nodetypes="ccccc" />
        <path
           inkscape:connector-curvature="0"
           style="fill:url(#radialGradient2509);fill-opacity:1;stroke:#4d4d4d;stroke-width:0.37803584;stroke-linecap:butt;stroke-linejoin:miter;stroke-miterlimit:4;stroke-dasharray:none;stroke-opacity:1"
           d="m -46.333984,45.804688 -51.833985,9.732421 1.169922,7.386719 52.166016,-10.294922 z"
           transform="matrix(0.26458333,0,0,0.26458333,0,263.13332)"
           id="path2488" />
      </g>
    </g>
  </g>
</svg>
