<?xml version="1.0" encoding="UTF-8" standalone="no"?>
<!-- Created with Inkscape (http://www.inkscape.org/) -->

<svg
   xmlns:osb="http://www.openswatchbook.org/uri/2009/osb"
   xmlns:dc="http://purl.org/dc/elements/1.1/"
   xmlns:cc="http://creativecommons.org/ns#"
   xmlns:rdf="http://www.w3.org/1999/02/22-rdf-syntax-ns#"
   xmlns:svg="http://www.w3.org/2000/svg"
   xmlns="http://www.w3.org/2000/svg"
   xmlns:xlink="http://www.w3.org/1999/xlink"
   xmlns:sodipodi="http://sodipodi.sourceforge.net/DTD/sodipodi-0.dtd"
   xmlns:inkscape="http://www.inkscape.org/namespaces/inkscape"
   width="128"
   height="128"
   viewBox="0 0 33.866666 33.866668"
   version="1.1"
   id="svg1038"
   inkscape:version="0.92.1 r15371"
   sodipodi:docname="font-x-generic.svg">
  <defs
     id="defs1032">
    <linearGradient
       osb:paint="solid"
       id="linearGradient6987">
      <stop
         id="stop6985"
         offset="0"
         style="stop-color:#77d2fb;stop-opacity:1;" />
    </linearGradient>
    <linearGradient
       id="linearGradient1830">
      <stop
         offset="0"
         style="stop-color:#d9d9d9;stop-opacity:1"
         id="stop1826" />
      <stop
         offset="1"
         style="stop-color:#ffffff;stop-opacity:1;"
         id="stop1828" />
    </linearGradient>
    <inkscape:path-effect
       fuse_tolerance="0"
       vertical_pattern="false"
       prop_units="false"
       tang_offset="0"
       normal_offset="0"
       spacing="0"
       scale_y_rel="false"
       prop_scale="0.1"
       copytype="single_stretched"
       pattern="m 0.50094657,93.399621 c 0,-2.76 2.24000003,-5 4.99999993,-5 2.76,0 5.0000005,2.24 5.0000005,5 0,2.76 -2.2400005,5 -5.0000005,5 -2.7599999,0 -4.99999993,-2.24 -4.99999993,-5 z"
       is_visible="true"
       id="path-effect4516"
       effect="skeletal" />
    <inkscape:path-effect
       effect="skeletal"
       id="path-effect4512"
       is_visible="true"
       pattern="m 0.50094287,57.320803 c 0,-2.76 2.24000003,-5 4.99999993,-5 2.76,0 5.0000002,2.24 5.0000002,5 0,2.76 -2.2400002,5 -5.0000002,5 -2.7599999,0 -4.99999993,-2.24 -4.99999993,-5 z"
       copytype="single_stretched"
       prop_scale="0.1"
       scale_y_rel="false"
       spacing="0"
       normal_offset="0"
       tang_offset="0"
       prop_units="false"
       vertical_pattern="false"
       fuse_tolerance="0" />
    <inkscape:path-effect
       fuse_tolerance="0"
       vertical_pattern="false"
       prop_units="false"
       tang_offset="0"
       normal_offset="0"
       spacing="0"
       scale_y_rel="false"
       prop_scale="0.1"
       copytype="single_stretched"
       pattern="m 0.500945,5 c 0,-2.76 2.24,-5 5,-5 2.76,0 5,2.24 5,5 0,2.76 -2.24,5 -5,5 -2.76,0 -5,-2.24 -5,-5 z"
       is_visible="true"
       id="path-effect4496"
       effect="skeletal" />
    <linearGradient
       inkscape:collect="always"
       xlink:href="#linearGradient1830"
       id="linearGradient1503-8"
       x1="29.203474"
       y1="263.52237"
       x2="4.5843229"
       y2="296.16849"
       gradientUnits="userSpaceOnUse"
       gradientTransform="matrix(0.95460369,0,0,0.95459377,-73.532217,12.720166)" />
  </defs>
  <sodipodi:namedview
     id="base"
     pagecolor="#ffffff"
     bordercolor="#666666"
     borderopacity="1.0"
     inkscape:pageopacity="0.0"
     inkscape:pageshadow="2"
     inkscape:zoom="0.9899495"
     inkscape:cx="-67.945063"
     inkscape:cy="180.18559"
     inkscape:document-units="mm"
     inkscape:current-layer="layer1"
     showgrid="false"
     inkscape:window-width="1280"
     inkscape:window-height="960"
     inkscape:window-x="0"
     inkscape:window-y="27"
     inkscape:window-maximized="1"
     units="px" />
  <metadata
     id="metadata1035">
    <rdf:RDF>
      <cc:Work
         rdf:about="">
        <dc:format>image/svg+xml</dc:format>
        <dc:type
           rdf:resource="http://purl.org/dc/dcmitype/StillImage" />
        <dc:title />
      </cc:Work>
    </rdf:RDF>
  </metadata>
  <g
     inkscape:label="Layer 1"
     inkscape:groupmode="layer"
     id="layer1"
     transform="translate(0,-263.13332)">
    <g
       style="stroke-width:4.08449793"
       inkscape:transform-center-y="-9.4924686"
       inkscape:transform-center-x="5.4653607"
       inkscape:label="Capa 1"
       id="layer1-4-9"
       transform="matrix(0.53602412,0,0,0.5372689,-234.93365,-13.785303)">
      <g
         style="stroke-width:4.08449793"
         id="layer1-3-65-0"
         inkscape:label="Capa 1"
         transform="translate(0.41988239,0.03484499)" />
    </g>
    <g
       style="stroke-width:4.08449793"
       inkscape:transform-center-y="-9.4924686"
       inkscape:transform-center-x="5.4653607"
       inkscape:label="Capa 1"
       id="layer1-4"
       transform="matrix(0.53602412,0,0,0.5372689,-234.93365,-13.760303)">
      <g
         style="stroke-width:4.08449793"
         id="layer1-3-65"
         inkscape:label="Capa 1"
         transform="translate(0.41988239,0.03484499)" />
    </g>
    <g
       style="stroke-width:4.08449793"
       inkscape:transform-center-y="-9.4924686"
       inkscape:transform-center-x="5.4653607"
       inkscape:label="Capa 1"
       id="layer1-4-9-9"
       transform="matrix(0.53590731,0,0,0.53715182,-269.1404,-13.387989)">
      <g
         style="stroke-width:4.08449793"
         id="layer1-3-65-0-1"
         inkscape:label="Capa 1"
         transform="translate(0.41988239,0.03484499)" />
    </g>
    <g
       style="stroke-width:4.08449793"
       inkscape:transform-center-y="-9.4924686"
       inkscape:transform-center-x="5.4653607"
       inkscape:label="Capa 1"
       id="layer1-4-27"
       transform="matrix(0.53590731,0,0,0.53715182,-269.1404,-13.362994)">
      <g
         style="stroke-width:4.08449793"
         id="layer1-3-65-09"
         inkscape:label="Capa 1"
         transform="translate(0.41988239,0.03484499)" />
    </g>
    <g
       id="g4850"
       transform="translate(74.300928,1.9897398e-6)">
      <path
         sodipodi:nodetypes="ccccascscsscc"
         inkscape:connector-curvature="0"
         id="path5023-4"
         d="m -69.156006,264.84252 v 31.09913 h 23.576823 v -17.45094 c -0.04497,-0.79273 -0.09694,-1.50223 -0.297999,-2.22157 -0.204528,-0.73176 -0.526836,-1.42463 -0.912037,-2.08767 -0.49289,-0.84843 -1.325843,-1.39546 -2.066145,-2.09077 -0.449128,-0.40729 -1.419162,-1.3748 -2.593307,-2.52995 -1.164537,-1.14569 -2.530346,-2.47643 -3.670584,-3.51027 -0.336775,-0.30392 -0.825977,-0.61931 -1.280471,-0.80146 -0.352917,-0.14143 -0.7681,-0.22946 -1.168956,-0.28862 -0.413339,-0.061 -0.811446,-0.0914 -1.110361,-0.11788 z"
         style="opacity:0.25;fill:#000000;fill-opacity:1;stroke:none;stroke-width:1.78800678;stroke-miterlimit:4;stroke-dasharray:none;stroke-opacity:1" />
      <path
         style="opacity:1;fill:url(#linearGradient1503-8);fill-opacity:1;stroke:#808080;stroke-width:0.29993463;stroke-miterlimit:4;stroke-dasharray:none;stroke-opacity:1"
         d="m -69.156006,264.34162 v 31.09913 h 23.576823 v -17.45094 c -0.04497,-0.79273 -0.09694,-1.50224 -0.297999,-2.22158 -0.204528,-0.73176 -0.526836,-1.42463 -0.912037,-2.08767 -0.49289,-0.84842 -1.325843,-1.39545 -2.066145,-2.09076 -0.449128,-0.4073 -1.419162,-1.37481 -2.593307,-2.52996 -1.164537,-1.14567 -2.530346,-2.47643 -3.670584,-3.51027 -0.336775,-0.30392 -0.825977,-0.61932 -1.280471,-0.80145 -0.352917,-0.14143 -0.7681,-0.22947 -1.168956,-0.28862 -0.413339,-0.0611 -0.811446,-0.0914 -1.110361,-0.11788 z"
         id="path4623-8-5"
         inkscape:connector-curvature="0"
         sodipodi:nodetypes="ccccascscsscc" />
      <g
         transform="matrix(0.95381149,0,0,0.95381149,-103.7218,12.43114)"
         id="g4549">
        <path
           sodipodi:nodetypes="ccsssccscccsccscsscsccccccccsssscsssccccccccsssssscscc"
           style="fill:#495a72;fill-opacity:1;stroke-width:1"
           d="m 40.067902,293.19169 4.93e-4,-0.34188 0.217391,-0.0834 c 0.7274,-0.27906 1.417739,-0.95343 1.721684,-1.68184 0.05358,-0.12842 0.264551,-0.54907 0.468817,-0.93479 0.971406,-1.83432 2.690541,-5.12214 2.720848,-5.20359 0.01868,-0.0502 0.0946,-0.19385 0.168704,-0.31921 0.0741,-0.12536 1.533334,-2.90118 3.242728,-6.1685 1.709394,-3.26732 3.154073,-6.00794 3.210399,-6.09028 0.124561,-0.18209 0.272741,-0.29282 0.424408,-0.31716 0.146097,-0.0235 0.335369,0.0989 0.415374,0.26846 0.03434,0.0728 0.109174,0.51257 0.184893,1.08656 0.441206,3.34453 1.486953,11.02131 1.520622,11.16281 0.02223,0.0934 0.04566,0.25908 0.05207,0.36818 0.0064,0.10911 0.144066,1.17671 0.305888,2.37244 0.161819,1.19572 0.304056,2.34762 0.316082,2.55977 0.02231,0.3937 0.03519,0.46086 0.227891,1.18925 0.237946,0.8994 0.520647,1.34169 1.004634,1.57175 0.173671,0.0826 0.303739,0.11252 0.637194,0.14679 0.230443,0.0237 0.434906,0.0591 0.454363,0.0786 0.02029,0.0204 0.03104,0.16896 0.02523,0.34797 l -0.01015,0.31239 -3.965806,0.009 -3.965806,0.009 v -0.36396 -0.36395 l 0.10895,-0.0219 c 0.05992,-0.0121 0.181513,-0.0222 0.270197,-0.0225 0.24092,-9.9e-4 0.615795,-0.0904 0.859782,-0.20522 0.537582,-0.25302 0.783196,-0.70431 0.783196,-1.43905 0,-0.3996 -0.480049,-4.77089 -0.530804,-4.83345 -0.02786,-0.0343 -0.591826,-0.0438 -2.605843,-0.0438 -2.404062,0 -2.573774,0.004 -2.624305,0.0614 -0.06372,0.0724 -0.775599,1.49979 -1.27841,2.56338 -0.750125,1.58673 -1.054226,2.38274 -1.06026,2.77532 -0.01006,0.65453 0.610348,1.15583 1.431837,1.15696 l 0.148175,2e-4 v 0.36818 0.36819 h -2.440497 -2.440496 l 4.93e-4,-0.34189 z m 10.664273,-8.5778 c 0.03013,-0.0365 -0.01121,-0.49222 -0.170982,-1.88477 -0.433012,-3.77423 -0.488917,-4.21759 -0.54208,-4.2992 -0.06838,-0.10497 -0.224342,-0.10534 -0.317864,-7.4e-4 -0.0388,0.0434 -0.494712,0.92309 -1.013135,1.95489 -0.518421,1.0318 -1.203254,2.38564 -1.52185,3.00854 -0.318594,0.6229 -0.579265,1.15283 -0.579265,1.17762 0,0.0248 0.01045,0.0556 0.02324,0.0684 0.01279,0.0129 0.936509,0.0234 2.05272,0.0234 1.678162,0 2.036356,-0.008 2.069212,-0.0482 z"
           id="path4444"
           inkscape:connector-curvature="0" />
        <g
           style="opacity:0.4;fill:#000000;fill-opacity:1;stroke-width:4.04545546"
           transform="matrix(0.24648093,0,0,0.24790304,-3.4163228,223.97725)"
           id="g4454">
          <path
             style="fill:#000000;fill-opacity:1;fill-rule:evenodd;stroke:none;stroke-width:4.04545546px;stroke-linecap:butt;stroke-linejoin:miter;stroke-opacity:1"
             d="m 165.13442,192.45675 c -0.007,-0.35228 18.13739,-0.81738 40.49968,-0.71811 22.35818,0.0992 40.49931,0.48774 40.49931,0.68751 0,0.3522 -18.14775,0.41182 -40.50375,0.3125 -22.34882,-0.0993 -40.49124,-0.0824 -40.49524,-0.2819 z"
             id="path4448"
             inkscape:path-effect="#path-effect4496"
             inkscape:original-d="m 165.13442,192.45675 c 28.81267,-0.57723 52.14239,-0.0306 80.99898,-0.0306"
             inkscape:connector-curvature="0"
             sodipodi:nodetypes="cc" />
          <path
             sodipodi:nodetypes="cc"
             inkscape:connector-curvature="0"
             inkscape:original-d="m 165.13443,244.77756 c 28.81267,-0.57723 62.06057,-0.0306 90.91715,-0.0306"
             inkscape:path-effect="#path-effect4512"
             id="path4450"
             d="m 165.13443,244.77756 c -0.007,-0.36199 20.35875,-0.85592 45.45855,-0.74295 25.09585,0.11296 45.4586,0.52228 45.4586,0.71235 0,0.36189 -20.36941,0.4007 -45.46311,0.28767 -25.0863,-0.11299 -45.45024,-0.0673 -45.45404,-0.25707 z"
             style="fill:#000000;fill-opacity:1;fill-rule:evenodd;stroke:none;stroke-width:4.04545546px;stroke-linecap:butt;stroke-linejoin:miter;stroke-opacity:1" />
          <path
             style="fill:#000000;fill-opacity:1;fill-rule:evenodd;stroke:none;stroke-width:4.04545546px;stroke-linecap:butt;stroke-linejoin:miter;stroke-opacity:1"
             d="m 165.13443,280.85638 c -0.007,-0.36199 20.35875,-0.85592 45.45855,-0.74295 25.09585,0.11296 45.45861,0.52228 45.45861,0.71235 0,0.36189 -20.36942,0.4007 -45.46312,0.28767 -25.0863,-0.11299 -45.45024,-0.0673 -45.45404,-0.25707 z"
             id="path4452"
             inkscape:path-effect="#path-effect4516"
             inkscape:original-d="m 165.13443,280.85638 c 28.81267,-0.57723 62.06057,-0.0306 90.91715,-0.0306"
             inkscape:connector-curvature="0"
             sodipodi:nodetypes="cc" />
        </g>
        <path
           sodipodi:open="true"
           transform="matrix(-0.62451252,0.7810148,0.77749326,0.62889127,0,0)"
           d="m 203.4932,211.84166 a 2.7434106,2.7400274 0 0 1 -2.4348,2.72264 2.7434106,2.7400274 0 0 1 -2.98259,-2.11009 2.7434106,2.7400274 0 0 1 1.76377,-3.19737"
           sodipodi:end="4.3741992"
           sodipodi:start="0"
           sodipodi:ry="2.7400274"
           sodipodi:rx="2.7434106"
           sodipodi:cy="211.84166"
           sodipodi:cx="200.74979"
           sodipodi:type="arc"
           id="path4458"
           style="opacity:0.4;fill:none;fill-opacity:1;fill-rule:evenodd;stroke:#000000;stroke-width:0.40000317;stroke-linecap:round;stroke-linejoin:bevel;stroke-miterlimit:4;stroke-dasharray:none;stroke-opacity:1" />
        <path
           style="opacity:0.4;fill:none;fill-opacity:1;fill-rule:evenodd;stroke:#000000;stroke-width:0.40000317;stroke-linecap:round;stroke-linejoin:bevel;stroke-miterlimit:4;stroke-dasharray:none;stroke-dashoffset:0;stroke-opacity:1"
           id="path4460"
           sodipodi:type="arc"
           sodipodi:cx="261.95642"
           sodipodi:cy="135.819"
           sodipodi:rx="2.7434106"
           sodipodi:ry="2.7400274"
           sodipodi:start="0"
           sodipodi:end="4.3741992"
           d="m 264.69983,135.819 a 2.7434106,2.7400274 0 0 1 -2.4348,2.72264 2.7434106,2.7400274 0 0 1 -2.98259,-2.11009 2.7434106,2.7400274 0 0 1 1.76377,-3.19737"
           transform="matrix(0.62451252,0.7810148,-0.77749326,0.62889127,0,0)"
           sodipodi:open="true" />
      </g>
      <path
         style="opacity:0.24800002;fill:#000000;fill-opacity:1;stroke:none;stroke-width:0.28608111;stroke-miterlimit:4;stroke-dasharray:none;stroke-opacity:1"
         d="m -54.68052,266.16429 c 0.01558,0.0251 0.535105,0.86266 0.694024,1.33396 0.430633,0.96537 0.246583,3.78806 0.238753,5.39631 0.02643,-0.18501 4.47289,-1.33107 6.781116,0.7673 -0.01476,-0.026 -0.04661,-0.0767 -0.119315,-0.17763 -0.06899,-0.0958 -0.17427,-0.2376 -0.354402,-0.42173 -0.503605,-0.57647 -0.220212,-0.0806 -0.76804,-0.65036 -0.473644,-0.42956 -1.496673,-1.44993 -2.734923,-2.66823 -1.183596,-1.1645 -2.562261,-2.50753 -3.737213,-3.57962 z"
         id="path1355-8"
         inkscape:connector-curvature="0"
         sodipodi:nodetypes="ccccsccsc" />
      <path
         sodipodi:nodetypes="ccccccsc"
         inkscape:connector-curvature="0"
         id="path4753-0-6"
         d="m -54.992448,265.66574 c 0.01477,0.0238 0.507404,0.81793 0.658096,1.26482 0.408341,0.91533 0.278677,3.06871 0.271252,4.5936 0.409089,-0.0213 4.920125,-0.70281 6.988392,1.73944 -0.02792,-0.0483 -0.09801,-0.0884 -0.137101,-0.16509 -0.477534,-0.54659 -1.086709,-0.98576 -1.643555,-1.50875 -0.449123,-0.40731 -1.419192,-1.37479 -2.593341,-2.52993 -1.122323,-1.10415 -2.429616,-2.37758 -3.543743,-3.39409 z"
         style="opacity:1;fill:#ffffff;fill-opacity:1;stroke:#808080;stroke-width:0.29993463;stroke-miterlimit:4;stroke-dasharray:none;stroke-opacity:1" />
    </g>
    <g
       style="stroke-width:4.08449793"
       inkscape:transform-center-y="-9.4924686"
       inkscape:transform-center-x="5.4653607"
       inkscape:label="Capa 1"
       id="layer1-4-3"
       transform="matrix(0.51115455,0,0,0.51234158,-297.54887,-0.14818195)">
      <g
         style="stroke-width:4.08449793"
         id="layer1-3-65-9"
         inkscape:label="Capa 1"
         transform="translate(0.41988239,0.03484499)" />
    </g>
    <g
       style="stroke-width:4.08449793"
       inkscape:transform-center-y="-9.4924686"
       inkscape:transform-center-x="5.4653607"
       inkscape:label="Capa 1"
       id="layer1-4-2"
       transform="matrix(0.51115455,0,0,0.51234158,-297.54887,-0.12433901)">
      <g
         style="stroke-width:4.08449793"
         id="layer1-3-65-91"
         inkscape:label="Capa 1"
         transform="translate(0.41988239,0.03484499)" />
    </g>
  </g>
</svg>
