<?xml version="1.0" encoding="UTF-8" standalone="no"?>
<!-- Created with Inkscape (http://www.inkscape.org/) -->

<svg
   xmlns:osb="http://www.openswatchbook.org/uri/2009/osb"
   xmlns:dc="http://purl.org/dc/elements/1.1/"
   xmlns:cc="http://creativecommons.org/ns#"
   xmlns:rdf="http://www.w3.org/1999/02/22-rdf-syntax-ns#"
   xmlns:svg="http://www.w3.org/2000/svg"
   xmlns="http://www.w3.org/2000/svg"
   xmlns:xlink="http://www.w3.org/1999/xlink"
   xmlns:sodipodi="http://sodipodi.sourceforge.net/DTD/sodipodi-0.dtd"
   xmlns:inkscape="http://www.inkscape.org/namespaces/inkscape"
   width="128"
   height="128"
   viewBox="0 0 33.866666 33.866668"
   version="1.1"
   id="svg8"
   inkscape:version="0.92.2 5c3e80d, 2017-08-06"
   sodipodi:docname="application-vnd.geogebra.file.svg">
  <defs
     id="defs2">
    <linearGradient
       osb:paint="solid"
       id="linearGradient6987">
      <stop
         id="stop6985"
         offset="0"
         style="stop-color:#77d2fb;stop-opacity:1;" />
    </linearGradient>
    <linearGradient
       id="linearGradient8130">
      <stop
         style="stop-color:#8f44d9;stop-opacity:1"
         offset="0"
         id="stop8128" />
      <stop
         style="stop-color:#7236ad;stop-opacity:1"
         offset="1"
         id="stop8126" />
    </linearGradient>
    <linearGradient
       inkscape:collect="always"
       xlink:href="#linearGradient8130"
       id="linearGradient1503"
       x1="18.924377"
       y1="268.28818"
       x2="5.8018413"
       y2="294.83975"
       gradientUnits="userSpaceOnUse"
       gradientTransform="matrix(1.0010488,0,0,1.0010383,42.648679,-0.19086282)" />
    <linearGradient
       inkscape:collect="always"
       id="linearGradient4590">
      <stop
         style="stop-color:#ffffff;stop-opacity:1"
         offset="0"
         id="stop4592" />
      <stop
         style="stop-color:#d9d9d9;stop-opacity:1"
         offset="1"
         id="stop4594" />
    </linearGradient>
    <linearGradient
       gradientUnits="userSpaceOnUse"
       y2="268.83844"
       x2="23.350012"
       y1="269.73138"
       x1="22.367529"
       id="linearGradient8140"
       xlink:href="#linearGradient4590"
       inkscape:collect="always"
       gradientTransform="translate(42.666437,0.07500334)" />
  </defs>
  <sodipodi:namedview
     id="base"
     pagecolor="#ffffff"
     bordercolor="#666666"
     borderopacity="1.0"
     inkscape:pageopacity="0.0"
     inkscape:pageshadow="2"
     inkscape:zoom="1.4262772"
     inkscape:cx="66.171027"
     inkscape:cy="49.138548"
     inkscape:document-units="mm"
     inkscape:current-layer="layer1"
     showgrid="false"
     units="px"
     inkscape:window-width="1600"
     inkscape:window-height="811"
     inkscape:window-x="0"
     inkscape:window-y="0"
     inkscape:window-maximized="1"
     showguides="false"
     inkscape:snap-nodes="false" />
  <metadata
     id="metadata5">
    <rdf:RDF>
      <cc:Work
         rdf:about="">
        <dc:format>image/svg+xml</dc:format>
        <dc:type
           rdf:resource="http://purl.org/dc/dcmitype/StillImage" />
        <dc:title></dc:title>
      </cc:Work>
    </rdf:RDF>
  </metadata>
  <g
     inkscape:label="Layer 1"
     inkscape:groupmode="layer"
     id="layer1"
     transform="translate(0,-263.13332)">
    <g
       style="stroke-width:4.08449793"
       inkscape:transform-center-y="-9.4924686"
       inkscape:transform-center-x="5.4653607"
       inkscape:label="Capa 1"
       id="layer1-4-3"
       transform="matrix(0.53602412,0,0,0.5372689,-234.93365,-13.785303)">
      <g
         style="stroke-width:4.08449793"
         id="layer1-3-65-9"
         inkscape:label="Capa 1"
         transform="translate(0.41988239,0.03484499)" />
    </g>
    <g
       style="stroke-width:4.08449793"
       inkscape:transform-center-y="-9.4924686"
       inkscape:transform-center-x="5.4653607"
       inkscape:label="Capa 1"
       id="layer1-4"
       transform="matrix(0.53602412,0,0,0.5372689,-234.93365,-13.7603)">
      <g
         style="stroke-width:4.08449793"
         id="layer1-3-65"
         inkscape:label="Capa 1"
         transform="translate(0.41988239,0.03484499)" />
    </g>
    <g
       style="stroke-width:4.08449793"
       inkscape:transform-center-y="-9.4924686"
       inkscape:transform-center-x="5.4653607"
       inkscape:label="Capa 1"
       id="layer1-4-3-2"
       transform="matrix(0.51126596,0,0,0.51245325,-269.32006,5.6156869)">
      <g
         style="stroke-width:4.08449793"
         id="layer1-3-65-9-9"
         inkscape:label="Capa 1"
         transform="translate(0.41988239,0.03484499)" />
    </g>
    <g
       style="stroke-width:4.08449793"
       inkscape:transform-center-y="-9.4924686"
       inkscape:transform-center-x="5.4653607"
       inkscape:label="Capa 1"
       id="layer1-4-1"
       transform="matrix(0.51126596,0,0,0.51245325,-269.32006,5.6395364)">
      <g
         style="stroke-width:4.08449793"
         id="layer1-3-65-2"
         inkscape:label="Capa 1"
         transform="translate(0.41988239,0.03484499)" />
    </g>
    <g
       style="stroke-width:4.26647043"
       inkscape:transform-center-y="-9.4924686"
       inkscape:transform-center-x="5.4653607"
       inkscape:label="Capa 1"
       id="layer1-4-8"
       transform="matrix(0.51316181,0,0,0.5143535,-155.68823,-1.2617566)">
      <g
         style="stroke-width:4.26647043"
         id="layer1-3-65-0"
         inkscape:label="Capa 1"
         transform="translate(0.41988239,0.03484499)" />
    </g>
    <g
       id="g2287"
       transform="translate(-42.666437,3.3363136e-6)">
      <path
         sodipodi:nodetypes="ccccascscsscc"
         inkscape:connector-curvature="0"
         id="path1127"
         d="m 47.765067,264.79539 v 31.22126 h 23.669406 v -17.51947 c -0.04515,-0.79584 -0.09732,-1.50813 -0.299168,-2.2303 -0.205331,-0.73463 -0.528904,-1.43023 -0.915619,-2.09587 -0.494825,-0.85175 -1.331049,-1.40093 -2.074259,-2.09896 -0.450892,-0.40891 -1.424734,-1.38022 -2.603491,-2.5399 -1.169109,-1.15017 -2.540281,-2.48615 -3.684997,-3.52407 -0.338097,-0.3051 -0.829221,-0.62173 -1.285499,-0.80459 -0.354304,-0.14198 -0.771116,-0.23036 -1.173546,-0.28975 -0.414962,-0.0612 -0.814633,-0.0917 -1.114722,-0.11835 z"
         style="opacity:0.25;fill:#000000;fill-opacity:1;stroke:none;stroke-width:0.40000004;stroke-miterlimit:4;stroke-dasharray:none;stroke-opacity:1" />
      <path
         style="opacity:1;fill:url(#linearGradient1503);fill-opacity:1;stroke:#542880;stroke-width:0.30000001;stroke-miterlimit:4;stroke-dasharray:none;stroke-opacity:1"
         d="m 47.765067,264.26665 v 31.22126 h 23.669406 v -17.51947 c -0.04515,-0.79584 -0.09732,-1.50813 -0.299168,-2.2303 -0.205331,-0.73463 -0.528904,-1.43022 -0.915619,-2.09587 -0.494825,-0.85175 -1.331049,-1.40093 -2.074259,-2.09896 -0.450892,-0.40891 -1.424734,-1.38021 -2.603491,-2.5399 -1.169109,-1.15017 -2.540281,-2.48615 -3.684997,-3.52407 -0.338097,-0.3051 -0.829221,-0.62173 -1.285499,-0.80459 -0.354304,-0.14198 -0.771116,-0.23036 -1.173546,-0.28975 -0.414962,-0.0613 -0.814633,-0.0917 -1.114722,-0.11835 z"
         id="path4623-8"
         inkscape:connector-curvature="0"
         sodipodi:nodetypes="ccccascscsscc" />
      <g
         style="stroke-width:0.20891038;stroke-miterlimit:4;stroke-dasharray:none"
         transform="matrix(0.95734836,0,0,0.95734836,43.392951,11.992475)"
         id="g8124">
        <path
           sodipodi:nodetypes="ccccccccc"
           inkscape:connector-curvature="0"
           id="path7427"
           d="m 5.7901675,264.7606 v 30.11943 H 28.067559 l -0.220138,-16.64072 c -0.04798,-1.84435 -0.860498,-6.65872 -2.422118,-7.04249 -0.79989,-1.20945 -1.00047,-0.85575 -2.128352,-2.02271 -1.100357,-1.1096 -1.650438,-1.58847 -2.727836,-2.58975 -1.221725,-1.24268 -3.153437,-1.55226 -4.87942,-1.72686 z"
           style="opacity:1;fill:none;fill-opacity:1;stroke:#ffffff;stroke-width:0.20891038;stroke-miterlimit:4;stroke-dasharray:none;stroke-opacity:1" />
        <path
           inkscape:connector-curvature="0"
           id="path7433"
           d="M 5.7671545,292.54851 H 28.090573"
           style="fill:none;fill-rule:evenodd;stroke:#ffffff;stroke-width:0.20891038;stroke-linecap:butt;stroke-linejoin:miter;stroke-miterlimit:4;stroke-dasharray:none;stroke-opacity:1" />
      </g>
      <path
         id="path1488"
         d="m 62.491429,266.3905 c 0.01503,0.0239 0.516415,0.82132 0.669856,1.26996 0.415784,0.91893 0.28411,3.08043 0.27655,4.61132 0.399566,-0.0205 4.630432,-0.64793 6.833615,1.46487 -0.01781,-0.0313 -0.03386,-0.0634 -0.05195,-0.0945 -0.494825,-0.85175 -1.33067,-1.40059 -2.07388,-2.09862 -0.227372,-0.2062 -0.589829,-0.55755 -1.042382,-1.00181 -0.35528,-0.20716 -0.700944,-0.45029 -1.0033,-0.74358 -1.142781,-1.10848 -2.474077,-2.38714 -3.608512,-3.40765 z"
         style="opacity:0.25;fill:#000000;fill-opacity:1;stroke:none;stroke-width:0.40000001;stroke-miterlimit:4;stroke-dasharray:none;stroke-opacity:1"
         inkscape:connector-curvature="0" />
      <path
         sodipodi:nodetypes="ccccccsc"
         inkscape:connector-curvature="0"
         id="path4753-0"
         d="m 61.984245,265.59598 c 0.01482,0.0239 0.509395,0.82115 0.660679,1.26978 0.409944,0.91893 0.279772,3.08077 0.272318,4.61164 0.410695,-0.0214 4.928561,-0.70458 7.004951,1.74726 -0.02803,-0.0485 -0.08751,-0.0897 -0.126756,-0.16673 -0.479409,-0.54873 -1.090976,-0.98963 -1.65001,-1.51467 -0.450887,-0.40891 -1.424765,-1.38018 -2.603524,-2.53987 -1.12673,-1.10848 -2.439157,-2.3869 -3.557658,-3.40741 z"
         style="opacity:1;fill:url(#linearGradient8140);fill-opacity:1;stroke:#542880;stroke-width:0.30000001;stroke-miterlimit:4;stroke-dasharray:none;stroke-opacity:1" />
      <path
         id="path1419"
         d="m 58.61033,275.87449 c -0.932383,0 -1.693354,0.76111 -1.693354,1.69335 0,0.0436 0.01003,0.0847 0.01304,0.12793 -1.255567,0.61307 -2.35327,1.52209 -3.1347,2.62034 -0.161597,-0.0511 -0.329549,-0.0871 -0.507592,-0.0871 -0.932242,0 -1.693354,0.76111 -1.693354,1.69335 0,0.68466 0.411796,1.27409 0.998594,1.54059 -0.131051,1.55942 0.424787,2.93787 1.456422,3.9225 a 1.6702664,1.6702664 0 0 0 -0.03594,0.34296 c 0,0.93237 0.761107,1.69336 1.693348,1.69336 0.513949,0 0.972608,-0.23555 1.28142,-0.59898 0.355536,0.0638 0.7213,0.10938 1.106416,0.11426 1.196541,0.016 2.381887,-0.26457 3.462313,-0.76053 a 1.6803573,1.6803573 0 0 0 0.923116,0.27767 c 0.932381,0 1.693352,-0.76111 1.693352,-1.69348 0,-0.13547 -0.02075,-0.26514 -0.05073,-0.39148 0.930856,-0.95795 1.609164,-2.11965 1.87001,-3.39153 0.03333,-0.16175 0.0546,-0.32029 0.0716,-0.47816 0.594124,-0.26361 1.01214,-0.85732 1.01214,-1.54682 0,-0.93224 -0.761108,-1.69336 -1.693349,-1.69336 -0.011,0 -0.02131,0.003 -0.03192,0.003 -0.929478,-1.44813 -2.647987,-2.39295 -4.774004,-2.42391 -0.144725,-8.5e-4 -0.288354,0.0126 -0.433086,0.0198 -0.269001,-0.58101 -0.85428,-0.98837 -1.534661,-0.98837 z m 0,0.48009 a 1.2095365,1.2095365 0 0 1 1.213405,1.21341 1.2095365,1.2095365 0 0 1 -1.213405,1.2134 1.2095365,1.2095365 0 0 1 -1.213411,-1.2134 1.2095365,1.2095365 0 0 1 1.213411,-1.21341 z m 1.704544,1.76785 c 1.668745,0.0226 2.994401,0.71951 3.754405,1.77946 -0.233062,0.29031 -0.378758,0.6533 -0.378758,1.05294 0,0.70732 0.4393,1.31403 1.058586,1.56659 a 3.9446097,3.9446097 0 0 1 -0.06137,0.44123 c -0.181083,0.8811 -0.622741,1.70497 -1.240501,2.41051 a 1.6817397,1.6817397 0 0 0 -0.965831,-0.30633 c -0.932241,0 -1.693353,0.76111 -1.693353,1.69336 0,0.14521 0.02517,0.28309 0.05944,0.41759 -0.781842,0.3102 -1.624645,0.49073 -2.489156,0.47899 -0.343091,-0.004 -0.664896,-0.0485 -0.977302,-0.10876 -0.09152,-0.84735 -0.803687,-1.51391 -1.674691,-1.51391 -0.293605,0 -0.566478,0.0817 -0.807972,0.21427 -0.676374,-0.73057 -1.032459,-1.69392 -0.983525,-2.75734 0.622598,-0.25062 1.065775,-0.85925 1.065775,-1.56949 0,-0.31739 -0.0933,-0.61211 -0.246745,-0.86659 0.632829,-0.96278 1.578341,-1.76551 2.684752,-2.28706 a 1.6871308,1.6871308 0 0 0 1.190738,0.49253 c 0.735955,0 1.359108,-0.47746 1.591338,-1.136 0.03771,-5.2e-4 0.07548,-0.003 0.113215,-0.003 z m 5.068994,1.61885 a 1.2095365,1.2095365 0 0 1 1.213547,1.21355 1.2095365,1.2095365 0 0 1 -1.213405,1.2134 1.2095365,1.2095365 0 0 1 -1.213548,-1.2134 1.2095365,1.2095365 0 0 1 1.213548,-1.21355 z m -12.095642,0.96762 a 1.2095365,1.2095365 0 0 1 1.213411,1.21355 1.2095365,1.2095365 0 0 1 -1.213411,1.21341 1.2095365,1.2095365 0 0 1 -1.213405,-1.21341 1.2095365,1.2095365 0 0 1 1.213405,-1.2134 z m 9.192755,4.83843 a 1.2095365,1.2095365 0 0 1 1.21341,1.21341 1.2095365,1.2095365 0 0 1 -1.21341,1.2134 1.2095365,1.2095365 0 0 1 -1.213406,-1.2134 1.2095365,1.2095365 0 0 1 1.213406,-1.21341 z m -6.77368,0.96763 a 1.2095365,1.2095365 0 0 1 1.213547,1.2134 1.2095365,1.2095365 0 0 1 -1.213547,1.21341 1.2095365,1.2095365 0 0 1 -1.213405,-1.21341 1.2095365,1.2095365 0 0 1 1.213405,-1.2134 z"
         inkscape:connector-curvature="0"
         style="opacity:1;isolation:isolate;fill:#ffffff;fill-opacity:1;stroke-width:0.26458332" />
    </g>
  </g>
</svg>
