<?xml version="1.0" encoding="UTF-8" standalone="no"?>
<!-- Created with Inkscape (http://www.inkscape.org/) -->

<svg
   xmlns:osb="http://www.openswatchbook.org/uri/2009/osb"
   xmlns:dc="http://purl.org/dc/elements/1.1/"
   xmlns:cc="http://creativecommons.org/ns#"
   xmlns:rdf="http://www.w3.org/1999/02/22-rdf-syntax-ns#"
   xmlns:svg="http://www.w3.org/2000/svg"
   xmlns="http://www.w3.org/2000/svg"
   xmlns:xlink="http://www.w3.org/1999/xlink"
   xmlns:sodipodi="http://sodipodi.sourceforge.net/DTD/sodipodi-0.dtd"
   xmlns:inkscape="http://www.inkscape.org/namespaces/inkscape"
   width="128"
   height="128"
   viewBox="0 0 33.866666 33.866668"
   version="1.1"
   id="svg1038"
   inkscape:version="0.92.2 5c3e80d, 2017-08-06"
   sodipodi:docname="text-x-python.svg">
  <defs
     id="defs1032">
    <linearGradient
       osb:paint="solid"
       id="linearGradient6987">
      <stop
         id="stop6985"
         offset="0"
         style="stop-color:#77d2fb;stop-opacity:1;" />
    </linearGradient>
    <linearGradient
       id="linearGradient1830">
      <stop
         offset="0"
         style="stop-color:#d9d9d9;stop-opacity:1"
         id="stop1826" />
      <stop
         offset="1"
         style="stop-color:#ffffff;stop-opacity:1;"
         id="stop1828" />
    </linearGradient>
    <linearGradient
       id="linearGradient11301"
       inkscape:collect="always">
      <stop
         id="stop11303"
         offset="0"
         style="stop-color:#ffe052;stop-opacity:1" />
      <stop
         id="stop11305"
         offset="1"
         style="stop-color:#ffc331;stop-opacity:1" />
    </linearGradient>
    <linearGradient
       gradientUnits="userSpaceOnUse"
       y2="168.1012"
       x2="147.77737"
       y1="111.92053"
       x1="89.136749"
       id="linearGradient11307"
       xlink:href="#linearGradient11301"
       inkscape:collect="always" />
    <linearGradient
       id="linearGradient9515"
       inkscape:collect="always">
      <stop
         id="stop9517"
         offset="0"
         style="stop-color:#387eb8;stop-opacity:1" />
      <stop
         id="stop9519"
         offset="1"
         style="stop-color:#366994;stop-opacity:1" />
    </linearGradient>
    <linearGradient
       gradientUnits="userSpaceOnUse"
       y2="131.85291"
       x2="110.14919"
       y1="77.070274"
       x1="55.549179"
       id="linearGradient9521"
       xlink:href="#linearGradient9515"
       inkscape:collect="always" />
    <linearGradient
       gradientTransform="matrix(0.95460105,0,0,0.9545928,0.76875552,12.720465)"
       gradientUnits="userSpaceOnUse"
       y2="296.16849"
       x2="4.5843229"
       y1="263.52237"
       x1="29.203474"
       id="linearGradient1503-8-3"
       xlink:href="#linearGradient1830"
       inkscape:collect="always" />
  </defs>
  <sodipodi:namedview
     id="base"
     pagecolor="#ffffff"
     bordercolor="#666666"
     borderopacity="1.0"
     inkscape:pageopacity="0.0"
     inkscape:pageshadow="2"
     inkscape:zoom="1.9476072"
     inkscape:cx="-8.5077455"
     inkscape:cy="60.519921"
     inkscape:document-units="mm"
     inkscape:current-layer="layer1"
     showgrid="false"
     inkscape:window-width="1600"
     inkscape:window-height="798"
     inkscape:window-x="0"
     inkscape:window-y="0"
     inkscape:window-maximized="1"
     units="px" />
  <metadata
     id="metadata1035">
    <rdf:RDF>
      <cc:Work
         rdf:about="">
        <dc:format>image/svg+xml</dc:format>
        <dc:type
           rdf:resource="http://purl.org/dc/dcmitype/StillImage" />
        <dc:title />
      </cc:Work>
    </rdf:RDF>
  </metadata>
  <g
     inkscape:label="Layer 1"
     inkscape:groupmode="layer"
     id="layer1"
     transform="translate(0,-263.13332)">
    <g
       style="stroke-width:4.08449793"
       inkscape:transform-center-y="-9.4924686"
       inkscape:transform-center-x="5.4653607"
       inkscape:label="Capa 1"
       id="layer1-4-9-22"
       transform="matrix(0.53602412,0,0,0.5372689,-234.93365,-13.7853)">
      <g
         style="stroke-width:4.08449793"
         id="layer1-3-65-0-7"
         inkscape:label="Capa 1"
         transform="translate(0.41988239,0.03484499)" />
    </g>
    <g
       style="stroke-width:4.08449793"
       inkscape:transform-center-y="-9.4924686"
       inkscape:transform-center-x="5.4653607"
       inkscape:label="Capa 1"
       id="layer1-4-3"
       transform="matrix(0.53602412,0,0,0.5372689,-234.93365,-13.7603)">
      <g
         style="stroke-width:4.08449793"
         id="layer1-3-65-7"
         inkscape:label="Capa 1"
         transform="translate(0.41988239,0.03484499)" />
    </g>
    <g
       style="stroke-width:4.08449793"
       inkscape:transform-center-y="-9.4924686"
       inkscape:transform-center-x="5.4653607"
       inkscape:label="Capa 1"
       id="layer1-4-9-2"
       transform="matrix(0.53602412,0,0,0.5372689,-267.6877,-57.38336)">
      <g
         style="stroke-width:4.08449793"
         id="layer1-3-65-0-2"
         inkscape:label="Capa 1"
         transform="translate(0.41988239,0.03484499)" />
    </g>
    <g
       style="stroke-width:4.08449793"
       inkscape:transform-center-y="-9.4924686"
       inkscape:transform-center-x="5.4653607"
       inkscape:label="Capa 1"
       id="layer1-4-7"
       transform="matrix(0.53602412,0,0,0.5372689,-267.6877,-57.35836)">
      <g
         style="stroke-width:4.08449793"
         id="layer1-3-65-3"
         inkscape:label="Capa 1"
         transform="translate(0.41988239,0.03484499)" />
    </g>
    <g
       style="stroke-width:4.08449793"
       inkscape:transform-center-y="-9.4924686"
       inkscape:transform-center-x="5.4653607"
       inkscape:label="Capa 1"
       id="layer1-4-9"
       transform="matrix(0.53602412,0,0,0.5372689,-234.93365,-13.785303)">
      <g
         style="stroke-width:4.08449793"
         id="layer1-3-65-0"
         inkscape:label="Capa 1"
         transform="translate(0.41988239,0.03484499)" />
    </g>
    <g
       style="stroke-width:4.08449793"
       inkscape:transform-center-y="-9.4924686"
       inkscape:transform-center-x="5.4653607"
       inkscape:label="Capa 1"
       id="layer1-4"
       transform="matrix(0.53602412,0,0,0.5372689,-234.93365,-13.760303)">
      <g
         style="stroke-width:4.08449793"
         id="layer1-3-65"
         inkscape:label="Capa 1"
         transform="translate(0.41988239,0.03484499)" />
    </g>
    <g
       style="stroke-width:4.08449793"
       inkscape:transform-center-y="-9.4924686"
       inkscape:transform-center-x="5.4653607"
       inkscape:label="Capa 1"
       id="layer1-4-3-24"
       transform="matrix(0.53602412,0,0,0.5372689,-185.13476,-13.7853)">
      <g
         style="stroke-width:4.08449793"
         id="layer1-3-65-9"
         inkscape:label="Capa 1"
         transform="translate(0.41988239,0.03484499)" />
    </g>
    <g
       style="stroke-width:4.08449793"
       inkscape:transform-center-y="-9.4924686"
       inkscape:transform-center-x="5.4653607"
       inkscape:label="Capa 1"
       id="layer1-4-8"
       transform="matrix(0.53602412,0,0,0.5372689,-185.13476,-13.760297)">
      <g
         style="stroke-width:4.08449793"
         id="layer1-3-65-39"
         inkscape:label="Capa 1"
         transform="translate(0.41988239,0.03484499)" />
    </g>
    <g
       style="stroke-width:4.08449793"
       inkscape:transform-center-y="-9.4924686"
       inkscape:transform-center-x="5.4653607"
       inkscape:label="Capa 1"
       id="layer1-4-3-2"
       transform="matrix(0.51126596,0,0,0.51245325,-219.52117,5.6156902)">
      <g
         style="stroke-width:4.08449793"
         id="layer1-3-65-9-9"
         inkscape:label="Capa 1"
         transform="translate(0.41988239,0.03484499)" />
    </g>
    <g
       style="stroke-width:4.08449793"
       inkscape:transform-center-y="-9.4924686"
       inkscape:transform-center-x="5.4653607"
       inkscape:label="Capa 1"
       id="layer1-4-1"
       transform="matrix(0.51126596,0,0,0.51245325,-219.52117,5.6395397)">
      <g
         style="stroke-width:4.08449793"
         id="layer1-3-65-2"
         inkscape:label="Capa 1"
         transform="translate(0.41988239,0.03484499)" />
    </g>
    <path
       style="opacity:0.25;fill:#000000;fill-opacity:1;stroke:none;stroke-width:1.7883966;stroke-miterlimit:4;stroke-dasharray:none;stroke-opacity:1"
       d="m 5.1449546,264.84255 v 31.0991 H 28.721711 v -17.45093 c -0.04497,-0.79272 -0.09694,-1.50222 -0.297997,-2.22156 -0.204528,-0.73176 -0.526834,-1.42463 -0.912034,-2.08767 -0.49289,-0.84843 -1.32584,-1.39546 -2.06614,-2.09076 -0.449127,-0.40729 -1.419158,-1.3748 -2.5933,-2.52995 -1.164534,-1.14569 -2.530338,-2.47643 -3.670574,-3.51027 -0.336773,-0.30391 -0.825974,-0.61931 -1.280467,-0.80146 -0.352916,-0.14142 -0.768098,-0.22946 -1.168953,-0.28862 -0.413338,-0.061 -0.811444,-0.0914 -1.110358,-0.11788 z"
       id="path5023-4-5"
       inkscape:connector-curvature="0"
       sodipodi:nodetypes="ccccascscsscc" />
    <path
       sodipodi:nodetypes="ccccascscsscc"
       inkscape:connector-curvature="0"
       id="path4623-8-3"
       d="m 5.1449546,264.34165 v 31.0991 H 28.721711 v -17.45093 c -0.04497,-0.79272 -0.09694,-1.50223 -0.297997,-2.22157 -0.204528,-0.73176 -0.526834,-1.42463 -0.912034,-2.08767 -0.49289,-0.84842 -1.32584,-1.39545 -2.06614,-2.09075 -0.449127,-0.4073 -1.419158,-1.37481 -2.5933,-2.52996 -1.164534,-1.14567 -2.530338,-2.47643 -3.670574,-3.51027 -0.336773,-0.30391 -0.825974,-0.61932 -1.280467,-0.80145 -0.352916,-0.14142 -0.768098,-0.22947 -1.168953,-0.28862 -0.413338,-0.0611 -0.811444,-0.0914 -1.110358,-0.11788 z"
       style="opacity:1;fill:url(#linearGradient1503-8-3);fill-opacity:1;stroke:#808080;stroke-width:0.30000001;stroke-miterlimit:4;stroke-dasharray:none;stroke-opacity:1" />
    <g
       transform="matrix(0.94370485,0,0,0.94370485,0.3778623,15.09372)"
       aria-label="1 1 0 1 1 1 0 0 1 0 1 1 0 0 1"
       style="font-style:normal;font-weight:normal;font-size:4.08497334px;line-height:1.25;font-family:sans-serif;letter-spacing:0px;word-spacing:0px;fill:#808080;fill-opacity:1;stroke:none;stroke-width:0.26458332"
       id="g4736">
      <path
         inkscape:connector-curvature="0"
         d="m 7.5488249,268.94897 h 0.6582232 v -2.27187 l -0.7160671,0.14362 v -0.36701 l 0.7120779,-0.14362 h 0.4029124 v 2.63888 h 0.6582233 v 0.33909 H 7.5488249 Z"
         style="fill:#808080;fill-opacity:1;stroke-width:0.26458332"
         id="path4706" />
      <path
         inkscape:connector-curvature="0"
         d="m 7.5488249,274.05519 h 0.6582232 v -2.27187 l -0.7160671,0.14361 v -0.36701 l 0.7120779,-0.14361 h 0.4029124 v 2.63888 h 0.6582233 v 0.33908 H 7.5488249 Z"
         style="fill:#808080;fill-opacity:1;stroke-width:0.26458332"
         id="path4708" />
      <path
         inkscape:connector-curvature="0"
         d="m 12.242156,271.68159 q -0.31116,0 -0.468735,0.30718 -0.15558,0.30517 -0.15558,0.91951 0,0.61235 0.15558,0.91952 0.157575,0.30518 0.468735,0.30518 0.313155,0 0.468735,-0.30518 0.157575,-0.30717 0.157575,-0.91952 0,-0.61434 -0.157575,-0.91951 -0.15558,-0.30718 -0.468735,-0.30718 z m 0,-0.31913 q 0.500649,0 0.763938,0.39692 0.265284,0.39494 0.265284,1.1489 0,0.75197 -0.265284,1.1489 -0.263289,0.39494 -0.763938,0.39494 -0.500648,0 -0.765932,-0.39494 -0.26329,-0.39693 -0.26329,-1.1489 0,-0.75396 0.26329,-1.1489 0.265284,-0.39692 0.765932,-0.39692 z"
         style="fill:#808080;fill-opacity:1;stroke-width:0.26458332"
         id="path4710" />
      <path
         inkscape:connector-curvature="0"
         d="m 7.5488249,279.1614 h 0.6582232 v -2.27186 l -0.7160671,0.14361 v -0.36701 l 0.7120779,-0.14361 h 0.4029124 v 2.63887 h 0.6582233 v 0.33909 H 7.5488249 Z"
         style="fill:#808080;fill-opacity:1;stroke-width:0.26458332"
         id="path4712" />
      <path
         inkscape:connector-curvature="0"
         d="m 11.450294,279.1614 h 0.658223 v -2.27186 l -0.716067,0.14361 v -0.36701 l 0.712078,-0.14361 h 0.402912 v 2.63887 h 0.658223 v 0.33909 h -1.715369 z"
         style="fill:#808080;fill-opacity:1;stroke-width:0.26458332"
         id="path4714" />
      <path
         inkscape:connector-curvature="0"
         d="m 7.5488249,284.26762 h 0.6582232 v -2.27187 l -0.7160671,0.14362 v -0.36701 l 0.7120779,-0.14362 h 0.4029124 v 2.63888 h 0.6582233 v 0.33909 H 7.5488249 Z"
         style="fill:#808080;fill-opacity:1;stroke-width:0.26458332"
         id="path4716" />
      <path
         inkscape:connector-curvature="0"
         d="m 12.242156,281.89403 q -0.31116,0 -0.468735,0.30717 -0.15558,0.30517 -0.15558,0.91952 0,0.61234 0.15558,0.91951 0.157575,0.30518 0.468735,0.30518 0.313155,0 0.468735,-0.30518 0.157575,-0.30717 0.157575,-0.91951 0,-0.61435 -0.157575,-0.91952 -0.15558,-0.30717 -0.468735,-0.30717 z m 0,-0.31914 q 0.500649,0 0.763938,0.39693 0.265284,0.39493 0.265284,1.1489 0,0.75197 -0.265284,1.1489 -0.263289,0.39493 -0.763938,0.39493 -0.500648,0 -0.765932,-0.39493 -0.26329,-0.39693 -0.26329,-1.1489 0,-0.75397 0.26329,-1.1489 0.265284,-0.39693 0.765932,-0.39693 z"
         style="fill:#808080;fill-opacity:1;stroke-width:0.26458332"
         id="path4718" />
      <path
         inkscape:connector-curvature="0"
         d="m 16.143625,281.89403 q -0.31116,0 -0.468735,0.30717 -0.15558,0.30517 -0.15558,0.91952 0,0.61234 0.15558,0.91951 0.157575,0.30518 0.468735,0.30518 0.313155,0 0.468735,-0.30518 0.157574,-0.30717 0.157574,-0.91951 0,-0.61435 -0.157574,-0.91952 -0.15558,-0.30717 -0.468735,-0.30717 z m 0,-0.31914 q 0.500648,0 0.763938,0.39693 0.265284,0.39493 0.265284,1.1489 0,0.75197 -0.265284,1.1489 -0.26329,0.39493 -0.763938,0.39493 -0.500649,0 -0.765933,-0.39493 -0.263289,-0.39693 -0.263289,-1.1489 0,-0.75397 0.263289,-1.1489 0.265284,-0.39693 0.765933,-0.39693 z"
         style="fill:#808080;fill-opacity:1;stroke-width:0.26458332"
         id="path4720" />
      <path
         inkscape:connector-curvature="0"
         d="m 7.5488249,289.37384 h 0.6582232 v -2.27187 l -0.7160671,0.14361 v -0.36701 l 0.7120779,-0.14361 h 0.4029124 v 2.63888 h 0.6582233 v 0.33908 H 7.5488249 Z"
         style="fill:#808080;fill-opacity:1;stroke-width:0.26458332"
         id="path4722" />
      <path
         inkscape:connector-curvature="0"
         d="m 12.242156,287.00024 q -0.31116,0 -0.468735,0.30718 -0.15558,0.30517 -0.15558,0.91951 0,0.61235 0.15558,0.91952 0.157575,0.30518 0.468735,0.30518 0.313155,0 0.468735,-0.30518 0.157575,-0.30717 0.157575,-0.91952 0,-0.61434 -0.157575,-0.91951 -0.15558,-0.30718 -0.468735,-0.30718 z m 0,-0.31913 q 0.500649,0 0.763938,0.39692 0.265284,0.39494 0.265284,1.1489 0,0.75197 -0.265284,1.1489 -0.263289,0.39494 -0.763938,0.39494 -0.500648,0 -0.765932,-0.39494 -0.26329,-0.39693 -0.26329,-1.1489 0,-0.75396 0.26329,-1.1489 0.265284,-0.39692 0.765932,-0.39692 z"
         style="fill:#808080;fill-opacity:1;stroke-width:0.26458332"
         id="path4724" />
      <path
         inkscape:connector-curvature="0"
         d="m 15.351762,289.37384 h 0.658224 v -2.27187 l -0.716067,0.14361 v -0.36701 l 0.712077,-0.14361 h 0.402913 v 2.63888 h 0.658223 v 0.33908 h -1.71537 z"
         style="fill:#808080;fill-opacity:1;stroke-width:0.26458332"
         id="path4726" />
      <path
         inkscape:connector-curvature="0"
         d="m 7.5488249,294.48005 h 0.6582232 v -2.27186 L 7.490981,292.3518 v -0.36701 l 0.7120779,-0.14361 h 0.4029124 v 2.63887 h 0.6582233 v 0.33909 H 7.5488249 Z"
         style="fill:#808080;fill-opacity:1;stroke-width:0.26458332"
         id="path4728" />
      <path
         inkscape:connector-curvature="0"
         d="m 12.242156,292.10646 q -0.31116,0 -0.468735,0.30717 -0.15558,0.30518 -0.15558,0.91952 0,0.61235 0.15558,0.91952 0.157575,0.30517 0.468735,0.30517 0.313155,0 0.468735,-0.30517 0.157575,-0.30717 0.157575,-0.91952 0,-0.61434 -0.157575,-0.91952 -0.15558,-0.30717 -0.468735,-0.30717 z m 0,-0.31914 q 0.500649,0 0.763938,0.39693 0.265284,0.39494 0.265284,1.1489 0,0.75197 -0.265284,1.1489 -0.263289,0.39493 -0.763938,0.39493 -0.500648,0 -0.765932,-0.39493 -0.26329,-0.39693 -0.26329,-1.1489 0,-0.75396 0.26329,-1.1489 0.265284,-0.39693 0.765932,-0.39693 z"
         style="fill:#808080;fill-opacity:1;stroke-width:0.26458332"
         id="path4730" />
      <path
         inkscape:connector-curvature="0"
         d="m 16.143625,292.10646 q -0.31116,0 -0.468735,0.30717 -0.15558,0.30518 -0.15558,0.91952 0,0.61235 0.15558,0.91952 0.157575,0.30517 0.468735,0.30517 0.313155,0 0.468735,-0.30517 0.157574,-0.30717 0.157574,-0.91952 0,-0.61434 -0.157574,-0.91952 -0.15558,-0.30717 -0.468735,-0.30717 z m 0,-0.31914 q 0.500648,0 0.763938,0.39693 0.265284,0.39494 0.265284,1.1489 0,0.75197 -0.265284,1.1489 -0.26329,0.39493 -0.763938,0.39493 -0.500649,0 -0.765933,-0.39493 -0.263289,-0.39693 -0.263289,-1.1489 0,-0.75396 0.263289,-1.1489 0.265284,-0.39693 0.765933,-0.39693 z"
         style="fill:#808080;fill-opacity:1;stroke-width:0.26458332"
         id="path4732" />
      <path
         inkscape:connector-curvature="0"
         d="m 19.253231,294.48005 h 0.658223 v -2.27186 l -0.716067,0.14361 v -0.36701 l 0.712078,-0.14361 h 0.402912 v 2.63887 H 20.9686 v 0.33909 h -1.715369 z"
         style="fill:#808080;fill-opacity:1;stroke-width:0.26458332"
         id="path4734" />
    </g>
    <path
       sodipodi:nodetypes="ccccsccsc"
       inkscape:connector-curvature="0"
       id="path1355-8-5"
       d="m 19.6204,266.16432 c 0.01558,0.0251 0.535103,0.86266 0.694022,1.33396 0.430632,0.96537 0.246583,3.78805 0.238753,5.3963 0.02643,-0.18501 4.472877,-1.33107 6.781097,0.7673 -0.01476,-0.026 -0.04661,-0.0767 -0.119315,-0.17763 -0.06899,-0.0958 -0.174269,-0.2376 -0.354401,-0.42173 -0.503604,-0.57647 -0.220211,-0.0806 -0.768038,-0.65035 -0.473643,-0.42957 -1.496669,-1.44994 -2.734915,-2.66823 -1.183593,-1.1645 -2.562254,-2.50753 -3.737203,-3.57962 z"
       style="opacity:0.24800002;fill:#000000;fill-opacity:1;stroke:none;stroke-width:0.28614345;stroke-miterlimit:4;stroke-dasharray:none;stroke-opacity:1" />
    <path
       style="opacity:1;fill:#ffffff;fill-opacity:1;stroke:#808080;stroke-width:0.30000001;stroke-miterlimit:4;stroke-dasharray:none;stroke-opacity:1"
       d="m 19.308473,265.66577 c 0.01477,0.0238 0.507402,0.81793 0.658094,1.26482 0.40834,0.91533 0.278676,3.0687 0.271251,4.59359 0.409088,-0.0213 4.920112,-0.70281 6.988373,1.73944 -0.02792,-0.0483 -0.09801,-0.0884 -0.1371,-0.16508 -0.477533,-0.54659 -1.086706,-0.98577 -1.643551,-1.50875 -0.449122,-0.40731 -1.419188,-1.37479 -2.593334,-2.52993 -1.122319,-1.10415 -2.429609,-2.37758 -3.543733,-3.39409 z"
       id="path4753-0-6"
       inkscape:connector-curvature="0"
       sodipodi:nodetypes="ccccccsc" />
    <g
       style="stroke:#666666;stroke-width:0.67826331;stroke-miterlimit:4;stroke-dasharray:none;stroke-opacity:1"
       transform="matrix(0.14697673,0,0,0.14789544,-60.75437,240.00402)"
       id="layer1-6"
       inkscape:label="Calque 1">
      <g
         style="stroke:#666666;stroke-width:0.67826331;stroke-miterlimit:4;stroke-dasharray:none;stroke-opacity:1"
         transform="translate(428.42338,184.2561)"
         id="g1894">
        <path
           id="path8615"
           d="M 99.75,67.46875 C 71.718268,67.468752 73.46875,79.625 73.46875,79.625 L 73.5,92.21875 h 26.75 V 96 H 62.875 c 0,0 -17.9375,-2.034276 -17.9375,26.25 -2e-6,28.28427 15.65625,27.28125 15.65625,27.28125 h 9.34375 v -13.125 c 0,0 -0.503652,-15.65625 15.40625,-15.65625 15.9099,0 26.53125,0 26.53125,0 0,0 14.90625,0.24096 14.90625,-14.40625 0,-14.647206 0,-24.21875 0,-24.21875 0,-2e-6 2.26318,-14.65625 -27.03125,-14.65625 z M 85,75.9375 c 2.661429,-2e-6 4.8125,2.151071 4.8125,4.8125 2e-6,2.661429 -2.151071,4.8125 -4.8125,4.8125 -2.661429,2e-6 -4.8125,-2.151071 -4.8125,-4.8125 -2e-6,-2.661429 2.151071,-4.8125 4.8125,-4.8125 z"
           style="color:#000000;display:inline;overflow:visible;visibility:visible;opacity:1;fill:url(#linearGradient9521);fill-opacity:1;fill-rule:nonzero;stroke:#666666;stroke-width:0.67826331;stroke-linecap:butt;stroke-linejoin:miter;stroke-miterlimit:4;stroke-dasharray:none;stroke-dashoffset:0;stroke-opacity:1;marker:none;marker-start:none;marker-mid:none;marker-end:none"
           inkscape:connector-curvature="0" />
        <path
           style="color:#000000;display:inline;overflow:visible;visibility:visible;opacity:1;fill:url(#linearGradient11307);fill-opacity:1;fill-rule:nonzero;stroke:#666666;stroke-width:0.67826331;stroke-linecap:butt;stroke-linejoin:miter;stroke-miterlimit:4;stroke-dasharray:none;stroke-dashoffset:0;stroke-opacity:1;marker:none;marker-start:none;marker-mid:none;marker-end:none"
           d="m 100.5461,177.31485 c 28.03174,0 26.28125,-12.15625 26.28125,-12.15625 l -0.0312,-12.59375 h -26.75 v -3.78125 h 37.375 c 0,0 17.9375,2.03427 17.9375,-26.25001 10e-6,-28.284267 -15.65625,-27.281247 -15.65625,-27.281247 h -9.34375 v 13.124997 c 0,0 0.50366,15.65625 -15.40625,15.65625 -15.909902,0 -26.531252,0 -26.531252,0 0,0 -14.90625,-0.24096 -14.90625,14.40626 0,14.6472 0,24.21875 0,24.21875 0,0 -2.26318,14.65625 27.031252,14.65625 z m 14.75,-8.46875 c -2.66143,0 -4.8125,-2.15107 -4.8125,-4.8125 0,-2.66143 2.15107,-4.8125 4.8125,-4.8125 2.66143,0 4.8125,2.15107 4.8125,4.8125 1e-5,2.66143 -2.15107,4.8125 -4.8125,4.8125 z"
           id="path8620"
           inkscape:connector-curvature="0" />
      </g>
    </g>
    <g
       style="stroke-width:4.08449793"
       inkscape:transform-center-y="-9.4924686"
       inkscape:transform-center-x="5.4653607"
       inkscape:label="Capa 1"
       id="layer1-4-9-3"
       transform="matrix(0.53590731,0,0,0.53715182,-152.76485,-13.387989)">
      <g
         style="stroke-width:4.08449793"
         id="layer1-3-65-0-9"
         inkscape:label="Capa 1"
         transform="translate(0.41988239,0.03484499)" />
    </g>
    <g
       style="stroke-width:4.08449793"
       inkscape:transform-center-y="-9.4924686"
       inkscape:transform-center-x="5.4653607"
       inkscape:label="Capa 1"
       id="layer1-4-0"
       transform="matrix(0.53590731,0,0,0.53715182,-152.76485,-13.362994)">
      <g
         style="stroke-width:4.08449793"
         id="layer1-3-65-5"
         inkscape:label="Capa 1"
         transform="translate(0.41988239,0.03484499)" />
    </g>
    <g
       style="stroke-width:4.08449793"
       inkscape:transform-center-y="-9.4924686"
       inkscape:transform-center-x="5.4653607"
       inkscape:label="Capa 1"
       id="layer1-4-3-27"
       transform="matrix(0.51115455,0,0,0.51234158,-181.17332,-0.14818195)">
      <g
         style="stroke-width:4.08449793"
         id="layer1-3-65-9-3"
         inkscape:label="Capa 1"
         transform="translate(0.41988239,0.03484499)" />
    </g>
    <g
       style="stroke-width:4.08449793"
       inkscape:transform-center-y="-9.4924686"
       inkscape:transform-center-x="5.4653607"
       inkscape:label="Capa 1"
       id="layer1-4-2"
       transform="matrix(0.51115455,0,0,0.51234158,-181.17332,-0.12433901)">
      <g
         style="stroke-width:4.08449793"
         id="layer1-3-65-91"
         inkscape:label="Capa 1"
         transform="translate(0.41988239,0.03484499)" />
    </g>
  </g>
</svg>
