<?xml version="1.0" encoding="UTF-8" standalone="no"?>
<!-- Created with Inkscape (http://www.inkscape.org/) -->

<svg
   xmlns:osb="http://www.openswatchbook.org/uri/2009/osb"
   xmlns:dc="http://purl.org/dc/elements/1.1/"
   xmlns:cc="http://creativecommons.org/ns#"
   xmlns:rdf="http://www.w3.org/1999/02/22-rdf-syntax-ns#"
   xmlns:svg="http://www.w3.org/2000/svg"
   xmlns="http://www.w3.org/2000/svg"
   xmlns:xlink="http://www.w3.org/1999/xlink"
   xmlns:sodipodi="http://sodipodi.sourceforge.net/DTD/sodipodi-0.dtd"
   xmlns:inkscape="http://www.inkscape.org/namespaces/inkscape"
   width="128"
   height="128"
   viewBox="0 0 33.866666 33.866668"
   version="1.1"
   id="svg8"
   inkscape:version="0.92.2 5c3e80d, 2017-08-06"
   sodipodi:docname="org 2.svg">
  <defs
     id="defs2">
    <linearGradient
       id="linearGradient1830">
      <stop
         id="stop1826"
         style="stop-color:#d9d9d9;stop-opacity:1"
         offset="0" />
      <stop
         id="stop1828"
         style="stop-color:#ffffff;stop-opacity:1;"
         offset="1" />
    </linearGradient>
    <linearGradient
       osb:paint="solid"
       id="linearGradient6987">
      <stop
         id="stop6985"
         offset="0"
         style="stop-color:#77d2fb;stop-opacity:1;" />
    </linearGradient>
    <linearGradient
       inkscape:collect="always"
       xlink:href="#linearGradient1830"
       id="linearGradient1503-8-3"
       x1="29.203474"
       y1="263.52237"
       x2="4.5843229"
       y2="296.16849"
       gradientUnits="userSpaceOnUse"
       gradientTransform="matrix(0.95481176,0,0,0.95480184,0.765188,12.661897)" />
  </defs>
  <sodipodi:namedview
     id="base"
     pagecolor="#ffffff"
     bordercolor="#666666"
     borderopacity="1.0"
     inkscape:pageopacity="0.0"
     inkscape:pageshadow="2"
     inkscape:zoom="4.0000002"
     inkscape:cx="65.561831"
     inkscape:cy="54.855086"
     inkscape:document-units="mm"
     inkscape:current-layer="layer1"
     showgrid="false"
     units="px"
     inkscape:window-width="1600"
     inkscape:window-height="792"
     inkscape:window-x="0"
     inkscape:window-y="0"
     inkscape:window-maximized="1"
     showguides="false"
     inkscape:snap-nodes="false" />
  <metadata
     id="metadata5">
    <rdf:RDF>
      <cc:Work
         rdf:about="">
        <dc:format>image/svg+xml</dc:format>
        <dc:type
           rdf:resource="http://purl.org/dc/dcmitype/StillImage" />
        <dc:title />
      </cc:Work>
    </rdf:RDF>
  </metadata>
  <g
     inkscape:label="Layer 1"
     inkscape:groupmode="layer"
     id="layer1"
     transform="translate(0,-263.13332)">
    <g
       style="stroke-width:4.08449793"
       inkscape:transform-center-y="-9.4924686"
       inkscape:transform-center-x="5.4653607"
       inkscape:label="Capa 1"
       id="layer1-4-3"
       transform="matrix(0.53602412,0,0,0.5372689,-234.93365,-13.785303)">
      <g
         style="stroke-width:4.08449793"
         id="layer1-3-65-9"
         inkscape:label="Capa 1"
         transform="translate(0.41988239,0.03484499)" />
    </g>
    <g
       style="stroke-width:4.08449793"
       inkscape:transform-center-y="-9.4924686"
       inkscape:transform-center-x="5.4653607"
       inkscape:label="Capa 1"
       id="layer1-4"
       transform="matrix(0.53602412,0,0,0.5372689,-234.93365,-13.7603)">
      <g
         style="stroke-width:4.08449793"
         id="layer1-3-65"
         inkscape:label="Capa 1"
         transform="translate(0.41988239,0.03484499)" />
    </g>
    <path
       style="opacity:0.25;fill:#000000;fill-opacity:1;stroke:none;stroke-width:1.7883966;stroke-miterlimit:4;stroke-dasharray:none;stroke-opacity:1"
       d="m 5.142353,264.8392 v 31.10591 h 23.581961 v -17.45475 c -0.04498,-0.7929 -0.09696,-1.50255 -0.298063,-2.22205 -0.204573,-0.73192 -0.526951,-1.42494 -0.912236,-2.08813 -0.492998,-0.84861 -1.326132,-1.39576 -2.066596,-2.09122 -0.449226,-0.40738 -1.419471,-1.3751 -2.593872,-2.5305 -1.164791,-1.14594 -2.530897,-2.47697 -3.671384,-3.51104 -0.336848,-0.30398 -0.826157,-0.61944 -1.28075,-0.80163 -0.352994,-0.14146 -0.768267,-0.22951 -1.169211,-0.28869 -0.413429,-0.061 -0.811623,-0.0914 -1.110603,-0.1179 z"
       id="path5023-4-5"
       inkscape:connector-curvature="0"
       sodipodi:nodetypes="ccccascscsscc" />
    <path
       sodipodi:nodetypes="ccccascscsscc"
       inkscape:connector-curvature="0"
       id="path4623-8-3"
       d="m 5.142353,264.33819 v 31.10591 h 23.581961 v -17.45475 c -0.04498,-0.7929 -0.09696,-1.50256 -0.298063,-2.22206 -0.204573,-0.73192 -0.526951,-1.42494 -0.912236,-2.08813 -0.492998,-0.8486 -1.326132,-1.39575 -2.066596,-2.09121 -0.449226,-0.40739 -1.419471,-1.37511 -2.593872,-2.53051 -1.164791,-1.14592 -2.530897,-2.47697 -3.671384,-3.51104 -0.336848,-0.30398 -0.826157,-0.61945 -1.28075,-0.80162 -0.352994,-0.14146 -0.768267,-0.22952 -1.169211,-0.28869 -0.413429,-0.0611 -0.811623,-0.0914 -1.110603,-0.1179 z"
       style="opacity:1;fill:url(#linearGradient1503-8-3);fill-opacity:1;stroke:#808080;stroke-width:0.30000001;stroke-miterlimit:4;stroke-dasharray:none;stroke-opacity:1" />
    <path
       sodipodi:nodetypes="ccccsccsc"
       inkscape:connector-curvature="0"
       id="path1355-8-5"
       d="m 19.620994,266.16126 c 0.01558,0.0251 0.535221,0.86284 0.694175,1.33425 0.430727,0.96558 0.246637,3.78888 0.238805,5.39748 0.02644,-0.18505 4.473865,-1.33136 6.782594,0.76747 -0.01476,-0.026 -0.04662,-0.0767 -0.119341,-0.17767 -0.06901,-0.0958 -0.174308,-0.23765 -0.354479,-0.42182 -0.503715,-0.5766 -0.22026,-0.0806 -0.768208,-0.6505 -0.473747,-0.42966 -1.496999,-1.45025 -2.735519,-2.66881 -1.183854,-1.16476 -2.562819,-2.50808 -3.738027,-3.5804 z"
       style="opacity:0.24800002;fill:#000000;fill-opacity:1;stroke:none;stroke-width:0.28614345;stroke-miterlimit:4;stroke-dasharray:none;stroke-opacity:1" />
    <path
       style="opacity:1;fill:#ffffff;fill-opacity:1;stroke:#808080;stroke-width:0.30000001;stroke-miterlimit:4;stroke-dasharray:none;stroke-opacity:1"
       d="m 19.308998,265.6626 c 0.01477,0.0238 0.507514,0.81811 0.658239,1.26509 0.40843,0.91553 0.278738,3.06938 0.271311,4.5946 0.409178,-0.0213 4.921198,-0.70296 6.989915,1.73982 -0.02793,-0.0483 -0.09803,-0.0884 -0.13713,-0.16512 -0.477638,-0.54671 -1.086946,-0.98598 -1.643914,-1.50908 -0.449221,-0.4074 -1.419501,-1.37509 -2.593906,-2.53048 -1.122567,-1.10439 -2.430145,-2.3781 -3.544515,-3.39483 z"
       id="path4753-0-6"
       inkscape:connector-curvature="0"
       sodipodi:nodetypes="ccccccsc" />
    <g
       style="stroke-width:4.08449793"
       inkscape:transform-center-y="-9.4924686"
       inkscape:transform-center-x="5.4653607"
       inkscape:label="Capa 1"
       id="layer1-4-3-2"
       transform="matrix(0.51126596,0,0,0.51245325,-269.32006,5.6156869)">
      <g
         style="stroke-width:4.08449793"
         id="layer1-3-65-9-9"
         inkscape:label="Capa 1"
         transform="translate(0.41988239,0.03484499)" />
    </g>
    <g
       style="stroke-width:4.08449793"
       inkscape:transform-center-y="-9.4924686"
       inkscape:transform-center-x="5.4653607"
       inkscape:label="Capa 1"
       id="layer1-4-1"
       transform="matrix(0.51126596,0,0,0.51245325,-269.32006,5.6395364)">
      <g
         style="stroke-width:4.08449793"
         id="layer1-3-65-2"
         inkscape:label="Capa 1"
         transform="translate(0.41988239,0.03484499)" />
    </g>
    <g
       aria-label="ASCII"
       style="font-style:normal;font-weight:normal;font-size:4.60694408px;line-height:1.25;font-family:sans-serif;letter-spacing:0px;word-spacing:0px;fill:#575757;fill-opacity:1;stroke:none;stroke-width:0.26458329"
       id="text1198">
      <path
         d="m 10.782546,293.70905 1.339453,-3.44165 h 0.716236 l 1.339453,3.44165 h -0.734839 l -0.358118,-0.91855 h -1.423169 l -0.358117,0.91855 z m 1.05575,-1.37666 h 1.069702 l -0.534851,-1.37201 z"
         style="font-style:normal;font-variant:normal;font-weight:600;font-stretch:normal;font-size:4.76249981px;font-family:'Lucida Grande';-inkscape-font-specification:'Lucida Grande Semi-Bold';fill:#575757;fill-opacity:1;stroke-width:0.26458329"
         id="path1172" />
      <path
         d="m 14.473018,293.67881 v -0.59066 q 0.55578,0.23255 0.951105,0.23255 0.276727,0 0.434857,-0.12325 0.160456,-0.12325 0.160456,-0.33486 0,-0.16744 -0.09999,-0.28138 -0.09999,-0.11627 -0.379047,-0.2744 l -0.230218,-0.1279 q -0.462763,-0.26045 -0.653449,-0.49765 -0.190686,-0.23952 -0.190686,-0.5581 0,-0.42556 0.311609,-0.68368 0.313934,-0.25813 0.827856,-0.25813 0.411603,0 0.927851,0.1186 v 0.55113 q -0.527875,-0.19766 -0.834833,-0.19766 -0.237195,0 -0.381372,0.10697 -0.141852,0.10464 -0.141852,0.27673 0,0.14185 0.09999,0.24882 0.09999,0.10697 0.376721,0.26277 l 0.246497,0.1372 q 0.497644,0.27906 0.686004,0.51393 0.188361,0.23486 0.188361,0.57205 0,0.47904 -0.355792,0.75112 -0.355792,0.27208 -0.981336,0.27208 -0.413928,0 -0.962732,-0.11628 z"
         style="font-style:normal;font-variant:normal;font-weight:600;font-stretch:normal;font-size:4.76249981px;font-family:'Lucida Grande';-inkscape-font-specification:'Lucida Grande Semi-Bold';fill:#575757;fill-opacity:1;stroke-width:0.26458329"
         id="path1174" />
      <path
         d="m 20.161043,293.57184 q -0.499969,0.22325 -1.19295,0.22325 -0.84646,0 -1.318524,-0.47672 -0.472064,-0.47671 -0.472064,-1.33015 0,-0.86971 0.474389,-1.33713 0.476715,-0.46974 1.358057,-0.46974 0.562756,0 1.118536,0.13255 v 0.56043 q -0.630194,-0.22091 -1.055749,-0.22091 -0.544153,0 -0.839484,0.34649 -0.295331,0.34416 -0.295331,0.97901 0,0.62322 0.31626,0.97203 0.318585,0.34882 0.883667,0.34882 0.506946,0 1.023193,-0.2558 z"
         style="font-style:normal;font-variant:normal;font-weight:600;font-stretch:normal;font-size:4.76249981px;font-family:'Lucida Grande';-inkscape-font-specification:'Lucida Grande Semi-Bold';fill:#575757;fill-opacity:1;stroke-width:0.26458329"
         id="path1176" />
      <path
         d="m 20.786587,293.70905 v -3.44165 h 0.716235 v 3.44165 z"
         style="font-style:normal;font-variant:normal;font-weight:600;font-stretch:normal;font-size:4.76249981px;font-family:'Lucida Grande';-inkscape-font-specification:'Lucida Grande Semi-Bold';fill:#575757;fill-opacity:1;stroke-width:0.26458329"
         id="path1178" />
      <path
         d="m 22.367885,293.70905 v -3.44165 h 0.716235 v 3.44165 z"
         style="font-style:normal;font-variant:normal;font-weight:600;font-stretch:normal;font-size:4.76249981px;font-family:'Lucida Grande';-inkscape-font-specification:'Lucida Grande Semi-Bold';fill:#575757;fill-opacity:1;stroke-width:0.26458329"
         id="path1180" />
    </g>
    <g
       style="stroke-width:4.08449793"
       inkscape:transform-center-y="-9.4924686"
       inkscape:transform-center-x="5.4653607"
       inkscape:label="Capa 1"
       id="layer1-4-2"
       transform="matrix(0.53602412,0,0,0.5372689,-270.0049,-11.985766)">
      <g
         style="stroke-width:4.08449793"
         id="layer1-3-65-3"
         inkscape:label="Capa 1"
         transform="translate(0.41988239,0.03484499)" />
    </g>
    <g
       id="g3"
       transform="matrix(0.14959733,0,0,0.15,10.94944,273.89114)"
       style="fill:#5e5e5e;fill-opacity:1;stroke-width:4.02394342">
      <path
         d="m 64,48 v 0 H 56 V 32 h 8 C 72.836,32 80,24.836 80,16 80,7.164 72.836,0 64,0 55.163,0 48,7.164 48,16 v 8 H 32 V 16 C 32,7.164 24.836,0 16,0 7.164,0 0,7.164 0,16 0,24.836 7.164,32 16,32 h 8 v 16 h -8 v 0 0 C 7.164,48 0,55.164 0,64 c 0,8.836 7.164,16 16,16 8.837,0 16,-7.164 16,-16 v 0 -8 h 16 v 7.98 c 0,0.008 -10e-4,0.014 -10e-4,0.02 0,8.836 7.164,16 16,16 8.836,0 16,-7.164 16,-16 C 79.999,55.164 72.836,48.002 64,48 Z M 64,8 c 4.418,0 8,3.582 8,8 0,4.418 -3.582,8 -8,8 h -8 v -8 c 0,-4.418 3.582,-8 8,-8 z M 8,16 c 0,-4.418 3.582,-8 8,-8 4.418,0 8,3.582 8,8 v 8 H 16 C 11.582,24 8,20.417 8,16 Z m 8,56 c -4.418,0 -8,-3.582 -8,-8 0,-4.418 3.582,-8 8,-8 v 0 h 8 v 8 c 0,4.418 -3.582,8 -8,8 z M 32,48 V 32 h 16 v 16 z m 32,24 c -4.418,0 -8,-3.582 -8,-8 v 0 -8 h 7.999 c 4.418,0 8,3.582 8,8 0,4.418 -3.581,8 -7.999,8 z"
         id="path5"
         inkscape:connector-curvature="0"
         style="fill:#5e5e5e;fill-opacity:1;stroke-width:4.02394342" />
    </g>
  </g>
</svg>
