<?xml version="1.0" encoding="UTF-8" standalone="no"?>
<!-- Created with Inkscape (http://www.inkscape.org/) -->

<svg
   xmlns:osb="http://www.openswatchbook.org/uri/2009/osb"
   xmlns:dc="http://purl.org/dc/elements/1.1/"
   xmlns:cc="http://creativecommons.org/ns#"
   xmlns:rdf="http://www.w3.org/1999/02/22-rdf-syntax-ns#"
   xmlns:svg="http://www.w3.org/2000/svg"
   xmlns="http://www.w3.org/2000/svg"
   xmlns:xlink="http://www.w3.org/1999/xlink"
   xmlns:sodipodi="http://sodipodi.sourceforge.net/DTD/sodipodi-0.dtd"
   xmlns:inkscape="http://www.inkscape.org/namespaces/inkscape"
   width="128"
   height="128"
   viewBox="0 0 33.866666 33.866668"
   version="1.1"
   id="svg1038"
   inkscape:version="0.92.2 5c3e80d, 2017-08-06"
   sodipodi:docname="text-x-perl.svg">
  <defs
     id="defs1032">
    <linearGradient
       osb:paint="solid"
       id="linearGradient6987">
      <stop
         id="stop6985"
         offset="0"
         style="stop-color:#77d2fb;stop-opacity:1;" />
    </linearGradient>
    <linearGradient
       id="linearGradient1830">
      <stop
         offset="0"
         style="stop-color:#d9d9d9;stop-opacity:1"
         id="stop1826" />
      <stop
         offset="1"
         style="stop-color:#ffffff;stop-opacity:1;"
         id="stop1828" />
    </linearGradient>
    <linearGradient
       gradientTransform="matrix(0.95481176,0,0,0.95480184,37.480748,12.6619)"
       gradientUnits="userSpaceOnUse"
       y2="296.16849"
       x2="4.5843229"
       y1="263.52237"
       x1="29.203474"
       id="linearGradient1503-8-3"
       xlink:href="#linearGradient1830"
       inkscape:collect="always" />
  </defs>
  <sodipodi:namedview
     id="base"
     pagecolor="#ffffff"
     bordercolor="#666666"
     borderopacity="1.0"
     inkscape:pageopacity="0.0"
     inkscape:pageshadow="2"
     inkscape:zoom="2.8176632"
     inkscape:cx="117.32344"
     inkscape:cy="55.816737"
     inkscape:document-units="mm"
     inkscape:current-layer="layer1"
     showgrid="false"
     inkscape:window-width="1600"
     inkscape:window-height="792"
     inkscape:window-x="0"
     inkscape:window-y="0"
     inkscape:window-maximized="1"
     units="px" />
  <metadata
     id="metadata1035">
    <rdf:RDF>
      <cc:Work
         rdf:about="">
        <dc:format>image/svg+xml</dc:format>
        <dc:type
           rdf:resource="http://purl.org/dc/dcmitype/StillImage" />
        <dc:title />
      </cc:Work>
    </rdf:RDF>
  </metadata>
  <g
     inkscape:label="Layer 1"
     inkscape:groupmode="layer"
     id="layer1"
     transform="translate(0,-263.13332)">
    <g
       id="g1767"
       transform="translate(-36.71556,3.3363136e-6)">
      <g
         transform="matrix(0.53602412,0,0,0.5372689,-234.93365,-13.785303)"
         id="layer1-4-9"
         inkscape:label="Capa 1"
         inkscape:transform-center-x="5.4653607"
         inkscape:transform-center-y="-9.4924686"
         style="stroke-width:4.08449793">
        <g
           transform="translate(0.41988239,0.03484499)"
           inkscape:label="Capa 1"
           id="layer1-3-65-0"
           style="stroke-width:4.08449793" />
      </g>
      <g
         transform="matrix(0.53602412,0,0,0.5372689,-234.93365,-13.760303)"
         id="layer1-4"
         inkscape:label="Capa 1"
         inkscape:transform-center-x="5.4653607"
         inkscape:transform-center-y="-9.4924686"
         style="stroke-width:4.08449793">
        <g
           transform="translate(0.41988239,0.03484499)"
           inkscape:label="Capa 1"
           id="layer1-3-65"
           style="stroke-width:4.08449793" />
      </g>
      <g
         transform="matrix(0.53602412,0,0,0.5372689,-198.21809,-13.7853)"
         id="layer1-4-3"
         inkscape:label="Capa 1"
         inkscape:transform-center-x="5.4653607"
         inkscape:transform-center-y="-9.4924686"
         style="stroke-width:4.08449793">
        <g
           transform="translate(0.41988239,0.03484499)"
           inkscape:label="Capa 1"
           id="layer1-3-65-9"
           style="stroke-width:4.08449793" />
      </g>
      <g
         transform="matrix(0.53602412,0,0,0.5372689,-198.21809,-13.760297)"
         id="layer1-4-2"
         inkscape:label="Capa 1"
         inkscape:transform-center-x="5.4653607"
         inkscape:transform-center-y="-9.4924686"
         style="stroke-width:4.08449793">
        <g
           transform="translate(0.41988239,0.03484499)"
           inkscape:label="Capa 1"
           id="layer1-3-65-4"
           style="stroke-width:4.08449793" />
      </g>
      <path
         sodipodi:nodetypes="ccccascscsscc"
         inkscape:connector-curvature="0"
         id="path5023-4-5"
         d="m 41.857913,264.8392 v 31.10591 h 23.581961 v -17.45475 c -0.04498,-0.7929 -0.09696,-1.50255 -0.298063,-2.22205 -0.204573,-0.73192 -0.526951,-1.42494 -0.912236,-2.08813 -0.492998,-0.84861 -1.326132,-1.39576 -2.066596,-2.09122 -0.449226,-0.40738 -1.419471,-1.3751 -2.593872,-2.5305 -1.164791,-1.14594 -2.530897,-2.47697 -3.671384,-3.51104 -0.336848,-0.30398 -0.826157,-0.61944 -1.28075,-0.80163 -0.352994,-0.14146 -0.768267,-0.22951 -1.169211,-0.28869 -0.413429,-0.061 -0.811623,-0.0914 -1.110603,-0.1179 z"
         style="opacity:0.25;fill:#000000;fill-opacity:1;stroke:none;stroke-width:1.7883966;stroke-miterlimit:4;stroke-dasharray:none;stroke-opacity:1" />
      <path
         style="opacity:1;fill:url(#linearGradient1503-8-3);fill-opacity:1;stroke:#808080;stroke-width:0.30000001;stroke-miterlimit:4;stroke-dasharray:none;stroke-opacity:1"
         d="m 41.857913,264.33819 v 31.10591 h 23.581961 v -17.45475 c -0.04498,-0.7929 -0.09696,-1.50256 -0.298063,-2.22206 -0.204573,-0.73192 -0.526951,-1.42494 -0.912236,-2.08813 -0.492998,-0.8486 -1.326132,-1.39575 -2.066596,-2.09121 -0.449226,-0.40739 -1.419471,-1.37511 -2.593872,-2.53051 -1.164791,-1.14592 -2.530897,-2.47697 -3.671384,-3.51104 -0.336848,-0.30398 -0.826157,-0.61945 -1.28075,-0.80162 -0.352994,-0.14146 -0.768267,-0.22952 -1.169211,-0.28869 -0.413429,-0.0611 -0.811623,-0.0914 -1.110603,-0.1179 z"
         id="path4623-8-3"
         inkscape:connector-curvature="0"
         sodipodi:nodetypes="ccccascscsscc" />
      <path
         id="path2154"
         d="m 56.622134,288.40917 c -0.63472,-0.0839 0.111867,-0.72146 0.322571,-0.84895 0.405805,-0.24257 0.736175,-0.51933 0.991106,-0.97646 0.403205,-0.7339 0.582986,-1.70728 0.754673,-2.55001 0.114462,-0.57218 0.226028,-0.90493 -0.07833,-1.39007 -0.301753,-0.48199 0.213308,-0.88004 -0.106659,-1.39005 -0.535875,-0.85519 -0.762193,-1.98712 -1.292864,-2.83298 -0.150876,-0.23946 -0.09625,-0.46335 -0.312156,-0.48823 -0.104053,-0.0125 -0.371992,0.23634 -0.463039,0.30786 -0.262733,0.21145 -0.582699,0.31097 -0.840229,0.51621 -0.130069,0.10266 -0.377193,0.0279 -0.483849,0.12751 -0.309558,0.2892 -0.236722,1.18793 -0.205504,1.64816 0.04683,0.65617 0.48645,0.86142 0.48645,1.49269 0,0.76189 -0.114766,1.28122 0.08554,2.06177 0.114449,0.44781 0.403353,0.95781 0.450177,1.41494 0.03902,0.36073 -0.01819,0.35139 -0.106658,0.69347 -0.104053,0.40738 -0.150718,0.77121 -0.47328,0.95469 -0.184698,0.10267 -1.031743,0.14615 -1.135794,-0.10265 -0.205508,-0.48824 0.577495,-0.65616 0.710161,-0.95469 0.286143,-0.64062 -0.305138,-2.30122 -0.562669,-2.85786 -0.14307,-0.30164 -0.395614,-0.54423 -0.497062,-0.84896 -0.137874,-0.41051 0.140471,-0.69037 0.09625,-1.00446 -0.08585,-0.61262 -0.30175,-1.26257 -0.463034,-1.85342 -0.377193,-1.37138 -0.90006,0.71215 -1.118574,1.23768 -0.08845,0.20526 -0.150875,0.43226 -0.23672,0.64373 -0.104054,0.24879 0.124861,0.46335 0.06244,0.77122 -0.05723,0.2892 -0.338172,0.45091 -0.494254,0.6686 -0.23672,0.33275 -0.400602,0.75255 -0.528068,1.15993 -0.265337,0.84896 -0.358985,2.32921 -0.850636,3.01024 -0.07023,0.0995 -0.267938,0.0437 -0.343377,0.1306 -0.171687,0.19903 0.04421,0.41984 -0.29135,0.55355 -0.257529,0.10266 -0.907862,0.21456 -1.152388,0.0373 -0.468239,-0.33898 0.117053,-0.75569 0.40841,-1.10709 0.411009,-0.48823 0.887051,-0.93602 1.207015,-1.51755 0.42142,-0.76502 0.509862,-1.6264 0.593104,-2.50957 0.03902,-0.42604 -0.345977,-0.63751 -0.01301,-1.14751 0.106658,-0.16171 0.431824,-0.13993 0.431824,-0.30786 0,-0.53177 0.01301,-1.06665 0,-1.59531 -0.01559,-0.64371 -0.01301,-1.70413 -0.528073,-2.1115 -0.684151,-0.54733 -1.552996,-0.69037 -2.205932,-1.27501 -0.650333,-0.58463 -1.246036,-1.11329 -1.638838,-2.04622 -0.202903,-0.48823 -0.309558,-0.96713 -0.473441,-1.46778 -0.119659,-0.37007 -0.08584,-0.24569 -0.278338,-0.46336 -0.114461,-0.12751 -0.283544,-0.21769 -0.41101,-0.36075 -0.33037,-0.37937 -0.3902,-0.75255 -0.946884,-0.59396 -0.221113,0.0652 -0.585299,0.55978 -0.710163,0.25811 -0.08063,-0.19281 -0.03121,-0.37006 0.01047,-0.56597 0.06244,-0.29232 -0.234121,-0.38873 -0.226315,-0.6686 0.01301,-0.482 0.663338,-0.9889 1.001511,-1.06974 0.426619,-0.10267 0.894858,0.11823 1.347489,0.0125 0.364188,-0.084 0.681549,-0.32032 1.032728,-0.42294 0.366788,-0.1119 0.697156,-0.14927 1.011919,0.11508 0.143073,0.12128 0.197701,0.33896 0.322565,0.46335 0.106657,0.10264 0.200304,0.0747 0.322565,0.18037 0.36939,0.31719 0.398003,0.78675 -0.236722,0.64371 0.26794,1.32166 1.566001,4.8761 3.014946,3.03823 0.676345,-0.85828 1.298062,-1.80986 1.93799,-2.70238 0.564487,-0.78677 0.892257,-1.67305 1.852148,-1.52066 0.946883,0.14928 1.594616,0.9267 2.32819,1.57042 0.598309,0.52866 1.303267,0.64372 1.937992,1.0822 0.673745,0.46334 1.274652,1.24389 1.506172,2.13639 0.335572,1.29056 0.143072,2.53445 0.733575,3.75969 0.356383,0.74324 0.863641,1.26255 1.313673,1.87828 0.241923,0.33276 0.403205,0.78989 0.322567,1.23458 -0.05463,0.30787 -0.236725,0.36385 -0.236725,0.72147 0,0.62506 0.04669,1.2439 0.02328,1.86898 -0.0208,0.55661 -0.05723,1.10083 -0.122257,1.65125 -0.05723,0.4758 -0.223593,0.60952 -0.353655,0.96092 -0.192504,0.51933 -0.161287,0.74635 -0.624322,0.95159 -0.262734,0.11507 -0.710163,0.34828 -0.99111,0.33585 -0.403206,-0.0217 -0.460433,-0.41983 -0.150872,-0.84895 0.200299,-0.27989 0.551613,-0.37006 0.77533,-0.67172 0.652934,-0.87384 0.933863,-3.50157 0.387583,-4.42829 -0.226315,-0.3856 -0.494374,-0.38872 -0.515183,-0.97645 -0.02081,-0.52555 0.117418,-0.70904 -0.280578,-1.18484 -1.264246,-0.77119 -1.355658,-1.32162 -1.766672,-1.0573 -0.499456,0.32341 -0.106659,2.14262 0,2.65261 0.1925,0.91429 0.949486,1.34342 0.452632,2.26701 -0.35638,0.65928 -0.522867,1.34032 -0.764791,2.11153 -0.21851,0.69348 -0.200303,1.68549 -0.548881,2.2639 -0.06763,0.1119 -0.174291,0.17413 -0.236721,0.28298 -0.04683,0.0808 -0.117054,0.3141 -0.150877,0.36073 -0.145674,0.20214 -0.176891,0.25501 -0.411009,0.36074 -0.416214,0.1897 -0.926078,0.12751 -1.376106,0.12751"
         style="fill:#4d4d4d;fill-opacity:1;fill-rule:evenodd;stroke:none;stroke-width:0.30000004;stroke-miterlimit:4;stroke-dasharray:none"
         inkscape:connector-curvature="0" />
      <path
         style="opacity:0.24800002;fill:#000000;fill-opacity:1;stroke:none;stroke-width:0.28614345;stroke-miterlimit:4;stroke-dasharray:none;stroke-opacity:1"
         d="m 56.336554,266.16126 c 0.01558,0.0251 0.535221,0.86284 0.694175,1.33425 0.430727,0.96558 0.246637,3.78888 0.238805,5.39748 0.02644,-0.18505 4.473865,-1.33136 6.782594,0.76747 -0.01476,-0.026 -0.04662,-0.0767 -0.119341,-0.17767 -0.06901,-0.0958 -0.174308,-0.23765 -0.354479,-0.42182 -0.503715,-0.5766 -0.22026,-0.0806 -0.768208,-0.6505 -0.473747,-0.42966 -1.496999,-1.45025 -2.735519,-2.66881 -1.183854,-1.16476 -2.562819,-2.50808 -3.738027,-3.5804 z"
         id="path1355-8-5"
         inkscape:connector-curvature="0"
         sodipodi:nodetypes="ccccsccsc" />
      <path
         sodipodi:nodetypes="ccccccsc"
         inkscape:connector-curvature="0"
         id="path4753-0-6"
         d="m 56.024558,265.6626 c 0.01477,0.0238 0.507514,0.81811 0.658239,1.26509 0.40843,0.91553 0.278738,3.06938 0.271311,4.5946 0.409178,-0.0213 4.921198,-0.70296 6.989915,1.73982 -0.02793,-0.0483 -0.09803,-0.0884 -0.13713,-0.16512 -0.477638,-0.54671 -1.086946,-0.98598 -1.643914,-1.50908 -0.449221,-0.4074 -1.419501,-1.37509 -2.593906,-2.53048 -1.122567,-1.10439 -2.430145,-2.3781 -3.544515,-3.39483 z"
         style="opacity:1;fill:#ffffff;fill-opacity:1;stroke:#808080;stroke-width:0.30000001;stroke-miterlimit:4;stroke-dasharray:none;stroke-opacity:1" />
      <g
         transform="matrix(0.51126596,0,0,0.51245325,-232.6045,5.6156902)"
         id="layer1-4-3-2"
         inkscape:label="Capa 1"
         inkscape:transform-center-x="5.4653607"
         inkscape:transform-center-y="-9.4924686"
         style="stroke-width:4.08449793">
        <g
           transform="translate(0.41988239,0.03484499)"
           inkscape:label="Capa 1"
           id="layer1-3-65-9-9"
           style="stroke-width:4.08449793" />
      </g>
      <g
         transform="matrix(0.51126596,0,0,0.51245325,-232.6045,5.6395397)"
         id="layer1-4-1"
         inkscape:label="Capa 1"
         inkscape:transform-center-x="5.4653607"
         inkscape:transform-center-y="-9.4924686"
         style="stroke-width:4.08449793">
        <g
           transform="translate(0.41988239,0.03484499)"
           inkscape:label="Capa 1"
           id="layer1-3-65-2"
           style="stroke-width:4.08449793" />
      </g>
      <g
         id="text1198"
         style="font-style:normal;font-weight:normal;font-size:4.60694408px;line-height:1.25;font-family:sans-serif;letter-spacing:0px;word-spacing:0px;fill:#575757;fill-opacity:1;stroke:none;stroke-width:0.26458329"
         aria-label="PERL">
        <path
           id="path1736"
           style="font-style:normal;font-variant:normal;font-weight:600;font-stretch:normal;font-size:4.76249981px;font-family:'Lucida Grande';-inkscape-font-specification:'Lucida Grande Semi-Bold';fill:#575757;fill-opacity:1;stroke-width:0.26458329"
           d="m 47.980637,293.70905 v -3.44165 h 1.199926 q 0.627869,0 0.895294,0.21161 0.269751,0.20929 0.269751,0.70228 0,0.55811 -0.360443,0.86972 -0.358117,0.30928 -1.004589,0.30928 h -0.297657 v 1.34876 z m 0.702282,-1.82082 h 0.139527 q 0.367419,0 0.579034,-0.16976 0.21394,-0.17208 0.21394,-0.46509 0,-0.51392 -0.653448,-0.51392 h -0.279053 z"
           inkscape:connector-curvature="0" />
        <path
           id="path1738"
           style="font-style:normal;font-variant:normal;font-weight:600;font-stretch:normal;font-size:4.76249981px;font-family:'Lucida Grande';-inkscape-font-specification:'Lucida Grande Semi-Bold';fill:#575757;fill-opacity:1;stroke-width:0.26458329"
           d="m 50.901388,293.70905 v -3.44165 h 2.151032 v 0.47206 h -1.434796 v 0.96041 h 1.176672 v 0.46043 h -1.176672 v 1.0604 h 1.544091 v 0.48835 z"
           inkscape:connector-curvature="0" />
        <path
           id="path1740"
           style="font-style:normal;font-variant:normal;font-weight:600;font-stretch:normal;font-size:4.76249981px;font-family:'Lucida Grande';-inkscape-font-specification:'Lucida Grande Semi-Bold';fill:#575757;fill-opacity:1;stroke-width:0.26458329"
           d="m 53.76633,293.70905 v -3.44165 h 1.288293 q 1.048773,0 1.048773,0.85343 0,0.31859 -0.179059,0.58136 -0.176733,0.26045 -0.488342,0.39998 l 1.125513,1.60688 h -0.87204 l -0.853436,-1.4069 h -0.395325 v 1.4069 z m 0.674377,-1.87896 h 0.165106 q 0.779023,0 0.779023,-0.63019 0,-0.46044 -0.695307,-0.46044 h -0.248822 z"
           inkscape:connector-curvature="0" />
        <path
           id="path1742"
           style="font-style:normal;font-variant:normal;font-weight:600;font-stretch:normal;font-size:4.76249981px;font-family:'Lucida Grande';-inkscape-font-specification:'Lucida Grande Semi-Bold';fill:#575757;fill-opacity:1;stroke-width:0.26458329"
           d="m 57.04985,293.70905 v -3.44165 h 0.716236 v 2.9533 h 1.551068 v 0.48835 z"
           inkscape:connector-curvature="0" />
      </g>
    </g>
  </g>
</svg>
