<?xml version="1.0" encoding="UTF-8" standalone="no"?>
<!-- Created with Inkscape (http://www.inkscape.org/) -->

<svg
   xmlns:osb="http://www.openswatchbook.org/uri/2009/osb"
   xmlns:dc="http://purl.org/dc/elements/1.1/"
   xmlns:cc="http://creativecommons.org/ns#"
   xmlns:rdf="http://www.w3.org/1999/02/22-rdf-syntax-ns#"
   xmlns:svg="http://www.w3.org/2000/svg"
   xmlns="http://www.w3.org/2000/svg"
   xmlns:xlink="http://www.w3.org/1999/xlink"
   xmlns:sodipodi="http://sodipodi.sourceforge.net/DTD/sodipodi-0.dtd"
   xmlns:inkscape="http://www.inkscape.org/namespaces/inkscape"
   width="128"
   height="128"
   viewBox="0 0 33.866666 33.866668"
   version="1.1"
   id="svg8"
   inkscape:version="0.92.2 5c3e80d, 2017-08-06"
   sodipodi:docname="application-rtf.svg.2019_02_16_22_56_42.0.svg">
  <defs
     id="defs2">
    <linearGradient
       id="linearGradient1830">
      <stop
         id="stop1826"
         style="stop-color:#d9d9d9;stop-opacity:1"
         offset="0" />
      <stop
         id="stop1828"
         style="stop-color:#ffffff;stop-opacity:1;"
         offset="1" />
    </linearGradient>
    <linearGradient
       osb:paint="solid"
       id="linearGradient6987">
      <stop
         id="stop6985"
         offset="0"
         style="stop-color:#77d2fb;stop-opacity:1;" />
    </linearGradient>
    <linearGradient
       inkscape:collect="always"
       xlink:href="#linearGradient1830"
       id="linearGradient1503-8-3"
       x1="29.203474"
       y1="263.52237"
       x2="4.5843229"
       y2="296.16849"
       gradientUnits="userSpaceOnUse"
       gradientTransform="matrix(0.95481176,0,0,0.95480184,0.765188,12.661897)" />
    <inkscape:perspective
       id="perspective3273"
       inkscape:persp3d-origin="16.071892 : 11.264022 : 1"
       inkscape:vp_z="34.446742 : 17.38897 : 1"
       inkscape:vp_y="0 : 765.61876 : 0"
       inkscape:vp_x="-2.3029582 : 17.38897 : 1"
       sodipodi:type="inkscape:persp3d" />
  </defs>
  <sodipodi:namedview
     id="base"
     pagecolor="#ffffff"
     bordercolor="#666666"
     borderopacity="1.0"
     inkscape:pageopacity="0.0"
     inkscape:pageshadow="2"
     inkscape:zoom="1.9746305"
     inkscape:cx="28.004879"
     inkscape:cy="54.073175"
     inkscape:document-units="mm"
     inkscape:current-layer="layer1"
     showgrid="false"
     units="px"
     inkscape:window-width="1600"
     inkscape:window-height="798"
     inkscape:window-x="0"
     inkscape:window-y="0"
     inkscape:window-maximized="1"
     showguides="false"
     inkscape:snap-nodes="false" />
  <metadata
     id="metadata5">
    <rdf:RDF>
      <cc:Work
         rdf:about="">
        <dc:format>image/svg+xml</dc:format>
        <dc:type
           rdf:resource="http://purl.org/dc/dcmitype/StillImage" />
        <dc:title />
      </cc:Work>
    </rdf:RDF>
  </metadata>
  <g
     inkscape:label="Layer 1"
     inkscape:groupmode="layer"
     id="layer1"
     transform="translate(0,-263.13332)">
    <path
       inkscape:connector-curvature="0"
       id="path1187"
       d="m 18.747263,291.84287 c 0,-0.3439 0.0047,-0.37008 0.06664,-0.37008 0.109552,0 0.116823,-0.0638 0.02247,-0.19724 -0.06616,-0.0935 -0.08911,-0.16826 -0.08911,-0.29002 0,-0.18691 0.06155,-0.38577 0.137329,-0.44366 0.04493,-0.0343 0.03928,-0.0629 -0.04422,-0.22457 -0.06812,-0.13182 -0.08915,-0.21086 -0.07294,-0.27411 0.02123,-0.0829 0.03231,-0.0874 0.164386,-0.0677 0.163211,0.0244 0.364793,0.11713 0.364793,0.16784 0,0.0191 -0.01538,0.0872 -0.03417,0.15138 -0.0288,0.0984 -0.02378,0.12694 0.03189,0.18149 0.05754,0.0564 0.07916,0.0594 0.16759,0.0236 0.05584,-0.0227 0.145787,-0.0832 0.199871,-0.13454 0.05409,-0.0513 0.132992,-0.11126 0.175354,-0.13315 0.0524,-0.0271 0.08408,-0.0831 0.09911,-0.17518 0.01215,-0.0745 0.05786,-0.18373 0.101584,-0.24285 0.13602,-0.18394 0.304364,-0.43947 0.358972,-0.54488 0.0705,-0.1361 0.190139,-0.1518 0.245722,-0.0322 0.03632,0.0781 0.0332,0.0963 -0.02339,0.13688 -0.03591,0.0258 -0.08384,0.0468 -0.106504,0.0468 -0.05558,0 -0.08745,0.13799 -0.06136,0.26578 0.02385,0.11684 -0.03325,0.21167 -0.110051,0.18279 -0.08429,-0.0317 -0.217329,0.0199 -0.275499,0.10694 -0.06632,0.0992 -0.03997,0.31924 0.03823,0.31924 0.07712,0 0.0251,0.0816 -0.09597,0.15065 -0.136097,0.0775 -0.160814,0.11158 -0.161485,0.22228 -3.88e-4,0.0538 -0.03984,0.12129 -0.103527,0.1769 -0.05665,0.0495 -0.103,0.10604 -0.103,0.12572 0,0.0196 -0.02209,0.0574 -0.04907,0.0838 -0.04254,0.0417 -0.03758,0.0683 0.03726,0.19947 0.04749,0.0832 0.06957,0.15137 0.04907,0.15137 -0.04431,0 -0.04789,0.0661 -0.0071,0.12927 0.0216,0.0334 0.04605,0.0361 0.0939,0.0102 0.165237,-0.0893 0.425193,-0.20203 0.425193,-0.18448 0,0.0108 -0.162229,0.17076 -0.360508,0.35561 -0.198277,0.18484 -0.360505,0.34852 -0.360505,0.36373 0,0.0152 0.03112,0.0374 0.06917,0.0492 0.159355,0.0496 0.0036,0.0839 -0.380197,0.0839 H 18.74721 Z m 0.495386,-0.62481 c 0.06858,-0.0672 0.06851,-0.112 -1.94e-4,-0.13784 -0.07179,-0.027 -0.160248,0.0628 -0.13226,0.13426 0.02757,0.0704 0.06328,0.0713 0.132471,0.004 z m 0.843633,0.97154 c -0.0472,-0.008 -0.132185,-0.0341 -0.188836,-0.0586 -0.05665,-0.0244 -0.126177,-0.0514 -0.154503,-0.0599 -0.02832,-0.009 0.01029,-0.0268 0.08584,-0.0406 0.183512,-0.0337 0.502628,-0.22709 0.630125,-0.38192 0.07995,-0.0971 0.112489,-0.1163 0.144612,-0.0854 0.03235,0.0312 0.02986,0.0754 -0.01139,0.20187 -0.02907,0.0891 -0.06342,0.22631 -0.07636,0.30495 l -0.02352,0.143 -0.160067,-0.005 c -0.08803,-0.003 -0.198694,-0.011 -0.245904,-0.0188 z m 0.01242,-0.12804 c 0.01203,-0.0307 6.8e-5,-0.0504 -0.03066,-0.0504 -0.02773,0 -0.05042,0.0227 -0.05042,0.0504 0,0.0278 0.0138,0.0505 0.03066,0.0505 0.01685,0 0.03955,-0.0227 0.05043,-0.0505 z m 0.854342,0.10935 c 0.02174,-0.0648 0.163257,-0.074 0.163257,-0.0108 0,0.0343 -0.031,0.0528 -0.0887,0.0528 -0.0556,0 -0.08342,-0.0156 -0.07456,-0.0421 z m 0.545968,0.0122 c -0.03332,-0.0207 -0.03703,-0.0467 -0.01314,-0.092 0.01831,-0.0347 0.03431,-0.11141 0.03552,-0.17039 0.0011,-0.059 0.0187,-0.13747 0.03889,-0.17443 0.02018,-0.0369 0.03669,-0.10479 0.03669,-0.15075 0,-0.105 0.03236,-0.19001 0.07234,-0.19001 0.03913,0 0.03987,0.15498 0.0011,0.22932 -0.01625,0.0312 -0.03872,0.11722 -0.04991,0.19123 l -0.02036,0.13458 0.08511,-0.10093 c 0.0468,-0.0555 0.09818,-0.11607 0.114173,-0.13458 0.03615,-0.0419 0.307615,-0.26045 0.364563,-0.29359 0.0231,-0.0135 0.0617,-0.0711 0.08579,-0.12803 0.05459,-0.12916 0.02231,-0.1666 -0.188999,-0.21917 -0.136127,-0.0338 -0.160602,-0.0311 -0.211386,0.0239 -0.03159,0.0342 -0.06206,0.0577 -0.0677,0.0522 -0.0056,-0.006 0.01279,-0.10695 0.04099,-0.22537 0.02819,-0.11841 0.04403,-0.23375 0.03519,-0.25633 -0.0108,-0.0275 -0.0862,-0.0381 -0.230151,-0.0321 -0.170909,0.007 -0.226133,0.0234 -0.273834,0.0812 -0.08517,0.10307 -0.17526,0.0961 -0.152396,-0.0118 0.0098,-0.0463 0.02584,-0.12196 0.03564,-0.16823 0.0098,-0.0463 0.03979,-0.0841 0.06664,-0.0841 0.02685,0 0.05993,-0.0176 0.07352,-0.0392 0.02796,-0.0443 -0.134783,-0.19636 -0.210187,-0.19636 -0.0266,0 -0.0659,-0.032 -0.0873,-0.0712 -0.0401,-0.0734 -0.0278,-0.11476 0.144649,-0.48607 0.03494,-0.0752 0.06353,-0.14715 0.06353,-0.15982 0,-0.0427 -0.09426,-0.0235 -0.138024,0.0282 -0.07594,0.0896 -0.07895,0.0235 -0.0032,-0.0709 0.09195,-0.11456 0.09288,-0.25478 0.0022,-0.33521 -0.06856,-0.0608 -0.07347,-0.0608 -0.18904,1.9e-4 -0.133033,0.0702 -0.188201,0.0482 -0.125525,-0.0502 0.06572,-0.10311 0.05178,-0.14005 -0.116979,-0.31014 -0.236134,-0.238 -0.267081,-0.22043 -0.298078,0.16932 -0.01687,0.21224 -0.12029,0.34375 -0.270321,0.34375 -0.108314,0 -0.123146,-0.0494 -0.04687,-0.15612 0.04557,-0.0638 0.04268,-0.077 -0.03179,-0.14559 -0.04507,-0.0415 -0.09678,-0.0665 -0.114924,-0.0555 -0.01814,0.011 -0.05208,-0.003 -0.07541,-0.0301 -0.02334,-0.0276 -0.07144,-0.0501 -0.106892,-0.0501 -0.117953,0 -0.0783,-0.15138 0.07287,-0.27817 0.07554,-0.0633 0.137336,-0.13781 0.137336,-0.16545 0,-0.0589 -0.139417,-0.12833 -0.257927,-0.12833 -0.09014,0 -0.339121,-0.14238 -0.475924,-0.27214 -0.04704,-0.0446 -0.175405,-0.11265 -0.285263,-0.15118 -0.209344,-0.0734 -0.274407,-0.1597 -0.145366,-0.19277 0.05666,-0.0145 0.07016,-0.0368 0.05551,-0.0917 -0.02317,-0.0868 0.0052,-0.174 0.04821,-0.14797 0.01689,0.0102 0.03073,0.0529 0.03073,0.0949 0,0.0994 0.113803,0.20142 0.326599,0.29289 0.09418,0.0405 0.225317,0.11453 0.291411,0.16457 0.06609,0.0501 0.217103,0.14106 0.33558,0.20231 0.208081,0.10755 0.220347,0.10978 0.360505,0.0653 0.0798,-0.0254 0.16121,-0.0667 0.180906,-0.0918 0.02734,-0.0349 0.05012,-9.6e-4 0.09626,0.14214 0.05083,0.158 0.08885,0.20863 0.23886,0.31806 0.09813,0.0716 0.297151,0.24556 0.442276,0.38663 0.211224,0.20533 0.284456,0.2565 0.367063,0.2565 0.05676,0 0.113578,0.0165 0.126265,0.0366 0.01269,0.0201 0.0546,0.0285 0.09313,0.0186 0.04728,-0.0121 0.112492,0.0176 0.200533,0.0915 0.07176,0.0602 0.173676,0.13101 0.226484,0.15739 0.05281,0.0264 0.154835,0.0959 0.226729,0.15439 0.07189,0.0586 0.17232,0.11416 0.22317,0.12363 0.05085,0.01 0.129823,0.0286 0.175497,0.0426 0.07221,0.022 0.07964,0.017 0.05701,-0.0389 -0.01433,-0.0354 -0.03473,-0.18541 -0.04535,-0.33344 -0.01063,-0.14803 -0.04152,-0.30265 -0.06868,-0.34358 -0.03933,-0.0593 -0.04155,-0.0976 -0.01092,-0.1886 0.02708,-0.0804 0.02793,-0.14133 0.0029,-0.20597 -0.01959,-0.0505 -0.02596,-0.10709 -0.01416,-0.12581 0.01179,-0.0187 -0.0091,-0.0745 -0.04642,-0.12399 -0.03734,-0.0495 -0.07844,-0.12256 -0.09134,-0.1624 -0.01291,-0.0399 -0.08675,-0.12846 -0.164096,-0.19694 -0.131922,-0.11679 -0.151003,-0.1233 -0.307905,-0.1051 -0.159334,0.0185 -0.16552,0.0162 -0.13041,-0.0481 0.02027,-0.0371 0.03202,-0.0978 0.02612,-0.13482 -0.0096,-0.0603 -0.01769,-0.0624 -0.07663,-0.0198 -0.04719,0.034 -0.06901,0.0976 -0.07687,0.2239 -0.01166,0.18717 -0.07024,0.43866 -0.102185,0.43866 -0.04945,0 -0.240722,-0.12806 -0.326659,-0.21869 -0.121517,-0.12817 -0.20806,-0.39774 -0.16408,-0.51109 0.01752,-0.0451 0.03184,-0.1202 0.03184,-0.1668 0,-0.10701 0.06982,-0.0895 0.130624,0.0327 0.02463,0.0495 0.0594,0.09 0.07725,0.09 0.05286,0 0.169795,-0.13013 0.169795,-0.18897 0,-0.0382 0.02086,-0.049 0.07045,-0.0363 0.05679,0.0146 0.08474,-0.0108 0.144176,-0.13065 0.04055,-0.0818 0.08491,-0.14872 0.09856,-0.14872 0.04913,0 0.102257,0.23384 0.07979,0.35118 -0.02059,0.10755 -0.01528,0.11985 0.0518,0.11985 0.04111,0 0.106891,0.0169 0.14618,0.0375 0.06192,0.0325 0.069,0.0291 0.05313,-0.0253 -0.01007,-0.0345 -0.02943,-0.0892 -0.04303,-0.12157 -0.01687,-0.0401 -0.0089,-0.0588 0.02512,-0.0588 0.02742,0 0.07756,-0.03 0.111413,-0.0667 0.05012,-0.0543 0.05359,-0.0761 0.01865,-0.11731 -0.02533,-0.0299 -0.03377,-0.0863 -0.02061,-0.13772 0.01227,-0.0479 0.0057,-0.13513 -0.01452,-0.19389 -0.04994,-0.14494 0.02795,-0.6398 0.102932,-0.65395 0.0283,-0.006 0.101669,0.0352 0.163041,0.0902 0.09616,0.0861 0.111621,0.12222 0.111843,0.26158 5.84e-4,0.42258 0.103736,0.7138 0.271261,0.76653 0.03006,0.01 0.08555,0.0628 0.123319,0.11853 0.08252,0.12177 0.172046,0.1561 0.248575,0.0953 0.03105,-0.0247 0.04889,-0.0297 0.03965,-0.0112 -0.0092,0.0185 -0.03838,0.076 -0.06475,0.12775 -0.03959,0.0777 -0.04045,0.11878 -0.005,0.2355 0.08433,0.27715 0.08434,0.27709 -0.0098,0.31912 -0.141237,0.063 -0.115718,0.13795 0.106885,0.31368 0.04874,0.0384 0.07466,0.1125 0.0901,0.25732 0.02331,0.21852 0.12732,0.44384 0.268721,0.58216 0.04837,0.0473 0.09468,0.10582 0.102906,0.13001 0.01134,0.0334 0.04373,0.0268 0.133823,-0.027 0.128279,-0.0766 0.273752,-0.071 0.451912,0.0174 0.132863,0.0659 0.155349,0.0598 0.28249,-0.0762 0.112069,-0.11987 0.117319,-0.12159 0.281505,-0.0917 l 0.167306,0.0304 0.0028,0.18429 c 0.0015,0.10136 0.0054,0.20078 0.0086,0.22094 0.007,0.0447 0.156771,0.11475 0.245291,0.11475 0.162247,0 0.224137,0.20052 0.103839,0.33644 -0.0865,0.0977 -0.08637,0.1421 5.83e-4,0.21924 0.06622,0.0587 0.06888,0.0958 0.06008,0.83791 l -0.0093,0.77647 -0.437218,0.01 c -0.4034,0.009 -0.441833,0.004 -0.496888,-0.0588 -0.07521,-0.0861 -0.170327,-0.0864 -0.301914,-9.5e-4 -0.133254,0.0865 -0.624886,0.0991 -0.657092,0.0168 -0.02213,-0.0565 -0.239776,-0.0713 -0.258476,-0.0175 -0.0063,0.0181 -0.145663,0.0429 -0.309709,0.0553 l -0.298264,0.0224 0.0029,-0.0979 c 0.0029,-0.0983 -0.08128,-0.29394 -0.142313,-0.3309 -0.03694,-0.0224 -0.20818,0.24583 -0.20818,0.32607 0,0.0288 -0.02444,0.0615 -0.05431,0.0728 -0.0836,0.0315 -1.021117,0.0232 -1.073671,-0.01 z m 2.054993,-0.17199 c 0.03777,-0.037 0.06867,-0.0909 0.06867,-0.11974 0,-0.0312 0.01614,-0.0427 0.03973,-0.0284 0.0443,0.0268 0.322013,0.0228 0.415192,-0.006 0.03305,-0.0102 0.06008,-0.0461 0.06008,-0.0797 0,-0.0851 -0.256974,-0.30444 -0.356601,-0.30444 -0.117612,0 -0.136635,-0.11129 -0.03501,-0.20484 l 0.08139,-0.075 0.0737,0.0918 c 0.08952,0.11153 0.142955,0.0743 0.111888,-0.0779 -0.01911,-0.0936 -0.03475,-0.10796 -0.103797,-0.095 -0.06873,0.0129 -0.100203,-0.0152 -0.203694,-0.18222 -0.126281,-0.2037 -0.223872,-0.28312 -0.308726,-0.25121 -0.02685,0.0101 -0.04882,0.0577 -0.04882,0.10575 0,0.11447 -0.05802,0.21752 -0.122456,0.21752 -0.07104,0 -0.100164,-0.0913 -0.04858,-0.15214 0.06205,-0.0732 0.01982,-0.31002 -0.07248,-0.4063 -0.04775,-0.0498 -0.116228,-0.0808 -0.178489,-0.0808 -0.0888,0 -0.09819,-0.01 -0.07765,-0.0757 0.04735,-0.15338 0.03675,-0.17049 -0.152697,-0.24634 -0.184401,-0.0738 -0.189099,-0.0741 -0.19998,-0.0101 -0.0061,0.036 -0.04089,0.0837 -0.07725,0.10599 -0.03636,0.0222 -0.06611,0.0589 -0.06611,0.0814 0,0.0423 0.231188,0.29312 0.291837,0.31653 0.01888,0.008 0.07784,0.0928 0.13101,0.19008 0.100238,0.18335 0.0978,0.19184 -0.06234,0.21685 -0.0419,0.007 -0.07317,0.0419 -0.08023,0.0905 -0.01012,0.0699 -9.54e-4,0.0771 0.07395,0.0587 0.07251,-0.0178 0.09096,-0.006 0.121355,0.0797 0.03939,0.11071 0.09244,0.12282 0.267038,0.0609 0.162322,-0.0575 0.279313,9.5e-4 0.293663,0.14716 0.0081,0.0822 0.03529,0.12227 0.10531,0.15499 0.05915,0.0276 0.09442,0.0708 0.09442,0.11544 v 0.0713 l -0.07946,-0.0731 c -0.0895,-0.0824 -0.235987,-0.0962 -0.294035,-0.0277 -0.0241,0.0284 -0.03029,0.10473 -0.01651,0.2033 0.03319,0.23731 0.210165,0.33111 0.355672,0.18853 z m 1.581999,-0.13199 c 0.1605,-0.15728 0.114903,-0.35044 -0.10366,-0.43916 -0.133253,-0.0541 -0.207987,-0.0249 -0.207987,0.0812 0,0.0609 -0.01419,0.0788 -0.0515,0.0647 -0.03604,-0.0135 -0.05149,0.003 -0.05149,0.0538 0,0.0402 -0.01534,0.1012 -0.0341,0.13555 -0.02742,0.0503 -0.01567,0.0759 0.06008,0.13129 0.135766,0.0993 0.269025,0.0899 0.388666,-0.0274 z M 24.446686,291.456 c 0,-0.0278 -0.02317,-0.0505 -0.0515,-0.0505 -0.02832,0 -0.0515,0.0227 -0.0515,0.0505 0,0.0277 0.02317,0.0504 0.0515,0.0504 0.02832,0 0.0515,-0.0227 0.0515,-0.0504 z m 1.133016,-0.15361 c 0,-0.19396 -0.155068,-0.35026 -0.261572,-0.26364 -0.122461,0.0996 -0.125194,0.16324 -0.01149,0.26733 0.05976,0.0547 0.14564,0.0994 0.190853,0.0994 0.06883,0 0.0822,-0.0168 0.0822,-0.10314 z m -0.658539,-0.39574 c 0.0082,-0.0544 -0.0068,-0.0731 -0.05805,-0.0731 -0.09036,0 -0.124182,0.0574 -0.07088,0.12035 0.05576,0.0658 0.115232,0.044 0.128941,-0.0473 z m -2.864354,-0.0926 c 0.03753,-0.0958 0.01971,-0.13319 -0.03175,-0.0666 -0.02772,0.0359 -0.05041,0.0775 -0.05041,0.0925 0,0.0482 0.06064,0.029 0.08216,-0.026 z m 2.752361,-0.10243 c -0.01806,-0.0705 -0.01205,-0.0844 0.0297,-0.0687 0.02879,0.0108 0.06434,-9.6e-4 0.07902,-0.0271 0.01468,-0.0256 0.09461,-0.0516 0.177663,-0.0575 0.224439,-0.016 0.251518,-0.0843 0.124664,-0.31431 -0.05609,-0.10172 -0.136147,-0.22643 -0.177911,-0.27713 -0.06736,-0.0818 -0.08166,-0.0865 -0.1266,-0.0418 -0.02897,0.0289 -0.05751,0.13952 -0.06665,0.25839 -0.01339,0.17423 -0.03175,0.22225 -0.113284,0.29629 -0.07079,0.0643 -0.119663,0.0829 -0.179389,0.0682 -0.05841,-0.0144 -0.0776,-0.008 -0.06655,0.0234 0.0086,0.0239 0.05496,0.0394 0.103134,0.0343 0.06879,-0.008 0.09745,0.0127 0.133531,0.0925 0.05647,0.12501 0.113624,0.13424 0.08267,0.0134 z m 0.511072,-0.0105 c 0.0754,-0.0816 0.04214,-0.15114 -0.04937,-0.10315 -0.03538,0.0186 -0.104879,0.0337 -0.154444,0.0337 -0.102327,0 -0.08639,0.0555 0.02904,0.10116 0.104376,0.0413 0.107948,0.0406 0.174782,-0.0317 z m -1.870354,-0.20603 c -0.0196,-0.0358 -0.05826,-0.0652 -0.08593,-0.0652 -0.06528,0 -0.0636,0.0308 0.0058,0.10591 0.0703,0.0761 0.127941,0.0469 0.08013,-0.0406 z m -1.552484,-0.0256 c 0.05083,-0.0317 0.248734,-0.34757 0.312999,-0.49968 0.02483,-0.0587 0.03603,-0.13502 0.02489,-0.16943 -0.03208,-0.099 -0.500976,-0.38089 -0.500976,-0.30114 0,0.007 -0.04617,0.16142 -0.102611,0.34486 -0.134218,0.43624 -0.133303,0.50167 0.0082,0.58621 0.119398,0.0713 0.188849,0.0819 0.25751,0.0392 z m 1.656602,-0.31967 c 0,-0.0245 -0.03863,-0.0802 -0.08583,-0.12361 -0.04721,-0.0435 -0.08584,-0.10432 -0.08584,-0.13523 0,-0.0309 -0.03163,-0.0843 -0.07029,-0.11856 -0.04379,-0.0388 -0.06644,-0.0947 -0.06008,-0.14819 0.0089,-0.0749 0.03006,-0.088 0.164404,-0.1027 0.181118,-0.0197 0.203361,-0.0688 0.103471,-0.22822 -0.120836,-0.19284 -0.265674,-0.18667 -0.422996,0.018 -0.07965,0.10364 -0.09271,0.14651 -0.07422,0.24369 0.01234,0.0648 0.05182,0.14487 0.08774,0.1778 0.05386,0.0494 0.0581,0.0711 0.02425,0.12428 -0.04992,0.0783 0.02574,0.1748 0.21337,0.27206 0.143992,0.0747 0.206038,0.0809 0.206038,0.0207 z m -0.14521,-1.49671 c 0.01921,-0.0565 -0.09159,-0.0905 -0.140065,-0.043 -0.03088,0.0302 -0.02832,0.0469 0.01088,0.0712 0.06088,0.0377 0.110449,0.0269 0.129175,-0.0281 z m -2.944837,-0.32793 c 0,-0.0289 -0.01571,-0.0429 -0.03489,-0.0313 -0.01919,0.0116 -0.026,0.0352 -0.01515,0.0525 0.02943,0.0466 0.05004,0.0379 0.05004,-0.0212 z m 0.401807,3.42388 c -0.183485,-0.18413 -0.170282,-0.22264 0.06807,-0.19853 0.218318,0.022 0.388466,-0.0445 0.388466,-0.15216 0,-0.033 0.01454,-0.0601 0.03231,-0.0601 0.124725,0 0.03544,0.27497 -0.128158,0.39467 -0.07003,0.0512 -0.132469,0.10453 -0.138763,0.1184 -0.02473,0.0546 -0.100383,0.0196 -0.221926,-0.10235 z m -0.334291,-1.08502 c -0.02769,-0.0172 -0.107376,-0.0315 -0.177074,-0.0317 -0.148749,-5.7e-4 -0.201993,-0.0591 -0.112295,-0.12338 0.118705,-0.0851 0.427856,-0.045 0.427856,0.0554 0,0.0833 -0.07628,0.13828 -0.138487,0.0997 z m -1.082385,-0.52175 c 0.07381,-0.0541 0.136624,-0.0652 0.107582,-0.0193 -0.01026,0.0163 -0.05366,0.0382 -0.09644,0.0488 -0.07504,0.0185 -0.07544,0.0174 -0.01113,-0.0296 z m 1.083537,-0.0952 c 0,-0.0285 0.03055,-0.0798 0.06788,-0.11387 0.08338,-0.0761 0.35879,-0.23038 0.337729,-0.18917 -0.0084,0.0164 -0.0353,0.0797 -0.05983,0.1407 -0.02453,0.0609 -0.06214,0.10451 -0.0836,0.0967 -0.02146,-0.008 -0.08922,0.0154 -0.150599,0.0517 -0.09441,0.0557 -0.111585,0.0579 -0.111585,0.0139 z m -1.738568,-0.3628 c -0.01629,-0.0247 -0.0349,-0.25 -0.04134,-0.50057 l -0.01171,-0.45559 0.144505,-0.1416 c 0.165185,-0.16187 0.30845,-0.19257 0.30757,-0.0659 -7.78e-4,0.0971 -0.02761,0.13124 -0.153733,0.19461 -0.134812,0.0677 -0.147039,0.15198 -0.0366,0.25228 0.07004,0.0636 0.08465,0.10067 0.06694,0.16981 -0.01246,0.0486 -0.0026,0.17063 0.02205,0.27107 0.04571,0.1867 0.028,0.24782 -0.07803,0.26924 -0.02379,0.005 -0.07629,0.0184 -0.116642,0.0302 -0.04473,0.0131 -0.08494,0.004 -0.103002,-0.0236 z m 6.892943,-0.29214 c -0.0051,-0.13164 -0.09774,-0.30048 -0.178868,-0.32571 -0.182991,-0.0569 -0.245292,-0.36417 -0.108415,-0.53468 0.04234,-0.0527 0.07699,-0.12986 0.07699,-0.17136 0,-0.12273 0.215098,-0.23032 0.255285,-0.12769 0.02883,0.0736 0.01855,0.94575 -0.01319,1.12061 -0.0249,0.13711 -0.02789,0.14078 -0.03179,0.0388 z m -1.732059,-0.58016 c -0.09816,-0.14692 -0.116528,-0.24727 -0.05237,-0.28613 0.02176,-0.0132 0.114285,-0.0297 0.205606,-0.0368 0.1639,-0.0127 0.165626,-0.0117 0.134025,0.0697 -0.01762,0.0454 -0.02992,0.11026 -0.02738,0.14416 0.0049,0.0643 -0.10141,0.24668 -0.143666,0.24668 -0.01336,0 -0.06566,-0.0619 -0.116221,-0.1376 z m 0.881095,-0.48092 c -0.08738,-0.0844 -0.113269,-0.14299 -0.133045,-0.30092 -0.01351,-0.10785 -0.02373,-0.23654 -0.02271,-0.28597 9.53e-4,-0.0495 -0.03093,-0.16971 -0.071,-0.26725 -0.06876,-0.1674 -0.06955,-0.18058 -0.01407,-0.23494 0.07485,-0.0733 0.163328,-0.0258 0.199648,0.10727 0.01405,0.0515 0.0484,0.11843 0.07635,0.14883 0.02795,0.0304 0.06176,0.0983 0.07515,0.15083 0.01339,0.0525 0.08412,0.16326 0.157177,0.24597 0.07306,0.0827 0.132831,0.18388 0.132831,0.2248 0,0.0848 -0.190301,0.32754 -0.25142,0.32073 -0.02223,-0.003 -0.08923,-0.0517 -0.148907,-0.10935 z m -5.53943,0.0354 c 0,-0.0587 0.08595,-0.19069 0.117502,-0.18038 0.06194,0.0202 0.04146,0.0963 -0.04026,0.14946 -0.04249,0.0277 -0.07725,0.0416 -0.07725,0.0309 z m 4.677986,-0.39364 c -0.04249,-0.0168 -0.07725,-0.0506 -0.07725,-0.0753 0,-0.0431 0.126696,-0.17082 0.309004,-0.31152 l 0.08583,-0.0663 -0.06418,0.0744 c -0.06321,0.0732 -0.06405,0.15037 -0.0037,0.33777 0.02149,0.0667 0.01269,0.0754 -0.07404,0.0736 -0.05414,-9.6e-4 -0.133186,-0.0158 -0.175674,-0.0326 z m -4.069746,-0.10018 c -0.05128,-0.0395 -0.09324,-0.0856 -0.09324,-0.10251 0,-0.0169 0.07503,-0.0679 0.166728,-0.11343 0.121398,-0.0603 0.177009,-0.0728 0.204549,-0.0458 0.07785,0.0763 0.14373,-0.0368 0.14373,-0.24682 0,-0.17532 -0.0078,-0.19775 -0.06866,-0.19775 -0.03777,0 -0.06867,-0.0221 -0.06867,-0.0493 0,-0.0271 0.0309,-0.0655 0.06867,-0.0852 0.05812,-0.0305 0.06866,-0.0705 0.06866,-0.26025 0,-0.16027 0.01055,-0.21389 0.037,-0.18797 0.04374,0.0428 0.106445,0.26621 0.103638,0.36916 -0.0011,0.0398 0.02038,0.0808 0.04771,0.0911 0.03944,0.0149 0.04536,0.064 0.0287,0.23886 -0.02204,0.23121 -0.02584,0.22488 0.140417,0.23357 0.116929,0.006 0.09758,0.0833 -0.0609,0.24315 -0.150052,0.15129 -0.162995,0.15695 -0.390155,0.17079 -0.201358,0.0123 -0.248285,0.004 -0.328189,-0.0576 z m 5.749826,-0.62316 c 0.006,-0.0468 0.02632,-0.0852 0.04519,-0.0852 0.01888,0 0.03923,0.0383 0.0452,0.0852 0.0077,0.0607 -0.0052,0.0851 -0.0452,0.0851 -0.03995,0 -0.05294,-0.0245 -0.04519,-0.0851 z m -0.67214,-0.23722 c -0.03296,-0.0842 -0.02476,-0.11501 0.03066,-0.11501 0.03205,0 0.0515,0.0318 0.0515,0.0841 0,0.0939 -0.05008,0.1128 -0.08216,0.0309 z m -3.591561,-0.0141 c 0,-0.0185 0.02795,-0.0337 0.0621,-0.0337 0.03415,0 0.09209,-0.0222 0.128753,-0.0494 0.03665,-0.0272 0.112998,-0.0492 0.169648,-0.049 0.100164,3.8e-4 0.09933,0.002 -0.03005,0.0469 -0.07318,0.0256 -0.149658,0.0628 -0.169953,0.0827 -0.04651,0.0456 -0.160504,0.0474 -0.160504,0.003 z m -2.529362,-0.0988 c -0.03035,-0.0788 -0.02841,-0.10239 0.0096,-0.11669 0.02622,-0.01 0.04789,5.7e-4 0.04816,0.0231 1.94e-4,0.0225 0.0098,0.075 0.02117,0.1167 0.03043,0.11127 -0.03453,0.0923 -0.07897,-0.0231 z m 6.783683,-0.1263 c -0.06887,-0.17466 -0.07563,-0.29683 -0.01896,-0.34293 0.08746,-0.0711 0.12503,-0.0116 0.12503,0.19791 0,0.22106 -0.04944,0.28865 -0.10608,0.14502 z m -1.662116,-0.0694 c -0.05665,-0.0291 -0.126177,-0.0633 -0.154502,-0.0762 -0.05912,-0.0269 -0.08385,-0.11394 -0.054,-0.19017 0.01627,-0.0416 0.03069,-0.044 0.07017,-0.0119 0.03105,0.0253 0.0906,0.0316 0.15876,0.017 0.104269,-0.0224 0.108083,-0.0197 0.08658,0.0643 -0.01646,0.0644 -0.0092,0.0878 0.02718,0.0878 0.07134,0 0.191981,-0.16292 0.191981,-0.25928 0,-0.0661 0.01532,-0.08 0.07909,-0.0718 0.04519,0.006 0.154103,-0.037 0.254126,-0.0999 0.195312,-0.12282 0.490797,-0.41595 0.490797,-0.4869 0,-0.0613 -0.157979,-0.20462 -0.198472,-0.18009 -0.01754,0.0106 -0.06642,-0.0167 -0.108635,-0.0607 l -0.07676,-0.0801 0.130058,-0.0605 c 0.07153,-0.0333 0.177858,-0.0565 0.236284,-0.0515 0.07203,0.006 0.126823,-0.0134 0.170195,-0.0603 0.03518,-0.038 0.09633,-0.0693 0.135896,-0.0695 0.03956,-1.1e-4 0.116027,-0.0227 0.169923,-0.0503 0.0539,-0.0276 0.111796,-0.0417 0.128668,-0.0315 0.03166,0.0192 0.0361,0.29729 0.0073,0.4605 -0.01394,0.079 -0.0328,0.0925 -0.12999,0.0925 -0.148879,0 -0.412843,0.1784 -0.551529,0.37274 -0.05996,0.084 -0.216774,0.22195 -0.360377,0.31697 -0.139825,0.0925 -0.289225,0.22121 -0.332004,0.28597 -0.150218,0.22745 -0.182035,0.23971 -0.370802,0.14289 z m 1.452426,-1.18878 c 0.07925,-0.0571 0.144098,-0.11599 0.144098,-0.13085 0,-0.0149 -0.02803,-0.0609 -0.06229,-0.10239 l -0.0623,-0.0753 -0.143711,0.0889 c -0.155282,0.0961 -0.160585,0.10748 -0.110228,0.23727 0.04256,0.10969 0.05964,0.10842 0.234423,-0.0176 z m -2.345104,1.09963 c -0.157458,-0.0681 -0.230525,-0.16471 -0.203722,-0.26936 0.01254,-0.0489 0.04834,-0.10236 0.07956,-0.11873 0.03123,-0.0164 0.123785,-0.10765 0.205679,-0.20282 0.14188,-0.16488 0.14614,-0.17602 0.09042,-0.23637 -0.05552,-0.0601 -0.0533,-0.0698 0.0439,-0.19161 0.06685,-0.0838 0.123157,-0.21587 0.162248,-0.38062 0.03293,-0.13879 0.07131,-0.26473 0.0853,-0.27988 0.01399,-0.0152 0.08051,-0.005 0.147836,0.0226 0.140042,0.0573 0.23031,0.20105 0.229253,0.36497 -0.0011,0.17246 -0.134576,0.7139 -0.21742,0.88202 -0.02811,0.057 -0.07616,0.17406 -0.106783,0.26 -0.05836,0.16384 -0.110899,0.19689 -0.310257,0.19523 -0.05665,-3.8e-4 -0.149353,-0.0209 -0.206002,-0.0454 z m -2.502433,-1.23723 c -0.02695,-0.13202 -0.0049,-0.16228 0.118255,-0.16228 0.114041,0 0.124809,0.034 0.04741,0.14975 -0.0832,0.12444 -0.141922,0.12888 -0.165669,0.0125 z m -0.22711,-0.0562 c 0,-0.1221 0.125221,-0.24648 0.173241,-0.17209 0.03978,0.0616 0.04129,0.0996 0.0039,0.0996 -0.01584,0 -0.04642,0.0379 -0.06793,0.0841 -0.05238,0.11265 -0.109248,0.1066 -0.109248,-0.0116 z m -0.706563,0.006 c -0.0405,-0.12737 -0.07719,-0.16197 -0.173058,-0.16322 -0.05439,-7.7e-4 -0.142387,-0.0197 -0.195546,-0.0421 -0.14377,-0.0606 -0.249483,-0.0496 -0.304632,0.0318 -0.03841,0.0566 -0.06935,0.0676 -0.141522,0.0499 l -0.09237,-0.0227 v -1.24145 c 0,-0.6828 0.0093,-1.26529 0.02074,-1.29443 0.02381,-0.0608 0.166465,-0.0413 0.256628,0.0352 0.02981,0.0253 0.08466,0.046 0.121886,0.046 0.03722,0 0.08613,0.0181 0.108691,0.0401 0.03179,0.0312 0.05742,0.0229 0.114038,-0.0366 0.06255,-0.0658 0.09089,-0.0728 0.197609,-0.0486 0.06852,0.0156 0.236596,0.0269 0.373503,0.0253 0.271626,-0.003 0.296241,0.0187 0.193471,0.1724 -0.06765,0.10117 -0.092,0.10248 -0.217321,0.0117 l -0.09832,-0.0712 -0.200712,0.0893 c -0.110391,0.0491 -0.247062,0.13469 -0.303713,0.19019 -0.05665,0.0555 -0.162566,0.15137 -0.235367,0.21305 -0.137718,0.11668 -0.138473,0.12616 -0.02303,0.28918 0.03051,0.0431 0.04508,0.0386 0.09976,-0.0305 0.08329,-0.10529 0.153339,-0.0772 0.244478,0.0978 0.08359,0.16056 0.150909,0.19671 0.233033,0.12514 0.04241,-0.037 0.132552,-0.0506 0.323362,-0.0491 0.296664,0.003 0.346183,0.0397 0.214168,0.16124 -0.09697,0.0893 -0.324222,0.51332 -0.324222,0.60499 0,0.0347 -0.03477,0.11637 -0.07725,0.18145 -0.246458,0.37753 -0.263094,0.42613 -0.120231,0.3512 0.08943,-0.0469 0.202765,0.0464 0.135928,0.1119 -0.02279,0.0223 -0.04145,0.0746 -0.04145,0.116 0,0.0963 -0.06307,0.13642 -0.08856,0.0563 z m 1.445181,-0.14442 c -0.02536,-0.0402 0.04064,-0.16892 0.0866,-0.16892 0.01822,0 0.03313,0.0454 0.03313,0.10094 0,0.0994 -0.07357,0.14117 -0.119728,0.068 z m 0.943742,-0.23209 c 0,-0.0693 0.09161,-0.16107 0.126574,-0.12681 0.02977,0.0292 -0.04768,0.18998 -0.0915,0.18998 -0.01928,0 -0.03507,-0.0284 -0.03507,-0.0631 z m 0.301914,-0.22415 c -0.04089,-0.0401 -0.400173,-0.15986 -0.597324,-0.19917 -0.245543,-0.0489 -0.288265,-0.0703 -0.288265,-0.14416 0,-0.0301 -0.02924,-0.086 -0.06496,-0.12418 -0.03573,-0.0382 -0.07498,-0.11601 -0.08724,-0.17291 -0.0199,-0.0924 -0.0043,-0.11991 0.145918,-0.25762 0.09251,-0.0848 0.228333,-0.18565 0.301831,-0.22413 0.0735,-0.0384 0.196962,-0.11664 0.27437,-0.17368 0.120604,-0.0889 0.176159,-0.10555 0.388246,-0.11649 0.318702,-0.0164 0.496633,0.0549 0.463041,0.18566 -0.03891,0.15148 -0.03276,0.18522 0.03278,0.17982 0.04959,-0.004 0.05998,0.0127 0.04752,0.0765 -0.0239,0.12251 0.02598,0.1268 0.157579,0.0135 0.130134,-0.11196 0.194942,-0.12877 0.194942,-0.0505 0,0.0377 0.0225,0.0456 0.08583,0.03 0.06491,-0.0159 0.08583,-0.008 0.08583,0.033 0,0.0353 0.02986,0.0542 0.08583,0.0542 0.0515,0 0.08584,0.0193 0.08584,0.0481 0,0.0514 0.04974,0.10787 0.19133,0.217 l 0.0887,0.0684 -0.114265,0.1115 c -0.06285,0.0613 -0.172729,0.15503 -0.244185,0.20823 -0.111048,0.0827 -0.135984,0.0897 -0.171669,0.0482 -0.108447,-0.12617 -0.149584,-0.13502 -0.283946,-0.061 -0.07677,0.0422 -0.1599,0.0633 -0.205516,0.0522 -0.04623,-0.0113 -0.09344,9.5e-4 -0.11907,0.0313 -0.02336,0.0276 -0.06959,0.0502 -0.102726,0.0502 -0.03314,0 -0.07873,0.0218 -0.101309,0.0484 -0.02257,0.0267 -0.06153,0.0407 -0.08657,0.0314 -0.02503,-0.01 -0.05572,-9.5e-4 -0.06819,0.0188 -0.02459,0.039 -0.06495,0.0466 -0.09437,0.0178 z m 2.868742,-0.0411 c -0.06717,-0.0108 -0.0994,-0.0608 -0.162417,-0.25261 -0.01076,-0.0328 -0.06629,-0.0688 -0.123385,-0.0799 -0.130071,-0.0255 -0.130953,-0.0711 -0.0036,-0.1889 0.08843,-0.0818 0.111551,-0.0883 0.197419,-0.0561 0.05349,0.0201 0.216998,0.0355 0.363344,0.0341 l 0.266088,-0.003 v 0.18277 c 0,0.10053 -0.01244,0.19031 -0.02764,0.19952 -0.0152,0.01 -0.0866,0.004 -0.158668,-0.0122 -0.172075,-0.038 -0.236163,-0.0124 -0.211324,0.0846 0.02126,0.083 -0.02044,0.11014 -0.139761,0.0911 z m -4.029002,-0.14258 c 0,-0.0185 0.01545,-0.0337 0.03434,-0.0337 0.01888,0 0.03434,0.0152 0.03434,0.0337 0,0.0185 -0.01545,0.0337 -0.03434,0.0337 -0.01888,0 -0.03434,-0.0152 -0.03434,-0.0337 z m -0.714604,-0.32803 c -0.01994,-0.0509 -0.0374,-0.2742 -0.03878,-0.49626 -0.0013,-0.22205 -0.0057,-0.42644 -0.0096,-0.4542 -0.0039,-0.0277 0.0058,-0.1678 0.02148,-0.31121 0.0199,-0.18201 0.04245,-0.26074 0.07466,-0.26074 0.03546,0 0.04569,0.0725 0.04418,0.313 -0.0013,0.22178 0.01487,0.3517 0.05579,0.44579 0.07698,0.17701 0.08632,0.33634 0.03046,0.5197 -0.02537,0.0832 -0.05441,0.19303 -0.06453,0.24392 -0.01012,0.0509 -0.0317,0.0925 -0.04793,0.0925 -0.01623,0 -0.04583,-0.0417 -0.06577,-0.0925 z m 4.147987,-0.18987 c -0.178374,-0.0553 -0.422499,-0.20778 -0.502448,-0.3139 -0.13528,-0.17957 -0.160494,-0.32031 -0.09941,-0.5549 0.06492,-0.24929 0.152741,-0.42405 0.307802,-0.61247 0.06212,-0.0755 0.12309,-0.17889 0.135487,-0.22977 0.01728,-0.0709 0.04293,-0.0925 0.110033,-0.0925 0.07249,0 0.08368,0.0118 0.06522,0.0687 -0.02726,0.0842 0.04704,0.40053 0.110126,0.4689 0.03739,0.0405 0.05858,0.0421 0.113608,0.009 0.14232,-0.0871 0.164401,-0.033 0.08614,0.21094 -0.01188,0.037 0.01059,0.0105 0.04991,-0.0588 0.03933,-0.0694 0.08568,-0.12617 0.102992,-0.12617 0.06194,0 0.07187,0.0668 0.02358,0.15882 -0.02701,0.0514 -0.06542,0.19949 -0.08538,0.32902 -0.01996,0.12954 -0.06488,0.34011 -0.09982,0.46796 -0.07558,0.27652 -0.138711,0.3313 -0.317846,0.2758 z m 0.363822,-0.0825 c -0.01188,-0.0189 -0.0049,-0.0443 0.01558,-0.0567 0.05279,-0.0319 0.08684,0.0118 0.04278,0.055 -0.02466,0.0241 -0.04386,0.0248 -0.05836,0.002 z m 0.419404,-0.12373 c -0.01115,-0.011 -0.0076,-0.0682 0.0078,-0.12733 0.01543,-0.0591 0.04463,-0.16978 0.06487,-0.24594 0.07191,-0.27072 0.05252,-0.35303 -0.117952,-0.50076 -0.131355,-0.11384 -0.15858,-0.15922 -0.176614,-0.29439 -0.01803,-0.13518 -0.01248,-0.15982 0.036,-0.15982 0.03153,0 0.09001,-0.0543 0.129956,-0.12063 l 0.07263,-0.12062 0.07861,0.15985 c 0.04324,0.0879 0.118187,0.1958 0.16655,0.23974 0.0755,0.0686 0.08793,0.1084 0.08793,0.28159 0,0.13294 -0.01984,0.23135 -0.05821,0.28873 -0.03201,0.0479 -0.08235,0.20235 -0.111864,0.34327 -0.03658,0.17464 -0.0705,0.25939 -0.106558,0.26619 -0.02909,0.006 -0.06202,9.5e-4 -0.07316,-0.01 z m -6.564533,-1.34426 c -0.03557,-0.0532 -0.05545,-0.15572 -0.05545,-0.28597 0,-0.21132 0.02845,-0.25433 0.08628,-0.13044 0.01865,0.04 0.06622,0.0932 0.105745,0.11835 0.06269,0.0399 0.08289,0.0372 0.158488,-0.0211 0.04764,-0.0367 0.09643,-0.0572 0.108398,-0.0455 0.03273,0.0321 0.02617,0.17834 -0.008,0.17834 -0.01637,0 -0.07067,0.0606 -0.120655,0.13458 -0.104654,0.15497 -0.194431,0.17184 -0.274797,0.0517 z m 1.798579,-0.0833 c 0,-0.0174 0.03477,-0.0893 0.07725,-0.15981 0.06782,-0.11245 0.07856,-0.11909 0.08796,-0.0543 0.0059,0.0405 -0.0152,0.11246 -0.04686,0.15981 -0.0576,0.0861 -0.118343,0.11406 -0.118343,0.0544 z m 4.624793,-0.29623 c -0.193448,-0.14382 -0.159019,-0.244 0.08386,-0.244 h 0.102295 l -0.02367,0.15981 c -0.01302,0.0879 -0.02688,0.16364 -0.0308,0.16831 -0.0039,0.005 -0.06318,-0.0332 -0.131686,-0.0841 z"
       style="fill:#804500;fill-opacity:1;stroke-width:0.99999994" />
    <g
       style="stroke-width:4.08449793"
       inkscape:transform-center-y="-9.4924686"
       inkscape:transform-center-x="5.4653607"
       inkscape:label="Capa 1"
       id="layer1-4-3"
       transform="matrix(0.53602412,0,0,0.5372689,-234.93365,-13.785303)">
      <g
         style="stroke-width:4.08449793"
         id="layer1-3-65-9"
         inkscape:label="Capa 1"
         transform="translate(0.41988239,0.03484499)" />
    </g>
    <g
       style="stroke-width:4.08449793"
       inkscape:transform-center-y="-9.4924686"
       inkscape:transform-center-x="5.4653607"
       inkscape:label="Capa 1"
       id="layer1-4"
       transform="matrix(0.53602412,0,0,0.5372689,-234.93365,-13.7603)">
      <g
         style="stroke-width:4.08449793"
         id="layer1-3-65"
         inkscape:label="Capa 1"
         transform="translate(0.41988239,0.03484499)" />
    </g>
    <path
       style="opacity:0.25;fill:#000000;fill-opacity:1;stroke:none;stroke-width:1.7883966;stroke-miterlimit:4;stroke-dasharray:none;stroke-opacity:1"
       d="m 5.142353,264.8392 v 31.10591 h 23.581961 v -17.45475 c -0.04498,-0.7929 -0.09696,-1.50255 -0.298063,-2.22205 -0.204573,-0.73192 -0.526951,-1.42494 -0.912236,-2.08813 -0.492998,-0.84861 -1.326132,-1.39576 -2.066596,-2.09122 -0.449226,-0.40738 -1.419471,-1.3751 -2.593872,-2.5305 -1.164791,-1.14594 -2.530897,-2.47697 -3.671384,-3.51104 -0.336848,-0.30398 -0.826157,-0.61944 -1.28075,-0.80163 -0.352994,-0.14146 -0.768267,-0.22951 -1.169211,-0.28869 -0.413429,-0.061 -0.811623,-0.0914 -1.110603,-0.1179 z"
       id="path5023-4-5"
       inkscape:connector-curvature="0"
       sodipodi:nodetypes="ccccascscsscc" />
    <path
       sodipodi:nodetypes="ccccascscsscc"
       inkscape:connector-curvature="0"
       id="path4623-8-3"
       d="m 5.142353,264.33819 v 31.10591 h 23.581961 v -17.45475 c -0.04498,-0.7929 -0.09696,-1.50256 -0.298063,-2.22206 -0.204573,-0.73192 -0.526951,-1.42494 -0.912236,-2.08813 -0.492998,-0.8486 -1.326132,-1.39575 -2.066596,-2.09121 -0.449226,-0.40739 -1.419471,-1.37511 -2.593872,-2.53051 -1.164791,-1.14592 -2.530897,-2.47697 -3.671384,-3.51104 -0.336848,-0.30398 -0.826157,-0.61945 -1.28075,-0.80162 -0.352994,-0.14146 -0.768267,-0.22952 -1.169211,-0.28869 -0.413429,-0.0611 -0.811623,-0.0914 -1.110603,-0.1179 z"
       style="opacity:1;fill:url(#linearGradient1503-8-3);fill-opacity:1;stroke:#808080;stroke-width:0.30000001;stroke-miterlimit:4;stroke-dasharray:none;stroke-opacity:1" />
    <path
       style="fill:none;stroke:#4f4f4f;stroke-width:0.49999997;stroke-linecap:butt;stroke-linejoin:miter;stroke-miterlimit:4;stroke-dasharray:none;stroke-opacity:1"
       id="path1967"
       d="m 11.318402,269.25261 h 2.044055 z m 2.28683,0 h 1.23595 z m 1.456655,0 h 1.942207 z m 2.162912,0 H 19.3215 Z m 2.339478,0 h 0.838679 z m 1.059383,0 h 0.463483 z m 0.706258,0 h 1.302163 z"
       inkscape:connector-curvature="0"
       sodipodi:nodetypes="ccccccccccccccccccccc" />
    <path
       sodipodi:nodetypes="cccccccccccccccccccccccccccccccccccccccccccccccccccccccccccccccccccccccccccccccccccccccccccccccccccccccccccccccccccccccccccccccccccccccccccccccccccccccccccccccccccccccccccccccccccccccccccccccccccccccccccccccccccccccccccccccccccccccccccccccccccccc"
       inkscape:connector-curvature="0"
       d="M 8.0750561,291.82841 H 9.730347 Z m 1.8980659,0 h 1.544937 z m 1.787712,0 h 1.368373 z m 1.589079,0 h 0.595904 z m 0.838681,0 h 1.324231 z m 1.589078,0 h 1.010039 z m -7.7026159,-1.41356 h 2.5822519 z m 2.8691689,0 h 1.23595 z m 1.456655,0 h 0.617974 z m 0.86075,0 h 1.125598 z m 1.368374,0 h 1.147668 z m -6.5549479,-1.4025 h 2.1849819 z m 2.4056889,0 h 3.575427 z m 3.79613,0 h 1.743574 z m -6.2018189,-1.42453 h 3.0236619 z m 3.2664389,0 h 3.266439 z m 3.487143,0 h 1.302163 z m -6.7535819,-1.41356 h 4.3308469 z m 4.6989619,0 h 3.283964 z m -4.6989619,-2.81602 h 2.1849819 z m 2.4056889,0 h 3.575427 z m 3.79613,0 h 1.743574 z M 8.0750561,281.93363 H 9.730347 Z m 1.8980659,0 h 1.522866 z m 1.787712,0 h 1.368373 z m 1.589079,0 h 0.595904 z m 0.838681,0 h 1.324231 z m 1.589078,0 h 5.014352 z m -7.7026159,-1.41355 h 2.7808869 z m 3.0015909,0 h 2.979525 z m 3.200228,0 h 1.147669 z m 1.368374,0 h 2.802958 z m 3.023663,0 h 3.531286 z m 3.774061,0 h 1.302162 z M 8.0750561,279.10653 h 3.0236619 z m 3.2664389,0 h 3.266439 z m 3.487143,0 h 1.302163 z m 1.522868,0 h 3.067804 z m 3.266439,0 h 2.096702 z m 2.339478,0 h 0.83868 z m 1.059386,0 h 0.46348 z m 0.706257,0 h 1.302162 z M 8.0750561,277.69301 h 2.5822519 z m 2.8691689,0 h 1.23595 z m 1.456655,0 h 0.617974 z m 0.86075,0 h 1.125598 z m 1.368374,0 h 1.147668 z m 1.368374,0 h 1.831853 z m 2.074629,0 h 2.383619 z m 2.604324,0 h 1.589078 z m 1.809784,0 h 0.39727 z M 8.0750561,274.87697 h 2.1849819 z m 2.4056889,0 h 3.575427 z m 3.79613,0 h 1.743574 z m 1.964279,0 h 1.633218 z m 1.853924,0 h 1.390444 z m 1.61115,0 2.184983,-0.0222 z m 2.383618,-0.0222 h 3.553357 z m -14.0147899,-1.4025 h 2.5822519 z m 2.8691689,0 h 1.23595 z m 1.456655,0 h 0.617974 z m 0.86075,0 h 1.125598 z m 1.368374,0 h 1.147668 z m 1.368374,0 h 1.831853 z m 2.074629,0 h 2.383619 z m 2.604324,0 h 1.589078 z m 1.809784,0 h 0.39727 z M 8.0750561,272.0387 h 2.7367459 z m 2.9795229,0 h 0.860749 z m 1.081455,0 h 1.964277 z m 2.184983,0 h 2.89124 z m 3.134016,0 h 1.964277 z m 2.162912,0 h 0.419339 z m 0.640046,0 h 2.49397 z m 2.758818,0 h 1.302162 z M 8.0750561,270.62516 h 2.7367469 z m 2.9795229,0 h 1.235949 z m 1.456654,0 h 1.942207 z m 2.162912,0 h 2.096701 z m 2.339478,0 h 0.838679 z m 1.059384,0 h 0.463482 z m 0.706258,0 h 1.302162 z"
       id="path997"
       style="fill:none;stroke:#4f4f4f;stroke-width:0.49999997;stroke-linecap:butt;stroke-linejoin:miter;stroke-miterlimit:4;stroke-dasharray:none;stroke-opacity:1" />
    <text
       xml:space="preserve"
       style="font-style:normal;font-variant:normal;font-weight:normal;font-stretch:normal;font-size:8.2304287px;line-height:0%;font-family:'Lucida Grande';-inkscape-font-specification:'Lucida Grande';letter-spacing:0px;word-spacing:0px;fill:#b85919;fill-opacity:1;stroke:none;stroke-width:0.29171428"
       x="8.1011086"
       y="269.47928"
       id="text3822"><tspan
         style="font-size:4.11521435px;line-height:1.25;stroke-width:0.29171428"
         sodipodi:role="line"
         id="tspan3824"
         x="8.1011086"
         y="269.47928">A</tspan></text>
    <path
       sodipodi:nodetypes="ccccsccsc"
       inkscape:connector-curvature="0"
       id="path1355-8-5"
       d="m 19.620994,266.16126 c 0.01558,0.0251 0.535221,0.86284 0.694175,1.33425 0.430727,0.96558 0.246637,3.78888 0.238805,5.39748 0.02644,-0.18505 4.473865,-1.33136 6.782594,0.76747 -0.01476,-0.026 -0.04662,-0.0767 -0.119341,-0.17767 -0.06901,-0.0958 -0.174308,-0.23765 -0.354479,-0.42182 -0.503715,-0.5766 -0.22026,-0.0806 -0.768208,-0.6505 -0.473747,-0.42966 -1.496999,-1.45025 -2.735519,-2.66881 -1.183854,-1.16476 -2.562819,-2.50808 -3.738027,-3.5804 z"
       style="opacity:0.24800002;fill:#000000;fill-opacity:1;stroke:none;stroke-width:0.28614345;stroke-miterlimit:4;stroke-dasharray:none;stroke-opacity:1" />
    <path
       style="opacity:1;fill:#ffffff;fill-opacity:1;stroke:#808080;stroke-width:0.30000001;stroke-miterlimit:4;stroke-dasharray:none;stroke-opacity:1"
       d="m 19.308998,265.6626 c 0.01477,0.0238 0.507514,0.81811 0.658239,1.26509 0.40843,0.91553 0.278738,3.06938 0.271311,4.5946 0.409178,-0.0213 4.921198,-0.70296 6.989915,1.73982 -0.02793,-0.0483 -0.09803,-0.0884 -0.13713,-0.16512 -0.477638,-0.54671 -1.086946,-0.98598 -1.643914,-1.50908 -0.449221,-0.4074 -1.419501,-1.37509 -2.593906,-2.53048 -1.122567,-1.10439 -2.430145,-2.3781 -3.544515,-3.39483 z"
       id="path4753-0-6"
       inkscape:connector-curvature="0"
       sodipodi:nodetypes="ccccccsc" />
    <g
       style="stroke-width:4.08449793"
       inkscape:transform-center-y="-9.4924686"
       inkscape:transform-center-x="5.4653607"
       inkscape:label="Capa 1"
       id="layer1-4-3-2"
       transform="matrix(0.51126596,0,0,0.51245325,-269.32006,5.6156869)">
      <g
         style="stroke-width:4.08449793"
         id="layer1-3-65-9-9"
         inkscape:label="Capa 1"
         transform="translate(0.41988239,0.03484499)" />
    </g>
    <g
       style="stroke-width:4.08449793"
       inkscape:transform-center-y="-9.4924686"
       inkscape:transform-center-x="5.4653607"
       inkscape:label="Capa 1"
       id="layer1-4-1"
       transform="matrix(0.51126596,0,0,0.51245325,-269.32006,5.6395364)">
      <g
         style="stroke-width:4.08449793"
         id="layer1-3-65-2"
         inkscape:label="Capa 1"
         transform="translate(0.41988239,0.03484499)" />
    </g>
    <g
       transform="matrix(0.51096555,0,0,0.51234092,-257.95184,-0.12394024)"
       id="layer1-4-39"
       inkscape:label="Capa 1"
       inkscape:transform-center-x="5.4653607"
       inkscape:transform-center-y="-9.4924686"
       style="stroke-width:4.28401899">
      <g
         transform="translate(0.41988239,0.03484499)"
         inkscape:label="Capa 1"
         id="layer1-3-65-0"
         style="stroke-width:4.28401899" />
    </g>
    <g
       style="stroke-width:4.28401899"
       inkscape:transform-center-y="-9.4924686"
       inkscape:transform-center-x="5.4653607"
       inkscape:label="Capa 1"
       id="layer1-4-5"
       transform="matrix(0.51096555,0,0,0.51234092,-287.40763,0.11490379)">
      <g
         style="stroke-width:4.28401899"
         id="layer1-3-65-2-5"
         inkscape:label="Capa 1"
         transform="translate(0.41988239,0.03484499)" />
    </g>
    <g
       style="stroke-width:4.28401899"
       inkscape:transform-center-y="-9.4924686"
       inkscape:transform-center-x="5.4653607"
       inkscape:label="Capa 1"
       id="layer1-4-4"
       transform="matrix(0.51096555,0,0,0.51234092,-293.39131,0.03648238)">
      <g
         style="stroke-width:4.28401899"
         id="layer1-3-65-8"
         inkscape:label="Capa 1"
         transform="translate(0.41988239,0.03484499)" />
    </g>
    <g
       inkscape:corner7="-0.26051676 : -0.0043348318 : 0.25 : 1"
       inkscape:corner0="-0.023715945 : 0.0026365983 : 0 : 1"
       inkscape:perspectiveID="#perspective3273"
       style="opacity:1;fill:#333333;fill-opacity:1;stroke:#3e3e80;stroke-width:0.1;stroke-opacity:1;stroke-miterlimit:4;stroke-dasharray:none"
       id="g3275"
       sodipodi:type="inkscape:box3d">
      <path
         points="22.545273,292.3818 25.552264,289.15517 20.173299,287.31215 16.518255,289.2842 "
         d="m 16.518255,289.2842 6.027018,3.0976 3.006991,-3.22663 -5.378965,-1.84302 z"
         inkscape:box3dsidetype="13"
         style="fill:#afafde;fill-rule:evenodd;stroke:#3e3e80;stroke-width:0.1;stroke-linecap:butt;stroke-linejoin:round;stroke-opacity:1;stroke-miterlimit:4;stroke-dasharray:none"
         id="path3285"
         sodipodi:type="inkscape:box3dside" />
      <path
         points="16.518255,289.2842 20.173299,287.31215 20.173299,282.9596 16.518255,283.81709 "
         d="m 16.518255,283.81709 v 5.46711 l 3.655044,-1.97205 v -4.35255 z"
         inkscape:box3dsidetype="6"
         style="fill:#353564;fill-rule:evenodd;stroke:#3e3e80;stroke-width:0.1;stroke-linecap:butt;stroke-linejoin:round;stroke-opacity:1;stroke-miterlimit:4;stroke-dasharray:none"
         id="path3277"
         sodipodi:type="inkscape:box3dside" />
      <path
         points="25.552264,283.76098 25.552264,289.15517 20.173299,287.31215 20.173299,282.9596 "
         d="m 20.173299,282.9596 5.378965,0.80138 v 5.39419 l -5.378965,-1.84302 z"
         inkscape:box3dsidetype="11"
         style="fill:#e9e9ff;fill-rule:evenodd;stroke:#3e3e80;stroke-width:0.1;stroke-linecap:butt;stroke-linejoin:round;stroke-opacity:1;stroke-miterlimit:4;stroke-dasharray:none"
         id="path3287"
         sodipodi:type="inkscape:box3dside" />
      <path
         points="22.545273,285.16397 25.552264,283.76098 20.173299,282.9596 16.518255,283.81709 "
         d="m 16.518255,283.81709 6.027018,1.34688 3.006991,-1.40299 -5.378965,-0.80138 z"
         inkscape:box3dsidetype="5"
         style="fill:#4d4d9f;fill-rule:evenodd;stroke:#3e3e80;stroke-width:0.1;stroke-linecap:butt;stroke-linejoin:round;stroke-opacity:1;stroke-miterlimit:4;stroke-dasharray:none"
         id="path3279"
         sodipodi:type="inkscape:box3dside" />
      <path
         points="22.545273,292.3818 25.552264,289.15517 25.552264,283.76098 22.545273,285.16397 "
         d="m 22.545273,285.16397 v 7.21783 l 3.006991,-3.22663 v -5.39419 z"
         inkscape:box3dsidetype="14"
         style="fill:#d7d7ff;fill-rule:evenodd;stroke:#3e3e80;stroke-width:0.1;stroke-linecap:butt;stroke-linejoin:round;stroke-opacity:1;stroke-miterlimit:4;stroke-dasharray:none"
         id="path3283"
         sodipodi:type="inkscape:box3dside" />
      <path
         points="22.545273,285.16397 22.545273,292.3818 16.518255,289.2842 16.518255,283.81709 "
         d="m 16.518255,283.81709 6.027018,1.34688 v 7.21783 l -6.027018,-3.0976 z"
         inkscape:box3dsidetype="3"
         style="fill:#8686bf;fill-rule:evenodd;stroke:#3e3e80;stroke-width:0.1;stroke-linecap:butt;stroke-linejoin:round;stroke-opacity:1;stroke-miterlimit:4;stroke-dasharray:none"
         id="path3281"
         sodipodi:type="inkscape:box3dside" />
    </g>
  </g>
</svg>
