<?xml version="1.0" encoding="UTF-8" standalone="no"?>
<!-- Created with Inkscape (http://www.inkscape.org/) -->

<svg
   xmlns:osb="http://www.openswatchbook.org/uri/2009/osb"
   xmlns:dc="http://purl.org/dc/elements/1.1/"
   xmlns:cc="http://creativecommons.org/ns#"
   xmlns:rdf="http://www.w3.org/1999/02/22-rdf-syntax-ns#"
   xmlns:svg="http://www.w3.org/2000/svg"
   xmlns="http://www.w3.org/2000/svg"
   xmlns:xlink="http://www.w3.org/1999/xlink"
   xmlns:sodipodi="http://sodipodi.sourceforge.net/DTD/sodipodi-0.dtd"
   xmlns:inkscape="http://www.inkscape.org/namespaces/inkscape"
   width="128"
   height="128"
   viewBox="0 0 33.866666 33.866668"
   version="1.1"
   id="svg8"
   inkscape:version="0.92.2 5c3e80d, 2017-08-06"
   sodipodi:docname="wps-office-doc.svg">
  <defs
     id="defs2">
    <linearGradient
       id="linearGradient1830">
      <stop
         id="stop1826"
         style="stop-color:#d9d9d9;stop-opacity:1"
         offset="0" />
      <stop
         id="stop1828"
         style="stop-color:#ffffff;stop-opacity:1;"
         offset="1" />
    </linearGradient>
    <linearGradient
       osb:paint="solid"
       id="linearGradient6987">
      <stop
         id="stop6985"
         offset="0"
         style="stop-color:#77d2fb;stop-opacity:1;" />
    </linearGradient>
    <linearGradient
       inkscape:collect="always"
       xlink:href="#linearGradient1830"
       id="linearGradient1503-8-3"
       x1="29.203474"
       y1="263.52237"
       x2="4.5843229"
       y2="296.16849"
       gradientUnits="userSpaceOnUse"
       gradientTransform="matrix(0.95460264,0,0,0.9545928,3.5572548,12.720462)" />
    <linearGradient
       inkscape:collect="always"
       id="linearGradient4538">
      <stop
         style="stop-color:#214789;stop-opacity:1"
         offset="0"
         id="stop4540" />
      <stop
         style="stop-color:#3d69a7;stop-opacity:1"
         offset="1"
         id="stop4542" />
    </linearGradient>
    <linearGradient
       inkscape:collect="always"
       xlink:href="#linearGradient4538"
       id="linearGradient1468"
       gradientUnits="userSpaceOnUse"
       gradientTransform="matrix(0.23461576,0,0,0.23469018,3.8015374,226.6434)"
       x1="-6.8459705"
       y1="232.64992"
       x2="46.972088"
       y2="233.70825" />
  </defs>
  <sodipodi:namedview
     id="base"
     pagecolor="#ffffff"
     bordercolor="#666666"
     borderopacity="1.0"
     inkscape:pageopacity="0.0"
     inkscape:pageshadow="2"
     inkscape:zoom="2.8284273"
     inkscape:cx="43.43407"
     inkscape:cy="42.731412"
     inkscape:document-units="mm"
     inkscape:current-layer="layer1"
     showgrid="false"
     units="px"
     inkscape:window-width="1600"
     inkscape:window-height="792"
     inkscape:window-x="0"
     inkscape:window-y="0"
     inkscape:window-maximized="1"
     showguides="false"
     inkscape:snap-nodes="false" />
  <metadata
     id="metadata5">
    <rdf:RDF>
      <cc:Work
         rdf:about="">
        <dc:format>image/svg+xml</dc:format>
        <dc:type
           rdf:resource="http://purl.org/dc/dcmitype/StillImage" />
        <dc:title />
      </cc:Work>
    </rdf:RDF>
  </metadata>
  <g
     inkscape:label="Layer 1"
     inkscape:groupmode="layer"
     id="layer1"
     transform="translate(0,-263.13332)">
    <g
       style="stroke-width:4.08449793"
       inkscape:transform-center-y="-9.4924686"
       inkscape:transform-center-x="5.4653607"
       inkscape:label="Capa 1"
       id="layer1-4-3"
       transform="matrix(0.53602412,0,0,0.5372689,-234.93365,-13.785303)">
      <g
         style="stroke-width:4.08449793"
         id="layer1-3-65-9"
         inkscape:label="Capa 1"
         transform="translate(0.41988239,0.03484499)" />
    </g>
    <g
       style="stroke-width:4.08449793"
       inkscape:transform-center-y="-9.4924686"
       inkscape:transform-center-x="5.4653607"
       inkscape:label="Capa 1"
       id="layer1-4"
       transform="matrix(0.53602412,0,0,0.5372689,-234.93365,-13.7603)">
      <g
         style="stroke-width:4.08449793"
         id="layer1-3-65"
         inkscape:label="Capa 1"
         transform="translate(0.41988239,0.03484499)" />
    </g>
    <g
       style="stroke-width:4.08449793"
       inkscape:transform-center-y="-9.4924686"
       inkscape:transform-center-x="5.4653607"
       inkscape:label="Capa 1"
       id="layer1-4-3-2"
       transform="matrix(0.51126596,0,0,0.51245325,-269.32006,5.6156869)">
      <g
         style="stroke-width:4.08449793"
         id="layer1-3-65-9-9"
         inkscape:label="Capa 1"
         transform="translate(0.41988239,0.03484499)" />
    </g>
    <g
       style="stroke-width:4.08449793"
       inkscape:transform-center-y="-9.4924686"
       inkscape:transform-center-x="5.4653607"
       inkscape:label="Capa 1"
       id="layer1-4-1"
       transform="matrix(0.51126596,0,0,0.51245325,-269.32006,5.6395364)">
      <g
         style="stroke-width:4.08449793"
         id="layer1-3-65-2"
         inkscape:label="Capa 1"
         transform="translate(0.41988239,0.03484499)" />
    </g>
    <g
       style="stroke-width:4.28330564"
       inkscape:transform-center-y="-9.4924686"
       inkscape:transform-center-x="5.4653607"
       inkscape:label="Capa 1"
       id="layer1-4-3-3"
       transform="matrix(0.51113566,0,0,0.51234092,-259.74611,-0.14779896)">
      <g
         style="stroke-width:4.28330564"
         id="layer1-3-65-9-90"
         inkscape:label="Capa 1"
         transform="translate(0.41988239,0.03484499)" />
    </g>
    <g
       style="stroke-width:4.28330564"
       inkscape:transform-center-y="-9.4924686"
       inkscape:transform-center-x="5.4653607"
       inkscape:label="Capa 1"
       id="layer1-4-5"
       transform="matrix(0.51113566,0,0,0.51234092,-262.51766,-0.14779324)">
      <g
         style="stroke-width:4.28330564"
         id="layer1-3-65-22"
         inkscape:label="Capa 1"
         transform="translate(0.41988239,0.03484499)" />
    </g>
    <g
       style="stroke-width:4.28326607"
       inkscape:transform-center-y="-9.4924686"
       inkscape:transform-center-x="5.4653607"
       inkscape:label="Capa 1"
       id="layer1-4-3-8"
       transform="matrix(0.51114514,0,0,0.51234092,-184.60052,-0.14779996)">
      <g
         style="stroke-width:4.28326607"
         id="layer1-3-65-9-6"
         inkscape:label="Capa 1"
         transform="translate(0.41988239,0.03484499)" />
    </g>
    <g
       style="stroke-width:4.28326607"
       inkscape:transform-center-y="-9.4924686"
       inkscape:transform-center-x="5.4653607"
       inkscape:label="Capa 1"
       id="layer1-4-57"
       transform="matrix(0.51114514,0,0,0.51234092,-187.37212,-0.14779424)">
      <g
         style="stroke-width:4.28326607"
         id="layer1-3-65-6"
         inkscape:label="Capa 1"
         transform="translate(0.41988239,0.03484499)" />
    </g>
    <path
       style="opacity:0.25;fill:#000000;fill-opacity:1;stroke:none;stroke-width:1.7883966;stroke-miterlimit:4;stroke-dasharray:none;stroke-opacity:1"
       d="m 7.9334611,264.84255 v 31.0991 H 31.510257 v -17.45093 c -0.04497,-0.79272 -0.09694,-1.50222 -0.297998,-2.22156 -0.204528,-0.73176 -0.526835,-1.42463 -0.912036,-2.08767 -0.49289,-0.84843 -1.325841,-1.39546 -2.066143,-2.09076 -0.449128,-0.40729 -1.41916,-1.3748 -2.593304,-2.52995 -1.164536,-1.14569 -2.530343,-2.47643 -3.67058,-3.51027 -0.336774,-0.30391 -0.825976,-0.61931 -1.280469,-0.80146 -0.352917,-0.14142 -0.768099,-0.22946 -1.168955,-0.28862 -0.413339,-0.061 -0.811446,-0.0914 -1.11036,-0.11788 z"
       id="path5023-4-5"
       inkscape:connector-curvature="0"
       sodipodi:nodetypes="ccccascscsscc" />
    <path
       sodipodi:nodetypes="ccccascscsscc"
       inkscape:connector-curvature="0"
       id="path4623-8-3"
       d="m 7.9334611,264.34165 v 31.0991 H 31.510257 v -17.45093 c -0.04497,-0.79272 -0.09694,-1.50223 -0.297998,-2.22157 -0.204528,-0.73176 -0.526835,-1.42463 -0.912036,-2.08767 -0.49289,-0.84842 -1.325841,-1.39545 -2.066143,-2.09075 -0.449128,-0.4073 -1.41916,-1.37481 -2.593304,-2.52996 -1.164536,-1.14567 -2.530343,-2.47643 -3.67058,-3.51027 -0.336774,-0.30391 -0.825976,-0.61932 -1.280469,-0.80145 -0.352917,-0.14142 -0.768099,-0.22947 -1.168955,-0.28862 -0.413339,-0.0611 -0.811446,-0.0914 -1.11036,-0.11788 z"
       style="opacity:1;fill:url(#linearGradient1503-8-3);fill-opacity:1;stroke:#808080;stroke-width:0.3;stroke-miterlimit:4;stroke-dasharray:none;stroke-opacity:1" />
    <g
       id="g1458"
       style="opacity:0.98999999;fill:#808080;fill-opacity:1;stroke-width:0.42616125;stroke:#4d4d4d;stroke-miterlimit:4;stroke-dasharray:none;stroke-opacity:1"
       transform="matrix(0.23461576,0,0,0.23469018,3.7890931,226.39137)">
      <rect
         y="179.98801"
         x="30.823957"
         height="8.598958"
         width="58.869785"
         id="rect1446"
         style="opacity:1;fill:#808080;fill-opacity:1;fill-rule:evenodd;stroke:#4d4d4d;stroke-width:0.42616125;stroke-linecap:round;stroke-linejoin:bevel;stroke-miterlimit:4;stroke-dasharray:none;stroke-opacity:1" />
      <rect
         style="opacity:1;fill:#808080;fill-opacity:1;fill-rule:evenodd;stroke:#4d4d4d;stroke-width:0.42616125;stroke-linecap:round;stroke-linejoin:bevel;stroke-miterlimit:4;stroke-dasharray:none;stroke-opacity:1"
         id="rect1448"
         width="66.410408"
         height="8.598958"
         x="38.585716"
         y="197.58279" />
      <rect
         y="214.97916"
         x="38.585716"
         height="8.598958"
         width="66.410408"
         id="rect1450"
         style="opacity:1;fill:#808080;fill-opacity:1;fill-rule:evenodd;stroke:#4d4d4d;stroke-width:0.42616125;stroke-linecap:round;stroke-linejoin:bevel;stroke-miterlimit:4;stroke-dasharray:none;stroke-opacity:1" />
      <rect
         style="opacity:1;fill:#808080;fill-opacity:1;fill-rule:evenodd;stroke:#4d4d4d;stroke-width:0.42616125;stroke-linecap:round;stroke-linejoin:bevel;stroke-miterlimit:4;stroke-dasharray:none;stroke-opacity:1"
         id="rect1452"
         width="66.410408"
         height="8.598958"
         x="38.585712"
         y="232.5078" />
      <rect
         y="249.88629"
         x="38.585712"
         height="8.598958"
         width="66.410408"
         id="rect1454"
         style="opacity:1;fill:#808080;fill-opacity:1;fill-rule:evenodd;stroke:#4d4d4d;stroke-width:0.42616125;stroke-linecap:round;stroke-linejoin:bevel;stroke-miterlimit:4;stroke-dasharray:none;stroke-opacity:1" />
      <rect
         style="opacity:1;fill:#808080;fill-opacity:1;fill-rule:evenodd;stroke:#4d4d4d;stroke-width:0.42616125;stroke-linecap:round;stroke-linejoin:bevel;stroke-miterlimit:4;stroke-dasharray:none;stroke-opacity:1"
         id="rect1456"
         width="66.410408"
         height="8.598958"
         x="38.585712"
         y="267.33231" />
    </g>
    <path
       sodipodi:nodetypes="ccccsccsc"
       inkscape:connector-curvature="0"
       id="path1355-8-5"
       d="m 22.408931,266.16432 c 0.01558,0.0251 0.535104,0.86266 0.694023,1.33396 0.430633,0.96537 0.246583,3.78805 0.238753,5.3963 0.02643,-0.18501 4.472885,-1.33107 6.781108,0.7673 -0.01476,-0.026 -0.04661,-0.0767 -0.119315,-0.17763 -0.06899,-0.0958 -0.17427,-0.2376 -0.354401,-0.42173 -0.503605,-0.57647 -0.220212,-0.0806 -0.76804,-0.65035 -0.473643,-0.42957 -1.496671,-1.44994 -2.73492,-2.66823 -1.183594,-1.1645 -2.562257,-2.50753 -3.737208,-3.57962 z"
       style="opacity:0.24800002;fill:#000000;fill-opacity:1;stroke:none;stroke-width:0.28614345;stroke-miterlimit:4;stroke-dasharray:none;stroke-opacity:1" />
    <path
       style="opacity:1;fill:#ffffff;fill-opacity:1;stroke:#808080;stroke-width:0.30000001;stroke-miterlimit:4;stroke-dasharray:none;stroke-opacity:1"
       d="m 22.097003,265.66577 c 0.01477,0.0238 0.507403,0.81793 0.658095,1.26482 0.408341,0.91533 0.278677,3.0687 0.271252,4.59359 0.409088,-0.0213 4.92012,-0.70281 6.988384,1.73944 -0.02792,-0.0483 -0.09801,-0.0884 -0.1371,-0.16508 -0.477534,-0.54659 -1.086708,-0.98577 -1.643554,-1.50875 -0.449123,-0.40731 -1.41919,-1.37479 -2.593338,-2.52993 -1.122321,-1.10415 -2.429613,-2.37758 -3.543739,-3.39409 z"
       id="path4753-0-6"
       inkscape:connector-curvature="0"
       sodipodi:nodetypes="ccccccsc" />
    <path
       style="fill:url(#linearGradient1468);fill-opacity:1;fill-rule:evenodd;stroke:#264268;stroke-width:0.3;stroke-linecap:butt;stroke-linejoin:miter;stroke-miterlimit:4;stroke-dasharray:none;stroke-opacity:1"
       d="m 16.050407,270.50152 0.498635,0.10623 -0.0046,21.27721 -0.498636,0.1016 -13.8394205,-2.12679 0.010439,-17.59224 c 4.5818879,-0.58096 9.2265255,-1.18821 13.8336015,-1.76601 z"
       id="path1460"
       inkscape:connector-curvature="0"
       sodipodi:nodetypes="ccccccc" />
    <path
       style="fill:#ffffff;stroke-width:0.3;stroke:none;stroke-miterlimit:4;stroke-dasharray:none;stroke-opacity:1"
       d="m 14.35553,276.37671 c -0.199269,0 -1.832627,0.16477 -1.854988,0.18714 -0.02907,0.0291 -1.100331,6.1135 -1.192769,6.77454 -0.0676,0.48342 -0.08299,0.48545 -0.141852,0.0181 -0.04016,-0.31882 -1.2960681,-6.52424 -1.3266201,-6.55479 -0.027095,-0.0271 -0.1845614,-0.0185 -1.0088466,0.0554 -0.3769501,0.0337 -0.6974107,0.0734 -0.7120488,0.0881 -0.032815,0.0328 -1.2591873,5.82094 -1.3294073,6.27439 -0.027877,0.18003 -0.06115,0.32087 -0.073839,0.31303 -0.012689,-0.008 -0.032729,-0.12633 -0.044618,-0.2633 -0.030642,-0.35298 -0.9505124,-6.07012 -0.9822961,-6.10509 -0.035437,-0.039 -1.4310648,0.0777 -1.4655599,0.12249 -0.02699,0.0351 1.5609787,8.2554 1.6026861,8.29649 0.012337,0.0122 0.3868481,0.0544 0.8321982,0.0941 0.5989106,0.0533 0.8197757,0.0627 0.8483237,0.0362 0.064792,-0.0602 1.3217688,-6.0888 1.3217688,-6.3394 0,-0.011 0.012003,-0.0198 0.02679,-0.0198 0.014777,0 0.043531,0.13327 0.063771,0.29616 0.04723,0.38001 1.27674,6.27132 1.317284,6.31187 0.03127,0.0313 1.394483,0.16791 1.750721,0.17549 0.163023,0.004 0.200762,-0.006 0.214475,-0.0519 0.05707,-0.1921 2.19616,-9.57889 2.19616,-9.63723 0,-0.0397 -0.01861,-0.0719 -0.04134,-0.0719 z"
       id="path1462"
       inkscape:connector-curvature="0"
       sodipodi:nodetypes="csssccsscscscscssscccscc" />
  </g>
</svg>
