<?xml version="1.0" encoding="UTF-8" standalone="no"?>
<!-- Created with Inkscape (http://www.inkscape.org/) -->

<svg
   xmlns:osb="http://www.openswatchbook.org/uri/2009/osb"
   xmlns:dc="http://purl.org/dc/elements/1.1/"
   xmlns:cc="http://creativecommons.org/ns#"
   xmlns:rdf="http://www.w3.org/1999/02/22-rdf-syntax-ns#"
   xmlns:svg="http://www.w3.org/2000/svg"
   xmlns="http://www.w3.org/2000/svg"
   xmlns:xlink="http://www.w3.org/1999/xlink"
   xmlns:sodipodi="http://sodipodi.sourceforge.net/DTD/sodipodi-0.dtd"
   xmlns:inkscape="http://www.inkscape.org/namespaces/inkscape"
   width="128"
   height="128"
   viewBox="0 0 33.866666 33.866668"
   version="1.1"
   id="svg8"
   inkscape:version="0.92.2 5c3e80d, 2017-08-06"
   sodipodi:docname="audio-x-smart-playlist.svg">
  <defs
     id="defs2">
    <linearGradient
       id="linearGradient1830">
      <stop
         id="stop1826"
         style="stop-color:#d9d9d9;stop-opacity:1"
         offset="0" />
      <stop
         id="stop1828"
         style="stop-color:#ffffff;stop-opacity:1;"
         offset="1" />
    </linearGradient>
    <linearGradient
       osb:paint="solid"
       id="linearGradient6987">
      <stop
         id="stop6985"
         offset="0"
         style="stop-color:#77d2fb;stop-opacity:1;" />
    </linearGradient>
    <linearGradient
       gradientTransform="matrix(0.95460105,0,0,0.9545928,0.76875579,12.720465)"
       gradientUnits="userSpaceOnUse"
       y2="296.16849"
       x2="4.5843229"
       y1="263.52237"
       x1="29.203474"
       id="linearGradient1503-8-3"
       xlink:href="#linearGradient1830"
       inkscape:collect="always" />
    <linearGradient
       id="linearGradient959"
       inkscape:collect="always">
      <stop
         id="stop955"
         offset="0"
         style="stop-color:#eaeded;stop-opacity:1" />
      <stop
         id="stop957"
         offset="1"
         style="stop-color:#afaeb0;stop-opacity:1" />
    </linearGradient>
    <linearGradient
       id="linearGradient3580-3"
       inkscape:collect="always">
      <stop
         id="stop3576-8"
         offset="0"
         style="stop-color:#ee0450;stop-opacity:1" />
      <stop
         id="stop3578-0"
         offset="1"
         style="stop-color:#e33530;stop-opacity:1" />
    </linearGradient>
    <linearGradient
       gradientTransform="translate(-0.27439117,0.14746857)"
       gradientUnits="userSpaceOnUse"
       y2="82.338997"
       x2="72.734131"
       y1="64.131287"
       x1="60.893303"
       id="linearGradient3582-4"
       xlink:href="#linearGradient3580-3"
       inkscape:collect="always" />
    <linearGradient
       gradientTransform="matrix(0.56093061,0,0,0.56093061,-11.74639,220.00477)"
       gradientUnits="userSpaceOnUse"
       y2="117.30058"
       x2="50.878483"
       y1="91.685593"
       x1="50.179356"
       id="linearGradient961"
       xlink:href="#linearGradient959"
       inkscape:collect="always" />
  </defs>
  <sodipodi:namedview
     id="base"
     pagecolor="#ffffff"
     bordercolor="#666666"
     borderopacity="1.0"
     inkscape:pageopacity="0.0"
     inkscape:pageshadow="2"
     inkscape:zoom="0.99852831"
     inkscape:cx="17.830231"
     inkscape:cy="43.272264"
     inkscape:document-units="mm"
     inkscape:current-layer="layer1"
     showgrid="false"
     units="px"
     inkscape:window-width="1600"
     inkscape:window-height="811"
     inkscape:window-x="0"
     inkscape:window-y="0"
     inkscape:window-maximized="1"
     showguides="false" />
  <metadata
     id="metadata5">
    <rdf:RDF>
      <cc:Work
         rdf:about="">
        <dc:format>image/svg+xml</dc:format>
        <dc:type
           rdf:resource="http://purl.org/dc/dcmitype/StillImage" />
        <dc:title />
      </cc:Work>
    </rdf:RDF>
  </metadata>
  <g
     inkscape:label="Layer 1"
     inkscape:groupmode="layer"
     id="layer1"
     transform="translate(0,-263.13332)">
    <g
       style="stroke-width:4.08539581"
       inkscape:transform-center-y="-9.4924686"
       inkscape:transform-center-x="5.4653607"
       inkscape:label="Capa 1"
       id="layer1-4-3"
       transform="matrix(0.53590583,0,0,0.53715127,-204.58003,-13.720947)">
      <g
         style="stroke-width:4.08539581"
         id="layer1-3-65-9"
         inkscape:label="Capa 1"
         transform="translate(0.41988239,0.03484499)" />
    </g>
    <g
       style="stroke-width:4.08539581"
       inkscape:transform-center-y="-9.4924686"
       inkscape:transform-center-x="5.4653607"
       inkscape:label="Capa 1"
       id="layer1-4"
       transform="matrix(0.53590583,0,0,0.53715127,-204.58003,-13.69595)">
      <g
         style="stroke-width:4.08539581"
         id="layer1-3-65"
         inkscape:label="Capa 1"
         transform="translate(0.41988239,0.03484499)" />
    </g>
    <g
       style="stroke-width:4.08539581"
       inkscape:transform-center-y="-9.4924686"
       inkscape:transform-center-x="5.4653607"
       inkscape:label="Capa 1"
       id="layer1-4-3-3"
       transform="matrix(0.53590583,0,0,0.53715127,-234.87807,-13.720944)">
      <g
         style="stroke-width:4.08539581"
         id="layer1-3-65-9-90"
         inkscape:label="Capa 1"
         transform="translate(0.41988239,0.03484499)" />
    </g>
    <g
       style="stroke-width:4.08539581"
       inkscape:transform-center-y="-9.4924686"
       inkscape:transform-center-x="5.4653607"
       inkscape:label="Capa 1"
       id="layer1-4-5"
       transform="matrix(0.53590583,0,0,0.53715127,-234.87807,-13.695947)">
      <g
         style="stroke-width:4.08539581"
         id="layer1-3-65-22"
         inkscape:label="Capa 1"
         transform="translate(0.41988239,0.03484499)" />
    </g>
    <path
       style="opacity:0.25;fill:#000000;fill-opacity:1;stroke:none;stroke-width:1.7883966;stroke-miterlimit:4;stroke-dasharray:none;stroke-opacity:1"
       d="m 5.1449548,264.84255 v 31.0991 H 28.721712 v -17.45093 c -0.04497,-0.79272 -0.09694,-1.50222 -0.297997,-2.22156 -0.204528,-0.73176 -0.526835,-1.42463 -0.912035,-2.08767 -0.492889,-0.84843 -1.325839,-1.39546 -2.06614,-2.09076 -0.449127,-0.40729 -1.419158,-1.3748 -2.5933,-2.52995 -1.164534,-1.14569 -2.530338,-2.47643 -3.670573,-3.51027 -0.336774,-0.30391 -0.825975,-0.61931 -1.280468,-0.80146 -0.352916,-0.14142 -0.768097,-0.22946 -1.168953,-0.28862 -0.413338,-0.061 -0.811444,-0.0914 -1.110358,-0.11788 z"
       id="path5023-4-5"
       inkscape:connector-curvature="0"
       sodipodi:nodetypes="ccccascscsscc" />
    <path
       sodipodi:nodetypes="ccccascscsscc"
       inkscape:connector-curvature="0"
       id="path4623-8-3"
       d="m 5.1449548,264.34165 v 31.0991 H 28.721712 v -17.45093 c -0.04497,-0.79272 -0.09694,-1.50223 -0.297997,-2.22157 -0.204528,-0.73176 -0.526835,-1.42463 -0.912035,-2.08767 -0.492889,-0.84842 -1.325839,-1.39545 -2.06614,-2.09075 -0.449127,-0.4073 -1.419158,-1.37481 -2.5933,-2.52996 -1.164534,-1.14567 -2.530338,-2.47643 -3.670573,-3.51027 -0.336774,-0.30391 -0.825975,-0.61932 -1.280468,-0.80145 -0.352916,-0.14142 -0.768097,-0.22947 -1.168953,-0.28862 -0.413338,-0.0611 -0.811444,-0.0914 -1.110358,-0.11788 z"
       style="opacity:1;fill:url(#linearGradient1503-8-3);fill-opacity:1;stroke:#808080;stroke-width:0.30000001;stroke-miterlimit:4;stroke-dasharray:none;stroke-opacity:1" />
    <g
       id="g2509"
       transform="matrix(0.94189501,0,0,0.95339363,0.96149724,13.056407)"
       style="stroke-width:1.05526781;fill:#ffaaaa;fill-opacity:1">
      <path
         inkscape:connector-curvature="0"
         id="path2445"
         d="m 4.5950772,287.80933 v 1.7353 H 29.317083 c 7.4e-4,0 0.0013,-5.1e-4 0.0021,-5.2e-4 v -1.73426 c -7.38e-4,-10e-6 -0.0013,-5.2e-4 -0.0021,-5.2e-4 z"
         style="opacity:1;fill:#ffaaaa;fill-opacity:1;stroke:none;stroke-width:0.31658033;stroke-miterlimit:4;stroke-dasharray:none;stroke-opacity:1" />
      <path
         inkscape:connector-curvature="0"
         id="path2452"
         d="m 4.5950772,284.66741 v 1.73529 H 29.317083 c 7.4e-4,0 0.0013,-5.1e-4 0.0021,-5.2e-4 v -1.73426 c -7.38e-4,0 -0.0013,-5.1e-4 -0.0021,-5.1e-4 z"
         style="opacity:1;fill:#ffaaaa;fill-opacity:1;stroke:none;stroke-width:0.31658033;stroke-miterlimit:4;stroke-dasharray:none;stroke-opacity:1" />
      <path
         inkscape:connector-curvature="0"
         id="path2459"
         d="m 4.5950772,281.22782 v 1.7353 H 29.317083 c 7.4e-4,0 0.0013,-5.1e-4 0.0021,-5.2e-4 v -1.73426 c -7.38e-4,-10e-6 -0.0013,-5.2e-4 -0.0021,-5.2e-4 z"
         style="opacity:1;fill:#ffaaaa;fill-opacity:1;stroke:none;stroke-width:0.31658033;stroke-miterlimit:4;stroke-dasharray:none;stroke-opacity:1" />
      <path
         inkscape:connector-curvature="0"
         id="path2466"
         d="m 4.5950772,277.85439 v 1.73529 H 29.317083 c 7.4e-4,0 0.0013,-5.1e-4 0.0021,-5.2e-4 v -1.70429 c -5.91e-4,-0.0104 -0.0015,-0.0201 -0.0021,-0.0305 z"
         style="opacity:1;fill:#ffaaaa;fill-opacity:1;stroke:none;stroke-width:0.31658033;stroke-miterlimit:4;stroke-dasharray:none;stroke-opacity:1" />
      <path
         inkscape:connector-curvature="0"
         id="path2473"
         d="m 4.5950772,274.58017 v 1.73529 H 29.167222 c -0.04116,-0.25429 -0.09002,-0.50723 -0.160714,-0.76016 -0.09307,-0.33297 -0.21291,-0.65674 -0.347783,-0.97513 z"
         style="opacity:1;fill:#ffaaaa;fill-opacity:1;stroke:none;stroke-width:0.31658033;stroke-miterlimit:4;stroke-dasharray:none;stroke-opacity:1" />
      <path
         inkscape:connector-curvature="0"
         id="path2480"
         d="m 4.5950772,271.27287 v 1.7353 H 27.809682 c -0.493849,-0.6572 -1.17721,-1.15466 -1.813843,-1.7353 z"
         style="opacity:1;fill:#ffaaaa;fill-opacity:1;stroke:none;stroke-width:0.31658033;stroke-miterlimit:4;stroke-dasharray:none;stroke-opacity:1" />
      <path
         inkscape:connector-curvature="0"
         id="path2487"
         d="m 4.5950772,267.99866 v 1.73529 H 24.39542 c -0.383506,-0.37782 -0.770526,-0.7599 -1.23145,-1.21336 -0.169133,-0.1664 -0.359843,-0.34944 -0.535884,-0.52193 z"
         style="opacity:1;fill:#ffaaaa;fill-opacity:1;stroke:none;stroke-width:0.31658033;stroke-miterlimit:4;stroke-dasharray:none;stroke-opacity:1" />
      <path
         inkscape:connector-curvature="0"
         id="path2494"
         d="m 4.5950772,264.67793 v 1.73529 H 20.782292 c -0.572462,-0.55495 -1.13952,-1.09617 -1.659167,-1.57354 -0.05903,-0.054 -0.1277,-0.10783 -0.194836,-0.16175 z"
         style="opacity:1;fill:#ffaaaa;fill-opacity:1;stroke:none;stroke-width:0.31658033;stroke-miterlimit:4;stroke-dasharray:none;stroke-opacity:1" />
    </g>
    <path
       sodipodi:nodetypes="ccccsccsc"
       inkscape:connector-curvature="0"
       id="path1355-8-5"
       d="m 19.620401,266.16432 c 0.01558,0.0251 0.535103,0.86266 0.694021,1.33396 0.430632,0.96537 0.246583,3.78805 0.238753,5.3963 0.02643,-0.18501 4.472878,-1.33107 6.781097,0.7673 -0.01476,-0.026 -0.04661,-0.0767 -0.119315,-0.17763 -0.06899,-0.0958 -0.174269,-0.2376 -0.3544,-0.42173 -0.503604,-0.57647 -0.220212,-0.0806 -0.768039,-0.65035 -0.473642,-0.42957 -1.496669,-1.44994 -2.734915,-2.66823 -1.183593,-1.1645 -2.562254,-2.50753 -3.737202,-3.57962 z"
       style="opacity:0.24800002;fill:#000000;fill-opacity:1;stroke:none;stroke-width:0.28614345;stroke-miterlimit:4;stroke-dasharray:none;stroke-opacity:1" />
    <circle
       style="opacity:0.25;fill:#000000;fill-opacity:1;fill-rule:nonzero;stroke:none;stroke-width:0.1;stroke-linecap:round;stroke-miterlimit:4;stroke-dasharray:0.025, 0.02500000000000000;stroke-dashoffset:0;stroke-opacity:1"
       id="circle10371"
       cx="16.933334"
       cy="279.58505"
       r="8.4049969" />
    <path
       style="opacity:1;fill:#ffffff;fill-opacity:1;stroke:#808080;stroke-width:0.30000001;stroke-miterlimit:4;stroke-dasharray:none;stroke-opacity:1"
       d="m 19.308474,265.66577 c 0.01477,0.0238 0.507402,0.81793 0.658093,1.26482 0.40834,0.91533 0.278677,3.0687 0.271251,4.59359 0.409088,-0.0213 4.920112,-0.70281 6.988373,1.73944 -0.02792,-0.0483 -0.09801,-0.0884 -0.1371,-0.16508 -0.477532,-0.54659 -1.086706,-0.98577 -1.643551,-1.50875 -0.449122,-0.40731 -1.419188,-1.37479 -2.593334,-2.52993 -1.122319,-1.10415 -2.429608,-2.37758 -3.543732,-3.39409 z"
       id="path4753-0-6"
       inkscape:connector-curvature="0"
       sodipodi:nodetypes="ccccccsc" />
    <g
       style="stroke-width:4.08539581"
       inkscape:transform-center-y="-9.4924686"
       inkscape:transform-center-x="5.4653607"
       inkscape:label="Capa 1"
       id="layer1-4-3-2"
       transform="matrix(0.51115313,0,0,0.51234105,-269.25689,5.6757983)">
      <g
         style="stroke-width:4.08539581"
         id="layer1-3-65-9-9"
         inkscape:label="Capa 1"
         transform="translate(0.41988239,0.03484499)" />
    </g>
    <g
       style="stroke-width:4.08539581"
       inkscape:transform-center-y="-9.4924686"
       inkscape:transform-center-x="5.4653607"
       inkscape:label="Capa 1"
       id="layer1-4-1"
       transform="matrix(0.51115313,0,0,0.51234105,-269.25689,5.6996426)">
      <g
         style="stroke-width:4.08539581"
         id="layer1-3-65-2"
         inkscape:label="Capa 1"
         transform="translate(0.41988239,0.03484499)" />
    </g>
    <g
       aria-label="PLAYLIST"
       style="font-style:normal;font-weight:normal;font-size:4.60694408px;line-height:1.25;font-family:sans-serif;letter-spacing:0px;word-spacing:0px;fill:#575757;fill-opacity:1;stroke:none;stroke-width:0.26464146"
       id="text1198"
       transform="matrix(0.99977932,0,0,0.99978106,30.301779,0.06133761)">
      <path
         d="m -24.13577,293.70905 v -3.31419 h 1.155485 q 0.604614,0 0.862135,0.20378 0.25976,0.20154 0.25976,0.67627 0,0.53744 -0.347093,0.83751 -0.344854,0.29782 -0.967383,0.29782 h -0.286632 v 1.29881 z m 0.676272,-1.75339 h 0.134359 q 0.353811,0 0.557588,-0.16347 0.206017,-0.1657 0.206017,-0.44786 0,-0.49489 -0.629247,-0.49489 h -0.268717 z"
         style="font-style:normal;font-variant:normal;font-weight:600;font-stretch:normal;font-size:4.58611107px;font-family:'Lucida Grande';-inkscape-font-specification:'Lucida Grande Semi-Bold';fill:#575757;fill-opacity:1;stroke-width:0.26464146"
         id="path1501"
         inkscape:connector-curvature="0" />
      <path
         d="m -21.323195,293.70905 v -3.31419 h 0.689709 v 2.84393 h 1.493621 v 0.47026 z"
         style="font-style:normal;font-variant:normal;font-weight:600;font-stretch:normal;font-size:4.58611107px;font-family:'Lucida Grande';-inkscape-font-specification:'Lucida Grande Semi-Bold';fill:#575757;fill-opacity:1;stroke-width:0.26464146"
         id="path1503"
         inkscape:connector-curvature="0" />
      <path
         d="m -19.016703,293.70905 1.289844,-3.31419 h 0.689708 l 1.289843,3.31419 h -0.707622 l -0.344854,-0.88453 h -1.370459 l -0.344854,0.88453 z m 1.016648,-1.32568 h 1.030083 l -0.515042,-1.32119 z"
         style="font-style:normal;font-variant:normal;font-weight:600;font-stretch:normal;font-size:4.58611107px;font-family:'Lucida Grande';-inkscape-font-specification:'Lucida Grande Semi-Bold';fill:#575757;fill-opacity:1;stroke-width:0.26464146"
         id="path1505"
         inkscape:connector-curvature="0" />
      <path
         d="m -14.488814,293.70905 v -1.38838 l -1.112938,-1.92581 h 0.761366 l 0.808392,1.39957 0.844221,-1.39957 h 0.546392 l -1.157725,1.92133 v 1.39286 z"
         style="font-style:normal;font-variant:normal;font-weight:600;font-stretch:normal;font-size:4.58611107px;font-family:'Lucida Grande';-inkscape-font-specification:'Lucida Grande Semi-Bold';fill:#575757;fill-opacity:1;stroke-width:0.26464146"
         id="path1507"
         inkscape:connector-curvature="0" />
      <path
         d="m -12.124101,293.70905 v -3.31419 h 0.689708 v 2.84393 h 1.493621 v 0.47026 z"
         style="font-style:normal;font-variant:normal;font-weight:600;font-stretch:normal;font-size:4.58611107px;font-family:'Lucida Grande';-inkscape-font-specification:'Lucida Grande Semi-Bold';fill:#575757;fill-opacity:1;stroke-width:0.26464146"
         id="path1509"
         inkscape:connector-curvature="0" />
      <path
         d="m -9.4548412,293.70905 v -3.31419 h 0.6897081 v 3.31419 z"
         style="font-style:normal;font-variant:normal;font-weight:600;font-stretch:normal;font-size:4.58611107px;font-family:'Lucida Grande';-inkscape-font-specification:'Lucida Grande Semi-Bold';fill:#575757;fill-opacity:1;stroke-width:0.26464146"
         id="path1511"
         inkscape:connector-curvature="0" />
      <path
         d="m -8.1179723,293.67993 v -0.56878 q 0.5351956,0.22393 0.9158786,0.22393 0.2664781,0 0.4187514,-0.11868 0.1545125,-0.11869 0.1545125,-0.32246 0,-0.16123 -0.09629,-0.27096 -0.09629,-0.11197 -0.3650079,-0.26424 L -7.31182,292.23558 q -0.4456231,-0.2508 -0.6292467,-0.47921 -0.1836235,-0.23065 -0.1836235,-0.53744 0,-0.40979 0.3000678,-0.65836 0.3023071,-0.24856 0.7971951,-0.24856 0.3963582,0 0.8934855,0.1142 v 0.53072 q -0.5083239,-0.19034 -0.8039131,-0.19034 -0.2284098,0 -0.3672471,0.10301 -0.1365981,0.10077 -0.1365981,0.26648 0,0.13659 0.09629,0.2396 0.096291,0.10301 0.3627686,0.25304 l 0.2373671,0.13212 q 0.4792127,0.26872 0.660597,0.49489 0.1813843,0.22617 0.1813843,0.55087 0,0.4613 -0.3426147,0.7233 -0.3426148,0.262 -0.9449897,0.262 -0.3985976,0 -0.9270748,-0.11197 z"
         style="font-style:normal;font-variant:normal;font-weight:600;font-stretch:normal;font-size:4.58611107px;font-family:'Lucida Grande';-inkscape-font-specification:'Lucida Grande Semi-Bold';fill:#575757;fill-opacity:1;stroke-width:0.26464146"
         id="path1513"
         inkscape:connector-curvature="0" />
      <path
         d="m -4.4858064,293.70905 v -2.85961 h -1.1868354 v -0.45458 h 3.0656182 v 0.45458 H -3.793859 v 2.85961 z"
         style="font-style:normal;font-variant:normal;font-weight:600;font-stretch:normal;font-size:4.58611107px;font-family:'Lucida Grande';-inkscape-font-specification:'Lucida Grande Semi-Bold';fill:#575757;fill-opacity:1;stroke-width:0.26464146"
         id="path1515"
         inkscape:connector-curvature="0" />
    </g>
    <circle
       r="8.4049969"
       cy="279.05588"
       cx="16.933334"
       id="circle3590"
       style="opacity:1;fill:url(#linearGradient961);fill-opacity:1;fill-rule:nonzero;stroke:#808080;stroke-width:0.1;stroke-linecap:round;stroke-miterlimit:4;stroke-dasharray:0.025, 0.025;stroke-dashoffset:0;stroke-opacity:1" />
    <g
       style="stroke:#800000;stroke-width:0.17827517;stroke-miterlimit:4;stroke-dasharray:none"
       id="g965"
       transform="matrix(0.56093061,0,0,0.56093061,-20.59165,237.7525)">
      <circle
         style="opacity:1;fill:url(#linearGradient3582-4);fill-opacity:1;stroke:#800000;stroke-width:0.17827517;stroke-linecap:round;stroke-miterlimit:4;stroke-dasharray:none;stroke-dashoffset:0;stroke-opacity:1"
         id="circle2071-0"
         cx="66.897728"
         cy="73.633667"
         r="13.649353" />
      <path
         sodipodi:nodetypes="ccscccssscccssccccccc"
         inkscape:connector-curvature="0"
         id="path4534-5"
         d="m 60.94415,82.743236 c 0,0 1.459637,0.02177 2.454842,-0.93633 0.995207,-0.958109 0.718535,-2.013783 0.748274,-3.063732 0.04771,-1.6843 -0.100275,-8.143512 -0.100275,-8.143512 0,0 -0.006,-0.637655 0.643157,-0.767107 0.771616,-0.155899 7.53301,-1.460915 7.53301,-1.460915 0,0 0.464428,-0.108877 0.464428,0.326628 0,0.4355 0.130861,6.003455 -0.04423,6.859169 -0.05824,0.284616 -0.418757,0.464668 -0.707701,0.522602 -0.904342,0.181334 -1.894551,0.161527 -2.875042,0.871008 -1.316338,1.106482 -0.788077,3.05597 0.576713,3.750042 1.66929,0.617644 3.819628,-0.249701 4.067585,-2.051581 0.110579,-0.544378 0.203981,-9.628418 0.06635,-14.371596 -0.0068,-0.23138 -0.15481,-0.50083 -0.530776,-0.457278 -0.375967,0.04355 -9.598213,1.872663 -9.598213,1.872663 0,0 -0.552892,0.152427 -0.597124,0.653256 -0.04423,0.500825 -0.115877,10.982949 -0.115877,10.982949 0,0 0.04954,0.536101 -0.658171,0.666754 -0.707702,0.13065 -1.969211,0.15495 -2.875039,0.89278 -1.710813,1.623939 -0.593497,3.904317 1.548095,3.8542 z"
         style="fill:#ffffff;fill-opacity:1;stroke:#800000;stroke-width:0.17827517;stroke-linecap:butt;stroke-linejoin:miter;stroke-miterlimit:4;stroke-dasharray:none;stroke-opacity:1" />
    </g>
  </g>
</svg>
