<?xml version="1.0" encoding="UTF-8" standalone="no"?>
<!-- Created with Inkscape (http://www.inkscape.org/) -->

<svg
   xmlns:osb="http://www.openswatchbook.org/uri/2009/osb"
   xmlns:dc="http://purl.org/dc/elements/1.1/"
   xmlns:cc="http://creativecommons.org/ns#"
   xmlns:rdf="http://www.w3.org/1999/02/22-rdf-syntax-ns#"
   xmlns:svg="http://www.w3.org/2000/svg"
   xmlns="http://www.w3.org/2000/svg"
   xmlns:xlink="http://www.w3.org/1999/xlink"
   xmlns:sodipodi="http://sodipodi.sourceforge.net/DTD/sodipodi-0.dtd"
   xmlns:inkscape="http://www.inkscape.org/namespaces/inkscape"
   width="128"
   height="128"
   viewBox="0 0 33.866666 33.866668"
   version="1.1"
   id="svg8"
   inkscape:version="0.92.2 5c3e80d, 2017-08-06"
   sodipodi:docname="org 2.svg">
  <defs
     id="defs2">
    <linearGradient
       inkscape:collect="always"
       id="linearGradient2480">
      <stop
         style="stop-color:#aa9d8e;stop-opacity:1"
         offset="0"
         id="stop2476" />
      <stop
         style="stop-color:#dedacb;stop-opacity:1"
         offset="1"
         id="stop2478" />
    </linearGradient>
    <linearGradient
       inkscape:collect="always"
       id="linearGradient2467">
      <stop
         style="stop-color:#ee872e;stop-opacity:1"
         offset="0"
         id="stop2463" />
      <stop
         style="stop-color:#f0c44c;stop-opacity:1"
         offset="1"
         id="stop2465" />
    </linearGradient>
    <linearGradient
       id="linearGradient1830">
      <stop
         id="stop1826"
         style="stop-color:#d9d9d9;stop-opacity:1"
         offset="0" />
      <stop
         id="stop1828"
         style="stop-color:#ffffff;stop-opacity:1;"
         offset="1" />
    </linearGradient>
    <linearGradient
       osb:paint="solid"
       id="linearGradient6987">
      <stop
         id="stop6985"
         offset="0"
         style="stop-color:#77d2fb;stop-opacity:1;" />
    </linearGradient>
    <linearGradient
       gradientTransform="matrix(0.95425071,0,0,0.95459254,78.360139,12.720548)"
       gradientUnits="userSpaceOnUse"
       y2="296.16849"
       x2="4.5843229"
       y1="263.52237"
       x1="29.203474"
       id="linearGradient1503-8"
       xlink:href="#linearGradient1830"
       inkscape:collect="always" />
    <filter
       color-interpolation-filters="sRGB"
       filterUnits="objectBoundingBox"
       height="400%"
       width="400%"
       y="-200%"
       x="-200%"
       id="a">
      <feGaussianBlur
         id="feGaussianBlur2323"
         stdDeviation="2.12" />
    </filter>
    <filter
       color-interpolation-filters="sRGB"
       filterUnits="objectBoundingBox"
       height="400%"
       width="400%"
       y="-200%"
       x="-200%"
       id="b">
      <feGaussianBlur
         id="feGaussianBlur2330"
         stdDeviation="8.48" />
    </filter>
    <linearGradient
       inkscape:collect="always"
       xlink:href="#linearGradient2467"
       id="linearGradient2469"
       x1="53.165771"
       y1="282.33545"
       x2="65.391403"
       y2="272.7565"
       gradientUnits="userSpaceOnUse"
       gradientTransform="matrix(0.94403215,0,0,0.94401559,35.112481,16.347376)" />
    <linearGradient
       inkscape:collect="always"
       xlink:href="#linearGradient2480"
       id="linearGradient2482"
       x1="58.115746"
       y1="285.27771"
       x2="69.276642"
       y2="277.7207"
       gradientUnits="userSpaceOnUse"
       gradientTransform="matrix(0.94403215,0,0,0.94401559,35.112481,16.347376)" />
  </defs>
  <sodipodi:namedview
     id="base"
     pagecolor="#ffffff"
     bordercolor="#666666"
     borderopacity="1.0"
     inkscape:pageopacity="0.0"
     inkscape:pageshadow="2"
     inkscape:zoom="1.6710923"
     inkscape:cx="286.97291"
     inkscape:cy="64.622706"
     inkscape:document-units="mm"
     inkscape:current-layer="layer1"
     showgrid="false"
     units="px"
     inkscape:window-width="1600"
     inkscape:window-height="798"
     inkscape:window-x="0"
     inkscape:window-y="0"
     inkscape:window-maximized="1"
     showguides="false"
     inkscape:snap-nodes="false" />
  <metadata
     id="metadata5">
    <rdf:RDF>
      <cc:Work
         rdf:about="">
        <dc:format>image/svg+xml</dc:format>
        <dc:type
           rdf:resource="http://purl.org/dc/dcmitype/StillImage" />
        <dc:title />
      </cc:Work>
    </rdf:RDF>
  </metadata>
  <g
     inkscape:label="Layer 1"
     inkscape:groupmode="layer"
     id="layer1"
     transform="translate(0,-263.13332)">
    <g
       style="stroke-width:4.08449793"
       inkscape:transform-center-y="-9.4924686"
       inkscape:transform-center-x="5.4653607"
       inkscape:label="Capa 1"
       id="layer1-4-3"
       transform="matrix(0.53602412,0,0,0.5372689,-234.93365,-13.785303)">
      <g
         style="stroke-width:4.08449793"
         id="layer1-3-65-9"
         inkscape:label="Capa 1"
         transform="translate(0.41988239,0.03484499)" />
    </g>
    <g
       style="stroke-width:4.08449793"
       inkscape:transform-center-y="-9.4924686"
       inkscape:transform-center-x="5.4653607"
       inkscape:label="Capa 1"
       id="layer1-4"
       transform="matrix(0.53602412,0,0,0.5372689,-234.93365,-13.7603)">
      <g
         style="stroke-width:4.08449793"
         id="layer1-3-65"
         inkscape:label="Capa 1"
         transform="translate(0.41988239,0.03484499)" />
    </g>
    <g
       style="stroke-width:4.08449793"
       inkscape:transform-center-y="-9.4924686"
       inkscape:transform-center-x="5.4653607"
       inkscape:label="Capa 1"
       id="layer1-4-3-2"
       transform="matrix(0.51126596,0,0,0.51245325,-269.32006,5.6156869)">
      <g
         style="stroke-width:4.08449793"
         id="layer1-3-65-9-9"
         inkscape:label="Capa 1"
         transform="translate(0.41988239,0.03484499)" />
    </g>
    <g
       style="stroke-width:4.08449793"
       inkscape:transform-center-y="-9.4924686"
       inkscape:transform-center-x="5.4653607"
       inkscape:label="Capa 1"
       id="layer1-4-1"
       transform="matrix(0.51126596,0,0,0.51245325,-269.32006,5.6395364)">
      <g
         style="stroke-width:4.08449793"
         id="layer1-3-65-2"
         inkscape:label="Capa 1"
         transform="translate(0.41988239,0.03484499)" />
    </g>
    <g
       id="g2721"
       transform="translate(-77.585453,-1.6663686e-5)">
      <path
         sodipodi:nodetypes="ccccascscsscc"
         inkscape:connector-curvature="0"
         id="path5023-4"
         d="m 82.734732,264.84258 v 31.09909 h 23.568108 v -17.45093 c -0.045,-0.79273 -0.0969,-1.50223 -0.29789,-2.22157 -0.20445,-0.73175 -0.52664,-1.42462 -0.9117,-2.08767 -0.49271,-0.84842 -1.32535,-1.39544 -2.06538,-2.09075 -0.44896,-0.4073 -1.41864,-1.3748 -2.59235,-2.52995 -1.164107,-1.14569 -2.529411,-2.47643 -3.669227,-3.51028 -0.33665,-0.30391 -0.825672,-0.61929 -1.279998,-0.80144 -0.352787,-0.14143 -0.767815,-0.22947 -1.168524,-0.28863 -0.413185,-0.061 -0.811146,-0.0913 -1.10995,-0.11787 z"
         style="opacity:0.25;fill:#000000;fill-opacity:1;stroke:none;stroke-width:1.87499988;stroke-miterlimit:4;stroke-dasharray:none;stroke-opacity:1" />
      <path
         style="opacity:1;fill:url(#linearGradient1503-8);fill-opacity:1;stroke:#808080;stroke-width:0.30000001;stroke-miterlimit:4;stroke-dasharray:none;stroke-opacity:1"
         d="m 82.734732,264.34167 v 31.09909 h 23.568108 v -17.45092 c -0.045,-0.79273 -0.0969,-1.50223 -0.29789,-2.22157 -0.20445,-0.73176 -0.52664,-1.42463 -0.9117,-2.08768 -0.49271,-0.84841 -1.32535,-1.39544 -2.06538,-2.09074 -0.44896,-0.40731 -1.41864,-1.37481 -2.59235,-2.52996 -1.164107,-1.14567 -2.529411,-2.47643 -3.669227,-3.51028 -0.33665,-0.30391 -0.825672,-0.6193 -1.279998,-0.80144 -0.352787,-0.14143 -0.767815,-0.22947 -1.168524,-0.28863 -0.413185,-0.061 -0.811146,-0.0913 -1.10995,-0.11787 z"
         id="path4623-8"
         inkscape:connector-curvature="0"
         sodipodi:nodetypes="ccccascscsscc" />
      <g
         transform="matrix(0.95325104,0,0,0.95360241,78.377067,12.997915)"
         id="g1024"
         style="stroke-width:1.04884827">
        <path
           sodipodi:nodetypes="cccccccccccccccccccccccccccccccccccccccccccccccccccccccccccccccccccccccccccccccccccccccccccccccccccccccccccccccccccccccccccccccccccccccccccccccccccccccccccccccccccccccccccccccccccccccccccccccccccccccccccccccccccccccccccccccccccccccccccccccccccccccccccccccccccccccccccccccccccccccccccccccccccccccccccccccccc"
           inkscape:connector-curvature="0"
           d="m 7.704872,268.00872 h 1.698695 z m 1.947836,0 h 1.585448 z m 1.834589,0 h 1.404254 z m 1.630747,0 h 0.61153 z m 0.860673,0 h 1.358955 z m 1.630747,0 h 3.578582 z m -7.904592,0.87396 h 2.649963 z m 2.944403,0 h 1.268358 z m 1.494851,0 h 0.634179 z m 0.883321,0 h 1.155113 z m 1.404255,0 h 1.177762 z m 1.404254,0 h 1.879888 z m 2.12903,0 h 2.446121 z m 2.672614,0 h 1.630746 z m 1.857239,0 h 0.407687 z m -14.789967,0.86713 h 2.242276 z m 2.46877,0 h 3.66918 z m 3.895671,0 h 1.789293 z m 2.015785,0 h 1.676044 z m 1.902538,0 h 1.426903 z m 1.653397,0 2.242276,0.0136 z m 2.44612,0.0136 h 2.072661 z m -14.382281,0.86713 h 3.102947 z m 3.35209,0 h 3.352091 z m 3.578582,0 h 1.336307 z m 1.5628,0 h 3.148247 z m 3.352091,0 h 2.15168 z m 2.400822,0 h 0.860672 z m 1.087165,0 h 0.475634 z m 0.724776,0 h 1.336307 z m -16.058326,0.87397 h 1.155112 z m 1.517501,0 h 4.280709 z m -1.517501,1.74108 h 2.242276 z m 2.46877,0 h 3.66918 z m 3.895671,0 h 1.789293 z m 2.015785,0 h 1.676044 z m 1.902538,0 h 1.426903 z m 1.653397,0 2.242276,0.0137 z m 2.44612,0.0137 h 3.646532 z m -14.382281,0.86713 h 1.698695 z m 1.947836,0 h 1.562799 z m 1.834589,0 h 1.404254 z m 1.630747,0 h 0.61153 z m 0.860673,0 h 1.358955 z m 1.630747,0 h 3.555933 z m 3.805075,0 h 2.717912 z m 2.944405,0 h 0.860672 z m 1.087164,0 h 2.038433 z m -15.741236,0.87396 h 2.853806 z m 3.080298,0 h 3.057652 z m 3.284143,0 h 1.177762 z m 1.404255,0 h 2.876456 z m 3.102949,0 h 3.623881 z m 3.873023,0 h 1.336307 z m -14.744668,0.87396 h 3.102947 z m 3.35209,0 h 3.352091 z m 3.578582,0 h 1.336307 z m 1.5628,0 h 3.148247 z m 3.352091,0 h 2.15168 z m 2.400822,0 h 0.860672 z m 1.087165,0 h 0.475634 z m 0.724776,0 h 1.336307 z m -16.058326,0.87395 h 2.649963 z m 2.944403,0 h 1.268358 z m 1.494851,0 h 0.634179 z m 0.883321,0 h 1.155113 z m 1.404255,0 h 1.177762 z m 1.404254,0 h 1.879888 z m 2.12903,0 h 2.446121 z m 2.672614,0 h 1.630746 z m 1.857239,0 h 0.407687 z m -14.789967,1.74109 h 2.242276 z m 2.46877,0 h 3.66918 z m 3.895671,0 h 1.789293 z m 2.015785,0 h 1.676044 z m 1.902538,0 h 1.426903 z m 1.653397,0 2.242276,0.0137 z m 2.44612,0.0137 h 3.646532 z m -14.382281,0.86713 h 2.649963 z m 2.944403,0 h 1.268358 z m 1.494851,0 h 0.634179 z m 0.883321,0 h 1.155113 z m 1.404255,0 h 1.177762 z m 1.404254,0 h 1.879888 z m 2.12903,0 h 2.446121 z m 2.672614,0 h 1.630746 z m 1.857239,0 h 0.407687 z m -14.789967,0.87397 h 2.808508 z m 3.05765,0 h 0.88332 z m 1.109814,0 h 2.015783 z m 2.242276,0 h 2.967053 z m 3.216195,0 h 2.015784 z m 2.219628,0 h 0.430335 z m 0.656829,0 h 2.559366 z m 2.831158,0 h 1.336307 z m -15.33355,0.87395 h 2.808509 z m 3.05765,0 h 1.268358 z m 1.494851,0 h 1.993135 z m 2.219627,0 h 2.15168 z m 2.400823,0 h 0.860671 z m 1.087163,0 h 0.475635 z m 0.724777,0 h 1.336307 z"
           id="path997"
           style="fill:none;stroke:#4f4f4f;stroke-width:0.3146545;stroke-linecap:butt;stroke-linejoin:miter;stroke-miterlimit:4;stroke-dasharray:none;stroke-opacity:1" />
        <path
           style="fill:none;stroke:#4f4f4f;stroke-width:0.3146545;stroke-linecap:butt;stroke-linejoin:miter;stroke-miterlimit:4;stroke-dasharray:none;stroke-opacity:1"
           id="path999"
           d="m 7.704872,293.33306 h 3.102947 z m 3.35209,0 h 3.352091 z m -3.35209,-0.87397 h 1.155112 z m 1.517501,0 h 4.280709 z m -1.517501,-1.74108 h 2.242276 z m 2.46877,0 h 3.66918 z m 3.895671,0 h 1.789293 z m 2.015785,0 h 1.676044 z m 1.902538,0 h 1.426903 z m 1.653397,0 2.242276,-0.0137 z m 2.44612,-0.0137 h 3.646532 z M 7.704872,289.83718 h 1.698695 z m 1.947836,0 h 1.562799 z m 1.834589,0 h 1.404254 z m 1.630747,0 h 0.61153 z m 0.860673,0 h 1.358955 z m 1.630747,0 h 3.555933 z m 3.805075,0 h 2.717912 z m 2.944405,0 h 0.860672 z m 1.087164,0 h 2.038433 z M 7.704872,288.96322 h 2.853806 z m 3.080298,0 h 3.057652 z m 3.284143,0 h 1.177762 z m 1.404255,0 h 2.876456 z m 3.102949,0 h 3.623881 z m 3.873023,0 h 1.336307 z M 7.704872,288.08926 h 3.102947 z m 3.35209,0 h 3.352091 z m 3.578582,0 h 1.336307 z m 1.5628,0 h 3.148247 z m 3.352091,0 h 2.15168 z m 2.400822,0 h 0.860672 z m 1.087165,0 h 0.475634 z m 0.724776,0 h 1.336307 z M 7.704872,287.21531 h 2.649963 z m 2.944403,0 h 1.268358 z m 1.494851,0 h 0.634179 z m 0.883321,0 h 1.155113 z m 1.404255,0 h 1.177762 z m 1.404254,0 h 1.879888 z m 2.12903,0 h 2.446121 z m 2.672614,0 h 1.630746 z m 1.857239,0 h 0.407687 z M 7.704872,285.47422 h 2.242276 z m 2.46877,0 h 3.66918 z m 3.895671,0 h 1.789293 z m 2.015785,0 h 1.676044 z m 1.902538,0 h 1.426903 z m 1.653397,0 2.242276,-0.0137 z m 2.44612,-0.0137 h 3.646532 z M 7.704872,284.59339 h 2.649963 z m 2.944403,0 h 1.268358 z m 1.494851,0 h 0.634179 z m 0.883321,0 h 1.155113 z m 1.404255,0 h 1.177762 z m 1.404254,0 h 1.879888 z m 2.12903,0 h 2.446121 z m 2.672614,0 h 1.630746 z m 1.857239,0 h 0.407687 z M 7.704872,283.71942 h 2.808508 z m 3.05765,0 h 0.88332 z m 1.109814,0 h 2.015783 z m 2.242276,0 h 2.967053 z m 3.216195,0 h 2.015784 z m 2.219628,0 h 0.430335 z m 0.656829,0 h 2.559366 z m 2.831158,0 h 1.336307 z m -15.33355,-0.87395 h 2.808509 z m 3.05765,0 h 1.268358 z m 1.494851,0 h 1.993135 z m 2.219627,0 h 2.15168 z m 2.400823,0 h 0.860671 z m 1.087163,0 h 0.475635 z m 0.724777,0 h 1.336307 z"
           inkscape:connector-curvature="0"
           sodipodi:nodetypes="cccccccccccccccccccccccccccccccccccccccccccccccccccccccccccccccccccccccccccccccccccccccccccccccccccccccccccccccccccccccccccccccccccccccccccccccccccccccccccccccccccccccccccccccccccccccccccccccccccccccccccccccccccccccccccccc" />
        <path
           sodipodi:nodetypes="cccccc"
           inkscape:connector-curvature="0"
           d="m 7.704872,266.41556 h 1.481599 z m 1.937448,0 h 1.77596 z"
           id="path1001"
           style="fill:none;stroke:#4f4f4f;stroke-width:0.3146545;stroke-linecap:butt;stroke-linejoin:miter;stroke-miterlimit:4;stroke-dasharray:none;stroke-opacity:1" />
      </g>
      <path
         inkscape:connector-curvature="0"
         style="opacity:0.25;fill:#000000;fill-opacity:1;stroke:none;stroke-width:0.1;stroke-linecap:round;stroke-linejoin:round;stroke-miterlimit:4;stroke-dasharray:none;stroke-opacity:1"
         d="m 99.651556,273.61473 c -0.238063,-0.01 -0.46433,0.0908 -0.674199,0.35075 l -8.510404,10.22792 c -0.431372,0.46583 -0.790676,1.01788 -0.967879,1.62204 -0.10856,0.37012 -0.163852,0.79219 -0.03756,1.15666 0.311066,0.89769 0.944975,1.44492 1.83575,2.18012 l 3.513928,2.90018 c 0.322674,0.26108 0.661162,0.26351 0.976658,-0.0234 l 9.81441,-12.4622 c 0.31285,-0.48964 0.33874,-1.00175 0.0624,-1.38789 -0.10931,-0.15277 -0.54004,-0.45661 -0.54004,-0.45661 l -5.03307,-3.98023 c -0.150098,-0.0755 -0.297188,-0.12137 -0.440026,-0.12732 z m 2.021614,2.64942 a 0.90294542,0.90292957 0 0 1 0.903,0.90298 0.90294542,0.90292957 0 0 1 -0.903,0.90298 0.90294542,0.90292957 0 0 1 -0.90299,-0.90298 0.90294542,0.90292957 0 0 1 0.90299,-0.90298 z"
         id="path2676" />
      <path
         id="path2459"
         d="m 99.651555,273.11519 c -0.238063,-0.01 -0.46433,0.0908 -0.674198,0.35075 l -8.510405,10.22792 c -0.431371,0.46583 -0.790675,1.01789 -0.967878,1.62205 -0.10856,0.37012 -0.163853,0.79218 -0.03756,1.15665 0.311065,0.89769 0.944974,1.44492 1.83575,2.18013 l 3.513927,2.90017 c 0.322674,0.26108 0.661162,0.26352 0.976658,-0.0234 l 9.814401,-12.46219 c 0.31285,-0.48964 0.33875,-1.00175 0.0624,-1.38789 -0.10931,-0.15277 -0.54004,-0.45661 -0.54004,-0.45661 l -5.03307,-3.98025 c -0.150102,-0.0755 -0.297192,-0.12136 -0.440031,-0.12732 z m 2.021615,2.64942 a 0.90294541,0.90292957 0 0 1 0.903,0.90298 0.90294541,0.90292957 0 0 1 -0.903,0.90298 0.90294541,0.90292957 0 0 1 -0.90299,-0.90298 0.90294541,0.90292957 0 0 1 0.90299,-0.90298 z"
         style="fill:url(#linearGradient2482);fill-opacity:1;stroke:#4d4d4d;stroke-width:0.1;stroke-linecap:round;stroke-linejoin:round;stroke-miterlimit:4;stroke-dasharray:none;stroke-opacity:1"
         inkscape:connector-curvature="0" />
      <path
         inkscape:connector-curvature="0"
         style="opacity:0.25;fill:#000000;fill-opacity:1;stroke:none;stroke-width:0.1;stroke-linecap:round;stroke-linejoin:round;stroke-miterlimit:4;stroke-dasharray:none;stroke-opacity:1"
         d="m 95.838583,272.11903 c -0.182571,-0.0173 -0.376176,0.04 -0.583948,0.19562 l -10.456408,7.59069 c -0.517446,0.33524 -0.987803,0.76895 -1.299125,1.2952 -0.190725,0.3224 -0.343888,0.70633 -0.312218,1.07957 0.078,0.91933 0.543452,1.5863 1.205946,2.49137 l 2.613371,3.57046 c 0.241235,0.32293 0.559311,0.40603 0.924947,0.21122 l 12.218492,-9.38152 c 0.41159,-0.38601 0.55892,-0.86225 0.39125,-1.29178 -0.0663,-0.16993 -0.39905,-0.55858 -0.39905,-0.55858 l -3.784682,-4.95053 c -0.164279,-0.14266 -0.336007,-0.23447 -0.518575,-0.25172 z m 1.349857,2.93286 a 0.85010038,0.90146431 0 0 1 0.85031,0.90151 0.85010038,0.90146431 0 0 1 -0.85031,0.90152 0.85010038,0.90146431 0 0 1 -0.84982,-0.90152 0.85010038,0.90146431 0 0 1 0.84982,-0.90151 z"
         id="path2674" />
      <path
         inkscape:connector-curvature="0"
         style="opacity:0.5;fill:#ffffff;fill-opacity:1;stroke:none;stroke-width:0.1;stroke-linecap:round;stroke-linejoin:round;stroke-miterlimit:4;stroke-dasharray:none;stroke-opacity:1"
         d="m 100.29068,273.42628 -5.768025,6.25022 0.974923,0.81004 5.637272,-6.33012 z m -6.130698,6.64316 -0.398815,0.43234 0.990526,0.82274 0.390916,-0.43917 z m -0.761486,0.82526 -1.537302,1.66548 1.028669,0.85517 1.506382,-1.69193 z m -0.508633,2.52065 -0.355069,0.39832 -1.036272,-0.86055 -0.345117,0.37433 1.042915,0.86614 -0.354973,0.39879 0.693546,-0.77823 z m -1.048516,1.17703 -1.050614,-0.872 -1.616989,1.75184 c 0.0084,0.0541 0.01927,0.10781 0.03489,0.16016 0.135887,0.45546 0.36017,0.82409 0.658265,1.17745 z"
         id="path2672" />
      <path
         id="path1882"
         d="m 95.838582,271.61949 c -0.182571,-0.0172 -0.376176,0.0401 -0.583947,0.19562 l -10.456408,7.59069 c -0.517446,0.33524 -0.987803,0.76895 -1.299125,1.2952 -0.190726,0.3224 -0.343888,0.70633 -0.312219,1.07958 0.07801,0.91933 0.543453,1.58629 1.205947,2.49136 l 2.61337,3.57046 c 0.241235,0.32292 0.559311,0.40603 0.924947,0.21123 l 12.218493,-9.38153 c 0.41159,-0.38601 0.55892,-0.86225 0.39125,-1.29178 -0.0663,-0.16994 -0.39905,-0.55857 -0.39905,-0.55857 l -3.784682,-4.95054 c -0.16428,-0.14266 -0.336008,-0.23447 -0.518576,-0.25172 z m 1.349858,2.93286 a 0.85010037,0.90146432 0 0 1 0.850309,0.90151 0.85010037,0.90146432 0 0 1 -0.850309,0.90152 0.85010037,0.90146432 0 0 1 -0.84982,-0.90152 0.85010037,0.90146432 0 0 1 0.84982,-0.90151 z"
         style="fill:url(#linearGradient2469);fill-opacity:1;stroke:#804919;stroke-width:0.1;stroke-linecap:round;stroke-linejoin:round;stroke-miterlimit:4;stroke-dasharray:none;stroke-opacity:1"
         inkscape:connector-curvature="0" />
      <path
         id="path2348"
         d="m 90.867634,280.06151 c -0.867328,-0.062 -1.61715,0.54066 -1.674705,1.34601 -0.01798,0.25168 0.03393,0.49405 0.139988,0.70935 3.54e-4,6.4e-4 -5.67e-4,0.002 -2.3e-4,0.003 l -3.105133,2.49581 -0.04169,0.58337 0.628195,0.0448 0.223298,-0.17957 0.02778,-0.38884 0.418799,0.0299 0.223299,-0.17956 0.418797,0.0299 0.223301,-0.17958 0.02778,-0.38884 0.223302,-0.17957 0.418795,0.0299 0.02778,-0.38884 0.872187,-0.70103 c 7.4e-4,4.6e-4 0.0025,-2.1e-4 0.0033,2.4e-4 0.214568,0.12815 0.465664,0.2105 0.736626,0.22986 0.867329,0.0619 1.617148,-0.54066 1.674704,-1.34599 l 4.57e-4,-0.007 c 0.05471,-0.80385 -0.601263,-1.50254 -1.466706,-1.56438 z m 0.258518,0.80014 c 0.230757,0.0165 0.405478,0.20451 0.391006,0.41879 -0.01535,0.21484 -0.2152,0.37544 -0.446586,0.35891 -0.231386,-0.0165 -0.40636,-0.20394 -0.391006,-0.41877 0.01535,-0.21485 0.215199,-0.37547 0.446586,-0.35893 z"
         inkscape:connector-curvature="0"
         style="opacity:0.5;isolation:isolate;fill:#f3d270;fill-opacity:1;stroke:#804919;stroke-width:0.05;stroke-miterlimit:4;stroke-dasharray:none;stroke-opacity:1" />
      <path
         style="opacity:0.5;isolation:isolate;fill:#ffffff;fill-opacity:1;stroke:#333333;stroke-width:0.05;stroke-miterlimit:4;stroke-dasharray:none;stroke-opacity:1"
         inkscape:connector-curvature="0"
         d="m 97.246792,282.8845 c -0.886836,0.10718 -1.525091,0.86172 -1.425536,1.68516 0.03111,0.25735 0.130896,0.49162 0.279989,0.68799 4.81e-4,5.7e-4 -1.95e-4,0.002 3.25e-4,0.003 l -2.643114,3.12464 0.07211,0.59647 0.642308,-0.0777 0.190056,-0.2248 -0.04807,-0.39757 0.428213,-0.0517 0.19006,-0.2248 0.428212,-0.0518 0.190058,-0.22479 -0.04807,-0.39758 0.190059,-0.2248 0.428211,-0.0517 -0.04808,-0.39758 0.742414,-0.87764 c 8.35e-4,3.1e-4 0.0025,-7.1e-4 0.0034,-4.2e-4 0.24147,0.0872 0.510811,0.12121 0.787868,0.0876 0.886818,-0.10728 1.52509,-0.8617 1.42554,-1.68514 l -8.51e-4,-0.007 c -0.102133,-0.82139 -0.900403,-1.39767 -1.785302,-1.29068 z m 0.417293,0.75636 c 0.235951,-0.0285 0.448943,0.1269 0.476279,0.34583 0.02656,0.21968 -0.143558,0.42075 -0.380144,0.44936 -0.236589,0.0287 -0.449723,-0.12616 -0.476279,-0.34583 -0.02657,-0.21967 0.143554,-0.42076 0.380144,-0.44936 z"
         id="path2461" />
      <path
         id="path2489"
         d="m 96.524487,272.08976 -6.921015,4.94322 0.789327,0.99177 6.809301,-5.04811 z m -7.356171,5.25397 -0.478574,0.34197 0.802013,1.00738 0.472233,-0.35027 z m -0.913727,0.65272 -1.844532,1.31715 0.832745,1.04689 1.819652,-1.34935 z m -1.011787,2.36404 -0.428812,0.31758 -0.839089,-1.05372 -0.414177,0.29612 0.844454,1.06055 -0.428814,0.31806 0.837626,-0.62052 z m -1.266438,0.93859 -0.850796,-1.06786 -1.940149,1.38544 c -0.0028,0.0547 -0.0031,0.10949 0.0015,0.16392 0.04019,0.4736 0.184619,0.88019 0.404421,1.2869 z"
         style="opacity:0.5;fill:#f6e093;fill-opacity:1;stroke:none;stroke-width:0.05;stroke-linecap:round;stroke-linejoin:round;stroke-miterlimit:4;stroke-dasharray:none;stroke-opacity:1"
         inkscape:connector-curvature="0" />
      <g
         style="opacity:0.1;stroke:#000000;stroke-width:1.11104"
         id="g2557"
         transform="matrix(0.54834785,0.71352373,-0.71379927,0.54854035,279.86572,122.12957)">
        <path
           style="fill:none;stroke:#000000;stroke-width:0.333312;stroke-linecap:butt;stroke-linejoin:miter;stroke-miterlimit:4;stroke-dasharray:none;stroke-opacity:1"
           id="path2551"
           d="m 7.704872,268.00872 h 1.698695 z m 1.947836,0 h 1.585448 z m 1.834589,0 h 1.404254 z m 1.630747,0 h 0.61153 z m 0.860673,0 h 1.358955 z m -6.273845,0.87396 h 2.649963 z m 2.944403,0 h 1.268358 z m 1.494851,0 h 0.634179 z m 0.883321,0 h 1.155113 z m 1.404255,0 h 1.177762 z m -6.72683,0.86713 h 2.242276 z m 2.46877,0 h 3.66918 z m -2.46877,0.88073 h 3.102947 z m 3.35209,0 h 3.352091 z"
           inkscape:connector-curvature="0"
           sodipodi:nodetypes="cccccccccccccccccccccccccccccccccccccccccc" />
        <path
           style="fill:none;stroke:#000000;stroke-width:0.333312;stroke-linecap:butt;stroke-linejoin:miter;stroke-miterlimit:4;stroke-dasharray:none;stroke-opacity:1"
           id="path2555"
           d="m 7.704872,266.41556 h 1.481599 z m 1.937448,0 h 1.77596 z"
           inkscape:connector-curvature="0"
           sodipodi:nodetypes="cccccc" />
      </g>
      <path
         style="opacity:0.24800002;fill:#000000;fill-opacity:1;stroke:none;stroke-width:0.30000001;stroke-miterlimit:4;stroke-dasharray:none;stroke-opacity:1"
         d="m 97.204866,266.16435 c 0.01557,0.0251 0.534906,0.86264 0.693767,1.33395 0.430474,0.96537 0.246492,3.78805 0.238665,5.39629 0.02642,-0.185 4.471232,-1.33106 6.778612,0.76731 -0.0147,-0.026 -0.0466,-0.0767 -0.11927,-0.17764 -0.069,-0.0958 -0.17421,-0.23759 -0.35428,-0.42172 -0.50341,-0.57647 -0.22013,-0.0806 -0.76775,-0.65035 -0.47347,-0.42957 -1.49612,-1.44994 -2.73391,-2.66823 -1.183162,-1.1645 -2.561317,-2.50754 -3.735834,-3.57961 z"
         id="path1355-8"
         inkscape:connector-curvature="0"
         sodipodi:nodetypes="ccccsccsc" />
      <path
         sodipodi:nodetypes="ccccccsc"
         inkscape:connector-curvature="0"
         id="path4753-0"
         d="m 96.893053,265.66579 c 0.01476,0.0238 0.507216,0.81794 0.657852,1.26481 0.40819,0.91534 0.278574,3.06871 0.271152,4.5936 0.408938,-0.0213 4.918303,-0.70281 6.985813,1.73944 -0.0279,-0.0482 -0.098,-0.0884 -0.13705,-0.16509 -0.47736,-0.54658 -1.08631,-0.98577 -1.64295,-1.50875 -0.44896,-0.4073 -1.41867,-1.37478 -2.59238,-2.52993 -1.121912,-1.10414 -2.428722,-2.37757 -3.542437,-3.39408 z"
         style="opacity:1;fill:#ffffff;fill-opacity:1;stroke:#808080;stroke-width:0.30000001;stroke-miterlimit:4;stroke-dasharray:none;stroke-opacity:1" />
    </g>
    <g
       style="stroke-width:4.28401899"
       inkscape:transform-center-y="-9.4924686"
       inkscape:transform-center-x="5.4653607"
       inkscape:label="Capa 1"
       id="layer1-4-3-3"
       transform="matrix(0.51096555,0,0,0.51234092,-145.57368,-0.14778316)">
      <g
         style="stroke-width:4.28401899"
         id="layer1-3-65-9-90"
         inkscape:label="Capa 1"
         transform="translate(0.41988239,0.03484499)" />
    </g>
    <g
       style="stroke-width:4.28401899"
       inkscape:transform-center-y="-9.4924686"
       inkscape:transform-center-x="5.4653607"
       inkscape:label="Capa 1"
       id="layer1-4-5"
       transform="matrix(0.51096555,0,0,0.51234092,-145.57368,-0.12394024)">
      <g
         style="stroke-width:4.28401899"
         id="layer1-3-65-22"
         inkscape:label="Capa 1"
         transform="translate(0.41988239,0.03484499)" />
    </g>
    <path
       style="opacity:0.2;isolation:isolate;vector-effect:non-scaling-stroke;fill:none;stroke:#000000;stroke-width:1.05833328"
       inkscape:connector-curvature="0"
       d="m -266.24574,205.90495 c -9.33873,0 -10.34362,0.95912 -10.29784,10.31716 v 38.63235 c -0.0458,9.35804 0.95911,10.31716 10.29784,10.31716 h 25.97071 c 9.339,0 10.29811,-0.95912 10.29811,-10.31716 v -38.63235 c 0,-9.35804 -0.95911,-10.31716 -10.29811,-10.31716 z"
       id="path2321" />
    <path
       style="opacity:0.1;isolation:isolate;filter:url(#a)"
       inkscape:connector-curvature="0"
       d="M 78.924,16.5 C 43.628,16.5 39.83,20.125 40.003,55.494 V 201.506 C 39.83,236.875 43.628,240.5 78.924,240.5 h 98.157 c 35.297,0 38.003,-3.637 38.922,-38.994 V 55.494 c 0,-35.369 -3.625,-38.994 -38.922,-38.994 z"
       id="path2328"
       transform="matrix(0.26458333,0,0,0.26458333,-287.12771,201.80391)" />
    <g
       style="opacity:0.3;isolation:isolate;filter:url(#b)"
       id="g2344"
       transform="matrix(0.26458333,0,0,0.26458333,-287.12771,201.80391)">
      <linearGradient
         id="c"
         x1="-0.068000004"
         y1="0.030999999"
         x2="0.954"
         y2="1.053"
         gradientTransform="matrix(176.0054,0,0,224,39.997,16.5)"
         gradientUnits="userSpaceOnUse">
        <stop
           offset="0%"
           stop-opacity=".588"
           id="stop2335" />
        <stop
           offset="88%"
           stop-opacity="0"
           id="stop2337" />
        <stop
           offset="100%"
           id="stop2339" />
      </linearGradient>
      <path
         style="fill:url(#c)"
         inkscape:connector-curvature="0"
         d="M 78.924,16.5 C 43.628,16.5 39.83,20.125 40.003,55.494 V 201.506 C 39.83,236.875 43.628,240.5 78.924,240.5 h 98.157 c 35.297,0 38.922,-3.625 38.922,-38.994 V 55.494 c 0,-35.369 -3.625,-38.994 -38.922,-38.994 z"
         id="path2342" />
    </g>
    <path
       style="isolation:isolate;fill:#cdcdcd;stroke-width:0.26458332"
       inkscape:connector-curvature="0"
       d="m -266.24574,205.90495 c -9.33873,0 -10.34362,0.95912 -10.29784,10.31716 v 38.63235 c -0.0458,9.35804 0.95911,10.31716 10.29784,10.31716 h 25.97071 c 9.339,0 10.29811,-0.95912 10.29811,-10.31716 v -38.63235 c 0,-9.35804 -0.95911,-10.31716 -10.29811,-10.31716 z"
       id="path2346" />
    <path
       style="opacity:0.6;isolation:isolate;fill:#ffffff;stroke-width:0.26458332"
       inkscape:connector-curvature="0"
       d="m -266.24547,205.90495 c -9.339,0 -10.34389,0.95938 -10.29811,10.31716 v 0.52917 c -0.0458,-9.35778 0.95911,-10.31716 10.29811,-10.31716 h 25.97044 c 9.339,0 10.29811,0.95938 10.29811,10.31716 v -0.52917 c 0,-9.35778 -0.95911,-10.31716 -10.29811,-10.31716 z"
       id="path2350" />
    <path
       style="opacity:0.1;isolation:isolate;fill:#ffffff;stroke-width:0.26458332"
       inkscape:connector-curvature="0"
       d="m -172.20417,228.29613 v 59.26667 h 12.98522 c 9.339,0 10.05496,-0.96203 10.29811,-10.3169 v -38.63287 c 0,-9.35778 -0.95911,-10.3169 -10.29811,-10.3169 z"
       id="path2352" />
    <path
       style="opacity:0.4;isolation:isolate;fill:#ffffff;stroke-width:0.26458332"
       inkscape:connector-curvature="0"
       d="m -245.85192,265.17162 15.875,-15.875 v 5.94889 c -0.014,8.99477 -1.00621,9.92611 -10.1002,9.92611 z"
       id="path2354" />
  </g>
</svg>
