<?xml version="1.0" encoding="UTF-8" standalone="no"?>
<!-- Created with Inkscape (http://www.inkscape.org/) -->

<svg
   xmlns:osb="http://www.openswatchbook.org/uri/2009/osb"
   xmlns:dc="http://purl.org/dc/elements/1.1/"
   xmlns:cc="http://creativecommons.org/ns#"
   xmlns:rdf="http://www.w3.org/1999/02/22-rdf-syntax-ns#"
   xmlns:svg="http://www.w3.org/2000/svg"
   xmlns="http://www.w3.org/2000/svg"
   xmlns:xlink="http://www.w3.org/1999/xlink"
   xmlns:sodipodi="http://sodipodi.sourceforge.net/DTD/sodipodi-0.dtd"
   xmlns:inkscape="http://www.inkscape.org/namespaces/inkscape"
   width="128"
   height="128"
   viewBox="0 0 33.866666 33.866668"
   version="1.1"
   id="svg1038"
   inkscape:version="0.92.1 r15371"
   sodipodi:docname="gnome-mime-text-x-makefile.svg">
  <defs
     id="defs1032">
    <linearGradient
       osb:paint="solid"
       id="linearGradient6987">
      <stop
         id="stop6985"
         offset="0"
         style="stop-color:#77d2fb;stop-opacity:1;" />
    </linearGradient>
    <linearGradient
       id="linearGradient1830">
      <stop
         offset="0"
         style="stop-color:#d9d9d9;stop-opacity:1"
         id="stop1826" />
      <stop
         offset="1"
         style="stop-color:#ffffff;stop-opacity:1;"
         id="stop1828" />
    </linearGradient>
    <linearGradient
       id="linearGradient4517"
       inkscape:collect="always">
      <stop
         id="stop4519"
         offset="0"
         style="stop-color:#7a756e;stop-opacity:1" />
      <stop
         id="stop4521"
         offset="1"
         style="stop-color:#adb3ad;stop-opacity:1" />
    </linearGradient>
    <linearGradient
       gradientTransform="matrix(0.23507098,0,0,0.23645277,-27.11229,226.08853)"
       gradientUnits="userSpaceOnUse"
       y2="195.26489"
       x2="76.203491"
       y1="262.01584"
       x1="66.190155"
       id="linearGradient4523"
       xlink:href="#linearGradient4517"
       inkscape:collect="always" />
    <linearGradient
       gradientTransform="matrix(0.95481176,0,0,0.95480184,-45.254586,18.486844)"
       gradientUnits="userSpaceOnUse"
       y2="296.16849"
       x2="4.5843229"
       y1="263.52237"
       x1="29.203474"
       id="linearGradient1503-8-3"
       xlink:href="#linearGradient1830"
       inkscape:collect="always" />
  </defs>
  <sodipodi:namedview
     id="base"
     pagecolor="#ffffff"
     bordercolor="#666666"
     borderopacity="1.0"
     inkscape:pageopacity="0.0"
     inkscape:pageshadow="2"
     inkscape:zoom="1.7030101"
     inkscape:cx="-22.442463"
     inkscape:cy="60.043639"
     inkscape:document-units="mm"
     inkscape:current-layer="layer1"
     showgrid="false"
     inkscape:window-width="1280"
     inkscape:window-height="960"
     inkscape:window-x="0"
     inkscape:window-y="27"
     inkscape:window-maximized="1"
     units="px"
     showguides="false" />
  <metadata
     id="metadata1035">
    <rdf:RDF>
      <cc:Work
         rdf:about="">
        <dc:format>image/svg+xml</dc:format>
        <dc:type
           rdf:resource="http://purl.org/dc/dcmitype/StillImage" />
        <dc:title />
      </cc:Work>
    </rdf:RDF>
  </metadata>
  <g
     inkscape:label="Layer 1"
     inkscape:groupmode="layer"
     id="layer1"
     transform="translate(0,-263.13332)">
    <g
       id="g4791"
       transform="translate(28.123556)">
      <g
         transform="matrix(0.53602412,0,0,0.5372689,-234.93365,-13.7853)"
         id="layer1-4-9-22"
         inkscape:label="Capa 1"
         inkscape:transform-center-x="5.4653607"
         inkscape:transform-center-y="-9.4924686"
         style="stroke-width:4.08449793">
        <g
           transform="translate(0.41988239,0.03484499)"
           inkscape:label="Capa 1"
           id="layer1-3-65-0-7"
           style="stroke-width:4.08449793" />
      </g>
      <g
         transform="matrix(0.53602412,0,0,0.5372689,-234.93365,-13.7603)"
         id="layer1-4-3"
         inkscape:label="Capa 1"
         inkscape:transform-center-x="5.4653607"
         inkscape:transform-center-y="-9.4924686"
         style="stroke-width:4.08449793">
        <g
           transform="translate(0.41988239,0.03484499)"
           inkscape:label="Capa 1"
           id="layer1-3-65-7"
           style="stroke-width:4.08449793" />
      </g>
      <g
         transform="matrix(0.53602412,0,0,0.5372689,-267.6877,-57.38336)"
         id="layer1-4-9-2"
         inkscape:label="Capa 1"
         inkscape:transform-center-x="5.4653607"
         inkscape:transform-center-y="-9.4924686"
         style="stroke-width:4.08449793">
        <g
           transform="translate(0.41988239,0.03484499)"
           inkscape:label="Capa 1"
           id="layer1-3-65-0-2"
           style="stroke-width:4.08449793" />
      </g>
      <g
         transform="matrix(0.53602412,0,0,0.5372689,-267.6877,-57.35836)"
         id="layer1-4-7"
         inkscape:label="Capa 1"
         inkscape:transform-center-x="5.4653607"
         inkscape:transform-center-y="-9.4924686"
         style="stroke-width:4.08449793">
        <g
           transform="translate(0.41988239,0.03484499)"
           inkscape:label="Capa 1"
           id="layer1-3-65-3"
           style="stroke-width:4.08449793" />
      </g>
      <g
         transform="matrix(0.53602412,0,0,0.5372689,-234.93365,-13.785303)"
         id="layer1-4-9"
         inkscape:label="Capa 1"
         inkscape:transform-center-x="5.4653607"
         inkscape:transform-center-y="-9.4924686"
         style="stroke-width:4.08449793">
        <g
           transform="translate(0.41988239,0.03484499)"
           inkscape:label="Capa 1"
           id="layer1-3-65-0"
           style="stroke-width:4.08449793" />
      </g>
      <g
         transform="matrix(0.53602412,0,0,0.5372689,-234.93365,-13.760303)"
         id="layer1-4"
         inkscape:label="Capa 1"
         inkscape:transform-center-x="5.4653607"
         inkscape:transform-center-y="-9.4924686"
         style="stroke-width:4.08449793">
        <g
           transform="translate(0.41988239,0.03484499)"
           inkscape:label="Capa 1"
           id="layer1-3-65"
           style="stroke-width:4.08449793" />
      </g>
      <g
         transform="translate(-28.123556)"
         inkscape:label="Layer 1"
         id="layer1-3">
        <g
           style="stroke-width:4.08449793"
           inkscape:transform-center-y="-9.4924686"
           inkscape:transform-center-x="5.4653607"
           inkscape:label="Capa 1"
           id="layer1-4-3-5"
           transform="matrix(0.53602412,0,0,0.5372689,-234.93365,-13.785303)">
          <g
             style="stroke-width:4.08449793"
             id="layer1-3-65-9"
             inkscape:label="Capa 1"
             transform="translate(0.41988239,0.03484499)" />
        </g>
        <g
           style="stroke-width:4.08449793"
           inkscape:transform-center-y="-9.4924686"
           inkscape:transform-center-x="5.4653607"
           inkscape:label="Capa 1"
           id="layer1-4-6"
           transform="matrix(0.53602412,0,0,0.5372689,-234.93365,-13.7603)">
          <g
             style="stroke-width:4.08449793"
             id="layer1-3-65-29"
             inkscape:label="Capa 1"
             transform="translate(0.41988239,0.03484499)" />
        </g>
        <g
           id="g5372"
           transform="translate(46.019774,-5.8249467)">
          <path
             sodipodi:nodetypes="ccccascscsscc"
             inkscape:connector-curvature="0"
             id="path5023-4-5"
             d="m -40.877421,270.66415 v 31.10591 h 23.581961 v -17.45475 c -0.04498,-0.7929 -0.09696,-1.50255 -0.298063,-2.22205 -0.204573,-0.73192 -0.526951,-1.42494 -0.912236,-2.08813 -0.492998,-0.84861 -1.326132,-1.39576 -2.066596,-2.09122 -0.449226,-0.40738 -1.419471,-1.3751 -2.593872,-2.5305 -1.164791,-1.14594 -2.530897,-2.47697 -3.671384,-3.51104 -0.336848,-0.30398 -0.826157,-0.61944 -1.28075,-0.80163 -0.352994,-0.14146 -0.768267,-0.22951 -1.169211,-0.28869 -0.413429,-0.061 -0.811623,-0.0914 -1.110603,-0.1179 z"
             style="opacity:0.25;fill:#000000;fill-opacity:1;stroke:none;stroke-width:1.7883966;stroke-miterlimit:4;stroke-dasharray:none;stroke-opacity:1" />
          <path
             style="opacity:1;fill:url(#linearGradient1503-8-3);fill-opacity:1;stroke:#808080;stroke-width:0.30000001;stroke-miterlimit:4;stroke-dasharray:none;stroke-opacity:1"
             d="m -40.877421,270.16314 v 31.10591 H -17.29546 V 283.8143 c -0.04498,-0.7929 -0.09696,-1.50256 -0.298063,-2.22206 -0.204573,-0.73192 -0.526951,-1.42494 -0.912236,-2.08813 -0.492998,-0.8486 -1.326132,-1.39575 -2.066596,-2.09121 -0.449226,-0.40739 -1.419471,-1.37511 -2.593872,-2.53051 -1.164791,-1.14592 -2.530897,-2.47697 -3.671384,-3.51104 -0.336848,-0.30398 -0.826157,-0.61945 -1.28075,-0.80162 -0.352994,-0.14146 -0.768267,-0.22952 -1.169211,-0.28869 -0.413429,-0.0611 -0.811623,-0.0914 -1.110603,-0.1179 z"
             id="path4623-8-3"
             inkscape:connector-curvature="0"
             sodipodi:nodetypes="ccccascscsscc" />
          <path
             style="opacity:0.24800002;fill:#000000;fill-opacity:1;stroke:none;stroke-width:0.28614345;stroke-miterlimit:4;stroke-dasharray:none;stroke-opacity:1"
             d="m -26.39878,271.98621 c 0.01558,0.0251 0.535221,0.86284 0.694175,1.33425 0.430727,0.96558 0.246637,3.78888 0.238805,5.39748 0.02644,-0.18505 4.473865,-1.33136 6.782594,0.76747 -0.01476,-0.026 -0.04662,-0.0767 -0.119341,-0.17767 -0.06901,-0.0958 -0.174308,-0.23765 -0.354479,-0.42182 -0.503715,-0.5766 -0.22026,-0.0806 -0.768208,-0.6505 -0.473747,-0.42966 -1.496999,-1.45025 -2.735519,-2.66881 -1.183854,-1.16476 -2.562819,-2.50808 -3.738027,-3.5804 z"
             id="path1355-8-5"
             inkscape:connector-curvature="0"
             sodipodi:nodetypes="ccccsccsc" />
          <path
             sodipodi:nodetypes="ccccccsc"
             inkscape:connector-curvature="0"
             id="path4753-0-6"
             d="m -26.710776,271.48755 c 0.01477,0.0238 0.507514,0.81811 0.658239,1.26509 0.40843,0.91553 0.278738,3.06938 0.271311,4.5946 0.409178,-0.0213 4.921198,-0.70296 6.989915,1.73982 -0.02793,-0.0483 -0.09803,-0.0884 -0.13713,-0.16512 -0.477638,-0.54671 -1.086946,-0.98598 -1.643914,-1.50908 -0.449221,-0.4074 -1.419501,-1.37509 -2.593906,-2.53048 -1.122567,-1.10439 -2.430145,-2.3781 -3.544515,-3.39483 z"
             style="opacity:1;fill:#ffffff;fill-opacity:1;stroke:#808080;stroke-width:0.30000001;stroke-miterlimit:4;stroke-dasharray:none;stroke-opacity:1" />
        </g>
        <g
           style="stroke-width:4.08449793"
           inkscape:transform-center-y="-9.4924686"
           inkscape:transform-center-x="5.4653607"
           inkscape:label="Capa 1"
           id="layer1-4-3-2"
           transform="matrix(0.51126596,0,0,0.51245325,-269.32006,5.6156869)">
          <g
             style="stroke-width:4.08449793"
             id="layer1-3-65-9-9"
             inkscape:label="Capa 1"
             transform="translate(0.41988239,0.03484499)" />
        </g>
        <g
           style="stroke-width:4.08449793"
           inkscape:transform-center-y="-9.4924686"
           inkscape:transform-center-x="5.4653607"
           inkscape:label="Capa 1"
           id="layer1-4-1"
           transform="matrix(0.51126596,0,0,0.51245325,-269.32006,5.6395364)">
          <g
             style="stroke-width:4.08449793"
             id="layer1-3-65-2"
             inkscape:label="Capa 1"
             transform="translate(0.41988239,0.03484499)" />
        </g>
      </g>
      <path
         style="fill:url(#linearGradient4523);fill-opacity:1;stroke:#808080;stroke-width:0.2;stroke-miterlimit:4;stroke-dasharray:none;stroke-opacity:1"
         d="m -11.197074,271.59768 c -0.37002,0 -0.361017,-0.012 -0.483741,0.64705 -0.04536,0.24365 -0.09295,0.45357 -0.105687,0.46638 -0.0446,0.0448 -0.585376,0.11398 -0.672964,0.086 -0.05676,-0.0181 -0.168692,-0.19726 -0.312628,-0.50044 -0.25285,-0.53256 -0.258633,-0.53582 -0.694834,-0.38929 -0.216165,0.0726 -0.225836,0.0832 -0.238619,0.25748 -0.0073,0.0999 0.0052,0.33455 0.028,0.52139 0.02278,0.18683 0.02529,0.37115 0.0055,0.40958 -0.04449,0.0867 -0.605075,0.32309 -0.683899,0.28839 -0.03172,-0.014 -0.19698,-0.19879 -0.367307,-0.41072 -0.279199,-0.34739 -0.321446,-0.38243 -0.428309,-0.356 -0.168022,0.0416 -0.502423,0.24442 -0.532394,0.323 -0.01392,0.0363 0.04815,0.26159 0.137931,0.50043 0.08978,0.23885 0.163289,0.47215 0.163289,0.51836 0,0.0942 -0.438684,0.4496 -0.555019,0.4496 -0.04043,0 -0.258901,-0.12235 -0.48544,-0.27198 -0.226533,-0.14963 -0.434346,-0.27208 -0.461776,-0.27208 -0.06774,0 -0.481202,0.41377 -0.481202,0.48156 0,0.0298 0.131668,0.25223 0.292548,0.49428 0.330019,0.49656 0.329929,0.46552 -4.7e-4,0.85928 -0.17277,0.20583 -0.152998,0.20702 -0.847946,-0.0497 l -0.353075,-0.13049 -0.109077,0.13608 c -0.06,0.0748 -0.143483,0.2261 -0.185542,0.33619 l -0.07646,0.2001 0.244559,0.20797 c 0.134519,0.11436 0.322839,0.27985 0.418501,0.36776 l 0.173948,0.15989 -0.12049,0.30261 c -0.06623,0.16643 -0.144049,0.32132 -0.172907,0.34433 -0.03217,0.0257 -0.250872,0.0235 -0.565296,-0.006 -0.592783,-0.0553 -0.582687,-0.0606 -0.680787,0.35079 -0.07571,0.31745 -0.06395,0.33219 0.474315,0.59034 0.264868,0.12702 0.428656,0.23344 0.446503,0.28999 0.03688,0.11687 -0.04895,0.64924 -0.110871,0.68774 -0.02642,0.0164 -0.255081,0.066 -0.508259,0.11028 -0.253171,0.0443 -0.485659,0.10118 -0.516644,0.12651 -0.07601,0.0621 -0.07601,0.64259 0,0.70471 0.03098,0.0254 0.263473,0.0821 0.516644,0.12641 0.253178,0.0443 0.481837,0.094 0.508259,0.11039 0.06192,0.0384 0.147749,0.57086 0.110871,0.68773 -0.01784,0.0566 -0.181635,0.16296 -0.446503,0.28999 -0.536272,0.2572 -0.552457,0.27677 -0.477145,0.57829 0.09309,0.37268 0.112404,0.39419 0.352886,0.39252 0.116892,-7.1e-4 0.354508,-0.0201 0.528054,-0.0428 0.2325,-0.0304 0.330012,-0.027 0.370517,0.0131 0.106259,0.10512 0.276669,0.59341 0.234659,0.67236 -0.02193,0.0413 -0.204027,0.21274 -0.404644,0.38104 -0.325376,0.273 -0.361659,0.31877 -0.335911,0.42409 0.04106,0.16804 0.243049,0.50444 0.320923,0.53449 0.03618,0.014 0.260057,-0.0485 0.497507,-0.13883 0.237455,-0.0903 0.469201,-0.16417 0.515139,-0.16417 0.09371,0 0.447167,0.44128 0.447167,0.55829 0,0.0406 -0.121732,0.26032 -0.270488,0.4882 -0.148754,0.22787 -0.270484,0.4369 -0.270484,0.46449 0,0.0689 0.41172,0.48403 0.479971,0.48403 0.0303,0 0.237029,-0.12244 0.45942,-0.27208 0.222391,-0.14962 0.439905,-0.27207 0.483369,-0.27207 0.115638,0 0.560586,0.36018 0.560586,0.45377 0,0.044 -0.07333,0.27534 -0.163104,0.51418 -0.08978,0.23885 -0.151998,0.46405 -0.138123,0.50044 0.02998,0.0786 0.36456,0.28154 0.532584,0.32309 0.106865,0.0264 0.149008,-0.009 0.428215,-0.356 0.170329,-0.21192 0.333436,-0.39596 0.362594,-0.40891 0.07657,-0.0341 0.645462,0.20245 0.687672,0.28592 0.01965,0.0387 0.01939,0.2133 -7.06e-4,0.38786 -0.02005,0.17457 -0.03745,0.40513 -0.03884,0.51238 -0.0021,0.18108 0.0091,0.19982 0.156407,0.26174 0.08728,0.0367 0.247714,0.079 0.356565,0.094 l 0.19789,0.0272 0.22693,-0.47777 c 0.145912,-0.30733 0.258308,-0.48787 0.315172,-0.50603 0.08759,-0.0279 0.628465,0.0412 0.673057,0.086 0.01276,0.0129 0.06032,0.22264 0.105688,0.46629 0.04535,0.24355 0.102793,0.48886 0.127651,0.5451 0.04052,0.0915 0.07722,0.10204 0.356185,0.10204 0.200696,0 0.32828,-0.0211 0.359769,-0.0591 0.02684,-0.0325 0.08281,-0.2655 0.124448,-0.51769 0.04164,-0.25218 0.0896,-0.48117 0.106631,-0.50887 0.03946,-0.0642 0.567103,-0.15121 0.686348,-0.11314 0.05627,0.0179 0.150815,0.1592 0.251538,0.37573 0.08875,0.19083 0.201261,0.40525 0.250024,0.47644 0.07981,0.11653 0.106518,0.12653 0.266998,0.10071 0.09806,-0.0157 0.247326,-0.0576 0.331673,-0.093 0.14462,-0.0607 0.153278,-0.077 0.151883,-0.28222 -7.52e-4,-0.11973 -0.01993,-0.36048 -0.04252,-0.53505 -0.03023,-0.23346 -0.0269,-0.33138 0.01272,-0.37032 0.08347,-0.0821 0.615184,-0.28555 0.675886,-0.25861 0.02978,0.0133 0.192063,0.19581 0.360806,0.40579 0.168735,0.20998 0.341343,0.38164 0.383337,0.38132 0.08998,-4.7e-4 0.528556,-0.24617 0.575289,-0.32223 0.01777,-0.0289 -0.04657,-0.2865 -0.143115,-0.57242 l -0.175642,-0.51987 0.245313,-0.22201 c 0.134885,-0.12211 0.267725,-0.22201 0.295187,-0.22201 0.02747,0 0.248478,0.13265 0.491193,0.29475 0.242712,0.1621 0.468418,0.29474 0.50147,0.29474 0.07764,0 0.472902,-0.39679 0.472902,-0.47474 0,-0.0327 -0.121731,-0.24591 -0.270487,-0.47378 -0.148752,-0.22788 -0.270581,-0.44757 -0.270578,-0.4882 0,-0.11211 0.360641,-0.55838 0.451217,-0.55838 0.04372,0 0.273827,0.0739 0.511275,0.16425 0.237452,0.0903 0.461832,0.15251 0.498734,0.13827 0.07999,-0.0309 0.340799,-0.47483 0.341572,-0.58104 3.53e-4,-0.0409 -0.172032,-0.22046 -0.382772,-0.39896 -0.439444,-0.37223 -0.452881,-0.41525 -0.256532,-0.81879 0.101491,-0.20858 0.139749,-0.24836 0.233999,-0.24278 0.06198,0.004 0.310436,0.0216 0.552098,0.04 l 0.439339,0.0331 0.06873,-0.16539 c 0.0378,-0.091 0.08102,-0.25532 0.09598,-0.3652 l 0.02724,-0.19981 -0.475637,-0.22912 c -0.300579,-0.14474 -0.485842,-0.26114 -0.503259,-0.31636 -0.03706,-0.11741 0.05068,-0.64795 0.113606,-0.68707 0.02755,-0.0171 0.255189,-0.0653 0.505901,-0.10725 0.250701,-0.0419 0.482239,-0.0982 0.514573,-0.12518 0.08005,-0.0669 0.08005,-0.64395 0,-0.71077 -0.03233,-0.027 -0.263872,-0.0834 -0.514573,-0.12528 -0.250712,-0.0419 -0.478355,-0.0901 -0.505901,-0.10725 -0.06335,-0.0394 -0.150461,-0.56998 -0.11304,-0.68859 0.01806,-0.0572 0.19754,-0.17035 0.503072,-0.31712 l 0.475072,-0.22816 -0.02716,-0.19916 c -0.01491,-0.10949 -0.05696,-0.27086 -0.09344,-0.35866 -0.06295,-0.15155 -0.07726,-0.15949 -0.28274,-0.15808 -0.119024,7.1e-4 -0.358377,0.02 -0.531922,0.0427 -0.369852,0.0485 -0.373443,0.0462 -0.532768,-0.33865 -0.07649,-0.18471 -0.09968,-0.29554 -0.0725,-0.34661 0.02198,-0.0413 0.202701,-0.21166 0.401531,-0.37848 0.198832,-0.16682 0.36109,-0.33718 0.36109,-0.37867 -5.41e-4,-0.10696 -0.261192,-0.55097 -0.341573,-0.58199 -0.0369,-0.0142 -0.261282,0.048 -0.498733,0.13827 -0.237449,0.0903 -0.467551,0.16425 -0.511276,0.16425 -0.09057,0 -0.451217,-0.44627 -0.451217,-0.55837 0,-0.0406 0.121826,-0.26043 0.270579,-0.48831 0.148755,-0.22786 0.270486,-0.44098 0.270486,-0.47369 0,-0.0786 -0.39569,-0.47473 -0.474129,-0.47473 -0.03364,0 -0.229727,0.11388 -0.435851,0.25311 -0.552666,0.37329 -0.488365,0.36297 -0.799202,0.12793 -0.157786,-0.1193 -0.274257,-0.24209 -0.274257,-0.28905 0,-0.0449 0.07351,-0.27705 0.163292,-0.51589 0.08978,-0.23885 0.151614,-0.46465 0.13746,-0.50176 -0.03106,-0.0814 -0.472547,-0.34296 -0.57991,-0.34359 -0.042,-1.4e-4 -0.214602,0.17144 -0.383337,0.38142 -0.168742,0.20998 -0.33052,0.39236 -0.359675,0.40533 -0.07656,0.034 -0.645376,-0.20245 -0.68767,-0.28593 -0.01959,-0.0387 -0.01988,-0.19281 -7.53e-4,-0.34245 0.01929,-0.14962 0.03665,-0.38027 0.03875,-0.51247 0.0036,-0.23185 -0.0015,-0.24262 -0.14943,-0.30479 -0.08435,-0.0355 -0.233622,-0.0773 -0.331679,-0.0931 -0.160486,-0.0258 -0.187087,-0.0157 -0.266903,0.10081 -0.04876,0.0713 -0.161262,0.28551 -0.250026,0.47634 -0.100718,0.21653 -0.195353,0.35787 -0.251627,0.37583 -0.119246,0.0381 -0.64679,-0.0489 -0.686257,-0.11314 -0.01704,-0.0278 -0.06509,-0.25679 -0.106724,-0.50897 -0.04164,-0.25218 -0.09771,-0.48506 -0.124541,-0.5176 -0.03148,-0.0382 -0.159028,-0.0591 -0.359674,-0.0591 z m -0.22655,2.53831 c 0.124289,4.6e-4 0.251665,0.008 0.380698,0.0191 0.12903,0.0119 0.259687,0.029 0.390596,0.0505 0.261815,0.0428 0.524568,0.10283 0.776673,0.17269 0.252097,0.0698 0.493599,0.14951 0.713026,0.23168 0.219429,0.0821 0.416761,0.16681 0.580567,0.24656 0.108738,0.0529 0.215951,0.11126 0.321303,0.17421 0.105353,0.063 0.208896,0.13048 0.310274,0.20208 0.101375,0.0716 0.200542,0.14719 0.297354,0.22609 0.09681,0.0789 0.191273,0.16114 0.28293,0.24599 0.183315,0.1697 0.355698,0.34997 0.514856,0.53534 0.159162,0.18537 0.305088,0.37583 0.435378,0.56606 0.130295,0.19022 0.244965,0.38018 0.34167,0.56445 0.0967,0.18425 0.17541,0.36282 0.233811,0.5303 0.0292,0.0837 0.05329,0.16469 0.07203,0.24221 0.01874,0.0775 0.03219,0.15159 0.03988,0.22152 0.0077,0.0699 0.0097,0.13569 0.0057,0.19668 -0.0039,0.0611 -0.01391,0.11724 -0.03007,0.16795 -0.0183,0.0574 -0.04193,0.10952 -0.06986,0.15686 -0.02794,0.0473 -0.06018,0.0898 -0.09569,0.12802 -0.03552,0.0381 -0.07432,0.0719 -0.115397,0.10176 -0.04107,0.0298 -0.08439,0.0557 -0.128973,0.0781 -0.08917,0.0448 -0.183374,0.0756 -0.274353,0.0959 -0.09097,0.0202 -0.178744,0.0299 -0.255212,0.0326 -0.386314,0.0135 -0.723496,0.007 -1.199698,-0.005 -0.4762,-0.0119 -1.091421,-0.0292 -2.033783,-0.0371 v -9e-5 c -0.01403,9.5e-4 -0.07438,0.006 -0.1648,-0.004 -0.0452,-0.005 -0.0979,-0.0121 -0.156123,-0.025 -0.05823,-0.0129 -0.121934,-0.0308 -0.189124,-0.0559 -0.0672,-0.0251 -0.137862,-0.0571 -0.209959,-0.0983 -0.0721,-0.0412 -0.145678,-0.0914 -0.218634,-0.1525 -0.07295,-0.0611 -0.145298,-0.13323 -0.21505,-0.21821 -0.06975,-0.085 -0.136901,-0.18283 -0.199401,-0.29549 -0.30988,-0.55863 -0.579648,-1.02291 -0.835218,-1.48006 -0.127777,-0.22858 -0.251948,-0.45531 -0.375887,-0.69123 -0.123937,-0.23594 -0.247614,-0.48106 -0.374193,-0.74615 -0.04044,-0.0847 -0.07896,-0.1834 -0.100876,-0.28906 -0.01098,-0.0528 -0.0177,-0.10744 -0.01857,-0.16282 -7.05e-4,-0.0554 0.0043,-0.1116 0.01716,-0.16777 0.01293,-0.0562 0.0336,-0.1123 0.06392,-0.16748 0.03032,-0.0551 0.07023,-0.10939 0.121616,-0.16177 0.05138,-0.0524 0.114249,-0.10297 0.190351,-0.15079 0.0761,-0.0478 0.16545,-0.0929 0.269923,-0.13437 0.06508,-0.0258 0.133228,-0.0478 0.204015,-0.0663 0.07079,-0.0185 0.144207,-0.0334 0.21986,-0.045 0.151308,-0.0233 0.311521,-0.0336 0.477241,-0.0328 z m -3.388098,1.75848 c 0.04735,7.1e-4 0.09329,0.006 0.137642,0.0155 0.04436,0.01 0.08716,0.0229 0.128321,0.0397 0.08231,0.0334 0.158085,0.0798 0.226453,0.13343 0.06837,0.0535 0.129299,0.11415 0.182145,0.17582 0.05285,0.0616 0.09756,0.12437 0.133314,0.18217 0.206401,0.33375 0.371012,0.63433 0.601309,1.06015 0.230299,0.42581 0.526284,0.97687 0.9953,1.81159 0.0083,0.0116 0.04211,0.0628 0.08024,0.14698 0.01904,0.0421 0.03924,0.0924 0.05779,0.15023 0.01855,0.0578 0.03546,0.12309 0.04818,0.19497 0.01274,0.0719 0.02118,0.15037 0.02282,0.23471 0.0014,0.0843 -0.0037,0.17454 -0.01857,0.26971 -0.01486,0.0952 -0.03928,0.19539 -0.07589,0.29976 -0.03663,0.10439 -0.08545,0.21293 -0.149147,0.3249 -0.3158,0.55516 -0.572112,1.02726 -0.829559,1.48328 -0.128725,0.22801 -0.257678,0.452 -0.394557,0.68034 -0.136887,0.22833 -0.281686,0.461 -0.441887,0.70641 -0.05119,0.0784 -0.115232,0.16222 -0.193459,0.2349 -0.03911,0.0363 -0.08175,0.0699 -0.128123,0.0986 -0.04638,0.0287 -0.09649,0.0525 -0.150473,0.0695 -0.05399,0.017 -0.111823,0.0272 -0.173755,0.0282 -0.06193,9.5e-4 -0.127959,-0.007 -0.198175,-0.0257 -0.07021,-0.0188 -0.144695,-0.0486 -0.223533,-0.0916 -0.07884,-0.0429 -0.162047,-0.099 -0.24984,-0.17013 -0.05469,-0.0444 -0.107692,-0.0933 -0.159048,-0.14642 -0.05135,-0.0531 -0.101101,-0.11025 -0.14915,-0.17109 -0.0961,-0.12165 -0.185544,-0.25773 -0.268601,-0.40418 -0.08306,-0.14643 -0.15967,-0.30323 -0.229947,-0.46629 -0.07027,-0.16304 -0.134204,-0.3324 -0.191949,-0.50385 -0.05774,-0.17144 -0.109337,-0.34498 -0.154806,-0.51665 -0.04548,-0.17165 -0.08487,-0.3414 -0.118321,-0.50507 -0.03345,-0.16367 -0.061,-0.32128 -0.08269,-0.46877 -0.0217,-0.14748 -0.03752,-0.28485 -0.0477,-0.40796 -0.01013,-0.12259 -0.01493,-0.24653 -0.01491,-0.37118 1.6e-5,-0.12465 0.0049,-0.25003 0.01424,-0.37554 0.0093,-0.12551 0.02321,-0.25112 0.04101,-0.37629 0.01782,-0.12518 0.03969,-0.24983 0.06514,-0.37346 0.05091,-0.24726 0.116255,-0.49027 0.192613,-0.72415 0.07635,-0.23387 0.163667,-0.45864 0.258697,-0.66952 0.09504,-0.21088 0.19777,-0.4079 0.304711,-0.58615 0.106946,-0.17827 0.218175,-0.33777 0.330261,-0.4738 0.05605,-0.068 0.112317,-0.13022 0.168381,-0.18587 0.05607,-0.0556 0.111925,-0.10472 0.167156,-0.1468 0.05524,-0.0421 0.109826,-0.0771 0.163384,-0.1044 0.05356,-0.0273 0.106034,-0.047 0.15707,-0.0583 0.05775,-0.0129 0.113796,-0.0185 0.167914,-0.0177 z m 3.621531,3.57017 a 0.62693282,0.61207052 0 0 1 0.626956,0.61206 0.62693282,0.61207052 0 0 1 -0.626956,0.61206 0.62693282,0.61207052 0 0 1 -0.626954,-0.61206 0.62693282,0.61207052 0 0 1 0.626954,-0.61206 z m 3.113087,1.24109 c 0.257724,-7.1e-4 0.512194,2.4e-4 0.77431,0.007 0.262114,0.006 0.53187,0.0173 0.82013,0.0355 0.09211,0.006 0.195216,0.0202 0.296037,0.0528 0.05041,0.0163 0.100216,0.0371 0.14783,0.0636 0.04761,0.0265 0.09304,0.0588 0.134536,0.0979 0.04149,0.0391 0.07909,0.0853 0.111154,0.1394 0.03206,0.0541 0.05856,0.1163 0.07787,0.18777 0.01931,0.0714 0.03145,0.15216 0.0347,0.24335 0.0032,0.0912 -0.0024,0.19285 -0.01857,0.30612 -0.01005,0.0706 -0.02487,0.14202 -0.04403,0.21404 -0.01916,0.072 -0.04268,0.14456 -0.07005,0.21754 -0.05473,0.14596 -0.124944,0.29341 -0.207224,0.44031 -0.08228,0.1469 -0.176591,0.29324 -0.279348,0.43718 -0.102755,0.14395 -0.213998,0.28548 -0.330164,0.42258 -0.116167,0.13711 -0.23726,0.26984 -0.35977,0.39621 -0.122505,0.12637 -0.24647,0.24634 -0.368251,0.35809 -0.121782,0.11175 -0.241351,0.21526 -0.355335,0.30849 -0.113991,0.0933 -0.222365,0.17622 -0.321494,0.24704 -0.0987,0.0705 -0.201221,0.13704 -0.306781,0.19962 -0.105558,0.0626 -0.214196,0.12123 -0.325168,0.17602 -0.110978,0.0548 -0.22427,0.10573 -0.339218,0.15286 -0.114943,0.0471 -0.231451,0.0905 -0.348923,0.13011 -0.234944,0.0793 -0.473522,0.14359 -0.709919,0.19366 -0.236397,0.0501 -0.470697,0.0858 -0.697002,0.10782 -0.226308,0.022 -0.444632,0.0303 -0.649298,0.0254 -0.20467,-0.005 -0.395604,-0.023 -0.567088,-0.0536 -0.08574,-0.0153 -0.166638,-0.0338 -0.241921,-0.0553 -0.07528,-0.0216 -0.144975,-0.0462 -0.208358,-0.0738 -0.06337,-0.0277 -0.12042,-0.0583 -0.170452,-0.0919 -0.05004,-0.0336 -0.09307,-0.0701 -0.128318,-0.10944 -0.03987,-0.0445 -0.07261,-0.0913 -0.09918,-0.1394 -0.02656,-0.0482 -0.04695,-0.0978 -0.06194,-0.14813 -0.01499,-0.0504 -0.02462,-0.10147 -0.0298,-0.15268 -0.0052,-0.0512 -0.0059,-0.1025 -0.003,-0.15315 0.0058,-0.10133 0.02596,-0.20022 0.05355,-0.29104 0.02758,-0.0908 0.06254,-0.17361 0.09796,-0.24288 0.178921,-0.34989 0.350825,-0.64621 0.595747,-1.06345 0.244923,-0.41724 0.562857,-0.95539 1.034049,-1.78884 0.0057,-0.0132 0.03206,-0.0688 0.08419,-0.14471 0.02608,-0.038 0.05861,-0.081 0.09824,-0.12642 0.03962,-0.0454 0.08629,-0.0932 0.140758,-0.14054 0.05447,-0.0473 0.11672,-0.0941 0.18733,-0.13788 0.07061,-0.0438 0.149628,-0.0845 0.237676,-0.11921 0.08806,-0.0347 0.185112,-0.0634 0.291887,-0.0836 0.106781,-0.0201 0.223255,-0.0314 0.350063,-0.0314 0.628691,0 1.157149,-0.0109 1.672597,-0.0127 z"
         id="path5221"
         inkscape:connector-curvature="0" />
      <g
         aria-label="MAKE"
         style="font-style:normal;font-weight:normal;font-size:10.58333302px;line-height:1.25;font-family:sans-serif;letter-spacing:0px;word-spacing:0px;fill:#333333;fill-opacity:1;stroke:none;stroke-width:0.26458332"
         id="g4755"
         transform="matrix(0.91811762,0,0,0.91811762,-24.949454,23.507624)">
        <path
           d="m 10.031871,290.60173 h 1.144633 v 3.80855 h -0.741557 v -2.57607 q 0,-0.11111 0.0026,-0.31006 0.0026,-0.20154 0.0026,-0.31006 l -0.7208865,3.19619 H 8.9466659 l -0.7157186,-3.19619 q 0,0.10852 0.00258,0.31006 0.00258,0.19895 0.00258,0.31006 v 2.57607 H 7.4945582 v -3.80855 h 1.157552 l 0.6924642,2.99464 z"
           style="font-style:normal;font-variant:normal;font-weight:bold;font-stretch:normal;font-size:5.29166651px;font-family:Helvetica;-inkscape-font-specification:'Helvetica Bold';fill:#333333;fill-opacity:1;stroke-width:0.26458332"
           id="path4747"
           inkscape:connector-curvature="0" />
        <path
           d="m 12.961924,292.97109 h 0.96635 l -0.475424,-1.49862 z m 0.04909,-2.36936 h 0.89917 l 1.348755,3.80855 h -0.862997 l -0.245463,-0.7829 h -1.403015 l -0.26355,0.7829 h -0.83199 z m 0.444417,0 z"
           style="font-style:normal;font-variant:normal;font-weight:bold;font-stretch:normal;font-size:5.29166651px;font-family:Helvetica;-inkscape-font-specification:'Helvetica Bold';fill:#333333;fill-opacity:1;stroke-width:0.26458332"
           id="path4749"
           inkscape:connector-curvature="0" />
        <path
           d="m 15.757619,290.60173 h 0.782898 v 1.56838 l 1.470194,-1.56838 h 1.028361 l -1.560628,1.56838 1.640727,2.24017 h -1.023193 l -1.175639,-1.66398 -0.379822,0.39015 v 1.27383 h -0.782898 z"
           style="font-style:normal;font-variant:normal;font-weight:bold;font-stretch:normal;font-size:5.29166651px;font-family:Helvetica;-inkscape-font-specification:'Helvetica Bold';fill:#333333;fill-opacity:1;stroke-width:0.26458332"
           id="path4751"
           inkscape:connector-curvature="0" />
        <path
           d="m 22.385122,291.2761 h -2.015381 v 0.80874 h 1.850016 v 0.66146 h -1.850016 v 0.97927 h 2.108399 v 0.68471 h -2.886129 v -3.80855 h 2.793111 z"
           style="font-style:normal;font-variant:normal;font-weight:bold;font-stretch:normal;font-size:5.29166651px;font-family:Helvetica;-inkscape-font-specification:'Helvetica Bold';fill:#333333;fill-opacity:1;stroke-width:0.26458332"
           id="path4753"
           inkscape:connector-curvature="0" />
      </g>
    </g>
  </g>
</svg>
