<?xml version="1.0" encoding="UTF-8" standalone="no"?>
<!-- Created with Inkscape (http://www.inkscape.org/) -->

<svg
   xmlns:osb="http://www.openswatchbook.org/uri/2009/osb"
   xmlns:dc="http://purl.org/dc/elements/1.1/"
   xmlns:cc="http://creativecommons.org/ns#"
   xmlns:rdf="http://www.w3.org/1999/02/22-rdf-syntax-ns#"
   xmlns:svg="http://www.w3.org/2000/svg"
   xmlns="http://www.w3.org/2000/svg"
   xmlns:xlink="http://www.w3.org/1999/xlink"
   xmlns:sodipodi="http://sodipodi.sourceforge.net/DTD/sodipodi-0.dtd"
   xmlns:inkscape="http://www.inkscape.org/namespaces/inkscape"
   width="128"
   height="128"
   viewBox="0 0 33.866666 33.866668"
   version="1.1"
   id="svg8"
   inkscape:version="0.92.2 5c3e80d, 2017-08-06"
   sodipodi:docname="image-x-pentax-pef.svg">
  <defs
     id="defs2">
    <inkscape:path-effect
       only_selected="false"
       apply_with_weight="true"
       apply_no_weight="true"
       helper_size="0"
       steps="2"
       weight="33.333333"
       is_visible="true"
       id="path-effect1978"
       effect="bspline" />
    <inkscape:path-effect
       effect="bspline"
       id="path-effect1974"
       is_visible="true"
       weight="33.333333"
       steps="2"
       helper_size="0"
       apply_no_weight="true"
       apply_with_weight="true"
       only_selected="false" />
    <linearGradient
       id="linearGradient1830">
      <stop
         id="stop1826"
         style="stop-color:#d9d9d9;stop-opacity:1"
         offset="0" />
      <stop
         id="stop1828"
         style="stop-color:#ffffff;stop-opacity:1;"
         offset="1" />
    </linearGradient>
    <linearGradient
       osb:paint="solid"
       id="linearGradient6987">
      <stop
         id="stop6985"
         offset="0"
         style="stop-color:#77d2fb;stop-opacity:1;" />
    </linearGradient>
    <linearGradient
       inkscape:collect="always"
       xlink:href="#linearGradient1830"
       id="linearGradient1503-8-3"
       x1="29.203474"
       y1="263.52237"
       x2="4.5843229"
       y2="296.16849"
       gradientUnits="userSpaceOnUse"
       gradientTransform="matrix(0.95481176,0,0,0.95480184,0.765188,12.661897)" />
    <linearGradient
       osb:paint="gradient"
       id="linearGradient1102">
      <stop
         id="stop1098"
         offset="0"
         style="stop-color:#999999;stop-opacity:1" />
      <stop
         id="stop1100"
         offset="1"
         style="stop-color:#808080;stop-opacity:1" />
    </linearGradient>
  </defs>
  <sodipodi:namedview
     id="base"
     pagecolor="#ffffff"
     bordercolor="#666666"
     borderopacity="1.0"
     inkscape:pageopacity="0.0"
     inkscape:pageshadow="2"
     inkscape:zoom="11.655396"
     inkscape:cx="60.26425"
     inkscape:cy="13.030956"
     inkscape:document-units="mm"
     inkscape:current-layer="layer1"
     showgrid="false"
     units="px"
     inkscape:window-width="1600"
     inkscape:window-height="811"
     inkscape:window-x="0"
     inkscape:window-y="0"
     inkscape:window-maximized="1"
     showguides="false"
     inkscape:snap-nodes="false" />
  <metadata
     id="metadata5">
    <rdf:RDF>
      <cc:Work
         rdf:about="">
        <dc:format>image/svg+xml</dc:format>
        <dc:type
           rdf:resource="http://purl.org/dc/dcmitype/StillImage" />
        <dc:title />
      </cc:Work>
    </rdf:RDF>
  </metadata>
  <g
     inkscape:label="Layer 1"
     inkscape:groupmode="layer"
     id="layer1"
     transform="translate(0,-263.13332)">
    <g
       style="stroke-width:4.08449793"
       inkscape:transform-center-y="-9.4924686"
       inkscape:transform-center-x="5.4653607"
       inkscape:label="Capa 1"
       id="layer1-4-3"
       transform="matrix(0.53602412,0,0,0.5372689,-234.93365,-13.785303)">
      <g
         style="stroke-width:4.08449793"
         id="layer1-3-65-9"
         inkscape:label="Capa 1"
         transform="translate(0.41988239,0.03484499)" />
    </g>
    <g
       style="stroke-width:4.08449793"
       inkscape:transform-center-y="-9.4924686"
       inkscape:transform-center-x="5.4653607"
       inkscape:label="Capa 1"
       id="layer1-4"
       transform="matrix(0.53602412,0,0,0.5372689,-234.93365,-13.7603)">
      <g
         style="stroke-width:4.08449793"
         id="layer1-3-65"
         inkscape:label="Capa 1"
         transform="translate(0.41988239,0.03484499)" />
    </g>
    <path
       style="opacity:0.25;fill:#000000;fill-opacity:1;stroke:none;stroke-width:1.7883966;stroke-miterlimit:4;stroke-dasharray:none;stroke-opacity:1"
       d="m 5.142353,264.8392 v 31.10591 h 23.581961 v -17.45475 c -0.04498,-0.7929 -0.09696,-1.50255 -0.298063,-2.22205 -0.204573,-0.73192 -0.526951,-1.42494 -0.912236,-2.08813 -0.492998,-0.84861 -1.326132,-1.39576 -2.066596,-2.09122 -0.449226,-0.40738 -1.419471,-1.3751 -2.593872,-2.5305 -1.164791,-1.14594 -2.530897,-2.47697 -3.671384,-3.51104 -0.336848,-0.30398 -0.826157,-0.61944 -1.28075,-0.80163 -0.352994,-0.14146 -0.768267,-0.22951 -1.169211,-0.28869 -0.413429,-0.061 -0.811623,-0.0914 -1.110603,-0.1179 z"
       id="path5023-4-5"
       inkscape:connector-curvature="0"
       sodipodi:nodetypes="ccccascscsscc" />
    <path
       sodipodi:nodetypes="ccccascscsscc"
       inkscape:connector-curvature="0"
       id="path4623-8-3"
       d="m 5.142353,264.33819 v 31.10591 h 23.581961 v -17.45475 c -0.04498,-0.7929 -0.09696,-1.50256 -0.298063,-2.22206 -0.204573,-0.73192 -0.526951,-1.42494 -0.912236,-2.08813 -0.492998,-0.8486 -1.326132,-1.39575 -2.066596,-2.09121 -0.449226,-0.40739 -1.419471,-1.37511 -2.593872,-2.53051 -1.164791,-1.14592 -2.530897,-2.47697 -3.671384,-3.51104 -0.336848,-0.30398 -0.826157,-0.61945 -1.28075,-0.80162 -0.352994,-0.14146 -0.768267,-0.22952 -1.169211,-0.28869 -0.413429,-0.0611 -0.811623,-0.0914 -1.110603,-0.1179 z"
       style="opacity:1;fill:url(#linearGradient1503-8-3);fill-opacity:1;stroke:#808080;stroke-width:0.30000001;stroke-miterlimit:4;stroke-dasharray:none;stroke-opacity:1" />
    <path
       sodipodi:nodetypes="ccccsccsc"
       inkscape:connector-curvature="0"
       id="path1355-8-5"
       d="m 19.620994,266.16126 c 0.01558,0.0251 0.535221,0.86284 0.694175,1.33425 0.430727,0.96558 0.246637,3.78888 0.238805,5.39748 0.02644,-0.18505 4.473865,-1.33136 6.782594,0.76747 -0.01476,-0.026 -0.04662,-0.0767 -0.119341,-0.17767 -0.06901,-0.0958 -0.174308,-0.23765 -0.354479,-0.42182 -0.503715,-0.5766 -0.22026,-0.0806 -0.768208,-0.6505 -0.473747,-0.42966 -1.496999,-1.45025 -2.735519,-2.66881 -1.183854,-1.16476 -2.562819,-2.50808 -3.738027,-3.5804 z"
       style="opacity:0.24800002;fill:#000000;fill-opacity:1;stroke:none;stroke-width:0.28614345;stroke-miterlimit:4;stroke-dasharray:none;stroke-opacity:1" />
    <path
       style="opacity:1;fill:#ffffff;fill-opacity:1;stroke:#808080;stroke-width:0.30000001;stroke-miterlimit:4;stroke-dasharray:none;stroke-opacity:1"
       d="m 19.308998,265.6626 c 0.01477,0.0238 0.507514,0.81811 0.658239,1.26509 0.40843,0.91553 0.278738,3.06938 0.271311,4.5946 0.409178,-0.0213 4.921198,-0.70296 6.989915,1.73982 -0.02793,-0.0483 -0.09803,-0.0884 -0.13713,-0.16512 -0.477638,-0.54671 -1.086946,-0.98598 -1.643914,-1.50908 -0.449221,-0.4074 -1.419501,-1.37509 -2.593906,-2.53048 -1.122567,-1.10439 -2.430145,-2.3781 -3.544515,-3.39483 z"
       id="path4753-0-6"
       inkscape:connector-curvature="0"
       sodipodi:nodetypes="ccccccsc" />
    <g
       style="stroke-width:4.08449793"
       inkscape:transform-center-y="-9.4924686"
       inkscape:transform-center-x="5.4653607"
       inkscape:label="Capa 1"
       id="layer1-4-3-2"
       transform="matrix(0.51126596,0,0,0.51245325,-269.32006,5.6156869)">
      <g
         style="stroke-width:4.08449793"
         id="layer1-3-65-9-9"
         inkscape:label="Capa 1"
         transform="translate(0.41988239,0.03484499)" />
    </g>
    <g
       style="stroke-width:4.08449793"
       inkscape:transform-center-y="-9.4924686"
       inkscape:transform-center-x="5.4653607"
       inkscape:label="Capa 1"
       id="layer1-4-1"
       transform="matrix(0.51126596,0,0,0.51245325,-269.32006,5.6395364)">
      <g
         style="stroke-width:4.08449793"
         id="layer1-3-65-2"
         inkscape:label="Capa 1"
         transform="translate(0.41988239,0.03484499)" />
    </g>
    <g
       aria-label="PEF"
       style="font-style:normal;font-weight:normal;font-size:4.60694408px;line-height:1.25;font-family:sans-serif;letter-spacing:0px;word-spacing:0px;fill:#575757;fill-opacity:1;stroke:none;stroke-width:0.26458329"
       id="text1198"
       transform="translate(-0.5592685)">
      <path
         d="m 13.517263,293.70905 v -3.44165 h 1.199927 q 0.627869,0 0.895294,0.21161 0.269751,0.20929 0.269751,0.70228 0,0.55811 -0.360443,0.86972 -0.358118,0.30928 -1.00459,0.30928 h -0.297656 v 1.34876 z m 0.702283,-1.82082 h 0.139526 q 0.36742,0 0.579035,-0.16976 0.21394,-0.17208 0.21394,-0.46509 0,-0.51392 -0.653448,-0.51392 h -0.279053 z"
         style="font-style:normal;font-variant:normal;font-weight:600;font-stretch:normal;font-size:4.76249981px;font-family:'Lucida Grande';-inkscape-font-specification:'Lucida Grande Semi-Bold';fill:#575757;fill-opacity:1;stroke-width:0.26458329"
         id="path853"
         inkscape:connector-curvature="0" />
      <path
         d="m 16.438015,293.70905 v -3.44165 h 2.151032 v 0.47206 h -1.434796 v 0.96041 h 1.176672 v 0.46043 h -1.176672 v 1.0604 h 1.544091 v 0.48835 z"
         style="font-style:normal;font-variant:normal;font-weight:600;font-stretch:normal;font-size:4.76249981px;font-family:'Lucida Grande';-inkscape-font-specification:'Lucida Grande Semi-Bold';fill:#575757;fill-opacity:1;stroke-width:0.26458329"
         id="path855"
         inkscape:connector-curvature="0" />
      <path
         d="m 19.302957,293.70905 v -3.44165 h 2.164984 v 0.47206 h -1.448749 v 1.04645 h 1.190625 v 0.47439 h -1.190625 v 1.44875 z"
         style="font-style:normal;font-variant:normal;font-weight:600;font-stretch:normal;font-size:4.76249981px;font-family:'Lucida Grande';-inkscape-font-specification:'Lucida Grande Semi-Bold';fill:#575757;fill-opacity:1;stroke-width:0.26458329"
         id="path857"
         inkscape:connector-curvature="0" />
    </g>
    <g
       id="g2006"
       transform="translate(-33.87531,0.33670774)">
      <circle
         r="7.3210053"
         cy="279.84402"
         cx="50.808643"
         id="circle1989"
         style="opacity:0.25;fill:#000000;fill-opacity:1;fill-rule:nonzero;stroke:none;stroke-width:0.09999998;stroke-linecap:round;stroke-linejoin:round;stroke-miterlimit:4;stroke-dasharray:none;stroke-dashoffset:0;stroke-opacity:1;paint-order:markers fill stroke" />
      <circle
         style="opacity:1;fill:#ebeced;fill-opacity:1;fill-rule:nonzero;stroke:#808080;stroke-width:0.09999998;stroke-linecap:round;stroke-linejoin:round;stroke-miterlimit:4;stroke-dasharray:none;stroke-dashoffset:0;stroke-opacity:1;paint-order:markers fill stroke"
         id="circle1047"
         cx="50.808643"
         cy="279.31485"
         r="7.3210053" />
      <circle
         r="6.6771007"
         cy="279.31485"
         cx="50.712742"
         id="circle1045"
         style="opacity:1;fill:#2f3036;fill-opacity:1;fill-rule:nonzero;stroke:none;stroke-width:0.09999998;stroke-linecap:round;stroke-linejoin:round;stroke-miterlimit:4;stroke-dasharray:none;stroke-dashoffset:0;stroke-opacity:1;paint-order:markers fill stroke" />
      <circle
         style="opacity:1;fill:#4e515a;fill-opacity:1;fill-rule:nonzero;stroke:none;stroke-width:0.09999999;stroke-linecap:round;stroke-linejoin:round;stroke-miterlimit:4;stroke-dasharray:none;stroke-dashoffset:0;stroke-opacity:1;paint-order:markers fill stroke"
         id="circle1043"
         cx="50.809734"
         cy="279.33932"
         r="5.9648128" />
      <circle
         r="5.7323141"
         cy="279.30057"
         cx="50.770985"
         id="circle1041"
         style="opacity:1;fill:#18191c;fill-opacity:1;fill-rule:nonzero;stroke:none;stroke-width:0.09999999;stroke-linecap:round;stroke-linejoin:round;stroke-miterlimit:4;stroke-dasharray:none;stroke-dashoffset:0;stroke-opacity:1;paint-order:markers fill stroke" />
      <circle
         style="opacity:1;fill:#0a0a0c;fill-opacity:1;fill-rule:nonzero;stroke:none;stroke-width:0.09999998;stroke-linecap:round;stroke-linejoin:round;stroke-miterlimit:4;stroke-dasharray:none;stroke-dashoffset:0;stroke-opacity:1;paint-order:markers fill stroke"
         id="circle1039"
         cx="50.790359"
         cy="279.30057"
         r="5.0154438" />
      <circle
         r="4.0466995"
         cy="279.30054"
         cx="50.751606"
         id="circle1037"
         style="opacity:1;fill:#42464d;fill-opacity:1;fill-rule:nonzero;stroke:none;stroke-width:0.09999997;stroke-linecap:round;stroke-linejoin:round;stroke-miterlimit:4;stroke-dasharray:none;stroke-dashoffset:0;stroke-opacity:1;paint-order:markers fill stroke" />
      <circle
         style="opacity:1;fill:#282a2e;fill-opacity:1;fill-rule:nonzero;stroke:none;stroke-width:0.09999999;stroke-linecap:round;stroke-linejoin:round;stroke-miterlimit:4;stroke-dasharray:none;stroke-dashoffset:0;stroke-opacity:1;paint-order:markers fill stroke"
         id="circle1035"
         cx="50.761295"
         cy="279.31024"
         r="2.7001452" />
      <circle
         r="1.124633"
         cy="279.28284"
         cx="50.77499"
         id="path1033"
         style="opacity:1;fill:#18191c;fill-opacity:1;fill-rule:nonzero;stroke:none;stroke-width:0.1;stroke-linecap:round;stroke-linejoin:round;stroke-miterlimit:4;stroke-dasharray:none;stroke-dashoffset:0;stroke-opacity:1;paint-order:markers fill stroke" />
      <path
         sodipodi:nodetypes="ccsccc"
         inkscape:connector-curvature="0"
         id="path1137"
         d="m 48.105459,276.72317 1.08487,1.09761 c 0,0 0.529002,-0.30337 0.861193,-0.40625 0.368072,-0.11401 1.085277,-0.0807 1.060081,-0.0349 l 0.245074,-1.62135 c 0,0 -1.392394,-0.56364 -3.251209,0.96486 z"
         style="opacity:1;fill:#85ba2b;fill-opacity:1;stroke:none;stroke-width:0.07332931px;stroke-linecap:butt;stroke-linejoin:miter;stroke-opacity:1" />
      <path
         sodipodi:nodetypes="ccsccc"
         inkscape:connector-curvature="0"
         id="path1139"
         d="m 47.94931,276.9263 1.203555,1.02197 c 0,0 -0.130516,0.15539 -0.218287,0.34036 -0.08026,0.16909 -0.09643,0.3428 -0.09643,0.3428 l -1.592988,-0.48578 c 0,0 0.333167,-0.89759 0.704212,-1.21936 z"
         style="opacity:1;fill:#85ba2b;fill-opacity:1;stroke:none;stroke-width:0.07332931px;stroke-linecap:butt;stroke-linejoin:miter;stroke-opacity:1" />
      <ellipse
         ry="0.36812267"
         rx="0.34390408"
         cy="280.12448"
         cx="48.50016"
         id="path1966"
         style="opacity:1;fill:#004385;fill-opacity:1;fill-rule:nonzero;stroke:none;stroke-width:0.1;stroke-linecap:round;stroke-linejoin:round;stroke-miterlimit:4;stroke-dasharray:none;stroke-dashoffset:0;stroke-opacity:1;paint-order:markers fill stroke" />
      <ellipse
         style="opacity:1;fill:#9e2f90;fill-opacity:1;fill-rule:nonzero;stroke:none;stroke-width:0.1;stroke-linecap:round;stroke-linejoin:round;stroke-miterlimit:4;stroke-dasharray:none;stroke-dashoffset:0;stroke-opacity:1;paint-order:markers fill stroke"
         id="ellipse1968"
         cx="51.939201"
         cy="281.34509"
         rx="0.34390408"
         ry="0.36812267" />
      <path
         inkscape:original-d="m 47.594387,279.95009 c -0.08531,0.009 -0.170881,0.0191 -0.256717,0.0291 -0.07588,0.10828 -0.151506,0.21608 -0.227656,0.32453 0.07798,0.20859 0.155263,0.41629 0.232498,0.62484 0.09074,0.11121 0.181096,0.22254 0.271248,0.33421 0.110085,0.005 0.219847,0.009 0.329374,0.0145 0.06792,-0.026 0.135888,-0.0519 0.203436,-0.0775 0.03883,-0.0549 0.07776,-0.11005 0.11625,-0.16468 -0.04791,-0.11588 -0.09661,-0.23277 -0.145312,-0.34875 -0.04651,-0.0744 -0.09338,-0.14881 -0.140467,-0.22281 -0.04813,-0.0616 -0.09661,-0.12297 -0.145312,-0.18406 -0.01426,-0.0632 -0.0288,-0.1262 -0.0436,-0.18891 -0.06412,-0.0469 -0.1289,-0.0939 -0.193747,-0.14047 z"
         inkscape:path-effect="#path-effect1974"
         inkscape:connector-curvature="0"
         id="path1972"
         d="m 47.55177,279.95492 c -0.04262,0.005 -0.128234,0.0145 -0.209133,0.0735 -0.0809,0.059 -0.156522,0.16679 -0.155743,0.32538 7.79e-4,0.1586 0.07806,0.3663 0.162065,0.52624 0.084,0.15994 0.174359,0.27127 0.274626,0.32941 0.100267,0.0581 0.209992,0.063 0.298751,0.0524 0.08876,-0.0105 0.15673,-0.0364 0.209872,-0.0768 0.05314,-0.0403 0.09207,-0.0955 0.08723,-0.18065 -0.0048,-0.0852 -0.05355,-0.20206 -0.101134,-0.29722 -0.04759,-0.0952 -0.09448,-0.16956 -0.142093,-0.23734 -0.04761,-0.0678 -0.09607,-0.12916 -0.12756,-0.19138 -0.03149,-0.0622 -0.04603,-0.12523 -0.08543,-0.17993 -0.0394,-0.0547 -0.104199,-0.10169 -0.136516,-0.12512 -0.03232,-0.0234 -0.03231,-0.0234 -0.07493,-0.0186 z"
         style="opacity:1;fill:#205d99;fill-opacity:1;stroke:none;stroke-width:1;stroke-linecap:butt;stroke-linejoin:miter;stroke-miterlimit:4;stroke-dasharray:none;stroke-opacity:1" />
      <path
         style="opacity:1;fill:#d940c6;fill-opacity:1;stroke:none;stroke-width:1;stroke-linecap:butt;stroke-linejoin:miter;stroke-miterlimit:4;stroke-dasharray:none;stroke-opacity:1"
         d="m 52.827944,281.56143 c 0.03973,0.0162 0.119539,0.0486 0.181502,0.12724 0.06196,0.0786 0.105663,0.20286 0.06208,0.35536 -0.04358,0.15249 -0.174085,0.3316 -0.298165,0.46291 -0.124081,0.13132 -0.241131,0.2141 -0.353373,0.243 -0.112242,0.0289 -0.219196,0.004 -0.301818,-0.0302 -0.08262,-0.0341 -0.14108,-0.0774 -0.181358,-0.13061 -0.04028,-0.0532 -0.06285,-0.11676 -0.0352,-0.19745 0.02766,-0.0807 0.106134,-0.1801 0.177663,-0.25889 0.07153,-0.0788 0.136759,-0.13774 0.200899,-0.19013 0.06414,-0.0524 0.127377,-0.0984 0.174505,-0.14983 0.04713,-0.0514 0.07814,-0.10814 0.130848,-0.15017 0.05271,-0.042 0.127802,-0.0698 0.165243,-0.0836 0.03744,-0.0138 0.03744,-0.0138 0.07717,0.002 z"
         id="path1976"
         inkscape:connector-curvature="0"
         inkscape:path-effect="#path-effect1978"
         inkscape:original-d="m 52.788212,281.54528 c 0.07971,0.0317 0.159374,0.0645 0.23932,0.0973 0.04382,0.12475 0.08752,0.24897 0.131553,0.37396 -0.131415,0.17978 -0.261919,0.35889 -0.392605,0.53883 -0.117402,0.0826 -0.234467,0.16536 -0.351427,0.24854 -0.107345,-0.0249 -0.214109,-0.0507 -0.321052,-0.075 -0.05837,-0.0434 -0.116822,-0.0867 -0.174946,-0.12956 -0.02256,-0.0634 -0.04515,-0.12696 -0.06746,-0.18996 0.07742,-0.0986 0.155883,-0.19803 0.234097,-0.29655 0.06488,-0.0591 0.130099,-0.11806 0.195421,-0.17659 0.06298,-0.0463 0.126229,-0.0923 0.18962,-0.13798 0.0308,-0.057 0.06181,-0.11373 0.093,-0.17012 0.0744,-0.0278 0.149469,-0.0556 0.224483,-0.0829 z" />
    </g>
  </g>
</svg>
