<?xml version="1.0" encoding="UTF-8" standalone="no"?>
<!-- Created with Inkscape (http://www.inkscape.org/) -->

<svg
   xmlns:osb="http://www.openswatchbook.org/uri/2009/osb"
   xmlns:dc="http://purl.org/dc/elements/1.1/"
   xmlns:cc="http://creativecommons.org/ns#"
   xmlns:rdf="http://www.w3.org/1999/02/22-rdf-syntax-ns#"
   xmlns:svg="http://www.w3.org/2000/svg"
   xmlns="http://www.w3.org/2000/svg"
   xmlns:xlink="http://www.w3.org/1999/xlink"
   xmlns:sodipodi="http://sodipodi.sourceforge.net/DTD/sodipodi-0.dtd"
   xmlns:inkscape="http://www.inkscape.org/namespaces/inkscape"
   width="128"
   height="128"
   viewBox="0 0 33.866666 33.866668"
   version="1.1"
   id="svg8"
   inkscape:version="0.92.2 5c3e80d, 2017-08-06"
   sodipodi:docname="libreoffice-extension.svg">
  <defs
     id="defs2">
    <linearGradient
       id="linearGradient1830">
      <stop
         id="stop1826"
         style="stop-color:#d9d9d9;stop-opacity:1"
         offset="0" />
      <stop
         id="stop1828"
         style="stop-color:#ffffff;stop-opacity:1;"
         offset="1" />
    </linearGradient>
    <linearGradient
       osb:paint="solid"
       id="linearGradient6987">
      <stop
         id="stop6985"
         offset="0"
         style="stop-color:#77d2fb;stop-opacity:1;" />
    </linearGradient>
    <linearGradient
       inkscape:collect="always"
       xlink:href="#linearGradient1830"
       id="linearGradient1503-8-3"
       x1="29.203474"
       y1="263.52237"
       x2="4.5843229"
       y2="296.16849"
       gradientUnits="userSpaceOnUse"
       gradientTransform="matrix(0.95481176,0,0,0.95480184,0.765188,12.661897)" />
    <linearGradient
       id="linearGradient910"
       inkscape:collect="always">
      <stop
         id="stop906"
         offset="0"
         style="stop-color:#aab1b2;stop-opacity:1" />
      <stop
         id="stop908"
         offset="1"
         style="stop-color:#d3e5e9;stop-opacity:1" />
    </linearGradient>
    <linearGradient
       gradientTransform="matrix(0.20090754,0,0,0.20096759,-2.4062037,254.67929)"
       gradientUnits="userSpaceOnUse"
       y2="56.983292"
       x2="84.651352"
       y1="195.96344"
       x1="82.212303"
       id="linearGradient912"
       xlink:href="#linearGradient910"
       inkscape:collect="always" />
  </defs>
  <sodipodi:namedview
     id="base"
     pagecolor="#ffffff"
     bordercolor="#666666"
     borderopacity="1.0"
     inkscape:pageopacity="0.0"
     inkscape:pageshadow="2"
     inkscape:zoom="2.4140626"
     inkscape:cx="33.294928"
     inkscape:cy="36.633675"
     inkscape:document-units="mm"
     inkscape:current-layer="layer1"
     showgrid="false"
     units="px"
     inkscape:window-width="1600"
     inkscape:window-height="811"
     inkscape:window-x="0"
     inkscape:window-y="0"
     inkscape:window-maximized="1"
     showguides="false"
     inkscape:snap-nodes="false" />
  <metadata
     id="metadata5">
    <rdf:RDF>
      <cc:Work
         rdf:about="">
        <dc:format>image/svg+xml</dc:format>
        <dc:type
           rdf:resource="http://purl.org/dc/dcmitype/StillImage" />
        <dc:title />
      </cc:Work>
    </rdf:RDF>
  </metadata>
  <g
     inkscape:label="Layer 1"
     inkscape:groupmode="layer"
     id="layer1"
     transform="translate(0,-263.13332)">
    <g
       style="stroke-width:4.08449793"
       inkscape:transform-center-y="-9.4924686"
       inkscape:transform-center-x="5.4653607"
       inkscape:label="Capa 1"
       id="layer1-4-3"
       transform="matrix(0.53602412,0,0,0.5372689,-234.93365,-13.785303)">
      <g
         style="stroke-width:4.08449793"
         id="layer1-3-65-9"
         inkscape:label="Capa 1"
         transform="translate(0.41988239,0.03484499)" />
    </g>
    <g
       style="stroke-width:4.08449793"
       inkscape:transform-center-y="-9.4924686"
       inkscape:transform-center-x="5.4653607"
       inkscape:label="Capa 1"
       id="layer1-4"
       transform="matrix(0.53602412,0,0,0.5372689,-234.93365,-13.7603)">
      <g
         style="stroke-width:4.08449793"
         id="layer1-3-65"
         inkscape:label="Capa 1"
         transform="translate(0.41988239,0.03484499)" />
    </g>
    <path
       style="opacity:0.25;fill:#000000;fill-opacity:1;stroke:none;stroke-width:1.7883966;stroke-miterlimit:4;stroke-dasharray:none;stroke-opacity:1"
       d="m 5.142353,264.8392 v 31.10591 h 23.581961 v -17.45475 c -0.04498,-0.7929 -0.09696,-1.50255 -0.298063,-2.22205 -0.204573,-0.73192 -0.526951,-1.42494 -0.912236,-2.08813 -0.492998,-0.84861 -1.326132,-1.39576 -2.066596,-2.09122 -0.449226,-0.40738 -1.419471,-1.3751 -2.593872,-2.5305 -1.164791,-1.14594 -2.530897,-2.47697 -3.671384,-3.51104 -0.336848,-0.30398 -0.826157,-0.61944 -1.28075,-0.80163 -0.352994,-0.14146 -0.768267,-0.22951 -1.169211,-0.28869 -0.413429,-0.061 -0.811623,-0.0914 -1.110603,-0.1179 z"
       id="path5023-4-5"
       inkscape:connector-curvature="0"
       sodipodi:nodetypes="ccccascscsscc" />
    <path
       sodipodi:nodetypes="ccccascscsscc"
       inkscape:connector-curvature="0"
       id="path4623-8-3"
       d="m 5.142353,264.33819 v 31.10591 h 23.581961 v -17.45475 c -0.04498,-0.7929 -0.09696,-1.50256 -0.298063,-2.22206 -0.204573,-0.73192 -0.526951,-1.42494 -0.912236,-2.08813 -0.492998,-0.8486 -1.326132,-1.39575 -2.066596,-2.09121 -0.449226,-0.40739 -1.419471,-1.37511 -2.593872,-2.53051 -1.164791,-1.14592 -2.530897,-2.47697 -3.671384,-3.51104 -0.336848,-0.30398 -0.826157,-0.61945 -1.28075,-0.80162 -0.352994,-0.14146 -0.768267,-0.22952 -1.169211,-0.28869 -0.413429,-0.0611 -0.811623,-0.0914 -1.110603,-0.1179 z"
       style="opacity:1;fill:url(#linearGradient1503-8-3);fill-opacity:1;stroke:#808080;stroke-width:0.30000001;stroke-miterlimit:4;stroke-dasharray:none;stroke-opacity:1" />
    <path
       sodipodi:nodetypes="ccccsccsc"
       inkscape:connector-curvature="0"
       id="path1355-8-5"
       d="m 19.620994,266.16126 c 0.01558,0.0251 0.535221,0.86284 0.694175,1.33425 0.430727,0.96558 0.246637,3.78888 0.238805,5.39748 0.02644,-0.18505 4.473865,-1.33136 6.782594,0.76747 -0.01476,-0.026 -0.04662,-0.0767 -0.119341,-0.17767 -0.06901,-0.0958 -0.174308,-0.23765 -0.354479,-0.42182 -0.503715,-0.5766 -0.22026,-0.0806 -0.768208,-0.6505 -0.473747,-0.42966 -1.496999,-1.45025 -2.735519,-2.66881 -1.183854,-1.16476 -2.562819,-2.50808 -3.738027,-3.5804 z"
       style="opacity:0.24800002;fill:#000000;fill-opacity:1;stroke:none;stroke-width:0.28614345;stroke-miterlimit:4;stroke-dasharray:none;stroke-opacity:1" />
    <path
       style="opacity:1;fill:#ffffff;fill-opacity:1;stroke:#808080;stroke-width:0.30000001;stroke-miterlimit:4;stroke-dasharray:none;stroke-opacity:1"
       d="m 19.308998,265.6626 c 0.01477,0.0238 0.507514,0.81811 0.658239,1.26509 0.40843,0.91553 0.278738,3.06938 0.271311,4.5946 0.409178,-0.0213 4.921198,-0.70296 6.989915,1.73982 -0.02793,-0.0483 -0.09803,-0.0884 -0.13713,-0.16512 -0.477638,-0.54671 -1.086946,-0.98598 -1.643914,-1.50908 -0.449221,-0.4074 -1.419501,-1.37509 -2.593906,-2.53048 -1.122567,-1.10439 -2.430145,-2.3781 -3.544515,-3.39483 z"
       id="path4753-0-6"
       inkscape:connector-curvature="0"
       sodipodi:nodetypes="ccccccsc" />
    <g
       style="stroke-width:4.08449793"
       inkscape:transform-center-y="-9.4924686"
       inkscape:transform-center-x="5.4653607"
       inkscape:label="Capa 1"
       id="layer1-4-3-2"
       transform="matrix(0.51126596,0,0,0.51245325,-269.32006,5.6156869)">
      <g
         style="stroke-width:4.08449793"
         id="layer1-3-65-9-9"
         inkscape:label="Capa 1"
         transform="translate(0.41988239,0.03484499)" />
    </g>
    <g
       style="stroke-width:4.08449793"
       inkscape:transform-center-y="-9.4924686"
       inkscape:transform-center-x="5.4653607"
       inkscape:label="Capa 1"
       id="layer1-4-1"
       transform="matrix(0.51126596,0,0,0.51245325,-269.32006,5.6395364)">
      <g
         style="stroke-width:4.08449793"
         id="layer1-3-65-2"
         inkscape:label="Capa 1"
         transform="translate(0.41988239,0.03484499)" />
    </g>
    <g
       aria-label="OXT"
       style="font-style:normal;font-weight:normal;font-size:4.60694408px;line-height:1.25;font-family:sans-serif;letter-spacing:0px;word-spacing:0px;fill:#575757;fill-opacity:1;stroke:none;stroke-width:0.26458329"
       id="text1198">
      <path
         d="m 13.594002,293.79509 q -0.783673,0 -1.253412,-0.493 -0.469738,-0.49299 -0.469738,-1.31387 0,-0.83018 0.472064,-1.31852 0.472064,-0.48835 1.274341,-0.48835 0.797625,0 1.26969,0.48835 0.474389,0.48834 0.474389,1.31154 0,0.84181 -0.474389,1.32783 -0.472065,0.48602 -1.292945,0.48602 z m 0.0093,-0.47439 q 0.460437,0 0.727863,-0.36045 0.269751,-0.36276 0.269751,-0.98133 0,-0.59996 -0.269751,-0.96273 -0.269751,-0.36277 -0.71391,-0.36277 -0.44881,0 -0.718561,0.36277 -0.267426,0.36277 -0.267426,0.9697 0,0.60229 0.267426,0.96971 0.267425,0.3651 0.704608,0.3651 z"
         style="font-style:normal;font-variant:normal;font-weight:600;font-stretch:normal;font-size:4.76249981px;font-family:'Lucida Grande';-inkscape-font-specification:'Lucida Grande Semi-Bold';fill:#575757;fill-opacity:1;stroke-width:0.26458329"
         id="path1542" />
      <path
         d="m 15.693874,293.70905 1.102258,-1.69525 -1.053424,-1.7464 h 0.834833 l 0.699957,1.15806 0.758093,-1.15806 h 0.579035 l -1.05575,1.62315 1.092957,1.8185 h -0.832507 l -0.746466,-1.23016 -0.799952,1.23016 z"
         style="font-style:normal;font-variant:normal;font-weight:600;font-stretch:normal;font-size:4.76249981px;font-family:'Lucida Grande';-inkscape-font-specification:'Lucida Grande Semi-Bold';fill:#575757;fill-opacity:1;stroke-width:0.26458329"
         id="path1544" />
      <path
         d="m 20.044771,293.70905 v -2.96959 h -1.232483 v -0.47206 h 3.183527 v 0.47206 h -1.232483 v 2.96959 z"
         style="font-style:normal;font-variant:normal;font-weight:600;font-stretch:normal;font-size:4.76249981px;font-family:'Lucida Grande';-inkscape-font-specification:'Lucida Grande Semi-Bold';fill:#575757;fill-opacity:1;stroke-width:0.26458329"
         id="path1546" />
    </g>
    <g
       transform="matrix(0.4392526,0,0,0.43862401,9.4953203,157.04001)"
       id="layer1-0"
       inkscape:label="Layer 1"
       style="stroke-width:2.27822495">
      <path
         style="fill:url(#linearGradient912);fill-opacity:1;stroke:#808080;stroke-width:0.68346763;stroke-miterlimit:4;stroke-dasharray:none;stroke-opacity:1"
         d="m 3.9888591,294.11608 c -0.6853943,-0.10494 -1.3240745,-0.42949 -1.8174285,-0.92357 -0.4147597,-0.41537 -0.7029191,-0.92847 -0.8674387,-1.54459 l -0.073052,-0.2736 v -4.15477 c 0,-4.00163 0.00236,-4.16161 0.064206,-4.33981 0.232669,-0.67056 0.5045907,-0.98814 0.9625558,-1.12417 0.3331633,-0.099 0.7495123,-0.0504 1.1024675,0.12845 0.088305,0.0447 0.2810212,0.18185 0.4282575,0.30463 0.6069749,0.50618 1.175698,0.60939 1.7854083,0.32401 0.5354933,-0.25066 0.8439602,-0.77708 0.9747605,-1.6635 0.073018,-0.49483 0.04784,-1.41491 -0.050466,-1.84416 -0.1438517,-0.62815 -0.4323377,-1.11527 -0.8098315,-1.36741 -0.2678999,-0.17895 -0.4823426,-0.24148 -0.8280804,-0.24148 -0.3654925,0 -0.5843015,0.0716 -1.1146411,0.36406 -0.4918347,0.27134 -0.7489925,0.36622 -1.0746615,0.3965 -0.7050131,0.0655 -1.244492,-0.31805 -1.4049519,-0.99897 -0.075803,-0.32168 -0.077305,-7.91628 -0.00168,-8.35021 0.09719,-0.55749 0.3532455,-1.11783 0.7439738,-1.62808 0.4129189,-0.53924 1.0625209,-0.95924 1.7319081,-1.11976 0.2795602,-0.067 0.3787,-0.0677 10.213921,-0.068 8.885727,-1.9e-4 9.95892,0.005 10.190859,0.0524 1.175405,0.23907 2.134862,1.21026 2.505983,2.53663 0.0696,0.24872 0.07127,0.3236 0.0918,4.07174 0.01888,3.44827 0.02642,3.83751 0.07784,4.01593 0.07205,0.24996 0.161043,0.37491 0.327448,0.45983 0.426696,0.21775 0.919944,0.0666 1.468508,-0.4499 0.373007,-0.35123 0.607788,-0.47546 1.008995,-0.53397 0.781676,-0.11394 1.608944,0.29488 2.166644,1.07075 0.697951,0.97097 0.987326,2.2818 0.819787,3.71348 -0.212254,1.81376 -1.181128,2.96028 -2.501606,2.96028 -0.582025,0 -0.977853,-0.15564 -1.535642,-0.60385 -0.460898,-0.37034 -0.733458,-0.50634 -1.014853,-0.50634 -0.417604,0 -0.640384,0.20788 -0.757138,0.70649 -0.02303,0.0984 -0.04343,1.51305 -0.05823,4.03703 -0.02249,3.83358 -0.02376,3.8891 -0.09485,4.14385 -0.282781,1.01333 -0.899661,1.75953 -1.804207,2.18242 -0.150184,0.0702 -0.39414,0.16257 -0.542127,0.2052 l -0.269065,0.0775 -9.938612,0.005 c -5.4662344,0.003 -10.0142844,-0.007 -10.1067757,-0.0205 z"
         id="path894"
         inkscape:connector-curvature="0" />
    </g>
  </g>
</svg>
