<?xml version="1.0" encoding="UTF-8" standalone="no"?>
<!-- Created with Inkscape (http://www.inkscape.org/) -->

<svg
   xmlns:osb="http://www.openswatchbook.org/uri/2009/osb"
   xmlns:dc="http://purl.org/dc/elements/1.1/"
   xmlns:cc="http://creativecommons.org/ns#"
   xmlns:rdf="http://www.w3.org/1999/02/22-rdf-syntax-ns#"
   xmlns:svg="http://www.w3.org/2000/svg"
   xmlns="http://www.w3.org/2000/svg"
   xmlns:xlink="http://www.w3.org/1999/xlink"
   xmlns:sodipodi="http://sodipodi.sourceforge.net/DTD/sodipodi-0.dtd"
   xmlns:inkscape="http://www.inkscape.org/namespaces/inkscape"
   width="128"
   height="128"
   viewBox="0 0 33.866666 33.866668"
   version="1.1"
   id="svg8"
   inkscape:version="0.92.2 5c3e80d, 2017-08-06"
   sodipodi:docname="org 4.svg">
  <defs
     id="defs2">
    <linearGradient
       id="linearGradient1830">
      <stop
         id="stop1826"
         style="stop-color:#d9d9d9;stop-opacity:1"
         offset="0" />
      <stop
         id="stop1828"
         style="stop-color:#ffffff;stop-opacity:1;"
         offset="1" />
    </linearGradient>
    <linearGradient
       osb:paint="solid"
       id="linearGradient6987">
      <stop
         id="stop6985"
         offset="0"
         style="stop-color:#77d2fb;stop-opacity:1;" />
    </linearGradient>
    <linearGradient
       inkscape:collect="always"
       xlink:href="#linearGradient1830"
       id="linearGradient1503-8-3"
       x1="29.203474"
       y1="263.52237"
       x2="4.5843229"
       y2="296.16849"
       gradientUnits="userSpaceOnUse"
       gradientTransform="matrix(0.95481176,0,0,0.95480184,0.765188,12.661897)" />
  </defs>
  <sodipodi:namedview
     id="base"
     pagecolor="#ffffff"
     bordercolor="#666666"
     borderopacity="1.0"
     inkscape:pageopacity="0.0"
     inkscape:pageshadow="2"
     inkscape:zoom="3.9492611"
     inkscape:cx="46.32023"
     inkscape:cy="21.784655"
     inkscape:document-units="mm"
     inkscape:current-layer="layer1"
     showgrid="false"
     units="px"
     inkscape:window-width="1600"
     inkscape:window-height="798"
     inkscape:window-x="0"
     inkscape:window-y="0"
     inkscape:window-maximized="1"
     showguides="true"
     inkscape:snap-nodes="false" />
  <metadata
     id="metadata5">
    <rdf:RDF>
      <cc:Work
         rdf:about="">
        <dc:format>image/svg+xml</dc:format>
        <dc:type
           rdf:resource="http://purl.org/dc/dcmitype/StillImage" />
        <dc:title />
      </cc:Work>
    </rdf:RDF>
  </metadata>
  <g
     inkscape:label="Layer 1"
     inkscape:groupmode="layer"
     id="layer1"
     transform="translate(0,-263.13332)">
    <g
       style="stroke-width:4.08449793"
       inkscape:transform-center-y="-9.4924686"
       inkscape:transform-center-x="5.4653607"
       inkscape:label="Capa 1"
       id="layer1-4-3"
       transform="matrix(0.53602412,0,0,0.5372689,-234.93365,-13.785303)">
      <g
         style="stroke-width:4.08449793"
         id="layer1-3-65-9"
         inkscape:label="Capa 1"
         transform="translate(0.41988239,0.03484499)" />
    </g>
    <g
       style="stroke-width:4.08449793"
       inkscape:transform-center-y="-9.4924686"
       inkscape:transform-center-x="5.4653607"
       inkscape:label="Capa 1"
       id="layer1-4"
       transform="matrix(0.53602412,0,0,0.5372689,-234.93365,-13.7603)">
      <g
         style="stroke-width:4.08449793"
         id="layer1-3-65"
         inkscape:label="Capa 1"
         transform="translate(0.41988239,0.03484499)" />
    </g>
    <path
       style="opacity:0.25;fill:#000000;fill-opacity:1;stroke:none;stroke-width:1.7883966;stroke-miterlimit:4;stroke-dasharray:none;stroke-opacity:1"
       d="m 5.142353,264.8392 v 31.10591 h 23.581961 v -17.45475 c -0.04498,-0.7929 -0.09696,-1.50255 -0.298063,-2.22205 -0.204573,-0.73192 -0.526951,-1.42494 -0.912236,-2.08813 -0.492998,-0.84861 -1.326132,-1.39576 -2.066596,-2.09122 -0.449226,-0.40738 -1.419471,-1.3751 -2.593872,-2.5305 -1.164791,-1.14594 -2.530897,-2.47697 -3.671384,-3.51104 -0.336848,-0.30398 -0.826157,-0.61944 -1.28075,-0.80163 -0.352994,-0.14146 -0.768267,-0.22951 -1.169211,-0.28869 -0.413429,-0.061 -0.811623,-0.0914 -1.110603,-0.1179 z"
       id="path5023-4-5"
       inkscape:connector-curvature="0"
       sodipodi:nodetypes="ccccascscsscc" />
    <path
       sodipodi:nodetypes="ccccascscsscc"
       inkscape:connector-curvature="0"
       id="path4623-8-3"
       d="m 5.142353,264.33819 v 31.10591 h 23.581961 v -17.45475 c -0.04498,-0.7929 -0.09696,-1.50256 -0.298063,-2.22206 -0.204573,-0.73192 -0.526951,-1.42494 -0.912236,-2.08813 -0.492998,-0.8486 -1.326132,-1.39575 -2.066596,-2.09121 -0.449226,-0.40739 -1.419471,-1.37511 -2.593872,-2.53051 -1.164791,-1.14592 -2.530897,-2.47697 -3.671384,-3.51104 -0.336848,-0.30398 -0.826157,-0.61945 -1.28075,-0.80162 -0.352994,-0.14146 -0.768267,-0.22952 -1.169211,-0.28869 -0.413429,-0.0611 -0.811623,-0.0914 -1.110603,-0.1179 z"
       style="opacity:1;fill:url(#linearGradient1503-8-3);fill-opacity:1;stroke:#808080;stroke-width:0.30000001;stroke-miterlimit:4;stroke-dasharray:none;stroke-opacity:1" />
    <g
       aria-label="package main import &quot;fmt&quot; func main(){      fmt.println(&quot;Hello, World&quot;) }     "
       transform="matrix(0.26458333,0,0,0.26458333,-1.1908824,263.13729)"
       style="font-style:normal;font-weight:normal;font-size:8px;line-height:1.25;font-family:sans-serif;letter-spacing:0px;word-spacing:0px;fill:#000000;fill-opacity:1;stroke:none"
       id="flowRoot2921">
      <path
         d="m 34.583984,25.632812 v 1.107422 h -0.361328 v -3.019531 h 0.361328 V 24 q 0.08984,-0.162109 0.238282,-0.246094 0.15039,-0.08594 0.345703,-0.08594 0.396484,0 0.621093,0.30664 0.226563,0.306641 0.226563,0.84961 0,0.533203 -0.226563,0.83789 -0.226562,0.302735 -0.621093,0.302735 -0.199219,0 -0.34961,-0.08398 -0.148437,-0.08594 -0.234375,-0.248047 z m 1.054688,-0.816406 q 0,-0.417969 -0.132813,-0.630859 -0.130859,-0.212891 -0.390625,-0.212891 -0.261718,0 -0.396484,0.214844 -0.134766,0.212891 -0.134766,0.628906 0,0.414063 0.134766,0.628906 0.134766,0.214844 0.396484,0.214844 0.259766,0 0.390625,-0.21289 0.132813,-0.212891 0.132813,-0.63086 z"
         style="font-style:normal;font-variant:normal;font-weight:normal;font-stretch:normal;font-size:4px;line-height:0;font-family:monospace;-inkscape-font-specification:monospace;fill:#000000"
         id="path2975"
         inkscape:connector-curvature="0" />
      <path
         d="m 37.628906,24.808594 h -0.11914 q -0.314454,0 -0.47461,0.111328 -0.158203,0.109375 -0.158203,0.328125 0,0.197265 0.119141,0.30664 0.11914,0.109375 0.330078,0.109375 0.296875,0 0.466797,-0.205078 0.169922,-0.207031 0.171875,-0.570312 v -0.08008 z m 0.697266,-0.148438 v 1.248047 h -0.361328 v -0.324219 q -0.115235,0.195313 -0.291016,0.289063 -0.173828,0.0918 -0.423828,0.0918 -0.333984,0 -0.533203,-0.1875 -0.199219,-0.189453 -0.199219,-0.50586 0,-0.365234 0.244141,-0.554687 0.246093,-0.189453 0.720703,-0.189453 h 0.482422 v -0.05664 q -0.002,-0.261719 -0.132813,-0.378906 -0.130859,-0.119141 -0.417969,-0.119141 -0.183593,0 -0.371093,0.05273 -0.1875,0.05273 -0.365235,0.154296 v -0.359375 q 0.199219,-0.07617 0.38086,-0.113281 0.183593,-0.03906 0.355468,-0.03906 0.271485,0 0.462891,0.08008 0.193359,0.08008 0.3125,0.240234 0.07422,0.09766 0.105469,0.242188 0.03125,0.142578 0.03125,0.429687 z"
         style="font-style:normal;font-variant:normal;font-weight:normal;font-stretch:normal;font-size:4px;line-height:0;font-family:monospace;-inkscape-font-specification:monospace;fill:#000000"
         id="path2977"
         inkscape:connector-curvature="0" />
      <path
         d="m 40.736328,25.796875 q -0.144531,0.08398 -0.298828,0.125 -0.152344,0.04297 -0.3125,0.04297 -0.507813,0 -0.794922,-0.304688 -0.285156,-0.304687 -0.285156,-0.84375 0,-0.539062 0.285156,-0.84375 0.287109,-0.304687 0.794922,-0.304687 0.158203,0 0.308594,0.04102 0.15039,0.04102 0.302734,0.126953 v 0.376954 q -0.142578,-0.126954 -0.287109,-0.183594 -0.142578,-0.05664 -0.324219,-0.05664 -0.337891,0 -0.519531,0.21875 -0.181641,0.21875 -0.181641,0.625 0,0.404297 0.181641,0.625 0.183593,0.21875 0.519531,0.21875 0.1875,0 0.335937,-0.05664 0.148438,-0.05859 0.275391,-0.179688 z"
         style="font-style:normal;font-variant:normal;font-weight:normal;font-stretch:normal;font-size:4px;line-height:0;font-family:monospace;-inkscape-font-specification:monospace;fill:#000000"
         id="path2979"
         inkscape:connector-curvature="0" />
      <path
         d="m 41.53125,22.869141 h 0.371094 v 1.759765 l 0.943359,-0.908203 h 0.4375 l -0.861328,0.824219 0.996094,1.363281 h -0.439453 l -0.808594,-1.128906 -0.267578,0.251953 v 0.876953 H 41.53125 Z"
         style="font-style:normal;font-variant:normal;font-weight:normal;font-stretch:normal;font-size:4px;line-height:0;font-family:monospace;-inkscape-font-specification:monospace;fill:#000000"
         id="path2981"
         inkscape:connector-curvature="0" />
      <path
         d="m 44.847656,24.808594 h -0.11914 q -0.314454,0 -0.47461,0.111328 -0.158203,0.109375 -0.158203,0.328125 0,0.197265 0.119141,0.30664 0.11914,0.109375 0.330078,0.109375 0.296875,0 0.466797,-0.205078 0.169922,-0.207031 0.171875,-0.570312 v -0.08008 z m 0.697266,-0.148438 v 1.248047 h -0.361328 v -0.324219 q -0.115235,0.195313 -0.291016,0.289063 -0.173828,0.0918 -0.423828,0.0918 -0.333984,0 -0.533203,-0.1875 -0.199219,-0.189453 -0.199219,-0.50586 0,-0.365234 0.244141,-0.554687 0.246093,-0.189453 0.720703,-0.189453 h 0.482422 v -0.05664 q -0.002,-0.261719 -0.132813,-0.378906 -0.130859,-0.119141 -0.417969,-0.119141 -0.183593,0 -0.371093,0.05273 -0.1875,0.05273 -0.365235,0.154296 v -0.359375 q 0.199219,-0.07617 0.38086,-0.113281 0.183593,-0.03906 0.355468,-0.03906 0.271485,0 0.462891,0.08008 0.193359,0.08008 0.3125,0.240234 0.07422,0.09766 0.105469,0.242188 0.03125,0.142578 0.03125,0.429687 z"
         style="font-style:normal;font-variant:normal;font-weight:normal;font-stretch:normal;font-size:4px;line-height:0;font-family:monospace;-inkscape-font-specification:monospace;fill:#000000"
         id="path2983"
         inkscape:connector-curvature="0" />
      <path
         d="m 47.558594,24.796875 q 0,-0.404297 -0.132813,-0.613281 -0.130859,-0.210938 -0.382812,-0.210938 -0.263672,0 -0.402344,0.210938 -0.138672,0.208984 -0.138672,0.613281 0,0.404297 0.138672,0.617187 0.140625,0.210938 0.40625,0.210938 0.248047,0 0.378906,-0.212891 0.132813,-0.21289 0.132813,-0.615234 z m 0.359375,0.970703 q 0,0.492188 -0.232422,0.746094 -0.232422,0.253906 -0.683594,0.253906 -0.148437,0 -0.310547,-0.02734 -0.162109,-0.02734 -0.324219,-0.08008 v -0.355469 q 0.191407,0.08984 0.347657,0.132813 0.15625,0.04297 0.287109,0.04297 0.291016,0 0.423828,-0.158203 0.132813,-0.158204 0.132813,-0.501954 v -0.01563 -0.24414 q -0.08594,0.183594 -0.234375,0.273437 -0.148438,0.08984 -0.361328,0.08984 -0.382813,0 -0.611329,-0.306641 -0.228515,-0.30664 -0.228515,-0.820312 0,-0.515625 0.228515,-0.822266 0.228516,-0.30664 0.611329,-0.30664 0.210937,0 0.357421,0.08398 0.146485,0.08398 0.238282,0.259766 v -0.283203 h 0.359375 z"
         style="font-style:normal;font-variant:normal;font-weight:normal;font-stretch:normal;font-size:4px;line-height:0;font-family:monospace;-inkscape-font-specification:monospace;fill:#000000"
         id="path2985"
         inkscape:connector-curvature="0" />
      <path
         d="m 50.460937,24.724609 v 0.175782 h -1.55664 v 0.01172 q 0,0.357422 0.185547,0.552735 0.1875,0.195312 0.527343,0.195312 0.171875,0 0.359375,-0.05469 0.1875,-0.05469 0.400391,-0.166016 v 0.357422 q -0.205078,0.08398 -0.396484,0.125 -0.189453,0.04297 -0.367188,0.04297 -0.509765,0 -0.796875,-0.304688 -0.287109,-0.30664 -0.287109,-0.84375 0,-0.523437 0.28125,-0.835937 0.28125,-0.3125 0.75,-0.3125 0.417969,0 0.658203,0.283203 0.242187,0.283203 0.242187,0.773437 z m -0.359375,-0.105468 q -0.0078,-0.316407 -0.15039,-0.480469 -0.140625,-0.166016 -0.40625,-0.166016 -0.259766,0 -0.427735,0.171875 -0.167968,0.171875 -0.199218,0.476563 z"
         style="font-style:normal;font-variant:normal;font-weight:normal;font-stretch:normal;font-size:4px;line-height:0;font-family:monospace;-inkscape-font-specification:monospace;fill:#000000"
         id="path2987"
         inkscape:connector-curvature="0" />
      <path
         d="m 54.421875,23.943359 q 0.06641,-0.140625 0.167969,-0.207031 0.103515,-0.06836 0.248047,-0.06836 0.263671,0 0.371093,0.205078 0.109375,0.203125 0.109375,0.767578 v 1.267578 H 54.990234 V 24.65625 q 0,-0.462891 -0.05273,-0.574219 -0.05078,-0.113281 -0.1875,-0.113281 -0.15625,0 -0.214844,0.121094 -0.05664,0.11914 -0.05664,0.566406 v 1.251953 H 54.150391 V 24.65625 q 0,-0.46875 -0.05664,-0.578125 -0.05469,-0.109375 -0.199219,-0.109375 -0.142578,0 -0.199219,0.121094 -0.05469,0.11914 -0.05469,0.566406 v 1.251953 h -0.326172 v -2.1875 h 0.326172 v 0.1875 q 0.06445,-0.117187 0.160156,-0.177734 0.09766,-0.0625 0.220703,-0.0625 0.148438,0 0.246094,0.06836 0.09961,0.06836 0.154297,0.207031 z"
         style="font-style:normal;font-variant:normal;font-weight:normal;font-stretch:normal;font-size:4px;line-height:0;font-family:monospace;-inkscape-font-specification:monospace;fill:#000000"
         id="path2989"
         inkscape:connector-curvature="0" />
      <path
         d="m 56.878906,24.808594 h -0.11914 q -0.314454,0 -0.47461,0.111328 -0.158203,0.109375 -0.158203,0.328125 0,0.197265 0.119141,0.30664 0.11914,0.109375 0.330078,0.109375 0.296875,0 0.466797,-0.205078 0.169922,-0.207031 0.171875,-0.570312 v -0.08008 z m 0.697266,-0.148438 v 1.248047 h -0.361328 v -0.324219 q -0.115235,0.195313 -0.291016,0.289063 -0.173828,0.0918 -0.423828,0.0918 -0.333984,0 -0.533203,-0.1875 -0.199219,-0.189453 -0.199219,-0.50586 0,-0.365234 0.244141,-0.554687 0.246093,-0.189453 0.720703,-0.189453 h 0.482422 v -0.05664 q -0.002,-0.261719 -0.132813,-0.378906 -0.130859,-0.119141 -0.417969,-0.119141 -0.183593,0 -0.371093,0.05273 -0.1875,0.05273 -0.365235,0.154296 v -0.359375 q 0.199219,-0.07617 0.38086,-0.113281 0.183593,-0.03906 0.355468,-0.03906 0.271485,0 0.462891,0.08008 0.193359,0.08008 0.3125,0.240234 0.07422,0.09766 0.105469,0.242188 0.03125,0.142578 0.03125,0.429687 z"
         style="font-style:normal;font-variant:normal;font-weight:normal;font-stretch:normal;font-size:4px;line-height:0;font-family:monospace;-inkscape-font-specification:monospace;fill:#000000"
         id="path2991"
         inkscape:connector-curvature="0" />
      <path
         d="m 58.414062,23.720703 h 0.919922 v 1.908203 h 0.712891 v 0.279297 h -1.785156 v -0.279297 h 0.71289 V 24 h -0.560547 z m 0.560547,-0.851562 h 0.359375 v 0.455078 h -0.359375 z"
         style="font-style:normal;font-variant:normal;font-weight:normal;font-stretch:normal;font-size:4px;line-height:0;font-family:monospace;-inkscape-font-specification:monospace;fill:#000000"
         id="path2993"
         inkscape:connector-curvature="0" />
      <path
         d="m 62.373047,24.552734 v 1.355469 h -0.361328 v -1.355469 q 0,-0.294922 -0.103516,-0.433593 -0.103516,-0.138672 -0.324219,-0.138672 -0.251953,0 -0.388672,0.179687 -0.134765,0.177735 -0.134765,0.511719 v 1.236328 h -0.359375 v -2.1875 h 0.359375 v 0.328125 q 0.0957,-0.1875 0.259765,-0.283203 0.164063,-0.09766 0.388672,-0.09766 0.333985,0 0.498047,0.220703 0.166016,0.21875 0.166016,0.664062 z"
         style="font-style:normal;font-variant:normal;font-weight:normal;font-stretch:normal;font-size:4px;line-height:0;font-family:monospace;-inkscape-font-specification:monospace;fill:#000000"
         id="path2995"
         inkscape:connector-curvature="0" />
      <path
         d="m 34.351562,33.720703 h 0.919922 v 1.908203 h 0.712891 v 0.279297 h -1.785156 v -0.279297 h 0.71289 V 34 h -0.560547 z m 0.560547,-0.851562 h 0.359375 v 0.455078 h -0.359375 z"
         style="font-style:normal;font-variant:normal;font-weight:normal;font-stretch:normal;font-size:4px;line-height:0;font-family:monospace;-inkscape-font-specification:monospace;fill:#000000"
         id="path2997"
         inkscape:connector-curvature="0" />
      <path
         d="m 37.578125,33.943359 q 0.06641,-0.140625 0.167969,-0.207031 0.103515,-0.06836 0.248047,-0.06836 0.263671,0 0.371093,0.205078 0.109375,0.203125 0.109375,0.767578 v 1.267578 H 38.146484 V 34.65625 q 0,-0.462891 -0.05273,-0.574219 -0.05078,-0.113281 -0.1875,-0.113281 -0.15625,0 -0.214844,0.121094 -0.05664,0.11914 -0.05664,0.566406 v 1.251953 H 37.306641 V 34.65625 q 0,-0.46875 -0.05664,-0.578125 -0.05469,-0.109375 -0.199219,-0.109375 -0.142578,0 -0.199219,0.121094 -0.05469,0.11914 -0.05469,0.566406 v 1.251953 h -0.326172 v -2.1875 h 0.326172 v 0.1875 q 0.06445,-0.117187 0.160156,-0.177734 0.09766,-0.0625 0.220703,-0.0625 0.148438,0 0.246094,0.06836 0.09961,0.06836 0.154297,0.207031 z"
         style="font-style:normal;font-variant:normal;font-weight:normal;font-stretch:normal;font-size:4px;line-height:0;font-family:monospace;-inkscape-font-specification:monospace;fill:#000000"
         id="path2999"
         inkscape:connector-curvature="0" />
      <path
         d="m 39.396484,35.632812 v 1.107422 h -0.361328 v -3.019531 h 0.361328 V 34 q 0.08984,-0.162109 0.238282,-0.246094 0.15039,-0.08594 0.345703,-0.08594 0.396484,0 0.621093,0.30664 0.226563,0.306641 0.226563,0.84961 0,0.533203 -0.226563,0.83789 -0.226562,0.302735 -0.621093,0.302735 -0.199219,0 -0.34961,-0.08398 -0.148437,-0.08594 -0.234375,-0.248047 z m 1.054688,-0.816406 q 0,-0.417969 -0.132813,-0.630859 -0.130859,-0.212891 -0.390625,-0.212891 -0.261718,0 -0.396484,0.214844 -0.134766,0.212891 -0.134766,0.628906 0,0.414063 0.134766,0.628906 0.134766,0.214844 0.396484,0.214844 0.259766,0 0.390625,-0.21289 0.132813,-0.212891 0.132813,-0.63086 z"
         style="font-style:normal;font-variant:normal;font-weight:normal;font-stretch:normal;font-size:4px;line-height:0;font-family:monospace;-inkscape-font-specification:monospace;fill:#000000"
         id="path3001"
         inkscape:connector-curvature="0" />
      <path
         d="m 42.273437,33.972656 q -0.273437,0 -0.414062,0.212891 -0.140625,0.21289 -0.140625,0.630859 0,0.416016 0.140625,0.63086 0.140625,0.21289 0.414062,0.21289 0.275391,0 0.416016,-0.21289 0.140625,-0.214844 0.140625,-0.63086 0,-0.417969 -0.140625,-0.630859 -0.140625,-0.212891 -0.416016,-0.212891 z m 0,-0.304687 q 0.455079,0 0.695313,0.294922 0.242187,0.294921 0.242187,0.853515 0,0.560547 -0.240234,0.855469 -0.240234,0.292969 -0.697266,0.292969 -0.455078,0 -0.695312,-0.292969 -0.240234,-0.294922 -0.240234,-0.855469 0,-0.558594 0.240234,-0.853515 0.240234,-0.294922 0.695312,-0.294922 z"
         style="font-style:normal;font-variant:normal;font-weight:normal;font-stretch:normal;font-size:4px;line-height:0;font-family:monospace;-inkscape-font-specification:monospace;fill:#000000"
         id="path3003"
         inkscape:connector-curvature="0" />
      <path
         d="M 45.732422,34.171875 Q 45.617187,34.082031 45.498047,34.041016 45.378906,34 45.236328,34 q -0.335937,0 -0.513672,0.210937 -0.177734,0.210938 -0.177734,0.609375 v 1.087891 h -0.361328 v -2.1875 h 0.361328 v 0.427734 q 0.08984,-0.232421 0.27539,-0.355468 0.1875,-0.125 0.44336,-0.125 0.132812,0 0.248047,0.0332 0.115234,0.0332 0.220703,0.103515 z"
         style="font-style:normal;font-variant:normal;font-weight:normal;font-stretch:normal;font-size:4px;line-height:0;font-family:monospace;-inkscape-font-specification:monospace;fill:#000000"
         id="path3005"
         inkscape:connector-curvature="0" />
      <path
         d="m 47.082031,33.099609 v 0.621094 h 0.816406 V 34 h -0.816406 v 1.1875 q 0,0.242187 0.0918,0.337891 0.0918,0.0957 0.320313,0.0957 H 47.89844 V 35.9082 h -0.439453 q -0.404297,0 -0.570312,-0.162109 -0.166016,-0.16211 -0.166016,-0.558594 V 34 h -0.583984 v -0.279297 h 0.583984 v -0.621094 z"
         style="font-style:normal;font-variant:normal;font-weight:normal;font-stretch:normal;font-size:4px;line-height:0;font-family:monospace;-inkscape-font-specification:monospace;fill:#000000"
         id="path3007"
         inkscape:connector-curvature="0" />
      <path
         d="m 52.443359,32.992187 v 1.083985 h -0.339843 v -1.083985 z m -0.748047,0 v 1.083985 h -0.339843 v -1.083985 z"
         style="font-style:normal;font-variant:normal;font-weight:normal;font-stretch:normal;font-size:4px;line-height:0;font-family:monospace;-inkscape-font-specification:monospace;fill:#000000"
         id="path3009"
         inkscape:connector-curvature="0" />
      <path
         d="m 55.177734,32.869141 v 0.298828 h -0.408203 q -0.193359,0 -0.269531,0.08008 -0.07422,0.07813 -0.07422,0.279297 v 0.193359 h 0.751953 V 34 H 54.42578 v 1.908203 H 54.066406 V 34 h -0.583984 v -0.279297 h 0.583984 v -0.152344 q 0,-0.359375 0.164063,-0.529297 0.166015,-0.169921 0.515625,-0.169921 z"
         style="font-style:normal;font-variant:normal;font-weight:normal;font-stretch:normal;font-size:4px;line-height:0;font-family:monospace;-inkscape-font-specification:monospace;fill:#000000"
         id="path3011"
         inkscape:connector-curvature="0" />
      <path
         d="m 56.828125,33.943359 q 0.06641,-0.140625 0.167969,-0.207031 0.103515,-0.06836 0.248047,-0.06836 0.263671,0 0.371093,0.205078 0.109375,0.203125 0.109375,0.767578 v 1.267578 H 57.396484 V 34.65625 q 0,-0.462891 -0.05273,-0.574219 -0.05078,-0.113281 -0.1875,-0.113281 -0.15625,0 -0.214844,0.121094 -0.05664,0.11914 -0.05664,0.566406 v 1.251953 H 56.556641 V 34.65625 q 0,-0.46875 -0.05664,-0.578125 -0.05469,-0.109375 -0.199219,-0.109375 -0.142578,0 -0.199219,0.121094 -0.05469,0.11914 -0.05469,0.566406 v 1.251953 h -0.326172 v -2.1875 h 0.326172 v 0.1875 q 0.06445,-0.117187 0.160156,-0.177734 0.09766,-0.0625 0.220703,-0.0625 0.148438,0 0.246094,0.06836 0.09961,0.06836 0.154297,0.207031 z"
         style="font-style:normal;font-variant:normal;font-weight:normal;font-stretch:normal;font-size:4px;line-height:0;font-family:monospace;-inkscape-font-specification:monospace;fill:#000000"
         id="path3013"
         inkscape:connector-curvature="0" />
      <path
         d="m 59.113281,33.099609 v 0.621094 h 0.816406 V 34 h -0.816406 v 1.1875 q 0,0.242187 0.0918,0.337891 0.0918,0.0957 0.320313,0.0957 H 59.92969 V 35.9082 h -0.439453 q -0.404297,0 -0.570312,-0.162109 -0.166016,-0.16211 -0.166016,-0.558594 V 34 h -0.583984 v -0.279297 h 0.583984 v -0.621094 z"
         style="font-style:normal;font-variant:normal;font-weight:normal;font-stretch:normal;font-size:4px;line-height:0;font-family:monospace;-inkscape-font-specification:monospace;fill:#000000"
         id="path3015"
         inkscape:connector-curvature="0" />
      <path
         d="m 62.068359,32.992187 v 1.083985 h -0.339843 v -1.083985 z m -0.748047,0 v 1.083985 h -0.339843 v -1.083985 z"
         style="font-style:normal;font-variant:normal;font-weight:normal;font-stretch:normal;font-size:4px;line-height:0;font-family:monospace;-inkscape-font-specification:monospace;fill:#000000"
         id="path3017"
         inkscape:connector-curvature="0" />
      <path
         d="m 35.927734,42.869141 v 0.298828 h -0.408203 q -0.193359,0 -0.269531,0.08008 -0.07422,0.07813 -0.07422,0.279297 v 0.193359 h 0.751953 V 44 H 35.17578 v 1.908203 H 34.816406 V 44 h -0.583984 v -0.279297 h 0.583984 v -0.152344 q 0,-0.359375 0.164063,-0.529297 0.166015,-0.169921 0.515625,-0.169921 z"
         style="font-style:normal;font-variant:normal;font-weight:normal;font-stretch:normal;font-size:4px;line-height:0;font-family:monospace;-inkscape-font-specification:monospace;fill:#000000"
         id="path3019"
         inkscape:connector-curvature="0" />
      <path
         d="m 36.638672,45.080078 v -1.355469 h 0.359375 v 1.355469 q 0,0.294922 0.103515,0.433594 0.105469,0.138672 0.324219,0.138672 0.253906,0 0.388672,-0.177735 0.134766,-0.179687 0.134766,-0.513672 v -1.236328 h 0.361328 v 2.183594 h -0.361328 v -0.328125 q -0.0957,0.189453 -0.261719,0.287109 -0.164063,0.09766 -0.384766,0.09766 -0.335937,0 -0.5,-0.21875 -0.164062,-0.220703 -0.164062,-0.666016 z"
         style="font-style:normal;font-variant:normal;font-weight:normal;font-stretch:normal;font-size:4px;line-height:0;font-family:monospace;-inkscape-font-specification:monospace;fill:#000000"
         id="path3021"
         inkscape:connector-curvature="0" />
      <path
         d="m 40.716797,44.552734 v 1.355469 h -0.361328 v -1.355469 q 0,-0.294922 -0.103516,-0.433593 -0.103516,-0.138672 -0.324219,-0.138672 -0.251953,0 -0.388672,0.179687 -0.134765,0.177735 -0.134765,0.511719 v 1.236328 h -0.359375 v -2.1875 h 0.359375 v 0.328125 q 0.0957,-0.1875 0.259765,-0.283203 0.164063,-0.09766 0.388672,-0.09766 0.333985,0 0.498047,0.220703 0.166016,0.21875 0.166016,0.664062 z"
         style="font-style:normal;font-variant:normal;font-weight:normal;font-stretch:normal;font-size:4px;line-height:0;font-family:monospace;-inkscape-font-specification:monospace;fill:#000000"
         id="path3023"
         inkscape:connector-curvature="0" />
      <path
         d="m 43.142578,45.796875 q -0.144531,0.08398 -0.298828,0.125 -0.152344,0.04297 -0.3125,0.04297 -0.507813,0 -0.794922,-0.304688 -0.285156,-0.304687 -0.285156,-0.84375 0,-0.539062 0.285156,-0.84375 0.287109,-0.304687 0.794922,-0.304687 0.158203,0 0.308594,0.04102 0.15039,0.04102 0.302734,0.126953 v 0.376954 Q 43,44.085937 42.855469,44.029297 q -0.142578,-0.05664 -0.324219,-0.05664 -0.337891,0 -0.519531,0.21875 -0.181641,0.21875 -0.181641,0.625 0,0.404297 0.181641,0.625 0.183593,0.21875 0.519531,0.21875 0.1875,0 0.335937,-0.05664 0.148438,-0.05859 0.275391,-0.179688 z"
         style="font-style:normal;font-variant:normal;font-weight:normal;font-stretch:normal;font-size:4px;line-height:0;font-family:monospace;-inkscape-font-specification:monospace;fill:#000000"
         id="path3025"
         inkscape:connector-curvature="0" />
      <path
         d="m 47.203125,43.943359 q 0.06641,-0.140625 0.167969,-0.207031 0.103515,-0.06836 0.248047,-0.06836 0.263671,0 0.371093,0.205078 0.109375,0.203125 0.109375,0.767578 v 1.267578 H 47.771484 V 44.65625 q 0,-0.462891 -0.05273,-0.574219 -0.05078,-0.113281 -0.1875,-0.113281 -0.15625,0 -0.214844,0.121094 -0.05664,0.11914 -0.05664,0.566406 v 1.251953 H 46.931641 V 44.65625 q 0,-0.46875 -0.05664,-0.578125 -0.05469,-0.109375 -0.199219,-0.109375 -0.142578,0 -0.199219,0.121094 -0.05469,0.11914 -0.05469,0.566406 v 1.251953 h -0.326172 v -2.1875 h 0.326172 v 0.1875 q 0.06445,-0.117187 0.160156,-0.177734 0.09766,-0.0625 0.220703,-0.0625 0.148438,0 0.246094,0.06836 0.09961,0.06836 0.154297,0.207031 z"
         style="font-style:normal;font-variant:normal;font-weight:normal;font-stretch:normal;font-size:4px;line-height:0;font-family:monospace;-inkscape-font-specification:monospace;fill:#000000"
         id="path3027"
         inkscape:connector-curvature="0" />
      <path
         d="m 49.660156,44.808594 h -0.11914 q -0.314454,0 -0.47461,0.111328 -0.158203,0.109375 -0.158203,0.328125 0,0.197265 0.119141,0.30664 0.11914,0.109375 0.330078,0.109375 0.296875,0 0.466797,-0.205078 0.169922,-0.207031 0.171875,-0.570312 v -0.08008 z m 0.697266,-0.148438 v 1.248047 h -0.361328 v -0.324219 q -0.115235,0.195313 -0.291016,0.289063 -0.173828,0.0918 -0.423828,0.0918 -0.333984,0 -0.533203,-0.1875 -0.199219,-0.189453 -0.199219,-0.50586 0,-0.365234 0.244141,-0.554687 0.246093,-0.189453 0.720703,-0.189453 h 0.482422 v -0.05664 q -0.002,-0.261719 -0.132813,-0.378906 -0.130859,-0.119141 -0.417969,-0.119141 -0.183593,0 -0.371093,0.05273 -0.1875,0.05273 -0.365235,0.154296 v -0.359375 q 0.199219,-0.07617 0.38086,-0.113281 0.183593,-0.03906 0.355468,-0.03906 0.271485,0 0.462891,0.08008 0.193359,0.08008 0.3125,0.240234 0.07422,0.09766 0.105469,0.242188 0.03125,0.142578 0.03125,0.429687 z"
         style="font-style:normal;font-variant:normal;font-weight:normal;font-stretch:normal;font-size:4px;line-height:0;font-family:monospace;-inkscape-font-specification:monospace;fill:#000000"
         id="path3029"
         inkscape:connector-curvature="0" />
      <path
         d="m 51.195312,43.720703 h 0.919922 v 1.908203 h 0.712891 v 0.279297 h -1.785156 v -0.279297 h 0.71289 V 44 h -0.560547 z m 0.560547,-0.851562 h 0.359375 v 0.455078 h -0.359375 z"
         style="font-style:normal;font-variant:normal;font-weight:normal;font-stretch:normal;font-size:4px;line-height:0;font-family:monospace;-inkscape-font-specification:monospace;fill:#000000"
         id="path3031"
         inkscape:connector-curvature="0" />
      <path
         d="m 55.154297,44.552734 v 1.355469 h -0.361328 v -1.355469 q 0,-0.294922 -0.103516,-0.433593 -0.103516,-0.138672 -0.324219,-0.138672 -0.251953,0 -0.388672,0.179687 -0.134765,0.177735 -0.134765,0.511719 v 1.236328 h -0.359375 v -2.1875 h 0.359375 v 0.328125 q 0.0957,-0.1875 0.259765,-0.283203 0.164063,-0.09766 0.388672,-0.09766 0.333985,0 0.498047,0.220703 0.166016,0.21875 0.166016,0.664062 z"
         style="font-style:normal;font-variant:normal;font-weight:normal;font-stretch:normal;font-size:4px;line-height:0;font-family:monospace;-inkscape-font-specification:monospace;fill:#000000"
         id="path3033"
         inkscape:connector-curvature="0" />
      <path
         d="m 57.236328,42.873047 q -0.259766,0.445312 -0.388672,0.888672 -0.126953,0.441406 -0.126953,0.890625 0,0.447265 0.126953,0.890625 0.128906,0.443359 0.388672,0.892578 h -0.3125 q -0.294922,-0.464844 -0.439453,-0.904297 -0.144531,-0.441406 -0.144531,-0.878906 0,-0.435547 0.144531,-0.876953 0.144531,-0.441407 0.439453,-0.902344 z"
         style="font-style:normal;font-variant:normal;font-weight:normal;font-stretch:normal;font-size:4px;line-height:0;font-family:monospace;-inkscape-font-specification:monospace;fill:#000000"
         id="path3035"
         inkscape:connector-curvature="0" />
      <path
         d="m 58.59375,42.873047 h 0.3125 q 0.294922,0.460937 0.439453,0.902344 0.144531,0.441406 0.144531,0.876953 0,0.439453 -0.144531,0.880859 -0.144531,0.441406 -0.439453,0.902344 h -0.3125 q 0.259766,-0.453125 0.386719,-0.896485 0.128906,-0.443359 0.128906,-0.886718 0,-0.445313 -0.128906,-0.888672 -0.126953,-0.44336 -0.386719,-0.890625 z"
         style="font-style:normal;font-variant:normal;font-weight:normal;font-stretch:normal;font-size:4px;line-height:0;font-family:monospace;-inkscape-font-specification:monospace;fill:#000000"
         id="path3037"
         inkscape:connector-curvature="0" />
      <path
         d="m 62.296875,46.279297 v 0.28125 h -0.125 q -0.486328,0 -0.652344,-0.144531 -0.164062,-0.144532 -0.164062,-0.576172 v -0.466797 q 0,-0.294922 -0.105469,-0.408203 -0.103516,-0.113282 -0.376953,-0.113282 h -0.121094 v -0.279296 h 0.121094 q 0.27539,0 0.378906,-0.111329 0.103516,-0.111328 0.103516,-0.404296 v -0.46875 q 0,-0.431641 0.164062,-0.574219 0.166016,-0.144531 0.652344,-0.144531 h 0.125 v 0.279296 h -0.136719 q -0.273437,0 -0.357422,0.08594 -0.08203,0.08398 -0.08203,0.361328 v 0.484375 q 0,0.306641 -0.08984,0.445313 -0.08789,0.138671 -0.302734,0.1875 0.216797,0.05273 0.304687,0.191406 0.08789,0.138672 0.08789,0.443359 v 0.484375 q 0,0.279297 0.08203,0.363281 0.08398,0.08398 0.357422,0.08398 z"
         style="font-style:normal;font-variant:normal;font-weight:normal;font-stretch:normal;font-size:4px;line-height:0;font-family:monospace;-inkscape-font-specification:monospace;fill:#000000"
         id="path3039"
         inkscape:connector-curvature="0" />
      <path
         d="m 40.740234,52.869141 v 0.298828 h -0.408203 q -0.193359,0 -0.269531,0.08008 -0.07422,0.07813 -0.07422,0.279297 v 0.193359 h 0.751953 V 54 H 39.98828 v 1.908203 H 39.628906 V 54 h -0.583984 v -0.279297 h 0.583984 v -0.152344 q 0,-0.359375 0.164063,-0.529297 0.166015,-0.169921 0.515625,-0.169921 z"
         style="font-style:normal;font-variant:normal;font-weight:normal;font-stretch:normal;font-size:4px;line-height:0;font-family:monospace;-inkscape-font-specification:monospace;fill:#000000"
         id="path3041"
         inkscape:connector-curvature="0" />
      <path
         d="m 42.390625,53.943359 q 0.06641,-0.140625 0.167969,-0.207031 0.103515,-0.06836 0.248047,-0.06836 0.263671,0 0.371093,0.205078 0.109375,0.203125 0.109375,0.767578 v 1.267578 H 42.958984 V 54.65625 q 0,-0.462891 -0.05273,-0.574219 -0.05078,-0.113281 -0.1875,-0.113281 -0.15625,0 -0.214844,0.121094 -0.05664,0.11914 -0.05664,0.566406 v 1.251953 H 42.119141 V 54.65625 q 0,-0.46875 -0.05664,-0.578125 -0.05469,-0.109375 -0.199219,-0.109375 -0.142578,0 -0.199219,0.121094 -0.05469,0.11914 -0.05469,0.566406 v 1.251953 h -0.326172 v -2.1875 h 0.326172 v 0.1875 q 0.06445,-0.117187 0.160156,-0.177734 0.09766,-0.0625 0.220703,-0.0625 0.148438,0 0.246094,0.06836 0.09961,0.06836 0.154297,0.207031 z"
         style="font-style:normal;font-variant:normal;font-weight:normal;font-stretch:normal;font-size:4px;line-height:0;font-family:monospace;-inkscape-font-specification:monospace;fill:#000000"
         id="path3043"
         inkscape:connector-curvature="0" />
      <path
         d="m 44.675781,53.099609 v 0.621094 h 0.816406 V 54 h -0.816406 v 1.1875 q 0,0.242187 0.0918,0.337891 0.0918,0.0957 0.320313,0.0957 H 45.49219 V 55.9082 h -0.439453 q -0.404297,0 -0.570312,-0.162109 -0.166016,-0.16211 -0.166016,-0.558594 V 54 h -0.583984 v -0.279297 h 0.583984 v -0.621094 z"
         style="font-style:normal;font-variant:normal;font-weight:normal;font-stretch:normal;font-size:4px;line-height:0;font-family:monospace;-inkscape-font-specification:monospace;fill:#000000"
         id="path3045"
         inkscape:connector-curvature="0" />
      <path
         d="m 46.837891,55.3125 h 0.492187 v 0.595703 h -0.492187 z"
         style="font-style:normal;font-variant:normal;font-weight:normal;font-stretch:normal;font-size:4px;line-height:0;font-family:monospace;-inkscape-font-specification:monospace;fill:#000000"
         id="path3047"
         inkscape:connector-curvature="0" />
      <path
         d="m 49.021484,55.632812 v 1.107422 h -0.361328 v -3.019531 h 0.361328 V 54 q 0.08984,-0.162109 0.238282,-0.246094 0.15039,-0.08594 0.345703,-0.08594 0.396484,0 0.621093,0.30664 0.226563,0.306641 0.226563,0.84961 0,0.533203 -0.226563,0.83789 Q 50,55.964844 49.605469,55.964844 q -0.199219,0 -0.34961,-0.08398 -0.148437,-0.08594 -0.234375,-0.248047 z m 1.054688,-0.816406 q 0,-0.417969 -0.132813,-0.630859 -0.130859,-0.212891 -0.390625,-0.212891 -0.261718,0 -0.396484,0.214844 -0.134766,0.212891 -0.134766,0.628906 0,0.414063 0.134766,0.628906 0.134766,0.214844 0.396484,0.214844 0.259766,0 0.390625,-0.21289 0.132813,-0.212891 0.132813,-0.63086 z"
         style="font-style:normal;font-variant:normal;font-weight:normal;font-stretch:normal;font-size:4px;line-height:0;font-family:monospace;-inkscape-font-specification:monospace;fill:#000000"
         id="path3049"
         inkscape:connector-curvature="0" />
      <path
         d="M 52.951172,54.171875 Q 52.835937,54.082031 52.716797,54.041016 52.597656,54 52.455078,54 q -0.335937,0 -0.513672,0.210937 -0.177734,0.210938 -0.177734,0.609375 v 1.087891 h -0.361328 v -2.1875 h 0.361328 v 0.427734 q 0.08984,-0.232421 0.27539,-0.355468 0.1875,-0.125 0.44336,-0.125 0.132812,0 0.248047,0.0332 0.115234,0.0332 0.220703,0.103515 z"
         style="font-style:normal;font-variant:normal;font-weight:normal;font-stretch:normal;font-size:4px;line-height:0;font-family:monospace;-inkscape-font-specification:monospace;fill:#000000"
         id="path3051"
         inkscape:connector-curvature="0" />
      <path
         d="m 53.601562,53.720703 h 0.919922 v 1.908203 h 0.712891 v 0.279297 h -1.785156 v -0.279297 h 0.71289 V 54 h -0.560547 z m 0.560547,-0.851562 h 0.359375 v 0.455078 h -0.359375 z"
         style="font-style:normal;font-variant:normal;font-weight:normal;font-stretch:normal;font-size:4px;line-height:0;font-family:monospace;-inkscape-font-specification:monospace;fill:#000000"
         id="path3053"
         inkscape:connector-curvature="0" />
      <path
         d="m 57.560547,54.552734 v 1.355469 h -0.361328 v -1.355469 q 0,-0.294922 -0.103516,-0.433593 -0.103516,-0.138672 -0.324219,-0.138672 -0.251953,0 -0.388672,0.179687 -0.134765,0.177735 -0.134765,0.511719 v 1.236328 h -0.359375 v -2.1875 h 0.359375 v 0.328125 q 0.0957,-0.1875 0.259765,-0.283203 0.164063,-0.09766 0.388672,-0.09766 0.333985,0 0.498047,0.220703 0.166016,0.21875 0.166016,0.664062 z"
         style="font-style:normal;font-variant:normal;font-weight:normal;font-stretch:normal;font-size:4px;line-height:0;font-family:monospace;-inkscape-font-specification:monospace;fill:#000000"
         id="path3055"
         inkscape:connector-curvature="0" />
      <path
         d="m 59.113281,53.099609 v 0.621094 h 0.816406 V 54 h -0.816406 v 1.1875 q 0,0.242187 0.0918,0.337891 0.0918,0.0957 0.320313,0.0957 H 59.92969 V 55.9082 h -0.439453 q -0.404297,0 -0.570312,-0.162109 -0.166016,-0.16211 -0.166016,-0.558594 V 54 h -0.583984 v -0.279297 h 0.583984 v -0.621094 z"
         style="font-style:normal;font-variant:normal;font-weight:normal;font-stretch:normal;font-size:4px;line-height:0;font-family:monospace;-inkscape-font-specification:monospace;fill:#000000"
         id="path3057"
         inkscape:connector-curvature="0" />
      <path
         d="m 61.568359,55.115234 q 0,0.242188 0.08789,0.365235 0.08984,0.123047 0.263672,0.123047 h 0.419922 v 0.304687 h -0.455078 q -0.322266,0 -0.5,-0.207031 -0.175782,-0.207031 -0.175782,-0.585938 v -1.986328 h -0.576172 v -0.28125 h 0.935547 z"
         style="font-style:normal;font-variant:normal;font-weight:normal;font-stretch:normal;font-size:4px;line-height:0;font-family:monospace;-inkscape-font-specification:monospace;fill:#000000"
         id="path3059"
         inkscape:connector-curvature="0" />
      <path
         d="m 64.779297,54.552734 v 1.355469 h -0.361328 v -1.355469 q 0,-0.294922 -0.103516,-0.433593 -0.103516,-0.138672 -0.324219,-0.138672 -0.251953,0 -0.388672,0.179687 -0.134765,0.177735 -0.134765,0.511719 v 1.236328 h -0.359375 v -2.1875 h 0.359375 v 0.328125 q 0.0957,-0.1875 0.259765,-0.283203 0.164063,-0.09766 0.388672,-0.09766 0.333985,0 0.498047,0.220703 0.166016,0.21875 0.166016,0.664062 z"
         style="font-style:normal;font-variant:normal;font-weight:normal;font-stretch:normal;font-size:4px;line-height:0;font-family:monospace;-inkscape-font-specification:monospace;fill:#000000"
         id="path3061"
         inkscape:connector-curvature="0" />
      <path
         d="m 66.861328,52.873047 q -0.259766,0.445312 -0.388672,0.888672 -0.126953,0.441406 -0.126953,0.890625 0,0.447265 0.126953,0.890625 0.128906,0.443359 0.388672,0.892578 h -0.3125 q -0.294922,-0.464844 -0.439453,-0.904297 -0.144531,-0.441406 -0.144531,-0.878906 0,-0.435547 0.144531,-0.876953 0.144531,-0.441407 0.439453,-0.902344 z"
         style="font-style:normal;font-variant:normal;font-weight:normal;font-stretch:normal;font-size:4px;line-height:0;font-family:monospace;-inkscape-font-specification:monospace;fill:#000000"
         id="path3063"
         inkscape:connector-curvature="0" />
      <path
         d="m 69.287109,52.992187 v 1.083985 h -0.339843 v -1.083985 z m -0.748047,0 v 1.083985 h -0.339843 v -1.083985 z"
         style="font-style:normal;font-variant:normal;font-weight:normal;font-stretch:normal;font-size:4px;line-height:0;font-family:monospace;-inkscape-font-specification:monospace;fill:#000000"
         id="path3065"
         inkscape:connector-curvature="0" />
      <path
         d="m 70.212891,52.992187 h 0.396484 V 54.1875 h 1.080078 v -1.195313 h 0.396484 v 2.916016 h -0.396484 v -1.388672 h -1.080078 v 1.388672 h -0.396484 z"
         style="font-style:normal;font-variant:normal;font-weight:normal;font-stretch:normal;font-size:4px;line-height:0;font-family:monospace;-inkscape-font-specification:monospace;fill:#000000"
         id="path3067"
         inkscape:connector-curvature="0" />
      <path
         d="m 74.523437,54.724609 v 0.175782 h -1.55664 v 0.01172 q 0,0.357422 0.185547,0.552735 0.1875,0.195312 0.527343,0.195312 0.171875,0 0.359375,-0.05469 0.1875,-0.05469 0.400391,-0.166016 v 0.357422 q -0.205078,0.08398 -0.396484,0.125 -0.189453,0.04297 -0.367188,0.04297 -0.509765,0 -0.796875,-0.304688 -0.287109,-0.30664 -0.287109,-0.84375 0,-0.523437 0.28125,-0.835937 0.28125,-0.3125 0.75,-0.3125 0.417969,0 0.658203,0.283203 0.242187,0.283203 0.242187,0.773437 z m -0.359375,-0.105468 q -0.0078,-0.316407 -0.15039,-0.480469 -0.140625,-0.166016 -0.40625,-0.166016 -0.259766,0 -0.427735,0.171875 -0.167968,0.171875 -0.199218,0.476563 z"
         style="font-style:normal;font-variant:normal;font-weight:normal;font-stretch:normal;font-size:4px;line-height:0;font-family:monospace;-inkscape-font-specification:monospace;fill:#000000"
         id="path3069"
         inkscape:connector-curvature="0" />
      <path
         d="m 76.005859,55.115234 q 0,0.242188 0.08789,0.365235 0.08984,0.123047 0.263672,0.123047 h 0.419922 v 0.304687 h -0.455078 q -0.322266,0 -0.5,-0.207031 -0.175782,-0.207031 -0.175782,-0.585938 v -1.986328 h -0.576172 v -0.28125 h 0.935547 z"
         style="font-style:normal;font-variant:normal;font-weight:normal;font-stretch:normal;font-size:4px;line-height:0;font-family:monospace;-inkscape-font-specification:monospace;fill:#000000"
         id="path3071"
         inkscape:connector-curvature="0" />
      <path
         d="m 78.412109,55.115234 q 0,0.242188 0.08789,0.365235 0.08984,0.123047 0.263672,0.123047 h 0.419922 v 0.304687 h -0.455078 q -0.322266,0 -0.5,-0.207031 -0.175782,-0.207031 -0.175782,-0.585938 v -1.986328 h -0.576172 v -0.28125 h 0.935547 z"
         style="font-style:normal;font-variant:normal;font-weight:normal;font-stretch:normal;font-size:4px;line-height:0;font-family:monospace;-inkscape-font-specification:monospace;fill:#000000"
         id="path3073"
         inkscape:connector-curvature="0" />
      <path
         d="m 80.773437,53.972656 q -0.273437,0 -0.414062,0.212891 -0.140625,0.21289 -0.140625,0.630859 0,0.416016 0.140625,0.63086 0.140625,0.21289 0.414062,0.21289 0.275391,0 0.416016,-0.21289 0.140625,-0.214844 0.140625,-0.63086 0,-0.417969 -0.140625,-0.630859 -0.140625,-0.212891 -0.416016,-0.212891 z m 0,-0.304687 q 0.455079,0 0.695313,0.294922 0.242187,0.294921 0.242187,0.853515 0,0.560547 -0.240234,0.855469 -0.240234,0.292969 -0.697266,0.292969 -0.455078,0 -0.695312,-0.292969 -0.240234,-0.294922 -0.240234,-0.855469 0,-0.558594 0.240234,-0.853515 0.240234,-0.294922 0.695312,-0.294922 z"
         style="font-style:normal;font-variant:normal;font-weight:normal;font-stretch:normal;font-size:4px;line-height:0;font-family:monospace;-inkscape-font-specification:monospace;fill:#000000"
         id="path3075"
         inkscape:connector-curvature="0" />
      <path
         d="m 82.957031,55.316406 h 0.492188 v 0.404297 l -0.384766,0.748047 h -0.300781 l 0.193359,-0.748047 z"
         style="font-style:normal;font-variant:normal;font-weight:normal;font-stretch:normal;font-size:4px;line-height:0;font-family:monospace;-inkscape-font-specification:monospace;fill:#000000"
         id="path3077"
         inkscape:connector-curvature="0" />
      <path
         d="m 86.789062,52.992187 h 0.384766 l 0.279297,2.367188 0.332031,-1.566406 h 0.41211 l 0.335937,1.570312 0.279297,-2.371094 h 0.384766 l -0.435547,2.916016 h -0.373047 l -0.396485,-1.732422 -0.394531,1.732422 h -0.373047 z"
         style="font-style:normal;font-variant:normal;font-weight:normal;font-stretch:normal;font-size:4px;line-height:0;font-family:monospace;-inkscape-font-specification:monospace;fill:#000000"
         id="path3079"
         inkscape:connector-curvature="0" />
      <path
         d="m 90.398437,53.972656 q -0.273437,0 -0.414062,0.212891 -0.140625,0.21289 -0.140625,0.630859 0,0.416016 0.140625,0.63086 0.140625,0.21289 0.414062,0.21289 0.275391,0 0.416016,-0.21289 0.140625,-0.214844 0.140625,-0.63086 0,-0.417969 -0.140625,-0.630859 -0.140625,-0.212891 -0.416016,-0.212891 z m 0,-0.304687 q 0.455079,0 0.695313,0.294922 0.242187,0.294921 0.242187,0.853515 0,0.560547 -0.240234,0.855469 -0.240234,0.292969 -0.697266,0.292969 -0.455078,0 -0.695312,-0.292969 -0.240234,-0.294922 -0.240234,-0.855469 0,-0.558594 0.240234,-0.853515 0.240234,-0.294922 0.695312,-0.294922 z"
         style="font-style:normal;font-variant:normal;font-weight:normal;font-stretch:normal;font-size:4px;line-height:0;font-family:monospace;-inkscape-font-specification:monospace;fill:#000000"
         id="path3081"
         inkscape:connector-curvature="0" />
      <path
         d="M 93.857422,54.171875 Q 93.742187,54.082031 93.623047,54.041016 93.503906,54 93.361328,54 q -0.335937,0 -0.513672,0.210937 -0.177734,0.210938 -0.177734,0.609375 v 1.087891 h -0.361328 v -2.1875 h 0.361328 v 0.427734 q 0.08984,-0.232421 0.27539,-0.355468 0.1875,-0.125 0.44336,-0.125 0.132812,0 0.248047,0.0332 0.115234,0.0332 0.220703,0.103515 z"
         style="font-style:normal;font-variant:normal;font-weight:normal;font-stretch:normal;font-size:4px;line-height:0;font-family:monospace;-inkscape-font-specification:monospace;fill:#000000"
         id="path3083"
         inkscape:connector-curvature="0" />
      <path
         d="m 95.255859,55.115234 q 0,0.242188 0.08789,0.365235 0.08984,0.123047 0.263672,0.123047 h 0.419922 v 0.304687 h -0.455078 q -0.322266,0 -0.5,-0.207031 -0.175782,-0.207031 -0.175782,-0.585938 v -1.986328 h -0.576172 v -0.28125 h 0.935547 z"
         style="font-style:normal;font-variant:normal;font-weight:normal;font-stretch:normal;font-size:4px;line-height:0;font-family:monospace;-inkscape-font-specification:monospace;fill:#000000"
         id="path3085"
         inkscape:connector-curvature="0" />
      <path
         d="m 98.089844,54 v -1.130859 h 0.359375 v 3.039062 H 98.089844 V 55.632812 Q 98,55.794922 97.849609,55.880859 q -0.148437,0.08398 -0.34375,0.08398 -0.396484,0 -0.625,-0.306641 -0.226562,-0.308594 -0.226562,-0.849609 0,-0.533203 0.228515,-0.835938 0.228516,-0.304687 0.623047,-0.304687 0.197266,0 0.347657,0.08594 0.15039,0.08398 0.236328,0.246094 z m -1.056641,0.816406 q 0,0.417969 0.132813,0.63086 0.132812,0.21289 0.392578,0.21289 0.259765,0 0.394531,-0.214844 0.136719,-0.214843 0.136719,-0.628906 0,-0.416015 -0.136719,-0.628906 -0.134766,-0.214844 -0.394531,-0.214844 -0.259766,0 -0.392578,0.212891 -0.132813,0.21289 -0.132813,0.630859 z"
         style="font-style:normal;font-variant:normal;font-weight:normal;font-stretch:normal;font-size:4px;line-height:0;font-family:monospace;-inkscape-font-specification:monospace;fill:#000000"
         id="path3087"
         inkscape:connector-curvature="0" />
      <path
         d="m 100.56836,52.992187 v 1.083985 h -0.33984 v -1.083985 z m -0.748048,0 v 1.083985 h -0.339843 v -1.083985 z"
         style="font-style:normal;font-variant:normal;font-weight:normal;font-stretch:normal;font-size:4px;line-height:0;font-family:monospace;-inkscape-font-specification:monospace;fill:#000000"
         id="path3089"
         inkscape:connector-curvature="0" />
      <path
         d="m 101.90625,52.873047 h 0.3125 q 0.29492,0.460937 0.43945,0.902344 0.14453,0.441406 0.14453,0.876953 0,0.439453 -0.14453,0.880859 -0.14453,0.441406 -0.43945,0.902344 h -0.3125 q 0.25977,-0.453125 0.38672,-0.896485 0.12891,-0.443359 0.12891,-0.886718 0,-0.445313 -0.12891,-0.888672 -0.12695,-0.44336 -0.38672,-0.890625 z"
         style="font-style:normal;font-variant:normal;font-weight:normal;font-stretch:normal;font-size:4px;line-height:0;font-family:monospace;-inkscape-font-specification:monospace;fill:#000000"
         id="path3091"
         inkscape:connector-curvature="0" />
      <path
         d="m 34.283203,66.279297 h 0.132813 q 0.27539,0 0.359375,-0.08594 0.08398,-0.08594 0.08398,-0.361328 v -0.484375 q 0,-0.304687 0.08789,-0.443359 0.08789,-0.138672 0.304687,-0.191406 -0.214844,-0.04883 -0.304687,-0.1875 -0.08789,-0.138672 -0.08789,-0.445313 v -0.484375 q 0,-0.275391 -0.08398,-0.361328 -0.08398,-0.08594 -0.359375,-0.08594 h -0.132813 v -0.279296 h 0.121094 q 0.486328,0 0.65039,0.144531 0.164063,0.142578 0.164063,0.574219 v 0.46875 q 0,0.292968 0.103516,0.404296 0.105468,0.111329 0.380859,0.111329 h 0.125 v 0.279296 h -0.125 q -0.275391,0 -0.380859,0.113282 -0.103516,0.113281 -0.103516,0.408203 v 0.466797 q 0,0.43164 -0.164063,0.576172 -0.164062,0.144531 -0.65039,0.144531 h -0.121094 z"
         style="font-style:normal;font-variant:normal;font-weight:normal;font-stretch:normal;font-size:4px;line-height:0;font-family:monospace;-inkscape-font-specification:monospace;fill:#000000"
         id="path3093"
         inkscape:connector-curvature="0" />
    </g>
    <path
       sodipodi:nodetypes="ccccsccsc"
       inkscape:connector-curvature="0"
       id="path1355-8-5"
       d="m 19.620994,266.16126 c 0.01558,0.0251 0.535221,0.86284 0.694175,1.33425 0.430727,0.96558 0.246637,3.78888 0.238805,5.39748 0.02644,-0.18505 4.473865,-1.33136 6.782594,0.76747 -0.01476,-0.026 -0.04662,-0.0767 -0.119341,-0.17767 -0.06901,-0.0958 -0.174308,-0.23765 -0.354479,-0.42182 -0.503715,-0.5766 -0.22026,-0.0806 -0.768208,-0.6505 -0.473747,-0.42966 -1.496999,-1.45025 -2.735519,-2.66881 -1.183854,-1.16476 -2.562819,-2.50808 -3.738027,-3.5804 z"
       style="opacity:0.24800002;fill:#000000;fill-opacity:1;stroke:none;stroke-width:0.28614345;stroke-miterlimit:4;stroke-dasharray:none;stroke-opacity:1" />
    <path
       style="opacity:1;fill:#ffffff;fill-opacity:1;stroke:#808080;stroke-width:0.30000001;stroke-miterlimit:4;stroke-dasharray:none;stroke-opacity:1"
       d="m 19.308998,265.6626 c 0.01477,0.0238 0.507514,0.81811 0.658239,1.26509 0.40843,0.91553 0.278738,3.06938 0.271311,4.5946 0.409178,-0.0213 4.921198,-0.70296 6.989915,1.73982 -0.02793,-0.0483 -0.09803,-0.0884 -0.13713,-0.16512 -0.477638,-0.54671 -1.086946,-0.98598 -1.643914,-1.50908 -0.449221,-0.4074 -1.419501,-1.37509 -2.593906,-2.53048 -1.122567,-1.10439 -2.430145,-2.3781 -3.544515,-3.39483 z"
       id="path4753-0-6"
       inkscape:connector-curvature="0"
       sodipodi:nodetypes="ccccccsc" />
    <g
       style="stroke-width:4.08449793"
       inkscape:transform-center-y="-9.4924686"
       inkscape:transform-center-x="5.4653607"
       inkscape:label="Capa 1"
       id="layer1-4-3-2"
       transform="matrix(0.51126596,0,0,0.51245325,-269.32006,5.6156869)">
      <g
         style="stroke-width:4.08449793"
         id="layer1-3-65-9-9"
         inkscape:label="Capa 1"
         transform="translate(0.41988239,0.03484499)" />
    </g>
    <g
       style="stroke-width:4.08449793"
       inkscape:transform-center-y="-9.4924686"
       inkscape:transform-center-x="5.4653607"
       inkscape:label="Capa 1"
       id="layer1-4-1"
       transform="matrix(0.51126596,0,0,0.51245325,-269.32006,5.6395364)">
      <g
         style="stroke-width:4.08449793"
         id="layer1-3-65-2"
         inkscape:label="Capa 1"
         transform="translate(0.41988239,0.03484499)" />
    </g>
    <path
       inkscape:connector-curvature="0"
       id="path1936"
       d="m 13.350414,292.92179 c -0.143314,-0.0835 -0.14811,-0.27967 -0.01192,-0.48752 0.100876,-0.15396 0.09327,-0.16845 -0.288898,-0.55062 -0.667079,-0.66708 -0.967943,-1.45628 -1.046167,-2.74421 -0.03746,-0.61676 -0.06833,-0.76226 -0.204002,-0.96143 -0.197845,-0.29046 -0.168909,-0.57138 0.09442,-0.91662 0.172989,-0.2268 0.185617,-0.28977 0.220491,-1.09953 0.02034,-0.47243 0.02088,-1.67269 0.0012,-2.66726 l -0.0358,-1.80829 -0.197691,-0.13901 c -0.453365,-0.31877 -0.693447,-0.61051 -0.693447,-0.84266 0,-0.44893 0.405354,-0.75885 0.896254,-0.68524 0.410891,0.0616 0.750235,-0.0539 1.335327,-0.45461 0.679987,-0.4657 1.213035,-0.72964 1.841302,-0.91173 0.444749,-0.1289 0.667573,-0.14921 1.636998,-0.14921 0.969542,0 1.192224,0.0203 1.637195,0.14927 0.711596,0.20623 1.381014,0.53636 1.962843,0.96798 0.549222,0.40743 0.75386,0.47262 1.181498,0.37638 0.3536,-0.0796 0.636623,0.0167 0.851252,0.28955 0.26316,0.33455 0.170421,0.66021 -0.256307,0.90005 -0.146968,0.0826 -0.332288,0.25528 -0.411824,0.38373 -0.134262,0.21684 -0.143205,0.30204 -0.124977,1.1907 0.0108,0.52643 -0.0088,1.20964 -0.04364,1.51823 -0.04288,0.38022 -0.03872,0.91586 0.01291,1.66165 0.06698,0.9675 0.09313,1.11913 0.216271,1.25419 0.350443,0.38436 0.378289,0.71573 0.09057,1.07778 -0.147186,0.18521 -0.198159,0.31889 -0.198529,0.52065 -0.002,1.07895 -0.531618,2.48296 -1.202377,3.18739 l -0.199489,0.20951 0.140095,0.19675 c 0.171686,0.24111 0.176109,0.35434 0.01938,0.49618 -0.176057,0.15933 -0.761349,0.14602 -1.035723,-0.0236 -0.21023,-0.12993 -0.224659,-0.13031 -0.667893,-0.0174 -0.631563,0.16092 -3.113324,0.16091 -3.873597,-1e-5 -0.498799,-0.10557 -0.524253,-0.10489 -0.758139,0.0205 -0.259587,0.13913 -0.699298,0.16807 -0.887566,0.0584 z m 4.446488,-7.62717 c 0.284684,-0.16566 0.332296,-0.43086 0.118259,-0.6587 -0.185548,-0.1975 -0.296802,-0.2002 -0.397162,-0.01 -0.114302,0.21705 -0.183373,0.24541 -0.600432,0.24652 -0.371129,0.001 -0.421313,-0.0229 -0.604172,-0.28789 -0.07109,-0.10301 -0.109482,-0.11103 -0.228005,-0.0476 -0.356616,0.19086 -0.222407,0.70514 0.220575,0.84523 0.385224,0.12183 1.21452,0.0729 1.490937,-0.0879 z m -0.529067,-0.73206 c 0.105442,-0.0623 0.191713,-0.13487 0.191713,-0.16129 0,-0.10331 -0.304616,-0.25355 -0.514104,-0.25355 -0.438008,0 -0.613326,0.22642 -0.32934,0.42533 0.191009,0.13379 0.413551,0.1302 0.651731,-0.0105 z m -1.920613,-0.4917 c 0.6561,-0.28326 0.94858,-0.75566 0.953701,-1.54039 0.0042,-0.6507 -0.174536,-1.07451 -0.561238,-1.33042 -0.303323,-0.20073 -0.887056,-0.27134 -1.306086,-0.15799 -0.362828,0.0981 -0.811333,0.5066 -1.003427,0.91384 -0.195498,0.41444 -0.209489,1.06528 -0.03075,1.43052 0.171395,0.35023 0.57229,0.74156 0.839584,0.81955 0.280605,0.0819 0.733542,0.0266 1.108218,-0.13511 z m 4.41506,0.0147 c 0.548329,-0.27974 0.914397,-0.93664 0.845611,-1.51743 -0.190609,-1.60939 -2.203029,-2.19022 -2.89723,-0.83621 -0.179517,0.35015 -0.195239,1.08278 -0.0323,1.50505 0.298708,0.77411 1.372674,1.21144 2.083916,0.84859 z"
       style="fill:#498ba7;fill-opacity:1;stroke:#386a80;stroke-width:0.1;stroke-miterlimit:4;stroke-dasharray:none;stroke-opacity:1"
       sodipodi:nodetypes="cccsccccccscscsccccccccccccccccccccccccccccccccsscccccccccccccscccc" />
    <g
       style="stroke-width:4.28401899"
       inkscape:transform-center-y="-9.4924686"
       inkscape:transform-center-x="5.4653607"
       inkscape:label="Capa 1"
       id="layer1-4-9"
       transform="matrix(0.51096555,0,0,0.51234092,-262.10027,0.04220077)">
      <g
         style="stroke-width:4.28401899"
         id="layer1-3-65-0"
         inkscape:label="Capa 1"
         transform="translate(0.41988239,0.03484499)" />
    </g>
    <g
       style="stroke-width:4.28401899"
       inkscape:transform-center-y="-9.4924686"
       inkscape:transform-center-x="5.4653607"
       inkscape:label="Capa 1"
       id="layer1-4-24"
       transform="matrix(0.51096555,0,0,0.51234092,-262.10027,0.06604083)">
      <g
         style="stroke-width:4.28401899"
         id="layer1-3-65-8"
         inkscape:label="Capa 1"
         transform="translate(0.41988239,0.03484499)" />
    </g>
    <g
       style="stroke-width:4.28401899"
       inkscape:transform-center-y="-9.4924686"
       inkscape:transform-center-x="5.4653607"
       inkscape:label="Capa 1"
       id="layer1-4-9-2"
       transform="matrix(0.51096555,0,0,0.51234092,-293.3231,-41.533014)">
      <g
         style="stroke-width:4.28401899"
         id="layer1-3-65-0-2"
         inkscape:label="Capa 1"
         transform="translate(0.41988239,0.03484499)" />
    </g>
    <g
       style="stroke-width:4.28401899"
       inkscape:transform-center-y="-9.4924686"
       inkscape:transform-center-x="5.4653607"
       inkscape:label="Capa 1"
       id="layer1-4-7"
       transform="matrix(0.51096555,0,0,0.51234092,-293.3231,-41.509174)">
      <g
         style="stroke-width:4.28401899"
         id="layer1-3-65-3"
         inkscape:label="Capa 1"
         transform="translate(0.41988239,0.03484499)" />
    </g>
    <g
       style="stroke-width:4.08449793"
       inkscape:transform-center-y="-9.4924686"
       inkscape:transform-center-x="5.4653607"
       inkscape:label="Capa 1"
       id="layer1-4-3-3"
       transform="matrix(0.53602412,0,0,0.5372689,-236.59583,-13.595316)">
      <g
         style="stroke-width:4.08449793"
         id="layer1-3-65-9-90"
         inkscape:label="Capa 1"
         transform="translate(0.41988239,0.03484499)" />
    </g>
    <g
       style="stroke-width:4.08449793"
       inkscape:transform-center-y="-9.4924686"
       inkscape:transform-center-x="5.4653607"
       inkscape:label="Capa 1"
       id="layer1-4-2"
       transform="matrix(0.53602412,0,0,0.5372689,-236.59583,-13.570313)">
      <g
         style="stroke-width:4.08449793"
         id="layer1-3-65-4"
         inkscape:label="Capa 1"
         transform="translate(0.41988239,0.03484499)" />
    </g>
    <g
       style="stroke-width:4.08449793"
       inkscape:transform-center-y="-9.4924686"
       inkscape:transform-center-x="5.4653607"
       inkscape:label="Capa 1"
       id="layer1-4-3-2-5"
       transform="matrix(0.51126596,0,0,0.51245325,-270.98223,5.8056741)">
      <g
         style="stroke-width:4.08449793"
         id="layer1-3-65-9-9-2"
         inkscape:label="Capa 1"
         transform="translate(0.41988239,0.03484499)" />
    </g>
    <g
       style="stroke-width:4.08449793"
       inkscape:transform-center-y="-9.4924686"
       inkscape:transform-center-x="5.4653607"
       inkscape:label="Capa 1"
       id="layer1-4-1-2"
       transform="matrix(0.51126596,0,0,0.51245325,-270.98223,5.8295236)">
      <g
         style="stroke-width:4.08449793"
         id="layer1-3-65-2-7"
         inkscape:label="Capa 1"
         transform="translate(0.41988239,0.03484499)" />
    </g>
    <g
       style="stroke-width:4.08449793"
       inkscape:transform-center-y="-9.4924686"
       inkscape:transform-center-x="5.4653607"
       inkscape:label="Capa 1"
       id="layer1-4-3-8"
       transform="matrix(0.53602412,0,0,0.5372689,-273.87479,-13.595316)">
      <g
         style="stroke-width:4.08449793"
         id="layer1-3-65-9-6"
         inkscape:label="Capa 1"
         transform="translate(0.41988239,0.03484499)" />
    </g>
    <g
       style="stroke-width:4.08449793"
       inkscape:transform-center-y="-9.4924686"
       inkscape:transform-center-x="5.4653607"
       inkscape:label="Capa 1"
       id="layer1-4-5"
       transform="matrix(0.53602412,0,0,0.5372689,-273.87479,-13.570313)">
      <g
         style="stroke-width:4.08449793"
         id="layer1-3-65-7"
         inkscape:label="Capa 1"
         transform="translate(0.41988239,0.03484499)" />
    </g>
    <g
       style="stroke-width:4.08449793"
       inkscape:transform-center-y="-9.4924686"
       inkscape:transform-center-x="5.4653607"
       inkscape:label="Capa 1"
       id="layer1-4-3-2-3"
       transform="matrix(0.51126596,0,0,0.51245325,-308.26121,5.8056741)">
      <g
         style="stroke-width:4.08449793"
         id="layer1-3-65-9-9-9"
         inkscape:label="Capa 1"
         transform="translate(0.41988239,0.03484499)" />
    </g>
    <g
       style="stroke-width:4.08449793"
       inkscape:transform-center-y="-9.4924686"
       inkscape:transform-center-x="5.4653607"
       inkscape:label="Capa 1"
       id="layer1-4-1-9"
       transform="matrix(0.51126596,0,0,0.51245325,-308.26121,5.8295236)">
      <g
         style="stroke-width:4.08449793"
         id="layer1-3-65-2-9"
         inkscape:label="Capa 1"
         transform="translate(0.41988239,0.03484499)" />
    </g>
    <flowRoot
       xml:space="preserve"
       id="flowRoot2913"
       style="fill:black;fill-opacity:1;stroke:none;font-family:sans-serif;font-style:normal;font-weight:normal;font-size:8px;line-height:1.25;letter-spacing:0px;word-spacing:0px;"><flowRegion
         id="flowRegion2915"
         style="font-size:8px;"><rect
           id="rect2917"
           width="71.510742"
           height="82.51239"
           x="28.350412"
           y="21.79174"
           style="font-size:8px;" /></flowRegion><flowPara
         id="flowPara2919" /></flowRoot>  </g>
</svg>
