<?xml version="1.0" encoding="UTF-8" standalone="no"?>
<!-- Created with Inkscape (http://www.inkscape.org/) -->

<svg
   xmlns:osb="http://www.openswatchbook.org/uri/2009/osb"
   xmlns:dc="http://purl.org/dc/elements/1.1/"
   xmlns:cc="http://creativecommons.org/ns#"
   xmlns:rdf="http://www.w3.org/1999/02/22-rdf-syntax-ns#"
   xmlns:svg="http://www.w3.org/2000/svg"
   xmlns="http://www.w3.org/2000/svg"
   xmlns:xlink="http://www.w3.org/1999/xlink"
   xmlns:sodipodi="http://sodipodi.sourceforge.net/DTD/sodipodi-0.dtd"
   xmlns:inkscape="http://www.inkscape.org/namespaces/inkscape"
   width="128"
   height="128"
   viewBox="0 0 33.866666 33.866668"
   version="1.1"
   id="svg1038"
   inkscape:version="0.92.2 5c3e80d, 2017-08-06"
   sodipodi:docname="text-x-c.svg">
  <defs
     id="defs1032">
    <linearGradient
       osb:paint="solid"
       id="linearGradient6987">
      <stop
         id="stop6985"
         offset="0"
         style="stop-color:#77d2fb;stop-opacity:1;" />
    </linearGradient>
    <linearGradient
       id="linearGradient1830">
      <stop
         offset="0"
         style="stop-color:#d9d9d9;stop-opacity:1"
         id="stop1826" />
      <stop
         offset="1"
         style="stop-color:#ffffff;stop-opacity:1;"
         id="stop1828" />
    </linearGradient>
    <linearGradient
       gradientTransform="matrix(0.95481176,0,0,0.95480184,0.765188,12.661904)"
       gradientUnits="userSpaceOnUse"
       y2="296.16849"
       x2="4.5843229"
       y1="263.52237"
       x1="29.203474"
       id="linearGradient1503-8-3"
       xlink:href="#linearGradient1830"
       inkscape:collect="always" />
  </defs>
  <sodipodi:namedview
     id="base"
     pagecolor="#ffffff"
     bordercolor="#666666"
     borderopacity="1.0"
     inkscape:pageopacity="0.0"
     inkscape:pageshadow="2"
     inkscape:zoom="1.6111769"
     inkscape:cx="-38.041841"
     inkscape:cy="51.297833"
     inkscape:document-units="mm"
     inkscape:current-layer="layer1"
     showgrid="false"
     inkscape:window-width="1600"
     inkscape:window-height="798"
     inkscape:window-x="0"
     inkscape:window-y="0"
     inkscape:window-maximized="1"
     units="px" />
  <metadata
     id="metadata1035">
    <rdf:RDF>
      <cc:Work
         rdf:about="">
        <dc:format>image/svg+xml</dc:format>
        <dc:type
           rdf:resource="http://purl.org/dc/dcmitype/StillImage" />
        <dc:title />
      </cc:Work>
    </rdf:RDF>
  </metadata>
  <g
     inkscape:label="Layer 1"
     inkscape:groupmode="layer"
     id="layer1"
     transform="translate(0,-263.13332)">
    <g
       style="stroke-width:4.08449793"
       inkscape:transform-center-y="-9.4924686"
       inkscape:transform-center-x="5.4653607"
       inkscape:label="Capa 1"
       id="layer1-4-9"
       transform="matrix(0.53602412,0,0,0.5372689,-234.93365,-13.785303)">
      <g
         style="stroke-width:4.08449793"
         id="layer1-3-65-0"
         inkscape:label="Capa 1"
         transform="translate(0.41988239,0.03484499)" />
    </g>
    <g
       style="stroke-width:4.08449793"
       inkscape:transform-center-y="-9.4924686"
       inkscape:transform-center-x="5.4653607"
       inkscape:label="Capa 1"
       id="layer1-4"
       transform="matrix(0.53602412,0,0,0.5372689,-234.93365,-13.760303)">
      <g
         style="stroke-width:4.08449793"
         id="layer1-3-65"
         inkscape:label="Capa 1"
         transform="translate(0.41988239,0.03484499)" />
    </g>
    <g
       style="stroke-width:4.08449793"
       inkscape:transform-center-y="-9.4924686"
       inkscape:transform-center-x="5.4653607"
       inkscape:label="Capa 1"
       id="layer1-4-9-2"
       transform="matrix(0.53602412,0,0,0.5372689,-267.6877,-57.383363)">
      <g
         style="stroke-width:4.08449793"
         id="layer1-3-65-0-2"
         inkscape:label="Capa 1"
         transform="translate(0.41988239,0.03484499)" />
    </g>
    <g
       style="stroke-width:4.08449793"
       inkscape:transform-center-y="-9.4924686"
       inkscape:transform-center-x="5.4653607"
       inkscape:label="Capa 1"
       id="layer1-4-7"
       transform="matrix(0.53602412,0,0,0.5372689,-267.6877,-57.358363)">
      <g
         style="stroke-width:4.08449793"
         id="layer1-3-65-3"
         inkscape:label="Capa 1"
         transform="translate(0.41988239,0.03484499)" />
    </g>
    <g
       style="stroke-width:4.08449793"
       inkscape:transform-center-y="-9.4924686"
       inkscape:transform-center-x="5.4653607"
       inkscape:label="Capa 1"
       id="layer1-4-3"
       transform="matrix(0.53602412,0,0,0.5372689,-194.30525,-19.482273)">
      <g
         style="stroke-width:4.08449793"
         id="layer1-3-65-9"
         inkscape:label="Capa 1"
         transform="translate(0.41988239,0.03484499)" />
    </g>
    <g
       style="stroke-width:4.08449793"
       inkscape:transform-center-y="-9.4924686"
       inkscape:transform-center-x="5.4653607"
       inkscape:label="Capa 1"
       id="layer1-4-2"
       transform="matrix(0.53602412,0,0,0.5372689,-194.30525,-19.45727)">
      <g
         style="stroke-width:4.08449793"
         id="layer1-3-65-29"
         inkscape:label="Capa 1"
         transform="translate(0.41988239,0.03484499)" />
    </g>
    <g
       style="stroke-width:4.08449793"
       inkscape:transform-center-y="-9.4924686"
       inkscape:transform-center-x="5.4653607"
       inkscape:label="Capa 1"
       id="layer1-4-3-2"
       transform="matrix(0.51126596,0,0,0.51245325,-228.69166,-0.0812827)">
      <g
         style="stroke-width:4.08449793"
         id="layer1-3-65-9-9"
         inkscape:label="Capa 1"
         transform="translate(0.41988239,0.03484499)" />
    </g>
    <g
       style="stroke-width:4.08449793"
       inkscape:transform-center-y="-9.4924686"
       inkscape:transform-center-x="5.4653607"
       inkscape:label="Capa 1"
       id="layer1-4-1"
       transform="matrix(0.51126596,0,0,0.51245325,-228.69166,-0.0574332)">
      <g
         style="stroke-width:4.08449793"
         id="layer1-3-65-2"
         inkscape:label="Capa 1"
         transform="translate(0.41988239,0.03484499)" />
    </g>
    <path
       style="opacity:0.25;fill:#000000;fill-opacity:1;stroke:none;stroke-width:1.7883966;stroke-miterlimit:4;stroke-dasharray:none;stroke-opacity:1"
       d="m 5.142353,264.8392 v 31.10591 h 23.581961 v -17.45475 c -0.04498,-0.7929 -0.09696,-1.50255 -0.298063,-2.22205 -0.204573,-0.73192 -0.526951,-1.42494 -0.912236,-2.08813 -0.492998,-0.84861 -1.326132,-1.39576 -2.066596,-2.09122 -0.449226,-0.40738 -1.419471,-1.3751 -2.593872,-2.5305 -1.164791,-1.14594 -2.530897,-2.47697 -3.671384,-3.51104 -0.336848,-0.30398 -0.826157,-0.61944 -1.28075,-0.80163 -0.352994,-0.14146 -0.768267,-0.22951 -1.169211,-0.28869 -0.413429,-0.061 -0.811623,-0.0914 -1.110603,-0.1179 z"
       id="path5023-4-5"
       inkscape:connector-curvature="0"
       sodipodi:nodetypes="ccccascscsscc" />
    <path
       sodipodi:nodetypes="ccccascscsscc"
       inkscape:connector-curvature="0"
       id="path4623-8-3"
       d="m 5.142353,264.33819 v 31.10591 h 23.581961 v -17.45475 c -0.04498,-0.7929 -0.09696,-1.50256 -0.298063,-2.22206 -0.204573,-0.73192 -0.526951,-1.42494 -0.912236,-2.08813 -0.492998,-0.8486 -1.326132,-1.39575 -2.066596,-2.09121 -0.449226,-0.40739 -1.419471,-1.37511 -2.593872,-2.53051 -1.164791,-1.14592 -2.530897,-2.47697 -3.671384,-3.51104 -0.336848,-0.30398 -0.826157,-0.61945 -1.28075,-0.80162 -0.352994,-0.14146 -0.768267,-0.22952 -1.169211,-0.28869 -0.413429,-0.0611 -0.811623,-0.0914 -1.110603,-0.1179 z"
       style="opacity:1;fill:url(#linearGradient1503-8-3);fill-opacity:1;stroke:#808080;stroke-width:0.30000001;stroke-miterlimit:4;stroke-dasharray:none;stroke-opacity:1" />
    <path
       sodipodi:nodetypes="ccccsccsc"
       inkscape:connector-curvature="0"
       id="path1355-8-5"
       d="m 19.620994,266.16126 c 0.01558,0.0251 0.535221,0.86284 0.694175,1.33425 0.430727,0.96558 0.246637,3.78888 0.238805,5.39748 0.02644,-0.18505 4.473865,-1.33136 6.782594,0.76747 -0.01476,-0.026 -0.04662,-0.0767 -0.119341,-0.17767 -0.06901,-0.0958 -0.174308,-0.23765 -0.354479,-0.42182 -0.503715,-0.5766 -0.22026,-0.0806 -0.768208,-0.6505 -0.473747,-0.42966 -1.496999,-1.45025 -2.735519,-2.66881 -1.183854,-1.16476 -2.562819,-2.50808 -3.738027,-3.5804 z"
       style="opacity:0.24800002;fill:#000000;fill-opacity:1;stroke:none;stroke-width:0.28614345;stroke-miterlimit:4;stroke-dasharray:none;stroke-opacity:1" />
    <path
       style="opacity:1;fill:#ffffff;fill-opacity:1;stroke:#808080;stroke-width:0.30000001;stroke-miterlimit:4;stroke-dasharray:none;stroke-opacity:1"
       d="m 19.308998,265.6626 c 0.01477,0.0238 0.507514,0.81811 0.658239,1.26509 0.40843,0.91553 0.278738,3.06938 0.271311,4.5946 0.409178,-0.0213 4.921198,-0.70296 6.989915,1.73982 -0.02793,-0.0483 -0.09803,-0.0884 -0.13713,-0.16512 -0.477638,-0.54671 -1.086946,-0.98598 -1.643914,-1.50908 -0.449221,-0.4074 -1.419501,-1.37509 -2.593906,-2.53048 -1.122567,-1.10439 -2.430145,-2.3781 -3.544515,-3.39483 z"
       id="path4753-0-6"
       inkscape:connector-curvature="0"
       sodipodi:nodetypes="ccccccsc" />
    <g
       transform="matrix(0.23493284,0,0,0.23640092,0.072083,227.87618)"
       style="font-style:normal;font-weight:normal;font-size:10.58333302px;line-height:125%;font-family:sans-serif;letter-spacing:0px;word-spacing:0px;fill:#333333;fill-opacity:1;stroke:none;stroke-width:4.24329805px;stroke-linecap:butt;stroke-linejoin:miter;stroke-opacity:1"
       id="flowRoot4678">
      <path
         inkscape:connector-curvature="0"
         d="m 33.932437,181.16855 h -0.446484 l 0.184547,-0.97036 h -0.660797 l -0.184547,0.97036 h -0.446484 l 0.184547,-0.97036 h -0.381 v -0.39885 h 0.45839 l 0.178594,-0.94655 h -0.636984 v -0.39291 h 0.720328 l 0.184547,-0.97631 h 0.446484 l -0.184547,0.97631 h 0.660797 l 0.178594,-0.97631 h 0.446484 l -0.178594,0.97631 h 0.381 v 0.39291 h -0.45839 l -0.184547,0.94655 h 0.642937 v 0.39885 h -0.720328 z m -0.006,-2.31576 h -0.654843 l -0.184547,0.94655 h 0.654843 z"
         style="font-style:normal;font-variant:normal;font-weight:normal;font-stretch:normal;font-size:5.95312452px;font-family:'Ubuntu Mono';-inkscape-font-specification:'Ubuntu Mono';fill:#333333;fill-opacity:1;stroke-width:4.24329805px"
         id="path4639" />
      <path
         inkscape:connector-curvature="0"
         d="m 36.24225,177.97768 q -0.154782,0 -0.267891,-0.10716 -0.113109,-0.10715 -0.113109,-0.2917 0,-0.18455 0.113109,-0.2917 0.113109,-0.10716 0.267891,-0.10716 0.160734,0 0.26789,0.10716 0.11311,0.10715 0.11311,0.2917 0,0.18455 -0.11311,0.2917 -0.107156,0.10716 -0.26789,0.10716 z m -0.125016,0.83939 h -0.797719 v -0.41077 h 1.285875 v 1.69664 q 0,0.41077 0.11311,0.55365 0.113109,0.13692 0.339328,0.13692 0.17264,0 0.315515,-0.0417 0.148828,-0.0417 0.232172,-0.0893 l 0.07144,0.41672 q -0.03572,0.0179 -0.101203,0.0476 -0.06549,0.0238 -0.154782,0.0476 -0.08334,0.0238 -0.1905,0.0417 -0.101203,0.0179 -0.214312,0.0179 -0.261938,0 -0.434578,-0.0714 -0.172641,-0.0714 -0.279797,-0.21431 -0.101203,-0.14288 -0.142875,-0.35124 -0.04167,-0.21431 -0.04167,-0.49411 v -1.28587 z"
         style="font-style:normal;font-variant:normal;font-weight:normal;font-stretch:normal;font-size:5.95312452px;font-family:'Ubuntu Mono';-inkscape-font-specification:'Ubuntu Mono';fill:#333333;fill-opacity:1;stroke-width:4.24329805px"
         id="path4641" />
      <path
         inkscape:connector-curvature="0"
         d="m 38.397281,178.4837 q 0.26789,-0.0655 0.529828,-0.10121 0.26789,-0.0357 0.500062,-0.0357 0.553641,0 0.833438,0.28575 0.28575,0.28575 0.28575,0.91678 v 1.61925 h -0.488157 v -1.52995 q 0,-0.26789 -0.04763,-0.43458 -0.04762,-0.16668 -0.136921,-0.25598 -0.08334,-0.0952 -0.20836,-0.13097 -0.119062,-0.0357 -0.261937,-0.0357 -0.119063,0 -0.255985,0.0179 -0.130968,0.0119 -0.255984,0.0357 v 2.33362 h -0.494109 v -2.68485 z"
         style="font-style:normal;font-variant:normal;font-weight:normal;font-stretch:normal;font-size:5.95312452px;font-family:'Ubuntu Mono';-inkscape-font-specification:'Ubuntu Mono';fill:#333333;fill-opacity:1;stroke-width:4.24329805px"
         id="path4643" />
      <path
         inkscape:connector-curvature="0"
         d="m 41.242874,179.79338 q 0,-0.37504 0.119063,-0.64889 0.119062,-0.27384 0.327421,-0.45244 0.20836,-0.17859 0.482203,-0.26193 0.279797,-0.0893 0.595313,-0.0893 0.202406,0 0.398859,0.0298 0.202406,0.0238 0.428625,0.0952 l -0.113109,0.42267 q -0.196453,-0.0714 -0.363141,-0.0893 -0.160734,-0.0238 -0.327422,-0.0238 -0.214312,0 -0.404812,0.0595 -0.1905,0.0536 -0.333375,0.17859 -0.136922,0.11907 -0.220266,0.31552 -0.08334,0.1905 -0.08334,0.46434 0,0.26194 0.07739,0.45244 0.07739,0.18455 0.214313,0.30956 0.142875,0.11906 0.339328,0.1786 0.196453,0.0595 0.434578,0.0595 0.1905,0 0.36314,-0.0179 0.178594,-0.0238 0.386954,-0.0953 l 0.07144,0.41076 q -0.208359,0.0774 -0.422672,0.10716 -0.214312,0.0357 -0.464343,0.0357 -0.333375,0 -0.613172,-0.0893 -0.273844,-0.0953 -0.47625,-0.27384 -0.196453,-0.1786 -0.309563,-0.44649 -0.107156,-0.27384 -0.107156,-0.63103 z"
         style="font-style:normal;font-variant:normal;font-weight:normal;font-stretch:normal;font-size:5.95312452px;font-family:'Ubuntu Mono';-inkscape-font-specification:'Ubuntu Mono';fill:#333333;fill-opacity:1;stroke-width:4.24329805px"
         id="path4645" />
      <path
         inkscape:connector-curvature="0"
         d="m 45.93989,181.23404 q -0.261938,0 -0.434579,-0.0714 -0.17264,-0.0714 -0.273843,-0.21431 -0.101203,-0.14288 -0.142875,-0.35124 -0.04167,-0.21431 -0.04167,-0.49411 v -2.61342 h -0.797719 v -0.41672 h 1.285875 v 3.03014 q 0,0.20836 0.02381,0.33933 0.02977,0.13097 0.08334,0.21432 0.05953,0.0774 0.142875,0.10715 0.08334,0.0298 0.196453,0.0298 0.172641,0 0.321469,-0.0417 0.148828,-0.0417 0.232172,-0.0893 l 0.07144,0.41672 q -0.03572,0.0179 -0.101203,0.0476 -0.06548,0.0238 -0.154781,0.0476 -0.0893,0.0238 -0.196453,0.0417 -0.101203,0.0179 -0.214312,0.0179 z"
         style="font-style:normal;font-variant:normal;font-weight:normal;font-stretch:normal;font-size:5.95312452px;font-family:'Ubuntu Mono';-inkscape-font-specification:'Ubuntu Mono';fill:#333333;fill-opacity:1;stroke-width:4.24329805px"
         id="path4647" />
      <path
         inkscape:connector-curvature="0"
         d="m 49.458186,181.09116 q -0.160734,0.0417 -0.428625,0.0893 -0.261937,0.0476 -0.619125,0.0476 -0.315515,0 -0.523875,-0.0893 -0.208359,-0.0952 -0.339328,-0.26194 -0.130968,-0.17264 -0.184546,-0.40481 -0.05358,-0.23217 -0.05358,-0.51197 v -1.55377 h 0.488157 v 1.44661 q 0,0.51197 0.148828,0.72628 0.154781,0.21432 0.511968,0.21432 0.07739,0 0.154782,-0.006 0.08334,-0.006 0.154781,-0.0119 0.07144,-0.0119 0.125016,-0.0179 0.05358,-0.0119 0.07144,-0.0179 v -2.33363 h 0.494109 v 2.68486 z"
         style="font-style:normal;font-variant:normal;font-weight:normal;font-stretch:normal;font-size:5.95312452px;font-family:'Ubuntu Mono';-inkscape-font-specification:'Ubuntu Mono';fill:#333333;fill-opacity:1;stroke-width:4.24329805px"
         id="path4649" />
      <path
         inkscape:connector-curvature="0"
         d="m 51.940639,178.98971 q -0.08334,-0.0774 -0.244079,-0.14287 -0.160734,-0.0714 -0.333375,-0.0714 -0.196453,0 -0.339328,0.0774 -0.136921,0.0774 -0.226218,0.21431 -0.0893,0.13097 -0.130969,0.32147 -0.04167,0.18455 -0.04167,0.39886 0,0.4822 0.226219,0.74414 0.226218,0.26194 0.589359,0.26194 0.184547,0 0.309563,-0.0179 0.130968,-0.0179 0.1905,-0.0357 v -1.75022 z m 0,-1.86333 0.494109,-0.0833 v 4.04812 q -0.160734,0.0476 -0.410766,0.0952 -0.250031,0.0476 -0.583406,0.0476 -0.297656,0 -0.541734,-0.1012 -0.244078,-0.10121 -0.416719,-0.28575 -0.172641,-0.1905 -0.267891,-0.4584 -0.09525,-0.26789 -0.09525,-0.60126 0,-0.32147 0.07739,-0.58341 0.08334,-0.26789 0.238125,-0.45839 0.154781,-0.1905 0.369094,-0.29765 0.220265,-0.10716 0.500062,-0.10716 0.220266,0 0.386953,0.0536 0.166688,0.0536 0.250032,0.11311 v -1.38113 z"
         style="font-style:normal;font-variant:normal;font-weight:normal;font-stretch:normal;font-size:5.95312452px;font-family:'Ubuntu Mono';-inkscape-font-specification:'Ubuntu Mono';fill:#333333;fill-opacity:1;stroke-width:4.24329805px"
         id="path4651" />
      <path
         inkscape:connector-curvature="0"
         d="m 54.399279,178.34082 q 0.559594,0 0.863203,0.35123 0.30361,0.34529 0.30361,1.05371 v 0.17264 h -1.976438 q 0.02977,0.42862 0.279797,0.65484 0.255984,0.22027 0.714375,0.22027 0.261938,0 0.446484,-0.0417 0.184547,-0.0417 0.279797,-0.0893 l 0.06548,0.41672 q -0.0893,0.0476 -0.321469,0.1012 -0.232172,0.0536 -0.523875,0.0536 -0.357188,0 -0.631031,-0.10716 -0.267891,-0.11311 -0.446485,-0.30361 -0.178593,-0.1905 -0.26789,-0.45243 -0.0893,-0.2679 -0.0893,-0.57746 0,-0.36909 0.113109,-0.64294 0.11311,-0.27384 0.297657,-0.45243 0.184546,-0.1786 0.416718,-0.26789 0.232172,-0.0893 0.47625,-0.0893 z m 0.66675,1.17872 q 0,-0.35124 -0.184547,-0.55364 -0.184547,-0.20836 -0.488156,-0.20836 -0.172641,0 -0.315516,0.0655 -0.136921,0.0655 -0.238124,0.17264 -0.101204,0.10716 -0.160735,0.24408 -0.05953,0.13692 -0.07739,0.2798 h 1.464468 z"
         style="font-style:normal;font-variant:normal;font-weight:normal;font-stretch:normal;font-size:5.95312452px;font-family:'Ubuntu Mono';-inkscape-font-specification:'Ubuntu Mono';fill:#333333;fill-opacity:1;stroke-width:4.24329805px"
         id="path4653" />
      <path
         inkscape:connector-curvature="0"
         d="m 59.649936,179.65051 1.88714,0.77986 -0.136922,0.41076 -2.297906,-0.97631 v -0.42267 l 2.297906,-0.97631 0.136922,0.41076 z"
         style="font-style:normal;font-variant:normal;font-weight:normal;font-stretch:normal;font-size:5.95312452px;font-family:'Ubuntu Mono';-inkscape-font-specification:'Ubuntu Mono';fill:#333333;fill-opacity:1;stroke-width:4.24329805px"
         id="path4655" />
      <path
         inkscape:connector-curvature="0"
         d="m 63.876654,180.47799 q 0,-0.14883 -0.125015,-0.24408 -0.119063,-0.0953 -0.30361,-0.16668 -0.178594,-0.0714 -0.392906,-0.13693 -0.214312,-0.0714 -0.398859,-0.17264 -0.178594,-0.1012 -0.30361,-0.25003 -0.119062,-0.14883 -0.119062,-0.38695 0,-0.33338 0.26789,-0.55364 0.273844,-0.22622 0.851297,-0.22622 0.226219,0 0.464344,0.0357 0.244078,0.0298 0.416719,0.0833 l -0.0893,0.44053 q -0.04762,-0.0238 -0.130969,-0.0476 -0.08334,-0.0298 -0.1905,-0.0476 -0.107156,-0.0238 -0.232172,-0.0357 -0.119062,-0.0119 -0.232172,-0.0119 -0.642937,0 -0.642937,0.35123 0,0.12502 0.119062,0.21432 0.125016,0.0833 0.309563,0.15478 0.184547,0.0714 0.398859,0.14882 0.214313,0.0714 0.39886,0.1786 0.184546,0.10715 0.303609,0.26194 0.125016,0.14882 0.125016,0.381 0,0.37504 -0.291704,0.5834 -0.291703,0.20241 -0.922734,0.20241 -0.28575,0 -0.523875,-0.0476 -0.238125,-0.0476 -0.452437,-0.14287 l 0.09525,-0.44649 q 0.208359,0.0952 0.434578,0.16074 0.232172,0.0595 0.494109,0.0595 0.672703,0 0.672703,-0.33933 z"
         style="font-style:normal;font-variant:normal;font-weight:normal;font-stretch:normal;font-size:5.95312452px;font-family:'Ubuntu Mono';-inkscape-font-specification:'Ubuntu Mono';fill:#333333;fill-opacity:1;stroke-width:4.24329805px"
         id="path4657" />
      <path
         inkscape:connector-curvature="0"
         d="m 66.210277,178.4063 h 1.166813 v 0.41077 h -1.166813 v 1.28587 q 0,0.20836 0.02977,0.33933 0.02977,0.13097 0.09525,0.21432 0.07144,0.0774 0.178594,0.10715 0.107156,0.0298 0.261937,0.0298 0.214313,0 0.345281,-0.0357 0.130969,-0.0357 0.250032,-0.0952 l 0.07144,0.41672 q -0.08334,0.0357 -0.267891,0.0952 -0.178593,0.0595 -0.446484,0.0595 -0.309562,0 -0.506015,-0.0714 -0.196454,-0.0714 -0.309563,-0.21431 -0.107156,-0.14288 -0.148828,-0.35124 -0.04167,-0.21431 -0.04167,-0.49411 v -1.28587 h -0.583406 v -0.41077 h 0.583406 v -0.7739 l 0.488156,-0.0833 v 0.85725 z"
         style="font-style:normal;font-variant:normal;font-weight:normal;font-stretch:normal;font-size:5.95312452px;font-family:'Ubuntu Mono';-inkscape-font-specification:'Ubuntu Mono';fill:#333333;fill-opacity:1;stroke-width:4.24329805px"
         id="path4659" />
      <path
         inkscape:connector-curvature="0"
         d="m 69.800012,178.98971 q -0.08334,-0.0774 -0.244078,-0.14287 -0.160735,-0.0714 -0.333375,-0.0714 -0.196454,0 -0.339329,0.0774 -0.136921,0.0774 -0.226218,0.21431 -0.0893,0.13097 -0.130969,0.32147 -0.04167,0.18455 -0.04167,0.39886 0,0.4822 0.226219,0.74414 0.226219,0.26194 0.589359,0.26194 0.184547,0 0.309563,-0.0179 0.130968,-0.0179 0.1905,-0.0357 v -1.75022 z m 0,-1.86333 0.494109,-0.0833 v 4.04812 q -0.160734,0.0476 -0.410766,0.0952 -0.250031,0.0476 -0.583406,0.0476 -0.297656,0 -0.541734,-0.1012 -0.244078,-0.10121 -0.416719,-0.28575 -0.17264,-0.1905 -0.26789,-0.4584 -0.09525,-0.26789 -0.09525,-0.60126 0,-0.32147 0.07739,-0.58341 0.08334,-0.26789 0.238125,-0.45839 0.154781,-0.1905 0.369094,-0.29765 0.220265,-0.10716 0.500062,-0.10716 0.220266,0 0.386953,0.0536 0.166688,0.0536 0.250032,0.11311 v -1.38113 z"
         style="font-style:normal;font-variant:normal;font-weight:normal;font-stretch:normal;font-size:5.95312452px;font-family:'Ubuntu Mono';-inkscape-font-specification:'Ubuntu Mono';fill:#333333;fill-opacity:1;stroke-width:4.24329805px"
         id="path4661" />
      <path
         inkscape:connector-curvature="0"
         d="m 71.960996,177.97768 q -0.154781,0 -0.267891,-0.10716 -0.113109,-0.10715 -0.113109,-0.2917 0,-0.18455 0.113109,-0.2917 0.11311,-0.10716 0.267891,-0.10716 0.160734,0 0.267891,0.10716 0.113109,0.10715 0.113109,0.2917 0,0.18455 -0.113109,0.2917 -0.107157,0.10716 -0.267891,0.10716 z m -0.125016,0.83939 h -0.797718 v -0.41077 h 1.285875 v 1.69664 q 0,0.41077 0.113109,0.55365 0.113109,0.13692 0.339328,0.13692 0.172641,0 0.315516,-0.0417 0.148828,-0.0417 0.232172,-0.0893 l 0.07144,0.41672 q -0.03572,0.0179 -0.101203,0.0476 -0.06548,0.0238 -0.154781,0.0476 -0.08334,0.0238 -0.1905,0.0417 -0.101203,0.0179 -0.214313,0.0179 -0.261937,0 -0.434578,-0.0714 -0.17264,-0.0714 -0.279797,-0.21431 -0.101203,-0.14288 -0.142875,-0.35124 -0.04167,-0.21431 -0.04167,-0.49411 v -1.28587 z"
         style="font-style:normal;font-variant:normal;font-weight:normal;font-stretch:normal;font-size:5.95312452px;font-family:'Ubuntu Mono';-inkscape-font-specification:'Ubuntu Mono';fill:#333333;fill-opacity:1;stroke-width:4.24329805px"
         id="path4663" />
      <path
         inkscape:connector-curvature="0"
         d="m 76.431793,179.78743 q 0,0.32742 -0.09525,0.59531 -0.0893,0.26194 -0.255985,0.45244 -0.166687,0.1905 -0.398859,0.29766 -0.232172,0.1012 -0.506015,0.1012 -0.267891,0 -0.500063,-0.1012 -0.226219,-0.10716 -0.392906,-0.29766 -0.166688,-0.1905 -0.261938,-0.45244 -0.0893,-0.26789 -0.0893,-0.59531 0,-0.32742 0.0893,-0.59531 0.09525,-0.26789 0.261938,-0.45244 0.166687,-0.1905 0.392906,-0.2917 0.232172,-0.10716 0.500063,-0.10716 0.273843,0 0.506015,0.10716 0.232172,0.1012 0.398859,0.2917 0.166688,0.18455 0.255985,0.45244 0.09525,0.26789 0.09525,0.59531 z m -0.506016,0 q 0,-0.4703 -0.202406,-0.73819 -0.202406,-0.27384 -0.547687,-0.27384 -0.339329,0 -0.541735,0.27384 -0.196453,0.26789 -0.196453,0.73819 0,0.46434 0.196453,0.73819 0.202406,0.26789 0.541735,0.26789 0.345281,0 0.547687,-0.26789 0.202406,-0.27385 0.202406,-0.73819 z"
         style="font-style:normal;font-variant:normal;font-weight:normal;font-stretch:normal;font-size:5.95312452px;font-family:'Ubuntu Mono';-inkscape-font-specification:'Ubuntu Mono';fill:#333333;fill-opacity:1;stroke-width:4.24329805px"
         id="path4665" />
      <path
         inkscape:connector-curvature="0"
         d="m 78.59873,180.78755 q 0,0.1786 -0.119062,0.31552 -0.119063,0.13692 -0.315516,0.13692 -0.202406,0 -0.321468,-0.13692 -0.119063,-0.13692 -0.119063,-0.31552 0,-0.18454 0.119063,-0.32146 0.119062,-0.13693 0.321468,-0.13693 0.196453,0 0.315516,0.13693 0.119062,0.13692 0.119062,0.32146 z"
         style="font-style:normal;font-variant:normal;font-weight:normal;font-stretch:normal;font-size:5.95312452px;font-family:'Ubuntu Mono';-inkscape-font-specification:'Ubuntu Mono';fill:#333333;fill-opacity:1;stroke-width:4.24329805px"
         id="path4667" />
      <path
         inkscape:connector-curvature="0"
         d="m 80.069152,181.16855 v -4.04217 l 0.49411,-0.0833 v 1.40494 q 0.119062,-0.0476 0.26789,-0.0714 0.148828,-0.0298 0.291703,-0.0298 0.315516,0 0.523875,0.0953 0.214313,0.0893 0.339328,0.25599 0.125016,0.16669 0.178594,0.39886 0.05358,0.23217 0.05358,0.51197 v 1.55971 h -0.488156 v -1.45256 q 0,-0.51197 -0.142875,-0.72033 -0.142875,-0.21431 -0.511969,-0.21431 -0.154781,0 -0.303609,0.0357 -0.142875,0.0298 -0.208359,0.0595 v 2.29195 h -0.49411 z"
         style="font-style:normal;font-variant:normal;font-weight:normal;font-stretch:normal;font-size:5.95312452px;font-family:'Ubuntu Mono';-inkscape-font-specification:'Ubuntu Mono';fill:#333333;fill-opacity:1;stroke-width:4.24329805px"
         id="path4669" />
      <path
         inkscape:connector-curvature="0"
         d="m 82.914746,178.8766 0.136922,-0.41076 2.297906,0.97631 v 0.42267 l -2.297906,0.97631 -0.136922,-0.41076 1.887141,-0.77986 z"
         style="font-style:normal;font-variant:normal;font-weight:normal;font-stretch:normal;font-size:5.95312452px;font-family:'Ubuntu Mono';-inkscape-font-specification:'Ubuntu Mono';fill:#333333;fill-opacity:1;stroke-width:4.24329805px"
         id="path4671" />
      <path
         inkscape:connector-curvature="0"
         d="m 33.265687,192.86049 q -0.154781,0 -0.26789,-0.10715 -0.11311,-0.10716 -0.11311,-0.29171 0,-0.18454 0.11311,-0.2917 0.113109,-0.10716 0.26789,-0.10716 0.160735,0 0.267891,0.10716 0.113109,0.10716 0.113109,0.2917 0,0.18455 -0.113109,0.29171 -0.107156,0.10715 -0.267891,0.10715 z m -0.125015,0.83939 h -0.797719 v -0.41076 h 1.285875 v 1.69664 q 0,0.41076 0.113109,0.55364 0.11311,0.13692 0.339328,0.13692 0.172641,0 0.315516,-0.0417 0.148828,-0.0417 0.232172,-0.0893 l 0.07144,0.41672 q -0.03572,0.0179 -0.101203,0.0476 -0.06548,0.0238 -0.154781,0.0476 -0.08334,0.0238 -0.1905,0.0417 -0.101203,0.0179 -0.214312,0.0179 -0.261938,0 -0.434579,-0.0714 -0.17264,-0.0714 -0.279796,-0.21431 -0.101203,-0.14287 -0.142875,-0.35123 -0.04167,-0.21432 -0.04167,-0.49411 v -1.28588 z"
         style="font-style:normal;font-variant:normal;font-weight:normal;font-stretch:normal;font-size:5.95312452px;font-family:'Ubuntu Mono';-inkscape-font-specification:'Ubuntu Mono';fill:#333333;fill-opacity:1;stroke-width:4.24329805px"
         id="path4673" />
      <path
         inkscape:connector-curvature="0"
         d="m 35.420718,193.36651 q 0.267891,-0.0655 0.529829,-0.10121 0.26789,-0.0357 0.500062,-0.0357 0.553641,0 0.833437,0.28575 0.28575,0.28575 0.28575,0.91678 v 1.61925 H 37.08164 v -1.52996 q 0,-0.26789 -0.04763,-0.43457 -0.04762,-0.16669 -0.136922,-0.25599 -0.08334,-0.0952 -0.208359,-0.13097 -0.119062,-0.0357 -0.261937,-0.0357 -0.119063,0 -0.255985,0.0179 -0.130969,0.0119 -0.255984,0.0357 v 2.33363 h -0.49411 v -2.68486 z"
         style="font-style:normal;font-variant:normal;font-weight:normal;font-stretch:normal;font-size:5.95312452px;font-family:'Ubuntu Mono';-inkscape-font-specification:'Ubuntu Mono';fill:#333333;fill-opacity:1;stroke-width:4.24329805px"
         id="path4675" />
      <path
         inkscape:connector-curvature="0"
         d="m 39.421218,193.28912 h 1.166813 v 0.41076 h -1.166813 v 1.28588 q 0,0.20836 0.02977,0.33933 0.02977,0.13096 0.09525,0.21431 0.07144,0.0774 0.178594,0.10715 0.107156,0.0298 0.261937,0.0298 0.214312,0 0.345281,-0.0357 0.130969,-0.0357 0.250031,-0.0952 l 0.07144,0.41672 q -0.08334,0.0357 -0.267891,0.0952 -0.178593,0.0595 -0.446484,0.0595 -0.309562,0 -0.506016,-0.0714 -0.196453,-0.0714 -0.309562,-0.21431 -0.107156,-0.14287 -0.148828,-0.35123 -0.04167,-0.21432 -0.04167,-0.49411 v -1.28588 h -0.583406 v -0.41076 h 0.583406 v -0.77391 l 0.488156,-0.0833 v 0.85725 z"
         style="font-style:normal;font-variant:normal;font-weight:normal;font-stretch:normal;font-size:5.95312452px;font-family:'Ubuntu Mono';-inkscape-font-specification:'Ubuntu Mono';fill:#333333;fill-opacity:1;stroke-width:4.24329805px"
         id="path4677" />
      <path
         inkscape:connector-curvature="0"
         d="m 44.171812,193.36651 q 0.357187,-0.13692 0.672703,-0.13692 0.17264,0 0.321468,0.0536 0.154782,0.0476 0.261938,0.15479 0.255984,-0.20836 0.547687,-0.20836 0.142875,0 0.267891,0.0536 0.130969,0.0536 0.226219,0.16074 0.101203,0.10715 0.160734,0.26789 0.05953,0.16073 0.05953,0.37505 v 1.96453 h -0.446484 v -1.97644 q 0,-0.21431 -0.09525,-0.32742 -0.09525,-0.11311 -0.238125,-0.11311 -0.07144,0 -0.148828,0.0357 -0.07739,0.0357 -0.142875,0.11311 0.03572,0.13692 0.03572,0.30361 v 0.89892 h -0.446485 v -0.90488 q 0,-0.20836 -0.06548,-0.32742 -0.06548,-0.11906 -0.255985,-0.11906 -0.119062,0 -0.26789,0.0536 v 2.36339 h -0.446484 v -2.68486 z"
         style="font-style:normal;font-variant:normal;font-weight:normal;font-stretch:normal;font-size:5.95312452px;font-family:'Ubuntu Mono';-inkscape-font-specification:'Ubuntu Mono';fill:#333333;fill-opacity:1;stroke-width:4.24329805px"
         id="path4679" />
      <path
         inkscape:connector-curvature="0"
         d="m 48.422343,195.70013 q 0.184547,0 0.327422,-0.0119 0.148828,-0.0119 0.244078,-0.0298 v -0.82153 q -0.09525,-0.0298 -0.232172,-0.0476 -0.130969,-0.0179 -0.279797,-0.0179 -0.136922,0 -0.267891,0.0238 -0.130968,0.0179 -0.232172,0.0714 -0.101203,0.0536 -0.166687,0.14288 -0.06548,0.0833 -0.06548,0.21431 0,0.26789 0.178593,0.37505 0.184547,0.1012 0.49411,0.1012 z m -0.04762,-2.4765 q 0.309562,0 0.517922,0.0774 0.214312,0.0774 0.345281,0.21432 0.130968,0.13692 0.184547,0.33337 0.05358,0.19645 0.05358,0.42863 v 1.7264 q -0.172641,0.0298 -0.458391,0.0714 -0.279797,0.0417 -0.577453,0.0417 -0.226219,0 -0.440531,-0.0417 -0.214313,-0.0357 -0.381,-0.13097 -0.166688,-0.1012 -0.267891,-0.27384 -0.101203,-0.17264 -0.101203,-0.44053 0,-0.23813 0.101203,-0.39886 0.107157,-0.16669 0.267891,-0.26789 0.166687,-0.10121 0.375047,-0.14288 0.214312,-0.0476 0.428625,-0.0476 0.291703,0 0.5715,0.0655 v -0.13692 q 0,-0.12502 -0.02977,-0.23813 -0.02381,-0.11906 -0.101203,-0.21431 -0.07144,-0.0953 -0.202406,-0.14883 -0.125016,-0.0595 -0.327422,-0.0595 -0.255985,0 -0.446485,0.0357 -0.1905,0.0357 -0.291703,0.0714 l -0.05953,-0.40481 q 0.101203,-0.0476 0.333375,-0.0833 0.238125,-0.0357 0.506016,-0.0357 z"
         style="font-style:normal;font-variant:normal;font-weight:normal;font-stretch:normal;font-size:5.95312452px;font-family:'Ubuntu Mono';-inkscape-font-specification:'Ubuntu Mono';fill:#333333;fill-opacity:1;stroke-width:4.24329805px"
         id="path4681" />
      <path
         inkscape:connector-curvature="0"
         d="m 51.12506,192.86049 q -0.154781,0 -0.26789,-0.10715 -0.113109,-0.10716 -0.113109,-0.29171 0,-0.18454 0.113109,-0.2917 0.113109,-0.10716 0.26789,-0.10716 0.160735,0 0.267891,0.10716 0.113109,0.10716 0.113109,0.2917 0,0.18455 -0.113109,0.29171 -0.107156,0.10715 -0.267891,0.10715 z m -0.125015,0.83939 h -0.797719 v -0.41076 h 1.285875 v 1.69664 q 0,0.41076 0.113109,0.55364 0.11311,0.13692 0.339329,0.13692 0.17264,0 0.315515,-0.0417 0.148828,-0.0417 0.232172,-0.0893 l 0.07144,0.41672 q -0.03572,0.0179 -0.101204,0.0476 -0.06548,0.0238 -0.154781,0.0476 -0.08334,0.0238 -0.1905,0.0417 -0.101203,0.0179 -0.214312,0.0179 -0.261938,0 -0.434578,-0.0714 -0.172641,-0.0714 -0.279797,-0.21431 -0.101203,-0.14287 -0.142875,-0.35123 -0.04167,-0.21432 -0.04167,-0.49411 v -1.28588 z"
         style="font-style:normal;font-variant:normal;font-weight:normal;font-stretch:normal;font-size:5.95312452px;font-family:'Ubuntu Mono';-inkscape-font-specification:'Ubuntu Mono';fill:#333333;fill-opacity:1;stroke-width:4.24329805px"
         id="path4683" />
      <path
         inkscape:connector-curvature="0"
         d="m 53.280092,193.36651 q 0.26789,-0.0655 0.529828,-0.10121 0.26789,-0.0357 0.500062,-0.0357 0.553641,0 0.833438,0.28575 0.28575,0.28575 0.28575,0.91678 v 1.61925 h -0.488156 v -1.52996 q 0,-0.26789 -0.04763,-0.43457 -0.04762,-0.16669 -0.136922,-0.25599 -0.08334,-0.0952 -0.20836,-0.13097 -0.119062,-0.0357 -0.261937,-0.0357 -0.119063,0 -0.255985,0.0179 -0.130968,0.0119 -0.255984,0.0357 v 2.33363 h -0.494109 v -2.68486 z"
         style="font-style:normal;font-variant:normal;font-weight:normal;font-stretch:normal;font-size:5.95312452px;font-family:'Ubuntu Mono';-inkscape-font-specification:'Ubuntu Mono';fill:#333333;fill-opacity:1;stroke-width:4.24329805px"
         id="path4685" />
      <path
         inkscape:connector-curvature="0"
         d="m 58.119982,192.23541 q -0.55364,0.42863 -0.845343,0.98822 -0.291703,0.5596 -0.291703,1.22039 0,0.33338 0.06548,0.63103 0.07144,0.29766 0.208359,0.5715 0.142875,0.27385 0.357188,0.52983 0.220265,0.25599 0.517922,0.51197 l -0.267891,0.35719 q -0.684609,-0.50602 -1.023937,-1.17277 -0.333375,-0.6727 -0.333375,-1.41684 0,-0.73819 0.339328,-1.41089 0.339328,-0.6727 1.017984,-1.16681 l 0.261937,0.35718 h -0.006 z"
         style="font-style:normal;font-variant:normal;font-weight:normal;font-stretch:normal;font-size:5.95312452px;font-family:'Ubuntu Mono';-inkscape-font-specification:'Ubuntu Mono';fill:#333333;fill-opacity:1;stroke-width:4.24329805px"
         id="path4687" />
      <path
         inkscape:connector-curvature="0"
         d="m 59.495154,196.68835 q 0.553641,-0.42862 0.845344,-0.98822 0.297656,-0.55959 0.297656,-1.22039 0,-0.33337 -0.07144,-0.63103 -0.06548,-0.29766 -0.20836,-0.5715 -0.142875,-0.27384 -0.36314,-0.52983 -0.214313,-0.25598 -0.511969,-0.51197 l 0.267891,-0.35718 q 0.684609,0.50601 1.017984,1.17872 0.339328,0.66675 0.339328,1.41089 0,0.36909 -0.0893,0.72628 -0.08334,0.35718 -0.255984,0.69056 -0.166688,0.32742 -0.422672,0.61912 -0.250031,0.29766 -0.589359,0.54174 l -0.261938,-0.35719 h 0.006 z"
         style="font-style:normal;font-variant:normal;font-weight:normal;font-stretch:normal;font-size:5.95312452px;font-family:'Ubuntu Mono';-inkscape-font-specification:'Ubuntu Mono';fill:#333333;fill-opacity:1;stroke-width:4.24329805px"
         id="path4689" />
      <path
         inkscape:connector-curvature="0"
         d="m 62.257404,194.27138 h 0.238125 q 0.101203,0 0.178594,-0.0417 0.07739,-0.0476 0.125016,-0.11906 0.05358,-0.0774 0.07739,-0.16669 0.02977,-0.0952 0.02977,-0.1905 v -0.95845 q 0,-0.22027 0.04167,-0.38696 0.04763,-0.16668 0.154781,-0.27979 0.107156,-0.11906 0.28575,-0.1786 0.184547,-0.0595 0.458391,-0.0595 h 0.482203 v 0.38696 h -0.506016 q -0.250031,0 -0.357187,0.11311 -0.101204,0.1131 -0.101204,0.41076 v 0.82153 q 0,0.39886 -0.119062,0.58936 -0.119063,0.18455 -0.273844,0.25003 0.154781,0.0714 0.273844,0.26789 0.119062,0.19646 0.119062,0.5715 v 0.82153 q 0,0.29766 0.107157,0.41077 0.107156,0.11311 0.357187,0.11311 h 0.500063 v 0.38695 h -0.482203 q -0.273844,0 -0.458391,-0.0595 -0.178594,-0.0595 -0.28575,-0.17859 -0.107156,-0.11311 -0.154781,-0.2798 -0.04167,-0.16669 -0.04167,-0.38695 v -0.95846 q 0,-0.0893 -0.02977,-0.17859 -0.02381,-0.0953 -0.07739,-0.16669 -0.04762,-0.0774 -0.125016,-0.12501 -0.07144,-0.0476 -0.172641,-0.0476 h -0.244078 v -0.381 z"
         style="font-style:normal;font-variant:normal;font-weight:normal;font-stretch:normal;font-size:5.95312452px;font-family:'Ubuntu Mono';-inkscape-font-specification:'Ubuntu Mono';fill:#333333;fill-opacity:1;stroke-width:4.24329805px"
         id="path4691" />
      <path
         inkscape:connector-curvature="0"
         d="m 43.183593,202.1176 q 0,-0.4822 -0.226219,-0.74414 -0.226219,-0.26789 -0.589359,-0.26789 -0.202407,0 -0.321469,0.0179 -0.11311,0.0179 -0.178594,0.0417 v 1.74427 q 0.08334,0.0774 0.244078,0.14287 0.160735,0.0655 0.333375,0.0655 0.196453,0 0.333375,-0.0774 0.142875,-0.0774 0.232172,-0.20836 0.0893,-0.13693 0.130969,-0.31552 0.04167,-0.18455 0.04167,-0.39886 z m 0.506015,0 q 0,0.31552 -0.08334,0.58341 -0.07739,0.26193 -0.232171,0.45243 -0.148829,0.1905 -0.369094,0.29766 -0.220266,0.10716 -0.500063,0.10716 -0.220265,0 -0.386953,-0.0536 -0.166687,-0.0536 -0.250031,-0.11906 v 1.08942 h -0.494109 v -3.66117 q 0.160734,-0.0476 0.410765,-0.0953 0.255985,-0.0476 0.583407,-0.0476 0.297656,0 0.541734,0.10121 0.244078,0.1012 0.416719,0.2917 0.17264,0.18454 0.26789,0.45244 0.09525,0.26789 0.09525,0.60126 z"
         style="font-style:normal;font-variant:normal;font-weight:normal;font-stretch:normal;font-size:5.95312452px;font-family:'Ubuntu Mono';-inkscape-font-specification:'Ubuntu Mono';fill:#333333;fill-opacity:1;stroke-width:4.24329805px"
         id="path4693" />
      <path
         inkscape:connector-curvature="0"
         d="m 44.564718,203.49277 v -2.61342 q 0.607218,-0.20836 1.226343,-0.20836 0.1905,0 0.363141,0.0179 0.172641,0.0119 0.381,0.0595 l -0.0893,0.43458 q -0.1905,-0.0536 -0.339328,-0.0655 -0.142875,-0.0179 -0.315516,-0.0179 -0.36314,0 -0.738187,0.1012 v 2.29195 h -0.488156 z"
         style="font-style:normal;font-variant:normal;font-weight:normal;font-stretch:normal;font-size:5.95312452px;font-family:'Ubuntu Mono';-inkscape-font-specification:'Ubuntu Mono';fill:#333333;fill-opacity:1;stroke-width:4.24329805px"
         id="path4695" />
      <path
         inkscape:connector-curvature="0"
         d="m 48.148499,200.3019 q -0.154781,0 -0.267891,-0.10716 -0.113109,-0.10715 -0.113109,-0.2917 0,-0.18455 0.113109,-0.2917 0.11311,-0.10716 0.267891,-0.10716 0.160734,0 0.267891,0.10716 0.113109,0.10715 0.113109,0.2917 0,0.18455 -0.113109,0.2917 -0.107157,0.10716 -0.267891,0.10716 z m -0.125016,0.83939 h -0.797718 v -0.41077 h 1.285875 v 1.69664 q 0,0.41077 0.113109,0.55364 0.113109,0.13693 0.339328,0.13693 0.172641,0 0.315516,-0.0417 0.148828,-0.0417 0.232171,-0.0893 l 0.07144,0.41672 q -0.03572,0.0179 -0.101203,0.0476 -0.06549,0.0238 -0.154781,0.0476 -0.08334,0.0238 -0.1905,0.0417 -0.101203,0.0179 -0.214313,0.0179 -0.261937,0 -0.434578,-0.0714 -0.172641,-0.0714 -0.279797,-0.21431 -0.101203,-0.14288 -0.142875,-0.35124 -0.04167,-0.21431 -0.04167,-0.49411 v -1.28587 z"
         style="font-style:normal;font-variant:normal;font-weight:normal;font-stretch:normal;font-size:5.95312452px;font-family:'Ubuntu Mono';-inkscape-font-specification:'Ubuntu Mono';fill:#333333;fill-opacity:1;stroke-width:4.24329805px"
         id="path4697" />
      <path
         inkscape:connector-curvature="0"
         d="m 50.303529,200.80791 q 0.267891,-0.0655 0.529828,-0.1012 0.267891,-0.0357 0.500063,-0.0357 0.55364,0 0.833437,0.28575 0.28575,0.28575 0.28575,0.91678 v 1.61925 h -0.488156 v -1.52995 q 0,-0.26789 -0.04762,-0.43458 -0.04763,-0.16669 -0.136922,-0.25598 -0.08334,-0.0952 -0.208359,-0.13097 -0.119063,-0.0357 -0.261938,-0.0357 -0.119062,0 -0.255984,0.0179 -0.130969,0.0119 -0.255984,0.0357 v 2.33362 h -0.49411 v -2.68486 z"
         style="font-style:normal;font-variant:normal;font-weight:normal;font-stretch:normal;font-size:5.95312452px;font-family:'Ubuntu Mono';-inkscape-font-specification:'Ubuntu Mono';fill:#333333;fill-opacity:1;stroke-width:4.24329805px"
         id="path4699" />
      <path
         inkscape:connector-curvature="0"
         d="m 54.304029,200.73052 h 1.166813 v 0.41077 h -1.166813 v 1.28587 q 0,0.20836 0.02977,0.33933 0.02976,0.13097 0.09525,0.21431 0.07144,0.0774 0.178594,0.10716 0.107156,0.0298 0.261937,0.0298 0.214313,0 0.345281,-0.0357 0.130969,-0.0357 0.250032,-0.0952 l 0.07144,0.41672 q -0.08334,0.0357 -0.267891,0.0952 -0.178593,0.0595 -0.446484,0.0595 -0.309562,0 -0.506016,-0.0714 -0.196453,-0.0714 -0.309562,-0.21431 -0.107156,-0.14288 -0.148828,-0.35124 -0.04167,-0.21431 -0.04167,-0.49411 v -1.28587 h -0.583406 v -0.41077 h 0.583406 v -0.7739 l 0.488156,-0.0833 v 0.85725 z"
         style="font-style:normal;font-variant:normal;font-weight:normal;font-stretch:normal;font-size:5.95312452px;font-family:'Ubuntu Mono';-inkscape-font-specification:'Ubuntu Mono';fill:#333333;fill-opacity:1;stroke-width:4.24329805px"
         id="path4701" />
      <path
         inkscape:connector-curvature="0"
         d="m 56.792436,203.49277 v -2.35148 h -0.583407 v -0.41077 h 0.583407 v -0.25003 q 0,-0.32147 0.0893,-0.52983 0.0893,-0.21431 0.232172,-0.34528 0.148828,-0.13097 0.339328,-0.18454 0.196453,-0.0536 0.410766,-0.0536 0.214312,0 0.428625,0.0476 0.220266,0.0476 0.410765,0.11311 l -0.0893,0.42267 q -0.130969,-0.0655 -0.327422,-0.11311 -0.196453,-0.0476 -0.39886,-0.0476 -0.125015,0 -0.238125,0.0357 -0.107156,0.0298 -0.1905,0.11311 -0.08334,0.0774 -0.130968,0.21431 -0.04763,0.13097 -0.04763,0.33338 v 0.24407 h 1.113234 v 0.41077 h -1.113234 v 2.35148 h -0.488156 z"
         style="font-style:normal;font-variant:normal;font-weight:normal;font-stretch:normal;font-size:5.95312452px;font-family:'Ubuntu Mono';-inkscape-font-specification:'Ubuntu Mono';fill:#333333;fill-opacity:1;stroke-width:4.24329805px"
         id="path4703" />
      <path
         inkscape:connector-curvature="0"
         d="m 61.096545,199.67682 q -0.553641,0.42863 -0.845344,0.98822 -0.291703,0.55959 -0.291703,1.22039 0,0.33337 0.06548,0.63103 0.07144,0.29766 0.20836,0.5715 0.142875,0.27384 0.357187,0.52983 0.220266,0.25598 0.517922,0.51197 l -0.267891,0.35718 q -0.684609,-0.50601 -1.023937,-1.17276 -0.333375,-0.6727 -0.333375,-1.41684 0,-0.73819 0.339328,-1.41089 0.339328,-0.67271 1.017984,-1.16682 l 0.261938,0.35719 h -0.006 z"
         style="font-style:normal;font-variant:normal;font-weight:normal;font-stretch:normal;font-size:5.95312452px;font-family:'Ubuntu Mono';-inkscape-font-specification:'Ubuntu Mono';fill:#333333;fill-opacity:1;stroke-width:4.24329805px"
         id="path4705" />
      <path
         inkscape:connector-curvature="0"
         d="m 63.013451,199.4506 v 0.26789 q 0,0.26194 -0.02977,0.60127 -0.02977,0.33337 -0.07739,0.61317 H 62.65626 q -0.04167,-0.2798 -0.07144,-0.61317 -0.02976,-0.33933 -0.02976,-0.60722 v -0.26194 h 0.45839 z m 0.982266,0 v 0.26789 q 0,0.26194 -0.02977,0.60127 -0.02977,0.33337 -0.07144,0.61317 h -0.250032 q -0.04763,-0.2798 -0.07739,-0.61317 -0.02977,-0.33933 -0.02977,-0.60722 v -0.26194 h 0.458391 z"
         style="font-style:normal;font-variant:normal;font-weight:normal;font-stretch:normal;font-size:5.95312452px;font-family:'Ubuntu Mono';-inkscape-font-specification:'Ubuntu Mono';fill:#333333;fill-opacity:1;stroke-width:4.24329805px"
         id="path4707" />
      <path
         inkscape:connector-curvature="0"
         d="m 66.984184,199.80779 h 0.488156 v 3.68498 h -0.488156 v -1.7145 h -1.464469 v 1.7145 h -0.488156 v -3.68498 h 0.488156 v 1.55376 h 1.464469 z"
         style="font-style:normal;font-variant:normal;font-weight:normal;font-stretch:normal;font-size:5.95312452px;font-family:'Ubuntu Mono';-inkscape-font-specification:'Ubuntu Mono';fill:#333333;fill-opacity:1;stroke-width:4.24329805px"
         id="path4709" />
      <path
         inkscape:connector-curvature="0"
         d="m 69.28209,200.66504 q 0.559594,0 0.863203,0.35123 0.303609,0.34528 0.303609,1.05371 v 0.17264 h -1.976437 q 0.02976,0.42862 0.279797,0.65484 0.255984,0.22027 0.714375,0.22027 0.261937,0 0.446484,-0.0417 0.184547,-0.0417 0.279797,-0.0893 l 0.06548,0.41672 q -0.0893,0.0476 -0.321468,0.1012 -0.232172,0.0536 -0.523875,0.0536 -0.357188,0 -0.631032,-0.10716 -0.26789,-0.11311 -0.446484,-0.30361 -0.178594,-0.1905 -0.267891,-0.45244 -0.0893,-0.26789 -0.0893,-0.57745 0,-0.36909 0.113109,-0.64294 0.113109,-0.27384 0.297656,-0.45243 0.184547,-0.1786 0.416719,-0.26789 0.232172,-0.0893 0.47625,-0.0893 z m 0.66675,1.17872 q 0,-0.35124 -0.184547,-0.55364 -0.184547,-0.20836 -0.488156,-0.20836 -0.172641,0 -0.315516,0.0655 -0.136922,0.0655 -0.238125,0.17264 -0.101203,0.10716 -0.160734,0.24408 -0.05953,0.13692 -0.07739,0.2798 h 1.464469 z"
         style="font-style:normal;font-variant:normal;font-weight:normal;font-stretch:normal;font-size:5.95312452px;font-family:'Ubuntu Mono';-inkscape-font-specification:'Ubuntu Mono';fill:#333333;fill-opacity:1;stroke-width:4.24329805px"
         id="path4711" />
      <path
         inkscape:connector-curvature="0"
         d="m 72.728949,203.55826 q -0.261937,0 -0.434578,-0.0714 -0.172641,-0.0714 -0.273844,-0.21431 -0.101203,-0.14288 -0.142875,-0.35124 -0.04167,-0.21431 -0.04167,-0.49411 v -2.61342 h -0.797718 v -0.41672 h 1.285875 v 3.03014 q 0,0.20836 0.02381,0.33933 0.02977,0.13097 0.08334,0.21431 0.05953,0.0774 0.142875,0.10716 0.08334,0.0298 0.196453,0.0298 0.172641,0 0.321469,-0.0417 0.148828,-0.0417 0.232172,-0.0893 l 0.07144,0.41672 q -0.03572,0.0179 -0.101203,0.0476 -0.06548,0.0238 -0.154781,0.0476 -0.0893,0.0238 -0.196453,0.0417 -0.101203,0.0179 -0.214313,0.0179 z"
         style="font-style:normal;font-variant:normal;font-weight:normal;font-stretch:normal;font-size:5.95312452px;font-family:'Ubuntu Mono';-inkscape-font-specification:'Ubuntu Mono';fill:#333333;fill-opacity:1;stroke-width:4.24329805px"
         id="path4713" />
      <path
         inkscape:connector-curvature="0"
         d="m 75.705512,203.55826 q -0.261938,0 -0.434578,-0.0714 -0.172641,-0.0714 -0.273844,-0.21431 -0.101203,-0.14288 -0.142875,-0.35124 -0.04167,-0.21431 -0.04167,-0.49411 v -2.61342 h -0.797719 v -0.41672 h 1.285875 v 3.03014 q 0,0.20836 0.02381,0.33933 0.02976,0.13097 0.08334,0.21431 0.05953,0.0774 0.142875,0.10716 0.08334,0.0298 0.196454,0.0298 0.17264,0 0.321468,-0.0417 0.148828,-0.0417 0.232172,-0.0893 l 0.07144,0.41672 q -0.03572,0.0179 -0.101204,0.0476 -0.06548,0.0238 -0.154781,0.0476 -0.0893,0.0238 -0.196453,0.0417 -0.101203,0.0179 -0.214312,0.0179 z"
         style="font-style:normal;font-variant:normal;font-weight:normal;font-stretch:normal;font-size:5.95312452px;font-family:'Ubuntu Mono';-inkscape-font-specification:'Ubuntu Mono';fill:#333333;fill-opacity:1;stroke-width:4.24329805px"
         id="path4715" />
      <path
         inkscape:connector-curvature="0"
         d="m 79.408355,202.11165 q 0,0.32742 -0.09525,0.59531 -0.0893,0.26194 -0.255984,0.45244 -0.166687,0.1905 -0.398859,0.29765 -0.232172,0.10121 -0.506016,0.10121 -0.267891,0 -0.500062,-0.10121 -0.226219,-0.10715 -0.392907,-0.29765 -0.166687,-0.1905 -0.261937,-0.45244 -0.0893,-0.26789 -0.0893,-0.59531 0,-0.32742 0.0893,-0.59531 0.09525,-0.2679 0.261937,-0.45244 0.166688,-0.1905 0.392907,-0.2917 0.232171,-0.10716 0.500062,-0.10716 0.273844,0 0.506016,0.10716 0.232172,0.1012 0.398859,0.2917 0.166687,0.18454 0.255984,0.45244 0.09525,0.26789 0.09525,0.59531 z m -0.506015,0 q 0,-0.4703 -0.202406,-0.73819 -0.202407,-0.27384 -0.547688,-0.27384 -0.339328,0 -0.541734,0.27384 -0.196453,0.26789 -0.196453,0.73819 0,0.46434 0.196453,0.73819 0.202406,0.26789 0.541734,0.26789 0.345281,0 0.547688,-0.26789 0.202406,-0.27385 0.202406,-0.73819 z"
         style="font-style:normal;font-variant:normal;font-weight:normal;font-stretch:normal;font-size:5.95312452px;font-family:'Ubuntu Mono';-inkscape-font-specification:'Ubuntu Mono';fill:#333333;fill-opacity:1;stroke-width:4.24329805px"
         id="path4717" />
      <path
         inkscape:connector-curvature="0"
         d="m 80.533496,203.96307 q 0.107156,-0.0238 0.208359,-0.0476 0.107157,-0.0238 0.196454,-0.0714 0.0893,-0.0417 0.160734,-0.11311 0.07144,-0.0655 0.113109,-0.18455 -0.1905,-0.0179 -0.279797,-0.14287 -0.08334,-0.13097 -0.08334,-0.25599 0,-0.23812 0.130968,-0.35719 0.136922,-0.12501 0.309563,-0.12501 0.220266,0 0.333375,0.16073 0.113109,0.15478 0.113109,0.381 0,0.17264 -0.07144,0.35719 -0.06549,0.1905 -0.20836,0.35123 -0.136921,0.16669 -0.345281,0.2798 -0.208359,0.11906 -0.494109,0.15478 l -0.08334,-0.38695 z"
         style="font-style:normal;font-variant:normal;font-weight:normal;font-stretch:normal;font-size:5.95312452px;font-family:'Ubuntu Mono';-inkscape-font-specification:'Ubuntu Mono';fill:#333333;fill-opacity:1;stroke-width:4.24329805px"
         id="path4719" />
      <path
         inkscape:connector-curvature="0"
         d="m 86.510434,203.49277 h -0.458391 q -0.05358,-0.36314 -0.09525,-0.79772 -0.03572,-0.44053 -0.07144,-0.91678 -0.02977,-0.47625 -0.05358,-0.97631 -0.02381,-0.50006 -0.04167,-0.99417 h 0.47625 l 0.06548,3.07776 0.535781,-1.67878 h 0.428625 l 0.547688,1.67878 0.06548,-3.07776 h 0.47625 q -0.01786,0.50006 -0.04762,1.00012 -0.02381,0.50007 -0.05953,0.97632 -0.03572,0.47029 -0.07739,0.90487 -0.04167,0.43458 -0.0893,0.80367 H 87.65938 l -0.577453,-1.83356 -0.5715,1.83356 z"
         style="font-style:normal;font-variant:normal;font-weight:normal;font-stretch:normal;font-size:5.95312452px;font-family:'Ubuntu Mono';-inkscape-font-specification:'Ubuntu Mono';fill:#333333;fill-opacity:1;stroke-width:4.24329805px"
         id="path4721" />
      <path
         inkscape:connector-curvature="0"
         d="m 91.314605,202.11165 q 0,0.32742 -0.09525,0.59531 -0.0893,0.26194 -0.255984,0.45244 -0.166687,0.1905 -0.398859,0.29765 -0.232172,0.10121 -0.506016,0.10121 -0.267891,0 -0.500062,-0.10121 -0.226219,-0.10715 -0.392907,-0.29765 -0.166687,-0.1905 -0.261937,-0.45244 -0.0893,-0.26789 -0.0893,-0.59531 0,-0.32742 0.0893,-0.59531 0.09525,-0.2679 0.261937,-0.45244 0.166688,-0.1905 0.392907,-0.2917 0.232171,-0.10716 0.500062,-0.10716 0.273844,0 0.506016,0.10716 0.232172,0.1012 0.398859,0.2917 0.166687,0.18454 0.255984,0.45244 0.09525,0.26789 0.09525,0.59531 z m -0.506015,0 q 0,-0.4703 -0.202406,-0.73819 -0.202407,-0.27384 -0.547688,-0.27384 -0.339328,0 -0.541734,0.27384 -0.196453,0.26789 -0.196453,0.73819 0,0.46434 0.196453,0.73819 0.202406,0.26789 0.541734,0.26789 0.345281,0 0.547688,-0.26789 0.202406,-0.27385 0.202406,-0.73819 z"
         style="font-style:normal;font-variant:normal;font-weight:normal;font-stretch:normal;font-size:5.95312452px;font-family:'Ubuntu Mono';-inkscape-font-specification:'Ubuntu Mono';fill:#333333;fill-opacity:1;stroke-width:4.24329805px"
         id="path4723" />
      <path
         inkscape:connector-curvature="0"
         d="m 92.189715,203.49277 v -2.61342 q 0.607219,-0.20836 1.226344,-0.20836 0.1905,0 0.36314,0.0179 0.172641,0.0119 0.381,0.0595 l -0.0893,0.43458 q -0.1905,-0.0536 -0.339328,-0.0655 -0.142875,-0.0179 -0.315515,-0.0179 -0.363141,0 -0.738188,0.1012 v 2.29195 h -0.488156 z"
         style="font-style:normal;font-variant:normal;font-weight:normal;font-stretch:normal;font-size:5.95312452px;font-family:'Ubuntu Mono';-inkscape-font-specification:'Ubuntu Mono';fill:#333333;fill-opacity:1;stroke-width:4.24329805px"
         id="path4725" />
      <path
         inkscape:connector-curvature="0"
         d="m 96.541449,203.55826 q -0.261937,0 -0.434578,-0.0714 -0.172641,-0.0714 -0.273844,-0.21431 -0.101203,-0.14288 -0.142875,-0.35124 -0.04167,-0.21431 -0.04167,-0.49411 v -2.61342 h -0.797718 v -0.41672 h 1.285875 v 3.03014 q 0,0.20836 0.02381,0.33933 0.02977,0.13097 0.08334,0.21431 0.05953,0.0774 0.142875,0.10716 0.08334,0.0298 0.196453,0.0298 0.172641,0 0.321469,-0.0417 0.148828,-0.0417 0.232172,-0.0893 l 0.07144,0.41672 q -0.03572,0.0179 -0.101203,0.0476 -0.06548,0.0238 -0.154781,0.0476 -0.0893,0.0238 -0.196453,0.0417 -0.101203,0.0179 -0.214313,0.0179 z"
         style="font-style:normal;font-variant:normal;font-weight:normal;font-stretch:normal;font-size:5.95312452px;font-family:'Ubuntu Mono';-inkscape-font-specification:'Ubuntu Mono';fill:#333333;fill-opacity:1;stroke-width:4.24329805px"
         id="path4727" />
      <path
         inkscape:connector-curvature="0"
         d="m 99.565633,201.31393 q -0.08334,-0.0774 -0.244078,-0.14288 -0.160735,-0.0714 -0.333375,-0.0714 -0.196453,0 -0.339328,0.0774 -0.136922,0.0774 -0.226219,0.21431 -0.0893,0.13097 -0.130969,0.32147 -0.04167,0.18455 -0.04167,0.39886 0,0.4822 0.226219,0.74414 0.226219,0.26194 0.589359,0.26194 0.184547,0 0.309563,-0.0179 0.130969,-0.0179 0.1905,-0.0357 v -1.75022 z m 0,-1.86333 0.494107,-0.0833 v 4.04812 q -0.160732,0.0476 -0.410763,0.0952 -0.250032,0.0476 -0.583407,0.0476 -0.297656,0 -0.541734,-0.10121 -0.244078,-0.1012 -0.416719,-0.28575 -0.17264,-0.1905 -0.26789,-0.45839 -0.09525,-0.26789 -0.09525,-0.60126 0,-0.32147 0.07739,-0.58341 0.08334,-0.26789 0.238125,-0.45839 0.154782,-0.1905 0.369094,-0.29765 0.220266,-0.10716 0.500063,-0.10716 0.220265,0 0.386953,0.0536 0.166687,0.0536 0.250031,0.11311 v -1.38113 z"
         style="font-style:normal;font-variant:normal;font-weight:normal;font-stretch:normal;font-size:5.95312452px;font-family:'Ubuntu Mono';-inkscape-font-specification:'Ubuntu Mono';fill:#333333;fill-opacity:1;stroke-width:4.24329805px"
         id="path4729" />
      <path
         inkscape:connector-curvature="0"
         d="m 102.22668,200.80791 q 0,0.22027 -0.006,0.40482 -0.006,0.18454 -0.0238,0.35123 -0.0119,0.16669 -0.0298,0.33338 -0.0179,0.16073 -0.0357,0.33932 h -0.33933 q -0.0179,-0.17859 -0.0357,-0.33932 -0.0179,-0.16669 -0.0357,-0.33338 -0.0119,-0.16669 -0.0179,-0.35123 -0.006,-0.18455 -0.006,-0.40482 v -1.00012 h 0.52983 v 1.00012 z m -0.26789,2.7563 q -0.16074,0 -0.2798,-0.10716 -0.11906,-0.11311 -0.11906,-0.29765 0,-0.18455 0.11906,-0.29171 0.11906,-0.1131 0.2798,-0.1131 0.16669,0 0.2798,0.1131 0.11906,0.10716 0.11906,0.29171 0,0.18454 -0.11906,0.29765 -0.11311,0.10716 -0.2798,0.10716 z"
         style="font-style:normal;font-variant:normal;font-weight:normal;font-stretch:normal;font-size:5.95312452px;font-family:'Ubuntu Mono';-inkscape-font-specification:'Ubuntu Mono';fill:#333333;fill-opacity:1;stroke-width:4.24329805px"
         id="path4731" />
      <path
         inkscape:connector-curvature="0"
         d="m 104.68532,199.4506 v 0.26789 q 0,0.26194 -0.0298,0.60127 -0.0298,0.33337 -0.0774,0.61317 h -0.25003 q -0.0417,-0.2798 -0.0714,-0.61317 -0.0298,-0.33933 -0.0298,-0.60722 v -0.26194 h 0.45839 z m 0.98227,0 v 0.26789 q 0,0.26194 -0.0298,0.60127 -0.0298,0.33337 -0.0714,0.61317 h -0.25003 q -0.0476,-0.2798 -0.0774,-0.61317 -0.0298,-0.33933 -0.0298,-0.60722 v -0.26194 h 0.45839 z"
         style="font-style:normal;font-variant:normal;font-weight:normal;font-stretch:normal;font-size:5.95312452px;font-family:'Ubuntu Mono';-inkscape-font-specification:'Ubuntu Mono';fill:#333333;fill-opacity:1;stroke-width:4.24329805px"
         id="path4733" />
      <path
         inkscape:connector-curvature="0"
         d="m 107.12015,204.12976 q 0.55364,-0.42863 0.84534,-0.98822 0.29766,-0.5596 0.29766,-1.22039 0,-0.33338 -0.0714,-0.63103 -0.0655,-0.29766 -0.20836,-0.5715 -0.14287,-0.27385 -0.36314,-0.52983 -0.21431,-0.25599 -0.51197,-0.51197 l 0.26789,-0.35719 q 0.68461,0.50602 1.01799,1.17872 0.33933,0.66675 0.33933,1.41089 0,0.3691 -0.0893,0.72628 -0.0833,0.35719 -0.25599,0.69057 -0.16668,0.32742 -0.42267,0.61912 -0.25003,0.29766 -0.58936,0.54173 l -0.26193,-0.35718 h 0.006 z"
         style="font-style:normal;font-variant:normal;font-weight:normal;font-stretch:normal;font-size:5.95312452px;font-family:'Ubuntu Mono';-inkscape-font-specification:'Ubuntu Mono';fill:#333333;fill-opacity:1;stroke-width:4.24329805px"
         id="path4735" />
      <path
         inkscape:connector-curvature="0"
         d="m 110.15624,203.96307 q 0.10716,-0.0238 0.20836,-0.0476 0.10716,-0.0238 0.19645,-0.0714 0.0893,-0.0417 0.16074,-0.11311 0.0714,-0.0655 0.11311,-0.18455 -0.1905,-0.0179 -0.2798,-0.14287 -0.0833,-0.13097 -0.0833,-0.25599 0,-0.23812 0.13097,-0.35719 0.13692,-0.12501 0.30956,-0.12501 0.22026,0 0.33337,0.16073 0.11311,0.15478 0.11311,0.381 0,0.17264 -0.0714,0.35719 -0.0655,0.1905 -0.20836,0.35123 -0.13693,0.16669 -0.34528,0.2798 -0.20836,0.11906 -0.49411,0.15478 l -0.0834,-0.38695 z m 1.18467,-2.77416 q 0,0.1786 -0.11906,0.31552 -0.11906,0.13692 -0.31551,0.13692 -0.20241,0 -0.32147,-0.13692 -0.11907,-0.13692 -0.11907,-0.31552 0,-0.18454 0.11907,-0.32146 0.11906,-0.13693 0.32147,-0.13693 0.19645,0 0.31551,0.13693 0.11906,0.13692 0.11906,0.32146 z"
         style="font-style:normal;font-variant:normal;font-weight:normal;font-stretch:normal;font-size:5.95312452px;font-family:'Ubuntu Mono';-inkscape-font-specification:'Ubuntu Mono';fill:#333333;fill-opacity:1;stroke-width:4.24329805px"
         id="path4737" />
      <path
         inkscape:connector-curvature="0"
         d="m 41.588155,210.93418 v -2.61342 q 0.607219,-0.20836 1.226344,-0.20836 0.1905,0 0.36314,0.0179 0.172641,0.0119 0.381,0.0595 l -0.0893,0.43458 q -0.1905,-0.0536 -0.339329,-0.0655 -0.142874,-0.0179 -0.315515,-0.0179 -0.363141,0 -0.738188,0.10121 v 2.29195 h -0.488156 z"
         style="font-style:normal;font-variant:normal;font-weight:normal;font-stretch:normal;font-size:5.95312452px;font-family:'Ubuntu Mono';-inkscape-font-specification:'Ubuntu Mono';fill:#333333;fill-opacity:1;stroke-width:4.24329805px"
         id="path4739" />
      <path
         inkscape:connector-curvature="0"
         d="m 45.469593,208.10645 q 0.559593,0 0.863203,0.35123 0.303609,0.34528 0.303609,1.0537 v 0.17264 h -1.976437 q 0.02976,0.42863 0.279797,0.65485 0.255984,0.22026 0.714375,0.22026 0.261937,0 0.446484,-0.0417 0.184547,-0.0417 0.279797,-0.0893 l 0.06548,0.41672 q -0.0893,0.0476 -0.321469,0.10121 -0.232171,0.0536 -0.523875,0.0536 -0.357187,0 -0.631031,-0.10715 -0.26789,-0.11311 -0.446484,-0.30361 -0.178594,-0.1905 -0.267891,-0.45244 -0.0893,-0.26789 -0.0893,-0.57745 0,-0.3691 0.11311,-0.64294 0.113109,-0.27384 0.297656,-0.45244 0.184547,-0.17859 0.416719,-0.26789 0.232172,-0.0893 0.47625,-0.0893 z m 0.66675,1.17871 q 0,-0.35123 -0.184547,-0.55364 -0.184547,-0.20836 -0.488156,-0.20836 -0.172641,0 -0.315516,0.0655 -0.136922,0.0655 -0.238125,0.17264 -0.101203,0.10715 -0.160734,0.24408 -0.05953,0.13692 -0.07739,0.27979 h 1.464469 z"
         style="font-style:normal;font-variant:normal;font-weight:normal;font-stretch:normal;font-size:5.95312452px;font-family:'Ubuntu Mono';-inkscape-font-specification:'Ubuntu Mono';fill:#333333;fill-opacity:1;stroke-width:4.24329805px"
         id="path4741" />
      <path
         inkscape:connector-curvature="0"
         d="m 48.350905,208.17193 h 1.166813 v 0.41077 h -1.166813 v 1.28587 q 0,0.20836 0.02977,0.33933 0.02976,0.13097 0.09525,0.21431 0.07144,0.0774 0.178594,0.10716 0.107156,0.0298 0.261937,0.0298 0.214312,0 0.345281,-0.0357 0.130969,-0.0357 0.250031,-0.0953 l 0.07144,0.41672 q -0.08334,0.0357 -0.267891,0.0953 -0.178593,0.0595 -0.446484,0.0595 -0.309562,0 -0.506016,-0.0714 -0.196453,-0.0714 -0.309562,-0.21432 -0.107156,-0.14287 -0.148828,-0.35123 -0.04167,-0.21431 -0.04167,-0.49411 v -1.28587 h -0.583406 v -0.41077 h 0.583406 v -0.77391 l 0.488156,-0.0833 v 0.85725 z"
         style="font-style:normal;font-variant:normal;font-weight:normal;font-stretch:normal;font-size:5.95312452px;font-family:'Ubuntu Mono';-inkscape-font-specification:'Ubuntu Mono';fill:#333333;fill-opacity:1;stroke-width:4.24329805px"
         id="path4743" />
      <path
         inkscape:connector-curvature="0"
         d="m 52.434748,210.85679 q -0.160734,0.0417 -0.428625,0.0893 -0.261938,0.0476 -0.619125,0.0476 -0.315516,0 -0.523875,-0.0893 -0.208359,-0.0953 -0.339328,-0.26193 -0.130969,-0.17264 -0.184547,-0.40482 -0.05358,-0.23217 -0.05358,-0.51197 v -1.55376 h 0.488156 v 1.44661 q 0,0.51197 0.148828,0.72628 0.154781,0.21431 0.511969,0.21431 0.07739,0 0.154781,-0.006 0.08334,-0.006 0.154781,-0.0119 0.07144,-0.0119 0.125016,-0.0179 0.05358,-0.0119 0.07144,-0.0179 v -2.33362 h 0.494109 v 2.68486 z"
         style="font-style:normal;font-variant:normal;font-weight:normal;font-stretch:normal;font-size:5.95312452px;font-family:'Ubuntu Mono';-inkscape-font-specification:'Ubuntu Mono';fill:#333333;fill-opacity:1;stroke-width:4.24329805px"
         id="path4745" />
      <path
         inkscape:connector-curvature="0"
         d="m 53.494404,210.93418 v -2.61342 q 0.607219,-0.20836 1.226344,-0.20836 0.1905,0 0.363141,0.0179 0.17264,0.0119 0.381,0.0595 l -0.0893,0.43458 q -0.1905,-0.0536 -0.339328,-0.0655 -0.142875,-0.0179 -0.315516,-0.0179 -0.363141,0 -0.738187,0.10121 v 2.29195 h -0.488157 z"
         style="font-style:normal;font-variant:normal;font-weight:normal;font-stretch:normal;font-size:5.95312452px;font-family:'Ubuntu Mono';-inkscape-font-specification:'Ubuntu Mono';fill:#333333;fill-opacity:1;stroke-width:4.24329805px"
         id="path4747" />
      <path
         inkscape:connector-curvature="0"
         d="m 56.256654,208.24932 q 0.267891,-0.0655 0.529828,-0.1012 0.267891,-0.0357 0.500063,-0.0357 0.55364,0 0.833437,0.28575 0.28575,0.28575 0.28575,0.91678 v 1.61925 h -0.488156 v -1.52995 q 0,-0.26789 -0.04762,-0.43458 -0.04763,-0.16669 -0.136922,-0.25599 -0.08334,-0.0952 -0.208359,-0.13096 -0.119063,-0.0357 -0.261938,-0.0357 -0.119062,0 -0.255984,0.0179 -0.130969,0.0119 -0.255984,0.0357 v 2.33363 h -0.49411 v -2.68486 z"
         style="font-style:normal;font-variant:normal;font-weight:normal;font-stretch:normal;font-size:5.95312452px;font-family:'Ubuntu Mono';-inkscape-font-specification:'Ubuntu Mono';fill:#333333;fill-opacity:1;stroke-width:4.24329805px"
         id="path4749" />
      <path
         inkscape:connector-curvature="0"
         d="m 63.62067,209.02323 q 0,0.15478 -0.09525,0.26789 -0.0893,0.11311 -0.238125,0.11311 -0.154781,0 -0.250031,-0.11311 -0.09525,-0.11311 -0.09525,-0.26789 0,-0.15479 0.09525,-0.27385 0.09525,-0.11906 0.250031,-0.11906 0.148828,0 0.238125,0.11906 0.09525,0.11906 0.09525,0.27385 z m -1.559719,0.0655 q 0,-0.92869 0.315516,-1.4228 0.321469,-0.50006 0.898922,-0.50006 0.583406,0 0.898921,0.50006 0.315516,0.49411 0.315516,1.4228 0,0.92869 -0.315516,1.42875 -0.315515,0.49411 -0.898921,0.49411 -0.577453,0 -0.898922,-0.49411 -0.315516,-0.50006 -0.315516,-1.42875 z m 1.928813,0 q 0,-0.30361 -0.03572,-0.5715 -0.03572,-0.27384 -0.119063,-0.47625 -0.08334,-0.20241 -0.220265,-0.32147 -0.136922,-0.11906 -0.339328,-0.11906 -0.202407,0 -0.339328,0.11906 -0.136922,0.11906 -0.220266,0.32147 -0.08334,0.20241 -0.119063,0.47625 -0.03572,0.26789 -0.03572,0.5715 0,0.30361 0.03572,0.57745 0.03572,0.26789 0.119063,0.4703 0.08334,0.20241 0.220266,0.32147 0.136921,0.11906 0.339328,0.11906 0.202406,0 0.339328,-0.11906 0.136922,-0.11906 0.220265,-0.32147 0.08334,-0.20241 0.119063,-0.4703 0.03572,-0.27384 0.03572,-0.57745 z"
         style="font-style:normal;font-variant:normal;font-weight:normal;font-stretch:normal;font-size:5.95312452px;font-family:'Ubuntu Mono';-inkscape-font-specification:'Ubuntu Mono';fill:#333333;fill-opacity:1;stroke-width:4.24329805px"
         id="path4751" />
      <path
         inkscape:connector-curvature="0"
         d="m 65.507809,211.40448 q 0.107156,-0.0238 0.208359,-0.0476 0.107156,-0.0238 0.196453,-0.0714 0.0893,-0.0417 0.160734,-0.11311 0.07144,-0.0655 0.11311,-0.18454 -0.1905,-0.0179 -0.279797,-0.14288 -0.08334,-0.13097 -0.08334,-0.25598 0,-0.23813 0.130969,-0.35719 0.136922,-0.12502 0.309562,-0.12502 0.220266,0 0.333375,0.16074 0.11311,0.15478 0.11311,0.381 0,0.17264 -0.07144,0.35719 -0.06548,0.1905 -0.208359,0.35123 -0.136922,0.16669 -0.345281,0.2798 -0.20836,0.11906 -0.49411,0.15478 l -0.08334,-0.38695 z m 1.184671,-2.77416 q 0,0.17859 -0.119062,0.31552 -0.119063,0.13692 -0.315516,0.13692 -0.202406,0 -0.321468,-0.13692 -0.119063,-0.13693 -0.119063,-0.31552 0,-0.18455 0.119063,-0.32147 0.119062,-0.13692 0.321468,-0.13692 0.196453,0 0.315516,0.13692 0.119062,0.13692 0.119062,0.32147 z"
         style="font-style:normal;font-variant:normal;font-weight:normal;font-stretch:normal;font-size:5.95312452px;font-family:'Ubuntu Mono';-inkscape-font-specification:'Ubuntu Mono';fill:#333333;fill-opacity:1;stroke-width:4.24329805px"
         id="path4753" />
      <path
         inkscape:connector-curvature="0"
         d="m 34.52775,216.9766 h -0.238125 q -0.101203,0 -0.178594,0.0476 -0.07144,0.0417 -0.125016,0.11906 -0.04763,0.0714 -0.07739,0.16669 -0.02381,0.0893 -0.02381,0.18454 v 0.95846 q 0,0.22026 -0.04762,0.38695 -0.04167,0.16669 -0.154781,0.2798 -0.107156,0.11906 -0.291703,0.17859 -0.178594,0.0595 -0.452437,0.0595 H 32.45607 v -0.38695 h 0.506016 q 0.250031,0 0.351234,-0.11311 0.107157,-0.11311 0.107157,-0.41077 v -0.82153 q 0,-0.39886 0.119062,-0.5834 0.119063,-0.1905 0.273844,-0.25599 -0.154781,-0.0714 -0.273844,-0.26789 -0.119062,-0.19645 -0.119062,-0.5715 v -0.82153 q 0,-0.29766 -0.107157,-0.41077 -0.107156,-0.11311 -0.357187,-0.11311 H 32.45607 v -0.38695 h 0.482204 q 0.273843,0 0.452437,0.0595 0.184547,0.0595 0.291703,0.1786 0.113109,0.11311 0.154781,0.27979 0.04762,0.16669 0.04762,0.38696 v 0.95845 q 0,0.0893 0.02381,0.18455 0.02381,0.0893 0.07144,0.16668 0.05358,0.0714 0.125016,0.11907 0.07739,0.0476 0.178594,0.0476 h 0.244078 v 0.381 z"
         style="font-style:normal;font-variant:normal;font-weight:normal;font-stretch:normal;font-size:5.95312452px;font-family:'Ubuntu Mono';-inkscape-font-specification:'Ubuntu Mono';fill:#333333;fill-opacity:1;stroke-width:4.24329805px"
         id="path4755" />
    </g>
    <g
       aria-label="."
       style="font-style:normal;font-weight:normal;font-size:24.97454643px;line-height:1.25;font-family:sans-serif;letter-spacing:0px;word-spacing:0px;fill:#da1636;fill-opacity:1;stroke:none;stroke-width:0.26458332"
       id="text973"
       transform="translate(-52.115896)">
      <path
         d="m 63.905643,287.6767 q 0.573147,0 0.963374,0.40242 0.390227,0.39023 0.390227,0.95118 0,0.56095 -0.402422,0.96337 -0.390227,0.39023 -0.951179,0.39023 -0.560952,0 -0.963373,-0.39023 -0.390228,-0.40242 -0.390228,-0.96337 0,-0.57315 0.390228,-0.96338 0.402421,-0.39022 0.963373,-0.39022 z"
         style="font-style:normal;font-variant:normal;font-weight:normal;font-stretch:normal;font-family:'Times New Roman';-inkscape-font-specification:'Times New Roman, ';fill:#da1636;fill-opacity:1;stroke-width:0.26458332"
         id="path978"
         inkscape:connector-curvature="0" />
    </g>
    <g
       style="stroke-width:4.08449793"
       inkscape:transform-center-y="-9.4924686"
       inkscape:transform-center-x="5.4653607"
       inkscape:label="Capa 1"
       id="layer1-4-9-9"
       transform="matrix(0.53602412,0,0,0.5372689,-277.73255,-16.911568)">
      <g
         style="stroke-width:4.08449793"
         id="layer1-3-65-0-0"
         inkscape:label="Capa 1"
         transform="translate(0.41988239,0.03484499)" />
    </g>
    <g
       style="stroke-width:4.08449793"
       inkscape:transform-center-y="-9.4924686"
       inkscape:transform-center-x="5.4653607"
       inkscape:label="Capa 1"
       id="layer1-4-5"
       transform="matrix(0.53602412,0,0,0.5372689,-277.73255,-16.886568)">
      <g
         style="stroke-width:4.08449793"
         id="layer1-3-65-22"
         inkscape:label="Capa 1"
         transform="translate(0.41988239,0.03484499)" />
    </g>
    <g
       style="stroke-width:4.08449793"
       inkscape:transform-center-y="-9.4924686"
       inkscape:transform-center-x="5.4653607"
       inkscape:label="Capa 1"
       id="layer1-4-9-3"
       transform="matrix(0.53602412,0,0,0.5372689,-305.71525,-16.911568)">
      <g
         style="stroke-width:4.08449793"
         id="layer1-3-65-0-9"
         inkscape:label="Capa 1"
         transform="translate(0.41988239,0.03484499)" />
    </g>
    <g
       style="stroke-width:4.08449793"
       inkscape:transform-center-y="-9.4924686"
       inkscape:transform-center-x="5.4653607"
       inkscape:label="Capa 1"
       id="layer1-4-0"
       transform="matrix(0.53602412,0,0,0.5372689,-305.71525,-16.886568)">
      <g
         style="stroke-width:4.08449793"
         id="layer1-3-65-5"
         inkscape:label="Capa 1"
         transform="translate(0.41988239,0.03484499)" />
    </g>
    <g
       style="stroke-width:4.08449793"
       inkscape:transform-center-y="-9.4924686"
       inkscape:transform-center-x="5.4653607"
       inkscape:label="Capa 1"
       id="layer1-4-9-2-7"
       transform="matrix(0.53602412,0,0,0.5372689,-338.4693,-60.509628)">
      <g
         style="stroke-width:4.08449793"
         id="layer1-3-65-0-2-3"
         inkscape:label="Capa 1"
         transform="translate(0.41988239,0.03484499)" />
    </g>
    <g
       style="stroke-width:4.08449793"
       inkscape:transform-center-y="-9.4924686"
       inkscape:transform-center-x="5.4653607"
       inkscape:label="Capa 1"
       id="layer1-4-7-7"
       transform="matrix(0.53602412,0,0,0.5372689,-338.4693,-60.484628)">
      <g
         style="stroke-width:4.08449793"
         id="layer1-3-65-3-9"
         inkscape:label="Capa 1"
         transform="translate(0.41988239,0.03484499)" />
    </g>
    <g
       style="stroke-width:4.08449793"
       inkscape:transform-center-y="-9.4924686"
       inkscape:transform-center-x="5.4653607"
       inkscape:label="Capa 1"
       id="layer1-4-3-0"
       transform="matrix(0.53602412,0,0,0.5372689,-265.08685,-22.608538)">
      <g
         style="stroke-width:4.08449793"
         id="layer1-3-65-9-2"
         inkscape:label="Capa 1"
         transform="translate(0.41988239,0.03484499)" />
    </g>
    <g
       style="stroke-width:4.08449793"
       inkscape:transform-center-y="-9.4924686"
       inkscape:transform-center-x="5.4653607"
       inkscape:label="Capa 1"
       id="layer1-4-2-3"
       transform="matrix(0.53602412,0,0,0.5372689,-265.08685,-22.583535)">
      <g
         style="stroke-width:4.08449793"
         id="layer1-3-65-29-9"
         inkscape:label="Capa 1"
         transform="translate(0.41988239,0.03484499)" />
    </g>
    <g
       style="stroke-width:4.08449793"
       inkscape:transform-center-y="-9.4924686"
       inkscape:transform-center-x="5.4653607"
       inkscape:label="Capa 1"
       id="layer1-4-3-2-9"
       transform="matrix(0.51126596,0,0,0.51245325,-299.47326,-3.2075481)">
      <g
         style="stroke-width:4.08449793"
         id="layer1-3-65-9-9-7"
         inkscape:label="Capa 1"
         transform="translate(0.41988239,0.03484499)" />
    </g>
    <g
       style="stroke-width:4.08449793"
       inkscape:transform-center-y="-9.4924686"
       inkscape:transform-center-x="5.4653607"
       inkscape:label="Capa 1"
       id="layer1-4-1-0"
       transform="matrix(0.51126596,0,0,0.51245325,-299.47326,-3.1836986)">
      <g
         style="stroke-width:4.08449793"
         id="layer1-3-65-2-3"
         inkscape:label="Capa 1"
         transform="translate(0.41988239,0.03484499)" />
    </g>
    <g
       aria-label="h"
       style="font-style:normal;font-weight:normal;font-size:17.89870834px;line-height:1.25;font-family:sans-serif;letter-spacing:0px;word-spacing:0px;fill:#da1636;fill-opacity:1;stroke:none;stroke-width:0.23397684"
       id="text934"
       transform="matrix(1.13081,0,0,1.13081,3.5408939,-37.821331)">
      <path
         inkscape:connector-curvature="0"
         d="m 11.832146,277.74394 v 5.85554 q 0.970096,-1.06623 1.53817,-1.36338 0.568074,-0.30588 1.136149,-0.30588 0.681689,0 1.171106,0.3758 0.489418,0.3758 0.725388,1.17984 0.166052,0.55934 0.166052,2.04507 v 2.83163 q 0,0.76035 0.122355,1.04002 0.0874,0.20975 0.297146,0.3321 0.209751,0.12236 0.769085,0.12236 v 0.31462 h -3.932821 v -0.31462 h 0.183531 q 0.559335,0 0.777825,-0.16606 0.21849,-0.17479 0.305886,-0.50689 0.02622,-0.13984 0.02622,-0.82153 v -2.83163 q 0,-1.31094 -0.139834,-1.7217 -0.131094,-0.41076 -0.42824,-0.61177 -0.297147,-0.20975 -0.716648,-0.20975 -0.42824,0 -0.891439,0.22723 -0.463199,0.22723 -1.10993,0.91766 v 4.22996 q 0,0.82153 0.0874,1.02254 0.09614,0.20101 0.340844,0.34084 0.253449,0.1311 0.865221,0.1311 v 0.31462 H 9.1578271 v -0.31462 q 0.5331159,0 0.839002,-0.16606 0.1747919,-0.0874 0.2796669,-0.3321 0.104876,-0.24471 0.104876,-0.99632 v -7.24513 q 0,-1.37212 -0.06992,-1.68674 -0.06118,-0.31463 -0.201011,-0.42824 -0.1310941,-0.11362 -0.3583238,-0.11362 -0.1835317,0 -0.5942931,0.13984 l -0.1223544,-0.30589 2.3946513,-0.97884 z"
         style="font-style:normal;font-variant:normal;font-weight:normal;font-stretch:normal;font-family:'Times New Roman';-inkscape-font-specification:'Times New Roman, ';fill:#da1636;fill-opacity:1;stroke-width:0.23397684"
         id="path1259" />
    </g>
  </g>
</svg>
