<?xml version="1.0" encoding="UTF-8" standalone="no"?>
<!-- Created with Inkscape (http://www.inkscape.org/) -->

<svg
   xmlns:osb="http://www.openswatchbook.org/uri/2009/osb"
   xmlns:dc="http://purl.org/dc/elements/1.1/"
   xmlns:cc="http://creativecommons.org/ns#"
   xmlns:rdf="http://www.w3.org/1999/02/22-rdf-syntax-ns#"
   xmlns:svg="http://www.w3.org/2000/svg"
   xmlns="http://www.w3.org/2000/svg"
   xmlns:xlink="http://www.w3.org/1999/xlink"
   xmlns:sodipodi="http://sodipodi.sourceforge.net/DTD/sodipodi-0.dtd"
   xmlns:inkscape="http://www.inkscape.org/namespaces/inkscape"
   width="128"
   height="128"
   viewBox="0 0 33.866666 33.866668"
   version="1.1"
   id="svg8"
   inkscape:version="0.92.2 5c3e80d, 2017-08-06"
   sodipodi:docname="text-x-haskell.svg">
  <defs
     id="defs2">
    <linearGradient
       id="linearGradient1830">
      <stop
         id="stop1826"
         style="stop-color:#d9d9d9;stop-opacity:1"
         offset="0" />
      <stop
         id="stop1828"
         style="stop-color:#ffffff;stop-opacity:1;"
         offset="1" />
    </linearGradient>
    <linearGradient
       osb:paint="solid"
       id="linearGradient6987">
      <stop
         id="stop6985"
         offset="0"
         style="stop-color:#77d2fb;stop-opacity:1;" />
    </linearGradient>
    <linearGradient
       inkscape:collect="always"
       xlink:href="#linearGradient1830"
       id="linearGradient1503-8-3"
       x1="29.203474"
       y1="263.52237"
       x2="4.5843229"
       y2="296.16849"
       gradientUnits="userSpaceOnUse"
       gradientTransform="matrix(0.95481176,0,0,0.95480184,0.765188,12.661897)" />
  </defs>
  <sodipodi:namedview
     id="base"
     pagecolor="#ffffff"
     bordercolor="#666666"
     borderopacity="1.0"
     inkscape:pageopacity="0.0"
     inkscape:pageshadow="2"
     inkscape:zoom="1.4262773"
     inkscape:cx="60.588028"
     inkscape:cy="110.80097"
     inkscape:document-units="mm"
     inkscape:current-layer="layer1"
     showgrid="false"
     units="px"
     inkscape:window-width="1600"
     inkscape:window-height="811"
     inkscape:window-x="0"
     inkscape:window-y="0"
     inkscape:window-maximized="1"
     showguides="false"
     inkscape:snap-nodes="false" />
  <metadata
     id="metadata5">
    <rdf:RDF>
      <cc:Work
         rdf:about="">
        <dc:format>image/svg+xml</dc:format>
        <dc:type
           rdf:resource="http://purl.org/dc/dcmitype/StillImage" />
        <dc:title />
      </cc:Work>
    </rdf:RDF>
  </metadata>
  <g
     inkscape:label="Layer 1"
     inkscape:groupmode="layer"
     id="layer1"
     transform="translate(0,-263.13332)">
    <g
       style="stroke-width:4.08449793"
       inkscape:transform-center-y="-9.4924686"
       inkscape:transform-center-x="5.4653607"
       inkscape:label="Capa 1"
       id="layer1-4-3"
       transform="matrix(0.53602412,0,0,0.5372689,-234.93365,-13.785303)">
      <g
         style="stroke-width:4.08449793"
         id="layer1-3-65-9"
         inkscape:label="Capa 1"
         transform="translate(0.41988239,0.03484499)" />
    </g>
    <g
       style="stroke-width:4.08449793"
       inkscape:transform-center-y="-9.4924686"
       inkscape:transform-center-x="5.4653607"
       inkscape:label="Capa 1"
       id="layer1-4"
       transform="matrix(0.53602412,0,0,0.5372689,-234.93365,-13.7603)">
      <g
         style="stroke-width:4.08449793"
         id="layer1-3-65"
         inkscape:label="Capa 1"
         transform="translate(0.41988239,0.03484499)" />
    </g>
    <path
       style="opacity:0.25;fill:#000000;fill-opacity:1;stroke:none;stroke-width:1.7883966;stroke-miterlimit:4;stroke-dasharray:none;stroke-opacity:1"
       d="m 5.142353,264.8392 v 31.10591 h 23.581961 v -17.45475 c -0.04498,-0.7929 -0.09696,-1.50255 -0.298063,-2.22205 -0.204573,-0.73192 -0.526951,-1.42494 -0.912236,-2.08813 -0.492998,-0.84861 -1.326132,-1.39576 -2.066596,-2.09122 -0.449226,-0.40738 -1.419471,-1.3751 -2.593872,-2.5305 -1.164791,-1.14594 -2.530897,-2.47697 -3.671384,-3.51104 -0.336848,-0.30398 -0.826157,-0.61944 -1.28075,-0.80163 -0.352994,-0.14146 -0.768267,-0.22951 -1.169211,-0.28869 -0.413429,-0.061 -0.811623,-0.0914 -1.110603,-0.1179 z"
       id="path5023-4-5"
       inkscape:connector-curvature="0"
       sodipodi:nodetypes="ccccascscsscc" />
    <path
       sodipodi:nodetypes="ccccascscsscc"
       inkscape:connector-curvature="0"
       id="path4623-8-3"
       d="m 5.142353,264.33819 v 31.10591 h 23.581961 v -17.45475 c -0.04498,-0.7929 -0.09696,-1.50256 -0.298063,-2.22206 -0.204573,-0.73192 -0.526951,-1.42494 -0.912236,-2.08813 -0.492998,-0.8486 -1.326132,-1.39575 -2.066596,-2.09121 -0.449226,-0.40739 -1.419471,-1.37511 -2.593872,-2.53051 -1.164791,-1.14592 -2.530897,-2.47697 -3.671384,-3.51104 -0.336848,-0.30398 -0.826157,-0.61945 -1.28075,-0.80162 -0.352994,-0.14146 -0.768267,-0.22952 -1.169211,-0.28869 -0.413429,-0.0611 -0.811623,-0.0914 -1.110603,-0.1179 z"
       style="opacity:1;fill:url(#linearGradient1503-8-3);fill-opacity:1;stroke:#808080;stroke-width:0.30000001;stroke-miterlimit:4;stroke-dasharray:none;stroke-opacity:1" />
    <path
       sodipodi:nodetypes="ccccsccsc"
       inkscape:connector-curvature="0"
       id="path1355-8-5"
       d="m 19.620994,266.16126 c 0.01558,0.0251 0.535221,0.86284 0.694175,1.33425 0.430727,0.96558 0.246637,3.78888 0.238805,5.39748 0.02644,-0.18505 4.473865,-1.33136 6.782594,0.76747 -0.01476,-0.026 -0.04662,-0.0767 -0.119341,-0.17767 -0.06901,-0.0958 -0.174308,-0.23765 -0.354479,-0.42182 -0.503715,-0.5766 -0.22026,-0.0806 -0.768208,-0.6505 -0.473747,-0.42966 -1.496999,-1.45025 -2.735519,-2.66881 -1.183854,-1.16476 -2.562819,-2.50808 -3.738027,-3.5804 z"
       style="opacity:0.24800002;fill:#000000;fill-opacity:1;stroke:none;stroke-width:0.28614345;stroke-miterlimit:4;stroke-dasharray:none;stroke-opacity:1" />
    <path
       style="opacity:1;fill:#ffffff;fill-opacity:1;stroke:#808080;stroke-width:0.30000001;stroke-miterlimit:4;stroke-dasharray:none;stroke-opacity:1"
       d="m 19.308998,265.6626 c 0.01477,0.0238 0.507514,0.81811 0.658239,1.26509 0.40843,0.91553 0.278738,3.06938 0.271311,4.5946 0.409178,-0.0213 4.921198,-0.70296 6.989915,1.73982 -0.02793,-0.0483 -0.09803,-0.0884 -0.13713,-0.16512 -0.477638,-0.54671 -1.086946,-0.98598 -1.643914,-1.50908 -0.449221,-0.4074 -1.419501,-1.37509 -2.593906,-2.53048 -1.122567,-1.10439 -2.430145,-2.3781 -3.544515,-3.39483 z"
       id="path4753-0-6"
       inkscape:connector-curvature="0"
       sodipodi:nodetypes="ccccccsc" />
    <g
       style="stroke-width:4.08449793"
       inkscape:transform-center-y="-9.4924686"
       inkscape:transform-center-x="5.4653607"
       inkscape:label="Capa 1"
       id="layer1-4-3-2"
       transform="matrix(0.51126596,0,0,0.51245325,-269.32006,5.6156869)">
      <g
         style="stroke-width:4.08449793"
         id="layer1-3-65-9-9"
         inkscape:label="Capa 1"
         transform="translate(0.41988239,0.03484499)" />
    </g>
    <g
       style="stroke-width:4.08449793"
       inkscape:transform-center-y="-9.4924686"
       inkscape:transform-center-x="5.4653607"
       inkscape:label="Capa 1"
       id="layer1-4-1"
       transform="matrix(0.51126596,0,0,0.51245325,-269.32006,5.6395364)">
      <g
         style="stroke-width:4.08449793"
         id="layer1-3-65-2"
         inkscape:label="Capa 1"
         transform="translate(0.41988239,0.03484499)" />
    </g>
    <g
       style="stroke-width:0.37137995;enable-background:new;stroke:#5c2c8c;stroke-miterlimit:4;stroke-dasharray:none;stroke-opacity:1"
       id="g1721"
       transform="matrix(0.53853204,0,0,0.53853204,-1.0434045,267.05347)">
      <path
         style="fill:#7839b7;stroke-width:0.37137995;stroke:#5c2c8c;stroke-miterlimit:4;stroke-dasharray:none;stroke-opacity:1"
         inkscape:connector-curvature="0"
         d="m 17.197,45.29 7.761,-11.642 -7.76,-11.641 h 5.82 l 7.761,11.641 -7.76,11.642 z m 0,0"
         id="path1715" />
      <path
         style="fill:#8c59d9;stroke-width:0.37137995;stroke:#5c2c8c;stroke-miterlimit:4;stroke-dasharray:none;stroke-opacity:1"
         inkscape:connector-curvature="0"
         d="m 24.958,45.29 7.761,-11.642 -7.76,-11.641 h 5.82 L 46.301,45.29 h -5.82 L 35.63,38.014 30.78,45.29 Z m 0,0"
         id="path1717" />
      <path
         style="fill:#8f76e4;stroke-width:0.37137995;stroke:#5c2c8c;stroke-miterlimit:4;stroke-dasharray:none;stroke-opacity:1"
         inkscape:connector-curvature="0"
         d="m 40.993,34.707 2.822,4.233 h 5.75 v -4.233 z m -4.233,-6.35 2.821,4.233 h 9.984 v -4.233 z"
         id="path1719" />
    </g>
    <g
       aria-label="main = do 
   let var1 = 2 
   let var2 = 3 
   putStrLn &quot;The addition of the two numbers is:&quot; 
   print(var1 + var2)"
       transform="matrix(0.26458333,0,0,0.26458333,-0.11230906,263.13332)"
       style="font-style:normal;font-weight:normal;font-size:5.33333349px;line-height:1.25;font-family:sans-serif;letter-spacing:0px;word-spacing:0px;fill:#333333;fill-opacity:1;stroke:none"
       id="flowRoot837">
      <path
         d="M 29.609049,22.992188 V 20.44694 h 0.37142 v 0.583334 q 0.175455,-0.37142 0.325846,-0.512696 0.152669,-0.141276 0.307617,-0.141276 0.184571,0 0.296224,0.145834 0.113932,0.143554 0.113932,0.410156 v 0.136719 q 0.0752,-0.232422 0.180014,-0.375977 0.107096,-0.145833 0.221028,-0.230143 0.113932,-0.08659 0.262044,-0.08659 0.164063,0 0.280274,0.138998 0.116211,0.138997 0.116211,0.553711 v 1.923177 H 31.71224 v -1.738607 q 0,-0.214193 -0.01367,-0.291667 -0.01367,-0.07975 -0.05469,-0.120768 -0.04101,-0.04102 -0.08887,-0.04102 -0.11849,0 -0.255208,0.182292 -0.13444,0.180013 -0.275717,0.599284 v 1.410482 H 30.66862 V 21.25586 q 0,-0.33724 -0.06608,-0.396485 -0.06608,-0.05925 -0.11849,-0.05925 -0.11621,0 -0.250651,0.2028 -0.132161,0.202799 -0.252929,0.519531 v 1.469727 z"
         style="font-style:normal;font-variant:normal;font-weight:normal;font-stretch:normal;font-size:4.66666651px;font-family:Monaco;-inkscape-font-specification:Monaco;fill:#333333"
         id="path1048" />
      <path
         d="m 34.271159,22.420248 q -0.193685,0.31901 -0.467123,0.480794 -0.271159,0.161784 -0.499023,0.161784 -0.319011,0 -0.574219,-0.275716 -0.25293,-0.275717 -0.25293,-0.836263 0,-0.442058 0.16862,-0.788412 0.16862,-0.348633 0.451172,-0.549154 0.282552,-0.202799 0.699544,-0.202799 0.120769,0 0.364584,0.02507 0.03646,0.0046 0.109375,0.01139 h 0.426106 v 1.797852 q 0,0.460286 0.0957,0.747396 h -0.442058 q -0.05013,-0.209636 -0.07975,-0.57194 z m 0,-0.503581 v -1.091471 q -0.225586,-0.05924 -0.419271,-0.05924 -0.391927,0 -0.653971,0.30306 -0.259766,0.30306 -0.259766,0.824869 0,0.378256 0.141276,0.57194 0.143555,0.191407 0.325846,0.191407 0.198242,0 0.4375,-0.200521 0.239258,-0.200521 0.428386,-0.540039 z"
         style="font-style:normal;font-variant:normal;font-weight:normal;font-stretch:normal;font-size:4.66666651px;font-family:Monaco;-inkscape-font-specification:Monaco;fill:#333333"
         id="path1050" />
      <path
         d="M 36.110026,22.992188 V 20.80013 h -0.70638 v -0.35319 h 1.130208 v 2.192058 h 0.708659 v 0.35319 z m -0.07064,-3.463542 q 0,-0.143555 0.09798,-0.214193 0.09798,-0.07064 0.18457,-0.07064 0.08887,0 0.186849,0.07064 0.09798,0.07064 0.09798,0.214193 0,0.141276 -0.09798,0.211914 -0.09798,0.07064 -0.186849,0.07064 -0.08659,0 -0.18457,-0.07064 -0.09798,-0.07064 -0.09798,-0.211914 z"
         style="font-style:normal;font-variant:normal;font-weight:normal;font-stretch:normal;font-size:4.66666651px;font-family:Monaco;-inkscape-font-specification:Monaco;fill:#333333"
         id="path1052" />
      <path
         d="M 38.194987,22.992188 V 20.44694 h 0.423828 v 0.55599 q 0.182292,-0.293945 0.439779,-0.460287 0.257487,-0.166341 0.514974,-0.166341 0.225586,0 0.410156,0.120769 0.18457,0.118489 0.257487,0.312174 0.0752,0.193685 0.0752,0.761068 v 1.421875 h -0.423828 v -1.474284 q 0,-0.366862 -0.03646,-0.483073 -0.03418,-0.11849 -0.129883,-0.193685 -0.09342,-0.07519 -0.205078,-0.07519 -0.223307,0 -0.480794,0.211914 -0.255209,0.211914 -0.42155,0.530924 v 1.483399 z"
         style="font-style:normal;font-variant:normal;font-weight:normal;font-stretch:normal;font-size:4.66666651px;font-family:Monaco;-inkscape-font-specification:Monaco;fill:#333333"
         id="path1054" />
      <path
         d="m 46.074544,21.189779 v 0.35319 h -2.47461 v -0.35319 z m 0,0.795247 v 0.35319 h -2.47461 v -0.35319 z"
         style="font-style:normal;font-variant:normal;font-weight:normal;font-stretch:normal;font-size:4.66666651px;font-family:Monaco;-inkscape-font-specification:Monaco;fill:#333333"
         id="path1056" />
      <path
         d="m 51.087564,22.420248 q -0.193685,0.31901 -0.467123,0.480794 -0.271158,0.161784 -0.499023,0.161784 -0.31901,0 -0.574219,-0.275716 -0.252929,-0.275717 -0.252929,-0.836263 0,-0.442058 0.168619,-0.788412 0.16862,-0.348633 0.451172,-0.549154 0.282552,-0.202799 0.699544,-0.202799 0.120769,0 0.364584,0.02507 0.03646,0.0046 0.109375,0.01139 v -1.132487 h 0.426107 v 3.677735 h -0.426107 z m 0,-0.503581 v -1.091471 q -0.225586,-0.05924 -0.419271,-0.05924 -0.391927,0 -0.653971,0.30306 -0.259766,0.30306 -0.259766,0.824869 0,0.378256 0.141276,0.57194 0.143555,0.191407 0.325846,0.191407 0.198243,0 0.4375,-0.200521 0.239258,-0.200521 0.428386,-0.540039 z"
         style="font-style:normal;font-variant:normal;font-weight:normal;font-stretch:normal;font-size:4.66666651px;font-family:Monaco;-inkscape-font-specification:Monaco;fill:#333333"
         id="path1058" />
      <path
         d="m 53.234049,23.062826 q -0.546875,0 -0.875,-0.380534 -0.328125,-0.382813 -0.328125,-0.963867 0,-0.581055 0.328125,-0.961589 0.328125,-0.380534 0.875,-0.380534 0.544596,0 0.872721,0.380534 0.328125,0.380534 0.328125,0.961589 0,0.581054 -0.328125,0.963867 -0.328125,0.380534 -0.872721,0.380534 z m 0,-0.35319 q 0.339518,0 0.540039,-0.264323 0.200521,-0.264323 0.200521,-0.726888 0,-0.460287 -0.200521,-0.72461 -0.200521,-0.264323 -0.540039,-0.264323 -0.341797,0 -0.542318,0.264323 -0.200521,0.264323 -0.200521,0.72461 0,0.462565 0.200521,0.726888 0.200521,0.264323 0.542318,0.264323 z"
         style="font-style:normal;font-variant:normal;font-weight:normal;font-stretch:normal;font-size:4.66666651px;font-family:Monaco;-inkscape-font-specification:Monaco;fill:#333333"
         id="path1060" />
      <path
         d="M 38.878581,29.658856 V 26.33659 h -0.761068 v -0.355469 h 1.184896 v 3.324544 h 0.795247 v 0.353191 z"
         style="font-style:normal;font-variant:normal;font-weight:normal;font-stretch:normal;font-size:4.66666651px;font-family:Monaco;-inkscape-font-specification:Monaco;fill:#333333"
         id="path1062" />
      <path
         d="m 43.110026,29.490236 q -0.508138,0.241536 -0.961589,0.241536 -0.344075,0 -0.615234,-0.170898 -0.271159,-0.170899 -0.435222,-0.48763 -0.161783,-0.319011 -0.161783,-0.681315 0,-0.348633 0.154948,-0.669922 0.154947,-0.321289 0.432942,-0.499024 0.277995,-0.180013 0.619792,-0.180013 0.45345,0 0.726888,0.323568 0.275716,0.323568 0.275716,0.998047 v 0.09115 h -1.754557 q 0,0.264323 0.109375,0.483073 0.111653,0.21875 0.291666,0.328125 0.180013,0.109375 0.410157,0.109375 0.410156,0 0.906901,-0.273438 z m -1.693034,-1.351237 h 1.269206 v -0.06152 q 0,-0.312174 -0.15267,-0.496744 -0.152669,-0.184571 -0.407877,-0.184571 -0.257487,0 -0.446615,0.189128 -0.186849,0.186849 -0.262044,0.553711 z"
         style="font-style:normal;font-variant:normal;font-weight:normal;font-stretch:normal;font-size:4.66666651px;font-family:Monaco;-inkscape-font-specification:Monaco;fill:#333333"
         id="path1064" />
      <path
         d="m 45.919596,29.556317 q -0.298503,0.125325 -0.432943,0.148111 -0.13444,0.02507 -0.259766,0.02507 -0.266601,0 -0.48763,-0.102539 -0.221029,-0.10254 -0.334961,-0.30306 -0.111653,-0.200521 -0.111653,-0.619792 V 27.678712 H 43.6569 v -0.35319 h 0.635743 v -1.02539 h 0.423828 v 1.02539 h 1.132487 v 0.35319 h -1.132487 v 1.018555 q 0,0.307617 0.07292,0.435221 0.07292,0.125326 0.193685,0.184571 0.123047,0.05925 0.289388,0.05925 0.307617,0 0.647136,-0.193685 z"
         style="font-style:normal;font-variant:normal;font-weight:normal;font-stretch:normal;font-size:4.66666651px;font-family:Monaco;-inkscape-font-specification:Monaco;fill:#333333"
         id="path1066" />
      <path
         d="m 50.214842,29.658856 -1.105143,-2.545248 h 0.464844 l 0.872721,2.014323 0.890951,-2.014323 h 0.423828 l -1.114258,2.545248 z"
         style="font-style:normal;font-variant:normal;font-weight:normal;font-stretch:normal;font-size:4.66666651px;font-family:Monaco;-inkscape-font-specification:Monaco;fill:#333333"
         id="path1068" />
      <path
         d="m 53.858398,29.086915 q -0.193685,0.319011 -0.467123,0.480795 -0.271158,0.161784 -0.499023,0.161784 -0.31901,0 -0.574219,-0.275717 -0.252929,-0.275716 -0.252929,-0.836263 0,-0.442057 0.168619,-0.788411 0.16862,-0.348633 0.451172,-0.549154 0.282552,-0.202799 0.699544,-0.202799 0.120769,0 0.364584,0.02507 0.03646,0.0046 0.109375,0.01139 h 0.426106 v 1.797852 q 0,0.460286 0.0957,0.747396 H 53.93815 q -0.05013,-0.209636 -0.07975,-0.571941 z m 0,-0.50358 v -1.091472 q -0.225586,-0.05924 -0.419271,-0.05924 -0.391927,0 -0.653971,0.30306 -0.259766,0.303059 -0.259766,0.824869 0,0.378256 0.141276,0.57194 0.143555,0.191407 0.325846,0.191407 0.198243,0 0.4375,-0.200521 0.239258,-0.200521 0.428386,-0.540039 z"
         style="font-style:normal;font-variant:normal;font-weight:normal;font-stretch:normal;font-size:4.66666651px;font-family:Monaco;-inkscape-font-specification:Monaco;fill:#333333"
         id="path1070" />
      <path
         d="m 55.200521,29.658856 v -2.545248 h 0.423828 v 0.55599 q 0.198242,-0.314453 0.45345,-0.469401 0.257487,-0.157227 0.571941,-0.157227 0.230143,0 0.460286,0.07064 v 0.918295 h -0.407878 v -0.581055 q -0.107096,-0.01823 -0.168619,-0.01823 -0.23698,0 -0.464844,0.186849 -0.227865,0.186849 -0.444336,0.560546 v 1.478842 z"
         style="font-style:normal;font-variant:normal;font-weight:normal;font-stretch:normal;font-size:4.66666651px;font-family:Monaco;-inkscape-font-specification:Monaco;fill:#333333"
         id="path1072" />
      <path
         d="m 58.723306,29.305665 v -2.729817 q -0.191406,0.152669 -0.371419,0.259765 -0.180013,0.107097 -0.494466,0.21875 v -0.382812 q 0.499023,-0.211914 0.865885,-0.549154 h 0.423828 v 3.183268 h 0.849935 v 0.353191 h -2.139648 v -0.353191 z"
         style="font-style:normal;font-variant:normal;font-weight:normal;font-stretch:normal;font-size:4.66666651px;font-family:Monaco;-inkscape-font-specification:Monaco;fill:#333333"
         id="path1074" />
      <path
         d="m 65.661784,27.856447 v 0.35319 h -2.47461 v -0.35319 z m 0,0.795247 v 0.35319 h -2.47461 v -0.35319 z"
         style="font-style:normal;font-variant:normal;font-weight:normal;font-stretch:normal;font-size:4.66666651px;font-family:Monaco;-inkscape-font-specification:Monaco;fill:#333333"
         id="path1076" />
      <path
         d="M 71.100909,29.658856 H 68.96126 v -0.389649 q 0,-0.15039 0.06152,-0.321289 0.06152,-0.173177 0.2347,-0.38737 0.173177,-0.214192 0.366862,-0.412435 l 0.241537,-0.246093 q 0.07292,-0.0752 0.31901,-0.348633 0.246094,-0.273438 0.323568,-0.419271 0.07975,-0.145833 0.07975,-0.287109 0,-0.227865 -0.182292,-0.350912 -0.182292,-0.125325 -0.410156,-0.125325 -0.129883,0 -0.291667,0.02962 -0.159505,0.02962 -0.280273,0.07064 -0.120769,0.03874 -0.391928,0.161784 v -0.375977 q 0.28711,-0.136718 0.574219,-0.186848 0.289388,-0.05241 0.476237,-0.05241 0.275716,0 0.50586,0.09115 0.232421,0.08887 0.344075,0.277995 0.113932,0.189128 0.113932,0.403321 0,0.239257 -0.145833,0.489908 -0.143555,0.250651 -0.544596,0.644857 l -0.259766,0.257487 -0.21875,0.214193 q -0.207357,0.209635 -0.334961,0.405599 -0.127604,0.195963 -0.141276,0.467122 h 1.69987 z"
         style="font-style:normal;font-variant:normal;font-weight:normal;font-stretch:normal;font-size:4.66666651px;font-family:Monaco;-inkscape-font-specification:Monaco;fill:#333333"
         id="path1078" />
      <path
         d="m 38.878581,36.325524 v -3.322266 h -0.761068 v -0.355469 h 1.184896 v 3.324544 h 0.795247 v 0.353191 z"
         style="font-style:normal;font-variant:normal;font-weight:normal;font-stretch:normal;font-size:4.66666651px;font-family:Monaco;-inkscape-font-specification:Monaco;fill:#333333"
         id="path1080" />
      <path
         d="m 43.110026,36.156904 q -0.508138,0.241536 -0.961589,0.241536 -0.344075,0 -0.615234,-0.170898 -0.271159,-0.170899 -0.435222,-0.48763 -0.161783,-0.319011 -0.161783,-0.681316 0,-0.348632 0.154948,-0.669921 0.154947,-0.321289 0.432942,-0.499024 0.277995,-0.180013 0.619792,-0.180013 0.45345,0 0.726888,0.323568 0.275716,0.323568 0.275716,0.998047 v 0.09115 h -1.754557 q 0,0.264322 0.109375,0.483072 0.111653,0.21875 0.291666,0.328125 0.180013,0.109375 0.410157,0.109375 0.410156,0 0.906901,-0.273437 z m -1.693034,-1.351237 h 1.269206 v -0.06152 q 0,-0.312174 -0.15267,-0.496744 -0.152669,-0.184571 -0.407877,-0.184571 -0.257487,0 -0.446615,0.189128 -0.186849,0.186849 -0.262044,0.553711 z"
         style="font-style:normal;font-variant:normal;font-weight:normal;font-stretch:normal;font-size:4.66666651px;font-family:Monaco;-inkscape-font-specification:Monaco;fill:#333333"
         id="path1082" />
      <path
         d="m 45.919596,36.222984 q -0.298503,0.125326 -0.432943,0.148112 -0.13444,0.02507 -0.259766,0.02507 -0.266601,0 -0.48763,-0.10254 -0.221029,-0.102539 -0.334961,-0.303059 -0.111653,-0.200521 -0.111653,-0.619792 V 34.34538 H 43.6569 v -0.35319 h 0.635743 V 32.9668 h 0.423828 v 1.02539 h 1.132487 v 0.35319 h -1.132487 v 1.018555 q 0,0.307617 0.07292,0.435221 0.07292,0.125326 0.193685,0.184571 0.123047,0.05924 0.289388,0.05924 0.307617,0 0.647136,-0.193684 z"
         style="font-style:normal;font-variant:normal;font-weight:normal;font-stretch:normal;font-size:4.66666651px;font-family:Monaco;-inkscape-font-specification:Monaco;fill:#333333"
         id="path1084" />
      <path
         d="m 50.214842,36.325524 -1.105143,-2.545248 h 0.464844 l 0.872721,2.014323 0.890951,-2.014323 h 0.423828 l -1.114258,2.545248 z"
         style="font-style:normal;font-variant:normal;font-weight:normal;font-stretch:normal;font-size:4.66666651px;font-family:Monaco;-inkscape-font-specification:Monaco;fill:#333333"
         id="path1086" />
      <path
         d="m 53.858398,35.753583 q -0.193685,0.319011 -0.467123,0.480795 -0.271158,0.161784 -0.499023,0.161784 -0.31901,0 -0.574219,-0.275717 -0.252929,-0.275716 -0.252929,-0.836263 0,-0.442057 0.168619,-0.788411 0.16862,-0.348633 0.451172,-0.549154 0.282552,-0.202799 0.699544,-0.202799 0.120769,0 0.364584,0.02507 0.03646,0.0046 0.109375,0.01139 h 0.426106 v 1.797852 q 0,0.460286 0.0957,0.747396 H 53.93815 q -0.05013,-0.209636 -0.07975,-0.571941 z m 0,-0.50358 v -1.091472 q -0.225586,-0.05924 -0.419271,-0.05924 -0.391927,0 -0.653971,0.303059 -0.259766,0.30306 -0.259766,0.82487 0,0.378255 0.141276,0.57194 0.143555,0.191407 0.325846,0.191407 0.198243,0 0.4375,-0.200521 0.239258,-0.200521 0.428386,-0.540039 z"
         style="font-style:normal;font-variant:normal;font-weight:normal;font-stretch:normal;font-size:4.66666651px;font-family:Monaco;-inkscape-font-specification:Monaco;fill:#333333"
         id="path1088" />
      <path
         d="m 55.200521,36.325524 v -2.545248 h 0.423828 v 0.55599 q 0.198242,-0.314453 0.45345,-0.469401 0.257487,-0.157227 0.571941,-0.157227 0.230143,0 0.460286,0.07064 v 0.918294 h -0.407878 v -0.581054 q -0.107096,-0.01823 -0.168619,-0.01823 -0.23698,0 -0.464844,0.186849 -0.227865,0.186849 -0.444336,0.560546 v 1.478842 z"
         style="font-style:normal;font-variant:normal;font-weight:normal;font-stretch:normal;font-size:4.66666651px;font-family:Monaco;-inkscape-font-specification:Monaco;fill:#333333"
         id="path1090" />
      <path
         d="m 59.908202,36.325524 h -2.139649 v -0.389649 q 0,-0.150391 0.06152,-0.321289 0.06152,-0.173177 0.2347,-0.38737 0.173177,-0.214192 0.366862,-0.412435 l 0.241537,-0.246093 q 0.07292,-0.0752 0.31901,-0.348633 0.246094,-0.273438 0.323568,-0.419271 0.07975,-0.145833 0.07975,-0.287109 0,-0.227865 -0.182291,-0.350912 -0.182292,-0.125325 -0.410156,-0.125325 -0.129883,0 -0.291667,0.02962 -0.159505,0.02962 -0.280274,0.07064 -0.120768,0.03874 -0.391927,0.161784 v -0.375977 q 0.28711,-0.136718 0.574219,-0.186849 0.289388,-0.05241 0.476237,-0.05241 0.275716,0 0.505859,0.09115 0.232422,0.08887 0.344076,0.277995 0.113932,0.189128 0.113932,0.403321 0,0.239257 -0.145833,0.489908 -0.143555,0.250651 -0.544596,0.644857 l -0.259766,0.257487 -0.21875,0.214193 q -0.207357,0.209635 -0.334961,0.405599 -0.127604,0.195963 -0.141276,0.467122 h 1.69987 z"
         style="font-style:normal;font-variant:normal;font-weight:normal;font-stretch:normal;font-size:4.66666651px;font-family:Monaco;-inkscape-font-specification:Monaco;fill:#333333"
         id="path1092" />
      <path
         d="m 65.661784,34.523115 v 0.35319 h -2.47461 v -0.35319 z m 0,0.795247 v 0.35319 h -2.47461 v -0.35319 z"
         style="font-style:normal;font-variant:normal;font-weight:normal;font-stretch:normal;font-size:4.66666651px;font-family:Monaco;-inkscape-font-specification:Monaco;fill:#333333"
         id="path1094" />
      <path
         d="m 68.952146,36.261721 v -0.446614 q 0.52181,0.264323 0.904622,0.264323 0.350912,0 0.578776,-0.211914 0.230143,-0.214193 0.230143,-0.549154 0,-0.337239 -0.252929,-0.549154 -0.250651,-0.211914 -0.854492,-0.211914 h -0.234701 v -0.35319 h 0.325846 q 0.444336,0 0.642579,-0.198242 0.198242,-0.200521 0.198242,-0.444336 0,-0.221028 -0.161784,-0.371419 -0.161784,-0.152669 -0.496745,-0.152669 -0.375976,0 -0.808919,0.211914 v -0.403321 q 0.432943,-0.161783 0.792969,-0.161783 0.644856,0 0.888671,0.255208 0.246094,0.25293 0.246094,0.578776 0,0.241536 -0.129883,0.45345 -0.129882,0.211915 -0.478515,0.378256 0.307617,0.09114 0.464844,0.223307 0.157226,0.132161 0.236979,0.312174 0.08203,0.180013 0.08203,0.403321 0,0.496744 -0.369141,0.820312 -0.366862,0.323568 -0.950195,0.323568 -0.16862,0 -0.369141,-0.02506 -0.198242,-0.02507 -0.485351,-0.145834 z"
         style="font-style:normal;font-variant:normal;font-weight:normal;font-stretch:normal;font-size:4.66666651px;font-family:Monaco;-inkscape-font-specification:Monaco;fill:#333333"
         id="path1096" />
      <path
         d="m 38.586914,41.018884 q 0.195964,-0.31901 0.467122,-0.480794 0.271159,-0.161784 0.499024,-0.161784 0.31901,0 0.574219,0.275716 0.255208,0.275716 0.255208,0.836263 0,0.442058 -0.170899,0.79069 -0.168619,0.346354 -0.451171,0.549154 -0.282552,0.200521 -0.699545,0.200521 -0.118489,0 -0.364583,-0.02506 -0.03646,-0.0046 -0.109375,-0.01139 v 0.988933 h -0.423828 v -3.53418 h 0.423828 z m 0,0.503581 v 1.091471 q 0.230143,0.05924 0.423828,0.05924 0.385091,0 0.647136,-0.300781 0.264322,-0.30306 0.264322,-0.827149 0,-0.380533 -0.143554,-0.57194 -0.143555,-0.191406 -0.325847,-0.191406 -0.198242,0 -0.4375,0.200521 -0.236979,0.200521 -0.428385,0.540039 z"
         style="font-style:normal;font-variant:normal;font-weight:normal;font-stretch:normal;font-size:4.66666651px;font-family:Monaco;-inkscape-font-specification:Monaco;fill:#333333"
         id="path1098" />
      <path
         d="m 43.087239,40.446944 v 2.545247 h -0.423828 v -0.558268 q -0.205078,0.314453 -0.455729,0.47168 -0.250651,0.157226 -0.501302,0.157226 -0.223307,0 -0.410156,-0.118489 -0.184571,-0.120768 -0.257487,-0.314453 -0.07292,-0.195964 -0.07292,-0.761068 v -1.421875 h 0.423828 v 1.474284 q 0,0.366862 0.03418,0.485351 0.03646,0.116211 0.129883,0.191407 0.0957,0.0752 0.205078,0.0752 0.223307,0 0.478515,-0.209635 0.257487,-0.211914 0.426107,-0.533203 v -1.483399 z"
         style="font-style:normal;font-variant:normal;font-weight:normal;font-stretch:normal;font-size:4.66666651px;font-family:Monaco;-inkscape-font-specification:Monaco;fill:#333333"
         id="path1100" />
      <path
         d="m 45.919596,42.889652 q -0.298503,0.125326 -0.432943,0.148112 -0.13444,0.02506 -0.259766,0.02506 -0.266601,0 -0.48763,-0.102539 -0.221029,-0.102539 -0.334961,-0.303059 -0.111653,-0.200521 -0.111653,-0.619792 V 41.012048 H 43.6569 v -0.35319 h 0.635743 v -1.02539 h 0.423828 v 1.02539 h 1.132487 v 0.35319 h -1.132487 v 1.018555 q 0,0.307617 0.07292,0.435221 0.07292,0.125326 0.193685,0.184571 0.123047,0.05924 0.289388,0.05924 0.307617,0 0.647136,-0.193685 z"
         style="font-style:normal;font-variant:normal;font-weight:normal;font-stretch:normal;font-size:4.66666651px;font-family:Monaco;-inkscape-font-specification:Monaco;fill:#333333"
         id="path1102" />
      <path
         d="m 46.594076,42.916996 v -0.432943 q 0.546874,0.259766 0.993489,0.259766 0.186849,0 0.357747,-0.07064 0.170899,-0.07292 0.257487,-0.207357 0.08887,-0.13444 0.08887,-0.291666 0,-0.184571 -0.120769,-0.344076 -0.120768,-0.161784 -0.45345,-0.355469 l -0.232422,-0.13444 -0.234701,-0.13444 q -0.619791,-0.366862 -0.619791,-0.911458 0,-0.398763 0.275716,-0.669922 0.277995,-0.273437 0.865885,-0.273437 0.378256,0 0.731446,0.109375 v 0.394205 q -0.389649,-0.15039 -0.758789,-0.15039 -0.293946,0 -0.476237,0.154948 -0.180013,0.154947 -0.180013,0.373697 0,0.216472 0.138997,0.360026 0.138997,0.143555 0.355469,0.264323 l 0.177734,0.107097 0.221029,0.13444 0.186849,0.109375 q 0.581054,0.355469 0.581054,0.893229 0,0.410156 -0.298502,0.704102 -0.298503,0.293945 -0.957031,0.293945 -0.209636,0 -0.401042,-0.03646 -0.189128,-0.03418 -0.499023,-0.145833 z"
         style="font-style:normal;font-variant:normal;font-weight:normal;font-stretch:normal;font-size:4.66666651px;font-family:Monaco;-inkscape-font-specification:Monaco;fill:#333333"
         id="path1104" />
      <path
         d="m 51.515949,42.889652 q -0.298502,0.125326 -0.432943,0.148112 -0.13444,0.02506 -0.259765,0.02506 -0.266602,0 -0.48763,-0.102539 -0.221029,-0.102539 -0.334961,-0.303059 -0.111654,-0.200521 -0.111654,-0.619792 v -1.025391 h -0.635742 v -0.35319 h 0.635742 v -1.02539 h 0.423828 v 1.02539 h 1.132487 v 0.35319 h -1.132487 v 1.018555 q 0,0.307617 0.07292,0.435221 0.07292,0.125326 0.193685,0.184571 0.123047,0.05924 0.289388,0.05924 0.307617,0 0.647135,-0.193685 z"
         style="font-style:normal;font-variant:normal;font-weight:normal;font-stretch:normal;font-size:4.66666651px;font-family:Monaco;-inkscape-font-specification:Monaco;fill:#333333"
         id="path1106" />
      <path
         d="m 52.402343,42.992191 v -2.545247 h 0.423828 v 0.55599 q 0.198242,-0.314453 0.453451,-0.469401 0.257487,-0.157227 0.57194,-0.157227 0.230143,0 0.460286,0.07064 v 0.918294 h -0.407877 v -0.581054 q -0.107097,-0.01823 -0.16862,-0.01823 -0.236979,0 -0.464844,0.186849 -0.227864,0.186848 -0.444336,0.560546 v 1.478841 z"
         style="font-style:normal;font-variant:normal;font-weight:normal;font-stretch:normal;font-size:4.66666651px;font-family:Monaco;-inkscape-font-specification:Monaco;fill:#333333"
         id="path1108" />
      <path
         d="m 57.039388,42.602543 v 0.389648 h -1.909505 v -3.536458 h 0.460286 v 3.14681 z"
         style="font-style:normal;font-variant:normal;font-weight:normal;font-stretch:normal;font-size:4.66666651px;font-family:Monaco;-inkscape-font-specification:Monaco;fill:#333333"
         id="path1110" />
      <path
         d="m 57.782225,42.992191 v -2.545247 h 0.423828 v 0.55599 q 0.182292,-0.293946 0.439779,-0.460287 0.257487,-0.166341 0.514974,-0.166341 0.225586,0 0.410156,0.120768 0.184571,0.11849 0.257487,0.312175 0.0752,0.193685 0.0752,0.761068 v 1.421874 h -0.423828 v -1.474283 q 0,-0.366862 -0.03646,-0.483073 -0.03418,-0.11849 -0.129883,-0.193685 -0.09342,-0.0752 -0.205078,-0.0752 -0.223307,0 -0.480794,0.211914 -0.255208,0.211914 -0.42155,0.530924 v 1.483398 z"
         style="font-style:normal;font-variant:normal;font-weight:normal;font-stretch:normal;font-size:4.66666651px;font-family:Monaco;-inkscape-font-specification:Monaco;fill:#333333"
         id="path1112" />
      <path
         d="m 64.084961,40.58822 h -0.291667 l -0.145833,-1.273763 h 0.567383 z m 0.982096,0 h -0.289388 l -0.129883,-1.273763 h 0.55599 z"
         style="font-style:normal;font-variant:normal;font-weight:normal;font-stretch:normal;font-size:4.66666651px;font-family:Monaco;-inkscape-font-specification:Monaco;fill:#333333"
         id="path1114" />
      <path
         d="m 66.992512,42.992191 v -3.146809 h -1.059571 v -0.389649 h 2.581706 v 0.389649 h -1.061849 v 3.146809 z"
         style="font-style:normal;font-variant:normal;font-weight:normal;font-stretch:normal;font-size:4.66666651px;font-family:Monaco;-inkscape-font-specification:Monaco;fill:#333333"
         id="path1116" />
      <path
         d="m 68.974932,42.992191 v -3.677734 h 0.423828 v 1.688477 q 0.182292,-0.293946 0.439779,-0.460287 0.257487,-0.166341 0.514974,-0.166341 0.216471,0 0.394206,0.111654 0.180013,0.109375 0.250651,0.266601 0.05697,0.120769 0.07747,0.257487 0.02051,0.13444 0.02051,0.558269 v 1.421874 h -0.423829 v -1.474283 q 0,-0.366862 -0.03646,-0.483073 -0.03418,-0.11849 -0.129883,-0.193685 -0.09342,-0.0752 -0.205078,-0.0752 -0.223307,0 -0.480794,0.211914 -0.255208,0.211914 -0.42155,0.530924 v 1.483398 z"
         style="font-style:normal;font-variant:normal;font-weight:normal;font-stretch:normal;font-size:4.66666651px;font-family:Monaco;-inkscape-font-specification:Monaco;fill:#333333"
         id="path1118" />
      <path
         d="m 73.889974,42.823572 q -0.508138,0.241536 -0.961589,0.241536 -0.344075,0 -0.615234,-0.170898 -0.271159,-0.170899 -0.435221,-0.487631 -0.161784,-0.31901 -0.161784,-0.681315 0,-0.348632 0.154948,-0.669921 0.154948,-0.321289 0.432942,-0.499024 0.277995,-0.180013 0.619792,-0.180013 0.453451,0 0.726888,0.323568 0.275716,0.323568 0.275716,0.998047 v 0.09114 h -1.754557 q 0,0.264323 0.109375,0.483073 0.111654,0.21875 0.291667,0.328125 0.180013,0.109375 0.410156,0.109375 0.410156,0 0.906901,-0.273437 z M 72.19694,41.472335 h 1.269206 v -0.06152 q 0,-0.312174 -0.15267,-0.496744 -0.152669,-0.184571 -0.407877,-0.184571 -0.257487,0 -0.446615,0.189128 -0.186849,0.186849 -0.262044,0.553711 z"
         style="font-style:normal;font-variant:normal;font-weight:normal;font-stretch:normal;font-size:4.66666651px;font-family:Monaco;-inkscape-font-specification:Monaco;fill:#333333"
         id="path1120" />
      <path
         d="m 79.04199,42.420251 q -0.193685,0.319011 -0.467123,0.480795 -0.271159,0.161783 -0.499023,0.161783 -0.319011,0 -0.574219,-0.275716 -0.25293,-0.275716 -0.25293,-0.836263 0,-0.442057 0.16862,-0.788411 0.16862,-0.348633 0.451172,-0.549154 0.282552,-0.202799 0.699544,-0.202799 0.120768,0 0.364584,0.02506 0.03646,0.0046 0.109375,0.01139 h 0.426106 v 1.797852 q 0,0.460286 0.0957,0.747395 h -0.442057 q -0.05013,-0.209635 -0.07975,-0.57194 z m 0,-0.50358 v -1.091472 q -0.225586,-0.05924 -0.419271,-0.05924 -0.391927,0 -0.653972,0.303059 -0.259765,0.30306 -0.259765,0.82487 0,0.378255 0.141276,0.57194 0.143555,0.191407 0.325846,0.191407 0.198242,0 0.4375,-0.200521 0.239258,-0.200521 0.428386,-0.540039 z"
         style="font-style:normal;font-variant:normal;font-weight:normal;font-stretch:normal;font-size:4.66666651px;font-family:Monaco;-inkscape-font-specification:Monaco;fill:#333333"
         id="path1122" />
      <path
         d="m 81.867513,42.420251 q -0.193685,0.319011 -0.467122,0.480795 -0.271159,0.161783 -0.499024,0.161783 -0.31901,0 -0.574219,-0.275716 -0.252929,-0.275716 -0.252929,-0.836263 0,-0.442057 0.16862,-0.788411 0.168619,-0.348633 0.451171,-0.549154 0.282552,-0.202799 0.699545,-0.202799 0.120768,0 0.364583,0.02506 0.03646,0.0046 0.109375,0.01139 v -1.132487 h 0.426107 v 3.677734 h -0.426107 z m 0,-0.50358 v -1.091472 q -0.225586,-0.05924 -0.419271,-0.05924 -0.391927,0 -0.653971,0.303059 -0.259766,0.30306 -0.259766,0.82487 0,0.378255 0.141276,0.57194 0.143555,0.191407 0.325847,0.191407 0.198242,0 0.4375,-0.200521 0.239257,-0.200521 0.428385,-0.540039 z"
         style="font-style:normal;font-variant:normal;font-weight:normal;font-stretch:normal;font-size:4.66666651px;font-family:Monaco;-inkscape-font-specification:Monaco;fill:#333333"
         id="path1124" />
      <path
         d="m 84.665689,42.420251 q -0.193685,0.319011 -0.467123,0.480795 -0.271158,0.161783 -0.499023,0.161783 -0.31901,0 -0.574219,-0.275716 -0.252929,-0.275716 -0.252929,-0.836263 0,-0.442057 0.168619,-0.788411 0.16862,-0.348633 0.451172,-0.549154 0.282552,-0.202799 0.699544,-0.202799 0.120769,0 0.364584,0.02506 0.03646,0.0046 0.109375,0.01139 v -1.132487 h 0.426107 v 3.677734 h -0.426107 z m 0,-0.50358 v -1.091472 q -0.225586,-0.05924 -0.419271,-0.05924 -0.391927,0 -0.653971,0.303059 -0.259766,0.30306 -0.259766,0.82487 0,0.378255 0.141276,0.57194 0.143555,0.191407 0.325846,0.191407 0.198243,0 0.4375,-0.200521 0.239258,-0.200521 0.428386,-0.540039 z"
         style="font-style:normal;font-variant:normal;font-weight:normal;font-stretch:normal;font-size:4.66666651px;font-family:Monaco;-inkscape-font-specification:Monaco;fill:#333333"
         id="path1126" />
      <path
         d="m 86.477211,42.992191 v -2.192057 h -0.70638 v -0.35319 h 1.130208 v 2.192057 h 0.708659 v 0.35319 z m -0.07064,-3.463541 q 0,-0.143555 0.09798,-0.214193 0.09798,-0.07064 0.18457,-0.07064 0.08887,0 0.186849,0.07064 0.09798,0.07064 0.09798,0.214193 0,0.141276 -0.09798,0.211914 -0.09798,0.07064 -0.186849,0.07064 -0.08659,0 -0.18457,-0.07064 -0.09798,-0.07064 -0.09798,-0.211914 z"
         style="font-style:normal;font-variant:normal;font-weight:normal;font-stretch:normal;font-size:4.66666651px;font-family:Monaco;-inkscape-font-specification:Monaco;fill:#333333"
         id="path1128" />
      <path
         d="m 90.69043,42.889652 q -0.298503,0.125326 -0.432943,0.148112 -0.13444,0.02506 -0.259766,0.02506 -0.266601,0 -0.48763,-0.102539 -0.221029,-0.102539 -0.334961,-0.303059 -0.111653,-0.200521 -0.111653,-0.619792 v -1.025391 h -0.635743 v -0.35319 h 0.635743 v -1.02539 h 0.423828 v 1.02539 h 1.132487 v 0.35319 h -1.132487 v 1.018555 q 0,0.307617 0.07292,0.435221 0.07292,0.125326 0.193685,0.184571 0.123047,0.05924 0.289388,0.05924 0.307617,0 0.647136,-0.193685 z"
         style="font-style:normal;font-variant:normal;font-weight:normal;font-stretch:normal;font-size:4.66666651px;font-family:Monaco;-inkscape-font-specification:Monaco;fill:#333333"
         id="path1130" />
      <path
         d="m 92.073566,42.992191 v -2.192057 h -0.70638 v -0.35319 h 1.130209 v 2.192057 h 0.708658 v 0.35319 z m -0.07064,-3.463541 q 0,-0.143555 0.09798,-0.214193 0.09798,-0.07064 0.18457,-0.07064 0.08887,0 0.186849,0.07064 0.09798,0.07064 0.09798,0.214193 0,0.141276 -0.09798,0.211914 -0.09798,0.07064 -0.186849,0.07064 -0.08659,0 -0.18457,-0.07064 -0.09798,-0.07064 -0.09798,-0.211914 z"
         style="font-style:normal;font-variant:normal;font-weight:normal;font-stretch:normal;font-size:4.66666651px;font-family:Monaco;-inkscape-font-specification:Monaco;fill:#333333"
         id="path1132" />
      <path
         d="m 95.206703,43.062829 q -0.546875,0 -0.875,-0.380533 -0.328125,-0.382813 -0.328125,-0.963868 0,-0.581054 0.328125,-0.961588 0.328125,-0.380534 0.875,-0.380534 0.544596,0 0.872721,0.380534 0.328125,0.380534 0.328125,0.961588 0,0.581055 -0.328125,0.963868 -0.328125,0.380533 -0.872721,0.380533 z m 0,-0.35319 q 0.339518,0 0.540039,-0.264323 0.200521,-0.264322 0.200521,-0.726888 0,-0.460286 -0.200521,-0.724609 -0.200521,-0.264323 -0.540039,-0.264323 -0.341797,0 -0.542318,0.264323 -0.20052,0.264323 -0.20052,0.724609 0,0.462566 0.20052,0.726888 0.200521,0.264323 0.542318,0.264323 z"
         style="font-style:normal;font-variant:normal;font-weight:normal;font-stretch:normal;font-size:4.66666651px;font-family:Monaco;-inkscape-font-specification:Monaco;fill:#333333"
         id="path1134" />
      <path
         d="m 96.956706,42.992191 v -2.545247 h 0.423828 v 0.55599 q 0.182291,-0.293946 0.439778,-0.460287 0.257487,-0.166341 0.514974,-0.166341 0.225586,0 0.410157,0.120768 0.18457,0.11849 0.257487,0.312175 0.07519,0.193685 0.07519,0.761068 v 1.421874 h -0.423828 v -1.474283 q 0,-0.366862 -0.03646,-0.483073 -0.03418,-0.11849 -0.129882,-0.193685 -0.09342,-0.0752 -0.205078,-0.0752 -0.223308,0 -0.480795,0.211914 -0.255208,0.211914 -0.421549,0.530924 v 1.483398 z"
         style="font-style:normal;font-variant:normal;font-weight:normal;font-stretch:normal;font-size:4.66666651px;font-family:Monaco;-inkscape-font-specification:Monaco;fill:#333333"
         id="path1136" />
      <path
         d="m 30.848633,49.729497 q -0.546875,0 -0.875,-0.380533 -0.328125,-0.382813 -0.328125,-0.963868 0,-0.581054 0.328125,-0.961588 0.328125,-0.380534 0.875,-0.380534 0.544596,0 0.872721,0.380534 0.328125,0.380534 0.328125,0.961588 0,0.581055 -0.328125,0.963868 -0.328125,0.380533 -0.872721,0.380533 z m 0,-0.35319 q 0.339518,0 0.540039,-0.264323 0.200521,-0.264322 0.200521,-0.726888 0,-0.460286 -0.200521,-0.724609 -0.200521,-0.264323 -0.540039,-0.264323 -0.341797,0 -0.542318,0.264323 -0.200521,0.264323 -0.200521,0.724609 0,0.462566 0.200521,0.726888 0.200521,0.264323 0.542318,0.264323 z"
         style="font-style:normal;font-variant:normal;font-weight:normal;font-stretch:normal;font-size:4.66666651px;font-family:Monaco;-inkscape-font-specification:Monaco;fill:#333333"
         id="path1138" />
      <path
         d="m 33.191081,49.658859 v -1.980143 h -0.565105 v -0.35319 h 0.565105 v -0.118489 q 0,-0.503581 0.113932,-0.745118 0.113932,-0.241536 0.350911,-0.396484 0.239258,-0.154948 0.631185,-0.154948 0.296224,0 0.601563,0.06152 v 0.40332 q -0.330404,-0.109375 -0.585612,-0.109375 -0.2028,0 -0.357748,0.0752 -0.154948,0.07519 -0.243815,0.246094 -0.08659,0.16862 -0.08659,0.574219 v 0.164062 h 1.00944 v 0.35319 h -1.00944 v 1.980143 z"
         style="font-style:normal;font-variant:normal;font-weight:normal;font-stretch:normal;font-size:4.66666651px;font-family:Monaco;-inkscape-font-specification:Monaco;fill:#333333"
         id="path1140" />
      <path
         d="m 40.323242,49.55632 q -0.298502,0.125326 -0.432943,0.148112 -0.13444,0.02507 -0.259765,0.02507 -0.266602,0 -0.48763,-0.102539 -0.221029,-0.102539 -0.334961,-0.30306 -0.111654,-0.20052 -0.111654,-0.619791 v -1.025391 h -0.635742 v -0.35319 h 0.635742 v -1.02539 h 0.423828 v 1.02539 h 1.132487 v 0.35319 h -1.132487 v 1.018555 q 0,0.307617 0.07292,0.435221 0.07292,0.125326 0.193685,0.184571 0.123047,0.05924 0.289388,0.05924 0.307617,0 0.647135,-0.193685 z"
         style="font-style:normal;font-variant:normal;font-weight:normal;font-stretch:normal;font-size:4.66666651px;font-family:Monaco;-inkscape-font-specification:Monaco;fill:#333333"
         id="path1142" />
      <path
         d="m 40.993164,49.658859 v -3.677734 h 0.423828 v 1.688477 q 0.182292,-0.293946 0.439778,-0.460287 0.257487,-0.166341 0.514974,-0.166341 0.216472,0 0.394206,0.111654 0.180013,0.109375 0.250651,0.266601 0.05697,0.120768 0.07747,0.257487 0.02051,0.13444 0.02051,0.558268 v 1.421875 h -0.423828 v -1.474283 q 0,-0.366862 -0.03646,-0.483073 -0.03418,-0.11849 -0.129882,-0.193685 -0.09343,-0.0752 -0.205078,-0.0752 -0.223308,0 -0.480795,0.211915 -0.255208,0.211914 -0.421549,0.530924 v 1.483398 z"
         style="font-style:normal;font-variant:normal;font-weight:normal;font-stretch:normal;font-size:4.66666651px;font-family:Monaco;-inkscape-font-specification:Monaco;fill:#333333"
         id="path1144" />
      <path
         d="m 45.908202,49.49024 q -0.508138,0.241536 -0.961588,0.241536 -0.344076,0 -0.615234,-0.170898 -0.271159,-0.170899 -0.435222,-0.487631 -0.161784,-0.31901 -0.161784,-0.681315 0,-0.348632 0.154948,-0.669921 0.154948,-0.32129 0.432943,-0.499024 0.277995,-0.180013 0.619792,-0.180013 0.45345,0 0.726888,0.323568 0.275716,0.323567 0.275716,0.998047 v 0.09114 h -1.754557 q 0,0.264323 0.109375,0.483073 0.111653,0.21875 0.291666,0.328125 0.180013,0.109375 0.410156,0.109375 0.410157,0 0.906901,-0.273437 z m -1.693033,-1.351237 h 1.269205 v -0.06152 q 0,-0.312174 -0.152669,-0.496745 -0.152669,-0.18457 -0.407878,-0.18457 -0.257487,0 -0.446614,0.189128 -0.186849,0.186849 -0.262044,0.553711 z"
         style="font-style:normal;font-variant:normal;font-weight:normal;font-stretch:normal;font-size:4.66666651px;font-family:Monaco;-inkscape-font-specification:Monaco;fill:#333333"
         id="path1146" />
      <path
         d="m 51.515949,49.55632 q -0.298502,0.125326 -0.432943,0.148112 -0.13444,0.02507 -0.259765,0.02507 -0.266602,0 -0.48763,-0.102539 -0.221029,-0.102539 -0.334961,-0.30306 -0.111654,-0.20052 -0.111654,-0.619791 v -1.025391 h -0.635742 v -0.35319 h 0.635742 v -1.02539 h 0.423828 v 1.02539 h 1.132487 v 0.35319 h -1.132487 v 1.018555 q 0,0.307617 0.07292,0.435221 0.07292,0.125326 0.193685,0.184571 0.123047,0.05924 0.289388,0.05924 0.307617,0 0.647135,-0.193685 z"
         style="font-style:normal;font-variant:normal;font-weight:normal;font-stretch:normal;font-size:4.66666651px;font-family:Monaco;-inkscape-font-specification:Monaco;fill:#333333"
         id="path1148" />
      <path
         d="m 52.292968,49.658859 -0.414713,-2.545247 h 0.394205 l 0.241537,1.549479 0.0638,0.360026 0.06152,-0.360026 0.405599,-1.549479 h 0.380534 l 0.458008,1.549479 0.07975,0.360026 0.05241,-0.360026 0.243815,-1.549479 h 0.325847 l -0.412435,2.545247 h -0.396485 l -0.48763,-1.638346 -0.07747,-0.360026 h -0.01139 l -0.07064,0.357747 -0.423828,1.640625 z"
         style="font-style:normal;font-variant:normal;font-weight:normal;font-stretch:normal;font-size:4.66666651px;font-family:Monaco;-inkscape-font-specification:Monaco;fill:#333333"
         id="path1150" />
      <path
         d="m 56.032227,49.729497 q -0.546875,0 -0.875,-0.380533 -0.328125,-0.382813 -0.328125,-0.963868 0,-0.581054 0.328125,-0.961588 0.328125,-0.380534 0.875,-0.380534 0.544596,0 0.872721,0.380534 0.328125,0.380534 0.328125,0.961588 0,0.581055 -0.328125,0.963868 -0.328125,0.380533 -0.872721,0.380533 z m 0,-0.35319 q 0.339518,0 0.540039,-0.264323 0.20052,-0.264322 0.20052,-0.726888 0,-0.460286 -0.20052,-0.724609 -0.200521,-0.264323 -0.540039,-0.264323 -0.341797,0 -0.542318,0.264323 -0.200521,0.264323 -0.200521,0.724609 0,0.462566 0.200521,0.726888 0.200521,0.264323 0.542318,0.264323 z"
         style="font-style:normal;font-variant:normal;font-weight:normal;font-stretch:normal;font-size:4.66666651px;font-family:Monaco;-inkscape-font-specification:Monaco;fill:#333333"
         id="path1152" />
      <path
         d="m 60.580403,49.658859 v -2.545247 h 0.423828 v 0.55599 q 0.182292,-0.293946 0.439779,-0.460287 0.257487,-0.166341 0.514974,-0.166341 0.225586,0 0.410156,0.120768 0.18457,0.11849 0.257487,0.312175 0.0752,0.193685 0.0752,0.761067 v 1.421875 h -0.423828 v -1.474283 q 0,-0.366862 -0.03646,-0.483073 -0.03418,-0.11849 -0.129883,-0.193685 -0.09342,-0.0752 -0.205078,-0.0752 -0.223307,0 -0.480794,0.211915 -0.255209,0.211914 -0.42155,0.530924 v 1.483398 z"
         style="font-style:normal;font-variant:normal;font-weight:normal;font-stretch:normal;font-size:4.66666651px;font-family:Monaco;-inkscape-font-specification:Monaco;fill:#333333"
         id="path1154" />
      <path
         d="m 65.472656,47.113612 v 2.545247 h -0.423828 v -0.558268 q -0.205078,0.314453 -0.455729,0.47168 -0.250651,0.157226 -0.501302,0.157226 -0.223307,0 -0.410156,-0.118489 -0.184571,-0.120768 -0.257487,-0.314453 -0.07292,-0.195964 -0.07292,-0.761068 v -1.421875 h 0.423828 v 1.474284 q 0,0.366862 0.03418,0.485351 0.03646,0.116211 0.129883,0.191407 0.0957,0.0752 0.205078,0.0752 0.223307,0 0.478515,-0.209635 0.257487,-0.211914 0.426107,-0.533204 v -1.483398 z"
         style="font-style:normal;font-variant:normal;font-weight:normal;font-stretch:normal;font-size:4.66666651px;font-family:Monaco;-inkscape-font-specification:Monaco;fill:#333333"
         id="path1156" />
      <path
         d="m 65.98535,49.658859 v -2.545247 h 0.37142 v 0.583333 q 0.175455,-0.371419 0.325846,-0.512695 0.152669,-0.141276 0.307617,-0.141276 0.18457,0 0.296224,0.145833 0.113932,0.143555 0.113932,0.410157 v 0.136718 q 0.0752,-0.232421 0.180013,-0.375976 0.107097,-0.145834 0.221029,-0.230143 0.113932,-0.08659 0.262044,-0.08659 0.164063,0 0.280274,0.138997 0.116211,0.138998 0.116211,0.553711 v 1.923177 h -0.37142 v -1.738606 q 0,-0.214193 -0.01367,-0.291667 -0.01367,-0.07975 -0.05469,-0.120768 -0.04102,-0.04102 -0.08887,-0.04102 -0.11849,0 -0.255209,0.182292 -0.13444,0.180013 -0.275716,0.599284 v 1.410481 h -0.355468 v -1.736328 q 0,-0.337239 -0.06608,-0.396484 -0.06608,-0.05924 -0.11849,-0.05924 -0.116211,0 -0.250651,0.2028 -0.132161,0.202799 -0.252929,0.519531 v 1.469726 z"
         style="font-style:normal;font-variant:normal;font-weight:normal;font-stretch:normal;font-size:4.66666651px;font-family:Monaco;-inkscape-font-specification:Monaco;fill:#333333"
         id="path1158" />
      <path
         d="m 69.366859,47.685552 q 0.195964,-0.31901 0.467123,-0.480794 0.271159,-0.161784 0.499023,-0.161784 0.319011,0 0.574219,0.275716 0.255208,0.275716 0.255208,0.836263 0,0.442057 -0.170898,0.79069 -0.16862,0.346354 -0.451172,0.549154 -0.282552,0.200521 -0.699544,0.200521 -0.11849,0 -0.364584,-0.02506 -0.03646,-0.0046 -0.109375,-0.01139 h -0.423828 v -3.677734 h 0.423828 z m 0,0.503581 v 1.091471 q 0.230144,0.05925 0.423829,0.05925 0.385091,0 0.647135,-0.300781 0.264323,-0.30306 0.264323,-0.827149 0,-0.380534 -0.143555,-0.57194 -0.143555,-0.191406 -0.325846,-0.191406 -0.198242,0 -0.4375,0.200521 -0.236979,0.200521 -0.428386,0.540039 z"
         style="font-style:normal;font-variant:normal;font-weight:normal;font-stretch:normal;font-size:4.66666651px;font-family:Monaco;-inkscape-font-specification:Monaco;fill:#333333"
         id="path1160" />
      <path
         d="m 73.889974,49.49024 q -0.508138,0.241536 -0.961589,0.241536 -0.344075,0 -0.615234,-0.170898 -0.271159,-0.170899 -0.435221,-0.487631 -0.161784,-0.31901 -0.161784,-0.681315 0,-0.348632 0.154948,-0.669921 0.154948,-0.32129 0.432942,-0.499024 0.277995,-0.180013 0.619792,-0.180013 0.453451,0 0.726888,0.323568 0.275716,0.323567 0.275716,0.998047 v 0.09114 h -1.754557 q 0,0.264323 0.109375,0.483073 0.111654,0.21875 0.291667,0.328125 0.180013,0.109375 0.410156,0.109375 0.410156,0 0.906901,-0.273437 z M 72.19694,48.139003 h 1.269206 v -0.06152 q 0,-0.312174 -0.15267,-0.496745 -0.152669,-0.18457 -0.407877,-0.18457 -0.257487,0 -0.446615,0.189128 -0.186849,0.186849 -0.262044,0.553711 z"
         style="font-style:normal;font-variant:normal;font-weight:normal;font-stretch:normal;font-size:4.66666651px;font-family:Monaco;-inkscape-font-specification:Monaco;fill:#333333"
         id="path1162" />
      <path
         d="m 74.787759,49.658859 v -2.545247 h 0.423828 v 0.55599 q 0.198242,-0.314453 0.453451,-0.469401 0.257487,-0.157227 0.57194,-0.157227 0.230143,0 0.460286,0.07064 v 0.918294 h -0.407877 v -0.581054 q -0.107097,-0.01823 -0.16862,-0.01823 -0.236979,0 -0.464844,0.186849 -0.227864,0.186849 -0.444336,0.560547 v 1.478841 z"
         style="font-style:normal;font-variant:normal;font-weight:normal;font-stretch:normal;font-size:4.66666651px;font-family:Monaco;-inkscape-font-specification:Monaco;fill:#333333"
         id="path1164" />
      <path
         d="m 77.399086,49.524419 v -0.448893 q 0.255208,0.166341 0.540039,0.234701 0.284831,0.06608 0.483073,0.06608 0.321289,0 0.462565,-0.102539 0.141276,-0.104817 0.141276,-0.259765 0,-0.102539 -0.06608,-0.175456 -0.06608,-0.07292 -0.328125,-0.180013 L 78.486,48.599289 78.192055,48.483078 q -0.473959,-0.18457 -0.597005,-0.341797 -0.125326,-0.154948 -0.125326,-0.378255 0,-0.314453 0.241536,-0.517252 0.243816,-0.2028 0.788412,-0.2028 0.407877,0 0.772461,0.11849 v 0.385091 q -0.419271,-0.150391 -0.788412,-0.150391 -0.26888,0 -0.421549,0.0957 -0.150391,0.09343 -0.150391,0.234701 0,0.136719 0.132162,0.21875 0.129883,0.08203 0.423828,0.189127 l 0.287109,0.104818 q 0.394206,0.143555 0.553711,0.312175 0.159505,0.168619 0.159505,0.421549 0,0.330404 -0.255208,0.544596 -0.25293,0.211914 -0.811198,0.211914 -0.48763,0 -1.002604,-0.205078 z"
         style="font-style:normal;font-variant:normal;font-weight:normal;font-stretch:normal;font-size:4.66666651px;font-family:Monaco;-inkscape-font-specification:Monaco;fill:#333333"
         id="path1166" />
      <path
         d="m 83.679035,49.658859 v -2.192057 h -0.70638 v -0.35319 h 1.130208 v 2.192057 h 0.708659 v 0.35319 z m -0.07064,-3.463541 q 0,-0.143555 0.09798,-0.214193 0.09798,-0.07064 0.18457,-0.07064 0.08887,0 0.186849,0.07064 0.09798,0.07064 0.09798,0.214193 0,0.141276 -0.09798,0.211914 -0.09798,0.07064 -0.186849,0.07064 -0.08659,0 -0.18457,-0.07064 -0.09798,-0.07064 -0.09798,-0.211914 z"
         style="font-style:normal;font-variant:normal;font-weight:normal;font-stretch:normal;font-size:4.66666651px;font-family:Monaco;-inkscape-font-specification:Monaco;fill:#333333"
         id="path1168" />
      <path
         d="m 85.793617,49.524419 v -0.448893 q 0.255209,0.166341 0.540039,0.234701 0.284831,0.06608 0.483073,0.06608 0.321289,0 0.462565,-0.102539 0.141276,-0.104817 0.141276,-0.259765 0,-0.102539 -0.06608,-0.175456 -0.06608,-0.07292 -0.328125,-0.180013 l -0.145834,-0.05925 -0.293945,-0.116211 q -0.473958,-0.18457 -0.597005,-0.341797 -0.125326,-0.154948 -0.125326,-0.378255 0,-0.314453 0.241537,-0.517252 0.243815,-0.2028 0.788411,-0.2028 0.407878,0 0.772461,0.11849 v 0.385091 q -0.419271,-0.150391 -0.788411,-0.150391 -0.268881,0 -0.42155,0.0957 -0.15039,0.09343 -0.15039,0.234701 0,0.136719 0.132161,0.21875 0.129883,0.08203 0.423828,0.189127 l 0.287109,0.104818 q 0.394206,0.143555 0.553711,0.312175 0.159506,0.168619 0.159506,0.421549 0,0.330404 -0.255209,0.544596 -0.252929,0.211914 -0.811198,0.211914 -0.48763,0 -1.002604,-0.205078 z"
         style="font-style:normal;font-variant:normal;font-weight:normal;font-stretch:normal;font-size:4.66666651px;font-family:Monaco;-inkscape-font-specification:Monaco;fill:#333333"
         id="path1170" />
      <path
         d="m 89.608073,49.765956 q -0.152669,0 -0.262044,-0.109375 -0.109375,-0.109375 -0.109375,-0.262045 0,-0.154947 0.109375,-0.262044 0.111653,-0.109375 0.262044,-0.109375 0.15039,0 0.259765,0.109375 0.111654,0.107097 0.111654,0.262044 0,0.15267 -0.109375,0.262045 -0.109375,0.109375 -0.262044,0.109375 z m 0,-1.980143 q -0.152669,0 -0.262044,-0.109375 -0.109375,-0.109375 -0.109375,-0.262045 0,-0.154948 0.109375,-0.262044 0.111653,-0.109375 0.262044,-0.109375 0.15039,0 0.259765,0.109375 0.111654,0.107096 0.111654,0.262044 0,0.15267 -0.109375,0.262045 -0.109375,0.109375 -0.262044,0.109375 z"
         style="font-style:normal;font-variant:normal;font-weight:normal;font-stretch:normal;font-size:4.66666651px;font-family:Monaco;-inkscape-font-specification:Monaco;fill:#333333"
         id="path1172" />
      <path
         d="M 92.06673,47.254888 H 91.775064 L 91.62923,45.981125 h 0.567383 z m 0.982097,0 h -0.289388 l -0.129883,-1.273763 h 0.55599 z"
         style="font-style:normal;font-variant:normal;font-weight:normal;font-stretch:normal;font-size:4.66666651px;font-family:Monaco;-inkscape-font-specification:Monaco;fill:#333333"
         id="path1174" />
      <path
         d="m 38.586914,54.35222 q 0.195964,-0.31901 0.467122,-0.480794 0.271159,-0.161784 0.499024,-0.161784 0.31901,0 0.574219,0.275716 0.255208,0.275716 0.255208,0.836263 0,0.442057 -0.170899,0.79069 -0.168619,0.346354 -0.451171,0.549154 -0.282552,0.200521 -0.699545,0.200521 -0.118489,0 -0.364583,-0.02507 -0.03646,-0.0046 -0.109375,-0.01139 v 0.988933 h -0.423828 v -3.53418 h 0.423828 z m 0,0.503581 v 1.091471 q 0.230143,0.05925 0.423828,0.05925 0.385091,0 0.647136,-0.300781 0.264322,-0.30306 0.264322,-0.827149 0,-0.380534 -0.143554,-0.57194 -0.143555,-0.191406 -0.325847,-0.191406 -0.198242,0 -0.4375,0.200521 -0.236979,0.200521 -0.428385,0.540039 z"
         style="font-style:normal;font-variant:normal;font-weight:normal;font-stretch:normal;font-size:4.66666651px;font-family:Monaco;-inkscape-font-specification:Monaco;fill:#333333"
         id="path1176" />
      <path
         d="M 41.209635,56.325527 V 53.78028 h 0.423828 v 0.55599 q 0.198242,-0.314454 0.453451,-0.469401 0.257487,-0.157227 0.57194,-0.157227 0.230143,0 0.460286,0.07064 v 0.918294 H 42.711263 V 54.11752 q -0.107097,-0.01823 -0.16862,-0.01823 -0.236979,0 -0.464844,0.186849 -0.227864,0.186849 -0.444336,0.560547 v 1.478841 z"
         style="font-style:normal;font-variant:normal;font-weight:normal;font-stretch:normal;font-size:4.66666651px;font-family:Monaco;-inkscape-font-specification:Monaco;fill:#333333"
         id="path1178" />
      <path
         d="M 44.504557,56.325527 V 54.13347 h -0.706381 v -0.35319 h 1.130209 v 2.192057 h 0.708659 v 0.35319 z m -0.07064,-3.463541 q 0,-0.143555 0.09798,-0.214193 0.09798,-0.07064 0.184571,-0.07064 0.08887,0 0.186849,0.07064 0.09798,0.07064 0.09798,0.214193 0,0.141276 -0.09798,0.211914 -0.09798,0.07064 -0.186849,0.07064 -0.08659,0 -0.184571,-0.07064 -0.09798,-0.07064 -0.09798,-0.211914 z"
         style="font-style:normal;font-variant:normal;font-weight:normal;font-stretch:normal;font-size:4.66666651px;font-family:Monaco;-inkscape-font-specification:Monaco;fill:#333333"
         id="path1180" />
      <path
         d="M 46.589518,56.325527 V 53.78028 h 0.423828 v 0.55599 q 0.182292,-0.293946 0.439779,-0.460287 0.257487,-0.166341 0.514974,-0.166341 0.225586,0 0.410156,0.120768 0.18457,0.11849 0.257487,0.312175 0.0752,0.193685 0.0752,0.761067 v 1.421875 h -0.423828 v -1.474283 q 0,-0.366862 -0.03646,-0.483073 -0.03418,-0.11849 -0.129883,-0.193685 -0.09342,-0.0752 -0.205078,-0.0752 -0.223307,0 -0.480794,0.211914 -0.255209,0.211915 -0.42155,0.530925 v 1.483398 z"
         style="font-style:normal;font-variant:normal;font-weight:normal;font-stretch:normal;font-size:4.66666651px;font-family:Monaco;-inkscape-font-specification:Monaco;fill:#333333"
         id="path1182" />
      <path
         d="m 51.515949,56.222988 q -0.298502,0.125326 -0.432943,0.148112 -0.13444,0.02507 -0.259765,0.02507 -0.266602,0 -0.48763,-0.102539 -0.221029,-0.102539 -0.334961,-0.30306 -0.111654,-0.20052 -0.111654,-0.619791 v -1.025391 h -0.635742 v -0.35319 h 0.635742 v -1.025391 h 0.423828 v 1.025391 h 1.132487 v 0.35319 h -1.132487 v 1.018555 q 0,0.307617 0.07292,0.435221 0.07292,0.125326 0.193685,0.18457 0.123047,0.05924 0.289388,0.05924 0.307617,0 0.647135,-0.193685 z"
         style="font-style:normal;font-variant:normal;font-weight:normal;font-stretch:normal;font-size:4.66666651px;font-family:Monaco;-inkscape-font-specification:Monaco;fill:#333333"
         id="path1184" />
      <path
         d="m 54.27539,57.173184 q -0.631185,-0.03874 -1.064128,-0.357748 -0.432942,-0.316732 -0.692708,-0.856771 -0.257487,-0.540039 -0.257487,-1.082356 0,-0.542318 0.257487,-1.082357 0.259766,-0.540039 0.692708,-0.856771 0.432943,-0.31901 1.064128,-0.360026 v 0.355469 q -0.476237,0.04329 -0.820313,0.321289 -0.341796,0.275716 -0.53776,0.704101 -0.195963,0.428386 -0.195963,0.918295 0,0.489908 0.195963,0.918294 0.195964,0.428385 0.53776,0.704101 0.344076,0.275717 0.820313,0.321289 z"
         style="font-style:normal;font-variant:normal;font-weight:normal;font-stretch:normal;font-size:4.66666651px;font-family:Monaco;-inkscape-font-specification:Monaco;fill:#333333"
         id="path1186" />
      <path
         d="M 55.811198,56.325527 54.706055,53.78028 h 0.464843 l 0.872722,2.014323 0.89095,-2.014323 h 0.423828 l -1.114257,2.545247 z"
         style="font-style:normal;font-variant:normal;font-weight:normal;font-stretch:normal;font-size:4.66666651px;font-family:Monaco;-inkscape-font-specification:Monaco;fill:#333333"
         id="path1188" />
      <path
         d="m 59.454751,55.753587 q -0.193685,0.319011 -0.467122,0.480795 -0.271159,0.161783 -0.499024,0.161783 -0.31901,0 -0.574218,-0.275716 -0.25293,-0.275716 -0.25293,-0.836263 0,-0.442057 0.16862,-0.788411 0.16862,-0.348633 0.451172,-0.549154 0.282552,-0.202799 0.699544,-0.202799 0.120768,0 0.364583,0.02506 0.03646,0.0046 0.109375,0.01139 h 0.426107 v 1.797852 q 0,0.460286 0.0957,0.747395 h -0.442057 q -0.05013,-0.209635 -0.07975,-0.57194 z m 0,-0.50358 v -1.091472 q -0.225586,-0.05924 -0.419271,-0.05924 -0.391927,0 -0.653971,0.30306 -0.259766,0.30306 -0.259766,0.82487 0,0.378255 0.141277,0.57194 0.143554,0.191406 0.325846,0.191406 0.198242,0 0.4375,-0.20052 0.239258,-0.200521 0.428385,-0.540039 z"
         style="font-style:normal;font-variant:normal;font-weight:normal;font-stretch:normal;font-size:4.66666651px;font-family:Monaco;-inkscape-font-specification:Monaco;fill:#333333"
         id="path1190" />
      <path
         d="M 60.796874,56.325527 V 53.78028 h 0.423828 v 0.55599 q 0.198243,-0.314454 0.453451,-0.469401 0.257487,-0.157227 0.57194,-0.157227 0.230143,0 0.460286,0.07064 v 0.918294 H 62.298502 V 54.11752 q -0.107096,-0.01823 -0.16862,-0.01823 -0.236979,0 -0.464844,0.186849 -0.227864,0.186849 -0.444336,0.560547 v 1.478841 z"
         style="font-style:normal;font-variant:normal;font-weight:normal;font-stretch:normal;font-size:4.66666651px;font-family:Monaco;-inkscape-font-specification:Monaco;fill:#333333"
         id="path1192" />
      <path
         d="M 64.319661,55.972337 V 53.24252 q -0.191406,0.152669 -0.371419,0.259765 -0.180013,0.107097 -0.494466,0.21875 v -0.382812 q 0.499023,-0.211914 0.865885,-0.549154 h 0.423829 v 3.183268 h 0.849934 v 0.35319 h -2.139648 v -0.35319 z"
         style="font-style:normal;font-variant:normal;font-weight:normal;font-stretch:normal;font-size:4.66666651px;font-family:Monaco;-inkscape-font-specification:Monaco;fill:#333333"
         id="path1194" />
      <path
         d="m 71.258135,54.910488 v 0.355469 h -1.05957 v 1.05957 h -0.355469 v -1.05957 h -1.05957 v -0.355469 h 1.05957 v -1.05957 h 0.355469 v 1.05957 z"
         style="font-style:normal;font-variant:normal;font-weight:normal;font-stretch:normal;font-size:4.66666651px;font-family:Monaco;-inkscape-font-specification:Monaco;fill:#333333"
         id="path1196" />
      <path
         d="M 75.398436,56.325527 74.293293,53.78028 h 0.464844 l 0.872721,2.014323 0.890951,-2.014323 h 0.423828 l -1.114258,2.545247 z"
         style="font-style:normal;font-variant:normal;font-weight:normal;font-stretch:normal;font-size:4.66666651px;font-family:Monaco;-inkscape-font-specification:Monaco;fill:#333333"
         id="path1198" />
      <path
         d="m 79.04199,55.753587 q -0.193685,0.319011 -0.467123,0.480795 -0.271159,0.161783 -0.499023,0.161783 -0.319011,0 -0.574219,-0.275716 -0.25293,-0.275716 -0.25293,-0.836263 0,-0.442057 0.16862,-0.788411 0.16862,-0.348633 0.451172,-0.549154 0.282552,-0.202799 0.699544,-0.202799 0.120768,0 0.364584,0.02506 0.03646,0.0046 0.109375,0.01139 h 0.426106 v 1.797852 q 0,0.460286 0.0957,0.747395 h -0.442057 q -0.05013,-0.209635 -0.07975,-0.57194 z m 0,-0.50358 v -1.091472 q -0.225586,-0.05924 -0.419271,-0.05924 -0.391927,0 -0.653972,0.30306 -0.259765,0.30306 -0.259765,0.82487 0,0.378255 0.141276,0.57194 0.143555,0.191406 0.325846,0.191406 0.198242,0 0.4375,-0.20052 0.239258,-0.200521 0.428386,-0.540039 z"
         style="font-style:normal;font-variant:normal;font-weight:normal;font-stretch:normal;font-size:4.66666651px;font-family:Monaco;-inkscape-font-specification:Monaco;fill:#333333"
         id="path1200" />
      <path
         d="M 80.384115,56.325527 V 53.78028 h 0.423828 v 0.55599 q 0.198242,-0.314454 0.45345,-0.469401 0.257487,-0.157227 0.57194,-0.157227 0.230143,0 0.460287,0.07064 v 0.918294 H 81.885742 V 54.11752 q -0.107096,-0.01823 -0.16862,-0.01823 -0.236979,0 -0.464843,0.186849 -0.227865,0.186849 -0.444336,0.560547 v 1.478841 z"
         style="font-style:normal;font-variant:normal;font-weight:normal;font-stretch:normal;font-size:4.66666651px;font-family:Monaco;-inkscape-font-specification:Monaco;fill:#333333"
         id="path1202" />
      <path
         d="m 85.091796,56.325527 h -2.139649 v -0.389648 q 0,-0.150391 0.06152,-0.321289 0.06152,-0.173177 0.2347,-0.38737 0.173177,-0.214193 0.366862,-0.412435 l 0.241537,-0.246094 q 0.07292,-0.0752 0.31901,-0.348632 0.246094,-0.273438 0.323568,-0.419271 0.07975,-0.145833 0.07975,-0.28711 0,-0.227864 -0.182291,-0.350911 -0.182292,-0.125325 -0.410157,-0.125325 -0.129882,0 -0.291666,0.02962 -0.159506,0.02962 -0.280274,0.07064 -0.120768,0.03874 -0.391927,0.161784 v -0.375977 q 0.28711,-0.136719 0.574219,-0.186849 0.289388,-0.05241 0.476237,-0.05241 0.275716,0 0.505859,0.09115 0.232422,0.08887 0.344076,0.277995 0.113932,0.189128 0.113932,0.40332 0,0.239258 -0.145833,0.489909 -0.143555,0.250651 -0.544597,0.644857 l -0.259765,0.257487 -0.21875,0.214193 q -0.207357,0.209635 -0.334961,0.405599 -0.127604,0.195963 -0.141276,0.467122 h 1.69987 z"
         style="font-style:normal;font-variant:normal;font-weight:normal;font-stretch:normal;font-size:4.66666651px;font-family:Monaco;-inkscape-font-specification:Monaco;fill:#333333"
         id="path1204" />
      <path
         d="m 85.768552,52.577155 q 0.631185,0.04102 1.064128,0.360026 0.432942,0.316732 0.690429,0.856771 0.259766,0.540039 0.259766,1.082357 0,0.542317 -0.259766,1.082356 -0.257487,0.540039 -0.690429,0.856771 -0.432943,0.319011 -1.064128,0.357748 v -0.353191 q 0.476237,-0.04557 0.818034,-0.321289 0.344075,-0.275716 0.540039,-0.704101 0.198242,-0.428386 0.198242,-0.918294 0,-0.489909 -0.198242,-0.918295 -0.195964,-0.428385 -0.540039,-0.704101 -0.341797,-0.277995 -0.818034,-0.321289 z"
         style="font-style:normal;font-variant:normal;font-weight:normal;font-stretch:normal;font-size:4.66666651px;font-family:Monaco;-inkscape-font-specification:Monaco;fill:#333333"
         id="path1206" />
    </g>
  </g>
</svg>
