<?xml version="1.0" encoding="UTF-8" standalone="no"?>
<!-- Created with Inkscape (http://www.inkscape.org/) -->

<svg
   xmlns:osb="http://www.openswatchbook.org/uri/2009/osb"
   xmlns:dc="http://purl.org/dc/elements/1.1/"
   xmlns:cc="http://creativecommons.org/ns#"
   xmlns:rdf="http://www.w3.org/1999/02/22-rdf-syntax-ns#"
   xmlns:svg="http://www.w3.org/2000/svg"
   xmlns="http://www.w3.org/2000/svg"
   xmlns:xlink="http://www.w3.org/1999/xlink"
   xmlns:sodipodi="http://sodipodi.sourceforge.net/DTD/sodipodi-0.dtd"
   xmlns:inkscape="http://www.inkscape.org/namespaces/inkscape"
   width="128"
   height="128"
   viewBox="0 0 33.866666 33.866668"
   version="1.1"
   id="svg8"
   inkscape:version="0.92.2 5c3e80d, 2017-08-06"
   sodipodi:docname="org 3.svg">
  <defs
     id="defs2">
    <linearGradient
       id="linearGradient1830">
      <stop
         id="stop1826"
         style="stop-color:#d9d9d9;stop-opacity:1"
         offset="0" />
      <stop
         id="stop1828"
         style="stop-color:#ffffff;stop-opacity:1;"
         offset="1" />
    </linearGradient>
    <linearGradient
       osb:paint="solid"
       id="linearGradient6987">
      <stop
         id="stop6985"
         offset="0"
         style="stop-color:#77d2fb;stop-opacity:1;" />
    </linearGradient>
    <linearGradient
       inkscape:collect="always"
       xlink:href="#linearGradient1830"
       id="linearGradient1503-8-3"
       x1="29.203474"
       y1="263.52237"
       x2="4.5843229"
       y2="296.16849"
       gradientUnits="userSpaceOnUse"
       gradientTransform="matrix(0.95481176,0,0,0.95480184,0.765188,12.661897)" />
  </defs>
  <sodipodi:namedview
     id="base"
     pagecolor="#ffffff"
     bordercolor="#666666"
     borderopacity="1.0"
     inkscape:pageopacity="0.0"
     inkscape:pageshadow="2"
     inkscape:zoom="3.3421846"
     inkscape:cx="41.318081"
     inkscape:cy="41.747926"
     inkscape:document-units="mm"
     inkscape:current-layer="layer1"
     showgrid="false"
     units="px"
     inkscape:window-width="1600"
     inkscape:window-height="798"
     inkscape:window-x="0"
     inkscape:window-y="0"
     inkscape:window-maximized="1"
     showguides="false"
     inkscape:snap-nodes="false" />
  <metadata
     id="metadata5">
    <rdf:RDF>
      <cc:Work
         rdf:about="">
        <dc:format>image/svg+xml</dc:format>
        <dc:type
           rdf:resource="http://purl.org/dc/dcmitype/StillImage" />
        <dc:title />
      </cc:Work>
    </rdf:RDF>
  </metadata>
  <g
     inkscape:label="Layer 1"
     inkscape:groupmode="layer"
     id="layer1"
     transform="translate(0,-263.13332)">
    <g
       style="stroke-width:4.08449793"
       inkscape:transform-center-y="-9.4924686"
       inkscape:transform-center-x="5.4653607"
       inkscape:label="Capa 1"
       id="layer1-4-3"
       transform="matrix(0.53602412,0,0,0.5372689,-234.93365,-13.785303)">
      <g
         style="stroke-width:4.08449793"
         id="layer1-3-65-9"
         inkscape:label="Capa 1"
         transform="translate(0.41988239,0.03484499)" />
    </g>
    <g
       style="stroke-width:4.08449793"
       inkscape:transform-center-y="-9.4924686"
       inkscape:transform-center-x="5.4653607"
       inkscape:label="Capa 1"
       id="layer1-4"
       transform="matrix(0.53602412,0,0,0.5372689,-234.93365,-13.7603)">
      <g
         style="stroke-width:4.08449793"
         id="layer1-3-65"
         inkscape:label="Capa 1"
         transform="translate(0.41988239,0.03484499)" />
    </g>
    <path
       style="opacity:0.25;fill:#000000;fill-opacity:1;stroke:none;stroke-width:1.7883966;stroke-miterlimit:4;stroke-dasharray:none;stroke-opacity:1"
       d="m 5.142353,264.8392 v 31.10591 h 23.581961 v -17.45475 c -0.04498,-0.7929 -0.09696,-1.50255 -0.298063,-2.22205 -0.204573,-0.73192 -0.526951,-1.42494 -0.912236,-2.08813 -0.492998,-0.84861 -1.326132,-1.39576 -2.066596,-2.09122 -0.449226,-0.40738 -1.419471,-1.3751 -2.593872,-2.5305 -1.164791,-1.14594 -2.530897,-2.47697 -3.671384,-3.51104 -0.336848,-0.30398 -0.826157,-0.61944 -1.28075,-0.80163 -0.352994,-0.14146 -0.768267,-0.22951 -1.169211,-0.28869 -0.413429,-0.061 -0.811623,-0.0914 -1.110603,-0.1179 z"
       id="path5023-4-5"
       inkscape:connector-curvature="0"
       sodipodi:nodetypes="ccccascscsscc" />
    <path
       sodipodi:nodetypes="ccccascscsscc"
       inkscape:connector-curvature="0"
       id="path4623-8-3"
       d="m 5.142353,264.33819 v 31.10591 h 23.581961 v -17.45475 c -0.04498,-0.7929 -0.09696,-1.50256 -0.298063,-2.22206 -0.204573,-0.73192 -0.526951,-1.42494 -0.912236,-2.08813 -0.492998,-0.8486 -1.326132,-1.39575 -2.066596,-2.09121 -0.449226,-0.40739 -1.419471,-1.37511 -2.593872,-2.53051 -1.164791,-1.14592 -2.530897,-2.47697 -3.671384,-3.51104 -0.336848,-0.30398 -0.826157,-0.61945 -1.28075,-0.80162 -0.352994,-0.14146 -0.768267,-0.22952 -1.169211,-0.28869 -0.413429,-0.0611 -0.811623,-0.0914 -1.110603,-0.1179 z"
       style="opacity:1;fill:url(#linearGradient1503-8-3);fill-opacity:1;stroke:#808080;stroke-width:0.30000001;stroke-miterlimit:4;stroke-dasharray:none;stroke-opacity:1" />
    <path
       sodipodi:nodetypes="ccccsccsc"
       inkscape:connector-curvature="0"
       id="path1355-8-5"
       d="m 19.620994,266.16126 c 0.01558,0.0251 0.535221,0.86284 0.694175,1.33425 0.430727,0.96558 0.246637,3.78888 0.238805,5.39748 0.02644,-0.18505 4.473865,-1.33136 6.782594,0.76747 -0.01476,-0.026 -0.04662,-0.0767 -0.119341,-0.17767 -0.06901,-0.0958 -0.174308,-0.23765 -0.354479,-0.42182 -0.503715,-0.5766 -0.22026,-0.0806 -0.768208,-0.6505 -0.473747,-0.42966 -1.496999,-1.45025 -2.735519,-2.66881 -1.183854,-1.16476 -2.562819,-2.50808 -3.738027,-3.5804 z"
       style="opacity:0.24800002;fill:#000000;fill-opacity:1;stroke:none;stroke-width:0.28614345;stroke-miterlimit:4;stroke-dasharray:none;stroke-opacity:1" />
    <path
       style="opacity:1;fill:#ffffff;fill-opacity:1;stroke:#808080;stroke-width:0.30000001;stroke-miterlimit:4;stroke-dasharray:none;stroke-opacity:1"
       d="m 19.308998,265.6626 c 0.01477,0.0238 0.507514,0.81811 0.658239,1.26509 0.40843,0.91553 0.278738,3.06938 0.271311,4.5946 0.409178,-0.0213 4.921198,-0.70296 6.989915,1.73982 -0.02793,-0.0483 -0.09803,-0.0884 -0.13713,-0.16512 -0.477638,-0.54671 -1.086946,-0.98598 -1.643914,-1.50908 -0.449221,-0.4074 -1.419501,-1.37509 -2.593906,-2.53048 -1.122567,-1.10439 -2.430145,-2.3781 -3.544515,-3.39483 z"
       id="path4753-0-6"
       inkscape:connector-curvature="0"
       sodipodi:nodetypes="ccccccsc" />
    <g
       style="stroke-width:4.08449793"
       inkscape:transform-center-y="-9.4924686"
       inkscape:transform-center-x="5.4653607"
       inkscape:label="Capa 1"
       id="layer1-4-3-2"
       transform="matrix(0.51126596,0,0,0.51245325,-269.32006,5.6156869)">
      <g
         style="stroke-width:4.08449793"
         id="layer1-3-65-9-9"
         inkscape:label="Capa 1"
         transform="translate(0.41988239,0.03484499)" />
    </g>
    <g
       style="stroke-width:4.08449793"
       inkscape:transform-center-y="-9.4924686"
       inkscape:transform-center-x="5.4653607"
       inkscape:label="Capa 1"
       id="layer1-4-1"
       transform="matrix(0.51126596,0,0,0.51245325,-269.32006,5.6395364)">
      <g
         style="stroke-width:4.08449793"
         id="layer1-3-65-2"
         inkscape:label="Capa 1"
         transform="translate(0.41988239,0.03484499)" />
    </g>
    <path
       style="fill:#234db8;stroke:none;stroke-width:0.1;stroke-miterlimit:4;stroke-dasharray:none;stroke-opacity:1;enable-background:new"
       inkscape:connector-curvature="0"
       d="m 9.3688261,291.98141 c -0.469945,-0.10574 -0.732252,-0.29514 -0.881711,-0.637 -0.07022,-0.16014 -0.07924,-0.27358 -0.0983,-1.24215 -0.02006,-1.0117 -0.02508,-1.07483 -0.106829,-1.24729 -0.10733,-0.22585 -0.314968,-0.34186 -0.662537,-0.3706 l -0.24074,-0.0205 v -0.94651 l 0.252276,-0.0262 c 0.346064,-0.0365 0.550693,-0.14526 0.652506,-0.34699 0.07122,-0.14115 0.08275,-0.23354 0.09228,-0.7612 0.02658,-1.4521 0.03561,-1.60454 0.102314,-1.76315 0.08677,-0.20737 0.225694,-0.35571 0.439852,-0.46915 0.349575,-0.18478 0.549189,-0.2166 1.5106449,-0.23765 l 0.903778,-0.0195 0.01053,2.6691 c 0.01053,2.57979 0.01354,2.67321 0.08526,2.82103 0.13341,0.27205 0.225693,0.31208 0.708177,0.31208 h 0.4228 l 0.02257,0.17041 c 0.01204,0.0934 0.02257,0.27051 0.02257,0.39318 v 0.22277 l -0.326002,0.0482 a 3.8423126,3.9323042 0 0 1 -0.662035,0.0267 c -0.596835,-0.0375 -0.961958,-0.24741 -1.159565,-0.66676 -0.185069,-0.39215 -0.201118,-0.62981 -0.202623,-2.9586 l -0.0015,-2.14452 -0.195601,0.0267 c -0.280863,0.0385 -0.422298,0.11909 -0.50104,0.28385 -0.05868,0.12216 -0.07022,0.27718 -0.08677,1.11076 -0.01755,0.90595 -0.02407,0.98038 -0.1033179,1.14669 -0.1093361,0.22995 -0.2031241,0.31823 -0.5291262,0.49635 l -0.2683252,0.1468 0.217167,0.0821 c 0.278858,0.10625 0.467939,0.27051 0.5772751,0.50149 0.08275,0.17451 0.08827,0.23508 0.106327,1.17235 0.02006,1.06764 0.0326,1.13847 0.231712,1.29143 0.06119,0.0472 0.1815579,0.0842 0.3079472,0.095 l 0.289891,0.018 v 0.88183 l -0.3912021,-0.003 A 3.188302,3.2629758 0 0 1 9.368823,291.98206 Z M 23.56848,291.59439 v -0.44605 h 0.260301 c 0.243749,0 0.421796,-0.10061 0.512575,-0.29052 0.0662,-0.13859 0.07624,-0.25921 0.09329,-1.1431 0.01806,-0.92751 0.02458,-0.99783 0.102816,-1.15028 0.100309,-0.19505 0.252777,-0.32183 0.563733,-0.46863 l 0.232214,-0.10933 -0.213656,-0.0924 c -0.254282,-0.10882 -0.472955,-0.30438 -0.584297,-0.52099 -0.07523,-0.14629 -0.08225,-0.22841 -0.100308,-1.14566 -0.01806,-0.90185 -0.02608,-0.99989 -0.09529,-1.1241 -0.08927,-0.15912 -0.265316,-0.25973 -0.511573,-0.29155 l -0.259799,-0.0231 v -0.89723 l 0.454397,0.0267 c 0.822529,0.0477 1.231286,0.28231 1.40833,0.7684 0.04765,0.13089 0.0647,0.3901 0.08225,1.25037 0.02056,0.9927 0.02909,1.09638 0.0978,1.2206 0.0973,0.17452 0.358602,0.31054 0.651503,0.33826 l 0.225192,0.021 v 0.94753 l -0.239737,0.02 c -0.309452,0.0257 -0.529628,0.15039 -0.634451,0.35879 -0.07122,0.14218 -0.07974,0.24227 -0.100308,1.2206 -0.02407,1.14463 -0.04313,1.26782 -0.239236,1.53473 -0.187075,0.25459 -0.737768,0.43938 -1.315042,0.44092 h -0.390702 z m -9.173201,-1.01118 -0.316975,-0.058 c -0.306944,-0.0565 -0.784411,-0.30284 -0.996062,-0.51329 -0.383178,-0.38292 -0.593826,-0.85719 -0.667051,-1.50702 -0.08376,-0.734 0.0657,-1.47262 0.400732,-1.98129 a 1.9374564,1.982834 0 0 1 1.198685,-0.8341 c 0.253279,-0.0554 0.804975,-0.0559 1.06026,0 0.512576,0.11087 0.945908,0.45478 1.192165,0.94599 0.193094,0.386 0.255786,0.69192 0.255786,1.25089 v 0.47222 h -3.055894 l 0.01856,0.14527 c 0.06069,0.47581 0.175539,0.72527 0.444867,0.97165 0.233217,0.21353 0.437846,0.2782 0.876194,0.2782 0.410261,0 0.819519,-0.0924 1.17762,-0.26691 l 0.226697,-0.10984 0.07523,0.39882 0.07423,0.39883 -0.247762,0.11857 a 3.7796199,3.8681431 0 0 1 -0.539157,0.19608 c -0.278858,0.0739 -0.982019,0.13037 -1.178122,0.0944 z m 1.110413,-3.17418 c -0.03862,-0.50148 -0.295909,-0.84847 -0.704666,-0.9501 -0.635955,-0.15912 -1.172605,0.2741 -1.286455,1.03736 l -0.02458,0.16477 h 2.035258 z m 2.370789,3.15929 c -0.553201,-0.0652 -1.146023,-0.26896 -1.114928,-0.38342 0.01003,-0.0349 0.03762,-0.22431 0.06269,-0.42141 0.02508,-0.19711 0.05166,-0.35879 0.06018,-0.35879 0.008,0 0.08025,0.0349 0.159491,0.077 0.433332,0.22944 1.290968,0.37213 1.641546,0.27307 0.333024,-0.0944 0.516588,-0.41936 0.399729,-0.70936 -0.07623,-0.18992 -0.24726,-0.29771 -0.927852,-0.5831 -0.645485,-0.27204 -0.886225,-0.41576 -1.106402,-0.6642 -0.37415,-0.42089 -0.356095,-1.28424 0.03511,-1.69026 0.337538,-0.35057 0.778895,-0.47787 1.564309,-0.45015 0.53665,0.0185 0.823532,0.0754 1.225769,0.24279 l 0.14645,0.0606 -0.128896,0.3747 c -0.07122,0.20635 -0.132407,0.3783 -0.13642,0.38292 -0.004,0.004 -0.141936,-0.0416 -0.30594,-0.10163 -0.928856,-0.34134 -1.659602,-0.20891 -1.659602,0.30078 0,0.24022 0.215663,0.39678 0.92083,0.66831 0.77388,0.2977 1.126965,0.54152 1.31053,0.90287 0.09228,0.1817 0.101311,0.23611 0.101311,0.62519 0,0.38753 -0.0095,0.44656 -0.103318,0.64469 -0.174035,0.36854 -0.504049,0.63031 -0.942397,0.74888 -0.265817,0.0719 -0.855129,0.10164 -1.202196,0.0606 z m 3.583016,0 c -0.350077,-0.0411 -0.609374,-0.10522 -0.889234,-0.22071 l -0.225694,-0.0924 0.05417,-0.41577 c 0.03009,-0.22841 0.05868,-0.42089 0.0637,-0.42757 0.005,-0.007 0.07674,0.0236 0.159491,0.0667 0.435338,0.23098 1.293978,0.37573 1.642048,0.27718 0.232214,-0.0657 0.41628,-0.25357 0.441858,-0.45118 0.04514,-0.34699 -0.145447,-0.51227 -0.983022,-0.85206 -1.07681,-0.43733 -1.391277,-0.80227 -1.348145,-1.56297 0.03711,-0.64263 0.376157,-1.02144 1.064774,-1.1898 0.193595,-0.0467 0.378664,-0.0565 0.793439,-0.0421 0.541665,0.0185 0.746295,0.0575 1.165584,0.22071 l 0.212653,0.0821 -0.1304,0.37367 c -0.07122,0.20532 -0.133912,0.37676 -0.138426,0.38086 -0.0045,0.004 -0.177546,-0.0508 -0.384181,-0.12318 -0.65702,-0.2279 -1.183639,-0.22072 -1.444942,0.0215 -0.101312,0.0939 -0.119869,0.13859 -0.119869,0.28488 0,0.29052 0.132909,0.38702 0.993053,0.72425 1.066278,0.41782 1.368206,0.7725 1.332095,1.56348 -0.02056,0.44348 -0.11736,0.69088 -0.364621,0.93059 -0.208139,0.20223 -0.404744,0.3131 -0.692127,0.39112 -0.266319,0.0719 -0.855129,0.10164 -1.202196,0.0606 z"
       id="path1386" />
  </g>
</svg>
