<?xml version="1.0" encoding="UTF-8" standalone="no"?>
<!-- Created with Inkscape (http://www.inkscape.org/) -->

<svg
   xmlns:osb="http://www.openswatchbook.org/uri/2009/osb"
   xmlns:dc="http://purl.org/dc/elements/1.1/"
   xmlns:cc="http://creativecommons.org/ns#"
   xmlns:rdf="http://www.w3.org/1999/02/22-rdf-syntax-ns#"
   xmlns:svg="http://www.w3.org/2000/svg"
   xmlns="http://www.w3.org/2000/svg"
   xmlns:xlink="http://www.w3.org/1999/xlink"
   xmlns:sodipodi="http://sodipodi.sourceforge.net/DTD/sodipodi-0.dtd"
   xmlns:inkscape="http://www.inkscape.org/namespaces/inkscape"
   width="128"
   height="128"
   viewBox="0 0 33.866666 33.866668"
   version="1.1"
   id="svg8"
   inkscape:version="0.92.2 5c3e80d, 2017-08-06"
   sodipodi:docname="org 2.svg">
  <defs
     id="defs2">
    <linearGradient
       osb:paint="solid"
       id="linearGradient6987">
      <stop
         id="stop6985"
         offset="0"
         style="stop-color:#77d2fb;stop-opacity:1;" />
    </linearGradient>
    <linearGradient
       inkscape:collect="always"
       id="linearGradient1418">
      <stop
         style="stop-color:#e5e5e5;stop-opacity:1"
         offset="0"
         id="stop1414" />
      <stop
         style="stop-color:#fafafa;stop-opacity:1"
         offset="1"
         id="stop1416" />
    </linearGradient>
    <linearGradient
       inkscape:collect="always"
       id="linearGradient1394">
      <stop
         style="stop-color:#666666;stop-opacity:1"
         offset="0"
         id="stop1390" />
      <stop
         style="stop-color:#333333;stop-opacity:1"
         offset="1"
         id="stop1392" />
    </linearGradient>
    <linearGradient
       inkscape:collect="always"
       id="linearGradient1384">
      <stop
         style="stop-color:#fdfdfd;stop-opacity:1"
         offset="0"
         id="stop1380" />
      <stop
         style="stop-color:#b2bdca;stop-opacity:1"
         offset="1"
         id="stop1382" />
    </linearGradient>
    <radialGradient
       inkscape:collect="always"
       xlink:href="#linearGradient1384"
       id="radialGradient1388"
       cx="-286.15668"
       cy="123.45846"
       fx="-286.15668"
       fy="123.45846"
       r="35.237911"
       gradientTransform="matrix(0.19081075,0,0,0.19227176,30.636277,250.93527)"
       gradientUnits="userSpaceOnUse" />
    <radialGradient
       inkscape:collect="always"
       xlink:href="#linearGradient1394"
       id="radialGradient1400"
       cx="-286.57184"
       cy="161.13576"
       fx="-286.57184"
       fy="161.13576"
       r="35.446533"
       gradientTransform="matrix(0.19080023,-0.00200602,0.00344732,0.32854488,30.077772,227.64814)"
       gradientUnits="userSpaceOnUse" />
    <linearGradient
       inkscape:collect="always"
       xlink:href="#linearGradient1418"
       id="linearGradient1420"
       x1="-107.93641"
       y1="54.72073"
       x2="-59.692326"
       y2="117.36597"
       gradientUnits="userSpaceOnUse"
       gradientTransform="matrix(0.19081075,0,0,0.19100177,-3.6248254,262.84746)" />
  </defs>
  <sodipodi:namedview
     id="base"
     pagecolor="#ffffff"
     bordercolor="#666666"
     borderopacity="1.0"
     inkscape:pageopacity="0.0"
     inkscape:pageshadow="2"
     inkscape:zoom="3.3090389"
     inkscape:cx="-99.157772"
     inkscape:cy="71.514687"
     inkscape:document-units="mm"
     inkscape:current-layer="layer1"
     showgrid="false"
     units="px"
     inkscape:window-width="1600"
     inkscape:window-height="792"
     inkscape:window-x="0"
     inkscape:window-y="0"
     inkscape:window-maximized="1"
     showguides="false"
     inkscape:snap-nodes="false" />
  <metadata
     id="metadata5">
    <rdf:RDF>
      <cc:Work
         rdf:about="">
        <dc:format>image/svg+xml</dc:format>
        <dc:type
           rdf:resource="http://purl.org/dc/dcmitype/StillImage" />
        <dc:title />
      </cc:Work>
    </rdf:RDF>
  </metadata>
  <g
     inkscape:label="Layer 1"
     inkscape:groupmode="layer"
     id="layer1"
     transform="translate(0,-263.13332)">
    <g
       style="stroke-width:4.08449793"
       inkscape:transform-center-y="-9.4924686"
       inkscape:transform-center-x="5.4653607"
       inkscape:label="Capa 1"
       id="layer1-4-3"
       transform="matrix(0.53602412,0,0,0.5372689,-234.93365,-13.785303)">
      <g
         style="stroke-width:4.08449793"
         id="layer1-3-65-9"
         inkscape:label="Capa 1"
         transform="translate(0.41988239,0.03484499)" />
    </g>
    <g
       style="stroke-width:4.08449793"
       inkscape:transform-center-y="-9.4924686"
       inkscape:transform-center-x="5.4653607"
       inkscape:label="Capa 1"
       id="layer1-4"
       transform="matrix(0.53602412,0,0,0.5372689,-234.93365,-13.7603)">
      <g
         style="stroke-width:4.08449793"
         id="layer1-3-65"
         inkscape:label="Capa 1"
         transform="translate(0.41988239,0.03484499)" />
    </g>
    <g
       style="stroke-width:4.08449793"
       inkscape:transform-center-y="-9.4924686"
       inkscape:transform-center-x="5.4653607"
       inkscape:label="Capa 1"
       id="layer1-4-3-2"
       transform="matrix(0.51126596,0,0,0.51245325,-269.32006,5.6156869)">
      <g
         style="stroke-width:4.08449793"
         id="layer1-3-65-9-9"
         inkscape:label="Capa 1"
         transform="translate(0.41988239,0.03484499)" />
    </g>
    <g
       style="stroke-width:4.08449793"
       inkscape:transform-center-y="-9.4924686"
       inkscape:transform-center-x="5.4653607"
       inkscape:label="Capa 1"
       id="layer1-4-1"
       transform="matrix(0.51126596,0,0,0.51245325,-269.32006,5.6395364)">
      <g
         style="stroke-width:4.08449793"
         id="layer1-3-65-2"
         inkscape:label="Capa 1"
         transform="translate(0.41988239,0.03484499)" />
    </g>
    <g
       id="g1112"
       transform="translate(35.688891,3.5178233)">
      <path
         style="opacity:0.25;fill:#000000;fill-opacity:1;fill-rule:nonzero;stroke:none;stroke-width:0.30000001;stroke-linecap:round;stroke-linejoin:round;stroke-miterlimit:4;stroke-dasharray:none;stroke-opacity:1"
         d="m -33.752365,264.71608 c -0.403431,0 -0.728193,0.32509 -0.728193,0.72892 v 22.88673 c 0,0.40383 0.324762,0.72902 0.728193,0.72902 h 6.271818 v -1.23931 h -0.932599 c -0.250544,0 -0.452199,-0.20195 -0.452199,-0.45275 v -1.27317 c 0,-0.2508 0.201655,-0.45275 0.452199,-0.45275 h 3.170715 c 0.250544,0 0.452198,0.20195 0.452198,0.45275 v 1.27317 c 0,0.2508 -0.201654,0.45275 -0.452198,0.45275 h -0.95084 v 1.23931 h 14.649429 v -1.23931 h -0.932599 c -0.250544,0 -0.452198,-0.20195 -0.452198,-0.45275 v -1.27317 c 0,-0.2508 0.201654,-0.45275 0.452198,-0.45275 h 3.1707168 c 0.2505422,0 0.4521963,0.20195 0.4521963,0.45275 v 1.27317 c 0,0.2508 -0.2016541,0.45275 -0.4521963,0.45275 h -0.9508418 v 1.23931 h 6.4978196 c 0.4034274,0 0.7281887,-0.32519 0.7281887,-0.72902 V 265.445 c 0,-0.40383 -0.3247613,-0.72892 -0.7281887,-0.72892 z"
         id="path1103"
         inkscape:connector-curvature="0" />
      <path
         inkscape:connector-curvature="0"
         id="rect1402"
         d="m -33.752365,264.18691 c -0.403431,0 -0.728193,0.32509 -0.728193,0.72892 v 22.88673 c 0,0.40383 0.324762,0.72902 0.728193,0.72902 h 6.271818 v -1.23931 h -0.932599 c -0.250544,0 -0.452199,-0.20195 -0.452199,-0.45275 v -1.27317 c 0,-0.2508 0.201655,-0.45275 0.452199,-0.45275 h 3.170715 c 0.250544,0 0.452198,0.20195 0.452198,0.45275 v 1.27317 c 0,0.2508 -0.201654,0.45275 -0.452198,0.45275 h -0.95084 v 1.23931 h 14.649429 v -1.23931 h -0.932599 c -0.250544,0 -0.452198,-0.20195 -0.452198,-0.45275 v -1.27317 c 0,-0.2508 0.201654,-0.45275 0.452198,-0.45275 h 3.1707168 c 0.2505422,0 0.4521963,0.20195 0.4521963,0.45275 v 1.27317 c 0,0.2508 -0.2016541,0.45275 -0.4521963,0.45275 h -0.9508418 v 1.23931 h 6.4978196 c 0.4034274,0 0.7281887,-0.32519 0.7281887,-0.72902 v -22.88673 c 0,-0.40383 -0.3247613,-0.72892 -0.7281887,-0.72892 z"
         style="opacity:1;fill:url(#linearGradient1420);fill-opacity:1;fill-rule:nonzero;stroke:#808080;stroke-width:0.30000001;stroke-linecap:round;stroke-linejoin:round;stroke-miterlimit:4;stroke-dasharray:none;stroke-opacity:1" />
      <rect
         style="opacity:0.25;fill:#000000;fill-opacity:1;fill-rule:nonzero;stroke:none;stroke-width:0.52446204;stroke-linecap:round;stroke-linejoin:round;stroke-miterlimit:4;stroke-dasharray:none;stroke-opacity:1"
         id="rect1440"
         width="15.408118"
         height="15.542493"
         x="-31.669554"
         y="267.38" />
      <path
         inkscape:connector-curvature="0"
         d="m -9.160819,269.98248 c -1.508594,0.003 -2.724328,0.50386 -3.770723,1.55438 -0.724625,0.72748 -1.107365,1.42625 -1.31735,2.4049 -0.09775,0.45557 -0.106113,1.34292 -0.01678,1.77507 0.236813,1.14533 0.838218,2.05724 1.76354,2.67386 0.653234,0.43531 1.292319,0.65241 2.382079,0.80927 v 1e-4 c 0.05553,0.008 0.4190298,0.009 0.8077659,0.004 0.7776653,-0.0122 1.1054316,-0.0613 1.6996378,-0.25466 0.6424811,-0.20908 1.7165025,-0.79838 1.7165025,-0.94182 0,-0.0693 -0.1555242,-0.26867 -0.2095339,-0.26867 -0.019387,0 -0.1354425,0.066 -0.2578476,0.14648 -1.0046022,0.66093 -2.1133814,0.97415 -3.2646904,0.92228 -0.6577033,-0.0296 -1.3697343,-0.20198 -1.8718003,-0.45305 -0.864379,-0.43226 -1.514586,-1.16788 -1.794991,-2.03072 -0.237644,-0.73127 -0.232499,-1.90047 0.01204,-2.74512 0.47308,-1.63414 1.80497,-2.821 3.4804297,-3.10145 0.4565118,-0.0764 1.3567696,-0.0528 1.7881849,0.0469 1.0326186,0.23862 1.8089479,0.82378 2.2190903,1.67262 0.2530278,0.52368 0.2864269,0.69431 0.2858545,1.46555 -4.731e-4,0.61289 -0.00672,0.67953 -0.093473,0.99383 -0.2767144,1.00281 -0.9838478,1.81834 -1.7499262,2.01808 -0.2465569,0.0643 -0.4051135,0.0245 -0.4987407,-0.12506 -0.0559,-0.0894 -0.065267,-0.15254 -0.055522,-0.37694 0.00972,-0.22345 0.0937,-0.55973 0.4914447,-1.96715 0.2638767,-0.93371 0.4718162,-1.71828 0.4621586,-1.74349 -0.013616,-0.0355 -0.1182542,-0.0457 -0.4645278,-0.0453 -0.245852,2.4e-4 -0.4646366,0.0117 -0.4861177,0.0254 -0.021488,0.0137 -0.080889,0.16506 -0.1321252,0.33639 -0.051245,0.17133 -0.1018191,0.31143 -0.1124106,0.3114 -0.010588,-4e-5 -0.062807,-0.0836 -0.1160553,-0.18556 -0.2323103,-0.44504 -0.7027555,-0.64486 -1.3096622,-0.55628 -1.046034,0.15266 -2.008255,1.08359 -2.316413,2.24114 -0.09399,0.35302 -0.10142,0.97568 -0.01548,1.29715 0.234671,0.87783 0.987487,1.35753 1.843503,1.17477 0.4029075,-0.086 0.7377285,-0.3067 1.0418508,-0.68658 l 0.1756172,-0.21932 0.058076,0.18793 c 0.1569207,0.50767 0.5208074,0.75663 1.1049614,0.75567 0.5700701,-9.5e-4 1.1305063,-0.27518 1.6095106,-0.78775 0.61455,-0.65761 0.9559715,-1.49283 1.0068513,-2.46303 0.071247,-1.35863 -0.4866447,-2.50714 -1.5570602,-3.20558 -0.7105813,-0.46364 -1.4700327,-0.66085 -2.5378717,-0.65894 z m -0.050677,2.74977 c 0.243935,-0.009 0.4653302,0.11648 0.5974412,0.36935 0.1002106,0.19181 0.1212451,0.73268 0.04447,1.14278 -0.1929105,1.03051 -0.7878897,2.09873 -1.3024609,2.33837 -0.2996073,0.13953 -0.6006773,0.11744 -0.7869613,-0.0577 -0.125533,-0.11805 -0.223751,-0.38996 -0.242471,-0.67118 -0.03325,-0.49959 0.143696,-1.18522 0.49312,-1.91079 0.232965,-0.48374 0.407906,-0.75138 0.6181538,-0.94538 0.185537,-0.17119 0.3889756,-0.25873 0.5787059,-0.26541 z"
         style="fill:#666666;fill-opacity:1;stroke-width:0.17638889"
         id="path1310" />
      <rect
         y="266.90161"
         x="-31.669552"
         height="15.542491"
         width="15.408118"
         id="rect1294"
         style="opacity:1;fill:#ffffff;fill-opacity:1;fill-rule:nonzero;stroke:#808080;stroke-width:0.15000001;stroke-linecap:round;stroke-linejoin:round;stroke-miterlimit:4;stroke-dasharray:none;stroke-opacity:1" />
      <rect
         style="opacity:1;fill:url(#radialGradient1388);fill-opacity:1;fill-rule:nonzero;stroke:#808080;stroke-width:0.15000001;stroke-linecap:round;stroke-linejoin:round;stroke-miterlimit:4;stroke-dasharray:none;stroke-opacity:1"
         id="rect1296"
         width="13.447545"
         height="13.550509"
         x="-30.689266"
         y="267.89758" />
      <path
         inkscape:connector-curvature="0"
         d="m -24.167008,269.51745 1.01e-4,1e-4 h -1.91e-4 c -0.584795,0 -1.153675,0.20702 -1.442775,0.52501 -0.125219,0.13772 -0.147697,0.14874 -0.302027,0.14874 -0.150433,0 -0.177564,0.0124 -0.277076,0.12584 -0.21611,0.24639 -0.536222,1.04968 -0.536211,1.34572 4e-6,0.0893 0.02342,0.28378 0.05197,0.43202 0.02855,0.14825 0.06628,0.46918 0.08391,0.71323 0.01763,0.24404 0.04783,0.48507 0.06705,0.53566 0.02934,0.0772 0.02317,0.10459 -0.03855,0.17037 -0.0691,0.0736 -0.07239,0.1 -0.05354,0.44129 0.0175,0.31704 0.0851,0.70851 0.194348,1.1262 0.04453,0.17024 0.13066,0.26565 0.264555,0.29305 0.09951,0.0203 0.118866,0.042 0.155696,0.17412 0.02314,0.083 0.05966,0.27674 0.08115,0.43053 0.05553,0.39744 0.114886,0.54069 0.291473,0.70297 0.202087,0.18573 0.197537,0.28876 -0.0141,0.31703 -0.181705,0.0242 -0.228797,0.0739 -0.444408,0.46914 -0.09604,0.17603 -0.200322,0.34685 -0.23172,0.37951 -0.0314,0.0326 -0.533543,0.23191 -1.115903,0.44278 -0.582362,0.21087 -1.19522,0.43962 -1.361822,0.50832 -0.166601,0.0687 -0.520948,0.21409 -0.787454,0.32306 -0.532157,0.21758 -0.580686,0.24426 -0.831726,0.45758 -0.09455,0.0803 -0.181574,0.14608 -0.193461,0.14608 -0.0029,0 -0.0054,-0.007 -0.0076,-0.0175 -0.0022,0.002 -0.0043,0.004 -0.0065,0.006 -9.46e-4,0.002 -0.002,0.004 -0.0029,0.006 -0.0049,0.008 -0.01072,0.0141 -0.01656,0.0207 -0.01063,0.0121 -0.02323,0.0218 -0.03303,0.0345 -0.0068,0.002 -0.0056,0.009 -0.0092,0.013 -0.0055,0.006 -0.01507,0.0132 -0.02189,0.0176 -0.01126,0.008 -0.0099,0.002 -0.01046,0.009 -0.0028,0.003 -0.0052,0.006 -0.0083,0.009 -0.0013,9.5e-4 -0.0027,0.002 -0.0041,0.003 0.0023,0.94248 0.0053,1.67101 0.01,1.67854 0.04084,0.0607 13.468457,0.0606 13.505915,-4.7e-4 0.0049,-0.008 0.008,-0.78278 0.01034,-1.78978 -0.002,-9.4e-4 -0.0011,0 -0.0045,-0.003 -1.9e-4,-1.5e-4 -5.66e-4,-4.7e-4 -7.79e-4,-7.1e-4 -0.01092,-0.004 -0.02373,-0.0102 -0.02801,-0.0194 l -1.01e-4,-10e-5 c -3.78e-4,-9.5e-4 -9.46e-4,-0.002 -0.0011,-0.003 -7.79e-4,-9.5e-4 -0.004,-0.005 -0.0067,-0.009 -7.79e-4,-1.9e-4 -0.0019,-9.4e-4 -0.0033,-0.002 0.0013,0.002 0.0031,0.006 0.0025,0.004 -7.8e-4,-0.002 -0.0028,-0.004 -0.0044,-0.006 -0.01538,-0.0105 -0.01477,-0.0114 -0.02001,-0.0256 1.1e-5,4.7e-4 3.79e-4,9.4e-4 3.79e-4,9.4e-4 -5.68e-4,0.003 -0.005,-0.005 -0.0041,-0.007 -0.0013,-9.5e-4 3.77e-4,4.7e-4 -0.0017,-9.5e-4 -0.0056,-0.003 -0.0113,-0.008 -0.01706,-0.0118 -0.0024,1.1e-4 -0.0047,4.8e-4 -0.007,-4.7e-4 -0.0079,-0.003 -0.01319,-0.01 -0.01962,-0.0149 -5e-5,2e-4 -1.01e-4,0.003 -1.91e-4,0.003 -0.01118,0.0112 -0.0461,0.002 -0.07761,-0.02 -0.457322,-0.32163 -1.38469,-0.727 -2.98544,-1.30495 -0.44427,-0.1604 -0.868412,-0.3272 -0.942458,-0.37073 -0.186684,-0.10977 -0.603903,-0.54461 -0.678792,-0.7074 -0.05152,-0.11201 -0.0818,-0.13761 -0.179556,-0.1516 -0.110865,-0.0159 -0.118236,-0.0249 -0.127891,-0.15784 -0.0082,-0.11335 0.003,-0.14814 0.05778,-0.17746 0.142626,-0.0764 0.236187,-0.31009 0.316914,-0.7913 l 0.07761,-0.46213 0.138834,-0.0622 c 0.220715,-0.0989 0.312523,-0.33581 0.427547,-1.10301 0.07349,-0.49011 0.06882,-0.66395 -0.02012,-0.74689 -0.07928,-0.0739 -0.08063,-0.0295 0.0219,-0.74421 0.06551,-0.4567 0.0467,-1.16508 -0.03856,-1.45321 -0.06966,-0.23539 -0.553526,-1.00794 -0.721388,-1.15176 -0.21696,-0.18589 -0.656953,-0.381 -1.225452,-0.54327 -0.484991,-0.13842 -0.572525,-0.15338 -0.892664,-0.15338 z m 6.853977,9.34124 c 5e-5,0.0139 1.51e-4,0.0258 1.91e-4,0.0396 3.78e-4,7.1e-4 7.8e-4,0.002 9.46e-4,0.002 z m -13.352781,0.40903 -0.0011,9.5e-4 c 5.67e-4,4.7e-4 9.45e-4,9.5e-4 0.0013,0.002 1.2e-5,-1.9e-4 -1.3e-5,-4.7e-4 0,-7.1e-4 2.9e-5,-7.1e-4 -1.9e-4,-0.002 -1.9e-4,-0.002 z m -0.02672,0.044 c -4.9e-5,1.9e-4 -1.52e-4,4.7e-4 -1.9e-4,7.1e-4 -2e-6,9.5e-4 -1.02e-4,0.003 -1.02e-4,0.004 -5e-6,-0.002 3.79e-4,-0.003 3.79e-4,-0.005 z m -0.03175,0.15605 c 3.78e-4,9.5e-4 9.46e-4,0.002 0.0011,0.003 4.5e-5,-9.4e-4 3.78e-4,-0.002 3.78e-4,-0.003 -5.68e-4,-9e-5 -0.0011,-1.9e-4 -0.0015,-4.7e-4 z m -0.0011,0.0115 c -0.0013,9.5e-4 -0.0024,0.003 -0.0036,0.005 0,9.5e-4 -4e-6,0.002 0,0.003 0.0013,-0.002 0.0024,-0.005 0.0036,-0.007 z m 13.433143,0.0818 c -5.67e-4,0.002 -9.45e-4,0.003 -9.45e-4,0.006 7.79e-4,4.8e-4 0.0015,9.5e-4 0.0024,9.5e-4 -1.4e-5,-9.5e-4 -5e-5,-0.002 0,-0.003 -3.78e-4,-9.5e-4 -9.46e-4,-0.003 -0.0013,-0.004 z"
         style="fill:url(#radialGradient1400);fill-opacity:1;stroke-width:0.15000001;stroke-miterlimit:4;stroke-dasharray:none"
         id="path961" />
    </g>
  </g>
</svg>
