<?xml version="1.0" encoding="UTF-8" standalone="no"?>
<!-- Created with Inkscape (http://www.inkscape.org/) -->

<svg
   xmlns:osb="http://www.openswatchbook.org/uri/2009/osb"
   xmlns:dc="http://purl.org/dc/elements/1.1/"
   xmlns:cc="http://creativecommons.org/ns#"
   xmlns:rdf="http://www.w3.org/1999/02/22-rdf-syntax-ns#"
   xmlns:svg="http://www.w3.org/2000/svg"
   xmlns="http://www.w3.org/2000/svg"
   xmlns:xlink="http://www.w3.org/1999/xlink"
   xmlns:sodipodi="http://sodipodi.sourceforge.net/DTD/sodipodi-0.dtd"
   xmlns:inkscape="http://www.inkscape.org/namespaces/inkscape"
   width="128"
   height="128"
   viewBox="0 0 33.866666 33.866668"
   version="1.1"
   id="svg8"
   inkscape:version="0.92.2 5c3e80d, 2017-08-06"
   sodipodi:docname="text-x-readme.svg">
  <defs
     id="defs2">
    <linearGradient
       id="linearGradient1830">
      <stop
         id="stop1826"
         style="stop-color:#d9d9d9;stop-opacity:1"
         offset="0" />
      <stop
         id="stop1828"
         style="stop-color:#ffffff;stop-opacity:1;"
         offset="1" />
    </linearGradient>
    <linearGradient
       osb:paint="solid"
       id="linearGradient6987">
      <stop
         id="stop6985"
         offset="0"
         style="stop-color:#77d2fb;stop-opacity:1;" />
    </linearGradient>
    <linearGradient
       id="linearGradient1077"
       inkscape:collect="always">
      <stop
         id="stop1073"
         offset="0"
         style="stop-color:#fefefe;stop-opacity:1" />
      <stop
         id="stop1075"
         offset="1"
         style="stop-color:#cacaca;stop-opacity:1" />
    </linearGradient>
    <linearGradient
       inkscape:collect="always"
       id="linearGradient1231">
      <stop
         style="stop-color:#fdaa00;stop-opacity:1"
         offset="0"
         id="stop1227" />
      <stop
         style="stop-color:#ff4300;stop-opacity:1"
         offset="1"
         id="stop1229" />
    </linearGradient>
    <linearGradient
       id="linearGradient943"
       inkscape:collect="always">
      <stop
         id="stop939"
         offset="0"
         style="stop-color:#fcfcfc;stop-opacity:1" />
      <stop
         id="stop941"
         offset="1"
         style="stop-color:#ccc9c5;stop-opacity:1" />
    </linearGradient>
    <linearGradient
       gradientTransform="matrix(0.03695456,0,0,0.03695456,7.4563509,269.3822)"
       inkscape:collect="always"
       xlink:href="#linearGradient943"
       id="linearGradient945"
       x1="256"
       y1="96.757812"
       x2="238.75977"
       y2="382.00391"
       gradientUnits="userSpaceOnUse" />
    <linearGradient
       inkscape:collect="always"
       xlink:href="#linearGradient1830"
       id="linearGradient1306"
       gradientUnits="userSpaceOnUse"
       gradientTransform="matrix(0.95481176,0,0,0.95480184,0.765188,12.661897)"
       x1="29.203474"
       y1="263.52237"
       x2="4.5843229"
       y2="296.16849" />
    <linearGradient
       inkscape:collect="always"
       xlink:href="#linearGradient1077"
       id="linearGradient1308"
       gradientUnits="userSpaceOnUse"
       gradientTransform="matrix(0.15867243,0,0,0.15867243,1.6835347,224.83222)"
       x1="97.097816"
       y1="293.0831"
       x2="96.539238"
       y2="392.4646" />
    <linearGradient
       inkscape:collect="always"
       xlink:href="#linearGradient1231"
       id="linearGradient1310"
       gradientUnits="userSpaceOnUse"
       gradientTransform="matrix(0.14449457,0,0,0.14449457,3.0446584,229.66244)"
       x1="97.048286"
       y1="290.09341"
       x2="95.35537"
       y2="380.75809" />
  </defs>
  <sodipodi:namedview
     id="base"
     pagecolor="#ffffff"
     bordercolor="#666666"
     borderopacity="1.0"
     inkscape:pageopacity="0.0"
     inkscape:pageshadow="2"
     inkscape:zoom="2.0170606"
     inkscape:cx="-19.310118"
     inkscape:cy="23.414309"
     inkscape:document-units="mm"
     inkscape:current-layer="layer1"
     showgrid="false"
     units="px"
     inkscape:window-width="1600"
     inkscape:window-height="811"
     inkscape:window-x="0"
     inkscape:window-y="0"
     inkscape:window-maximized="1"
     showguides="false"
     inkscape:snap-nodes="false" />
  <metadata
     id="metadata5">
    <rdf:RDF>
      <cc:Work
         rdf:about="">
        <dc:format>image/svg+xml</dc:format>
        <dc:type
           rdf:resource="http://purl.org/dc/dcmitype/StillImage" />
        <dc:title />
      </cc:Work>
    </rdf:RDF>
  </metadata>
  <g
     inkscape:label="Layer 1"
     inkscape:groupmode="layer"
     id="layer1"
     transform="translate(0,-263.13332)">
    <g
       style="stroke-width:4.08449793"
       inkscape:transform-center-y="-9.4924686"
       inkscape:transform-center-x="5.4653607"
       inkscape:label="Capa 1"
       id="layer1-4-3"
       transform="matrix(0.53602412,0,0,0.5372689,-234.93365,-13.785303)">
      <g
         style="stroke-width:4.08449793"
         id="layer1-3-65-9"
         inkscape:label="Capa 1"
         transform="translate(0.41988239,0.03484499)" />
    </g>
    <g
       style="stroke-width:4.08449793"
       inkscape:transform-center-y="-9.4924686"
       inkscape:transform-center-x="5.4653607"
       inkscape:label="Capa 1"
       id="layer1-4"
       transform="matrix(0.53602412,0,0,0.5372689,-234.93365,-13.7603)">
      <g
         style="stroke-width:4.08449793"
         id="layer1-3-65"
         inkscape:label="Capa 1"
         transform="translate(0.41988239,0.03484499)" />
    </g>
    <g
       style="stroke-width:4.08449793"
       inkscape:transform-center-y="-9.4924686"
       inkscape:transform-center-x="5.4653607"
       inkscape:label="Capa 1"
       id="layer1-4-3-2"
       transform="matrix(0.51126596,0,0,0.51245325,-269.32006,5.6156869)">
      <g
         style="stroke-width:4.08449793"
         id="layer1-3-65-9-9"
         inkscape:label="Capa 1"
         transform="translate(0.41988239,0.03484499)" />
    </g>
    <g
       style="stroke-width:4.08449793"
       inkscape:transform-center-y="-9.4924686"
       inkscape:transform-center-x="5.4653607"
       inkscape:label="Capa 1"
       id="layer1-4-1"
       transform="matrix(0.51126596,0,0,0.51245325,-269.32006,5.6395364)">
      <g
         style="stroke-width:4.08449793"
         id="layer1-3-65-2"
         inkscape:label="Capa 1"
         transform="translate(0.41988239,0.03484499)" />
    </g>
    <g
       transform="translate(-1.6666667e-7,3.3363136e-6)"
       id="layer1-2"
       inkscape:label="Layer 1">
      <g
         transform="matrix(0.53602412,0,0,0.5372689,-234.93365,-13.785303)"
         id="layer1-4-3-7"
         inkscape:label="Capa 1"
         inkscape:transform-center-x="5.4653607"
         inkscape:transform-center-y="-9.4924686"
         style="stroke-width:4.08449793">
        <g
           transform="translate(0.41988239,0.03484499)"
           inkscape:label="Capa 1"
           id="layer1-3-65-9-37"
           style="stroke-width:4.08449793" />
      </g>
      <g
         transform="matrix(0.53602412,0,0,0.5372689,-234.93365,-13.7603)"
         id="layer1-4-90"
         inkscape:label="Capa 1"
         inkscape:transform-center-x="5.4653607"
         inkscape:transform-center-y="-9.4924686"
         style="stroke-width:4.08449793">
        <g
           transform="translate(0.41988239,0.03484499)"
           inkscape:label="Capa 1"
           id="layer1-3-65-23"
           style="stroke-width:4.08449793" />
      </g>
      <path
         sodipodi:nodetypes="ccccascscsscc"
         inkscape:connector-curvature="0"
         id="path5023-4-5-9"
         d="m 5.142353,264.8392 v 31.10591 h 23.581961 v -17.45475 c -0.04498,-0.7929 -0.09696,-1.50255 -0.298063,-2.22205 -0.204573,-0.73192 -0.526951,-1.42494 -0.912236,-2.08813 -0.492998,-0.84861 -1.326132,-1.39576 -2.066596,-2.09122 -0.449226,-0.40738 -1.419471,-1.3751 -2.593872,-2.5305 -1.164791,-1.14594 -2.530897,-2.47697 -3.671384,-3.51104 -0.336848,-0.30398 -0.826157,-0.61944 -1.28075,-0.80163 -0.352994,-0.14146 -0.768267,-0.22951 -1.169211,-0.28869 -0.413429,-0.061 -0.811623,-0.0914 -1.110603,-0.1179 z"
         style="opacity:0.25;fill:#000000;fill-opacity:1;stroke:none;stroke-width:1.7883966;stroke-miterlimit:4;stroke-dasharray:none;stroke-opacity:1" />
      <path
         style="opacity:1;fill:url(#linearGradient1306);fill-opacity:1;stroke:#808080;stroke-width:0.30000001;stroke-miterlimit:4;stroke-dasharray:none;stroke-opacity:1"
         d="m 5.142353,264.33819 v 31.10591 h 23.581961 v -17.45475 c -0.04498,-0.7929 -0.09696,-1.50256 -0.298063,-2.22206 -0.204573,-0.73192 -0.526951,-1.42494 -0.912236,-2.08813 -0.492998,-0.8486 -1.326132,-1.39575 -2.066596,-2.09121 -0.449226,-0.40739 -1.419471,-1.37511 -2.593872,-2.53051 -1.164791,-1.14592 -2.530897,-2.47697 -3.671384,-3.51104 -0.336848,-0.30398 -0.826157,-0.61945 -1.28075,-0.80162 -0.352994,-0.14146 -0.768267,-0.22952 -1.169211,-0.28869 -0.413429,-0.0611 -0.811623,-0.0914 -1.110603,-0.1179 z"
         id="path4623-8-3-9"
         inkscape:connector-curvature="0"
         sodipodi:nodetypes="ccccascscsscc" />
      <circle
         style="opacity:1;fill:url(#linearGradient1308);fill-opacity:1;fill-rule:nonzero;stroke:#808080;stroke-width:0.1;stroke-linecap:round;stroke-linejoin:round;stroke-miterlimit:4;stroke-dasharray:none;stroke-dashoffset:0;stroke-opacity:1"
         id="circle1069-7"
         cx="16.916719"
         cy="278.88989"
         r="8.6428976" />
      <circle
         r="7.8706303"
         cy="278.88989"
         cx="16.916719"
         id="path1201-0"
         style="opacity:1;fill:url(#linearGradient1310);fill-opacity:1;fill-rule:nonzero;stroke:#b22f00;stroke-width:0.1;stroke-linecap:round;stroke-linejoin:round;stroke-miterlimit:4;stroke-dasharray:none;stroke-dashoffset:0;stroke-opacity:1" />
      <ellipse
         ry="4.2445402"
         rx="3.7221348"
         cy="278.87518"
         cx="17.017214"
         id="path822-3"
         style="opacity:0;fill:#ffffff;fill-opacity:1;fill-rule:nonzero;stroke:none;stroke-width:0.22699997;stroke-miterlimit:4;stroke-dasharray:none;stroke-opacity:1" />
      <path
         style="opacity:0.24800002;fill:#000000;fill-opacity:1;stroke:none;stroke-width:0.28614345;stroke-miterlimit:4;stroke-dasharray:none;stroke-opacity:1"
         d="m 19.620994,266.16126 c 0.01558,0.0251 0.535221,0.86284 0.694175,1.33425 0.430727,0.96558 0.246637,3.78888 0.238805,5.39748 0.02644,-0.18505 4.473865,-1.33136 6.782594,0.76747 -0.01476,-0.026 -0.04662,-0.0767 -0.119341,-0.17767 -0.06901,-0.0958 -0.174308,-0.23765 -0.354479,-0.42182 -0.503715,-0.5766 -0.22026,-0.0806 -0.768208,-0.6505 -0.473747,-0.42966 -1.496999,-1.45025 -2.735519,-2.66881 -1.183854,-1.16476 -2.562819,-2.50808 -3.738027,-3.5804 z"
         id="path1355-8-5-9"
         inkscape:connector-curvature="0"
         sodipodi:nodetypes="ccccsccsc" />
      <path
         sodipodi:nodetypes="ccccccsc"
         inkscape:connector-curvature="0"
         id="path4753-0-6-8"
         d="m 19.308998,265.6626 c 0.01477,0.0238 0.507514,0.81811 0.658239,1.26509 0.40843,0.91553 0.278738,3.06938 0.271311,4.5946 0.409178,-0.0213 4.921198,-0.70296 6.989915,1.73982 -0.02793,-0.0483 -0.09803,-0.0884 -0.13713,-0.16512 -0.477638,-0.54671 -1.086946,-0.98598 -1.643914,-1.50908 -0.449221,-0.4074 -1.419501,-1.37509 -2.593906,-2.53048 -1.122567,-1.10439 -2.430145,-2.3781 -3.544515,-3.39483 z"
         style="opacity:1;fill:#ffffff;fill-opacity:1;stroke:#808080;stroke-width:0.30000001;stroke-miterlimit:4;stroke-dasharray:none;stroke-opacity:1" />
      <g
         transform="matrix(0.51126596,0,0,0.51245325,-269.32006,5.6156869)"
         id="layer1-4-3-2-6"
         inkscape:label="Capa 1"
         inkscape:transform-center-x="5.4653607"
         inkscape:transform-center-y="-9.4924686"
         style="stroke-width:4.08449793">
        <g
           transform="translate(0.41988239,0.03484499)"
           inkscape:label="Capa 1"
           id="layer1-3-65-9-9-5"
           style="stroke-width:4.08449793" />
      </g>
      <g
         transform="matrix(0.51126596,0,0,0.51245325,-269.32006,5.6395364)"
         id="layer1-4-1-7"
         inkscape:label="Capa 1"
         inkscape:transform-center-x="5.4653607"
         inkscape:transform-center-y="-9.4924686"
         style="stroke-width:4.08449793">
        <g
           transform="translate(0.41988239,0.03484499)"
           inkscape:label="Capa 1"
           id="layer1-3-65-2-6"
           style="stroke-width:4.08449793" />
      </g>
      <path
         style="opacity:0.25;fill:#000000;fill-opacity:1;fill-rule:nonzero;stroke:none;stroke-width:0.1;stroke-linecap:round;stroke-linejoin:round;stroke-miterlimit:4;stroke-dasharray:none;stroke-dashoffset:0;stroke-opacity:1"
         d="m 16.91672,273.1759 a 5.8847592,5.8847592 0 0 0 -5.884726,5.88473 5.8847592,5.8847592 0 0 0 5.884726,5.88472 5.8847592,5.8847592 0 0 0 5.884725,-5.88472 5.8847592,5.8847592 0 0 0 -5.884725,-5.88473 z m 0.01249,1.22831 c 0.895269,0 1.609429,0.24359 2.142427,0.73079 0.532997,0.48719 0.799503,1.07638 0.799503,1.76761 0,0.39975 -0.09375,0.76824 -0.281129,1.10553 -0.187382,0.33729 -0.553764,0.74744 -1.099254,1.23047 -0.366436,0.3248 -0.605875,0.56424 -0.718304,0.71831 -0.112429,0.15407 -0.195744,0.33106 -0.249877,0.53093 -0.05413,0.19987 -0.08536,0.52467 -0.09369,0.97439 h -1.08056 c -0.0042,-0.14991 -0.0063,-0.26233 -0.0063,-0.33728 0,-0.44139 0.06252,-0.82244 0.187443,-1.14307 0.09161,-0.24151 0.239417,-0.48511 0.443455,-0.73079 0.149906,-0.17905 0.418455,-0.43929 0.805711,-0.78074 0.39142,-0.34561 0.64545,-0.62044 0.762043,-0.82447 0.116594,-0.20404 0.174885,-0.42685 0.174885,-0.66836 0,-0.43723 -0.170716,-0.82032 -0.512167,-1.14928 -0.341452,-0.33312 -0.759924,-0.49968 -1.255445,-0.49968 -0.478864,0 -0.87866,0.14993 -1.199291,0.44974 -0.320631,0.29981 -0.530889,0.76826 -0.630826,1.40536 l -1.155552,-0.13743 c 0.104101,-0.85363 0.412264,-1.50738 0.924442,-1.96126 0.516341,-0.45388 1.197161,-0.68077 2.042461,-0.68077 z m -0.649591,8.03242 h 1.280417 v 1.28042 h -1.280417 z"
         id="path3262"
         inkscape:connector-curvature="0" />
      <path
         inkscape:connector-curvature="0"
         id="path932"
         d="m 16.91672,272.95785 a 5.8847592,5.8847592 0 0 0 -5.884726,5.88472 5.8847592,5.8847592 0 0 0 5.884726,5.88473 5.8847592,5.8847592 0 0 0 5.884725,-5.88473 5.8847592,5.8847592 0 0 0 -5.884725,-5.88472 z m 0.01249,1.2283 c 0.895269,0 1.609429,0.2436 2.142427,0.73079 0.532997,0.4872 0.799503,1.07638 0.799503,1.76761 0,0.39975 -0.09375,0.76825 -0.281129,1.10554 -0.187382,0.33728 -0.553764,0.74744 -1.099254,1.23047 -0.366436,0.32479 -0.605875,0.56423 -0.718304,0.7183 -0.112429,0.15407 -0.195744,0.33106 -0.249877,0.53094 -0.05413,0.19987 -0.08536,0.52467 -0.09369,0.97439 h -1.08056 c -0.0042,-0.14991 -0.0063,-0.26234 -0.0063,-0.33729 0,-0.44139 0.06252,-0.82243 0.187443,-1.14306 0.09161,-0.24152 0.239417,-0.48512 0.443455,-0.73079 0.149906,-0.17906 0.418455,-0.43929 0.805711,-0.78074 0.39142,-0.34562 0.64545,-0.62044 0.762043,-0.82448 0.116594,-0.20404 0.174885,-0.42684 0.174885,-0.66836 0,-0.43722 -0.170716,-0.82031 -0.512167,-1.14927 -0.341452,-0.33312 -0.759924,-0.49968 -1.255445,-0.49968 -0.478864,0 -0.87866,0.14992 -1.199291,0.44973 -0.320631,0.29981 -0.530889,0.76826 -0.630826,1.40536 l -1.155552,-0.13742 c 0.104101,-0.85363 0.412264,-1.50739 0.924442,-1.96127 0.516341,-0.45388 1.197161,-0.68077 2.042461,-0.68077 z m -0.649591,8.03242 h 1.280417 v 1.28042 h -1.280417 z"
         style="opacity:1;fill:url(#linearGradient945);fill-opacity:1;fill-rule:nonzero;stroke:#b22f00;stroke-width:0.08;stroke-linecap:round;stroke-linejoin:round;stroke-miterlimit:4;stroke-dasharray:none;stroke-dashoffset:0;stroke-opacity:1" />
      <g
         transform="matrix(0.53602412,0,0,0.5372689,-272.58521,-13.7853)"
         id="layer1-4-3-0"
         inkscape:label="Capa 1"
         inkscape:transform-center-x="5.4653607"
         inkscape:transform-center-y="-9.4924686"
         style="stroke-width:4.08449793">
        <g
           transform="translate(0.41988239,0.03484499)"
           inkscape:label="Capa 1"
           id="layer1-3-65-9-3"
           style="stroke-width:4.08449793" />
      </g>
      <g
         transform="matrix(0.53602412,0,0,0.5372689,-272.58521,-13.760297)"
         id="layer1-4-9"
         inkscape:label="Capa 1"
         inkscape:transform-center-x="5.4653607"
         inkscape:transform-center-y="-9.4924686"
         style="stroke-width:4.08449793">
        <g
           transform="translate(0.41988239,0.03484499)"
           inkscape:label="Capa 1"
           id="layer1-3-65-8"
           style="stroke-width:4.08449793" />
      </g>
      <g
         transform="matrix(0.51126596,0,0,0.51245325,-306.97162,5.6156902)"
         id="layer1-4-3-2-2"
         inkscape:label="Capa 1"
         inkscape:transform-center-x="5.4653607"
         inkscape:transform-center-y="-9.4924686"
         style="stroke-width:4.08449793">
        <g
           transform="translate(0.41988239,0.03484499)"
           inkscape:label="Capa 1"
           id="layer1-3-65-9-9-7"
           style="stroke-width:4.08449793" />
      </g>
      <g
         transform="matrix(0.51126596,0,0,0.51245325,-306.97162,5.6395397)"
         id="layer1-4-1-0"
         inkscape:label="Capa 1"
         inkscape:transform-center-x="5.4653607"
         inkscape:transform-center-y="-9.4924686"
         style="stroke-width:4.08449793">
        <g
           transform="translate(0.41988239,0.03484499)"
           inkscape:label="Capa 1"
           id="layer1-3-65-2-3"
           style="stroke-width:4.08449793" />
      </g>
      <g
         aria-label="HELP"
         style="font-style:normal;font-weight:normal;font-size:4.60694408px;line-height:1.25;font-family:sans-serif;letter-spacing:0px;word-spacing:0px;fill:#575757;fill-opacity:1;stroke:none;stroke-width:0.26458329"
         id="text1198-9"
         transform="translate(-2.4451995,3.3363136e-6)">
        <path
           d="m 13.517263,293.70905 v -3.44165 h 0.716236 v 1.39758 h 1.423169 v -1.39758 h 0.716235 v 3.44165 h -0.716235 v -1.56968 h -1.423169 v 1.56968 z"
           style="font-style:normal;font-variant:normal;font-weight:600;font-stretch:normal;font-size:4.76249981px;font-family:'Lucida Grande';-inkscape-font-specification:'Lucida Grande Semi-Bold';fill:#575757;fill-opacity:1;stroke-width:0.26458329"
           id="path1801"
           inkscape:connector-curvature="0" />
        <path
           d="m 17.237966,293.70905 v -3.44165 h 2.151032 v 0.47206 h -1.434796 v 0.96041 h 1.176672 v 0.46043 h -1.176672 v 1.0604 h 1.544091 v 0.48835 z"
           style="font-style:normal;font-variant:normal;font-weight:600;font-stretch:normal;font-size:4.76249981px;font-family:'Lucida Grande';-inkscape-font-specification:'Lucida Grande Semi-Bold';fill:#575757;fill-opacity:1;stroke-width:0.26458329"
           id="path1803"
           inkscape:connector-curvature="0" />
        <path
           d="m 20.102908,293.70905 v -3.44165 h 0.716235 v 2.9533 h 1.551068 v 0.48835 z"
           style="font-style:normal;font-variant:normal;font-weight:600;font-stretch:normal;font-size:4.76249981px;font-family:'Lucida Grande';-inkscape-font-specification:'Lucida Grande Semi-Bold';fill:#575757;fill-opacity:1;stroke-width:0.26458329"
           id="path1805"
           inkscape:connector-curvature="0" />
        <path
           d="m 22.874831,293.70905 v -3.44165 h 1.199927 q 0.627869,0 0.895294,0.21161 0.269751,0.20929 0.269751,0.70228 0,0.55811 -0.360443,0.86972 -0.358118,0.30928 -1.00459,0.30928 h -0.297656 v 1.34876 z m 0.702283,-1.82082 h 0.139526 q 0.36742,0 0.579035,-0.16976 0.21394,-0.17208 0.21394,-0.46509 0,-0.51392 -0.653448,-0.51392 h -0.279053 z"
           style="font-style:normal;font-variant:normal;font-weight:600;font-stretch:normal;font-size:4.76249981px;font-family:'Lucida Grande';-inkscape-font-specification:'Lucida Grande Semi-Bold';fill:#575757;fill-opacity:1;stroke-width:0.26458329"
           id="path1807"
           inkscape:connector-curvature="0" />
      </g>
    </g>
  </g>
</svg>
