<?xml version="1.0" encoding="UTF-8" standalone="no"?>
<!-- Created with Inkscape (http://www.inkscape.org/) -->

<svg
   xmlns:osb="http://www.openswatchbook.org/uri/2009/osb"
   xmlns:dc="http://purl.org/dc/elements/1.1/"
   xmlns:cc="http://creativecommons.org/ns#"
   xmlns:rdf="http://www.w3.org/1999/02/22-rdf-syntax-ns#"
   xmlns:svg="http://www.w3.org/2000/svg"
   xmlns="http://www.w3.org/2000/svg"
   xmlns:xlink="http://www.w3.org/1999/xlink"
   xmlns:sodipodi="http://sodipodi.sourceforge.net/DTD/sodipodi-0.dtd"
   xmlns:inkscape="http://www.inkscape.org/namespaces/inkscape"
   width="128"
   height="128"
   viewBox="0 0 33.866666 33.866668"
   version="1.1"
   id="svg8"
   inkscape:version="0.92.2 5c3e80d, 2017-08-06"
   sodipodi:docname="text-x-typescript.svg">
  <defs
     id="defs2">
    <linearGradient
       id="linearGradient1830">
      <stop
         id="stop1826"
         style="stop-color:#d9d9d9;stop-opacity:1"
         offset="0" />
      <stop
         id="stop1828"
         style="stop-color:#ffffff;stop-opacity:1;"
         offset="1" />
    </linearGradient>
    <linearGradient
       osb:paint="solid"
       id="linearGradient6987">
      <stop
         id="stop6985"
         offset="0"
         style="stop-color:#77d2fb;stop-opacity:1;" />
    </linearGradient>
    <linearGradient
       inkscape:collect="always"
       id="linearGradient1102">
      <stop
         style="stop-color:#f2e8ec;stop-opacity:1"
         offset="0"
         id="stop1098" />
      <stop
         style="stop-color:#6e6a6b;stop-opacity:1"
         offset="1"
         id="stop1100" />
    </linearGradient>
    <linearGradient
       inkscape:collect="always"
       id="linearGradient1080">
      <stop
         style="stop-color:#f2e8ec;stop-opacity:1"
         offset="0"
         id="stop1076" />
      <stop
         style="stop-color:#8c8789;stop-opacity:1"
         offset="1"
         id="stop1078" />
    </linearGradient>
    <linearGradient
       id="linearGradient1044"
       inkscape:collect="always">
      <stop
         id="stop1040"
         offset="0"
         style="stop-color:#f4ecee;stop-opacity:1" />
      <stop
         id="stop1042"
         offset="1"
         style="stop-color:#999496;stop-opacity:1" />
    </linearGradient>
    <radialGradient
       gradientUnits="userSpaceOnUse"
       gradientTransform="matrix(0.18051213,0.04827277,-0.05381541,0.20139085,-22.662496,262.80867)"
       r="18.709421"
       fy="110.96981"
       fx="66.918404"
       cy="110.96981"
       cx="66.918404"
       id="radialGradient1082-5"
       xlink:href="#linearGradient1080"
       inkscape:collect="always" />
    <linearGradient
       gradientTransform="matrix(0.15043611,0,0,0.15049308,-26.585269,271.60162)"
       spreadMethod="reflect"
       gradientUnits="userSpaceOnUse"
       y2="8.2757807"
       x2="105.62272"
       y1="-4.3495493"
       x1="93.021446"
       id="linearGradient1090-2"
       xlink:href="#linearGradient1044"
       inkscape:collect="always" />
    <radialGradient
       spreadMethod="reflect"
       gradientUnits="userSpaceOnUse"
       gradientTransform="matrix(0.54740564,-0.62862953,0.14934305,0.13014522,-59.631985,318.50365)"
       r="49.52496"
       fy="69.367668"
       fx="66.996826"
       cy="69.367668"
       cx="66.996826"
       id="radialGradient1096-2"
       xlink:href="#linearGradient1102"
       inkscape:collect="always" />
    <linearGradient
       inkscape:collect="always"
       xlink:href="#linearGradient1830"
       id="linearGradient6320"
       gradientUnits="userSpaceOnUse"
       gradientTransform="matrix(0.95481176,0,0,0.95480184,-29.929229,12.6619)"
       x1="29.203474"
       y1="263.52237"
       x2="4.5843229"
       y2="296.16849" />
  </defs>
  <sodipodi:namedview
     id="base"
     pagecolor="#ffffff"
     bordercolor="#666666"
     borderopacity="1.0"
     inkscape:pageopacity="0.0"
     inkscape:pageshadow="2"
     inkscape:zoom="2.0170606"
     inkscape:cx="88.415676"
     inkscape:cy="49.721841"
     inkscape:document-units="mm"
     inkscape:current-layer="layer1"
     showgrid="false"
     units="px"
     inkscape:window-width="1600"
     inkscape:window-height="811"
     inkscape:window-x="0"
     inkscape:window-y="0"
     inkscape:window-maximized="1"
     showguides="false"
     inkscape:snap-nodes="false" />
  <metadata
     id="metadata5">
    <rdf:RDF>
      <cc:Work
         rdf:about="">
        <dc:format>image/svg+xml</dc:format>
        <dc:type
           rdf:resource="http://purl.org/dc/dcmitype/StillImage" />
        <dc:title />
      </cc:Work>
    </rdf:RDF>
  </metadata>
  <g
     inkscape:label="Layer 1"
     inkscape:groupmode="layer"
     id="layer1"
     transform="translate(0,-263.13332)">
    <g
       style="stroke-width:4.08449793"
       inkscape:transform-center-y="-9.4924686"
       inkscape:transform-center-x="5.4653607"
       inkscape:label="Capa 1"
       id="layer1-4-3"
       transform="matrix(0.53602412,0,0,0.5372689,-234.93365,-13.785303)">
      <g
         style="stroke-width:4.08449793"
         id="layer1-3-65-9"
         inkscape:label="Capa 1"
         transform="translate(0.41988239,0.03484499)" />
    </g>
    <g
       style="stroke-width:4.08449793"
       inkscape:transform-center-y="-9.4924686"
       inkscape:transform-center-x="5.4653607"
       inkscape:label="Capa 1"
       id="layer1-4"
       transform="matrix(0.53602412,0,0,0.5372689,-234.93365,-13.7603)">
      <g
         style="stroke-width:4.08449793"
         id="layer1-3-65"
         inkscape:label="Capa 1"
         transform="translate(0.41988239,0.03484499)" />
    </g>
    <g
       style="stroke-width:4.08449793"
       inkscape:transform-center-y="-9.4924686"
       inkscape:transform-center-x="5.4653607"
       inkscape:label="Capa 1"
       id="layer1-4-3-2"
       transform="matrix(0.51126596,0,0,0.51245325,-269.32006,5.6156869)">
      <g
         style="stroke-width:4.08449793"
         id="layer1-3-65-9-9"
         inkscape:label="Capa 1"
         transform="translate(0.41988239,0.03484499)" />
    </g>
    <g
       style="stroke-width:4.08449793"
       inkscape:transform-center-y="-9.4924686"
       inkscape:transform-center-x="5.4653607"
       inkscape:label="Capa 1"
       id="layer1-4-1"
       transform="matrix(0.51126596,0,0,0.51245325,-269.32006,5.6395364)">
      <g
         style="stroke-width:4.08449793"
         id="layer1-3-65-2"
         inkscape:label="Capa 1"
         transform="translate(0.41988239,0.03484499)" />
    </g>
    <g
       style="stroke-width:4.08449793"
       inkscape:transform-center-y="-9.4924686"
       inkscape:transform-center-x="5.4653607"
       inkscape:label="Capa 1"
       id="layer1-4-3-3"
       transform="matrix(0.53602412,0,0,0.5372689,-279.57223,-16.009989)">
      <g
         style="stroke-width:4.08449793"
         id="layer1-3-65-9-90"
         inkscape:label="Capa 1"
         transform="translate(0.41988239,0.03484499)" />
    </g>
    <g
       style="stroke-width:4.08449793"
       inkscape:transform-center-y="-9.4924686"
       inkscape:transform-center-x="5.4653607"
       inkscape:label="Capa 1"
       id="layer1-4-5"
       transform="matrix(0.53602412,0,0,0.5372689,-279.57223,-15.984986)">
      <g
         style="stroke-width:4.08449793"
         id="layer1-3-65-22"
         inkscape:label="Capa 1"
         transform="translate(0.41988239,0.03484499)" />
    </g>
    <g
       style="stroke-width:4.08449793"
       inkscape:transform-center-y="-9.4924686"
       inkscape:transform-center-x="5.4653607"
       inkscape:label="Capa 1"
       id="layer1-4-3-2-0"
       transform="matrix(0.51126596,0,0,0.51245325,-313.95864,3.3910009)">
      <g
         style="stroke-width:4.08449793"
         id="layer1-3-65-9-9-2"
         inkscape:label="Capa 1"
         transform="translate(0.41988239,0.03484499)" />
    </g>
    <g
       style="stroke-width:4.08449793"
       inkscape:transform-center-y="-9.4924686"
       inkscape:transform-center-x="5.4653607"
       inkscape:label="Capa 1"
       id="layer1-4-1-3"
       transform="matrix(0.51126596,0,0,0.51245325,-313.95864,3.4148504)">
      <g
         style="stroke-width:4.08449793"
         id="layer1-3-65-2-9"
         inkscape:label="Capa 1"
         transform="translate(0.41988239,0.03484499)" />
    </g>
    <g
       style="stroke-width:4.08449793"
       inkscape:transform-center-y="-9.4924686"
       inkscape:transform-center-x="5.4653607"
       inkscape:label="Capa 1"
       id="layer1-4-3-9"
       transform="matrix(0.53602412,0,0,0.5372689,-265.62807,-13.7853)">
      <g
         style="stroke-width:4.08449793"
         id="layer1-3-65-9-0"
         inkscape:label="Capa 1"
         transform="translate(0.41988239,0.03484499)" />
    </g>
    <g
       style="stroke-width:4.08449793"
       inkscape:transform-center-y="-9.4924686"
       inkscape:transform-center-x="5.4653607"
       inkscape:label="Capa 1"
       id="layer1-4-2"
       transform="matrix(0.53602412,0,0,0.5372689,-265.62807,-13.760297)">
      <g
         style="stroke-width:4.08449793"
         id="layer1-3-65-3"
         inkscape:label="Capa 1"
         transform="translate(0.41988239,0.03484499)" />
    </g>
    <g
       style="stroke-width:4.08449793"
       inkscape:transform-center-y="-9.4924686"
       inkscape:transform-center-x="5.4653607"
       inkscape:label="Capa 1"
       id="layer1-4-3-2-5"
       transform="matrix(0.51126596,0,0,0.51245325,-300.01448,5.6156902)">
      <g
         style="stroke-width:4.08449793"
         id="layer1-3-65-9-9-7"
         inkscape:label="Capa 1"
         transform="translate(0.41988239,0.03484499)" />
    </g>
    <g
       style="stroke-width:4.08449793"
       inkscape:transform-center-y="-9.4924686"
       inkscape:transform-center-x="5.4653607"
       inkscape:label="Capa 1"
       id="layer1-4-1-6"
       transform="matrix(0.51126596,0,0,0.51245325,-300.01448,5.6395397)">
      <g
         style="stroke-width:4.08449793"
         id="layer1-3-65-2-2"
         inkscape:label="Capa 1"
         transform="translate(0.41988239,0.03484499)" />
    </g>
    <g
       id="g6356"
       transform="matrix(0.99977932,0,0,0.99978106,30.69138,0.06133761)"
       style="stroke-width:1.00021982">
      <path
         sodipodi:nodetypes="ccccascscsscc"
         inkscape:connector-curvature="0"
         id="path5023-4-5-9"
         d="m -25.552064,264.8392 v 31.10591 h 23.581961 v -17.45475 c -0.04498,-0.7929 -0.09696,-1.50255 -0.298063,-2.22205 -0.204573,-0.73192 -0.526951,-1.42494 -0.912236,-2.08813 -0.492998,-0.84861 -1.326132,-1.39576 -2.066596,-2.09122 -0.449226,-0.40738 -1.419471,-1.3751 -2.593872,-2.5305 -1.164791,-1.14594 -2.530897,-2.47697 -3.671384,-3.51104 -0.336848,-0.30398 -0.826157,-0.61944 -1.28075,-0.80163 -0.352994,-0.14146 -0.768267,-0.22951 -1.169211,-0.28869 -0.413429,-0.061 -0.811623,-0.0914 -1.110603,-0.1179 z"
         style="opacity:0.25;fill:#000000;fill-opacity:1;stroke:none;stroke-width:1.78878975;stroke-miterlimit:4;stroke-dasharray:none;stroke-opacity:1" />
      <path
         style="opacity:1;fill:url(#linearGradient6320);fill-opacity:1;stroke:#808080;stroke-width:0.30006596;stroke-miterlimit:4;stroke-dasharray:none;stroke-opacity:1"
         d="m -25.552064,264.33819 v 31.10591 h 23.581961 v -17.45475 c -0.04498,-0.7929 -0.09696,-1.50256 -0.298063,-2.22206 -0.204573,-0.73192 -0.526951,-1.42494 -0.912236,-2.08813 -0.492998,-0.8486 -1.326132,-1.39575 -2.066596,-2.09121 -0.449226,-0.40739 -1.419471,-1.37511 -2.593872,-2.53051 -1.164791,-1.14592 -2.530897,-2.47697 -3.671384,-3.51104 -0.336848,-0.30398 -0.826157,-0.61945 -1.28075,-0.80162 -0.352994,-0.14146 -0.768267,-0.22952 -1.169211,-0.28869 -0.413429,-0.0611 -0.811623,-0.0914 -1.110603,-0.1179 z"
         id="path4623-8-3-9"
         inkscape:connector-curvature="0"
         sodipodi:nodetypes="ccccascscsscc" />
      <g
         id="g6342"
         style="stroke-width:1.00021982">
        <path
           style="opacity:0.25;fill:#000000;fill-opacity:1;stroke:none;stroke-width:0.15003298;stroke-linecap:butt;stroke-linejoin:miter;stroke-miterlimit:4;stroke-dasharray:none;stroke-opacity:1"
           d="m -14.638033,271.18347 c -0.991831,0.97962 -1.657644,1.33749 -2.560567,2.25413 -0.798081,0.8102 -2.203446,2.06015 -3.179651,3.07268 0,0 -1.099406,1.2518 0.290422,2.77451 0.968035,0.96865 2.351416,2.35105 3.872632,3.90518 0.343994,0.35144 0.685871,0.664 1.019576,0.96325 -0.697488,0.81335 -1.287368,1.54632 -1.992127,2.38694 0,0 -0.136893,1.95514 1.364775,2.49804 1.485921,0.53718 2.653972,-0.91659 2.678389,-0.94723 -0.315267,0.45901 1.59367,-1.9174 3.512447,-4.23954 1.034113,-1.25152 1.013112,-1.21181 2.691309,-3.27577 0.407922,-0.50169 0.166662,-1.4851 -0.274402,-1.92081 -0.94999,-0.93845 -7.422803,-7.47138 -7.422803,-7.47138 z"
           id="path1728-7"
           inkscape:connector-curvature="0" />
        <path
           style="fill:url(#radialGradient1082-5);fill-opacity:1;stroke:#4d4d4d;stroke-width:0.10002199;stroke-linecap:butt;stroke-linejoin:miter;stroke-miterlimit:4;stroke-dasharray:none;stroke-opacity:1"
           d="m -14.912074,283.29322 c -0.832193,0.95395 -1.475296,1.76322 -2.275547,2.71774 0,0 -0.13681,1.95493 1.364858,2.49782 1.501668,0.54288 2.682744,-0.9521 2.682744,-0.9521 l 1.260345,-1.51996 z"
           id="path863-0"
           inkscape:connector-curvature="0"
           sodipodi:nodetypes="ccsccc" />
        <path
           style="fill:url(#radialGradient1096-2);fill-opacity:1;stroke:#4d4d4d;stroke-width:0.10002199;stroke-linecap:butt;stroke-linejoin:miter;stroke-miterlimit:4;stroke-dasharray:none;stroke-opacity:1"
           d="m -14.638145,270.65425 c -0.991831,0.97962 -1.657489,1.33757 -2.560412,2.25421 -0.798081,0.8102 -2.203506,2.06004 -3.179711,3.07257 0,0 -1.099257,1.25165 0.290571,2.77436 0.968035,0.96865 2.351134,2.35134 3.87235,3.90547 1.943924,1.98599 3.995385,2.9673 3.082179,4.8821 -0.441108,0.62094 1.533568,-1.83987 3.500937,-4.22082 1.034113,-1.25152 1.013011,-1.2115 2.691208,-3.27546 0.407922,-0.50169 0.166838,-1.48509 -0.274226,-1.9208 -0.94999,-0.93845 -7.422896,-7.47163 -7.422896,-7.47163 z"
           id="path861-3"
           inkscape:connector-curvature="0"
           sodipodi:nodetypes="csscscsssc" />
        <path
           style="fill:url(#linearGradient1090-2);fill-opacity:1;stroke:#4d4d4d;stroke-width:0.10002199;stroke-linecap:butt;stroke-linejoin:miter;stroke-miterlimit:4;stroke-dasharray:none;stroke-opacity:1"
           d="m -16.754807,278.21098 c 0,0 1.672908,-1.80327 3.402921,-3.48987 0.954295,-0.93034 2.477134,-2.36066 2.612246,-2.59484 0.154019,-0.26693 0.665483,-1.49112 -0.26406,-2.45562 -0.779307,-0.80862 -1.614058,-0.61289 -1.614058,-0.61289 0,0 -0.697132,0.026 -1.245583,0.51023 -0.54845,0.48423 -6.186311,6.06886 -6.186311,6.06886 0,0 1.406403,-1.01481 2.595566,0.0971 1.284269,1.20084 0.699279,2.47702 0.699279,2.47702 z"
           id="path860-9"
           inkscape:connector-curvature="0"
           sodipodi:nodetypes="cssscscsc" />
      </g>
      <path
         style="opacity:0.24800002;fill:#000000;fill-opacity:1;stroke:none;stroke-width:0.28620636;stroke-miterlimit:4;stroke-dasharray:none;stroke-opacity:1"
         d="m -11.073423,266.16126 c 0.01558,0.0251 0.535221,0.86284 0.694175,1.33425 0.430727,0.96558 0.246637,3.78888 0.238805,5.39748 0.02644,-0.18505 4.473865,-1.33136 6.782594,0.76747 -0.01476,-0.026 -0.04662,-0.0767 -0.119341,-0.17767 -0.06901,-0.0958 -0.174308,-0.23765 -0.354479,-0.42182 -0.503715,-0.5766 -0.22026,-0.0806 -0.768208,-0.6505 -0.473747,-0.42966 -1.496999,-1.45025 -2.735519,-2.66881 -1.183854,-1.16476 -2.562819,-2.50808 -3.738027,-3.5804 z"
         id="path1355-8-5-8"
         inkscape:connector-curvature="0"
         sodipodi:nodetypes="ccccsccsc" />
      <path
         sodipodi:nodetypes="ccccccsc"
         inkscape:connector-curvature="0"
         id="path4753-0-6-6"
         d="m -11.385419,265.6626 c 0.01477,0.0238 0.507514,0.81811 0.658239,1.26509 0.40843,0.91553 0.278738,3.06938 0.271311,4.5946 0.409178,-0.0213 4.921198,-0.70296 6.989915,1.73982 -0.02793,-0.0483 -0.09803,-0.0884 -0.13713,-0.16512 -0.477638,-0.54671 -1.086946,-0.98598 -1.643914,-1.50908 -0.449221,-0.4074 -1.419501,-1.37509 -2.593906,-2.53048 -1.122567,-1.10439 -2.430145,-2.3781 -3.544515,-3.39483 z"
         style="opacity:1;fill:#ffffff;fill-opacity:1;stroke:#808080;stroke-width:0.30006596;stroke-miterlimit:4;stroke-dasharray:none;stroke-opacity:1" />
      <g
         transform="translate(-30.694417)"
         id="text1198"
         style="font-style:normal;font-weight:normal;font-size:4.60694408px;line-height:1.25;font-family:sans-serif;letter-spacing:0px;word-spacing:0px;fill:#575757;fill-opacity:1;stroke:none;stroke-width:0.26464146"
         aria-label="TS">
        <path
           inkscape:connector-curvature="0"
           id="path1445"
           style="font-style:normal;font-variant:normal;font-weight:600;font-stretch:normal;font-size:4.76249981px;font-family:'Lucida Grande';-inkscape-font-specification:'Lucida Grande Semi-Bold';fill:#575757;fill-opacity:1;stroke-width:0.26464146"
           d="m 15.281109,293.70905 v -2.96959 h -1.232483 v -0.47206 h 3.183526 v 0.47206 h -1.232483 v 2.96959 z" />
        <path
           inkscape:connector-curvature="0"
           id="path1447"
           style="font-style:normal;font-variant:normal;font-weight:600;font-stretch:normal;font-size:4.76249981px;font-family:'Lucida Grande';-inkscape-font-specification:'Lucida Grande Semi-Bold';fill:#575757;fill-opacity:1;stroke-width:0.26464146"
           d="m 17.518181,293.67881 v -0.59066 q 0.55578,0.23255 0.951105,0.23255 0.276727,0 0.434857,-0.12325 0.160456,-0.12325 0.160456,-0.33486 0,-0.16744 -0.09999,-0.28138 -0.09999,-0.11627 -0.379047,-0.2744 l -0.230218,-0.1279 q -0.462763,-0.26045 -0.653449,-0.49765 -0.190686,-0.23952 -0.190686,-0.5581 0,-0.42556 0.311609,-0.68368 0.313934,-0.25813 0.827856,-0.25813 0.411603,0 0.927851,0.1186 v 0.55113 q -0.527875,-0.19766 -0.834833,-0.19766 -0.237195,0 -0.381372,0.10697 -0.141852,0.10464 -0.141852,0.27673 0,0.14185 0.09999,0.24882 0.09999,0.10697 0.376721,0.26277 l 0.246497,0.1372 q 0.497644,0.27906 0.686004,0.51393 0.188361,0.23486 0.188361,0.57205 0,0.47904 -0.355792,0.75112 -0.355793,0.27208 -0.981336,0.27208 -0.413928,0 -0.962732,-0.11628 z" />
      </g>
    </g>
  </g>
</svg>
