<?xml version="1.0" encoding="UTF-8" standalone="no"?>
<!-- Created with Inkscape (http://www.inkscape.org/) -->

<svg
   xmlns:osb="http://www.openswatchbook.org/uri/2009/osb"
   xmlns:dc="http://purl.org/dc/elements/1.1/"
   xmlns:cc="http://creativecommons.org/ns#"
   xmlns:rdf="http://www.w3.org/1999/02/22-rdf-syntax-ns#"
   xmlns:svg="http://www.w3.org/2000/svg"
   xmlns="http://www.w3.org/2000/svg"
   xmlns:xlink="http://www.w3.org/1999/xlink"
   xmlns:sodipodi="http://sodipodi.sourceforge.net/DTD/sodipodi-0.dtd"
   xmlns:inkscape="http://www.inkscape.org/namespaces/inkscape"
   width="128"
   height="128"
   viewBox="0 0 33.866666 33.866668"
   version="1.1"
   id="svg8"
   inkscape:version="0.92.2 5c3e80d, 2017-08-06"
   sodipodi:docname="text-x-sass.svg">
  <defs
     id="defs2">
    <linearGradient
       id="linearGradient1830">
      <stop
         id="stop1826"
         style="stop-color:#d9d9d9;stop-opacity:1"
         offset="0" />
      <stop
         id="stop1828"
         style="stop-color:#ffffff;stop-opacity:1;"
         offset="1" />
    </linearGradient>
    <linearGradient
       osb:paint="solid"
       id="linearGradient6987">
      <stop
         id="stop6985"
         offset="0"
         style="stop-color:#77d2fb;stop-opacity:1;" />
    </linearGradient>
    <linearGradient
       inkscape:collect="always"
       xlink:href="#linearGradient1830"
       id="linearGradient1503-8-5"
       x1="29.203474"
       y1="263.52237"
       x2="4.5843229"
       y2="296.16849"
       gradientUnits="userSpaceOnUse"
       gradientTransform="matrix(0.95460369,0,0,0.95459377,0.768711,12.720168)" />
  </defs>
  <sodipodi:namedview
     id="base"
     pagecolor="#ffffff"
     bordercolor="#666666"
     borderopacity="1.0"
     inkscape:pageopacity="0.0"
     inkscape:pageshadow="2"
     inkscape:zoom="4.3144885"
     inkscape:cx="73.444933"
     inkscape:cy="49.550752"
     inkscape:document-units="mm"
     inkscape:current-layer="layer1"
     showgrid="false"
     units="px"
     inkscape:window-width="1600"
     inkscape:window-height="811"
     inkscape:window-x="0"
     inkscape:window-y="0"
     inkscape:window-maximized="1"
     showguides="false" />
  <metadata
     id="metadata5">
    <rdf:RDF>
      <cc:Work
         rdf:about="">
        <dc:format>image/svg+xml</dc:format>
        <dc:type
           rdf:resource="http://purl.org/dc/dcmitype/StillImage" />
        <dc:title />
      </cc:Work>
    </rdf:RDF>
  </metadata>
  <g
     inkscape:label="Layer 1"
     inkscape:groupmode="layer"
     id="layer1"
     transform="translate(0,-263.13332)">
    <g
       style="stroke-width:4.08449793"
       inkscape:transform-center-y="-9.4924686"
       inkscape:transform-center-x="5.4653607"
       inkscape:label="Capa 1"
       id="layer1-4-3"
       transform="matrix(0.51126596,0,0,0.51245325,-195.6024,-0.2127134)">
      <g
         style="stroke-width:4.08449793"
         id="layer1-3-65-9"
         inkscape:label="Capa 1"
         transform="translate(0.41988239,0.03484499)" />
    </g>
    <g
       style="stroke-width:4.08449793"
       inkscape:transform-center-y="-9.4924686"
       inkscape:transform-center-x="5.4653607"
       inkscape:label="Capa 1"
       id="layer1-4"
       transform="matrix(0.51126596,0,0,0.51245325,-195.6024,-0.18886526)">
      <g
         style="stroke-width:4.08449793"
         id="layer1-3-65"
         inkscape:label="Capa 1"
         transform="translate(0.41988239,0.03484499)" />
    </g>
    <g
       style="stroke-width:4.08449793"
       inkscape:transform-center-y="-9.4924686"
       inkscape:transform-center-x="5.4653607"
       inkscape:label="Capa 1"
       id="layer1-4-9"
       transform="matrix(0.53590731,0,0,0.53715182,-194.83948,-13.387987)">
      <g
         style="stroke-width:4.08449793"
         id="layer1-3-65-0"
         inkscape:label="Capa 1"
         transform="translate(0.41988239,0.03484499)" />
    </g>
    <g
       style="stroke-width:4.08449793"
       inkscape:transform-center-y="-9.4924686"
       inkscape:transform-center-x="5.4653607"
       inkscape:label="Capa 1"
       id="layer1-4-6"
       transform="matrix(0.53590731,0,0,0.53715182,-194.83948,-13.362992)">
      <g
         style="stroke-width:4.08449793"
         id="layer1-3-65-2"
         inkscape:label="Capa 1"
         transform="translate(0.41988239,0.03484499)" />
    </g>
    <path
       style="opacity:0.25;fill:#000000;fill-opacity:1;stroke:none;stroke-width:1.78800678;stroke-miterlimit:4;stroke-dasharray:none;stroke-opacity:1"
       d="m 5.144922,264.84252 v 31.09913 h 23.576822 v -17.45094 c -0.04497,-0.79273 -0.09694,-1.50223 -0.297998,-2.22157 -0.204528,-0.73176 -0.526836,-1.42463 -0.912037,-2.08767 -0.49289,-0.84843 -1.325843,-1.39546 -2.066145,-2.09077 -0.449129,-0.40729 -1.419162,-1.3748 -2.593307,-2.52995 -1.164537,-1.14569 -2.530346,-2.47643 -3.670584,-3.51027 -0.336775,-0.30392 -0.825977,-0.61931 -1.280471,-0.80146 -0.352917,-0.14143 -0.7681,-0.22946 -1.168956,-0.28862 -0.413339,-0.061 -0.811446,-0.0914 -1.110361,-0.11788 z"
       id="path5023-4-9"
       inkscape:connector-curvature="0"
       sodipodi:nodetypes="ccccascscsscc" />
    <path
       sodipodi:nodetypes="ccccascscsscc"
       inkscape:connector-curvature="0"
       id="path4623-8-5"
       d="m 5.144922,264.34162 v 31.09913 h 23.576822 v -17.45094 c -0.04497,-0.79273 -0.09694,-1.50224 -0.297998,-2.22158 -0.204528,-0.73176 -0.526836,-1.42463 -0.912037,-2.08767 -0.49289,-0.84842 -1.325843,-1.39545 -2.066145,-2.09076 -0.449129,-0.4073 -1.419162,-1.37481 -2.593307,-2.52996 -1.164537,-1.14567 -2.530346,-2.47643 -3.670584,-3.51027 -0.336775,-0.30392 -0.825977,-0.61932 -1.280471,-0.80145 -0.352917,-0.14143 -0.7681,-0.22947 -1.168956,-0.28862 -0.413339,-0.0611 -0.811446,-0.0914 -1.110361,-0.11788 z"
       style="opacity:1;fill:url(#linearGradient1503-8-5);fill-opacity:1;stroke:#808080;stroke-width:0.29993463;stroke-miterlimit:4;stroke-dasharray:none;stroke-opacity:1" />
    <path
       sodipodi:nodetypes="ccccsccsc"
       inkscape:connector-curvature="0"
       id="path1355-8-1"
       d="m 19.620408,266.16429 c 0.01558,0.0251 0.535105,0.86266 0.694024,1.33396 0.430633,0.96537 0.246583,3.78806 0.238753,5.39631 0.02643,-0.18501 4.47289,-1.33107 6.781116,0.7673 -0.01476,-0.026 -0.04661,-0.0767 -0.119315,-0.17763 -0.069,-0.0958 -0.17427,-0.2376 -0.354402,-0.42173 -0.503605,-0.57647 -0.220212,-0.0806 -0.76804,-0.65036 -0.473644,-0.42956 -1.496673,-1.44993 -2.734923,-2.66823 -1.183596,-1.1645 -2.562261,-2.50753 -3.737213,-3.57962 z"
       style="opacity:0.24800002;fill:#000000;fill-opacity:1;stroke:none;stroke-width:0.28608111;stroke-miterlimit:4;stroke-dasharray:none;stroke-opacity:1" />
    <path
       style="opacity:1;fill:#ffffff;fill-opacity:1;stroke:#808080;stroke-width:0.29993463;stroke-miterlimit:4;stroke-dasharray:none;stroke-opacity:1"
       d="m 19.30848,265.66574 c 0.01477,0.0238 0.507404,0.81793 0.658096,1.26482 0.408341,0.91533 0.278677,3.06871 0.271252,4.5936 0.409088,-0.0213 4.920125,-0.70281 6.988392,1.73944 -0.02792,-0.0483 -0.09801,-0.0884 -0.137101,-0.16509 -0.477534,-0.54659 -1.086709,-0.98576 -1.643555,-1.50875 -0.449123,-0.40731 -1.419192,-1.37479 -2.593341,-2.52993 -1.122323,-1.10415 -2.429616,-2.37758 -3.543743,-3.39409 z"
       id="path4753-0-6"
       inkscape:connector-curvature="0"
       sodipodi:nodetypes="ccccccsc" />
    <g
       style="stroke-width:4.08449793"
       inkscape:transform-center-y="-9.4924686"
       inkscape:transform-center-x="5.4653607"
       inkscape:label="Capa 1"
       id="layer1-4-3-2"
       transform="matrix(0.51115455,0,0,0.51234158,-223.24795,-0.14817996)">
      <g
         style="stroke-width:4.08449793"
         id="layer1-3-65-9-7"
         inkscape:label="Capa 1"
         transform="translate(0.41988239,0.03484499)" />
    </g>
    <g
       style="stroke-width:4.08449793"
       inkscape:transform-center-y="-9.4924686"
       inkscape:transform-center-x="5.4653607"
       inkscape:label="Capa 1"
       id="layer1-4-2"
       transform="matrix(0.51115455,0,0,0.51234158,-223.24795,-0.12433702)">
      <g
         style="stroke-width:4.08449793"
         id="layer1-3-65-91"
         inkscape:label="Capa 1"
         transform="translate(0.41988239,0.03484499)" />
    </g>
    <path
       inkscape:connector-curvature="0"
       id="path1496"
       d="m 12.275895,287.17867 c -0.339951,-0.11851 -0.547136,-0.37186 -0.704616,-0.86163 -0.259588,-0.80731 -0.108262,-1.2685 0.673497,-2.05256 0.485599,-0.48703 0.951176,-0.82778 1.86723,-1.3666 0.273308,-0.16076 0.497196,-0.32242 0.497526,-0.35925 3.8e-4,-0.0368 -0.09636,-0.12722 -0.214864,-0.20088 -1.006252,-0.62542 -2.013125,-1.53201 -3.037439,-2.73492 -0.593389,-0.69685 -0.658171,-1.20358 -0.264784,-2.07118 0.914677,-2.01727 3.568475,-3.93978 6.593106,-4.77627 0.469391,-0.12982 0.841844,-0.17943 1.559316,-0.20771 0.847213,-0.0334 0.996319,-0.0218 1.473107,0.11501 1.603181,0.45984 2.302727,1.14206 2.304253,2.24716 7.61e-4,0.5777 -0.128216,1.03645 -0.485454,1.72616 -0.611894,1.18136 -2.045168,2.16965 -3.716444,2.56261 -0.663051,0.1559 -2.07053,0.10242 -2.515453,-0.0956 -0.451301,-0.20083 -0.829806,-0.51736 -0.986896,-0.82528 -0.181967,-0.35669 -0.03941,-0.40729 0.35002,-0.12424 0.616644,0.44819 1.096775,0.53725 1.971324,0.36563 0.75414,-0.14798 1.613518,-0.44512 2.155385,-0.74523 0.962598,-0.53314 1.887336,-1.66581 2.096039,-2.56734 0.141134,-0.60964 -0.360607,-1.2882 -1.120684,-1.51561 -0.887312,-0.26548 -2.268486,-0.0831 -3.74005,0.49391 -1.141829,0.44769 -2.550545,1.23718 -3.328105,1.86518 -0.797108,0.64378 -1.460606,1.75306 -1.457972,2.43753 0.002,0.52447 0.169281,0.82346 0.811433,1.45048 0.571435,0.55797 2.034717,1.8174 2.180441,1.87668 0.04437,0.018 0.481275,-0.16582 0.970912,-0.40859 0.866437,-0.4296 1.761307,-0.77586 2.005089,-0.77586 0.06626,0 0.165325,0.0867 0.220145,0.19274 0.125723,0.24312 0.174244,0.201 -1.201066,1.04279 -0.589242,0.36066 -1.166505,0.7268 -1.282805,0.81364 l -0.211454,0.1579 0.09791,0.31935 c 0.05385,0.17564 0.09865,0.55204 0.09956,0.83645 0.0049,1.53277 -0.941957,2.78674 -2.388763,3.16358 -0.446272,0.11624 -0.972817,0.12533 -1.269447,0.0219 z m 1.557254,-1.26102 c 0.465372,-0.23255 0.801538,-0.57421 1.065842,-1.08325 0.158193,-0.30469 0.184148,-0.43502 0.186484,-0.9365 0.0033,-0.70584 -0.06103,-0.8112 -0.382959,-0.62734 -0.364259,0.20803 -1.198167,0.84838 -1.506974,1.15719 -0.315429,0.31543 -0.616623,0.88363 -0.617677,1.16524 -3.8e-4,0.0963 0.0618,0.2545 0.138126,0.35154 0.19618,0.2494 0.582885,0.2401 1.117158,-0.0269 z"
       style="fill:#dd4b78;fill-opacity:1;stroke-width:0.1;stroke:#800000;stroke-miterlimit:4;stroke-dasharray:none"
       sodipodi:nodetypes="ccscccsccssccccscccccsccccssccccccccccccsccc" />
    <g
       style="stroke-width:4.08449793"
       inkscape:transform-center-y="-9.4924686"
       inkscape:transform-center-x="5.4653607"
       inkscape:label="Capa 1"
       id="layer1-4-3-3"
       transform="matrix(0.53602412,0,0,0.5372689,-273.56083,-13.7853)">
      <g
         style="stroke-width:4.08449793"
         id="layer1-3-65-9-90"
         inkscape:label="Capa 1"
         transform="translate(0.41988239,0.03484499)" />
    </g>
    <g
       style="stroke-width:4.08449793"
       inkscape:transform-center-y="-9.4924686"
       inkscape:transform-center-x="5.4653607"
       inkscape:label="Capa 1"
       id="layer1-4-5"
       transform="matrix(0.53602412,0,0,0.5372689,-273.56083,-13.760297)">
      <g
         style="stroke-width:4.08449793"
         id="layer1-3-65-22"
         inkscape:label="Capa 1"
         transform="translate(0.41988239,0.03484499)" />
    </g>
    <g
       style="stroke-width:4.08449793"
       inkscape:transform-center-y="-9.4924686"
       inkscape:transform-center-x="5.4653607"
       inkscape:label="Capa 1"
       id="layer1-4-3-2-3"
       transform="matrix(0.51126596,0,0,0.51245325,-307.94724,5.6156902)">
      <g
         style="stroke-width:4.08449793"
         id="layer1-3-65-9-9"
         inkscape:label="Capa 1"
         transform="translate(0.41988239,0.03484499)" />
    </g>
    <g
       style="stroke-width:4.08449793"
       inkscape:transform-center-y="-9.4924686"
       inkscape:transform-center-x="5.4653607"
       inkscape:label="Capa 1"
       id="layer1-4-1"
       transform="matrix(0.51126596,0,0,0.51245325,-307.94724,5.6395397)">
      <g
         style="stroke-width:4.08449793"
         id="layer1-3-65-2-7"
         inkscape:label="Capa 1"
         transform="translate(0.41988239,0.03484499)" />
    </g>
  </g>
</svg>
