<?xml version="1.0" encoding="UTF-8" standalone="no"?>
<!-- Created with Inkscape (http://www.inkscape.org/) -->

<svg
   xmlns:osb="http://www.openswatchbook.org/uri/2009/osb"
   xmlns:dc="http://purl.org/dc/elements/1.1/"
   xmlns:cc="http://creativecommons.org/ns#"
   xmlns:rdf="http://www.w3.org/1999/02/22-rdf-syntax-ns#"
   xmlns:svg="http://www.w3.org/2000/svg"
   xmlns="http://www.w3.org/2000/svg"
   xmlns:xlink="http://www.w3.org/1999/xlink"
   xmlns:sodipodi="http://sodipodi.sourceforge.net/DTD/sodipodi-0.dtd"
   xmlns:inkscape="http://www.inkscape.org/namespaces/inkscape"
   width="128"
   height="128"
   viewBox="0 0 33.866666 33.866668"
   version="1.1"
   id="svg8"
   inkscape:version="0.92.2 5c3e80d, 2017-08-06"
   sodipodi:docname="application-rtf.svg">
  <defs
     id="defs2">
    <linearGradient
       inkscape:collect="always"
       id="linearGradient1059">
      <stop
         id="stop1057"
         offset="0"
         style="stop-color:#fafcfd;stop-opacity:1" />
      <stop
         id="stop1055"
         offset="1"
         style="stop-color:#8b8278;stop-opacity:1" />
    </linearGradient>
    <linearGradient
       inkscape:collect="always"
       id="linearGradient951">
      <stop
         style="stop-color:#e24824;stop-opacity:1"
         offset="0"
         id="stop947" />
      <stop
         style="stop-color:#f0b042;stop-opacity:1"
         offset="1"
         id="stop949" />
    </linearGradient>
    <linearGradient
       inkscape:collect="always"
       id="linearGradient931">
      <stop
         style="stop-color:#fbf7f9;stop-opacity:1"
         offset="0"
         id="stop927" />
      <stop
         style="stop-color:#d7d5d6;stop-opacity:1"
         offset="1"
         id="stop929" />
    </linearGradient>
    <linearGradient
       id="linearGradient1830">
      <stop
         id="stop1826"
         style="stop-color:#d9d9d9;stop-opacity:1"
         offset="0" />
      <stop
         id="stop1828"
         style="stop-color:#ffffff;stop-opacity:1;"
         offset="1" />
    </linearGradient>
    <linearGradient
       osb:paint="solid"
       id="linearGradient6987">
      <stop
         id="stop6985"
         offset="0"
         style="stop-color:#77d2fb;stop-opacity:1;" />
    </linearGradient>
    <linearGradient
       inkscape:collect="always"
       xlink:href="#linearGradient1830"
       id="linearGradient1503-8-3"
       x1="29.203474"
       y1="263.52237"
       x2="4.5843229"
       y2="296.16849"
       gradientUnits="userSpaceOnUse"
       gradientTransform="matrix(0.95481176,0,0,0.95480184,0.765188,12.661897)" />
    <radialGradient
       inkscape:collect="always"
       xlink:href="#linearGradient931"
       id="radialGradient935"
       cx="77.506317"
       cy="285.47287"
       fx="77.506317"
       fy="285.47287"
       r="3.820496"
       gradientTransform="matrix(-0.51333036,2.2166528,-1.4581132,-0.33766849,477.3937,207.3981)"
       gradientUnits="userSpaceOnUse" />
    <linearGradient
       inkscape:collect="always"
       xlink:href="#linearGradient951"
       id="linearGradient953"
       x1="79.005127"
       y1="278.12915"
       x2="78.078636"
       y2="277.93124"
       gradientUnits="userSpaceOnUse"
       gradientTransform="translate(-56.089914,-0.17812077)" />
    <linearGradient
       inkscape:collect="always"
       xlink:href="#linearGradient1059"
       id="linearGradient1063"
       x1="20.949751"
       y1="279.96869"
       x2="24.280439"
       y2="280.92032"
       gradientUnits="userSpaceOnUse" />
  </defs>
  <sodipodi:namedview
     id="base"
     pagecolor="#ffffff"
     bordercolor="#666666"
     borderopacity="1.0"
     inkscape:pageopacity="0.0"
     inkscape:pageshadow="2"
     inkscape:zoom="1.6710923"
     inkscape:cx="248.41958"
     inkscape:cy="35.509836"
     inkscape:document-units="mm"
     inkscape:current-layer="layer1"
     showgrid="false"
     units="px"
     inkscape:window-width="1600"
     inkscape:window-height="798"
     inkscape:window-x="0"
     inkscape:window-y="0"
     inkscape:window-maximized="1"
     showguides="false"
     inkscape:snap-nodes="false" />
  <metadata
     id="metadata5">
    <rdf:RDF>
      <cc:Work
         rdf:about="">
        <dc:format>image/svg+xml</dc:format>
        <dc:type
           rdf:resource="http://purl.org/dc/dcmitype/StillImage" />
        <dc:title />
      </cc:Work>
    </rdf:RDF>
  </metadata>
  <g
     inkscape:label="Layer 1"
     inkscape:groupmode="layer"
     id="layer1"
     transform="translate(0,-263.13332)">
    <g
       style="stroke-width:4.08449793"
       inkscape:transform-center-y="-9.4924686"
       inkscape:transform-center-x="5.4653607"
       inkscape:label="Capa 1"
       id="layer1-4-3"
       transform="matrix(0.53602412,0,0,0.5372689,-234.93365,-13.785303)">
      <g
         style="stroke-width:4.08449793"
         id="layer1-3-65-9"
         inkscape:label="Capa 1"
         transform="translate(0.41988239,0.03484499)" />
    </g>
    <g
       style="stroke-width:4.08449793"
       inkscape:transform-center-y="-9.4924686"
       inkscape:transform-center-x="5.4653607"
       inkscape:label="Capa 1"
       id="layer1-4"
       transform="matrix(0.53602412,0,0,0.5372689,-234.93365,-13.7603)">
      <g
         style="stroke-width:4.08449793"
         id="layer1-3-65"
         inkscape:label="Capa 1"
         transform="translate(0.41988239,0.03484499)" />
    </g>
    <path
       style="opacity:0.25;fill:#000000;fill-opacity:1;stroke:none;stroke-width:1.7883966;stroke-miterlimit:4;stroke-dasharray:none;stroke-opacity:1"
       d="m 5.142353,264.8392 v 31.10591 h 23.581961 v -17.45475 c -0.04498,-0.7929 -0.09696,-1.50255 -0.298063,-2.22205 -0.204573,-0.73192 -0.526951,-1.42494 -0.912236,-2.08813 -0.492998,-0.84861 -1.326132,-1.39576 -2.066596,-2.09122 -0.449226,-0.40738 -1.419471,-1.3751 -2.593872,-2.5305 -1.164791,-1.14594 -2.530897,-2.47697 -3.671384,-3.51104 -0.336848,-0.30398 -0.826157,-0.61944 -1.28075,-0.80163 -0.352994,-0.14146 -0.768267,-0.22951 -1.169211,-0.28869 -0.413429,-0.061 -0.811623,-0.0914 -1.110603,-0.1179 z"
       id="path5023-4-5"
       inkscape:connector-curvature="0"
       sodipodi:nodetypes="ccccascscsscc" />
    <g
       transform="translate(-56.089914,0.52916667)"
       id="g1018"
       style="fill:#000000;stroke:none;opacity:0.25">
      <path
         style="fill:#000000;fill-opacity:1;stroke:none;stroke-width:0.05;stroke-linecap:butt;stroke-linejoin:miter;stroke-miterlimit:4;stroke-dasharray:none;stroke-opacity:1"
         d="m 77.288503,280.15767 v -0.65311 h 0.395824 l 0.435407,-3.46006 0.791649,-0.0232 0.653109,3.42388 0.3891,0.0203 v 0.61303 z"
         id="path1008"
         inkscape:connector-curvature="0"
         sodipodi:nodetypes="ccccccccc" />
      <path
         style="opacity:1;fill:#000000;fill-opacity:1;fill-rule:nonzero;stroke:none;stroke-width:0.05;stroke-linecap:round;stroke-linejoin:round;stroke-miterlimit:4;stroke-dasharray:none;stroke-dashoffset:0;stroke-opacity:1"
         d="m 75.82215,282.10504 c 1.804557,-0.15344 3.578131,-0.38433 5.597796,0 0.555988,0.1058 1.021598,0.45563 1.021598,1.0216 v 8.70937 c 0,0.56597 -0.472687,0.88371 -1.021598,1.0216 -1.491313,0.37462 -3.078147,0.65372 -5.597796,0 -0.547827,-0.14213 -1.021598,-0.45563 -1.021598,-1.0216 v -8.70937 c 0,-0.56597 0.457668,-0.97365 1.021598,-1.0216 z"
         id="path1010"
         inkscape:connector-curvature="0"
         sodipodi:nodetypes="sssssssss" />
      <path
         style="opacity:1;fill:#000000;fill-opacity:1;fill-rule:nonzero;stroke:none;stroke-width:0.05;stroke-linecap:round;stroke-linejoin:round;stroke-miterlimit:4;stroke-dasharray:none;stroke-dashoffset:0;stroke-opacity:1"
         d="m 75.556255,283.44852 c 2.043195,0.19306 4.086391,0.11987 6.129586,0 v 7.92568 c -1.973225,0.34985 -4.007205,0.39593 -6.129586,0 z"
         id="path1012"
         inkscape:connector-curvature="0"
         sodipodi:nodetypes="ccccc" />
      <path
         style="opacity:1;fill:#000000;fill-opacity:1;stroke:none;stroke-width:0.05;stroke-linecap:butt;stroke-linejoin:miter;stroke-miterlimit:4;stroke-dasharray:none;stroke-opacity:1"
         d="m 76.129895,284.10919 c 0,0 1.734872,0.0802 2.602973,0.084 0.766837,0.003 2.299899,-0.054 2.299899,-0.054 l 0.07917,6.65317 c 0,0 -1.620587,0.19675 -2.435042,0.20214 -0.85104,0.006 -2.546995,-0.17754 -2.546995,-0.17754 z"
         id="path1014"
         inkscape:connector-curvature="0"
         sodipodi:nodetypes="caccacc" />
      <path
         style="opacity:1;fill:#000000;fill-opacity:1;stroke:none;stroke-width:0.05;stroke-linecap:butt;stroke-linejoin:miter;stroke-miterlimit:4;stroke-dasharray:none;stroke-opacity:1"
         d="m 76.892729,279.89872 v 2.32309 c 0,0 1.113926,0.20305 1.676525,0.19592 0.599329,-0.008 1.780113,-0.25391 1.780113,-0.25391 v -2.25452 c 0,0 -1.196961,0.14237 -1.798086,0.13853 -0.55507,-0.004 -1.658552,-0.14911 -1.658552,-0.14911 z"
         id="path1016"
         inkscape:connector-curvature="0"
         sodipodi:nodetypes="ccaccac" />
    </g>
    <path
       sodipodi:nodetypes="ccccascscsscc"
       inkscape:connector-curvature="0"
       id="path4623-8-3"
       d="m 5.142353,264.33819 v 31.10591 h 23.581961 v -17.45475 c -0.04498,-0.7929 -0.09696,-1.50256 -0.298063,-2.22206 -0.204573,-0.73192 -0.526951,-1.42494 -0.912236,-2.08813 -0.492998,-0.8486 -1.326132,-1.39575 -2.066596,-2.09121 -0.449226,-0.40739 -1.419471,-1.37511 -2.593872,-2.53051 -1.164791,-1.14592 -2.530897,-2.47697 -3.671384,-3.51104 -0.336848,-0.30398 -0.826157,-0.61945 -1.28075,-0.80162 -0.352994,-0.14146 -0.768267,-0.22952 -1.169211,-0.28869 -0.413429,-0.0611 -0.811623,-0.0914 -1.110603,-0.1179 z"
       style="opacity:1;fill:url(#linearGradient1503-8-3);fill-opacity:1;stroke:#808080;stroke-width:0.30000001;stroke-miterlimit:4;stroke-dasharray:none;stroke-opacity:1" />
    <path
       sodipodi:nodetypes="sssssssss"
       inkscape:connector-curvature="0"
       id="path1070"
       d="m 19.732236,282.63421 c 1.804557,-0.15344 3.578131,-0.38433 5.597796,0 0.555988,0.1058 1.021598,0.45563 1.021598,1.0216 v 8.70937 c 0,0.56597 -0.472687,0.88371 -1.021598,1.0216 -1.491313,0.37462 -3.078147,0.65372 -5.597796,0 -0.547827,-0.14213 -1.021598,-0.45563 -1.021598,-1.0216 v -8.70937 c 0,-0.56597 0.457668,-0.97365 1.021598,-1.0216 z"
       style="opacity:0.25;fill:#000000;fill-opacity:1;fill-rule:nonzero;stroke:none;stroke-width:0.15000001;stroke-linecap:round;stroke-linejoin:round;stroke-miterlimit:4;stroke-dasharray:none;stroke-dashoffset:0;stroke-opacity:1" />
    <path
       style="fill:none;stroke:#4f4f4f;stroke-width:0.49999997;stroke-linecap:butt;stroke-linejoin:miter;stroke-miterlimit:4;stroke-dasharray:none;stroke-opacity:1"
       id="path1967"
       d="m 8.1346908,269.25261 h 3.2405482 z m 3.6512572,0 h 3.055234 z m 3.275939,0 h 1.942207 z m 2.162912,0 H 19.3215 Z m 2.339478,0 h 0.838679 z m 1.059383,0 h 0.463483 z m 0.706258,0 h 1.302163 z"
       inkscape:connector-curvature="0"
       sodipodi:nodetypes="ccccccccccccccccccccc" />
    <path
       sodipodi:nodetypes="cccccccccccccccccccccccccccccccccccccccccccccccccccccccccccccccccccccccccccccccccccccccccccccccccccccccccccccccccccccccccccccccccccccccccccccccccccccccccccccccccccccccccccccccccccccccccccccccccccccccccccccccccccccccc"
       inkscape:connector-curvature="0"
       d="M 8.0750561,291.82841 H 9.730347 Z m 1.8980659,0 h 1.544937 z m 1.787712,0 h 1.368373 z m 1.589079,0 h 0.595904 z m 0.838681,0 h 1.324231 z m 1.589078,0 h 1.010039 z m -7.7026159,-1.41356 h 2.5822519 z m 2.8691689,0 h 1.23595 z m 1.456655,0 h 0.617974 z m 0.86075,0 h 1.125598 z m 1.368374,0 h 1.147668 z m 1.368374,0 h 1.11937 z m -7.9233219,-1.4025 h 2.1849819 z m 2.4056889,0 h 3.575427 z m 3.79613,0 h 1.743574 z m 1.964279,0 h 1.118647 z m -8.1660979,-1.42453 h 3.0236619 z m 3.2664389,0 h 3.266439 z m 3.487143,0 h 1.302163 z m 1.522868,0 h 0.85745 z m -8.2764499,-1.41356 h 4.3308469 z m 4.6989619,0 h 4.138159 z m -4.6989619,-2.81602 h 2.1849819 z m 2.4056889,0 h 3.575427 z m 3.79613,0 h 2.456057 z M 8.0750561,281.93363 H 9.730347 Z m 1.8980659,0 h 1.522866 z m 1.787712,0 h 1.368373 z m 1.589079,0 h 0.595904 z m 0.838681,0 h 2.274208 z m -6.1135379,-1.41355 h 2.7808869 z m 3.0015909,0 h 2.979525 z m 3.200228,0 h 2.691382 z m -6.2018189,-1.41355 h 3.0236619 z m 3.2664389,0 h 3.266439 z m 3.487143,0 h 2.25214 z m -6.7535819,-1.41352 h 2.5822519 z m 2.8691689,0 h 1.23595 z m 1.456655,0 h 0.617974 z m 0.86075,0 h 1.125598 z m 1.368374,0 3.087205,0 z m -6.5549479,-2.81604 h 2.1849819 z m 2.4056889,0 h 3.575427 z m 3.79613,0 h 1.743574 z m 1.964279,0 h 1.633218 z m 1.853924,0 h 1.390444 z m 1.61115,0 2.184983,-0.0222 z m 2.383618,-0.0222 h 3.553357 z m -14.0147899,-1.4025 h 2.5822519 z m 2.8691689,0 h 1.23595 z m 1.456655,0 h 0.617974 z m 0.86075,0 h 1.125598 z m 1.368374,0 h 1.147668 z m 1.368374,0 h 1.831853 z m 2.074629,0 h 2.383619 z m 2.604324,0 h 1.589078 z m 1.809784,0 h 0.39727 z M 8.0750561,272.0387 h 2.7367459 z m 2.9795229,0 h 0.860749 z m 1.081455,0 h 1.964277 z m 2.184983,0 h 2.89124 z m 3.134016,0 h 1.964277 z m 2.162912,0 h 0.419339 z m 0.640046,0 h 2.49397 z m 2.758818,0 h 1.302162 z M 8.0750561,270.62516 h 2.7367469 z m 2.9795229,0 h 1.235949 z m 1.456654,0 h 1.942207 z m 2.162912,0 h 2.096701 z m 2.339478,0 h 0.838679 z m 1.059384,0 h 0.463482 z m 0.706258,0 h 1.302162 z"
       id="path997"
       style="fill:none;stroke:#4f4f4f;stroke-width:0.49999997;stroke-linecap:butt;stroke-linejoin:miter;stroke-miterlimit:4;stroke-dasharray:none;stroke-opacity:1" />
    <g
       aria-label="H"
       style="font-style:normal;font-weight:normal;font-size:10.58333302px;line-height:1.25;font-family:sans-serif;letter-spacing:0px;word-spacing:0px;fill:#b56200;fill-opacity:1;stroke:none;stroke-width:0.68117273"
       id="text841"
       transform="matrix(0.38835165,0,0,0.3884948,3.0815012,166.06635)" />
    <path
       sodipodi:nodetypes="ccccsccsc"
       inkscape:connector-curvature="0"
       id="path1355-8-5"
       d="m 19.620994,266.16126 c 0.01558,0.0251 0.535221,0.86284 0.694175,1.33425 0.430727,0.96558 0.246637,3.78888 0.238805,5.39748 0.02644,-0.18505 4.473865,-1.33136 6.782594,0.76747 -0.01476,-0.026 -0.04662,-0.0767 -0.119341,-0.17767 -0.06901,-0.0958 -0.174308,-0.23765 -0.354479,-0.42182 -0.503715,-0.5766 -0.22026,-0.0806 -0.768208,-0.6505 -0.473747,-0.42966 -1.496999,-1.45025 -2.735519,-2.66881 -1.183854,-1.16476 -2.562819,-2.50808 -3.738027,-3.5804 z"
       style="opacity:0.24800002;fill:#000000;fill-opacity:1;stroke:none;stroke-width:0.28614345;stroke-miterlimit:4;stroke-dasharray:none;stroke-opacity:1" />
    <path
       style="opacity:1;fill:#ffffff;fill-opacity:1;stroke:#808080;stroke-width:0.30000001;stroke-miterlimit:4;stroke-dasharray:none;stroke-opacity:1"
       d="m 19.308998,265.6626 c 0.01477,0.0238 0.507514,0.81811 0.658239,1.26509 0.40843,0.91553 0.278738,3.06938 0.271311,4.5946 0.409178,-0.0213 4.921198,-0.70296 6.989915,1.73982 -0.02793,-0.0483 -0.09803,-0.0884 -0.13713,-0.16512 -0.477638,-0.54671 -1.086946,-0.98598 -1.643914,-1.50908 -0.449221,-0.4074 -1.419501,-1.37509 -2.593906,-2.53048 -1.122567,-1.10439 -2.430145,-2.3781 -3.544515,-3.39483 z"
       id="path4753-0-6"
       inkscape:connector-curvature="0"
       sodipodi:nodetypes="ccccccsc" />
    <g
       style="stroke-width:4.08449793"
       inkscape:transform-center-y="-9.4924686"
       inkscape:transform-center-x="5.4653607"
       inkscape:label="Capa 1"
       id="layer1-4-3-2"
       transform="matrix(0.51126596,0,0,0.51245325,-269.32006,5.6156869)">
      <g
         style="stroke-width:4.08449793"
         id="layer1-3-65-9-9"
         inkscape:label="Capa 1"
         transform="translate(0.41988239,0.03484499)" />
    </g>
    <g
       style="stroke-width:4.08449793"
       inkscape:transform-center-y="-9.4924686"
       inkscape:transform-center-x="5.4653607"
       inkscape:label="Capa 1"
       id="layer1-4-1"
       transform="matrix(0.51126596,0,0,0.51245325,-269.32006,5.6395364)">
      <g
         style="stroke-width:4.08449793"
         id="layer1-3-65-2"
         inkscape:label="Capa 1"
         transform="translate(0.41988239,0.03484499)" />
    </g>
    <g
       transform="matrix(0.51096555,0,0,0.51234092,-257.95184,-0.12394024)"
       id="layer1-4-39"
       inkscape:label="Capa 1"
       inkscape:transform-center-x="5.4653607"
       inkscape:transform-center-y="-9.4924686"
       style="stroke-width:4.28401899">
      <g
         transform="translate(0.41988239,0.03484499)"
         inkscape:label="Capa 1"
         id="layer1-3-65-0"
         style="stroke-width:4.28401899" />
    </g>
    <g
       style="stroke-width:4.28401899"
       inkscape:transform-center-y="-9.4924686"
       inkscape:transform-center-x="5.4653607"
       inkscape:label="Capa 1"
       id="layer1-4-5"
       transform="matrix(0.51096555,0,0,0.51234092,-287.40763,0.11490379)">
      <g
         style="stroke-width:4.28401899"
         id="layer1-3-65-2-5"
         inkscape:label="Capa 1"
         transform="translate(0.41988239,0.03484499)" />
    </g>
    <g
       style="stroke-width:4.28401899"
       inkscape:transform-center-y="-9.4924686"
       inkscape:transform-center-x="5.4653607"
       inkscape:label="Capa 1"
       id="layer1-4-4"
       transform="matrix(0.51096555,0,0,0.51234092,-293.39131,0.03648238)">
      <g
         style="stroke-width:4.28401899"
         id="layer1-3-65-8"
         inkscape:label="Capa 1"
         transform="translate(0.41988239,0.03484499)" />
    </g>
    <path
       style="opacity:1;fill:url(#radialGradient935);fill-opacity:1;fill-rule:nonzero;stroke:#808080;stroke-width:0.15000001;stroke-linecap:round;stroke-linejoin:round;stroke-miterlimit:4;stroke-dasharray:none;stroke-dashoffset:0;stroke-opacity:1"
       d="m 19.732236,282.10504 c 1.804557,-0.15344 3.578131,-0.38433 5.597796,0 0.555988,0.1058 1.021598,0.45563 1.021598,1.0216 v 8.70937 c 0,0.56597 -0.472687,0.88371 -1.021598,1.0216 -1.491313,0.37462 -3.078147,0.65372 -5.597796,0 -0.547827,-0.14213 -1.021598,-0.45563 -1.021598,-1.0216 v -8.70937 c 0,-0.56597 0.457668,-0.97365 1.021598,-1.0216 z"
       id="rect919"
       inkscape:connector-curvature="0"
       sodipodi:nodetypes="sssssssss" />
    <path
       sodipodi:nodetypes="sassssassss"
       inkscape:connector-curvature="0"
       id="path1068"
       d="m 21.033718,279.99433 c 0,0 0.985045,0.30499 1.492609,0.30138 0.47417,-0.003 1.390255,-0.30138 1.390255,-0.30138 0.198679,-0.0341 0.363857,0.16228 0.363857,0.36385 v 1.67934 c 0,0.20158 -0.16228,0.36386 -0.363857,0.36386 0,0 -0.9934,0.21272 -1.497409,0.20992 -0.467082,-0.003 -1.385455,-0.20992 -1.385455,-0.20992 -0.199347,-0.0299 -0.363857,-0.16228 -0.363857,-0.36386 v -1.67934 c 0,-0.20157 0.16228,-0.36385 0.363857,-0.36385 z"
       style="opacity:0.25;fill:#000000;fill-opacity:1;fill-rule:nonzero;stroke:none;stroke-width:0.14999999;stroke-linecap:round;stroke-linejoin:round;stroke-miterlimit:4;stroke-dasharray:none;stroke-dashoffset:0;stroke-opacity:1" />
    <path
       sodipodi:nodetypes="ccccc"
       inkscape:connector-curvature="0"
       id="path1025"
       d="m 19.466341,283.6978 c 2.043195,0.19306 4.086391,0.11987 6.129586,0 v 7.92568 c -1.973225,0.34985 -4.007205,0.39593 -6.129586,0 z"
       style="opacity:0.25;fill:#000000;fill-opacity:1;fill-rule:nonzero;stroke:none;stroke-width:0.15000001;stroke-linecap:round;stroke-linejoin:round;stroke-miterlimit:4;stroke-dasharray:none;stroke-dashoffset:0;stroke-opacity:1" />
    <path
       style="opacity:1;fill:#cac0c1;fill-opacity:1;fill-rule:nonzero;stroke:#808080;stroke-width:0.15000001;stroke-linecap:round;stroke-linejoin:round;stroke-miterlimit:4;stroke-dasharray:none;stroke-dashoffset:0;stroke-opacity:1"
       d="m 19.466341,283.44852 c 2.043195,0.19306 4.086391,0.11987 6.129586,0 v 7.92568 c -1.973225,0.34985 -4.007205,0.39593 -6.129586,0 z"
       id="rect917"
       inkscape:connector-curvature="0"
       sodipodi:nodetypes="ccccc" />
    <path
       style="opacity:1;fill:#98a1c2;fill-opacity:1;stroke:#808080;stroke-width:0.15000001;stroke-linecap:butt;stroke-linejoin:miter;stroke-miterlimit:4;stroke-dasharray:none;stroke-opacity:1"
       d="m 20.039981,284.10919 c 0,0 1.734872,0.0802 2.602973,0.084 0.766837,0.003 2.299899,-0.054 2.299899,-0.054 l 0.07917,6.65317 c 0,0 -1.620587,0.19675 -2.435042,0.20214 -0.85104,0.006 -2.546995,-0.17754 -2.546995,-0.17754 z"
       id="path915"
       inkscape:connector-curvature="0"
       sodipodi:nodetypes="caccacc" />
    <path
       style="opacity:1;fill:url(#linearGradient1063);fill-opacity:1;fill-rule:nonzero;stroke:#808080;stroke-width:0.14999999;stroke-linecap:round;stroke-linejoin:round;stroke-miterlimit:4;stroke-dasharray:none;stroke-dashoffset:0;stroke-opacity:1"
       d="m 21.033718,279.7168 c 0,0 0.985045,0.30499 1.492609,0.30138 0.47417,-0.003 1.390255,-0.30138 1.390255,-0.30138 0.198679,-0.0341 0.363857,0.16228 0.363857,0.36385 v 1.67934 c 0,0.20158 -0.16228,0.36386 -0.363857,0.36386 0,0 -0.9934,0.21272 -1.497409,0.20992 -0.467082,-0.003 -1.385455,-0.20992 -1.385455,-0.20992 -0.199347,-0.0299 -0.363857,-0.16228 -0.363857,-0.36386 v -1.67934 c 0,-0.20157 0.16228,-0.36385 0.363857,-0.36385 z"
       id="rect1053"
       inkscape:connector-curvature="0"
       sodipodi:nodetypes="sassssassss" />
    <path
       style="fill:url(#linearGradient953);fill-opacity:1;stroke:#c43828;stroke-width:0.15000001;stroke-linecap:butt;stroke-linejoin:miter;stroke-miterlimit:4;stroke-dasharray:none;stroke-opacity:1"
       d="m 21.191592,279.6297 0.007,-0.30326 h 0.395824 l 0.435407,-3.46006 0.791649,-0.0232 0.653109,3.42388 0.3891,0.0203 0.0105,0.32234 c 0,0 -0.922472,0.31388 -1.400944,0.3127 -0.438212,-0.001 -0.926998,-0.11848 -1.281641,-0.2927 z"
       id="path925"
       inkscape:connector-curvature="0"
       sodipodi:nodetypes="ccccccccac" />
  </g>
</svg>
