<?xml version="1.0" encoding="UTF-8" standalone="no"?>
<!-- Created with Inkscape (http://www.inkscape.org/) -->

<svg
   xmlns:osb="http://www.openswatchbook.org/uri/2009/osb"
   xmlns:dc="http://purl.org/dc/elements/1.1/"
   xmlns:cc="http://creativecommons.org/ns#"
   xmlns:rdf="http://www.w3.org/1999/02/22-rdf-syntax-ns#"
   xmlns:svg="http://www.w3.org/2000/svg"
   xmlns="http://www.w3.org/2000/svg"
   xmlns:xlink="http://www.w3.org/1999/xlink"
   xmlns:sodipodi="http://sodipodi.sourceforge.net/DTD/sodipodi-0.dtd"
   xmlns:inkscape="http://www.inkscape.org/namespaces/inkscape"
   width="128"
   height="128"
   viewBox="0 0 33.866666 33.866668"
   version="1.1"
   id="svg8"
   inkscape:version="0.92.2 5c3e80d, 2017-08-06"
   sodipodi:docname="application-vnd.ms-powerpoint.svg">
  <defs
     id="defs2">
    <linearGradient
       id="linearGradient1830">
      <stop
         id="stop1826"
         style="stop-color:#d9d9d9;stop-opacity:1"
         offset="0" />
      <stop
         id="stop1828"
         style="stop-color:#ffffff;stop-opacity:1;"
         offset="1" />
    </linearGradient>
    <linearGradient
       osb:paint="solid"
       id="linearGradient6987">
      <stop
         id="stop6985"
         offset="0"
         style="stop-color:#77d2fb;stop-opacity:1;" />
    </linearGradient>
    <linearGradient
       gradientTransform="matrix(0.95460264,0,0,0.9545928,34.484863,12.720465)"
       gradientUnits="userSpaceOnUse"
       y2="296.16849"
       x2="4.5843229"
       y1="263.52237"
       x1="29.203474"
       id="linearGradient1503-8-3"
       xlink:href="#linearGradient1830"
       inkscape:collect="always" />
  </defs>
  <sodipodi:namedview
     id="base"
     pagecolor="#ffffff"
     bordercolor="#666666"
     borderopacity="1.0"
     inkscape:pageopacity="0.0"
     inkscape:pageshadow="2"
     inkscape:zoom="2.3395291"
     inkscape:cx="135.89202"
     inkscape:cy="49.860997"
     inkscape:document-units="mm"
     inkscape:current-layer="layer1"
     showgrid="false"
     units="px"
     inkscape:window-width="1600"
     inkscape:window-height="798"
     inkscape:window-x="0"
     inkscape:window-y="0"
     inkscape:window-maximized="1"
     showguides="false" />
  <metadata
     id="metadata5">
    <rdf:RDF>
      <cc:Work
         rdf:about="">
        <dc:format>image/svg+xml</dc:format>
        <dc:type
           rdf:resource="http://purl.org/dc/dcmitype/StillImage" />
        <dc:title />
      </cc:Work>
    </rdf:RDF>
  </metadata>
  <g
     inkscape:label="Layer 1"
     inkscape:groupmode="layer"
     id="layer1"
     transform="translate(0,-263.13332)">
    <g
       style="stroke-width:4.28330278"
       inkscape:transform-center-y="-9.4924686"
       inkscape:transform-center-x="5.4653607"
       inkscape:label="Capa 1"
       id="layer1-4-3"
       transform="matrix(0.51113638,0,0,0.51234092,-221.43864,-0.14779896)">
      <g
         style="stroke-width:4.28330278"
         id="layer1-3-65-9"
         inkscape:label="Capa 1"
         transform="translate(0.41988239,0.03484499)" />
    </g>
    <g
       style="stroke-width:4.28330278"
       inkscape:transform-center-y="-9.4924686"
       inkscape:transform-center-x="5.4653607"
       inkscape:label="Capa 1"
       id="layer1-4"
       transform="matrix(0.51113638,0,0,0.51234092,-222.86954,-0.14779324)">
      <g
         style="stroke-width:4.28330278"
         id="layer1-3-65"
         inkscape:label="Capa 1"
         transform="translate(0.41988239,0.03484499)" />
    </g>
    <g
       style="stroke-width:4.28330278"
       inkscape:transform-center-y="-9.4924686"
       inkscape:transform-center-x="5.4653607"
       inkscape:label="Capa 1"
       id="layer1-4-3-1"
       transform="matrix(0.51113638,0,0,0.51234092,-258.24583,-0.1716333)">
      <g
         style="stroke-width:4.28330278"
         id="layer1-3-65-9-4"
         inkscape:label="Capa 1"
         transform="translate(0.41988239,0.03484499)" />
    </g>
    <g
       style="stroke-width:4.28330278"
       inkscape:transform-center-y="-9.4924686"
       inkscape:transform-center-x="5.4653607"
       inkscape:label="Capa 1"
       id="layer1-4-7"
       transform="matrix(0.51113638,0,0,0.51234092,-261.01738,-0.17162758)">
      <g
         style="stroke-width:4.28330278"
         id="layer1-3-65-1"
         inkscape:label="Capa 1"
         transform="translate(0.41988239,0.03484499)" />
    </g>
    <g
       style="stroke-width:4.28330278"
       inkscape:transform-center-y="-9.4924686"
       inkscape:transform-center-x="5.4653607"
       inkscape:label="Capa 1"
       id="layer1-4-3-2"
       transform="matrix(0.51113638,0,0,0.51234092,-290.834,-0.19547336)">
      <g
         style="stroke-width:4.28330278"
         id="layer1-3-65-9-7"
         inkscape:label="Capa 1"
         transform="translate(0.41988239,0.03484499)" />
    </g>
    <g
       style="stroke-width:4.28330278"
       inkscape:transform-center-y="-9.4924686"
       inkscape:transform-center-x="5.4653607"
       inkscape:label="Capa 1"
       id="layer1-4-37"
       transform="matrix(0.51113638,0,0,0.51234092,-293.60555,-0.19546764)">
      <g
         style="stroke-width:4.28330278"
         id="layer1-3-65-90"
         inkscape:label="Capa 1"
         transform="translate(0.41988239,0.03484499)" />
    </g>
    <g
       style="stroke-width:4.08449793"
       inkscape:transform-center-y="-9.4924686"
       inkscape:transform-center-x="5.4653607"
       inkscape:label="Capa 1"
       id="layer1-4-3-390"
       transform="matrix(0.53602412,0,0,0.5372689,-204.00604,-13.7853)">
      <g
         style="stroke-width:4.08449793"
         id="layer1-3-65-9-5"
         inkscape:label="Capa 1"
         transform="translate(0.41988239,0.03484499)" />
    </g>
    <g
       style="stroke-width:4.08449793"
       inkscape:transform-center-y="-9.4924686"
       inkscape:transform-center-x="5.4653607"
       inkscape:label="Capa 1"
       id="layer1-4-2"
       transform="matrix(0.53602412,0,0,0.5372689,-204.00604,-13.760297)">
      <g
         style="stroke-width:4.08449793"
         id="layer1-3-65-273"
         inkscape:label="Capa 1"
         transform="translate(0.41988239,0.03484499)" />
    </g>
    <g
       style="stroke-width:4.08449793"
       inkscape:transform-center-y="-9.4924686"
       inkscape:transform-center-x="5.4653607"
       inkscape:label="Capa 1"
       id="layer1-4-3-2-7"
       transform="matrix(0.51126596,0,0,0.51245325,-238.39245,5.6156902)">
      <g
         style="stroke-width:4.08449793"
         id="layer1-3-65-9-9"
         inkscape:label="Capa 1"
         transform="translate(0.41988239,0.03484499)" />
    </g>
    <g
       style="stroke-width:4.08449793"
       inkscape:transform-center-y="-9.4924686"
       inkscape:transform-center-x="5.4653607"
       inkscape:label="Capa 1"
       id="layer1-4-1"
       transform="matrix(0.51126596,0,0,0.51245325,-238.39245,5.6395397)">
      <g
         style="stroke-width:4.08449793"
         id="layer1-3-65-2"
         inkscape:label="Capa 1"
         transform="translate(0.41988239,0.03484499)" />
    </g>
    <g
       style="stroke-width:4.28330564"
       inkscape:transform-center-y="-9.4924686"
       inkscape:transform-center-x="5.4653607"
       inkscape:label="Capa 1"
       id="layer1-4-3-3"
       transform="matrix(0.51113566,0,0,0.51234092,-228.8185,-0.14779562)">
      <g
         style="stroke-width:4.28330564"
         id="layer1-3-65-9-90"
         inkscape:label="Capa 1"
         transform="translate(0.41988239,0.03484499)" />
    </g>
    <g
       style="stroke-width:4.28330564"
       inkscape:transform-center-y="-9.4924686"
       inkscape:transform-center-x="5.4653607"
       inkscape:label="Capa 1"
       id="layer1-4-5"
       transform="matrix(0.51113566,0,0,0.51234092,-231.59005,-0.1477899)">
      <g
         style="stroke-width:4.28330564"
         id="layer1-3-65-22"
         inkscape:label="Capa 1"
         transform="translate(0.41988239,0.03484499)" />
    </g>
    <g
       style="stroke-width:4.28326607"
       inkscape:transform-center-y="-9.4924686"
       inkscape:transform-center-x="5.4653607"
       inkscape:label="Capa 1"
       id="layer1-4-3-8"
       transform="matrix(0.51114514,0,0,0.51234092,-153.67291,-0.14779662)">
      <g
         style="stroke-width:4.28326607"
         id="layer1-3-65-9-6"
         inkscape:label="Capa 1"
         transform="translate(0.41988239,0.03484499)" />
    </g>
    <g
       style="stroke-width:4.28326607"
       inkscape:transform-center-y="-9.4924686"
       inkscape:transform-center-x="5.4653607"
       inkscape:label="Capa 1"
       id="layer1-4-57"
       transform="matrix(0.51114514,0,0,0.51234092,-156.44451,-0.1477909)">
      <g
         style="stroke-width:4.28326607"
         id="layer1-3-65-6"
         inkscape:label="Capa 1"
         transform="translate(0.41988239,0.03484499)" />
    </g>
    <g
       style="stroke-width:4.28331709"
       inkscape:transform-center-y="-9.4924686"
       inkscape:transform-center-x="5.4653607"
       inkscape:label="Capa 1"
       id="layer1-4-3-39"
       transform="matrix(0.51113298,0,0,0.51234092,-153.06704,-0.14779562)">
      <g
         style="stroke-width:4.28331709"
         id="layer1-3-65-9-0"
         inkscape:label="Capa 1"
         transform="translate(0.41988239,0.03484499)" />
    </g>
    <g
       style="stroke-width:4.28331709"
       inkscape:transform-center-y="-9.4924686"
       inkscape:transform-center-x="5.4653607"
       inkscape:label="Capa 1"
       id="layer1-4-52"
       transform="matrix(0.51113298,0,0,0.51234092,-154.49792,-0.1477899)">
      <g
         style="stroke-width:4.28331709"
         id="layer1-3-65-27"
         inkscape:label="Capa 1"
         transform="translate(0.41988239,0.03484499)" />
    </g>
    <g
       id="g1223"
       transform="translate(-32.166499,3.3363136e-6)">
      <path
         sodipodi:nodetypes="ccccascscsscc"
         inkscape:connector-curvature="0"
         id="path5023-4-5"
         d="m 38.861069,264.84255 v 31.0991 h 23.576796 v -17.45093 c -0.04497,-0.79272 -0.09694,-1.50222 -0.297998,-2.22156 -0.204528,-0.73176 -0.526835,-1.42463 -0.912036,-2.08767 -0.49289,-0.84843 -1.325841,-1.39546 -2.066143,-2.09076 -0.449128,-0.40729 -1.41916,-1.3748 -2.593304,-2.52995 -1.164536,-1.14569 -2.530343,-2.47643 -3.67058,-3.51027 -0.336774,-0.30391 -0.825976,-0.61931 -1.280469,-0.80146 -0.352917,-0.14142 -0.768099,-0.22946 -1.168955,-0.28862 -0.413339,-0.061 -0.811446,-0.0914 -1.11036,-0.11788 z"
         style="opacity:0.25;fill:#000000;fill-opacity:1;stroke:none;stroke-width:1.7883966;stroke-miterlimit:4;stroke-dasharray:none;stroke-opacity:1" />
      <path
         style="opacity:1;fill:url(#linearGradient1503-8-3);fill-opacity:1;stroke:#808080;stroke-width:0.30000001;stroke-miterlimit:4;stroke-dasharray:none;stroke-opacity:1"
         d="m 38.861069,264.34165 v 31.0991 h 23.576796 v -17.45093 c -0.04497,-0.79272 -0.09694,-1.50223 -0.297998,-2.22157 -0.204528,-0.73176 -0.526835,-1.42463 -0.912036,-2.08767 -0.49289,-0.84842 -1.325841,-1.39545 -2.066143,-2.09075 -0.449128,-0.4073 -1.41916,-1.37481 -2.593304,-2.52996 -1.164536,-1.14567 -2.530343,-2.47643 -3.67058,-3.51027 -0.336774,-0.30391 -0.825976,-0.61932 -1.280469,-0.80145 -0.352917,-0.14142 -0.768099,-0.22947 -1.168955,-0.28862 -0.413339,-0.0611 -0.811446,-0.0914 -1.11036,-0.11788 z"
         id="path4623-8-3"
         inkscape:connector-curvature="0"
         sodipodi:nodetypes="ccccascscsscc" />
      <g
         style="stroke:#666666;stroke-width:0.4226653;stroke-miterlimit:4;stroke-dasharray:none;stroke-opacity:1"
         transform="matrix(0.23678687,0,0,0.23640094,31.690556,225.87751)"
         id="g1045">
        <g
           style="stroke:#666666;stroke-width:0.4226653;stroke-miterlimit:4;stroke-dasharray:none;stroke-opacity:1"
           id="g1025">
          <path
             id="path1021"
             d="m 77.895643,177.90403 a 23.573172,23.573172 0 0 0 -23.573236,23.57324 23.573172,23.573172 0 0 0 23.573236,23.57323 23.573172,23.573172 0 0 0 23.573237,-23.57323 23.573172,23.573172 0 0 0 -0.002,-0.0444 H 77.929304 v -23.52725 a 23.573172,23.573172 0 0 0 -0.03411,-0.002 z"
             style="opacity:1;fill:#b2b2b2;fill-opacity:1;fill-rule:evenodd;stroke:#666666;stroke-width:0.4226653;stroke-linecap:round;stroke-linejoin:bevel;stroke-miterlimit:4;stroke-dasharray:none;stroke-opacity:1"
             inkscape:connector-curvature="0" />
          <path
             sodipodi:nodetypes="ccccccc"
             inkscape:connector-curvature="0"
             id="path1023"
             d="m 81.25903,174.78894 0.008,23.03267 23.17585,0.0269 c 0.0148,-0.22598 0.0262,-0.45218 0.0341,-0.67851 -3e-5,-12.37347 -10.03086,-22.40406 -22.40434,-22.4038 -0.2691,0.009 -0.54533,0.004 -0.81396,0.0228 z"
             style="opacity:1;fill:#f0c19c;fill-opacity:1;fill-rule:evenodd;stroke:#666666;stroke-width:0.4226653;stroke-linecap:round;stroke-linejoin:bevel;stroke-miterlimit:4;stroke-dasharray:none;stroke-opacity:1" />
        </g>
        <g
           id="g1043"
           style="fill:#f2c39e;fill-opacity:1;stroke:#666666;stroke-width:0.4226653;stroke-miterlimit:4;stroke-dasharray:none;stroke-opacity:1"
           transform="translate(-150.32969,-0.18124715)">
          <rect
             y="276.62665"
             x="202.37042"
             height="5.6126599"
             width="66.045387"
             id="rect1027"
             style="opacity:1;fill:#f2c39e;fill-opacity:1;fill-rule:evenodd;stroke:#666666;stroke-width:0.4226653;stroke-linecap:round;stroke-linejoin:bevel;stroke-miterlimit:4;stroke-dasharray:none;stroke-opacity:1" />
          <rect
             style="opacity:1;fill:#f2c39e;fill-opacity:1;fill-rule:evenodd;stroke:#666666;stroke-width:0.4226653;stroke-linecap:round;stroke-linejoin:bevel;stroke-miterlimit:4;stroke-dasharray:none;stroke-opacity:1"
             id="rect1029"
             width="5.6249995"
             height="5.6249995"
             x="192.37839"
             y="276.62048" />
          <rect
             style="opacity:1;fill:#f2c39e;fill-opacity:1;fill-rule:evenodd;stroke:#666666;stroke-width:0.4226653;stroke-linecap:round;stroke-linejoin:bevel;stroke-miterlimit:4;stroke-dasharray:none;stroke-opacity:1"
             id="rect1031"
             width="66.045387"
             height="5.6126599"
             x="202.37042"
             y="263.06741" />
          <rect
             y="263.06125"
             x="192.37839"
             height="5.6249995"
             width="5.6249995"
             id="rect1033"
             style="opacity:1;fill:#f2c39e;fill-opacity:1;fill-rule:evenodd;stroke:#666666;stroke-width:0.4226653;stroke-linecap:round;stroke-linejoin:bevel;stroke-miterlimit:4;stroke-dasharray:none;stroke-opacity:1" />
          <rect
             y="249.68326"
             x="202.37042"
             height="5.6126599"
             width="66.045387"
             id="rect1035"
             style="opacity:1;fill:#f2c39e;fill-opacity:1;fill-rule:evenodd;stroke:#666666;stroke-width:0.4226653;stroke-linecap:round;stroke-linejoin:bevel;stroke-miterlimit:4;stroke-dasharray:none;stroke-opacity:1" />
          <rect
             style="opacity:1;fill:#f2c39e;fill-opacity:1;fill-rule:evenodd;stroke:#666666;stroke-width:0.4226653;stroke-linecap:round;stroke-linejoin:bevel;stroke-miterlimit:4;stroke-dasharray:none;stroke-opacity:1"
             id="rect1037"
             width="5.6249995"
             height="5.6249995"
             x="192.37839"
             y="249.67709" />
          <rect
             style="opacity:1;fill:#f2c39e;fill-opacity:1;fill-rule:evenodd;stroke:#666666;stroke-width:0.4226653;stroke-linecap:round;stroke-linejoin:bevel;stroke-miterlimit:4;stroke-dasharray:none;stroke-opacity:1"
             id="rect1039"
             width="66.045387"
             height="5.6126599"
             x="202.37042"
             y="236.39996" />
          <rect
             y="236.3938"
             x="192.37839"
             height="5.6249995"
             width="5.6249995"
             id="rect1041"
             style="opacity:1;fill:#f2c39e;fill-opacity:1;fill-rule:evenodd;stroke:#666666;stroke-width:0.4226653;stroke-linecap:round;stroke-linejoin:bevel;stroke-miterlimit:4;stroke-dasharray:none;stroke-opacity:1" />
        </g>
      </g>
      <path
         style="opacity:0.24800002;fill:#000000;fill-opacity:1;stroke:none;stroke-width:0.28614345;stroke-miterlimit:4;stroke-dasharray:none;stroke-opacity:1"
         d="m 53.336539,266.16432 c 0.01558,0.0251 0.535104,0.86266 0.694023,1.33396 0.430633,0.96537 0.246583,3.78805 0.238753,5.3963 0.02643,-0.18501 4.472885,-1.33107 6.781108,0.7673 -0.01476,-0.026 -0.04661,-0.0767 -0.119315,-0.17763 -0.06899,-0.0958 -0.17427,-0.2376 -0.354401,-0.42173 -0.503605,-0.57647 -0.220212,-0.0806 -0.76804,-0.65035 -0.473643,-0.42957 -1.496671,-1.44994 -2.73492,-2.66823 -1.183594,-1.1645 -2.562257,-2.50753 -3.737208,-3.57962 z"
         id="path1355-8-5"
         inkscape:connector-curvature="0"
         sodipodi:nodetypes="ccccsccsc" />
      <path
         sodipodi:nodetypes="ccccccsc"
         inkscape:connector-curvature="0"
         id="path4753-0-6"
         d="m 53.024611,265.66577 c 0.01477,0.0238 0.507403,0.81793 0.658095,1.26482 0.408341,0.91533 0.278677,3.0687 0.271252,4.59359 0.409088,-0.0213 4.92012,-0.70281 6.988384,1.73944 -0.02792,-0.0483 -0.09801,-0.0884 -0.1371,-0.16508 -0.477534,-0.54659 -1.086708,-0.98577 -1.643554,-1.50875 -0.449123,-0.40731 -1.41919,-1.37479 -2.593338,-2.52993 -1.122321,-1.10415 -2.429613,-2.37758 -3.543739,-3.39409 z"
         style="opacity:1;fill:#ffffff;fill-opacity:1;stroke:#808080;stroke-width:0.30000001;stroke-miterlimit:4;stroke-dasharray:none;stroke-opacity:1" />
      <g
         transform="matrix(0.95356973,0,0,0.95360241,70.361143,12.90648)"
         id="g5654"
         style="stroke:#80341f;stroke-width:0.1048673;stroke-miterlimit:4;stroke-dasharray:none;stroke-opacity:1">
        <rect
           style="opacity:1;fill:#d24726;fill-opacity:1;fill-rule:nonzero;stroke:#80341f;stroke-width:0.1048673;stroke-miterlimit:4;stroke-dasharray:none;stroke-opacity:1"
           id="rect1983"
           width="13.463702"
           height="13.463702"
           x="-36.388889"
           y="276.27002"
           ry="0" />
        <rect
           ry="0"
           y="277.95911"
           x="-34.699806"
           height="10.08554"
           width="10.08554"
           id="rect1985"
           style="opacity:1;fill:#ffffff;fill-opacity:1;fill-rule:nonzero;stroke:#80341f;stroke-width:0.1048673;stroke-miterlimit:4;stroke-dasharray:none;stroke-opacity:1" />
        <path
           style="fill:#d24726;fill-opacity:1;stroke:#80341f;stroke-width:0.1048673;stroke-miterlimit:4;stroke-dasharray:none;stroke-opacity:1"
           d="m -33.826384,278.82107 -0.0088,4.14032 c -0.0049,2.27721 -0.0019,4.15982 0.0072,4.18372 v 5.2e-4 c 0.01316,0.0345 0.868556,0.0416 4.18424,0.0346 l 4.167187,-0.009 v -4.17494 -4.17494 h -4.174937 z m 5.058606,0.90072 h 1.195277 1.195276 v 0.3638 0.36381 l -1.187527,0.009 c -0.966213,0.007 -1.19113,-3e-5 -1.205611,-0.0377 -0.0097,-0.0255 -0.01325,-0.19298 -0.0077,-0.37259 z m -1.767334,0.83148 0.01757,1.22989 0.01705,1.2299 1.230416,0.0176 1.229899,0.0171 -0.01085,0.17363 c -0.05958,0.96329 -0.804614,1.85969 -1.767332,2.12648 -0.292663,0.0807 -0.744326,0.11567 -0.994772,0.076 -1.243904,-0.19732 -2.107364,-1.19219 -2.107364,-2.42776 0,-0.75281 0.296775,-1.38899 0.881083,-1.88774 0.340421,-0.29058 0.895305,-0.51725 1.331183,-0.54415 z m 1.767334,0.83147 h 1.195277 1.195276 v 0.3638 0.3638 l -1.187527,0.009 c -0.966213,0.007 -1.19113,5e-4 -1.205611,-0.0372 -0.0097,-0.0255 -0.01325,-0.1935 -0.0077,-0.37311 z"
           id="path5552"
           inkscape:connector-curvature="0" />
      </g>
    </g>
  </g>
</svg>
