<?xml version="1.0" encoding="UTF-8" standalone="no"?>
<!-- Created with Inkscape (http://www.inkscape.org/) -->

<svg
   xmlns:osb="http://www.openswatchbook.org/uri/2009/osb"
   xmlns:dc="http://purl.org/dc/elements/1.1/"
   xmlns:cc="http://creativecommons.org/ns#"
   xmlns:rdf="http://www.w3.org/1999/02/22-rdf-syntax-ns#"
   xmlns:svg="http://www.w3.org/2000/svg"
   xmlns="http://www.w3.org/2000/svg"
   xmlns:xlink="http://www.w3.org/1999/xlink"
   xmlns:sodipodi="http://sodipodi.sourceforge.net/DTD/sodipodi-0.dtd"
   xmlns:inkscape="http://www.inkscape.org/namespaces/inkscape"
   width="24"
   height="24"
   viewBox="0 0 6.3499997 6.3499997"
   version="1.1"
   id="svg4942"
   inkscape:version="0.92.2 5c3e80d, 2017-08-06"
   sodipodi:docname="emblem-information.svg">
  <defs
     id="defs4936">
    <linearGradient
       inkscape:collect="always"
       id="linearGradient987">
      <stop
         style="stop-color:#5b74fa;stop-opacity:1"
         offset="0"
         id="stop983" />
      <stop
         style="stop-color:#3a52cc;stop-opacity:1"
         offset="1"
         id="stop985" />
    </linearGradient>
    <linearGradient
       id="linearGradient6987"
       osb:paint="solid">
      <stop
         style="stop-color:#77d2fb;stop-opacity:1;"
         offset="0"
         id="stop6985" />
    </linearGradient>
    <linearGradient
       inkscape:collect="always"
       xlink:href="#linearGradient987"
       id="linearGradient989"
       x1="-49.045597"
       y1="171.56049"
       x2="-51.960674"
       y2="304.7692"
       gradientUnits="userSpaceOnUse"
       gradientTransform="matrix(0.04347978,0,0,0.04253027,5.2477883,283.75487)" />
  </defs>
  <sodipodi:namedview
     id="base"
     pagecolor="#ffffff"
     bordercolor="#666666"
     borderopacity="1.0"
     inkscape:pageopacity="0.0"
     inkscape:pageshadow="2"
     inkscape:zoom="13.322558"
     inkscape:cx="16.281837"
     inkscape:cy="5.9237802"
     inkscape:document-units="mm"
     inkscape:current-layer="layer1"
     showgrid="false"
     units="px"
     width="128px"
     inkscape:window-width="1600"
     inkscape:window-height="798"
     inkscape:window-x="0"
     inkscape:window-y="0"
     inkscape:window-maximized="1"
     inkscape:measure-start="-293.521,100.415"
     inkscape:measure-end="-294.709,409.978" />
  <metadata
     id="metadata4939">
    <rdf:RDF>
      <cc:Work
         rdf:about="">
        <dc:format>image/svg+xml</dc:format>
        <dc:type
           rdf:resource="http://purl.org/dc/dcmitype/StillImage" />
        <dc:title />
      </cc:Work>
    </rdf:RDF>
  </metadata>
  <g
     inkscape:label="Layer 1"
     inkscape:groupmode="layer"
     id="layer1"
     transform="translate(0,-290.64999)">
    <g
       id="g860"
       transform="matrix(0.98091165,0,0,0.98096139,0.06060652,5.5388937)"
       style="stroke-width:1.01943398">
      <path
         inkscape:connector-curvature="0"
         id="path856"
         d="m 2.9885692,296.84444 c -0.4937495,-0.0335 -0.9598912,-0.18293 -1.3697295,-0.43901 -0.283817,-0.17734 -0.5572081,-0.42384 -0.75314336,-0.67908 -0.3255367,-0.42407 -0.51371459,-0.8913 -0.57427145,-1.42588 -0.0156173,-0.13788 -0.0155623,-0.43373 8.687e-5,-0.57213 0.0225815,-0.19946 0.0734212,-0.46162 0.12080468,-0.62295 0.26691363,-0.90877 0.96691386,-1.62281 1.87811156,-1.91577 0.1691586,-0.0544 0.3617798,-0.0956 0.5581492,-0.11961 0.1383449,-0.0169 0.5148594,-0.0169 0.6532043,0 0.352074,0.043 0.652702,0.13137 0.956478,0.28132 0.6629325,0.32725 1.1638384,0.88195 1.4199937,1.57251 0.064291,0.17332 0.10275,0.32372 0.1458996,0.57054 0.037768,0.21603 0.04621,0.31113 0.04621,0.52051 0,0.25845 -0.022686,0.44549 -0.083008,0.68445 -0.1726614,0.68398 -0.6101229,1.28841 -1.2166438,1.681 -0.3891474,0.25189 -0.8278955,0.4054 -1.2989238,0.45446 -0.11586,0.012 -0.3721956,0.0172 -0.4832377,0.01 z m -0.066654,-1.12422 c 0.07563,-0.0206 0.1929698,-0.0744 0.2646763,-0.12147 0.1959477,-0.12859 0.3936925,-0.35396 0.4981878,-0.56781 0.041474,-0.0849 0.056974,-0.13749 0.056974,-0.19339 0,-0.0411 -0.010052,-0.0598 -0.032136,-0.0598 -0.035382,9e-5 -0.078157,0.0496 -0.2280221,0.26402 -0.097399,0.13935 -0.1254621,0.17312 -0.1653979,0.19899 -0.055064,0.0357 -0.097427,0.0223 -0.1136609,-0.036 -0.00987,-0.0354 -0.00921,-0.0602 0.00319,-0.1189 0.0242,-0.11459 0.1603691,-0.53085 0.3332813,-1.01881 0.1197915,-0.33805 0.1427502,-0.43567 0.1426019,-0.60634 -1.313e-4,-0.13739 -0.022961,-0.21599 -0.080515,-0.27707 -0.059968,-0.0636 -0.1292228,-0.0853 -0.2528224,-0.0791 -0.2811437,0.0141 -0.5296602,0.13972 -0.7110132,0.35945 -0.1273658,0.15431 -0.2285766,0.34607 -0.2285766,0.43309 0,0.0294 0.017056,0.0656 0.031321,0.0664 0.037954,0.003 0.049343,-0.009 0.1495766,-0.14877 0.1250026,-0.17445 0.1957386,-0.24927 0.2869632,-0.3035 0.051165,-0.0304 0.085924,-0.0331 0.1027805,-0.008 0.018877,0.0282 0.00823,0.0785 -0.05935,0.28014 -0.4560499,1.36108 -0.4285007,1.27627 -0.4527107,1.39375 -0.012566,0.061 -0.015098,0.0944 -0.01517,0.20034 -9.06e-5,0.11324 0.00152,0.13213 0.01466,0.17278 0.030648,0.0949 0.084431,0.15328 0.1652201,0.17945 0.059337,0.0192 0.2012748,0.0146 0.2899428,-0.01 z m 0.699862,-2.85398 c 0.1111948,-0.0253 0.2225248,-0.11313 0.2718491,-0.21449 0.033577,-0.069 0.043926,-0.11187 0.043926,-0.18204 0,-0.0701 -0.010349,-0.11307 -0.043926,-0.18205 -0.037507,-0.0771 -0.1069277,-0.14498 -0.1857135,-0.18166 -0.070528,-0.0328 -0.1143766,-0.043 -0.1861156,-0.043 -0.071739,0 -0.115588,0.0101 -0.1861157,0.043 -0.078786,0.0367 -0.1482061,0.10459 -0.1857138,0.18166 -0.033576,0.069 -0.043926,0.11188 -0.043926,0.18205 0,0.0701 0.010349,0.11306 0.043926,0.18204 0.021054,0.0433 0.037643,0.0657 0.07815,0.10523 0.070415,0.0689 0.1381253,0.10081 0.2536871,0.11965 0.023216,0.004 0.1039867,-0.002 0.1399723,-0.0104 z"
         style="opacity:0.25;fill:#000000;fill-opacity:1;stroke:none;stroke-width:0.03042433;stroke-miterlimit:4;stroke-dasharray:none" />
      <path
         style="fill:url(#linearGradient989);fill-opacity:1;stroke:#000080;stroke-width:0.03042433;stroke-miterlimit:4;stroke-dasharray:none"
         d="m 2.9885692,296.71679 c -0.4937495,-0.0335 -0.9598912,-0.18293 -1.3697295,-0.43901 -0.283817,-0.17734 -0.5572081,-0.42384 -0.75314336,-0.67908 -0.3255367,-0.42407 -0.51371459,-0.8913 -0.57427145,-1.42588 -0.0156173,-0.13788 -0.0155623,-0.43373 8.687e-5,-0.57213 0.0225815,-0.19946 0.0734212,-0.46162 0.12080468,-0.62295 0.26691363,-0.90877 0.96691386,-1.62281 1.87811156,-1.91577 0.1691586,-0.0544 0.3617798,-0.0956 0.5581492,-0.11961 0.1383449,-0.0169 0.5148594,-0.0169 0.6532043,0 0.352074,0.043 0.652702,0.13137 0.956478,0.28132 0.6629325,0.32725 1.1638384,0.88195 1.4199937,1.57251 0.064291,0.17332 0.10275,0.32372 0.1458996,0.57054 0.037768,0.21603 0.04621,0.31113 0.04621,0.52051 0,0.25845 -0.022686,0.44549 -0.083008,0.68445 -0.1726614,0.68398 -0.6101229,1.28841 -1.2166438,1.681 -0.3891474,0.25189 -0.8278955,0.4054 -1.2989238,0.45446 -0.11586,0.012 -0.3721956,0.0172 -0.4832377,0.01 z m -0.066654,-1.12422 c 0.07563,-0.0206 0.1929698,-0.0744 0.2646763,-0.12147 0.1959477,-0.12859 0.3936925,-0.35396 0.4981878,-0.56781 0.041474,-0.0849 0.056974,-0.13749 0.056974,-0.19339 0,-0.0411 -0.010052,-0.0598 -0.032136,-0.0598 -0.035382,9e-5 -0.078157,0.0496 -0.2280221,0.26402 -0.097399,0.13935 -0.1254621,0.17312 -0.1653979,0.19899 -0.055064,0.0357 -0.097427,0.0223 -0.1136609,-0.036 -0.00987,-0.0354 -0.00921,-0.0602 0.00319,-0.1189 0.0242,-0.11459 0.1603691,-0.53085 0.3332813,-1.01881 0.1197915,-0.33805 0.1427502,-0.43567 0.1426019,-0.60634 -1.313e-4,-0.13739 -0.022961,-0.21599 -0.080515,-0.27707 -0.059968,-0.0636 -0.1292228,-0.0853 -0.2528224,-0.0791 -0.2811437,0.0141 -0.5296602,0.13972 -0.7110132,0.35945 -0.1273658,0.15431 -0.2285766,0.34607 -0.2285766,0.43309 0,0.0294 0.017056,0.0656 0.031321,0.0664 0.037954,0.003 0.049343,-0.009 0.1495766,-0.14877 0.1250026,-0.17445 0.1957386,-0.24927 0.2869632,-0.3035 0.051165,-0.0304 0.085924,-0.0331 0.1027805,-0.008 0.018877,0.0282 0.00823,0.0785 -0.05935,0.28014 -0.4560499,1.36108 -0.4285007,1.27627 -0.4527107,1.39375 -0.012566,0.061 -0.015098,0.0944 -0.01517,0.20034 -9.06e-5,0.11324 0.00152,0.13213 0.01466,0.17278 0.030648,0.0949 0.084431,0.15328 0.1652201,0.17945 0.059337,0.0192 0.2012748,0.0146 0.2899428,-0.01 z m 0.699862,-2.85398 c 0.1111948,-0.0253 0.2225248,-0.11313 0.2718491,-0.21449 0.033577,-0.069 0.043926,-0.11187 0.043926,-0.18204 0,-0.0701 -0.010349,-0.11307 -0.043926,-0.18205 -0.037507,-0.0771 -0.1069277,-0.14498 -0.1857135,-0.18166 -0.070528,-0.0328 -0.1143766,-0.043 -0.1861156,-0.043 -0.071739,0 -0.115588,0.0101 -0.1861157,0.043 -0.078786,0.0367 -0.1482061,0.10459 -0.1857138,0.18166 -0.033576,0.069 -0.043926,0.11188 -0.043926,0.18205 0,0.0701 0.010349,0.11306 0.043926,0.18204 0.021054,0.0433 0.037643,0.0657 0.07815,0.10523 0.070415,0.0689 0.1381253,0.10081 0.2536871,0.11965 0.023216,0.004 0.1039867,-0.002 0.1399723,-0.0104 z"
         id="path971"
         inkscape:connector-curvature="0" />
    </g>
  </g>
</svg>
