<?xml version="1.0" encoding="UTF-8" standalone="no"?>
<!-- Created with Inkscape (http://www.inkscape.org/) -->

<svg
   xmlns:osb="http://www.openswatchbook.org/uri/2009/osb"
   xmlns:dc="http://purl.org/dc/elements/1.1/"
   xmlns:cc="http://creativecommons.org/ns#"
   xmlns:rdf="http://www.w3.org/1999/02/22-rdf-syntax-ns#"
   xmlns:svg="http://www.w3.org/2000/svg"
   xmlns="http://www.w3.org/2000/svg"
   xmlns:xlink="http://www.w3.org/1999/xlink"
   xmlns:sodipodi="http://sodipodi.sourceforge.net/DTD/sodipodi-0.dtd"
   xmlns:inkscape="http://www.inkscape.org/namespaces/inkscape"
   width="24"
   height="24"
   viewBox="0 0 6.3499997 6.3499997"
   version="1.1"
   id="svg4942"
   inkscape:version="0.92.2 5c3e80d, 2017-08-06"
   sodipodi:docname="emblem-downloads.svg">
  <defs
     id="defs4936">
    <linearGradient
       inkscape:collect="always"
       id="linearGradient1108">
      <stop
         style="stop-color:#19b22f;stop-opacity:1"
         offset="0"
         id="stop1104" />
      <stop
         style="stop-color:#80f29d;stop-opacity:1"
         offset="1"
         id="stop1106" />
    </linearGradient>
    <linearGradient
       id="linearGradient6987"
       osb:paint="solid">
      <stop
         style="stop-color:#77d2fb;stop-opacity:1;"
         offset="0"
         id="stop6985" />
    </linearGradient>
    <linearGradient
       inkscape:collect="always"
       xlink:href="#linearGradient1108"
       id="linearGradient1110"
       x1="30.510128"
       y1="274.68945"
       x2="26.181116"
       y2="185.78969"
       gradientUnits="userSpaceOnUse"
       gradientTransform="matrix(0.04587439,0,0,0.04587439,1.8191054,284.11054)" />
  </defs>
  <sodipodi:namedview
     id="base"
     pagecolor="#ffffff"
     bordercolor="#666666"
     borderopacity="1.0"
     inkscape:pageopacity="0.0"
     inkscape:pageshadow="2"
     inkscape:zoom="7.7494161"
     inkscape:cx="-4.148902"
     inkscape:cy="4.4626265"
     inkscape:document-units="mm"
     inkscape:current-layer="layer1"
     showgrid="false"
     units="px"
     width="128px"
     inkscape:window-width="1600"
     inkscape:window-height="798"
     inkscape:window-x="0"
     inkscape:window-y="0"
     inkscape:window-maximized="1"
     inkscape:measure-start="-293.521,100.415"
     inkscape:measure-end="-294.709,409.978" />
  <metadata
     id="metadata4939">
    <rdf:RDF>
      <cc:Work
         rdf:about="">
        <dc:format>image/svg+xml</dc:format>
        <dc:type
           rdf:resource="http://purl.org/dc/dcmitype/StillImage" />
        <dc:title />
      </cc:Work>
    </rdf:RDF>
  </metadata>
  <g
     inkscape:label="Layer 1"
     inkscape:groupmode="layer"
     id="layer1"
     transform="translate(0,-290.64999)">
    <g
       id="g933"
       transform="matrix(0.9808473,0,0,0.98089746,0.06080987,5.5575006)"
       style="stroke-width:1.01950061">
      <circle
         style="opacity:0.25;fill:#000000;fill-opacity:1;stroke:none;stroke-width:0.03042819;stroke-miterlimit:4;stroke-dasharray:none;stroke-opacity:1"
         id="circle899"
         cx="3.175"
         cy="293.95297"
         r="2.8954935" />
      <circle
         r="2.8954935"
         cy="293.82498"
         cx="3.175"
         id="path1102"
         style="opacity:1;fill:url(#linearGradient1110);fill-opacity:1;stroke:#008000;stroke-width:0.03042819;stroke-miterlimit:4;stroke-dasharray:none;stroke-opacity:1" />
      <g
         transform="matrix(0.00854455,0,0,0.00794031,-7.3777743,290.50792)"
         id="g1178"
         style="stroke-width:1.05088103" />
      <g
         transform="matrix(0.00854455,0,0,0.00794031,-7.3777743,290.50792)"
         id="g1180"
         style="stroke-width:1.05088103" />
      <g
         transform="matrix(0.00854455,0,0,0.00794031,-7.3777743,290.50792)"
         id="g1182"
         style="stroke-width:1.05088103" />
      <g
         transform="matrix(0.00854455,0,0,0.00794031,-7.3777743,290.50792)"
         id="g1184"
         style="stroke-width:1.05088103" />
      <g
         transform="matrix(0.00854455,0,0,0.00794031,-7.3777743,290.50792)"
         id="g1186"
         style="stroke-width:1.05088103" />
      <g
         transform="matrix(0.00854455,0,0,0.00794031,-7.3777743,290.50792)"
         id="g1188"
         style="stroke-width:1.05088103" />
      <g
         transform="matrix(0.00854455,0,0,0.00794031,-7.3777743,290.50792)"
         id="g1190"
         style="stroke-width:1.05088103" />
      <g
         transform="matrix(0.00854455,0,0,0.00794031,-7.3777743,290.50792)"
         id="g1192"
         style="stroke-width:1.05088103" />
      <g
         transform="matrix(0.00854455,0,0,0.00794031,-7.3777743,290.50792)"
         id="g1194"
         style="stroke-width:1.05088103" />
      <g
         transform="matrix(0.00854455,0,0,0.00794031,-7.3777743,290.50792)"
         id="g1196"
         style="stroke-width:1.05088103" />
      <g
         transform="matrix(0.00854455,0,0,0.00794031,-7.3777743,290.50792)"
         id="g1198"
         style="stroke-width:1.05088103" />
      <g
         transform="matrix(0.00854455,0,0,0.00794031,-7.3777743,290.50792)"
         id="g1200"
         style="stroke-width:1.05088103" />
      <g
         transform="matrix(0.00854455,0,0,0.00794031,-7.3777743,290.50792)"
         id="g1202"
         style="stroke-width:1.05088103" />
      <g
         transform="matrix(0.00854455,0,0,0.00794031,-7.3777743,290.50792)"
         id="g1204"
         style="stroke-width:1.05088103" />
      <g
         transform="matrix(0.00854455,0,0,0.00794031,-7.3777743,290.50792)"
         id="g1206"
         style="stroke-width:1.05088103" />
      <path
         id="path901"
         style="fill:#000000;fill-opacity:1;stroke:none;stroke-width:0.03042819;stroke-miterlimit:4;stroke-dasharray:none"
         d="m 2.5213597,291.32579 v 1.21485 h -0.87156 l 1.5252122,1.41735 1.5251888,-1.41735 H 3.8286641 v -1.21485 z"
         inkscape:connector-curvature="0" />
      <path
         id="path903"
         style="opacity:0.25;fill:#000000;fill-opacity:1;stroke:none;stroke-width:0.03042819;stroke-miterlimit:4;stroke-dasharray:none"
         d="m 2.5213597,291.40996 v 1.21485 h -0.87156 l 1.5252122,1.41735 1.5251888,-1.41735 H 3.8286641 v -1.21485 z"
         inkscape:connector-curvature="0" />
      <path
         inkscape:connector-curvature="0"
         d="m 2.5213597,291.32579 v 1.21485 h -0.87156 l 1.5252122,1.41735 1.5251888,-1.41735 H 3.8286641 v -1.21485 z"
         style="fill:#ffffff;fill-opacity:1;stroke:#008000;stroke-width:0.03042819;stroke-miterlimit:4;stroke-dasharray:none"
         id="path1173" />
      <path
         style="opacity:0.25;fill:#000000;fill-opacity:1;stroke:none;stroke-width:0.03042819;stroke-miterlimit:4;stroke-dasharray:none;stroke-opacity:1"
         d="m 2.5193327,294.2471 c -0.1439258,0 -0.2597967,0.11587 -0.2597967,0.25979 v 1.27424 c 0,0.14392 0.1158709,0.25979 0.2597967,0.25979 h 1.311335 c 0.1439258,0 0.2597967,-0.11587 0.2597967,-0.25979 v -1.27424 c 0,-0.14392 -0.1158709,-0.25979 -0.2597967,-0.25979 z m 0,0.29692 h 1.311335 v 0.94018 h -1.311335 z"
         id="path905"
         inkscape:connector-curvature="0" />
      <path
         inkscape:connector-curvature="0"
         id="rect1277"
         d="m 2.5193327,294.16293 c -0.1439258,0 -0.2597967,0.11587 -0.2597967,0.25979 v 1.27424 c 0,0.14392 0.1158709,0.25979 0.2597967,0.25979 h 1.311335 c 0.1439258,0 0.2597967,-0.11587 0.2597967,-0.25979 v -1.27424 c 0,-0.14392 -0.1158709,-0.25979 -0.2597967,-0.25979 z m 0,0.29692 h 1.311335 v 0.94018 h -1.311335 z"
         style="opacity:1;fill:#ffffff;fill-opacity:1;stroke:#008000;stroke-width:0.03042819;stroke-miterlimit:4;stroke-dasharray:none;stroke-opacity:1" />
      <path
         style="opacity:0.25;fill:#000000;fill-opacity:1;stroke:none;stroke-width:0.03042819;stroke-linecap:butt;stroke-linejoin:miter;stroke-miterlimit:4;stroke-dasharray:none;stroke-opacity:1"
         d="m 2.7704186,296.38607 h 0.8091632 l -0.1968236,-0.2187 H 2.9716159 Z"
         id="path907"
         inkscape:connector-curvature="0" />
      <path
         inkscape:connector-curvature="0"
         id="path1284"
         d="m 2.7704186,296.32422 h 0.8091632 l -0.1968236,-0.2187 H 2.9716159 Z"
         style="fill:#ffffff;fill-opacity:1;stroke:#008000;stroke-width:0.03042819;stroke-linecap:butt;stroke-linejoin:miter;stroke-miterlimit:4;stroke-dasharray:none;stroke-opacity:1" />
    </g>
  </g>
</svg>
