<?xml version="1.0" encoding="UTF-8" standalone="no"?>
<!-- Created with Inkscape (http://www.inkscape.org/) -->

<svg
   xmlns:osb="http://www.openswatchbook.org/uri/2009/osb"
   xmlns:dc="http://purl.org/dc/elements/1.1/"
   xmlns:cc="http://creativecommons.org/ns#"
   xmlns:rdf="http://www.w3.org/1999/02/22-rdf-syntax-ns#"
   xmlns:svg="http://www.w3.org/2000/svg"
   xmlns="http://www.w3.org/2000/svg"
   xmlns:xlink="http://www.w3.org/1999/xlink"
   xmlns:sodipodi="http://sodipodi.sourceforge.net/DTD/sodipodi-0.dtd"
   xmlns:inkscape="http://www.inkscape.org/namespaces/inkscape"
   width="24"
   height="24"
   viewBox="0 0 6.3499997 6.3499997"
   version="1.1"
   id="svg4942"
   inkscape:version="0.92.2 5c3e80d, 2017-08-06"
   sodipodi:docname="emblem-system.svg">
  <defs
     id="defs4936">
    <linearGradient
       id="linearGradient2066"
       inkscape:collect="always">
      <stop
         style="stop-color:#cedbe0;stop-opacity:1"
         offset="0"
         id="stop2064" />
      <stop
         style="stop-color:#9fb0b8;stop-opacity:1"
         offset="1"
         id="stop2062" />
    </linearGradient>
    <linearGradient
       id="linearGradient1001"
       inkscape:collect="always">
      <stop
         style="stop-color:#44484c;stop-opacity:1"
         offset="0"
         id="stop999" />
      <stop
         style="stop-color:#1d1e1e;stop-opacity:1"
         offset="1"
         id="stop997" />
    </linearGradient>
    <linearGradient
       id="linearGradient6987"
       osb:paint="solid">
      <stop
         style="stop-color:#77d2fb;stop-opacity:1;"
         offset="0"
         id="stop6985" />
    </linearGradient>
    <linearGradient
       y2="393.44238"
       x2="-422.19818"
       y1="336.55844"
       x1="-425.90356"
       gradientTransform="matrix(0.03914958,0,0,0.03914958,19.84896,280.4952)"
       gradientUnits="userSpaceOnUse"
       id="linearGradient1048"
       xlink:href="#linearGradient2066"
       inkscape:collect="always" />
    <radialGradient
       inkscape:collect="always"
       xlink:href="#linearGradient1001"
       id="radialGradient832"
       cx="3.4426045"
       cy="291.58209"
       fx="3.4426045"
       fy="291.58209"
       r="2.9104168"
       gradientUnits="userSpaceOnUse"
       gradientTransform="matrix(-1.029332,0.89801789,-0.85484161,-0.97984217,255.91615,574.94644)" />
  </defs>
  <sodipodi:namedview
     id="base"
     pagecolor="#ffffff"
     bordercolor="#666666"
     borderopacity="1.0"
     inkscape:pageopacity="0.0"
     inkscape:pageshadow="2"
     inkscape:zoom="16"
     inkscape:cx="16.584786"
     inkscape:cy="6.6165867"
     inkscape:document-units="mm"
     inkscape:current-layer="layer1"
     showgrid="false"
     units="px"
     width="128px"
     inkscape:window-width="1600"
     inkscape:window-height="806"
     inkscape:window-x="25"
     inkscape:window-y="9"
     inkscape:window-maximized="0"
     inkscape:measure-start="-293.521,100.415"
     inkscape:measure-end="-294.709,409.978" />
  <metadata
     id="metadata4939">
    <rdf:RDF>
      <cc:Work
         rdf:about="">
        <dc:format>image/svg+xml</dc:format>
        <dc:type
           rdf:resource="http://purl.org/dc/dcmitype/StillImage" />
        <dc:title />
      </cc:Work>
    </rdf:RDF>
  </metadata>
  <g
     inkscape:label="Layer 1"
     inkscape:groupmode="layer"
     id="layer1"
     transform="translate(0,-290.64999)">
    <g
       id="g839">
      <circle
         r="2.9104168"
         cy="293.82498"
         cx="3.175"
         id="path1201"
         style="opacity:1;fill:url(#radialGradient832);fill-opacity:1;fill-rule:nonzero;stroke:none;stroke-width:0.01146859;stroke-linecap:round;stroke-linejoin:round;stroke-miterlimit:4;stroke-dasharray:none;stroke-dashoffset:0;stroke-opacity:1" />
      <path
         inkscape:connector-curvature="0"
         id="path830"
         d="m 3.1732747,291.83948 c -0.093442,0 -0.091169,-0.003 -0.1221608,0.16245 -0.011457,0.0612 -0.023472,0.11387 -0.026689,0.11709 -0.011261,0.0113 -0.1478265,0.0286 -0.1699446,0.0216 -0.014335,-0.005 -0.0426,-0.0495 -0.078948,-0.12564 -0.063853,-0.1337 -0.065313,-0.13452 -0.1754682,-0.0977 -0.054588,0.0182 -0.057029,0.0209 -0.060259,0.0646 -0.00185,0.0251 0.00133,0.084 0.00707,0.1309 0.00575,0.0469 0.00638,0.0932 0.00141,0.10283 -0.011235,0.0218 -0.152801,0.0811 -0.1727059,0.0724 -0.00801,-0.003 -0.049744,-0.0499 -0.092758,-0.10312 -0.070507,-0.0872 -0.081174,-0.096 -0.1081613,-0.0894 -0.042431,0.0104 -0.1268771,0.0614 -0.1344461,0.0811 -0.00351,0.009 0.01216,0.0657 0.034832,0.12564 0.022673,0.06 0.041236,0.11853 0.041236,0.13013 0,0.0237 -0.1107821,0.11288 -0.14016,0.11288 -0.010211,0 -0.06538,-0.0307 -0.1225895,-0.0683 -0.057207,-0.0376 -0.1096866,-0.0683 -0.1166137,-0.0683 -0.017106,0 -0.1215183,0.10388 -0.1215183,0.1209 0,0.007 0.033249,0.0633 0.073877,0.12409 0.08334,0.12466 0.083318,0.11687 -1.379e-4,0.21573 -0.043629,0.0517 -0.038637,0.052 -0.214133,-0.0125 l -0.089162,-0.0328 -0.027547,0.0342 c -0.01515,0.0188 -0.036233,0.0568 -0.046855,0.0844 l -0.019309,0.0502 0.061759,0.0522 c 0.03397,0.0287 0.081527,0.0703 0.1056853,0.0923 l 0.043926,0.0401 -0.030427,0.076 c -0.016727,0.0418 -0.036378,0.0807 -0.043665,0.0864 -0.00812,0.006 -0.063353,0.006 -0.1427554,-10e-4 -0.149696,-0.0139 -0.1471473,-0.0152 -0.1719207,0.0881 -0.019118,0.0797 -0.01615,0.0834 0.1197804,0.14821 0.066887,0.0319 0.1082496,0.0586 0.1127567,0.0728 0.00931,0.0293 -0.012362,0.16299 -0.027999,0.17265 -0.00667,0.004 -0.064415,0.0166 -0.1283512,0.0277 -0.063935,0.0111 -0.1226451,0.0254 -0.1304702,0.0318 -0.019194,0.0156 -0.019194,0.16133 0,0.17692 0.00783,0.006 0.066535,0.0206 0.1304702,0.0317 0.063936,0.0111 0.1216787,0.0236 0.1283512,0.0277 0.015637,0.01 0.037311,0.14332 0.027999,0.17266 -0.00451,0.0142 -0.045869,0.0409 -0.1127567,0.0728 -0.1354263,0.0646 -0.1395134,0.0695 -0.1204945,0.14518 0.023507,0.0936 0.028386,0.099 0.089115,0.0986 0.029519,-1.9e-4 0.089525,-0.005 0.133351,-0.0108 0.058713,-0.008 0.083338,-0.007 0.093567,0.003 0.026833,0.0264 0.069868,0.14898 0.059259,0.1688 -0.00554,0.0104 -0.051524,0.0534 -0.1021859,0.0957 -0.082168,0.0685 -0.09133,0.08 -0.084829,0.10647 0.010371,0.0422 0.061378,0.12664 0.081044,0.13419 0.00914,0.004 0.065673,-0.0122 0.1256367,-0.0349 0.059964,-0.0227 0.1184876,-0.0412 0.1300892,-0.0412 0.023664,0 0.1129236,0.11078 0.1129236,0.14016 0,0.0102 -0.030742,0.0654 -0.068306,0.12257 -0.037566,0.0572 -0.068306,0.10968 -0.068306,0.11661 0,0.0173 0.1039727,0.12152 0.1212087,0.12152 0.00765,0 0.059857,-0.0307 0.1160181,-0.0683 0.056161,-0.0376 0.1110895,-0.0683 0.1220661,-0.0683 0.029202,0 0.1415648,0.0904 0.1415648,0.11392 0,0.011 -0.018517,0.0691 -0.041189,0.12909 -0.022672,0.06 -0.038384,0.1165 -0.034879,0.12564 0.00757,0.0197 0.092063,0.0707 0.1344939,0.0811 0.026987,0.007 0.037629,-0.002 0.1081375,-0.0894 0.043014,-0.0532 0.084204,-0.0994 0.091567,-0.10266 0.019337,-0.009 0.1629995,0.0508 0.1736586,0.0718 0.00496,0.01 0.0049,0.0535 -1.839e-4,0.0974 -0.00506,0.0438 -0.00946,0.10171 -0.00981,0.12864 -5.377e-4,0.0455 0.00229,0.0502 0.039498,0.0657 0.02204,0.009 0.062555,0.0198 0.090044,0.0236 l 0.049974,0.007 0.057307,-0.11995 c 0.036848,-0.0772 0.065231,-0.12248 0.079591,-0.12704 0.022118,-0.007 0.1587061,0.0103 0.169968,0.0216 0.00322,0.003 0.015233,0.0559 0.02669,0.11707 0.011454,0.0611 0.025958,0.12273 0.032236,0.13685 0.010232,0.023 0.019501,0.0256 0.089948,0.0256 0.050682,0 0.082901,-0.005 0.090853,-0.0149 0.00678,-0.008 0.020913,-0.0667 0.031427,-0.12997 0.010516,-0.0633 0.022628,-0.1208 0.026928,-0.12776 0.00997,-0.0161 0.1432114,-0.038 0.173325,-0.0284 0.014211,0.005 0.038085,0.04 0.063521,0.0943 0.022415,0.0479 0.050825,0.10174 0.06314,0.11961 0.020154,0.0293 0.026898,0.0318 0.067425,0.0253 0.024763,-0.004 0.062457,-0.0145 0.083758,-0.0234 0.036521,-0.0153 0.038708,-0.0193 0.038356,-0.0709 -1.839e-4,-0.0301 -0.00503,-0.0905 -0.010738,-0.13433 -0.00763,-0.0586 -0.00679,-0.0832 0.00321,-0.093 0.021079,-0.0206 0.1553533,-0.0717 0.1706827,-0.0649 0.00752,0.003 0.048502,0.0492 0.091115,0.10188 0.042612,0.0527 0.0862,0.0958 0.096805,0.0957 0.022723,-1.4e-4 0.1334769,-0.0618 0.1452788,-0.0809 0.00449,-0.007 -0.011758,-0.0719 -0.036141,-0.14371 l -0.044355,-0.13051 0.061949,-0.0557 c 0.034063,-0.0307 0.067609,-0.0557 0.074544,-0.0557 0.00694,0 0.062749,0.0333 0.1240417,0.074 0.061293,0.0407 0.118291,0.074 0.1266371,0.074 0.019608,0 0.1194228,-0.0996 0.1194228,-0.11919 0,-0.008 -0.030741,-0.0617 -0.068306,-0.11894 -0.037565,-0.0572 -0.06833,-0.11237 -0.06833,-0.12257 0,-0.0281 0.091074,-0.14018 0.1139469,-0.14018 0.011042,0 0.06915,0.0186 0.1291131,0.0412 0.059965,0.0227 0.1166279,0.0383 0.1259465,0.0347 0.0202,-0.008 0.086062,-0.11921 0.086258,-0.14588 9.19e-5,-0.0103 -0.043443,-0.0553 -0.096662,-0.10016 -0.1109742,-0.0934 -0.114367,-0.10425 -0.064783,-0.20556 0.02563,-0.0524 0.035291,-0.0623 0.059092,-0.0609 0.015652,9.2e-4 0.078395,0.005 0.1394225,0.01 l 0.1109471,0.008 0.017356,-0.0415 c 0.00955,-0.0229 0.020458,-0.0641 0.024237,-0.0917 l 0.00688,-0.0502 -0.1201131,-0.0575 c -0.075906,-0.0363 -0.1226911,-0.0656 -0.1270893,-0.0794 -0.00936,-0.0295 0.012799,-0.16267 0.028689,-0.17249 0.00696,-0.004 0.064443,-0.0164 0.1277557,-0.0269 0.06331,-0.0105 0.1217812,-0.0247 0.1299467,-0.0314 0.020216,-0.0168 0.020216,-0.16167 0,-0.17845 -0.00817,-0.007 -0.066636,-0.0209 -0.1299467,-0.0315 -0.063313,-0.0105 -0.1207996,-0.0226 -0.1277557,-0.0269 -0.015999,-0.01 -0.037997,-0.14309 -0.028546,-0.17287 0.00455,-0.0144 0.049884,-0.0428 0.1270415,-0.0796 l 0.1199706,-0.0573 -0.00686,-0.05 c -0.00376,-0.0275 -0.014385,-0.068 -0.023594,-0.0901 -0.015897,-0.038 -0.019512,-0.04 -0.071401,-0.0397 -0.030058,1.9e-4 -0.090502,0.005 -0.1343271,0.0107 -0.0934,0.0122 -0.094307,0.0116 -0.1345412,-0.085 -0.019316,-0.0464 -0.025172,-0.0742 -0.018309,-0.087 0.00555,-0.0104 0.051189,-0.0531 0.1014002,-0.095 0.050211,-0.0419 0.091186,-0.0847 0.091186,-0.0951 -1.378e-4,-0.0269 -0.065959,-0.13833 -0.086258,-0.14612 -0.00932,-0.004 -0.065982,0.012 -0.1259465,0.0347 -0.059963,0.0227 -0.1180708,0.0412 -0.1291131,0.0412 -0.022873,0 -0.1139469,-0.11204 -0.1139469,-0.14018 0,-0.0102 0.030765,-0.0654 0.06833,-0.12259 0.037565,-0.0572 0.068306,-0.11071 0.068306,-0.11892 0,-0.0197 -0.099925,-0.11919 -0.1197321,-0.11919 -0.0085,0 -0.058014,0.0286 -0.1100666,0.0635 -0.1395658,0.0937 -0.123328,0.0911 -0.2018237,0.0321 -0.039846,-0.03 -0.069259,-0.0608 -0.069259,-0.0726 0,-0.0113 0.018563,-0.0695 0.041236,-0.12951 0.022672,-0.06 0.038288,-0.11666 0.034713,-0.12597 -0.00784,-0.0204 -0.1193328,-0.0861 -0.1464456,-0.0863 -0.010607,-4e-5 -0.054193,0.043 -0.096805,0.0958 -0.042613,0.0527 -0.083467,0.0985 -0.090829,0.10175 -0.019333,0.009 -0.1629784,-0.0508 -0.1736586,-0.0718 -0.00495,-0.01 -0.00502,-0.0484 -1.838e-4,-0.086 0.00487,-0.0376 0.00926,-0.0955 0.00979,-0.12866 9.283e-4,-0.0582 -3.676e-4,-0.0609 -0.037736,-0.0765 -0.021301,-0.009 -0.058996,-0.0194 -0.083758,-0.0234 -0.040529,-0.006 -0.047246,-0.004 -0.067402,0.0253 -0.012315,0.0179 -0.040724,0.0717 -0.06314,0.11959 -0.025435,0.0544 -0.049333,0.0898 -0.063545,0.0943 -0.030113,0.01 -0.1633341,-0.0123 -0.1733015,-0.0284 -0.0043,-0.007 -0.016436,-0.0645 -0.026951,-0.12778 -0.010516,-0.0633 -0.024674,-0.12178 -0.031451,-0.12995 -0.00795,-0.01 -0.040159,-0.0149 -0.090829,-0.0149 z m -0.057211,0.63726 c 0.031387,1.4e-4 0.063553,0.002 0.096138,0.005 0.032585,0.003 0.06558,0.007 0.098638,0.0127 0.066117,0.0108 0.132471,0.0258 0.1961338,0.0434 0.063663,0.0175 0.1246506,0.0375 0.1800632,0.0582 0.055413,0.0206 0.1052451,0.0419 0.1466119,0.0619 0.02746,0.0133 0.054535,0.0279 0.081139,0.0437 0.026605,0.0158 0.052753,0.0328 0.078353,0.0507 0.025601,0.018 0.050644,0.0369 0.075092,0.0568 0.024448,0.0198 0.048302,0.0405 0.071449,0.0618 0.046293,0.0426 0.089824,0.0879 0.1300175,0.1344 0.040193,0.0465 0.077044,0.0944 0.1099471,0.14211 0.032903,0.0478 0.061861,0.0955 0.086282,0.14171 0.024421,0.0463 0.044297,0.0911 0.059045,0.13313 0.00737,0.021 0.013457,0.0413 0.01819,0.0608 0.00473,0.0195 0.00813,0.0381 0.010071,0.0556 0.00194,0.0176 0.00245,0.0341 0.00145,0.0494 -9.926e-4,0.0153 -0.00351,0.0294 -0.00759,0.0422 -0.00462,0.0144 -0.010589,0.0275 -0.017642,0.0394 -0.00705,0.0119 -0.015195,0.0226 -0.024165,0.0321 -0.00897,0.01 -0.018769,0.0181 -0.029142,0.0256 -0.010372,0.007 -0.021311,0.014 -0.03257,0.0196 -0.022518,0.0112 -0.046308,0.019 -0.069282,0.0241 -0.022974,0.005 -0.045139,0.008 -0.06445,0.008 -0.097556,0.003 -0.182706,0.002 -0.302962,-10e-4 -0.120256,-0.003 -0.2756189,-0.007 -0.5135947,-0.009 v -2e-5 c -0.00354,3.7e-4 -0.018784,10e-4 -0.041617,-8.6e-4 -0.011416,-0.001 -0.024722,-0.003 -0.039427,-0.006 -0.014704,-0.003 -0.030792,-0.008 -0.04776,-0.014 -0.016968,-0.006 -0.034814,-0.0144 -0.053022,-0.0247 -0.018207,-0.0103 -0.036788,-0.0229 -0.055211,-0.0383 -0.018423,-0.0153 -0.036692,-0.0334 -0.054307,-0.0548 -0.017616,-0.0213 -0.034572,-0.0459 -0.050355,-0.0742 -0.078255,-0.14024 -0.1463799,-0.2568 -0.2109185,-0.37158 -0.032269,-0.0574 -0.063626,-0.1143 -0.094924,-0.17354 -0.031298,-0.0592 -0.062531,-0.12076 -0.094496,-0.18732 -0.010213,-0.0213 -0.019939,-0.046 -0.025475,-0.0726 -0.00277,-0.0133 -0.00447,-0.027 -0.00469,-0.0409 -2.297e-4,-0.0139 0.00108,-0.028 0.00433,-0.0421 0.00326,-0.0141 0.00849,-0.0282 0.016142,-0.0421 0.00766,-0.0138 0.017736,-0.0275 0.030713,-0.0406 0.012976,-0.0131 0.028851,-0.0258 0.048069,-0.0378 0.019218,-0.012 0.041781,-0.0233 0.068163,-0.0337 0.016436,-0.006 0.033645,-0.012 0.051522,-0.0166 0.017876,-0.005 0.036416,-0.008 0.055521,-0.0113 0.03821,-0.006 0.078669,-0.008 0.1205183,-0.008 z m -0.8556028,0.44148 c 0.011957,1.8e-4 0.023559,0.002 0.03476,0.004 0.011201,0.002 0.022009,0.006 0.032404,0.01 0.020789,0.008 0.039922,0.0201 0.057187,0.0335 0.017266,0.0134 0.032652,0.0287 0.045998,0.0441 0.013346,0.0155 0.024637,0.0312 0.033665,0.0457 0.052123,0.0838 0.093693,0.15925 0.1518502,0.26615 0.058158,0.10691 0.1329025,0.24525 0.2513452,0.45481 0.0021,0.003 0.010635,0.0158 0.020261,0.0369 0.00481,0.0106 0.00991,0.0232 0.014594,0.0377 0.00468,0.0145 0.00896,0.0309 0.012166,0.0489 0.00321,0.0181 0.00535,0.0378 0.00576,0.0589 4.136e-4,0.0212 -9.329e-4,0.0438 -0.00469,0.0677 -0.00375,0.0239 -0.00992,0.049 -0.019166,0.0752 -0.00925,0.0262 -0.02158,0.0535 -0.037665,0.0816 -0.079749,0.13938 -0.144476,0.2579 -0.2094898,0.37239 -0.032507,0.0572 -0.065071,0.11348 -0.099638,0.1708 -0.034567,0.0573 -0.071134,0.11574 -0.11159,0.17735 -0.012927,0.0197 -0.0291,0.0407 -0.048855,0.059 -0.00988,0.009 -0.020643,0.0175 -0.032356,0.0248 -0.011712,0.007 -0.024364,0.0132 -0.037998,0.0175 -0.013634,0.004 -0.02824,0.007 -0.043879,0.007 -0.01564,2.8e-4 -0.032314,-0.002 -0.050045,-0.006 -0.017731,-0.005 -0.036541,-0.0122 -0.05645,-0.023 -0.019909,-0.0108 -0.040921,-0.0248 -0.063092,-0.0427 -0.013812,-0.0111 -0.027195,-0.0234 -0.040165,-0.0368 -0.012969,-0.0133 -0.025531,-0.0277 -0.037665,-0.043 -0.024267,-0.0305 -0.046856,-0.0647 -0.06783,-0.10147 -0.020975,-0.0368 -0.040322,-0.0761 -0.058069,-0.11707 -0.017746,-0.0409 -0.033892,-0.0835 -0.048474,-0.12649 -0.014582,-0.043 -0.027611,-0.0866 -0.039093,-0.12971 -0.011483,-0.0431 -0.021432,-0.0857 -0.029879,-0.1268 -0.00845,-0.0411 -0.015403,-0.0807 -0.02088,-0.11769 -0.00548,-0.037 -0.00948,-0.0715 -0.012047,-0.10242 -0.00256,-0.0308 -0.00377,-0.0619 -0.00376,-0.0932 4.6e-6,-0.0313 0.00123,-0.0628 0.00359,-0.0943 0.00236,-0.0315 0.00586,-0.063 0.010357,-0.0945 0.0045,-0.0314 0.010023,-0.0627 0.016452,-0.0938 0.012857,-0.0621 0.029358,-0.12308 0.04864,-0.1818 0.019283,-0.0587 0.041331,-0.11514 0.06533,-0.16809 0.023999,-0.0529 0.049942,-0.1024 0.076949,-0.14716 0.027008,-0.0448 0.055095,-0.0848 0.083401,-0.11894 0.014153,-0.0171 0.028365,-0.0327 0.042522,-0.0467 0.014158,-0.014 0.028264,-0.0263 0.042212,-0.0369 0.013948,-0.0106 0.027735,-0.0194 0.04126,-0.0262 0.013525,-0.007 0.026776,-0.0118 0.039665,-0.0146 0.014585,-0.003 0.028737,-0.005 0.042403,-0.004 z m 0.914552,0.89631 a 0.15832055,0.15366408 0 0 1 0.1583261,0.15366 0.15832055,0.15366408 0 0 1 -0.1583261,0.15366 0.15832055,0.15366408 0 0 1 -0.1583256,-0.15366 0.15832055,0.15366408 0 0 1 0.1583256,-0.15366 z m 0.786154,0.31158 c 0.065084,-2.3e-4 0.1293457,9e-5 0.1955382,0.002 0.066192,0.002 0.1343142,0.004 0.2071094,0.009 0.02326,10e-4 0.049298,0.005 0.074758,0.0133 0.012731,0.004 0.025308,0.009 0.037332,0.016 0.012024,0.007 0.023496,0.0147 0.033975,0.0246 0.010479,0.01 0.019973,0.0214 0.02807,0.035 0.0081,0.0136 0.01479,0.0292 0.019666,0.0471 0.00488,0.0179 0.00794,0.0382 0.00876,0.0611 8.226e-4,0.0229 -6.112e-4,0.0484 -0.00469,0.0769 -0.00254,0.0177 -0.00628,0.0356 -0.011118,0.0537 -0.00484,0.0181 -0.010779,0.0363 -0.01769,0.0546 -0.013822,0.0366 -0.031553,0.0737 -0.052331,0.11054 -0.020779,0.0369 -0.044595,0.0736 -0.070544,0.10976 -0.025949,0.0361 -0.054041,0.0717 -0.083377,0.10609 -0.029336,0.0344 -0.059916,0.0677 -0.090853,0.0995 -0.030937,0.0317 -0.062242,0.0618 -0.092996,0.0899 -0.030754,0.0281 -0.060949,0.054 -0.089734,0.0774 -0.028786,0.0234 -0.056154,0.0442 -0.081187,0.062 -0.024925,0.0177 -0.050815,0.0344 -0.077472,0.0501 -0.026657,0.0157 -0.054091,0.0304 -0.082116,0.0442 -0.028025,0.0137 -0.056635,0.0265 -0.085662,0.0384 -0.029027,0.0118 -0.05845,0.0227 -0.088115,0.0327 -0.059332,0.0199 -0.1195787,0.036 -0.179277,0.0486 -0.059698,0.0126 -0.1188658,0.0215 -0.1760156,0.0271 -0.057149,0.006 -0.1122834,0.008 -0.1639687,0.006 -0.051685,-10e-4 -0.099902,-0.006 -0.1432077,-0.0134 -0.021652,-0.004 -0.042081,-0.008 -0.061092,-0.0139 -0.019011,-0.005 -0.036611,-0.0116 -0.052617,-0.0185 -0.016005,-0.007 -0.03041,-0.0146 -0.043045,-0.0231 -0.012634,-0.008 -0.023504,-0.0176 -0.032403,-0.0275 -0.01007,-0.0112 -0.018338,-0.0229 -0.025047,-0.035 -0.00671,-0.0121 -0.011855,-0.0245 -0.015642,-0.0372 -0.00379,-0.0127 -0.00622,-0.0255 -0.00752,-0.0383 -0.00131,-0.0129 -0.00149,-0.0257 -7.628e-4,-0.0385 0.00146,-0.0254 0.00656,-0.0503 0.013523,-0.0731 0.00697,-0.0228 0.015793,-0.0436 0.024737,-0.061 0.045183,-0.0879 0.088595,-0.16224 0.150445,-0.26699 0.061851,-0.10475 0.1421392,-0.23986 0.261131,-0.4491 0.00144,-0.003 0.00809,-0.0173 0.021261,-0.0363 0.00658,-0.01 0.014802,-0.0203 0.024809,-0.0317 0.010006,-0.0114 0.02179,-0.0234 0.035546,-0.0353 0.013756,-0.0119 0.029475,-0.0236 0.047307,-0.0346 0.017832,-0.011 0.037786,-0.0212 0.060021,-0.0299 0.022235,-0.009 0.046745,-0.0159 0.073711,-0.021 0.026965,-0.005 0.056379,-0.008 0.088401,-0.008 0.1587654,0 0.292218,-0.003 0.4223853,-0.003 z"
         style="fill:#000000;fill-opacity:1;stroke-width:0.01173385;opacity:0.25" />
      <path
         style="fill:url(#linearGradient1048);fill-opacity:1;stroke-width:0.01173385"
         d="m 3.1732747,291.69627 c -0.093442,0 -0.091169,-0.003 -0.1221608,0.16245 -0.011457,0.0612 -0.023472,0.11387 -0.026689,0.11709 -0.011261,0.0113 -0.1478265,0.0286 -0.1699446,0.0216 -0.014335,-0.005 -0.0426,-0.0495 -0.078948,-0.12564 -0.063853,-0.1337 -0.065313,-0.13452 -0.1754682,-0.0977 -0.054588,0.0182 -0.057029,0.0209 -0.060259,0.0646 -0.00185,0.0251 0.00133,0.084 0.00707,0.1309 0.00575,0.0469 0.00638,0.0932 0.00141,0.10283 -0.011235,0.0218 -0.152801,0.0811 -0.1727059,0.0724 -0.00801,-0.003 -0.049744,-0.0499 -0.092758,-0.10312 -0.070507,-0.0872 -0.081174,-0.096 -0.1081613,-0.0894 -0.042431,0.0104 -0.1268771,0.0614 -0.1344461,0.0811 -0.00351,0.009 0.01216,0.0657 0.034832,0.12564 0.022673,0.06 0.041236,0.11853 0.041236,0.13013 0,0.0237 -0.1107821,0.11288 -0.14016,0.11288 -0.010211,0 -0.06538,-0.0307 -0.1225895,-0.0683 -0.057207,-0.0376 -0.1096866,-0.0683 -0.1166137,-0.0683 -0.017106,0 -0.1215183,0.10388 -0.1215183,0.1209 0,0.007 0.033249,0.0633 0.073877,0.12409 0.08334,0.12466 0.083318,0.11687 -1.379e-4,0.21573 -0.043629,0.0517 -0.038637,0.052 -0.214133,-0.0125 l -0.089162,-0.0328 -0.027547,0.0342 c -0.01515,0.0188 -0.036233,0.0568 -0.046855,0.0844 l -0.019309,0.0502 0.061759,0.0522 c 0.03397,0.0287 0.081527,0.0703 0.1056853,0.0923 l 0.043926,0.0401 -0.030427,0.076 c -0.016727,0.0418 -0.036378,0.0807 -0.043665,0.0864 -0.00812,0.006 -0.063353,0.006 -0.1427554,-10e-4 -0.149696,-0.0139 -0.1471473,-0.0152 -0.1719207,0.0881 -0.019118,0.0797 -0.01615,0.0834 0.1197804,0.14821 0.066887,0.0319 0.1082496,0.0586 0.1127567,0.0728 0.00931,0.0293 -0.012362,0.16299 -0.027999,0.17265 -0.00667,0.004 -0.064415,0.0166 -0.1283512,0.0277 -0.063935,0.0111 -0.1226451,0.0254 -0.1304702,0.0318 -0.019194,0.0156 -0.019194,0.16133 0,0.17692 0.00783,0.006 0.066535,0.0206 0.1304702,0.0317 0.063936,0.0111 0.1216787,0.0236 0.1283512,0.0277 0.015637,0.01 0.037311,0.14332 0.027999,0.17266 -0.00451,0.0142 -0.045869,0.0409 -0.1127567,0.0728 -0.1354263,0.0646 -0.1395134,0.0695 -0.1204945,0.14518 0.023507,0.0936 0.028386,0.099 0.089115,0.0986 0.029519,-1.9e-4 0.089525,-0.005 0.133351,-0.0108 0.058713,-0.008 0.083338,-0.007 0.093567,0.003 0.026833,0.0264 0.069868,0.14898 0.059259,0.1688 -0.00554,0.0104 -0.051524,0.0534 -0.1021859,0.0957 -0.082168,0.0685 -0.09133,0.08 -0.084829,0.10647 0.010371,0.0422 0.061378,0.12664 0.081044,0.13419 0.00914,0.004 0.065673,-0.0122 0.1256367,-0.0349 0.059964,-0.0227 0.1184876,-0.0412 0.1300892,-0.0412 0.023664,0 0.1129236,0.11078 0.1129236,0.14016 0,0.0102 -0.030742,0.0654 -0.068306,0.12257 -0.037566,0.0572 -0.068306,0.10968 -0.068306,0.11661 0,0.0173 0.1039727,0.12152 0.1212087,0.12152 0.00765,0 0.059857,-0.0307 0.1160181,-0.0683 0.056161,-0.0376 0.1110895,-0.0683 0.1220661,-0.0683 0.029202,0 0.1415648,0.0904 0.1415648,0.11392 0,0.011 -0.018517,0.0691 -0.041189,0.12909 -0.022672,0.06 -0.038384,0.1165 -0.034879,0.12564 0.00757,0.0197 0.092063,0.0707 0.1344939,0.0811 0.026987,0.007 0.037629,-0.002 0.1081375,-0.0894 0.043014,-0.0532 0.084204,-0.0994 0.091567,-0.10266 0.019337,-0.009 0.1629995,0.0508 0.1736586,0.0718 0.00496,0.01 0.0049,0.0535 -1.839e-4,0.0974 -0.00506,0.0438 -0.00946,0.10171 -0.00981,0.12864 -5.377e-4,0.0455 0.00229,0.0502 0.039498,0.0657 0.02204,0.009 0.062555,0.0198 0.090044,0.0236 l 0.049974,0.007 0.057307,-0.11995 c 0.036848,-0.0772 0.065231,-0.12248 0.079591,-0.12704 0.022118,-0.007 0.1587061,0.0103 0.169968,0.0216 0.00322,0.003 0.015233,0.0559 0.02669,0.11707 0.011454,0.0611 0.025958,0.12273 0.032236,0.13685 0.010232,0.023 0.019501,0.0256 0.089948,0.0256 0.050682,0 0.082901,-0.005 0.090853,-0.0149 0.00678,-0.008 0.020913,-0.0667 0.031427,-0.12997 0.010516,-0.0633 0.022628,-0.1208 0.026928,-0.12776 0.00997,-0.0161 0.1432114,-0.038 0.173325,-0.0284 0.014211,0.005 0.038085,0.04 0.063521,0.0943 0.022415,0.0479 0.050825,0.10174 0.06314,0.11961 0.020154,0.0293 0.026898,0.0318 0.067425,0.0253 0.024763,-0.004 0.062457,-0.0145 0.083758,-0.0234 0.036521,-0.0153 0.038708,-0.0193 0.038356,-0.0709 -1.839e-4,-0.0301 -0.00503,-0.0905 -0.010738,-0.13433 -0.00763,-0.0586 -0.00679,-0.0832 0.00321,-0.093 0.021079,-0.0206 0.1553533,-0.0717 0.1706827,-0.0649 0.00752,0.003 0.048502,0.0492 0.091115,0.10188 0.042612,0.0527 0.0862,0.0958 0.096805,0.0957 0.022723,-1.4e-4 0.1334769,-0.0618 0.1452788,-0.0809 0.00449,-0.007 -0.011758,-0.0719 -0.036141,-0.14371 l -0.044355,-0.13051 0.061949,-0.0557 c 0.034063,-0.0307 0.067609,-0.0557 0.074544,-0.0557 0.00694,0 0.062749,0.0333 0.1240417,0.074 0.061293,0.0407 0.118291,0.074 0.1266371,0.074 0.019608,0 0.1194228,-0.0996 0.1194228,-0.11919 0,-0.008 -0.030741,-0.0617 -0.068306,-0.11894 -0.037565,-0.0572 -0.06833,-0.11237 -0.06833,-0.12257 0,-0.0281 0.091074,-0.14018 0.1139469,-0.14018 0.011042,0 0.06915,0.0186 0.1291131,0.0412 0.059965,0.0227 0.1166279,0.0383 0.1259465,0.0347 0.0202,-0.008 0.086062,-0.11921 0.086258,-0.14588 9.19e-5,-0.0103 -0.043443,-0.0553 -0.096662,-0.10016 -0.1109742,-0.0934 -0.114367,-0.10425 -0.064783,-0.20556 0.02563,-0.0524 0.035291,-0.0623 0.059092,-0.0609 0.015652,9.2e-4 0.078395,0.005 0.1394225,0.01 l 0.1109471,0.008 0.017356,-0.0415 c 0.00955,-0.0229 0.020458,-0.0641 0.024237,-0.0917 l 0.00688,-0.0502 -0.1201131,-0.0575 c -0.075906,-0.0363 -0.1226911,-0.0656 -0.1270893,-0.0794 -0.00936,-0.0295 0.012799,-0.16267 0.028689,-0.17249 0.00696,-0.004 0.064443,-0.0164 0.1277557,-0.0269 0.06331,-0.0105 0.1217812,-0.0247 0.1299467,-0.0314 0.020216,-0.0168 0.020216,-0.16167 0,-0.17845 -0.00817,-0.007 -0.066636,-0.0209 -0.1299467,-0.0315 -0.063313,-0.0105 -0.1207996,-0.0226 -0.1277557,-0.0269 -0.015999,-0.01 -0.037997,-0.14309 -0.028546,-0.17287 0.00455,-0.0144 0.049884,-0.0428 0.1270415,-0.0796 l 0.1199706,-0.0573 -0.00686,-0.05 c -0.00376,-0.0275 -0.014385,-0.068 -0.023594,-0.0901 -0.015897,-0.038 -0.019512,-0.04 -0.071401,-0.0397 -0.030058,1.9e-4 -0.090502,0.005 -0.1343271,0.0107 -0.0934,0.0122 -0.094307,0.0116 -0.1345412,-0.085 -0.019316,-0.0464 -0.025172,-0.0742 -0.018309,-0.087 0.00555,-0.0104 0.051189,-0.0531 0.1014002,-0.095 0.050211,-0.0419 0.091186,-0.0847 0.091186,-0.0951 -1.378e-4,-0.0269 -0.065959,-0.13833 -0.086258,-0.14612 -0.00932,-0.004 -0.065982,0.012 -0.1259465,0.0347 -0.059963,0.0227 -0.1180708,0.0412 -0.1291131,0.0412 -0.022873,0 -0.1139469,-0.11204 -0.1139469,-0.14018 0,-0.0102 0.030765,-0.0654 0.06833,-0.12259 0.037565,-0.0572 0.068306,-0.11071 0.068306,-0.11892 0,-0.0197 -0.099925,-0.11919 -0.1197321,-0.11919 -0.0085,0 -0.058014,0.0286 -0.1100666,0.0635 -0.1395658,0.0937 -0.123328,0.0911 -0.2018237,0.0321 -0.039846,-0.03 -0.069259,-0.0608 -0.069259,-0.0726 0,-0.0113 0.018563,-0.0695 0.041236,-0.12951 0.022672,-0.06 0.038288,-0.11666 0.034713,-0.12597 -0.00784,-0.0204 -0.1193328,-0.0861 -0.1464456,-0.0863 -0.010607,-4e-5 -0.054193,0.043 -0.096805,0.0958 -0.042613,0.0527 -0.083467,0.0985 -0.090829,0.10175 -0.019333,0.009 -0.1629784,-0.0508 -0.1736586,-0.0718 -0.00495,-0.01 -0.00502,-0.0484 -1.838e-4,-0.086 0.00487,-0.0376 0.00926,-0.0955 0.00979,-0.12866 9.283e-4,-0.0582 -3.676e-4,-0.0609 -0.037736,-0.0765 -0.021301,-0.009 -0.058996,-0.0194 -0.083758,-0.0234 -0.040529,-0.006 -0.047246,-0.004 -0.067402,0.0253 -0.012315,0.0179 -0.040724,0.0717 -0.06314,0.11959 -0.025435,0.0544 -0.049333,0.0898 -0.063545,0.0943 -0.030113,0.01 -0.1633341,-0.0123 -0.1733015,-0.0284 -0.0043,-0.007 -0.016436,-0.0645 -0.026951,-0.12778 -0.010516,-0.0633 -0.024674,-0.12178 -0.031451,-0.12995 -0.00795,-0.01 -0.040159,-0.0149 -0.090829,-0.0149 z m -0.057211,0.63726 c 0.031387,1.4e-4 0.063553,0.002 0.096138,0.005 0.032585,0.003 0.06558,0.007 0.098638,0.0127 0.066117,0.0108 0.132471,0.0258 0.1961338,0.0434 0.063663,0.0175 0.1246506,0.0375 0.1800632,0.0582 0.055413,0.0206 0.1052451,0.0419 0.1466119,0.0619 0.02746,0.0133 0.054535,0.0279 0.081139,0.0437 0.026605,0.0158 0.052753,0.0328 0.078353,0.0507 0.025601,0.018 0.050644,0.0369 0.075092,0.0568 0.024448,0.0198 0.048302,0.0405 0.071449,0.0618 0.046293,0.0426 0.089824,0.0879 0.1300175,0.1344 0.040193,0.0465 0.077044,0.0944 0.1099471,0.14211 0.032903,0.0478 0.061861,0.0955 0.086282,0.14171 0.024421,0.0463 0.044297,0.0911 0.059045,0.13313 0.00737,0.021 0.013457,0.0413 0.01819,0.0608 0.00473,0.0195 0.00813,0.0381 0.010071,0.0556 0.00194,0.0176 0.00245,0.0341 0.00145,0.0494 -9.926e-4,0.0153 -0.00351,0.0294 -0.00759,0.0422 -0.00462,0.0144 -0.010589,0.0275 -0.017642,0.0394 -0.00705,0.0119 -0.015195,0.0226 -0.024165,0.0321 -0.00897,0.01 -0.018769,0.0181 -0.029142,0.0256 -0.010372,0.007 -0.021311,0.014 -0.03257,0.0196 -0.022518,0.0112 -0.046308,0.019 -0.069282,0.0241 -0.022974,0.005 -0.045139,0.008 -0.06445,0.008 -0.097556,0.003 -0.182706,0.002 -0.302962,-10e-4 -0.120256,-0.003 -0.2756189,-0.007 -0.5135947,-0.009 v -2e-5 c -0.00354,3.7e-4 -0.018784,0.001 -0.041617,-8.6e-4 -0.011416,-10e-4 -0.024722,-0.003 -0.039427,-0.006 -0.014704,-0.003 -0.030792,-0.008 -0.04776,-0.014 -0.016968,-0.006 -0.034814,-0.0144 -0.053022,-0.0247 -0.018207,-0.0103 -0.036788,-0.0229 -0.055211,-0.0383 -0.018423,-0.0153 -0.036692,-0.0334 -0.054307,-0.0548 -0.017616,-0.0213 -0.034572,-0.0459 -0.050355,-0.0742 -0.078255,-0.14024 -0.1463799,-0.2568 -0.2109185,-0.37158 -0.032269,-0.0574 -0.063626,-0.1143 -0.094924,-0.17354 -0.031298,-0.0592 -0.062531,-0.12076 -0.094496,-0.18732 -0.010213,-0.0213 -0.019939,-0.046 -0.025475,-0.0726 -0.00277,-0.0133 -0.00447,-0.027 -0.00469,-0.0409 -2.297e-4,-0.0139 0.00108,-0.028 0.00433,-0.0421 0.00326,-0.0141 0.00849,-0.0282 0.016142,-0.0421 0.00766,-0.0138 0.017736,-0.0275 0.030713,-0.0406 0.012976,-0.0131 0.028851,-0.0258 0.048069,-0.0378 0.019218,-0.012 0.041781,-0.0233 0.068163,-0.0337 0.016436,-0.006 0.033645,-0.012 0.051522,-0.0166 0.017876,-0.005 0.036416,-0.008 0.055521,-0.0113 0.03821,-0.006 0.078669,-0.008 0.1205183,-0.008 z m -0.8556028,0.44148 c 0.011957,1.8e-4 0.023559,0.002 0.03476,0.004 0.011201,0.002 0.022009,0.006 0.032404,0.01 0.020789,0.008 0.039922,0.0201 0.057187,0.0335 0.017266,0.0134 0.032652,0.0287 0.045998,0.0441 0.013346,0.0155 0.024637,0.0312 0.033665,0.0457 0.052123,0.0838 0.093693,0.15925 0.1518502,0.26615 0.058158,0.10691 0.1329025,0.24525 0.2513452,0.45481 0.0021,0.003 0.010635,0.0158 0.020261,0.0369 0.00481,0.0106 0.00991,0.0232 0.014594,0.0377 0.00468,0.0145 0.00896,0.0309 0.012166,0.0489 0.00321,0.0181 0.00535,0.0378 0.00576,0.0589 4.136e-4,0.0212 -9.329e-4,0.0438 -0.00469,0.0677 -0.00375,0.0239 -0.00992,0.049 -0.019166,0.0752 -0.00925,0.0262 -0.02158,0.0535 -0.037665,0.0816 -0.079749,0.13938 -0.144476,0.2579 -0.2094898,0.37239 -0.032507,0.0572 -0.065071,0.11348 -0.099638,0.1708 -0.034567,0.0573 -0.071134,0.11574 -0.11159,0.17735 -0.012927,0.0197 -0.0291,0.0407 -0.048855,0.059 -0.00988,0.009 -0.020643,0.0175 -0.032356,0.0248 -0.011712,0.007 -0.024364,0.0132 -0.037998,0.0175 -0.013634,0.004 -0.02824,0.007 -0.043879,0.007 -0.01564,2.8e-4 -0.032314,-0.002 -0.050045,-0.006 -0.017731,-0.005 -0.036541,-0.0122 -0.05645,-0.023 -0.019909,-0.0108 -0.040921,-0.0248 -0.063092,-0.0427 -0.013812,-0.0111 -0.027195,-0.0234 -0.040165,-0.0368 -0.012969,-0.0133 -0.025531,-0.0277 -0.037665,-0.043 -0.024267,-0.0305 -0.046856,-0.0647 -0.06783,-0.10147 -0.020975,-0.0368 -0.040322,-0.0761 -0.058069,-0.11707 -0.017746,-0.0409 -0.033892,-0.0835 -0.048474,-0.12649 -0.014582,-0.043 -0.027611,-0.0866 -0.039093,-0.12971 -0.011483,-0.0431 -0.021432,-0.0857 -0.029879,-0.1268 -0.00845,-0.0411 -0.015403,-0.0807 -0.02088,-0.11769 -0.00548,-0.037 -0.00948,-0.0715 -0.012047,-0.10242 -0.00256,-0.0308 -0.00377,-0.0619 -0.00376,-0.0932 4.6e-6,-0.0313 0.00123,-0.0628 0.00359,-0.0943 0.00236,-0.0315 0.00586,-0.063 0.010357,-0.0945 0.0045,-0.0314 0.010023,-0.0627 0.016452,-0.0938 0.012857,-0.0621 0.029358,-0.12308 0.04864,-0.1818 0.019283,-0.0587 0.041331,-0.11514 0.06533,-0.16809 0.023999,-0.0529 0.049942,-0.1024 0.076949,-0.14716 0.027008,-0.0448 0.055095,-0.0848 0.083401,-0.11894 0.014153,-0.0171 0.028365,-0.0327 0.042522,-0.0467 0.014158,-0.014 0.028264,-0.0263 0.042212,-0.0369 0.013948,-0.0106 0.027735,-0.0194 0.04126,-0.0262 0.013525,-0.007 0.026776,-0.0118 0.039665,-0.0146 0.014585,-0.003 0.028737,-0.005 0.042403,-0.004 z m 0.914552,0.89631 a 0.15832055,0.15366408 0 0 1 0.1583261,0.15366 0.15832055,0.15366408 0 0 1 -0.1583261,0.15366 0.15832055,0.15366408 0 0 1 -0.1583256,-0.15366 0.15832055,0.15366408 0 0 1 0.1583256,-0.15366 z m 0.786154,0.31158 c 0.065084,-2.3e-4 0.1293457,9e-5 0.1955382,0.002 0.066192,0.002 0.1343142,0.004 0.2071094,0.009 0.02326,10e-4 0.049298,0.005 0.074758,0.0133 0.012731,0.004 0.025308,0.009 0.037332,0.016 0.012024,0.007 0.023496,0.0147 0.033975,0.0246 0.010479,0.01 0.019973,0.0214 0.02807,0.035 0.0081,0.0136 0.01479,0.0292 0.019666,0.0471 0.00488,0.0179 0.00794,0.0382 0.00876,0.0611 8.226e-4,0.0229 -6.112e-4,0.0484 -0.00469,0.0769 -0.00254,0.0177 -0.00628,0.0356 -0.011118,0.0537 -0.00484,0.0181 -0.010779,0.0363 -0.01769,0.0546 -0.013822,0.0366 -0.031553,0.0737 -0.052331,0.11054 -0.020779,0.0369 -0.044595,0.0736 -0.070544,0.10976 -0.025949,0.0361 -0.054041,0.0717 -0.083377,0.10609 -0.029336,0.0344 -0.059916,0.0677 -0.090853,0.0995 -0.030937,0.0317 -0.062242,0.0618 -0.092996,0.0899 -0.030754,0.0281 -0.060949,0.054 -0.089734,0.0774 -0.028786,0.0234 -0.056154,0.0442 -0.081187,0.062 -0.024925,0.0177 -0.050815,0.0344 -0.077472,0.0501 -0.026657,0.0157 -0.054091,0.0304 -0.082116,0.0442 -0.028025,0.0137 -0.056635,0.0265 -0.085662,0.0384 -0.029027,0.0118 -0.05845,0.0227 -0.088115,0.0327 -0.059332,0.0199 -0.1195787,0.036 -0.179277,0.0486 -0.059698,0.0126 -0.1188658,0.0215 -0.1760156,0.0271 -0.057149,0.006 -0.1122834,0.008 -0.1639687,0.006 -0.051685,-10e-4 -0.099902,-0.006 -0.1432077,-0.0134 -0.021652,-0.004 -0.042081,-0.008 -0.061092,-0.0139 -0.019011,-0.005 -0.036611,-0.0116 -0.052617,-0.0185 -0.016005,-0.007 -0.03041,-0.0146 -0.043045,-0.0231 -0.012634,-0.008 -0.023504,-0.0176 -0.032403,-0.0275 -0.01007,-0.0112 -0.018338,-0.0229 -0.025047,-0.035 -0.00671,-0.0121 -0.011855,-0.0245 -0.015642,-0.0372 -0.00379,-0.0127 -0.00622,-0.0255 -0.00752,-0.0383 -0.00131,-0.0129 -0.00149,-0.0257 -7.628e-4,-0.0385 0.00146,-0.0254 0.00656,-0.0503 0.013523,-0.0731 0.00697,-0.0228 0.015793,-0.0436 0.024737,-0.061 0.045183,-0.0879 0.088595,-0.16224 0.150445,-0.26699 0.061851,-0.10475 0.1421392,-0.23986 0.261131,-0.4491 0.00144,-0.003 0.00809,-0.0173 0.021261,-0.0363 0.00658,-0.01 0.014802,-0.0203 0.024809,-0.0317 0.010006,-0.0114 0.02179,-0.0234 0.035546,-0.0353 0.013756,-0.0119 0.029475,-0.0236 0.047307,-0.0346 0.017832,-0.011 0.037786,-0.0212 0.060021,-0.0299 0.022235,-0.009 0.046745,-0.0159 0.073711,-0.021 0.026965,-0.005 0.056379,-0.008 0.088401,-0.008 0.1587654,0 0.292218,-0.003 0.4223853,-0.003 z"
         id="path1007"
         inkscape:connector-curvature="0" />
    </g>
  </g>
</svg>
