<?xml version="1.0" encoding="UTF-8" standalone="no"?>
<!-- Created with Inkscape (http://www.inkscape.org/) -->

<svg
   xmlns:osb="http://www.openswatchbook.org/uri/2009/osb"
   xmlns:dc="http://purl.org/dc/elements/1.1/"
   xmlns:cc="http://creativecommons.org/ns#"
   xmlns:rdf="http://www.w3.org/1999/02/22-rdf-syntax-ns#"
   xmlns:svg="http://www.w3.org/2000/svg"
   xmlns="http://www.w3.org/2000/svg"
   xmlns:xlink="http://www.w3.org/1999/xlink"
   xmlns:sodipodi="http://sodipodi.sourceforge.net/DTD/sodipodi-0.dtd"
   xmlns:inkscape="http://www.inkscape.org/namespaces/inkscape"
   width="24"
   height="24"
   viewBox="0 0 6.3499997 6.3499997"
   version="1.1"
   id="svg4942"
   inkscape:version="0.92.2 5c3e80d, 2017-08-06"
   sodipodi:docname="emblem-favorite.svg">
  <defs
     id="defs4936">
    <linearGradient
       inkscape:collect="always"
       id="linearGradient988">
      <stop
         style="stop-color:#ff1c1c;stop-opacity:1"
         offset="0"
         id="stop984" />
      <stop
         style="stop-color:#b21414;stop-opacity:1"
         offset="1"
         id="stop986" />
    </linearGradient>
    <linearGradient
       id="linearGradient6987"
       osb:paint="solid">
      <stop
         style="stop-color:#77d2fb;stop-opacity:1;"
         offset="0"
         id="stop6985" />
    </linearGradient>
    <linearGradient
       inkscape:collect="always"
       xlink:href="#linearGradient988"
       id="linearGradient931"
       gradientUnits="userSpaceOnUse"
       gradientTransform="matrix(0.13065024,0,0,0.13064869,16.503714,263.11665)"
       x1="-102.0364"
       y1="228.77954"
       x2="-102.0183"
       y2="257.0174" />
  </defs>
  <sodipodi:namedview
     id="base"
     pagecolor="#ffffff"
     bordercolor="#666666"
     borderopacity="1.0"
     inkscape:pageopacity="0.0"
     inkscape:pageshadow="2"
     inkscape:zoom="9.9399207"
     inkscape:cx="0.75018571"
     inkscape:cy="11.209334"
     inkscape:document-units="mm"
     inkscape:current-layer="layer1"
     showgrid="false"
     units="px"
     width="128px"
     inkscape:window-width="1600"
     inkscape:window-height="806"
     inkscape:window-x="25"
     inkscape:window-y="0"
     inkscape:window-maximized="0"
     inkscape:measure-start="-293.521,100.415"
     inkscape:measure-end="-294.709,409.978" />
  <metadata
     id="metadata4939">
    <rdf:RDF>
      <cc:Work
         rdf:about="">
        <dc:format>image/svg+xml</dc:format>
        <dc:type
           rdf:resource="http://purl.org/dc/dcmitype/StillImage" />
        <dc:title />
      </cc:Work>
    </rdf:RDF>
  </metadata>
  <g
     inkscape:label="Layer 1"
     inkscape:groupmode="layer"
     id="layer1"
     transform="translate(0,-290.64999)">
    <g
       id="g826"
       transform="matrix(0.98241736,0,0,0.98246427,0.05582489,5.0822033)"
       style="stroke-width:1.01787305">
      <path
         id="path822"
         d="m 4.3904497,291.11255 c -0.4801642,0 -0.9125734,0.20338 -1.2153403,0.57462 -0.3028447,-0.37124 -0.7352394,-0.57462 -1.2154184,-0.57462 -0.9155939,0 -1.65783882,0.84463 -1.65783882,1.88656 0,0.27994 0.0434554,0.54935 0.11957906,0.80663 0,0 0.0690101,0.23211 0.13016537,0.3599 0.69879839,1.63378 2.62340419,2.6932 2.62340419,2.6932 0,0 1.9246184,-1.05945 2.6234014,-2.6932 0,0 0.090168,-0.21769 0.1301661,-0.3599 0.072681,-0.25846 0.1195795,-0.52668 0.1195795,-0.80663 0,-1.04193 -0.742244,-1.88656 -1.6578376,-1.88656 z"
         style="opacity:0.25;fill:#000000;fill-opacity:1;stroke:none;stroke-width:0.07085624;stroke-miterlimit:4;stroke-dasharray:none;stroke-opacity:1"
         inkscape:connector-curvature="0" />
      <path
         inkscape:connector-curvature="0"
         style="fill:url(#linearGradient931);fill-opacity:1;stroke:#800000;stroke-width:0.03053619;stroke-miterlimit:4;stroke-dasharray:none;stroke-opacity:1"
         d="m 4.3904497,290.94938 c -0.4801642,0 -0.9125734,0.20338 -1.2153403,0.57462 -0.3028447,-0.37124 -0.7352394,-0.57462 -1.2154184,-0.57462 -0.9155939,0 -1.65783882,0.84463 -1.65783882,1.88656 0,0.27994 0.0434554,0.54935 0.11957906,0.80663 0,0 0.0690101,0.23211 0.13016537,0.3599 0.69879839,1.63378 2.62340419,2.6932 2.62340419,2.6932 0,0 1.9246184,-1.05945 2.6234014,-2.6932 0,0 0.090168,-0.21769 0.1301661,-0.3599 0.072681,-0.25846 0.1195795,-0.52668 0.1195795,-0.80663 0,-1.04193 -0.742244,-1.88656 -1.6578376,-1.88656 z"
         id="path929" />
    </g>
  </g>
</svg>
