<?xml version="1.0" encoding="UTF-8" standalone="no"?>
<!-- Created with Inkscape (http://www.inkscape.org/) -->

<svg
   xmlns:osb="http://www.openswatchbook.org/uri/2009/osb"
   xmlns:dc="http://purl.org/dc/elements/1.1/"
   xmlns:cc="http://creativecommons.org/ns#"
   xmlns:rdf="http://www.w3.org/1999/02/22-rdf-syntax-ns#"
   xmlns:svg="http://www.w3.org/2000/svg"
   xmlns="http://www.w3.org/2000/svg"
   xmlns:xlink="http://www.w3.org/1999/xlink"
   xmlns:sodipodi="http://sodipodi.sourceforge.net/DTD/sodipodi-0.dtd"
   xmlns:inkscape="http://www.inkscape.org/namespaces/inkscape"
   width="24"
   height="24"
   viewBox="0 0 6.3499997 6.3499997"
   version="1.1"
   id="svg4942"
   inkscape:version="0.92.2 5c3e80d, 2017-08-06"
   sodipodi:docname="emblem-urgent.svg">
  <defs
     id="defs4936">
    <linearGradient
       id="linearGradient6987"
       osb:paint="solid">
      <stop
         style="stop-color:#77d2fb;stop-opacity:1;"
         offset="0"
         id="stop6985" />
    </linearGradient>
    <linearGradient
       inkscape:collect="always"
       id="linearGradient6261">
      <stop
         style="stop-color:#9fb0b8;stop-opacity:1"
         offset="0"
         id="stop6263" />
      <stop
         style="stop-color:#cedbe0;stop-opacity:1"
         offset="1"
         id="stop6265" />
    </linearGradient>
    <linearGradient
       inkscape:collect="always"
       xlink:href="#linearGradient886"
       id="linearGradient909"
       gradientUnits="userSpaceOnUse"
       gradientTransform="matrix(0.05223899,0,0,0.05224416,-1.8401514,275.98641)"
       x1="93.605835"
       y1="288.35901"
       x2="96.493874"
       y2="391.58511" />
    <linearGradient
       inkscape:collect="always"
       xlink:href="#linearGradient6261"
       id="linearGradient1037"
       x1="0"
       y1="0"
       x2="1"
       y2="0"
       gradientUnits="userSpaceOnUse" />
    <linearGradient
       inkscape:collect="always"
       xlink:href="#linearGradient6261"
       id="linearGradient1039"
       x1="0"
       y1="0"
       x2="1"
       y2="0"
       gradientUnits="userSpaceOnUse" />
    <linearGradient
       inkscape:collect="always"
       xlink:href="#linearGradient6261"
       id="linearGradient1041"
       x1="0"
       y1="0"
       x2="1"
       y2="0"
       gradientUnits="userSpaceOnUse" />
    <linearGradient
       inkscape:collect="always"
       xlink:href="#linearGradient6261"
       id="linearGradient1043"
       x1="0"
       y1="0"
       x2="1"
       y2="0"
       gradientUnits="userSpaceOnUse" />
    <linearGradient
       inkscape:collect="always"
       xlink:href="#linearGradient6261"
       id="linearGradient1045"
       x1="0"
       y1="0"
       x2="1"
       y2="0"
       gradientUnits="userSpaceOnUse" />
    <linearGradient
       inkscape:collect="always"
       xlink:href="#linearGradient6261"
       id="linearGradient1047"
       x1="0"
       y1="0"
       x2="1"
       y2="0"
       gradientUnits="userSpaceOnUse" />
    <linearGradient
       inkscape:collect="always"
       xlink:href="#linearGradient6261"
       id="linearGradient1049"
       x1="0"
       y1="0"
       x2="1"
       y2="0"
       gradientUnits="userSpaceOnUse" />
    <linearGradient
       inkscape:collect="always"
       xlink:href="#linearGradient6261"
       id="linearGradient1051"
       x1="0"
       y1="0"
       x2="1"
       y2="0"
       gradientUnits="userSpaceOnUse" />
    <linearGradient
       inkscape:collect="always"
       xlink:href="#linearGradient6261"
       id="linearGradient1053"
       x1="0"
       y1="0"
       x2="1"
       y2="0"
       gradientUnits="userSpaceOnUse" />
    <linearGradient
       inkscape:collect="always"
       xlink:href="#linearGradient6261"
       id="linearGradient1055"
       x1="0"
       y1="0"
       x2="1"
       y2="0"
       gradientUnits="userSpaceOnUse" />
    <linearGradient
       inkscape:collect="always"
       xlink:href="#linearGradient6261"
       id="linearGradient1057"
       x1="0"
       y1="0"
       x2="1"
       y2="0"
       gradientUnits="userSpaceOnUse" />
    <linearGradient
       inkscape:collect="always"
       xlink:href="#linearGradient6261"
       id="linearGradient1059"
       x1="0"
       y1="0"
       x2="1"
       y2="0"
       gradientUnits="userSpaceOnUse" />
    <linearGradient
       inkscape:collect="always"
       xlink:href="#linearGradient6261"
       id="linearGradient1061"
       x1="0"
       y1="0"
       x2="1"
       y2="0"
       gradientUnits="userSpaceOnUse" />
    <linearGradient
       inkscape:collect="always"
       xlink:href="#linearGradient6261"
       id="linearGradient1063"
       x1="0"
       y1="0"
       x2="1"
       y2="0"
       gradientUnits="userSpaceOnUse" />
    <linearGradient
       inkscape:collect="always"
       xlink:href="#linearGradient6261"
       id="linearGradient1065"
       x1="0"
       y1="0"
       x2="1"
       y2="0"
       gradientUnits="userSpaceOnUse" />
    <linearGradient
       inkscape:collect="always"
       id="linearGradient886">
      <stop
         style="stop-color:#ff0000;stop-opacity:1"
         offset="0"
         id="stop882" />
      <stop
         style="stop-color:#bd0000;stop-opacity:1"
         offset="1"
         id="stop884" />
    </linearGradient>
  </defs>
  <sodipodi:namedview
     id="base"
     pagecolor="#ffffff"
     bordercolor="#666666"
     borderopacity="1.0"
     inkscape:pageopacity="0.0"
     inkscape:pageshadow="2"
     inkscape:zoom="19.879842"
     inkscape:cx="3.8423638"
     inkscape:cy="11.008233"
     inkscape:document-units="mm"
     inkscape:current-layer="layer1"
     showgrid="false"
     units="px"
     width="128px"
     inkscape:window-width="1600"
     inkscape:window-height="806"
     inkscape:window-x="25"
     inkscape:window-y="9"
     inkscape:window-maximized="0"
     inkscape:measure-start="-293.521,100.415"
     inkscape:measure-end="-294.709,409.978"
     showguides="false" />
  <metadata
     id="metadata4939">
    <rdf:RDF>
      <cc:Work
         rdf:about="">
        <dc:format>image/svg+xml</dc:format>
        <dc:type
           rdf:resource="http://purl.org/dc/dcmitype/StillImage" />
        <dc:title />
      </cc:Work>
    </rdf:RDF>
  </metadata>
  <g
     inkscape:label="Layer 1"
     inkscape:groupmode="layer"
     id="layer1"
     transform="translate(0,-290.64999)">
    <ellipse
       style="opacity:0.25;fill:#000000;fill-opacity:1;fill-rule:nonzero;stroke:none;stroke-width:0.01146859;stroke-linecap:round;stroke-linejoin:round;stroke-miterlimit:4;stroke-dasharray:none;stroke-dashoffset:0;stroke-opacity:1"
       id="circle873"
       cx="3.175"
       cy="293.88968"
       rx="2.8454609"
       ry="2.8457425" />
    <ellipse
       cy="293.78531"
       cx="3.175"
       id="circle901"
       style="opacity:1;fill:url(#linearGradient909);fill-opacity:1;fill-rule:nonzero;stroke:#800000;stroke-width:0.05;stroke-linecap:round;stroke-linejoin:round;stroke-miterlimit:4;stroke-dasharray:none;stroke-dashoffset:0;stroke-opacity:1"
       rx="2.8454609"
       ry="2.8457425" />
    <g
       style="opacity:0.25;fill:#000000;fill-opacity:1;stroke-width:1.05425858"
       transform="matrix(0.00839222,0,0,0.00839305,1.0349831,291.77625)"
       id="g871">
      <g
         style="fill:#000000;fill-opacity:1;stroke-width:1.05425858"
         id="g869">
        <path
           id="path865"
           d="M 255,0 C 114.75,0 0,114.75 0,255 0,395.25 114.75,510 255,510 395.25,510 510,395.25 510,255 510,114.75 395.25,0 255,0 Z m 0,459 C 142.8,459 51,367.2 51,255 51,142.8 142.8,51 255,51 c 112.2,0 204,91.8 204,204 0,112.2 -91.8,204 -204,204 z"
           style="fill:#000000;fill-opacity:1;stroke-width:1.05425858"
           inkscape:connector-curvature="0" />
        <polygon
           id="polygon867"
           points="229.5,280.5 362.1,362.1 382.5,328.95 267.75,260.1 267.75,127.5 229.5,127.5 "
           style="fill:#000000;fill-opacity:1;stroke-width:1.05425858" />
      </g>
    </g>
    <g
       id="g7"
       transform="matrix(0.00839222,0,0,0.00839305,1.0349831,291.6451)"
       style="fill:#ffd5d5;fill-opacity:1;stroke:#800000;stroke-width:2.38304176;stroke-miterlimit:4;stroke-dasharray:none;stroke-opacity:1">
      <g
         id="schedule"
         style="fill:#ffd5d5;fill-opacity:1;stroke:#800000;stroke-width:2.38304176;stroke-miterlimit:4;stroke-dasharray:none;stroke-opacity:1">
        <path
           inkscape:connector-curvature="0"
           style="fill:#ffd5d5;fill-opacity:1;stroke:#800000;stroke-width:2.38304176;stroke-miterlimit:4;stroke-dasharray:none;stroke-opacity:1"
           d="M 255,0 C 114.75,0 0,114.75 0,255 0,395.25 114.75,510 255,510 395.25,510 510,395.25 510,255 510,114.75 395.25,0 255,0 Z m 0,459 C 142.8,459 51,367.2 51,255 51,142.8 142.8,51 255,51 c 112.2,0 204,91.8 204,204 0,112.2 -91.8,204 -204,204 z"
           id="path2" />
        <polygon
           style="fill:#ffd5d5;fill-opacity:1;stroke:#800000;stroke-width:2.38304176;stroke-miterlimit:4;stroke-dasharray:none;stroke-opacity:1"
           points="267.75,260.1 267.75,127.5 229.5,127.5 229.5,280.5 362.1,362.1 382.5,328.95 "
           id="polygon4" />
      </g>
    </g>
    <g
       id="g9"
       transform="matrix(0.00694747,0,0,0.00694816,-4.5874045,286.11742)"
       style="fill:url(#linearGradient1037);fill-opacity:1;stroke-width:1.0227772" />
    <g
       id="g11"
       transform="matrix(0.00694747,0,0,0.00694816,-4.5874045,286.11742)"
       style="fill:url(#linearGradient1039);fill-opacity:1;stroke-width:1.0227772" />
    <g
       id="g13"
       transform="matrix(0.00694747,0,0,0.00694816,-4.5874045,286.11742)"
       style="fill:url(#linearGradient1041);fill-opacity:1;stroke-width:1.0227772" />
    <g
       id="g15"
       transform="matrix(0.00694747,0,0,0.00694816,-4.5874045,286.11742)"
       style="fill:url(#linearGradient1043);fill-opacity:1;stroke-width:1.0227772" />
    <g
       id="g17"
       transform="matrix(0.00694747,0,0,0.00694816,-4.5874045,286.11742)"
       style="fill:url(#linearGradient1045);fill-opacity:1;stroke-width:1.0227772" />
    <g
       id="g19"
       transform="matrix(0.00694747,0,0,0.00694816,-4.5874045,286.11742)"
       style="fill:url(#linearGradient1047);fill-opacity:1;stroke-width:1.0227772" />
    <g
       id="g21"
       transform="matrix(0.00694747,0,0,0.00694816,-4.5874045,286.11742)"
       style="fill:url(#linearGradient1049);fill-opacity:1;stroke-width:1.0227772" />
    <g
       id="g23"
       transform="matrix(0.00694747,0,0,0.00694816,-4.5874045,286.11742)"
       style="fill:url(#linearGradient1051);fill-opacity:1;stroke-width:1.0227772" />
    <g
       id="g25"
       transform="matrix(0.00694747,0,0,0.00694816,-4.5874045,286.11742)"
       style="fill:url(#linearGradient1053);fill-opacity:1;stroke-width:1.0227772" />
    <g
       id="g27"
       transform="matrix(0.00694747,0,0,0.00694816,-4.5874045,286.11742)"
       style="fill:url(#linearGradient1055);fill-opacity:1;stroke-width:1.0227772" />
    <g
       id="g29"
       transform="matrix(0.00694747,0,0,0.00694816,-4.5874045,286.11742)"
       style="fill:url(#linearGradient1057);fill-opacity:1;stroke-width:1.0227772" />
    <g
       id="g31"
       transform="matrix(0.00694747,0,0,0.00694816,-4.5874045,286.11742)"
       style="fill:url(#linearGradient1059);fill-opacity:1;stroke-width:1.0227772" />
    <g
       id="g33"
       transform="matrix(0.00694747,0,0,0.00694816,-4.5874045,286.11742)"
       style="fill:url(#linearGradient1061);fill-opacity:1;stroke-width:1.0227772" />
    <g
       id="g35"
       transform="matrix(0.00694747,0,0,0.00694816,-4.5874045,286.11742)"
       style="fill:url(#linearGradient1063);fill-opacity:1;stroke-width:1.0227772" />
    <g
       id="g37"
       transform="matrix(0.00694747,0,0,0.00694816,-4.5874045,286.11742)"
       style="fill:url(#linearGradient1065);fill-opacity:1;stroke-width:1.0227772" />
  </g>
</svg>
