<?xml version="1.0" encoding="UTF-8" standalone="no"?>
<!-- Created with Inkscape (http://www.inkscape.org/) -->

<svg
   xmlns:osb="http://www.openswatchbook.org/uri/2009/osb"
   xmlns:dc="http://purl.org/dc/elements/1.1/"
   xmlns:cc="http://creativecommons.org/ns#"
   xmlns:rdf="http://www.w3.org/1999/02/22-rdf-syntax-ns#"
   xmlns:svg="http://www.w3.org/2000/svg"
   xmlns="http://www.w3.org/2000/svg"
   xmlns:xlink="http://www.w3.org/1999/xlink"
   xmlns:sodipodi="http://sodipodi.sourceforge.net/DTD/sodipodi-0.dtd"
   xmlns:inkscape="http://www.inkscape.org/namespaces/inkscape"
   width="24"
   height="24"
   viewBox="0 0 6.3499997 6.3499997"
   version="1.1"
   id="svg4942"
   inkscape:version="0.92.2 5c3e80d, 2017-08-06"
   sodipodi:docname="emblem-shared.svg">
  <defs
     id="defs4936">
    <linearGradient
       inkscape:collect="always"
       id="linearGradient1231">
      <stop
         style="stop-color:#0db7fa;stop-opacity:1"
         offset="0"
         id="stop1227" />
      <stop
         style="stop-color:#0071fc;stop-opacity:1"
         offset="1"
         id="stop1229" />
    </linearGradient>
    <linearGradient
       id="linearGradient6987"
       osb:paint="solid">
      <stop
         style="stop-color:#77d2fb;stop-opacity:1;"
         offset="0"
         id="stop6985" />
    </linearGradient>
    <linearGradient
       inkscape:collect="always"
       xlink:href="#linearGradient1231"
       id="linearGradient1233"
       x1="97.566177"
       y1="316.707"
       x2="96.539238"
       y2="392.4646"
       gradientUnits="userSpaceOnUse"
       gradientTransform="matrix(0.05343149,0,0,0.05343149,-1.9546367,275.62157)" />
  </defs>
  <sodipodi:namedview
     id="base"
     pagecolor="#ffffff"
     bordercolor="#666666"
     borderopacity="1.0"
     inkscape:pageopacity="0.0"
     inkscape:pageshadow="2"
     inkscape:zoom="6.6612928"
     inkscape:cx="12.477885"
     inkscape:cy="4.787239"
     inkscape:document-units="mm"
     inkscape:current-layer="layer1"
     showgrid="false"
     units="px"
     width="128px"
     inkscape:window-width="1600"
     inkscape:window-height="798"
     inkscape:window-x="0"
     inkscape:window-y="0"
     inkscape:window-maximized="1"
     inkscape:measure-start="-293.521,100.415"
     inkscape:measure-end="-294.709,409.978" />
  <metadata
     id="metadata4939">
    <rdf:RDF>
      <cc:Work
         rdf:about="">
        <dc:format>image/svg+xml</dc:format>
        <dc:type
           rdf:resource="http://purl.org/dc/dcmitype/StillImage" />
        <dc:title />
      </cc:Work>
    </rdf:RDF>
  </metadata>
  <g
     inkscape:label="Layer 1"
     inkscape:groupmode="layer"
     id="layer1"
     transform="translate(0,-290.64999)">
    <g
       id="g843"
       transform="matrix(0.97574442,0,0,0.97580795,0.07701151,7.0528284)"
       style="stroke-width:1.02482522">
      <circle
         style="opacity:0.25;fill:#000000;fill-opacity:1;fill-rule:nonzero;stroke:none;stroke-width:0.03074475;stroke-linecap:round;stroke-linejoin:round;stroke-miterlimit:4;stroke-dasharray:none;stroke-dashoffset:0;stroke-opacity:1"
         id="circle833"
         cx="3.175"
         cy="293.95392"
         r="2.9104168" />
      <circle
         r="2.9104168"
         cy="293.82498"
         cx="3.175"
         id="path1201"
         style="opacity:1;fill:url(#linearGradient1233);fill-opacity:1;fill-rule:nonzero;stroke:#002f66;stroke-width:0.03074475;stroke-linecap:round;stroke-linejoin:round;stroke-miterlimit:4;stroke-dasharray:none;stroke-dashoffset:0;stroke-opacity:1" />
      <g
         transform="matrix(-0.00704738,0,0,0.00704738,4.9630967,292.11317)"
         id="g831"
         style="opacity:0.25;fill:#000000;fill-opacity:1;stroke-width:1.05636954">
        <g
           id="g829"
           style="fill:#000000;fill-opacity:1;stroke-width:1.05636954">
          <path
             inkscape:connector-curvature="0"
             d="m 408,178.5 c -20.4,0 -38.25,7.65 -51,20.4 L 175.95,94.35 C 178.5,89.25 178.5,81.6 178.5,76.5 178.5,33.15 145.35,0 102,0 58.65,0 25.5,33.15 25.5,76.5 c 0,43.35 33.15,76.5 76.5,76.5 20.4,0 38.25,-7.65 51,-20.4 l 181.05,104.55 c -2.55,5.1 -2.55,12.75 -2.55,17.85 0,5.1 0,12.75 2.55,17.85 L 153,379.95 c -12.75,-12.75 -30.6,-20.4 -51,-20.4 -40.8,0 -73.95,33.15 -73.95,73.95 0,40.8 33.15,73.95 73.95,73.95 40.8,0 73.95,-33.15 73.95,-73.95 0,-5.1 0,-10.2 -2.55,-17.85 l 181.05,-107.1 c 12.75,12.75 30.6,20.4 51,20.4 43.35,0 76.5,-33.15 76.5,-76.5 0,-43.35 -30.6,-73.95 -73.95,-73.95 z"
             id="path827"
             style="fill:#000000;fill-opacity:1;stroke-width:1.05636954" />
        </g>
      </g>
      <g
         style="fill:#ffffff;fill-opacity:1;stroke:#002f66;stroke-width:2.90838623;stroke-miterlimit:4;stroke-dasharray:none;stroke-opacity:1"
         id="g5"
         transform="matrix(-0.00704738,0,0,0.00704738,4.9630967,292.03689)">
        <g
           style="fill:#ffffff;fill-opacity:1;stroke:#002f66;stroke-width:2.90838623;stroke-miterlimit:4;stroke-dasharray:none;stroke-opacity:1"
           id="share-alt">
          <path
             style="fill:#ffffff;fill-opacity:1;stroke:#002f66;stroke-width:2.90838623;stroke-miterlimit:4;stroke-dasharray:none;stroke-opacity:1"
             id="path2"
             d="m 408,178.5 c -20.4,0 -38.25,7.65 -51,20.4 L 175.95,94.35 C 178.5,89.25 178.5,81.6 178.5,76.5 178.5,33.15 145.35,0 102,0 58.65,0 25.5,33.15 25.5,76.5 c 0,43.35 33.15,76.5 76.5,76.5 20.4,0 38.25,-7.65 51,-20.4 l 181.05,104.55 c -2.55,5.1 -2.55,12.75 -2.55,17.85 0,5.1 0,12.75 2.55,17.85 L 153,379.95 c -12.75,-12.75 -30.6,-20.4 -51,-20.4 -40.8,0 -73.95,33.15 -73.95,73.95 0,40.8 33.15,73.95 73.95,73.95 40.8,0 73.95,-33.15 73.95,-73.95 0,-5.1 0,-10.2 -2.55,-17.85 l 181.05,-107.1 c 12.75,12.75 30.6,20.4 51,20.4 43.35,0 76.5,-33.15 76.5,-76.5 0,-43.35 -30.6,-73.95 -73.95,-73.95 z"
             inkscape:connector-curvature="0" />
        </g>
      </g>
    </g>
  </g>
</svg>
