<?xml version="1.0" encoding="UTF-8" standalone="no"?>
<!-- Svg Vector Icons : http://www.onlinewebfonts.com/icon -->

<svg
   xmlns:dc="http://purl.org/dc/elements/1.1/"
   xmlns:cc="http://creativecommons.org/ns#"
   xmlns:rdf="http://www.w3.org/1999/02/22-rdf-syntax-ns#"
   xmlns:svg="http://www.w3.org/2000/svg"
   xmlns="http://www.w3.org/2000/svg"
   xmlns:sodipodi="http://sodipodi.sourceforge.net/DTD/sodipodi-0.dtd"
   xmlns:inkscape="http://www.inkscape.org/namespaces/inkscape"
   version="1.1"
   x="0px"
   y="0px"
   viewBox="0 0 16 16"
   enable-background="new 0 0 1000 1000"
   xml:space="preserve"
   id="svg10"
   sodipodi:docname="097cd086e40d8e2f4902e424e1095540.svg"
   width="16"
   height="16"
   inkscape:version="0.92.3 (2405546, 2018-03-11)"><defs
   id="defs14" /><sodipodi:namedview
   pagecolor="#ffffff"
   bordercolor="#666666"
   borderopacity="1"
   objecttolerance="10"
   gridtolerance="10"
   guidetolerance="10"
   inkscape:pageopacity="0"
   inkscape:pageshadow="2"
   inkscape:window-width="1600"
   inkscape:window-height="835"
   id="namedview12"
   showgrid="false"
   inkscape:zoom="30.208"
   inkscape:cx="11.769675"
   inkscape:cy="6.8001358"
   inkscape:window-x="0"
   inkscape:window-y="28"
   inkscape:window-maximized="1"
   inkscape:current-layer="svg10" />
<metadata
   id="metadata2"> Svg Vector Icons : http://www.onlinewebfonts.com/icon <rdf:RDF><cc:Work
     rdf:about=""><dc:format>image/svg+xml</dc:format><dc:type
       rdf:resource="http://purl.org/dc/dcmitype/StillImage" /><dc:title></dc:title></cc:Work></rdf:RDF></metadata>
<g
   id="g8"
   transform="matrix(0.01632693,0,0,0.01632693,-0.16414401,-0.16365889)"
   style="fill:#575757;fill-opacity:1;opacity:0.8"><path
     d="m 834.9,330.1 -42.7,610.4 c 0,27.3 -21.4,49.5 -47.8,49.5 H 255.7 c -26.4,0 -47.8,-22.2 -47.8,-49.5 L 165.2,330.1 V 280.6 H 835 v 49.5 z m -478.4,99 c 0,-27.4 -21.5,-49.5 -47.8,-49.5 -26.4,0 -47.8,22.1 -47.8,49.5 v 412.4 c 0,27.3 21.4,49.5 47.8,49.5 26.4,0 47.8,-22.2 47.8,-49.5 z m 191.4,0 c 0,-27.4 -21.4,-49.5 -47.8,-49.5 -26.4,0 -47.8,22.1 -47.8,49.5 v 412.4 c 0,27.3 21.4,49.5 47.8,49.5 26.4,0 47.8,-22.2 47.8,-49.5 z m 191.3,0 c 0,-27.4 -21.5,-49.5 -47.8,-49.5 -26.4,0 -47.8,22.1 -47.8,49.5 v 412.4 c 0,27.3 21.4,49.5 47.8,49.5 26.4,0 47.8,-22.2 47.8,-49.5 z"
     id="path4"
     inkscape:connector-curvature="0"
     style="fill:#575757;fill-opacity:1" /><path
     d="m 125.4,237.2 c 1,-21.5 -0.3,-42.7 3.6,-62.9 5.1,-26.5 23.1,-43.9 50.7,-45.9 32.4,-2.4 64.9,-1.8 97.3,-2.4 9.4,-0.2 18.7,0 31,0 0,-18 -0.3,-32.7 0,-47.4 0.9,-39.5 23.6,-66.7 62.2,-67.4 92.1,-1.5 184.3,-1.6 276.4,-0.1 38.9,0.7 59.9,25.5 61.1,64.8 0.4,15.6 0.1,31.2 0.1,50.1 26,0 48.7,1.1 71.1,-0.2 83.9,-4.9 103.9,38.2 93.1,111.4 -247.5,0 -495.2,0 -746.6,0 z M 365.6,128 c 92.4,0 181.7,0.3 271.1,-0.1 27.8,-0.1 14.9,-22.2 17.1,-35.3 2.6,-15.8 -1,-26.5 -21.7,-26.2 -65.8,1 -131.5,0.4 -197.3,0.4 -22.6,0 -45.2,0 -69.2,0 0,21.4 0,39.4 0,61.2 z"
     id="path6"
     inkscape:connector-curvature="0"
     style="fill:#575757;fill-opacity:1" /></g>
</svg>